<?xml version="1.0" standalone="no"?>
<!DOCTYPE svg PUBLIC "-//W3C//DTD SVG 1.1//EN" "http://www.w3.org/Graphics/SVG/1.1/DTD/svg11.dtd" >
<svg xmlns="http://www.w3.org/2000/svg" xmlns:xlink="http://www.w3.org/1999/xlink" version="1.1">
<metadata></metadata>
<defs>
<font id="seoulhangangjanglregular" horiz-adv-x="822" >
<font-face units-per-em="1024" ascent="879" descent="-145" />
<missing-glyph horiz-adv-x="307" />
<glyph unicode=" "  horiz-adv-x="307" />
<glyph unicode="&#x09;" horiz-adv-x="307" />
<glyph unicode="&#xa0;" horiz-adv-x="307" />
<glyph unicode="!" horiz-adv-x="299" d="M103 791h93l-28 -558q-1 -9 -5.5 -13.5t-12.5 -4.5t-13 4t-5 14zM209 61q0 -25 -17.5 -42.5t-41.5 -17.5q-25 0 -42.5 17.5t-17.5 42.5q0 24 17.5 41.5t42.5 17.5q24 0 41.5 -17.5t17.5 -41.5z" />
<glyph unicode="&#x22;" horiz-adv-x="379" d="M81 811h80l-15 -221q-1 -11 -8 -16.5t-16 -5.5q-10 -1 -17 4.5t-7 17.5zM218 811h80l-17 -221q0 -12 -7.5 -17t-17.5 -5q-9 0 -16 5t-7 17z" />
<glyph unicode="#" horiz-adv-x="574" d="M472 715l-45 -196h109l-11 -37h-106l-37 -163h112l-12 -37h-109l-51 -225h-56l51 225h-110l-51 -225h-57l52 225h-105l10 37h103l37 163h-108l11 37h105l45 196h56l-45 -196h111l45 196h56zM326 319l36 163h-110l-37 -163h111z" />
<glyph unicode="$" horiz-adv-x="497" d="M221 38q-76 4 -118 35q-48 34 -54 86h79q0 -33 30 -59q23 -22 63 -26v309q-84 26 -121 67q-42 45 -42 116t51 117q43 41 112 45v73h36v-72q67 -4 108 -31q45 -33 56 -85h-77q-2 44 -32 65q-23 18 -55 21v-287q98 -34 138 -76q44 -47 44 -114q0 -87 -56 -136 q-51 -43 -126 -47v-78h-36v77zM257 74q44 6 74 41q36 41 36 99q0 60 -29 102q-26 37 -81 56v-298zM221 699q-40 -5 -63 -36q-29 -37 -29 -103q0 -61 29 -93q23 -26 63 -43v275z" />
<glyph unicode="%" horiz-adv-x="784" d="M505 723h44l-270 -682h-45zM38 508q0 77 36 133.5t103 56.5q68 0 103.5 -56.5t35.5 -133.5q0 -75 -35.5 -130.5t-103.5 -55.5q-67 0 -103 55.5t-36 130.5zM468 250q0 77 36 134t103 57q68 0 103.5 -57t35.5 -134q0 -76 -35.5 -131t-103.5 -55q-67 0 -103 55t-36 131z M94 508q0 -63 22.5 -108t59.5 -45q38 0 61 45t23 108q0 66 -23 112t-61 46q-37 0 -59.5 -46t-22.5 -112zM524 250q0 -63 22.5 -108t59.5 -45q38 0 61 45t23 108q0 66 -23 112t-61 46q-37 0 -59.5 -46t-22.5 -112z" />
<glyph unicode="&#x26;" horiz-adv-x="762" d="M334 276q-28 42 -75 129q-54 -34 -84 -75q-39 -54 -35 -116q4 -67 40.5 -103.5t85.5 -38.5q40 -2 86 19q35 16 75 55q-55 70 -93 130zM239 445q-46 92 -48 156q-1 65 40.5 107t113.5 39q56 -2 92.5 -38t36.5 -93q0 -60 -40 -101q-38 -38 -125 -83q43 -77 66 -115 q35 -56 87 -131q23 30 43 72q23 53 23 85q0 24 -10.5 38.5t-36.5 14.5q-14 0 -14 12t13 12h164q19 0 19 -12t-19 -12q-21 0 -36 -8.5t-25 -49.5q-28 -106 -94 -190q52 -63 104 -72q18 -3 39.5 1.5t40.5 16.5q20 10 27.5 -3t-6.5 -23q-12 -10 -38.5 -21t-65.5 -11 q-70 0 -133 73q-84 -89 -189 -89q-87 0 -138.5 55t-51.5 134q0 82 51 146q40 50 110 90zM289 471q79 40 107 72q31 34 31 68q0 40 -23.5 65.5t-63.5 25.5q-41 0 -65.5 -25.5t-24.5 -73.5q0 -54 39 -132z" />
<glyph unicode="'" horiz-adv-x="298" d="M108 811h82l-14 -221q-1 -11 -8.5 -16.5t-17.5 -5.5q-12 -1 -19 4.5t-8 17.5z" />
<glyph unicode="(" horiz-adv-x="348" d="M97 351q0 171 57 288t133 164q13 8 19 -1t-3 -19q-73 -69 -105 -177t-31 -255q-1 -148 31 -256t105 -178q9 -9 3 -18t-19 -1q-76 46 -133 164t-57 289z" />
<glyph unicode=")" horiz-adv-x="348" d="M251 351q0 -171 -57 -289t-133 -164q-14 -8 -20 1t3 18q73 70 105.5 178t31.5 256q1 147 -31.5 255t-105.5 177q-9 10 -3 19t20 1q76 -47 133 -164t57 -288z" />
<glyph unicode="*" horiz-adv-x="348" d="M174 582q-15 -29 -22.5 -60t-15.5 -46t-19 -19t-21 2q-11 7 -12.5 18t6.5 25q9 16 33 37.5t40 48.5q-33 -2 -63.5 -11t-48.5 -9q-17 0 -26 7t-9 19q0 14 9 20.5t26 6.5q18 0 49 -10.5t63 -10.5q-18 27 -41 48.5t-32 36.5q-8 15 -6 26t12 17q12 7 22 2.5t18 -18.5 q8 -15 15 -47t23 -59q15 29 22.5 60t15.5 46q8 14 19 18.5t21 -2.5q11 -7 12.5 -17.5t-6.5 -25.5q-9 -15 -33 -36.5t-40 -49.5q33 2 64 11.5t48 9.5t26 -7t9 -20t-9 -19.5t-26 -6.5t-48.5 10t-63.5 10q18 -26 41 -47.5t32 -37.5q8 -14 6 -25.5t-12 -17.5q-11 -6 -21.5 -2 t-18.5 19t-15 47t-23 59z" />
<glyph unicode="+" horiz-adv-x="528" d="M233 379h-182v44h182v207h59v-207h183v-44h-183v-224h-59v224z" />
<glyph unicode="," horiz-adv-x="281" d="M81 61q0 24 17.5 41.5t41.5 17.5t42 -18t22 -41q7 -48 -17 -97t-70 -76q-13 -7 -19.5 0.5t1.5 13.5q19 14 33 36t20 47q4 21 -9 21q-29 0 -45.5 16t-16.5 39z" />
<glyph unicode="-" horiz-adv-x="379" d="M52 429h275v-56h-275v56z" />
<glyph unicode="." horiz-adv-x="281" d="M200 61q0 -25 -17.5 -42.5t-42.5 -17.5q-24 0 -41.5 17.5t-17.5 42.5q0 24 17.5 41.5t41.5 17.5q25 0 42.5 -17.5t17.5 -41.5z" />
<glyph unicode="/" horiz-adv-x="375" d="M293 808h50l-261 -917h-50z" />
<glyph unicode="0" horiz-adv-x="461" d="M35 383q0 175 53 267t142 92t142.5 -92t53.5 -267t-53.5 -266.5t-142.5 -91.5t-142 91.5t-53 266.5zM103 383q0 -160 36.5 -236.5t90.5 -76.5q55 0 91 76.5t36 236.5q0 161 -36 237.5t-91 76.5q-54 0 -90.5 -76.5t-36.5 -237.5z" />
<glyph unicode="1" horiz-adv-x="461" d="M146 634l-18 -8q-13 -6 -19.5 5.5t6.5 19.5l140 88h29v-707h-66v554q0 34 -17.5 49t-54.5 -1z" />
<glyph unicode="2" horiz-adv-x="461" d="M45 73q13 15 36 38q61 66 154 205.5t93 236.5q0 68 -31.5 106t-91.5 38q-43 0 -75.5 -30t-37.5 -78h-50q7 72 55.5 113.5t111.5 41.5q88 0 137 -53t49 -143q0 -82 -72 -202.5t-193 -260.5h145q48 0 74 11.5t38 66.5q1 9 13 7.5t12 -6.5l-11 -126h-356v35z" />
<glyph unicode="3" horiz-adv-x="461" d="M286 403q70 -31 98 -78.5t25 -107.5q-5 -81 -61 -136t-165 -56q-36 0 -75.5 10t-65.5 29v49q27 -20 67.5 -29t70.5 -9q70 0 114.5 41t44.5 118q0 55 -16 79.5t-38 41.5q-24 16 -49 19.5t-40 3.5q-22 0 -21 22t25 22q8 0 21 0.5t27 4.5q36 12 60.5 45t26.5 91 q2 66 -35.5 99.5t-92.5 33.5q-42 0 -73 -24t-37 -62h-48q8 56 53.5 94t112.5 38q82 0 133.5 -51t51.5 -125q0 -62 -29.5 -104.5t-84.5 -58.5z" />
<glyph unicode="4" horiz-adv-x="461" d="M287 236h-262v50l255 456h69v-460h87v-46h-87v-199h-62v199zM79 282h208v376z" />
<glyph unicode="5" horiz-adv-x="461" d="M128 415q40 32 73 37t60 3q63 -4 110.5 -54t47.5 -142q0 -101 -60 -163.5t-160 -66.5q-43 -2 -85.5 10t-65.5 28v43q42 -24 90.5 -31.5t80.5 -0.5q63 14 100 62t37 125q0 67 -33 104.5t-85 40.5q-34 2 -63 -10.5t-50 -41.5h-62l18 373h295v-48h-239z" />
<glyph unicode="6" horiz-adv-x="461" d="M108 355q15 37 48 63q41 34 99 34q80 0 128 -59t48 -153q0 -97 -52.5 -155.5t-149.5 -59.5q-88 -1 -138 69.5t-50 242.5q0 142 26 223.5t69 125.5q49 52 126.5 55.5t128.5 -32.5v-42q-31 18 -62 24t-50 6q-71 0 -121 -79q-48 -77 -50 -263zM109 284q5 -116 34 -162 q36 -56 91 -56q58 0 94.5 44.5t36.5 125.5q0 89 -34.5 130t-77.5 41q-54 0 -96 -46q-35 -40 -48 -77z" />
<glyph unicode="7" horiz-adv-x="461" d="M348 681h-208q-24 0 -43.5 -17t-26.5 -63q-2 -15 -14.5 -15.5t-12.5 14.5l3 125h374v-33l-220 -661h-64z" />
<glyph unicode="8" horiz-adv-x="461" d="M52 565q0 84 49 130.5t129 46.5q81 0 130 -48.5t49 -132.5q0 -78 -49 -123q-23 -22 -54 -33q37 -14 66 -43q52 -56 52 -139q0 -97 -54 -148t-140 -51t-139.5 51t-53.5 148q0 83 53 139q28 30 66 43q-31 12 -55 35q-49 47 -49 125zM102 223q0 -75 37 -115t91 -40 q55 0 91.5 40t36.5 115q0 74 -36.5 116t-91.5 42q-54 0 -91 -42t-37 -116zM117 565q0 -66 32.5 -103t80.5 -37q49 0 81.5 35t32.5 101q0 65 -32.5 101t-81.5 36q-48 0 -80.5 -34t-32.5 -99z" />
<glyph unicode="9" horiz-adv-x="461" d="M350 400q-12 -27 -43 -50q-40 -33 -97 -33q-80 0 -127 59t-47 153q0 97 50 155.5t142 59.5q81 1 134 -81t53 -266q0 -110 -26.5 -196t-74.5 -127q-51 -44 -124 -47t-123 33v42q30 -18 61.5 -22t50.5 -4q74 0 122.5 72t48.5 249v3zM348 473q-7 105 -33 156q-35 69 -90 72 q-57 3 -90 -47t-33 -122q0 -89 36 -129.5t79 -40.5q52 0 95 47q26 28 36 64z" />
<glyph unicode=":" horiz-adv-x="298" d="M209 536q0 -25 -17.5 -42t-41.5 -17q-25 0 -42.5 17t-17.5 42t17.5 42t42.5 17q24 0 41.5 -17t17.5 -42zM209 163q0 -24 -17.5 -41.5t-41.5 -17.5q-25 0 -42.5 17.5t-17.5 41.5q0 25 17.5 42.5t42.5 17.5q24 0 41.5 -17.5t17.5 -42.5z" />
<glyph unicode=";" horiz-adv-x="298" d="M90 162q0 25 17.5 42.5t42.5 17.5q23 0 41 -18t22 -42q7 -48 -17 -96.5t-70 -76.5q-12 -7 -19 0.5t2 13.5q18 15 32.5 37t19.5 46q4 21 -8 21q-30 0 -46.5 16.5t-16.5 38.5zM209 536q0 -25 -17.5 -42t-41.5 -17q-25 0 -42.5 17t-17.5 42t17.5 42t42.5 17q24 0 41.5 -17 t17.5 -42z" />
<glyph unicode="&#x3c;" horiz-adv-x="528" d="M101 348v61l378 340v-65l-337 -306l337 -306v-64z" />
<glyph unicode="=" horiz-adv-x="528" d="M52 326h424v-50h-424v50zM52 527h424v-50h-424v50z" />
<glyph unicode="&#x3e;" horiz-adv-x="528" d="M427 348l-378 -340v64l336 306l-336 306v65l378 -340v-61z" />
<glyph unicode="?" horiz-adv-x="465" d="M176 304q0 45 15.5 76.5t45.5 66.5l55 64q21 27 36.5 52.5t15.5 71.5q0 58 -33 89t-85 31q-38 0 -68.5 -30.5t-30.5 -69.5h-72q0 50 47.5 94.5t123.5 44.5q86 0 135 -45t49 -119q0 -46 -14 -78t-55 -79q-71 -73 -85.5 -91t-23.5 -33q-7 -14 -9.5 -28t-2.5 -42v-54 q0 -14 -7 -19.5t-16 -5.5t-15 5t-6 20v79zM261 61q0 -25 -17.5 -42.5t-41.5 -17.5q-25 0 -42.5 17.5t-17.5 42.5q0 24 17.5 41.5t42.5 17.5q24 0 41.5 -17.5t17.5 -41.5z" />
<glyph unicode="@" horiz-adv-x="911" d="M760 2q-44 -54 -125 -91t-173 -37q-194 0 -290.5 119.5t-87.5 279.5q11 198 127.5 336.5t280.5 138.5q153 0 248.5 -99t87.5 -282q-4 -113 -59 -203t-144 -125q-50 -19 -86 -2.5t-25 85.5q-20 -40 -56.5 -60.5t-73.5 -20.5q-63 0 -96.5 49t-29.5 111q8 122 80 224 t161 102q49 0 77.5 -23t35.5 -65l23 66h36q22 0 15 -21l-111 -328q-16 -57 10.5 -72t74.5 18q53 36 85 107t36 154q9 166 -72.5 253t-204.5 88q-135 1 -236.5 -106.5t-122.5 -274.5q-23 -189 66.5 -298.5t253.5 -109.5q79 0 149 28t117 77q12 10 24.5 1.5t4.5 -19.5z M317 209q-8 -62 16.5 -92.5t58.5 -31.5q39 -1 78.5 37t66.5 106q23 60 35.5 108.5t12.5 71.5q0 28 -20.5 51.5t-58.5 23.5q-59 0 -116.5 -83t-72.5 -191z" />
<glyph unicode="A" horiz-adv-x="546" d="M466 38l-75 231h-246l-72 -231h-60l190 579q15 57 8 68.5t-33 18.5q-15 4 -21 7t-6 11q0 13 23 13h128l233 -697h-69zM377 314l-110 340l-107 -340h217z" />
<glyph unicode="B" horiz-adv-x="562" d="M161 652v-223h119q67 0 104.5 33t37.5 101q0 60 -43.5 95t-107.5 35h-61q-49 0 -49 -41zM161 120q0 -40 49 -40h63q76 0 128.5 37.5t52.5 108.5q0 81 -49.5 119.5t-124.5 38.5h-119v-264zM294 38h-197v599q0 30 -9.5 47t-28.5 21q-16 4 -20.5 8t-4.5 10q0 12 24 12h224 q99 0 153 -42t54 -121q0 -66 -33.5 -107t-89.5 -55q77 -12 116 -61t39 -123q0 -86 -56.5 -137t-170.5 -51z" />
<glyph unicode="C" horiz-adv-x="582" d="M537 79q-21 -16 -63.5 -30t-89.5 -17q-154 -10 -249 95t-95 274q0 154 74.5 250.5t215.5 96.5q89 0 150.5 -48.5t61.5 -95.5h-73q-2 33 -43 64.5t-98 31.5q-94 0 -155.5 -78.5t-61.5 -203.5q0 -186 90.5 -266t200.5 -70q37 3 66.5 12.5t50.5 22.5q9 6 18 4t12 -9 q4 -8 0 -17.5t-12 -15.5z" />
<glyph unicode="D" horiz-adv-x="596" d="M97 638q0 30 -9.5 46t-26.5 20q-17 5 -22 8.5t-5 10.5q0 12 24 12h130q36 0 83.5 -3t80.5 -9q88 -16 146 -96.5t58 -243.5q0 -113 -28.5 -178.5t-75.5 -102.5q-44 -36 -99.5 -50t-131.5 -14h-124v600zM246 80q105 0 173.5 71t68.5 232q0 150 -54.5 230t-173.5 80h-49 q-49 0 -49 -40v-533q0 -40 49 -40h35z" />
<glyph unicode="E" horiz-adv-x="532" d="M162 420h145q44 0 68.5 18.5t24.5 46.5q0 13 11.5 13t11.5 -13v-172q0 -14 -11.5 -14t-11.5 14q0 26 -24.5 46.5t-68.5 20.5h-145v-260q0 -40 48 -40h156q48 0 64 27t21 53q2 13 14.5 11.5t12.5 -11.5l-7 -122h-374v600q0 30 -9.5 46t-28.5 21q-16 4 -20.5 7t-4.5 10 q0 13 24 13h398l5 -113q0 -11 -12.5 -11.5t-13.5 11.5q-1 23 -19.5 47t-69.5 24h-136q-48 0 -48 -40v-233z" />
<glyph unicode="F" horiz-adv-x="497" d="M162 424h145q44 0 68.5 18.5t24.5 46.5q0 13 11.5 13t11.5 -13v-172q0 -13 -11.5 -13t-11.5 13q0 26 -24.5 46.5t-68.5 20.5h-145v-346h-65v600q0 30 -9.5 46t-26.5 20q-17 5 -22 8.5t-5 10.5q0 12 24 12h398l5 -113q0 -11 -12 -11.5t-14 12.5q-5 31 -22.5 51t-66.5 20 h-136q-48 0 -48 -39v-231z" />
<glyph unicode="G" horiz-adv-x="600" d="M540 362v-280q-62 -42 -167 -48.5t-175 35.5q-68 41 -112.5 121.5t-45.5 203.5q-1 160 74 257t216 97q89 0 150.5 -48.5t61.5 -95.5h-71q-2 34 -44 65t-99 31q-89 0 -154 -74.5t-65 -215.5q0 -155 67 -239t176 -88q20 -1 51.5 1.5t71.5 19.5v163q0 57 -23.5 75t-76.5 18 q-19 0 -19 16.5t19 16.5h136q29 0 29 -31z" />
<glyph unicode="H" horiz-adv-x="608" d="M162 38h-65v598q0 30 -9 46.5t-29 21.5q-18 4 -25 6.5t-7 10.5q0 13 23 13h84q28 0 28 -32v-273h300v306h64v-697h-64v346h-300v-346z" />
<glyph unicode="I" horiz-adv-x="246" d="M163 38h-65v599q0 30 -9 46.5t-29 21.5q-18 4 -25 7t-7 10q0 13 23 13h84q28 0 28 -32v-665z" />
<glyph unicode="J" horiz-adv-x="409" d="M263 219v418q0 30 -9 46.5t-28 20.5q-18 5 -25.5 7.5t-7.5 10.5q0 13 23 13h84q28 0 28 -32v-482q0 -103 -45.5 -146t-118.5 -43q-79 0 -120.5 32t-41.5 90h67q1 -38 26.5 -58t68.5 -20q45 0 72 33.5t27 109.5z" />
<glyph unicode="K" horiz-adv-x="514" d="M164 38h-65v598q0 30 -9 46.5t-29 21.5q-18 4 -25 6.5t-7 10.5q0 13 23 13h84q28 0 28 -32v-284l254 316h45q12 0 14 -5.5t-4 -12.5l-244 -297l291 -381h-77l-279 372v-372z" />
<glyph unicode="L" horiz-adv-x="478" d="M163 126q0 -39 48 -39h146q41 0 60 20t25 70q1 13 14.5 11.5t13.5 -11.5l-7 -139h-365v598q0 30 -9 46.5t-28 20.5q-18 5 -25.5 7.5t-7.5 10.5q0 13 23 13h84q28 0 28 -32v-576z" />
<glyph unicode="M" horiz-adv-x="758" d="M198 735l183 -620l190 620h108v-697h-62v661l-200 -630q-5 -18 -14 -24.5t-22 -6.5h-39l-191 645v-645h-56v599q0 30 -6 45.5t-24 20.5q-19 6 -24 9t-5 10q0 13 23 13h139z" />
<glyph unicode="N" horiz-adv-x="608" d="M184 735l283 -588v588h59v-654q0 -43 -36 -43h-31l-307 629v-629h-55v599q0 30 -6 45.5t-24 20.5q-19 6 -25 9t-6 10q0 13 25 13h123z" />
<glyph unicode="O" horiz-adv-x="653" d="M40 391q0 159 77 258t210 99q132 0 209 -99t77 -258q0 -160 -77 -259.5t-209 -99.5q-133 0 -210 99.5t-77 259.5zM109 391q0 -146 59.5 -228.5t158.5 -82.5q97 0 157.5 82.5t60.5 228.5q0 145 -60.5 227.5t-157.5 82.5q-99 0 -158.5 -82.5t-59.5 -227.5z" />
<glyph unicode="P" horiz-adv-x="525" d="M59 705q-16 4 -20.5 7.5t-4.5 9.5q0 13 24 13h220q105 0 163.5 -51t58.5 -137q0 -100 -63.5 -149t-166.5 -49h-48q-20 0 -20 21.5t20 21.5h45q70 0 117.5 39.5t47.5 115.5q1 66 -45 106.5t-108 40.5h-68q-49 0 -49 -39v-617h-65v600q0 30 -9.5 46.5t-28.5 20.5z" />
<glyph unicode="Q" horiz-adv-x="653" d="M373 35q6 -35 56 -61q53 -29 140 -15v-28q-18 -5 -37.5 -7t-45.5 -2q-89 0 -142 33q-51 32 -68 81q-98 16 -159 95q-77 100 -77 260q0 159 77 258t210 99q132 0 209 -99t77 -258q0 -160 -76 -260q-64 -80 -164 -96zM109 391q0 -146 59.5 -228.5t158.5 -82.5 q97 0 157.5 82.5t60.5 228.5q0 145 -60.5 227.5t-157.5 82.5q-99 0 -158.5 -82.5t-59.5 -227.5z" />
<glyph unicode="R" horiz-adv-x="525" d="M279 694h-68q-49 0 -49 -39v-617h-65v600q0 30 -9.5 46.5t-28.5 20.5q-16 4 -20.5 7.5t-4.5 10.5q0 12 24 12h220q105 0 163.5 -50t58.5 -136q0 -94 -56 -144t-159 -54l208 -313h-79l-207 314q-11 16 -6.5 28t27.5 12h38q71 0 118.5 40.5t47.5 116.5q1 66 -45 105.5 t-108 39.5z" />
<glyph unicode="S" horiz-adv-x="461" d="M349 226q-3 48 -39 84.5t-110 73.5q-77 40 -117.5 88.5t-38.5 118.5q2 69 52.5 113t135.5 44q48 0 81.5 -6.5t64.5 -16.5v-55q-26 12 -66.5 22.5t-81.5 10.5q-46 0 -82 -31.5t-36 -84.5q0 -49 38.5 -85.5t116.5 -78.5t114.5 -89t36.5 -110q0 -79 -54 -133.5t-155 -59.5 q-38 -2 -80.5 7.5t-68.5 24.5q-15 9 -20.5 19t-0.5 23q5 12 16.5 15t22.5 -4q23 -15 61 -25t73 -8q71 4 106 45t31 98z" />
<glyph unicode="T" horiz-adv-x="520" d="M126 693q-51 0 -68 -34t-18 -62q0 -12 -14 -11.5t-14 11.5l5 138h485l5 -138q0 -11 -14 -11.5t-14 11.5q-1 28 -18 62t-68 34h-101v-655h-65v655h-101z" />
<glyph unicode="U" horiz-adv-x="611" d="M97 297v339q0 30 -9 46.5t-28 20.5q-18 5 -25.5 7.5t-7.5 10.5q0 13 23 13h84q28 0 28 -32v-398q0 -104 35 -163.5t119 -59.5q77 0 119 52t42 167v435h59v-429q0 -153 -60 -213.5t-160 -60.5t-159.5 62.5t-59.5 202.5z" />
<glyph unicode="V" horiz-adv-x="568" d="M32 706q-13 4 -18 6.5t-5 9.5q0 13 24 13h81l197 -598l196 598h35q13 0 16.5 -6.5t-0.5 -17.5l-226 -675h-51l-198 586q-13 41 -23 59.5t-28 24.5z" />
<glyph unicode="W" horiz-adv-x="778" d="M638 36h-59l-158 618l-160 -618h-68l-109 586q-8 41 -20 60t-31 26q-13 4 -18 7t-5 9q0 11 24 11h95l107 -591l149 591h76l149 -591l102 591h43q9 0 11.5 -3t0.5 -11z" />
<glyph unicode="X" horiz-adv-x="497" d="M217 398l-118 225q-20 42 -36 59.5t-35 23.5q-11 3 -16.5 6t-5.5 11q0 12 24 12h85l140 -281l151 281h38q14 0 17.5 -7t-1.5 -17l-171 -302l197 -371h-75l-161 309l-160 -309h-67z" />
<glyph unicode="Y" horiz-adv-x="527" d="M282 419l183 316h35q14 0 16 -6.5t-3 -14.5l-204 -346v-330h-64v330l-153 255q-23 39 -33 57t-25 25q-12 4 -18.5 7.5t-6.5 10.5q0 12 24 12h71z" />
<glyph unicode="Z" horiz-adv-x="523" d="M37 78l348 614h-217q-53 0 -67.5 -25t-19.5 -66q-2 -13 -16 -13t-13 13l5 134h405v-39l-353 -615h245q60 0 74 32.5t17 69.5q1 11 15.5 11t14.5 -12l-4 -144h-434v40z" />
<glyph unicode="[" horiz-adv-x="326" d="M164 -11q0 -62 49 -62h42q26 0 26 -19q0 -17 -25 -17h-131q-28 0 -28 30v858q0 29 28 29h131q25 0 25 -17q0 -18 -26 -18h-42q-49 0 -49 -63v-721z" />
<glyph unicode="\" horiz-adv-x="911" d="M858 376h-127l-63 -337h-57l-86 337h-127l-87 -337h-65l-63 337h-124v46h116l-32 172q-8 39 -19.5 57t-29.5 25q-11 3 -16 6t-5 10q0 9 22 9h90l51 -279h122l71 279h71l70 -279h120l48 279h41q8 0 10.5 -2t1.5 -10l-51 -267h118v-46zM683 376h-101l60 -236zM347 376h-103 l43 -236zM410 422h104l-52 203z" />
<glyph unicode="]" horiz-adv-x="326" d="M162 -11v721q0 63 -49 63h-42q-26 0 -26 18q0 17 25 17h130q28 0 28 -29v-858q0 -30 -28 -30h-134q-21 2 -21 19t26 17h42q49 0 49 62z" />
<glyph unicode="^" horiz-adv-x="433" d="M184 758h67l127 -225h-63l-97 179l-100 -179h-62z" />
<glyph unicode="_" horiz-adv-x="461" d="M5 -36h451v-41h-451v41z" />
<glyph unicode="`" horiz-adv-x="281" d="M83 711q-9 16 -4.5 30t14.5 20q11 7 26.5 5t24.5 -14l51 -142q6 -16 -8 -22.5t-24 8.5z" />
<glyph unicode="a" horiz-adv-x="483" d="M357 121q-13 -37 -58 -63.5t-105 -26.5q-59 0 -98.5 35t-39.5 94q0 79 71 125.5t196 46.5h34v31q0 64 -31.5 97.5t-85.5 33.5q-47 0 -78 -24t-31 -60h-69q0 51 50 88t131 37q84 0 130.5 -43.5t46.5 -123.5v-330h-63v83zM357 288q-123 3 -180.5 -29t-57.5 -89 q0 -48 27.5 -69.5t63.5 -21.5q54 0 100.5 38.5t46.5 98.5v72z" />
<glyph unicode="b" horiz-adv-x="512" d="M404 278q0 95 -35 153t-103 58q-47 0 -85 -43.5t-38 -110.5v-99q0 -86 38.5 -125t87.5 -39q57 0 96 55t39 151zM142 456l4 6q51 73 138 73q85 0 134.5 -68t49.5 -186q0 -110 -52 -180t-141 -70q-91 0 -135 69q-7 -62 -47 -62h-12v622q0 30 -8 45.5t-25 20.5 q-17 7 -22.5 9.5t-5.5 9.5q0 12 24 12h71q27 0 27 -32v-269z" />
<glyph unicode="c" horiz-adv-x="483" d="M418 61q-26 -15 -64.5 -23.5t-86.5 -5.5q-91 6 -157 75t-66 194q0 111 59 172.5t155 61.5q77 0 124 -38.5t51 -85.5h-65q0 31 -30 57t-85 26t-98 -49.5t-43 -143.5q0 -98 47 -159.5t125 -68.5q29 -3 60.5 2t62.5 20q10 5 16.5 2t8.5 -9q3 -7 -1.5 -14.5t-12.5 -12.5z" />
<glyph unicode="d" horiz-adv-x="512" d="M108 278q0 -96 37.5 -150.5t95.5 -54.5q56 0 92 54t36 141v67q0 70 -39 112t-93 42q-56 0 -92.5 -54.5t-36.5 -156.5zM370 114q-46 -83 -134 -83q-91 0 -141.5 70t-50.5 180q0 118 50 186t134 68q91 0 141 -67l1 -1v193q0 30 -8.5 46t-24.5 20q-18 6 -23 9t-5 10 q0 12 24 12h70q28 0 28 -32v-687h-61v76z" />
<glyph unicode="e" horiz-adv-x="483" d="M113 278q3 -87 48 -142.5t123 -62.5q29 -3 60.5 2t62.5 20q10 5 17 2t8 -9q2 -7 -2 -14.5t-12 -12.5q-26 -15 -64.5 -23.5t-86.5 -5.5q-91 6 -157 75t-66 194q0 111 59 172.5t153 61.5q78 0 131 -56t53 -165v-36h-327zM113 321h264q0 94 -35.5 133.5t-86.5 39.5 q-58 0 -99 -45.5t-43 -127.5z" />
<glyph unicode="f" horiz-adv-x="344" d="M106 482h-84v40h84v115q0 65 33.5 96t91.5 31q62 0 94 -31.5t33 -71.5h-61q-1 23 -18.5 45.5t-49.5 21.5q-25 -1 -42.5 -23.5t-17.5 -70.5v-112h135v-40h-135v-444h-63v444z" />
<glyph unicode="g" horiz-adv-x="512" d="M106 279q0 -85 38 -133t95 -48q52 0 91.5 42.5t39.5 126.5v68q0 70 -39.5 112t-93.5 42q-56 0 -93.5 -51.5t-37.5 -158.5zM371 131q-1 -1 -1 -2q-47 -73 -133 -73q-91 0 -142 65.5t-51 159.5q0 118 50 186t134 68q88 0 139 -75q2 -3 4 -7v22q0 47 37 47h59q23 0 23 -11 q0 -6 -10 -9t-19 -6q-15 -4 -22 -16t-7 -51v-373q0 -91 -47 -140.5t-144 -49.5q-93 0 -132 35.5t-43 83.5h62q2 -30 30.5 -54.5t90.5 -24.5q53 0 87.5 36.5t34.5 98.5v90z" />
<glyph unicode="h" horiz-adv-x="512" d="M143 38h-62v622q0 30 -8 45.5t-27 21.5q-14 6 -20 8.5t-6 9.5q0 12 24 12h72q27 0 27 -32v-326q14 51 58 90q47 41 110 41q56 0 93.5 -42t37.5 -149v-301h-62v309q0 67 -23.5 98t-63.5 31q-60 0 -106 -65q-36 -50 -44 -145v-228z" />
<glyph unicode="i" horiz-adv-x="230" d="M153 38h-64v386q0 30 -8 46.5t-25 20.5q-17 5 -22 8t-5 10q0 13 23 13h73q28 0 28 -31v-453zM165 698q0 -23 -16 -39t-38 -16q-23 0 -39 16t-16 39q0 22 16 38t39 16q22 0 38 -16t16 -38z" />
<glyph unicode="j" horiz-adv-x="263" d="M186 30q0 -90 -34 -127q-36 -37 -100 -37q-67 0 -100 33.5t-33 79.5h66q0 -38 20 -57.5t47 -19.5q38 0 54 31q17 30 17 97v394q0 30 -8.5 46.5t-26.5 21.5q-14 4 -20 7t-6 10q0 13 24 13h73q27 0 27 -31v-461zM202 698q0 -23 -16 -39t-39 -16q-22 0 -38 16t-16 39 q0 22 16 38t38 16q23 0 39 -16t16 -38z" />
<glyph unicode="k" horiz-adv-x="456" d="M143 38h-62v622q0 30 -8 46t-27 21q-14 5 -20 8t-6 10q0 12 24 12h72q27 0 27 -32v-404l208 201h70l-212 -201l236 -283h-74l-228 272v-272z" />
<glyph unicode="l" horiz-adv-x="230" d="M153 38h-64v622q0 30 -8 46t-25 20q-17 6 -22 9.5t-5 9.5q0 12 23 12h73q28 0 28 -32v-687z" />
<glyph unicode="m" horiz-adv-x="731" d="M142 38h-61v386q0 30 -8 46.5t-25 20.5q-17 5 -22.5 8t-5.5 10q0 13 24 13h71q27 0 27 -31v-89q8 48 41 83q43 45 104 45q54 0 85 -38q22 -29 28 -94q11 47 41 83q42 49 105 49q53 0 84.5 -40t31.5 -147v-305h-62v306q0 66 -19 100.5t-55 34.5q-46 0 -89 -68 q-25 -39 -35 -119v-254h-61v306q0 67 -17.5 101t-56.5 34q-42 0 -85 -62q-31 -46 -40 -142v-237z" />
<glyph unicode="n" horiz-adv-x="512" d="M142 38h-60v386q0 30 -8.5 46.5t-27.5 21.5q-14 4 -20 7t-6 10q0 13 24 13h71q27 0 27 -31v-96q14 54 59 94q47 41 110 41q56 0 93.5 -42t37.5 -149v-301h-62v309q0 67 -23.5 98t-63.5 31q-60 0 -106 -65q-39 -53 -45 -160v-213z" />
<glyph unicode="o" horiz-adv-x="512" d="M42 283q0 113 57 182.5t157 69.5t157 -69.5t57 -182.5t-57 -182.5t-157 -69.5t-157 69.5t-57 182.5zM112 283q0 -104 40.5 -157.5t103.5 -53.5q62 0 103 53.5t41 157.5t-41 157.5t-103 53.5q-63 0 -103.5 -53.5t-40.5 -157.5z" />
<glyph unicode="p" horiz-adv-x="512" d="M81 424q0 30 -8 46.5t-27 21.5q-16 4 -21 7t-5 10q0 13 24 13h71q27 0 27 -32v-34l4 6q51 73 138 73q85 0 134.5 -68t49.5 -186q0 -110 -52 -180t-141 -70q-90 0 -133 67v-232h-61v558zM404 278q0 95 -35 153t-103 58q-47 0 -85 -43.5t-38 -110.5v-99q0 -86 38.5 -125 t87.5 -39q57 0 96 55t39 151z" />
<glyph unicode="q" horiz-adv-x="512" d="M108 278q0 -105 37 -153t92 -48q49 0 89 48t40 134v76q0 67 -39.5 110.5t-86.5 43.5q-66 0 -99 -54t-33 -157zM369 123q-5 -9 -11 -17q-48 -75 -128 -75q-88 0 -137 69.5t-49 180.5q0 118 50 186t136 68q84 0 130 -64l9 -12q0 39 13 58q12 18 29 18h20v-669h-62v257z" />
<glyph unicode="r" horiz-adv-x="361" d="M92 424q0 30 -8 46.5t-25 20.5q-17 5 -22 8.5t-5 9.5q0 13 23 13h69q29 0 29 -31v-73q13 42 46 74q40 38 104 38h33v-63q-67 14 -124 -24q-48 -33 -59 -105v-300h-61v386z" />
<glyph unicode="s" horiz-adv-x="418" d="M203 269q-71 25 -111 60.5t-40 81.5q0 59 41.5 93.5t121.5 36.5q35 1 68.5 -5.5t58.5 -15.5v-62q-18 13 -53.5 27.5t-73.5 13.5q-46 -1 -73.5 -20t-28.5 -56q-1 -34 32.5 -59.5t92.5 -46.5q73 -27 105 -61t32 -77q0 -71 -47 -109.5t-131 -38.5q-41 0 -78.5 12.5 t-56.5 27.5q-16 12 -18.5 19.5t2.5 17.5q6 10 16.5 11.5t20.5 -6.5q20 -17 51.5 -28.5t63.5 -10.5q65 2 92.5 32t23.5 72q-2 23 -26 45t-85 46z" />
<glyph unicode="t" horiz-adv-x="326" d="M159 673v-151h134v-40h-133v-334q0 -39 19 -57.5t58 -18.5q20 0 37 1t28 4v-41q-12 -4 -40 -6t-42 -2q-43 0 -67.5 8.5t-36.5 26.5q-13 17 -16 44.5t-3 64.5v310h-72v40h72v91z" />
<glyph unicode="u" horiz-adv-x="512" d="M440 38h-62v114q-11 -43 -43 -74q-47 -47 -120 -47q-54 0 -94 42t-40 151v200q0 30 -8 46.5t-27 21.5q-14 4 -20 7t-6 10q0 13 24 13h72q27 0 27 -32v-276q0 -67 23.5 -98.5t63.5 -31.5q67 0 112 64q29 41 36 140v136q0 30 -8.5 46.5t-24.5 20.5q-17 5 -22.5 8.5 t-5.5 9.5q0 13 24 13h72q27 0 27 -31v-453z" />
<glyph unicode="v" horiz-adv-x="466" d="M257 135l138 387h31q16 0 19.5 -7t-1.5 -17l-172 -463h-38l-168 418q-9 16 -16 28.5t-21 16.5q-13 3 -18 5.5t-5 8.5q0 10 24 10h75z" />
<glyph unicode="w" horiz-adv-x="636" d="M488 35h-44l-120 403l-113 -403h-43l-109 415q-5 17 -10 29.5t-18 17.5q-14 5 -19 8t-5 8q0 9 22 9h70l96 -381l102 376h58l112 -375l98 380h33q9 0 12 -4t1 -13z" />
<glyph unicode="x" horiz-adv-x="442" d="M407 505l-145 -208l168 -259h-68l-136 207l-144 -207h-57l171 253l-98 148q-10 16 -25.5 36t-29.5 24q-16 4 -19.5 7t-3.5 7q0 9 24 9h72l114 -178l120 178h44q13 0 15 -5.5t-2 -11.5z" />
<glyph unicode="y" horiz-adv-x="436" d="M91 -131q-42 8 -67 41t-25 80h60q0 -13 4 -29t10 -24q8 -11 24 -19.5t35 -5.5q25 4 39.5 26.5t28.5 60.5l20 61l-135 350q-10 33 -23 58t-32 31q-12 3 -17.5 5t-5.5 8q0 10 24 10h80l138 -375l126 375h37q11 0 14 -5.5t-1 -15.5l-179 -514q-30 -88 -69.5 -107.5 t-85.5 -10.5z" />
<glyph unicode="z" horiz-adv-x="446" d="M383 142q2 8 4.5 11.5t8.5 3.5q7 0 10 -3t3 -11l-8 -104h-362v35l285 410h-165q-40 0 -57 -13t-27 -42q-3 -9 -6 -13.5t-11 -4.5q-4 0 -6 3t-1 11l4 98h339v-35l-284 -409h164q55 0 78.5 17.5t30.5 45.5z" />
<glyph unicode="{" horiz-adv-x="416" d="M103 358q41 7 71 35t30 86q0 30 -17 105.5t8 121.5q23 42 62.5 67.5t93.5 30.5q10 1 12.5 -10t-13.5 -15q-28 -10 -54.5 -31.5t-37.5 -64.5t-2 -99t9 -81q0 -54 -19 -88t-74 -65q55 -32 74 -66t19 -88q0 -26 -9 -81.5t2 -98.5t37.5 -65t54.5 -30q16 -6 13.5 -16.5 t-12.5 -9.5q-54 5 -93.5 30t-62.5 68q-25 46 -8 121t17 106q0 58 -30 86t-71 35v17z" />
<glyph unicode="|" horiz-adv-x="310" d="M128 795h54v-891h-54v891z" />
<glyph unicode="}" horiz-adv-x="416" d="M312 341q-41 -7 -70.5 -35t-29.5 -86q0 -31 17 -106t-9 -121q-22 -43 -61.5 -68t-95.5 -30q-9 -1 -11 9.5t13 16.5q28 8 54 30t39 65q11 43 2 98.5t-9 81.5q0 54 18.5 88t74.5 66q-56 31 -74.5 65t-18.5 88q0 25 9 81t-2 99q-13 43 -39 64.5t-54 31.5q-15 4 -13 15t11 10 q56 -5 95.5 -30.5t61.5 -67.5q26 -46 9 -121.5t-17 -105.5q0 -58 29.5 -86t70.5 -35v-17z" />
<glyph unicode="~" horiz-adv-x="545" d="M490 492q0 -86 -32.5 -130.5t-86.5 -44.5q-31 0 -56.5 12t-55.5 48q-32 39 -48.5 50t-32.5 11q-31 0 -48 -29.5t-18 -92.5h-57q0 86 35 131t86 45q32 0 57 -13.5t54 -46.5q24 -31 42.5 -46t37.5 -15q32 0 49 31t17 90h57z" />
<glyph unicode="&#x25fc;" horiz-adv-x="520" d="M0 520h520v-520h-520v520z" />
<glyph unicode="&#xac00;" horiz-adv-x="831" d="M97 633q-31 0 -31 27q0 25 29 25h307q20 0 28.5 -12.5t5.5 -26.5q-21 -127 -125.5 -260.5t-234.5 -214.5q-26 -15 -35 0.5t10 30.5q114 88 197 204t107 227h-258zM593 743q0 30 -13 41t-33 16q-21 6 -29 10t-8 12q0 17 29 17h82q36 0 36 -42v-309h129q33 0 33 -27 q0 -26 -33 -26h-129v-440q0 -92 -49 -92h-15v840z" />
<glyph unicode="&#xac01;" horiz-adv-x="831" d="M97 680q-31 0 -31 27q0 26 29 26h304q19 0 26.5 -12t4.5 -27q-20 -107 -124.5 -224.5t-231.5 -184.5q-25 -11 -32.5 5t11.5 28q119 76 197.5 178t102.5 184h-256zM593 743q0 30 -13 41t-33 16q-21 6 -29 10t-8 12q0 17 29 17h82q36 0 36 -42v-222h129q33 0 33 -27 q0 -26 -33 -26h-129v-153q0 -92 -49 -92h-15v466zM211 166q-28 0 -28 27q0 26 26 26h404q36 0 36 -42v-201q0 -92 -45 -92h-18v282h-375z" />
<glyph unicode="&#xac04;" horiz-adv-x="831" d="M97 678q-31 0 -31 27q0 26 29 26h304q19 0 26.5 -12t4.5 -27q-23 -120 -127 -247.5t-230 -197.5q-23 -12 -31 4t11 29q117 81 198 195t101 203h-255zM539 839h82q36 0 36 -42v-253h129q33 0 33 -26q0 -27 -33 -27h-129v-271q0 -93 -49 -93h-15v616q0 30 -13 41t-33 16 q-21 6 -29 10t-8 12q0 17 29 17zM667 -87h-325q-90 0 -90 87v106q0 29 -11 39.5t-34 17.5q-20 5 -24.5 9t-4.5 13q0 17 28 17h75q35 0 35 -47v-167q0 -21 19 -21h331q32 0 32 -27t-31 -27z" />
<glyph unicode="&#xac07;" horiz-adv-x="831" d="M97 680q-31 0 -31 27q0 26 29 26h304q19 0 26.5 -12t4.5 -27q-20 -107 -120.5 -226.5t-236.5 -197.5q-23 -13 -31 3t11 29q123 88 199.5 190.5t99.5 187.5h-255zM593 743q0 30 -13 41t-33 16q-21 6 -29 10t-8 12q0 17 29 17h82q36 0 36 -42v-225h129q33 0 33 -27 q0 -26 -33 -26h-129v-136q0 -92 -49 -92h-15v452zM633 -94h-311q-57 0 -57 66v153q0 34 -4 48t-28 23q-10 3 -15.5 7.5t-5.5 12.5q0 17 25 17h386q30 0 30 -27q0 -25 -31 -25h-292v-194q0 -29 24 -29h278q32 0 32 -25q0 -27 -31 -27z" />
<glyph unicode="&#xac08;" horiz-adv-x="831" d="M97 689q-31 0 -31 26t29 26h304q19 0 27 -12t4 -27q-23 -108 -125 -218.5t-231 -173.5q-25 -12 -32.5 4t11.5 28q118 73 194 164.5t106 182.5h-256zM593 743q0 30 -13 41t-33 16q-21 6 -29 10t-8 12q0 17 29 17h82q36 0 36 -42v-191h129q33 0 33 -27t-33 -27h-129v-113 q0 -92 -49 -92h-15v396zM649 -101h-337q-52 0 -52 65v73q0 22 -9.5 32t-24.5 17q-8 2 -12 6t-4 13q0 15 27 15h349v116h-323q-32 0 -32 27q0 25 30 25h355q34 0 34 -41v-129q0 -49 -41 -49h-284v-88q0 -30 23 -30h300q32 0 32 -25q0 -27 -31 -27z" />
<glyph unicode="&#xac09;" horiz-adv-x="831" d="M97 689q-31 0 -31 26t29 26h304q19 0 27 -12t4 -27q-23 -108 -125 -218.5t-231 -173.5q-25 -12 -32.5 4t11.5 28q118 73 194 164.5t106 182.5h-256zM593 743q0 30 -13 41t-33 16q-21 6 -29 10t-8 12q0 17 29 17h82q36 0 36 -42v-191h129q33 0 33 -27t-33 -27h-129v-113 q0 -92 -49 -92h-15v396zM158 236q-32 0 -32 27q0 25 30 25h204q34 0 34 -40v-133q0 -46 -34 -46h-146v-93q0 -25 17 -25h161q32 0 32 -25q0 -27 -31 -27h-183q-59 0 -59 70v67q0 22 -4.5 33t-21.5 18q-7 5 -10 7.5t-3 10.5q0 14 20 14h199v117h-173zM461 288h161 q35 0 35 -41v-256q0 -92 -47 -92h-17v337h-130q-32 0 -32 27q0 25 30 25z" />
<glyph unicode="&#xac0a;" horiz-adv-x="831" d="M97 689q-31 0 -31 26t29 26h304q19 0 27 -12t4 -27q-23 -108 -125 -218.5t-231 -173.5q-25 -12 -32.5 4t11.5 28q118 73 194 164.5t106 182.5h-256zM593 743q0 30 -13 41t-33 16q-21 6 -29 10t-8 12q0 17 29 17h82q36 0 36 -42v-191h129q33 0 33 -27t-33 -27h-129v-113 q0 -92 -49 -92h-15v396zM497 -32h100v269h-99v-237q0 -17 -1 -32zM158 236q-32 0 -32 27q0 25 30 25h176q34 0 34 -40v-133q0 -46 -34 -46h-118v-93q0 -25 17 -25h130q32 0 32 -25q0 -27 -31 -27h-153q-58 0 -58 70v68q0 22 -4.5 32.5t-21.5 17.5q-7 5 -10 7.5t-3 10.5 q0 14 20 14h170v117h-144zM623 288q35 0 35 -45v-191q0 -64 -26 -84h9q31 0 31 -25q0 -27 -31 -27h-156q-11 -28 -35 -28h-14v301q0 36 -3 44t-18 17q-9 6 -13 10t-4 12q0 16 21 16h204z" />
<glyph unicode="&#xac10;" horiz-adv-x="831" d="M97 680q-31 0 -31 27q0 26 29 26h304q19 0 26.5 -12t4.5 -27q-20 -107 -120.5 -226.5t-236.5 -197.5q-23 -13 -31 3t11 29q123 88 199.5 190.5t99.5 187.5h-255zM593 743q0 30 -13 41t-33 16q-21 6 -29 10t-8 12q0 17 29 17h82q36 0 36 -42v-225h129q33 0 33 -27 q0 -26 -33 -26h-129v-136q0 -92 -49 -92h-15v452zM323 -42h264v223h-263v-191q0 -17 -1 -32zM614 233q36 0 36 -43v-150q0 -60 -24 -82h7q31 0 31 -25q0 -27 -31 -27h-322q-11 -28 -36 -28h-15v247q0 34 -4.5 48t-27.5 23q-11 3 -16 7.5t-5 12.5q0 17 25 17h382z" />
<glyph unicode="&#xac11;" horiz-adv-x="831" d="M97 689q-31 0 -31 26t29 26h304q19 0 27 -12t4 -27q-23 -108 -123 -217.5t-234 -185.5q-24 -13 -31 3.5t11 29.5q118 81 193 170.5t107 186.5h-256zM593 743q0 30 -13 41t-33 16q-21 6 -29 10t-8 12q0 17 29 17h82q36 0 36 -42v-191h129q33 0 33 -27t-33 -27h-129v-125 q0 -92 -49 -92h-15v408zM324 149h263v63q0 25 -7 33.5t-20 13.5q-14 5 -19.5 8.5t-5.5 10.5q0 16 26 16h52q37 0 37 -41v-212q0 -62 -25 -83h8q31 0 31 -25q0 -27 -31 -27h-322q-12 -27 -36 -27h-15v300q0 24 -5.5 34.5t-17.5 13.5q-12 4 -19.5 7.5t-7.5 11.5q0 17 27 17h53 q34 0 34 -41v-73zM587 97h-263v-106q0 -17 -1 -33h264v139z" />
<glyph unicode="&#xac12;" horiz-adv-x="831" d="M97 689q-31 0 -31 26t29 26h304q19 0 27 -12t4 -27q-23 -108 -123 -217.5t-234 -185.5q-24 -13 -31 3.5t11 29.5q118 81 193 170.5t107 186.5h-256zM593 743q0 30 -13 41t-33 16q-21 6 -29 10t-8 12q0 17 29 17h82q36 0 36 -42v-191h129q33 0 33 -27t-33 -27h-129v-125 q0 -92 -49 -92h-15v408zM435 -70q46 54 80 126.5t42 149.5q1 13 -6.5 19.5t-27.5 12.5q-11 2 -15.5 6t-4.5 11q0 17 25 17h60q26 -1 34.5 -14.5t4.5 -37.5q-7 -54 -26 -103l144 -144q17 -15 19.5 -32t-6.5 -26q-12 -11 -27.5 -7t-24.5 17l-123 149q-10 -19 -20 -37 q-51 -86 -106 -130q-8 -6 -15 -6t-11 4q-5 5 -4 12t8 13zM217 137h145v69q0 25 -6 32.5t-19 12.5q-11 3 -15.5 7t-4.5 10q0 12 26 12h45q35 0 35 -39v-200q0 -62 -27 -83q30 -1 30 -25q0 -27 -31 -27h-190q-12 -27 -36 -27h-12v295q0 24 -5.5 32t-16.5 14q-11 3 -15.5 6.5 t-4.5 9.5q0 12 23 12h44q35 0 35 -39v-72zM362 85h-145v-94q0 -17 -1 -33h146v127z" />
<glyph unicode="&#xac13;" horiz-adv-x="831" d="M97 680q-31 0 -31 27q0 26 29 26h304q19 0 26.5 -12t4.5 -27q-20 -107 -120.5 -226.5t-236.5 -197.5q-23 -13 -31 3t11 29q123 88 199.5 190.5t99.5 187.5h-255zM593 743q0 30 -13 41t-33 16q-21 6 -29 10t-8 12q0 17 29 17h82q36 0 36 -42v-225h129q33 0 33 -27 q0 -26 -33 -26h-129v-186q0 -92 -49 -92h-15v502zM492 212q-10 -40 -35 -82l235 -163q15 -10 18 -26t-4 -25q-10 -11 -23.5 -11t-31.5 13l-217 179q-20 -28 -46 -56q-85 -91 -175 -139q-28 -15 -38 -2.5t12 28.5q85 58 147 135.5t87 138.5q7 21 -10.5 28t-35.5 11 q-17 3 -16 18t23 15h61q35 0 45 -18.5t4 -43.5z" />
<glyph unicode="&#xac14;" horiz-adv-x="831" d="M97 680q-31 0 -31 27q0 26 29 26h304q19 0 26.5 -12t4.5 -27q-20 -107 -120.5 -226.5t-236.5 -197.5q-23 -13 -31 3t11 29q123 88 199.5 190.5t99.5 187.5h-255zM593 743q0 30 -13 41t-33 16q-21 6 -29 10t-8 12q0 17 29 17h82q36 0 36 -42v-225h129q33 0 33 -27 q0 -26 -33 -26h-129v-136q0 -92 -49 -92h-15v452zM365 195q-8 -47 -32 -96l119 -105q16 22 31 46q51 80 65 153q2 11 -5.5 19.5t-28.5 14.5q-11 3 -15.5 6t-4.5 9q0 16 25 16h61q27 0 35 -13.5t5 -38.5q-8 -53 -34 -107l143 -126q17 -16 20.5 -30t-6.5 -23q-8 -10 -22 -10 t-30 17l-127 134q-11 -19 -24 -37q-69 -92 -136 -133q-23 -16 -33.5 -4t6.5 26q20 18 40 39l-106 111q-9 -13 -19 -28q-63 -81 -145 -130q-24 -15 -35 -3.5t8 26.5q67 51 114.5 122.5t58.5 128.5q2 11 -5 20t-28 15q-14 5 -17.5 7.5t-3.5 9.5q0 15 26 15h62q26 0 33.5 -14.5 t4.5 -36.5z" />
<glyph unicode="&#xac15;" horiz-adv-x="831" d="M97 680q-31 0 -31 27q0 26 29 26h304q19 0 26.5 -12t4.5 -27q-20 -107 -120.5 -226.5t-236.5 -197.5q-23 -13 -31 3t11 29q123 88 199.5 190.5t99.5 187.5h-255zM593 743q0 30 -13 41t-33 16q-21 6 -29 10t-8 12q0 17 29 17h82q36 0 36 -42v-225h129q33 0 33 -27 q0 -26 -33 -26h-129v-151q0 -92 -49 -92h-15v467zM262 71q0 80 57 134t139 54t138.5 -54t56.5 -134t-56.5 -134t-138.5 -54t-139 54t-57 134zM328 71q0 -60 38 -97t92 -37q53 0 91.5 37t38.5 97t-38.5 97t-91.5 37q-54 0 -92 -37t-38 -97z" />
<glyph unicode="&#xac16;" horiz-adv-x="831" d="M97 680q-31 0 -31 27q0 26 29 26h304q19 0 26.5 -12t4.5 -27q-20 -107 -120.5 -226.5t-236.5 -197.5q-23 -13 -31 3t11 29q123 88 199.5 190.5t99.5 187.5h-255zM593 743q0 30 -13 41t-33 16q-21 6 -29 10t-8 12q0 17 29 17h82q36 0 36 -42v-225h129q33 0 33 -27 q0 -26 -33 -26h-129v-136q0 -92 -49 -92h-15v452zM252 181q-32 0 -32 26t30 26h319q29 0 37.5 -15.5t-1.5 -38.5q-26 -61 -102 -122l188 -98q18 -9 22 -22.5t-3 -27.5q-8 -11 -22.5 -13t-28.5 8l-190 127l-14 -10q-116 -81 -246 -124q-22 -8 -29 7.5t13 23.5q87 37 181 103 t157 150h-279z" />
<glyph unicode="&#xac17;" horiz-adv-x="831" d="M97 689q-31 0 -31 26t29 26h304q19 0 27 -12t4 -27q-23 -108 -123 -217.5t-234 -185.5q-24 -13 -31 3.5t11 29.5q118 81 193 170.5t107 186.5h-256zM593 743q0 30 -13 41t-33 16q-21 6 -29 10t-8 12q0 17 29 17h82q36 0 36 -42v-191h129q33 0 33 -27t-33 -27h-129v-180 q0 -92 -49 -92h-15v463zM254 105q-33 0 -33 25q0 26 30 26h321q30 0 39 -18.5t-4 -35.5q-29 -44 -102 -87l181 -63q20 -4 26.5 -15.5t2.5 -23.5q-3 -9 -17 -12.5t-31 4.5l-204 85l-8 -4q-114 -57 -233 -83q-49 -10 -55 6.5t36 27.5q90 26 175.5 70.5t143.5 97.5h-268z M351 244l-27 23q-9 7 -10.5 15t4.5 16q6 7 14.5 5.5t16.5 -5.5q39 -18 78.5 -22.5t77.5 -4.5q30 0 30 -26q0 -12 -8 -18.5t-20 -6.5l-82 1q-45 0 -74 23z" />
<glyph unicode="&#xac19;" horiz-adv-x="831" d="M97 689q-31 0 -31 26t29 26h304q19 0 27 -12t4 -27q-23 -108 -125 -218.5t-231 -173.5q-25 -12 -32.5 4t11.5 28q118 73 194 164.5t106 182.5h-256zM593 743q0 30 -13 41t-33 16q-21 6 -29 10t-8 12q0 17 29 17h82q36 0 36 -42v-191h129q33 0 33 -27t-33 -27h-129v-113 q0 -92 -49 -92h-15v396zM620 120q30 0 30 -25q0 -26 -30 -26h-295v-89q0 -29 24 -29h287q32 0 32 -25q0 -27 -31 -27h-320q-57 0 -57 66v216q0 33 -4 47t-28 23q-10 3 -15.5 8t-5.5 13q0 16 24 16h398q30 0 30 -26t-31 -26h-303v-116h295z" />
<glyph unicode="&#xac1a;" horiz-adv-x="831" d="M97 680q-31 0 -31 27q0 26 29 26h304q19 0 26.5 -12t4.5 -27q-20 -107 -120.5 -226.5t-236.5 -197.5q-23 -13 -31 3t11 29q123 88 199.5 190.5t99.5 187.5h-255zM593 743q0 30 -13 41t-33 16q-21 6 -29 10t-8 12q0 17 29 17h82q36 0 36 -42v-225h129q33 0 33 -27 q0 -26 -33 -26h-129v-136q0 -92 -49 -92h-15v452zM655 182h-68v-225h68q32 0 32 -25q0 -26 -32 -26h-451q-30 0 -30 26q0 25 30 25h84v225h-84q-30 0 -30 25q0 26 30 26h451q32 0 32 -26q0 -25 -32 -25zM523 182h-172v-225h172v225z" />
<glyph unicode="&#xac1b;" horiz-adv-x="831" d="M97 689q-31 0 -31 26t29 26h304q19 0 27 -12t4 -27q-23 -108 -125 -223.5t-231 -179.5q-25 -11 -32.5 5t11.5 28q118 73 194 169.5t106 187.5h-256zM593 743q0 30 -13 41t-33 16q-21 6 -29 10t-8 12q0 17 29 17h82q36 0 36 -42v-191h129q33 0 33 -27t-33 -27h-129v-152 q0 -92 -49 -92h-15v435zM655 118h-87q44 -39 44 -94q0 -58 -45.5 -100t-116.5 -42q-72 0 -117.5 42t-45.5 100q0 55 44 94h-87q-32 0 -32 25t32 25h411q32 0 32 -25t-32 -25zM351 253l-27 23q-9 7 -10.5 15t4.5 17q6 6 14.5 5t16.5 -5q40 -19 89 -23.5t87 -4.5q30 0 30 -26 q0 -12 -7.5 -18.5t-20.5 -6.5l-92 1q-55 0 -84 23zM352 25q0 -38 29 -65t69 -27q39 0 68 27t29 65t-29 65t-68 27q-40 0 -69 -27t-29 -65z" />
<glyph unicode="&#xac1c;" horiz-adv-x="813" d="M97 633q-31 0 -31 27q0 25 29 25h254q20 0 28 -12.5t6 -26.5q-21 -132 -113.5 -266t-193.5 -208q-24 -17 -33.5 -2t8.5 31q102 92 168.5 205.5t87.5 226.5h-210zM736 797v-803q0 -92 -50 -92h-14v540h-123v-386q0 -92 -49 -92h-15v737q0 30 -11 40.5t-35 17.5 q-19 5 -26 10t-7 12q0 15 28 15h78q37 0 37 -43v-260h123v250q0 31 -12 42t-36 17q-20 4 -27.5 8t-7.5 12q0 17 31 17h78q38 0 38 -42z" />
<glyph unicode="&#xac1d;" horiz-adv-x="813" d="M97 669q-31 0 -31 27q0 25 29 25h258q19 0 26.5 -11.5t4.5 -27.5q-19 -110 -107 -220t-204 -183q-23 -13 -32 1.5t8 29.5q103 79 171.5 175.5t86.5 183.5h-210zM620 839h78q38 0 38 -42v-428q0 -92 -50 -92h-14v247h-133v-145q0 -92 -50 -92h-14v414q0 30 -11 40.5 t-35 17.5q-19 5 -26.5 10t-7.5 12q0 15 29 15h78q37 0 37 -43v-178h133v168q0 31 -12 42t-36 17q-20 4 -27.5 8t-7.5 12q0 17 31 17zM256 166q-28 0 -28 27q0 26 26 26h435q36 0 36 -42v-201q0 -92 -45 -92h-18v282h-406z" />
<glyph unicode="&#xac20;" horiz-adv-x="813" d="M97 662q-31 0 -31 27q0 25 29 25h258q19 0 26.5 -11.5t4.5 -27.5q-19 -121 -107 -248t-202 -204q-23 -15 -32.5 -1t6.5 29q107 92 175.5 207.5t82.5 203.5h-210zM424 796h78q37 0 37 -43v-209h133v199q0 31 -12 42t-36 17q-20 4 -27.5 8t-7.5 12q0 17 31 17h78 q38 0 38 -43v-577q0 -94 -50 -94h-14v368h-133v-254q0 -92 -50 -92h-14v554q0 30 -11 40.5t-35 17.5q-19 5 -26.5 10t-7.5 12q0 15 29 15zM726 -87h-355q-90 0 -90 87v106q0 29 -11 39.5t-34 17.5q-20 5 -24.5 9t-4.5 13q0 17 27 17h75q36 0 36 -47v-167q0 -21 19 -21h361 q33 0 33 -27t-32 -27z" />
<glyph unicode="&#xac24;" horiz-adv-x="813" d="M97 674q-31 0 -31 27q0 25 29 25h258q19 0 26.5 -11.5t4.5 -26.5q-23 -114 -108 -222.5t-203 -180.5q-23 -13 -32 2t8 29q111 83 175.5 179.5t82.5 178.5h-210zM424 796h78q37 0 37 -43v-153h133v143q0 31 -12 42t-36 17q-20 4 -27.5 8t-7.5 12q0 17 31 17h78 q38 0 38 -42v-375q0 -92 -50 -92h-14v219h-133v-116q0 -93 -50 -93h-14v361q0 30 -11 40.5t-35 17.5q-19 5 -26.5 10t-7.5 12q0 15 29 15zM725 -101h-357q-53 0 -53 65v70q0 22 -9.5 32t-23.5 17q-9 2 -13 6t-4 13q0 15 27 15h370v113h-344q-31 0 -31 26t29 26h376 q34 0 34 -41v-126q0 -49 -41 -49h-305v-84q0 -31 23 -31h321q32 0 32 -25q0 -27 -31 -27z" />
<glyph unicode="&#xac2c;" horiz-adv-x="813" d="M97 669q-31 0 -31 27q0 25 29 25h258q19 0 26.5 -11.5t4.5 -27.5q-19 -110 -107 -224t-204 -184q-23 -13 -32 2t8 29q101 76 170 173.5t88 190.5h-210zM475 701q0 30 -11 40.5t-35 17.5q-19 5 -26.5 10t-7.5 12q0 15 29 15h78q37 0 37 -43v-173h133v163q0 31 -12 42 t-36 17q-20 4 -27.5 8t-7.5 12q0 17 31 17h78q38 0 38 -42v-414q0 -92 -50 -92h-14v238h-133v-135q0 -93 -50 -93h-14v400zM368 -42h295v223h-294v-191q0 -17 -1 -32zM690 233q36 0 36 -43v-150q0 -60 -25 -82h8q30 0 30 -25q0 -27 -30 -27h-353q-11 -28 -35 -28h-16v247 q0 34 -4.5 48t-27.5 23q-11 3 -16 7.5t-5 12.5q0 17 26 17h412z" />
<glyph unicode="&#xac2d;" horiz-adv-x="813" d="M97 674q-31 0 -31 27q0 25 29 25h258q19 0 26.5 -11.5t4.5 -26.5q-19 -111 -108.5 -224t-202.5 -189q-23 -14 -32 1t8 30q95 76 168 177.5t90 190.5h-210zM475 701q0 30 -11 40.5t-35 17.5q-19 5 -26.5 10t-7.5 12q0 15 29 15h78q37 0 37 -43v-163h133v153q0 31 -12 42 t-36 17q-20 4 -27.5 8t-7.5 12q0 17 31 17h78q38 0 38 -42v-374q0 -92 -50 -92h-14v208h-133v-105q0 -93 -50 -93h-14v360zM374 147h289v61q0 25 -7 33.5t-20 13.5q-14 4 -20 8t-6 11q0 16 27 16h52q37 0 37 -41v-208q0 -62 -26 -83h9q30 0 30 -25q0 -27 -30 -27h-348 q-12 -27 -35 -27h-16v295q0 25 -5.5 35.5t-17.5 13.5q-12 4 -19.5 7.5t-7.5 11.5q0 16 27 16h53q34 0 34 -41v-70zM663 95h-289v-104q0 -17 -1 -33h290v137z" />
<glyph unicode="&#xac2f;" horiz-adv-x="813" d="M97 669q-31 0 -31 27q0 25 29 25h258q19 0 26.5 -11.5t4.5 -27.5q-19 -110 -107 -224t-204 -184q-23 -13 -32 2t8 29q101 76 170 173.5t88 190.5h-210zM475 701q0 30 -11 40.5t-35 17.5q-19 5 -26.5 10t-7.5 12q0 15 29 15h78q37 0 37 -43v-173h133v163q0 31 -12 42 t-36 17q-20 4 -27.5 8t-7.5 12q0 17 31 17h78q38 0 38 -42v-455q0 -92 -50 -92h-14v279h-133v-117q0 -92 -50 -92h-14v381zM531 212q-9 -38 -36 -81l253 -164q15 -11 17.5 -26.5t-4.5 -24.5q-9 -11 -22.5 -11.5t-31.5 13.5l-235 181q-20 -27 -47 -55q-89 -92 -187 -142 q-29 -14 -39.5 -2t13.5 28q85 56 152.5 133.5t95.5 140.5q10 21 -8.5 28t-36.5 11q-17 3 -16 18t23 15h61q35 0 45 -18.5t3 -43.5z" />
<glyph unicode="&#xac30;" horiz-adv-x="813" d="M97 669q-31 0 -31 27q0 25 29 25h258q19 0 26.5 -11.5t4.5 -27.5q-19 -110 -107 -224t-204 -184q-23 -13 -32 2t8 29q101 76 170 173.5t88 190.5h-210zM475 701q0 30 -11 40.5t-35 17.5q-19 5 -26.5 10t-7.5 12q0 15 29 15h78q37 0 37 -43v-173h133v163q0 31 -12 42 t-36 17q-20 4 -27.5 8t-7.5 12q0 17 31 17h78q38 0 38 -42v-414q0 -92 -50 -92h-14v238h-133v-135q0 -93 -50 -93h-14v400zM389 195q-6 -43 -28 -87l131 -114q16 22 31 46q50 80 65 153q2 11 -6 19.5t-28 14.5q-11 3 -15.5 6t-4.5 9q0 16 25 16h61q27 0 35 -13.5t4 -38.5 q-7 -52 -32 -104l147 -129q18 -16 21 -30t-7 -23q-8 -10 -22 -10t-30 17l-130 137q-12 -21 -26 -40q-69 -92 -136 -133q-23 -16 -33.5 -4t6.5 26q20 18 40 39l-115 121q-12 -19 -26 -38q-62 -81 -144 -130q-25 -15 -35.5 -3.5t7.5 26.5q68 51 115 122.5t58 128.5q2 11 -5 20 t-27 15q-15 5 -18.5 7.5t-3.5 9.5q0 15 27 15h61q27 0 34 -14.5t4 -36.5z" />
<glyph unicode="&#xac31;" horiz-adv-x="813" d="M97 669q-31 0 -31 27q0 25 29 25h258q19 0 26.5 -11.5t4.5 -27.5q-19 -110 -107 -224t-204 -184q-23 -13 -32 2t8 29q101 76 170 173.5t88 190.5h-210zM475 701q0 30 -11 40.5t-35 17.5q-19 5 -26.5 10t-7.5 12q0 15 29 15h78q37 0 37 -43v-173h133v163q0 31 -12 42 t-36 17q-20 4 -27.5 8t-7.5 12q0 17 31 17h78q38 0 38 -42v-430q0 -92 -50 -92h-14v254h-133v-123q0 -92 -50 -92h-14v387zM317 71q0 80 57 134t139 54t139 -54t57 -134t-57 -134t-139 -54t-139 54t-57 134zM383 71q0 -60 38.5 -97t91.5 -37t91.5 37t38.5 97t-38.5 97 t-91.5 37t-91.5 -37t-38.5 -97z" />
<glyph unicode="&#xac38;" horiz-adv-x="831" d="M97 633q-31 0 -31 27q0 25 29 25h307q20 0 28.5 -12.5t5.5 -26.5q-21 -127 -125.5 -260.5t-234.5 -214.5q-26 -15 -35 0.5t10 30.5q114 88 197 204t107 227h-258zM657 -6q0 -91 -49 -91h-15v840q0 30 -13 41t-33 16q-21 6 -29 10t-8 12q0 17 29 17h82q36 0 36 -42v-189 h130q32 0 32 -26q0 -27 -32 -27h-130v-203h130q32 0 32 -26q0 -27 -32 -27h-130v-305z" />
<glyph unicode="&#xac39;" horiz-adv-x="831" d="M97 680q-31 0 -31 27q0 26 29 26h304q19 0 26.5 -12t4.5 -27q-20 -107 -124.5 -224.5t-231.5 -184.5q-25 -11 -32.5 5t11.5 28q119 76 197.5 178t102.5 184h-256zM657 367q0 -90 -49 -90h-15v466q0 30 -13 41t-33 16q-21 6 -29 10t-8 12q0 17 29 17h82q36 0 36 -41v-120 h130q32 0 32 -25q0 -27 -32 -27h-130v-162h130q32 0 32 -25q0 -27 -32 -27h-130v-45zM211 166q-28 0 -28 27q0 26 26 26h404q36 0 36 -42v-201q0 -92 -45 -92h-18v282h-375z" />
<glyph unicode="&#xac3c;" horiz-adv-x="831" d="M97 678q-31 0 -31 27q0 26 29 26h304q19 0 26.5 -12t4.5 -27q-23 -120 -127 -247.5t-230 -197.5q-23 -12 -31 4t11 29q117 81 198 195t101 203h-255zM657 219q0 -92 -49 -92h-15v616q0 30 -13 41t-33 16q-21 6 -29 10t-8 12q0 17 29 17h82q36 0 36 -42v-144h130 q32 0 32 -26q0 -27 -32 -27h-130v-161h130q32 0 32 -26q0 -27 -32 -27h-130v-167zM667 -87h-325q-90 0 -90 87v106q0 29 -11 39.5t-34 17.5q-20 5 -24.5 9t-4.5 13q0 17 28 17h75q35 0 35 -47v-167q0 -21 19 -21h331q32 0 32 -27t-31 -27z" />
<glyph unicode="&#xac40;" horiz-adv-x="831" d="M97 689q-31 0 -31 26t29 26h304q19 0 27 -12t4 -27q-23 -108 -125 -218.5t-231 -173.5q-25 -12 -32.5 4t11.5 28q118 73 194 164.5t106 182.5h-256zM657 437q0 -90 -49 -90h-15v396q0 30 -13 41t-33 16q-21 6 -29 10t-8 12q0 17 29 17h82q36 0 36 -41v-104h130 q32 0 32 -26q0 -27 -32 -27h-130v-131h130q32 0 32 -25q0 -27 -32 -27h-130v-21zM649 -101h-337q-52 0 -52 65v73q0 22 -9.5 32t-24.5 17q-8 2 -12 6t-4 13q0 15 27 15h349v116h-323q-32 0 -32 27q0 25 30 25h355q34 0 34 -41v-129q0 -49 -41 -49h-284v-88q0 -30 23 -30h300 q32 0 32 -25q0 -27 -31 -27z" />
<glyph unicode="&#xac4b;" horiz-adv-x="831" d="M97 680q-31 0 -31 27q0 26 29 26h304q19 0 26.5 -12t4.5 -27q-20 -107 -120.5 -226.5t-236.5 -197.5q-23 -13 -31 3t11 29q123 88 199.5 190.5t99.5 187.5h-255zM657 331q0 -90 -49 -90h-15v502q0 30 -13 41t-33 16q-21 6 -29 10t-8 12q0 17 29 17h82q36 0 36 -41v-125 h130q32 0 32 -25q0 -27 -32 -27h-130v-162h130q32 0 32 -25q0 -27 -32 -27h-130v-76zM492 212q-10 -40 -35 -82l235 -163q15 -10 18 -26t-4 -25q-10 -11 -23.5 -11t-31.5 13l-217 179q-20 -28 -46 -56q-85 -91 -175 -139q-28 -15 -38 -2.5t12 28.5q85 58 147 135.5t87 138.5 q7 21 -10.5 28t-35.5 11q-17 3 -16 18t23 15h61q35 0 45 -18.5t4 -43.5z" />
<glyph unicode="&#xac4d;" horiz-adv-x="831" d="M97 680q-31 0 -31 27q0 26 29 26h304q19 0 26.5 -12t4.5 -27q-20 -107 -120.5 -226.5t-236.5 -197.5q-23 -13 -31 3t11 29q123 88 199.5 190.5t99.5 187.5h-255zM657 366q0 -90 -49 -90h-15v467q0 30 -13 41t-33 16q-21 6 -29 10t-8 12q0 17 29 17h82q36 0 36 -41v-125 h130q32 0 32 -25q0 -27 -32 -27h-130v-162h130q32 0 32 -25q0 -27 -32 -27h-130v-41zM262 71q0 80 57 134t139 54t138.5 -54t56.5 -134t-56.5 -134t-138.5 -54t-139 54t-57 134zM328 71q0 -60 38 -97t92 -37q53 0 91.5 37t38.5 97t-38.5 97t-91.5 37q-54 0 -92 -37t-38 -97z " />
<glyph unicode="&#xac54;" horiz-adv-x="813" d="M97 633q-31 0 -31 27q0 25 29 25h254q20 0 28 -12.5t6 -26.5q-21 -132 -113.5 -266t-193.5 -208q-24 -17 -33.5 -2t8.5 31q102 92 168.5 205.5t87.5 226.5h-210zM673 -98v412h-125v-259q0 -91 -49 -91h-14v737q0 30 -11 40.5t-35 17.5q-19 5 -26 10t-7 12q0 15 28 15h77 q37 0 37 -43v-141h125v132q0 30 -12 41t-36 17q-20 4 -27.5 8t-7.5 12q0 17 31 17h77q38 0 38 -42v-803q0 -92 -50 -92h-13zM673 365v196h-125v-196h125z" />
<glyph unicode="&#xac58;" horiz-adv-x="813" d="M97 662q-31 0 -31 27q0 25 29 25h258q19 0 26.5 -11.5t4.5 -27.5q-19 -121 -107 -248t-202 -204q-23 -15 -32.5 -1t6.5 29q107 92 175.5 207.5t82.5 203.5h-210zM538 237q0 -90 -50 -90h-13v554q0 30 -11 40.5t-35 17.5q-19 5 -26.5 10t-7.5 12q0 15 29 15h77 q37 0 37 -42v-120h135v110q0 30 -12 41t-36 17q-20 4 -27.5 8t-7.5 12q0 17 31 17h77q38 0 38 -43v-577q0 -94 -50 -94h-13v241h-135v-129zM538 583v-166h135v166h-135zM726 -87h-355q-90 0 -90 87v106q0 29 -11 39.5t-34 17.5q-20 5 -24.5 9t-4.5 13q0 17 27 17h75 q36 0 36 -47v-167q0 -21 19 -21h361q33 0 33 -27t-32 -27z" />
<glyph unicode="&#xac5c;" horiz-adv-x="813" d="M97 674q-31 0 -31 27q0 25 29 25h258q19 0 26.5 -11.5t4.5 -26.5q-23 -114 -108 -222.5t-203 -180.5q-23 -13 -32 2t8 29q111 83 175.5 179.5t82.5 178.5h-210zM538 430q0 -90 -50 -90h-13v361q0 30 -11 40.5t-35 17.5q-19 5 -26.5 10t-7.5 12q0 15 29 15h77q37 0 37 -42 v-60h135v50q0 30 -12 41t-36 17q-20 4 -27.5 8t-7.5 12q0 17 31 17h77q38 0 38 -42v-375q0 -92 -50 -92h-13v142h-135v-42zM538 642v-118h135v118h-135zM725 -101h-357q-53 0 -53 65v70q0 22 -9.5 32t-23.5 17q-9 2 -13 6t-4 13q0 15 27 15h370v113h-344q-31 0 -31 26t29 26 h376q34 0 34 -41v-126q0 -49 -41 -49h-305v-84q0 -31 23 -31h321q32 0 32 -25q0 -27 -31 -27z" />
<glyph unicode="&#xac70;" horiz-adv-x="776" d="M97 633q-31 0 -31 27q0 25 29 25h312q19 0 27.5 -12.5t5.5 -26.5q-22 -125 -127.5 -259t-236.5 -216q-26 -15 -35 0.5t10 30.5q119 90 203 208.5t105 222.5h-262zM611 742q0 31 -12.5 42t-33.5 16q-20 6 -28.5 10t-8.5 12q0 17 29 17h81q38 0 38 -42v-803q0 -92 -49 -92 h-16v507h-182q-32 0 -32 27q0 25 32 25h182v281z" />
<glyph unicode="&#xac71;" horiz-adv-x="776" d="M97 680q-31 0 -31 27q0 26 29 26h308q19 0 26.5 -12t4.5 -27q-21 -110 -126.5 -226t-233.5 -183q-25 -11 -32.5 5t11.5 28q123 79 201.5 179.5t102.5 182.5h-260zM611 742q0 31 -12.5 42t-33.5 16q-20 6 -28.5 10t-8.5 12q0 17 29 17h81q38 0 38 -41v-430q0 -91 -49 -91 h-16v225h-176q-33 0 -33 27q0 25 33 25h176v188zM229 166q-27 0 -27 27q0 26 25 26h405q36 0 36 -42v-201q0 -92 -45 -92h-19v282h-375z" />
<glyph unicode="&#xac74;" horiz-adv-x="776" d="M97 678q-31 0 -31 27q0 26 29 26h308q19 0 26.5 -12t4.5 -27q-22 -123 -126 -247t-235 -198q-23 -12 -31 4t11 29q117 79 200.5 193.5t102.5 204.5h-259zM611 742q0 31 -12.5 42t-33.5 16q-20 6 -28.5 10t-8.5 12q0 17 29 17h81q38 0 38 -42v-577q0 -93 -49 -93h-16v324 h-178q-33 0 -33 26t33 26h178v239zM685 -87h-325q-90 0 -90 87v106q0 29 -10.5 39.5t-34.5 17.5q-19 5 -23.5 9t-4.5 13q0 17 27 17h75q36 0 36 -47v-167q0 -21 18 -21h331q33 0 33 -27t-32 -27z" />
<glyph unicode="&#xac77;" horiz-adv-x="776" d="M97 680q-31 0 -31 27q0 26 29 26h308q19 0 26.5 -12t4.5 -27q-19 -107 -128 -230t-233 -194q-23 -14 -31 2.5t11 29.5q123 88 201.5 190.5t101.5 187.5h-259zM611 742q0 31 -12.5 42t-33.5 16q-20 6 -28.5 10t-8.5 12q0 17 29 17h81q38 0 38 -41v-416q0 -91 -49 -91h-16 v201h-178q-32 0 -32 26t32 26h178v198zM650 -94h-311q-56 0 -56 66v153q0 34 -4.5 48t-27.5 23q-10 3 -16 7.5t-6 12.5q0 17 25 17h386q31 0 31 -27q0 -25 -32 -25h-292v-194q0 -29 25 -29h277q32 0 32 -25q0 -27 -31 -27z" />
<glyph unicode="&#xac78;" horiz-adv-x="776" d="M97 689q-31 0 -31 26t29 26h308q19 0 27 -12t4 -27q-23 -108 -125 -216.5t-235 -175.5q-25 -12 -33 4t11 28q119 71 197 163.5t108 183.5h-260zM611 742q0 31 -12.5 42t-33.5 16q-20 6 -28.5 10t-8.5 12q0 17 29 17h81q38 0 38 -41v-360q0 -91 -49 -91h-16v160h-184 q-32 0 -32 26q0 27 32 27h184v182zM667 -101h-337q-52 0 -52 65v73q0 22 -10 32t-24 17q-8 2 -12.5 6t-4.5 13q0 15 27 15h349v116h-322q-32 0 -32 27q0 25 30 25h355q34 0 34 -41v-129q0 -49 -41 -49h-285v-88q0 -30 24 -30h300q31 0 31 -25q0 -27 -30 -27z" />
<glyph unicode="&#xac7a;" horiz-adv-x="776" d="M97 689q-31 0 -31 26t29 26h308q19 0 27 -12t4 -27q-23 -108 -125 -216.5t-235 -175.5q-25 -12 -33 4t11 28q119 71 197 163.5t108 183.5h-260zM611 742q0 31 -12.5 42t-33.5 16q-20 6 -28.5 10t-8.5 12q0 17 29 17h81q38 0 38 -41v-360q0 -91 -49 -91h-16v160h-184 q-32 0 -32 26q0 27 32 27h184v182zM514 -32h100v269h-99v-237q0 -17 -1 -32zM175 236q-32 0 -32 27q0 25 30 25h176q34 0 34 -40v-133q0 -46 -34 -46h-118v-93q0 -25 18 -25h130q32 0 32 -25q0 -27 -31 -27h-154q-58 0 -58 70v68q0 22 -4 32.5t-22 17.5q-7 5 -10 7.5 t-3 10.5q0 14 21 14h169v117h-144zM640 288q36 0 36 -45v-191q0 -64 -27 -84h9q31 0 31 -25q0 -27 -31 -27h-155q-11 -28 -36 -28h-13v301q0 36 -3.5 44t-18.5 17q-9 6 -12.5 10t-3.5 12q0 16 20 16h204z" />
<glyph unicode="&#xac80;" horiz-adv-x="776" d="M97 680q-31 0 -31 27q0 26 29 26h308q19 0 26.5 -12t4.5 -27q-19 -107 -128 -230t-233 -194q-23 -14 -31 2.5t11 29.5q123 88 201.5 190.5t101.5 187.5h-259zM611 742q0 31 -12.5 42t-33.5 16q-20 6 -28.5 10t-8.5 12q0 17 29 17h81q38 0 38 -41v-416q0 -91 -49 -91h-16 v201h-178q-32 0 -32 26t32 26h178v198zM340 -42h264v223h-263v-191q0 -17 -1 -32zM632 233q36 0 36 -43v-150q0 -60 -25 -82h7q31 0 31 -25q0 -27 -31 -27h-321q-12 -28 -36 -28h-15v247q0 34 -5 48t-27 23q-12 3 -17 7.5t-5 12.5q0 17 26 17h382z" />
<glyph unicode="&#xac81;" horiz-adv-x="776" d="M97 689q-31 0 -31 26t29 26h308q19 0 27 -12t4 -27q-23 -108 -125 -217.5t-236 -185.5q-24 -13 -31 3.5t11 29.5q118 81 195 170.5t109 186.5h-260zM611 742q0 31 -12.5 42t-33.5 16q-20 6 -28.5 10t-8.5 12q0 17 29 17h81q38 0 38 -41v-372q0 -91 -49 -91h-16v183h-182 q-33 0 -33 25q0 27 33 27h182v172zM341 149h263v63q0 25 -6.5 33.5t-19.5 13.5q-15 5 -20.5 8.5t-5.5 10.5q0 16 27 16h52q37 0 37 -41v-212q0 -62 -26 -83h8q31 0 31 -25q0 -27 -31 -27h-321q-13 -27 -36 -27h-15v300q0 24 -6 34.5t-18 13.5q-11 4 -19 7.5t-8 11.5 q0 17 27 17h53q34 0 34 -41v-73zM604 97h-263v-106q0 -17 -1 -33h264v139z" />
<glyph unicode="&#xac83;" horiz-adv-x="776" d="M97 680q-31 0 -31 27q0 26 29 26h308q19 0 26.5 -12t4.5 -27q-19 -107 -128 -230t-233 -194q-23 -14 -31 2.5t11 29.5q123 88 201.5 190.5t101.5 187.5h-259zM611 742q0 31 -12.5 42t-33.5 16q-20 6 -28.5 10t-8.5 12q0 17 29 17h81q38 0 38 -41v-466q0 -91 -49 -91h-16 v251h-178q-32 0 -32 26t32 26h178v198zM509 212q-9 -40 -35 -82l236 -163q14 -10 17 -26t-4 -25q-9 -11 -23 -11t-31 13l-217 179q-21 -28 -46 -56q-85 -91 -176 -139q-27 -15 -37.5 -2.5t12.5 28.5q85 58 147 135.5t86 138.5q7 21 -10 28t-36 11q-16 3 -15 18t22 15h62 q35 0 44.5 -18.5t3.5 -43.5z" />
<glyph unicode="&#xac84;" horiz-adv-x="776" d="M97 680q-31 0 -31 27q0 26 29 26h308q19 0 26.5 -12t4.5 -27q-19 -107 -128 -230t-233 -194q-23 -14 -31 2.5t11 29.5q123 88 201.5 190.5t101.5 187.5h-259zM611 742q0 31 -12.5 42t-33.5 16q-20 6 -28.5 10t-8.5 12q0 17 29 17h81q38 0 38 -41v-416q0 -91 -49 -91h-16 v201h-178q-32 0 -32 26t32 26h178v198zM382 195q-7 -47 -32 -96l119 -105q16 22 32 46q50 80 64 153q2 11 -5.5 19.5t-28.5 14.5q-11 3 -15.5 6t-4.5 9q0 16 26 16h60q28 0 35.5 -13.5t4.5 -38.5q-7 -53 -34 -107l143 -126q18 -16 21 -30t-6 -23q-8 -10 -22.5 -10t-29.5 17 l-127 134q-12 -19 -25 -37q-69 -92 -135 -133q-24 -16 -34 -4t6 26q21 18 40 39l-105 111q-10 -13 -20 -28q-62 -81 -144 -130q-25 -15 -35.5 -3.5t7.5 26.5q68 51 115 122.5t58 128.5q2 11 -5 20t-27 15q-15 5 -18.5 7.5t-3.5 9.5q0 15 27 15h61q27 0 34 -14.5t4 -36.5z " />
<glyph unicode="&#xac85;" horiz-adv-x="776" d="M97 680q-31 0 -31 27q0 26 29 26h308q19 0 26.5 -12t4.5 -27q-19 -107 -128 -230t-233 -194q-23 -14 -31 2.5t11 29.5q123 88 201.5 190.5t101.5 187.5h-259zM611 742q0 31 -12.5 42t-33.5 16q-20 6 -28.5 10t-8.5 12q0 17 29 17h81q38 0 38 -41v-431q0 -91 -49 -91h-16 v216h-178q-32 0 -32 26t32 26h178v198zM280 71q0 80 56.5 134t138.5 54t139 -54t57 -134t-57 -134t-139 -54t-138.5 54t-56.5 134zM345 71q0 -60 38.5 -97t91.5 -37t91.5 37t38.5 97t-38.5 97t-91.5 37t-91.5 -37t-38.5 -97z" />
<glyph unicode="&#xac86;" horiz-adv-x="776" d="M97 680q-31 0 -31 27q0 26 29 26h308q19 0 26.5 -12t4.5 -27q-19 -107 -128 -230t-233 -194q-23 -14 -31 2.5t11 29.5q123 88 201.5 190.5t101.5 187.5h-259zM611 742q0 31 -12.5 42t-33.5 16q-20 6 -28.5 10t-8.5 12q0 17 29 17h81q38 0 38 -41v-416q0 -91 -49 -91h-16 v201h-178q-32 0 -32 26t32 26h178v198zM269 181q-31 0 -31 26t29 26h320q28 0 37 -15.5t-1 -38.5q-27 -61 -103 -122l189 -98q17 -9 21 -22.5t-3 -27.5q-7 -11 -22 -13t-28 8l-191 127l-14 -10q-116 -81 -246 -124q-21 -8 -28.5 7.5t12.5 23.5q87 37 181 103t158 150h-280z " />
<glyph unicode="&#xac89;" horiz-adv-x="776" d="M97 689q-31 0 -31 26t29 26h308q19 0 27 -12t4 -27q-23 -108 -125 -216.5t-235 -175.5q-25 -12 -33 4t11 28q119 71 197 163.5t108 183.5h-260zM611 742q0 31 -12.5 42t-33.5 16q-20 6 -28.5 10t-8.5 12q0 17 29 17h81q38 0 38 -41v-360q0 -91 -49 -91h-16v160h-184 q-32 0 -32 26q0 27 32 27h184v182zM637 120q31 0 31 -25q0 -26 -31 -26h-295v-89q0 -29 25 -29h286q32 0 32 -25q0 -27 -31 -27h-319q-57 0 -57 66v216q0 33 -4.5 47t-27.5 23q-10 3 -16 8t-6 13q0 16 25 16h397q31 0 31 -26t-32 -26h-303v-116h295z" />
<glyph unicode="&#xac8a;" horiz-adv-x="776" d="M97 680q-31 0 -31 27q0 26 29 26h308q19 0 26.5 -12t4.5 -27q-19 -107 -128 -230t-233 -194q-23 -14 -31 2.5t11 29.5q123 88 201.5 190.5t101.5 187.5h-259zM611 742q0 31 -12.5 42t-33.5 16q-20 6 -28.5 10t-8.5 12q0 17 29 17h81q38 0 38 -41v-416q0 -91 -49 -91h-16 v201h-178q-32 0 -32 26t32 26h178v198zM673 182h-69v-225h69q32 0 32 -25q0 -26 -32 -26h-452q-30 0 -30 26q0 25 30 25h84v225h-84q-30 0 -30 25q0 26 30 26h452q32 0 32 -26q0 -25 -32 -25zM541 182h-172v-225h172v225z" />
<glyph unicode="&#xac8b;" horiz-adv-x="776" d="M97 689q-31 0 -31 26t29 26h308q19 0 27 -12t4 -27q-23 -108 -127 -223.5t-233 -179.5q-25 -11 -32.5 5t11.5 28q118 73 196 169.5t108 187.5h-260zM611 742q0 31 -12.5 42t-33.5 16q-20 6 -28.5 10t-8.5 12q0 17 29 17h81q38 0 38 -41v-399q0 -91 -49 -91h-16v201h-180 q-32 0 -32 26q0 27 32 27h180v180zM673 118h-87q44 -39 44 -94q0 -58 -45.5 -100t-117.5 -42t-117.5 42t-45.5 100q0 55 44 94h-87q-32 0 -32 25t32 25h412q32 0 32 -25t-32 -25zM369 253l-28 23q-8 7 -9.5 15t4.5 17q5 6 13.5 5t17.5 -5q40 -19 89 -23.5t87 -4.5 q29 0 29 -26q0 -12 -7.5 -18.5t-19.5 -6.5l-92 1q-56 0 -84 23zM370 25q0 -38 28.5 -65t68.5 -27t68.5 27t28.5 65t-28.5 65t-68.5 27t-68.5 -27t-28.5 -65z" />
<glyph unicode="&#xac8c;" horiz-adv-x="813" d="M97 633q-31 0 -31 27q0 25 29 25h254q20 0 28 -12.5t6 -26.5q-13 -86 -58 -175q8 7 23 7h145v222q0 31 -11.5 41.5t-35.5 17.5q-19 5 -26 10t-7 12q0 15 28 15h78q37 0 37 -44v-696q0 -92 -49 -92h-14v461h-145q-33 0 -33 26v3q-19 -37 -45 -74q-93 -134 -194 -208 q-24 -17 -33.5 -2t8.5 31q102 92 168.5 205.5t87.5 226.5h-210zM620 839h77q39 0 39 -42v-803q0 -92 -50 -92h-14v842q0 30 -12 41t-36 17q-20 4 -27.5 8t-7.5 12q0 17 31 17z" />
<glyph unicode="&#xac90;" horiz-adv-x="813" d="M97 662q-31 0 -31 27q0 25 29 25h258q19 0 26.5 -11.5t4.5 -27.5q-19 -121 -107 -248t-202 -204q-23 -15 -32.5 -1t6.5 29q107 92 175.5 207.5t82.5 203.5h-210zM620 839h77q39 0 39 -42v-580q0 -92 -50 -92h-14v619q0 30 -12 41t-36 17q-20 4 -27.5 8t-7.5 12 q0 17 31 17zM441 796h78q37 0 37 -43v-515q0 -91 -49 -91h-14v310h-129q-33 0 -33 26t33 26h129v191q0 31 -11.5 41.5t-35.5 17.5q-19 5 -26 10t-7 12q0 15 28 15zM726 -87h-355q-90 0 -90 87v106q0 29 -11 39.5t-34 17.5q-20 5 -24.5 9t-4.5 13q0 17 27 17h75q36 0 36 -47 v-167q0 -21 19 -21h361q33 0 33 -27t-32 -27z" />
<glyph unicode="&#xac94;" horiz-adv-x="813" d="M97 674q-31 0 -31 27q0 25 29 25h258q19 0 26.5 -11.5t4.5 -26.5q-23 -114 -108 -222.5t-203 -180.5q-23 -13 -32 2t8 29q111 83 175.5 179.5t82.5 178.5h-210zM672 744q0 30 -12 41t-36 17q-20 4 -27.5 8t-7.5 12q0 17 31 17h77q39 0 39 -41v-377q0 -91 -50 -91h-14v414 zM493 700q0 31 -11.5 41.5t-35.5 17.5q-19 5 -26 10t-7 12q0 15 28 15h78q37 0 37 -43v-321q0 -92 -49 -92h-14v149h-136q-31 0 -31 25q0 27 31 27h136v159zM725 -101h-357q-53 0 -53 65v70q0 22 -9.5 32t-23.5 17q-9 2 -13 6t-4 13q0 15 27 15h370v113h-344q-31 0 -31 26 t29 26h376q34 0 34 -41v-126q0 -49 -41 -49h-305v-84q0 -31 23 -31h321q32 0 32 -25q0 -27 -31 -27z" />
<glyph unicode="&#xac9c;" horiz-adv-x="813" d="M97 669q-31 0 -31 27q0 25 29 25h258q19 0 26.5 -11.5t4.5 -27.5q-19 -110 -107 -224t-204 -184q-23 -13 -32 2t8 29q101 76 170 173.5t88 190.5h-210zM620 839h77q39 0 39 -41v-416q0 -91 -50 -91h-14v453q0 30 -12 41t-36 17q-20 4 -27.5 8t-7.5 12q0 17 31 17z M493 700q0 31 -11.5 41.5t-35.5 17.5q-19 5 -26 10t-7 12q0 15 28 15h78q37 0 37 -43v-360q0 -92 -49 -92h-14v181h-136q-31 0 -31 25q0 27 31 27h136v166zM368 -42h295v223h-294v-191q0 -17 -1 -32zM690 233q36 0 36 -43v-150q0 -60 -25 -82h8q30 0 30 -25q0 -27 -30 -27 h-353q-11 -28 -35 -28h-16v247q0 34 -4.5 48t-27.5 23q-11 3 -16 7.5t-5 12.5q0 17 26 17h412z" />
<glyph unicode="&#xac9d;" horiz-adv-x="813" d="M97 674q-31 0 -31 27q0 25 29 25h258q19 0 26.5 -11.5t4.5 -26.5q-19 -111 -108.5 -224t-202.5 -189q-23 -14 -32 1t8 30q95 76 168 177.5t90 190.5h-210zM672 744q0 30 -12 41t-36 17q-20 4 -27.5 8t-7.5 12q0 17 31 17h77q39 0 39 -41v-376q0 -91 -50 -91h-14v413z M493 700q0 31 -11.5 41.5t-35.5 17.5q-19 5 -26 10t-7 12q0 15 28 15h78q37 0 37 -43v-320q0 -92 -49 -92h-14v146h-136q-31 0 -31 25q0 27 31 27h136v161zM374 147h289v61q0 25 -7 33.5t-20 13.5q-14 4 -20 8t-6 11q0 16 27 16h52q37 0 37 -41v-208q0 -62 -26 -83h9 q30 0 30 -25q0 -27 -30 -27h-348q-12 -27 -35 -27h-16v295q0 25 -5.5 35.5t-17.5 13.5q-12 4 -19.5 7.5t-7.5 11.5q0 16 27 16h53q34 0 34 -41v-70zM663 95h-289v-104q0 -17 -1 -33h290v137z" />
<glyph unicode="&#xac9f;" horiz-adv-x="813" d="M97 669q-31 0 -31 27q0 25 29 25h258q19 0 26.5 -11.5t4.5 -27.5q-19 -110 -107 -224t-204 -184q-23 -13 -32 2t8 29q101 76 170 173.5t88 190.5h-210zM620 839h77q39 0 39 -41v-457q0 -91 -50 -91h-14v494q0 30 -12 41t-36 17q-20 4 -27.5 8t-7.5 12q0 17 31 17z M441 796h78q37 0 37 -43v-342q0 -91 -49 -91h-14v160h-132q-32 0 -32 25q0 27 32 27h132v168q0 31 -11.5 41.5t-35.5 17.5q-19 5 -26 10t-7 12q0 15 28 15zM531 212q-9 -38 -36 -81l253 -164q15 -11 17.5 -26.5t-4.5 -24.5q-9 -11 -22.5 -11.5t-31.5 13.5l-235 181 q-20 -27 -47 -55q-89 -92 -187 -142q-29 -14 -39.5 -2t13.5 28q85 56 152.5 133.5t95.5 140.5q10 21 -8.5 28t-36.5 11q-17 3 -16 18t23 15h61q35 0 45 -18.5t3 -43.5z" />
<glyph unicode="&#xaca0;" horiz-adv-x="813" d="M97 669q-31 0 -31 27q0 25 29 25h258q19 0 26.5 -11.5t4.5 -27.5q-19 -110 -107 -224t-204 -184q-23 -13 -32 2t8 29q101 76 170 173.5t88 190.5h-210zM620 839h77q39 0 39 -41v-416q0 -91 -50 -91h-14v453q0 30 -12 41t-36 17q-20 4 -27.5 8t-7.5 12q0 17 31 17z M493 700q0 31 -11.5 41.5t-35.5 17.5q-19 5 -26 10t-7 12q0 15 28 15h78q37 0 37 -43v-360q0 -92 -49 -92h-14v181h-136q-31 0 -31 25q0 27 31 27h136v166zM389 195q-6 -43 -28 -87l131 -114q16 22 31 46q50 80 65 153q2 11 -6 19.5t-28 14.5q-11 3 -15.5 6t-4.5 9 q0 16 25 16h61q27 0 35 -13.5t4 -38.5q-7 -52 -32 -104l147 -129q18 -16 21 -30t-7 -23q-8 -10 -22 -10t-30 17l-130 137q-12 -21 -26 -40q-69 -92 -136 -133q-23 -16 -33.5 -4t6.5 26q20 18 40 39l-115 121q-12 -19 -26 -38q-62 -81 -144 -130q-25 -15 -35.5 -3.5t7.5 26.5 q68 51 115 122.5t58 128.5q2 11 -5 20t-27 15q-15 5 -18.5 7.5t-3.5 9.5q0 15 27 15h61q27 0 34 -14.5t4 -36.5z" />
<glyph unicode="&#xaca1;" horiz-adv-x="813" d="M97 669q-31 0 -31 27q0 25 29 25h258q19 0 26.5 -11.5t4.5 -27.5q-19 -110 -107 -224t-204 -184q-23 -13 -32 2t8 29q101 76 170 173.5t88 190.5h-210zM620 839h77q39 0 39 -41v-432q0 -91 -50 -91h-14v469q0 30 -12 41t-36 17q-20 4 -27.5 8t-7.5 12q0 17 31 17z M493 700q0 31 -11.5 41.5t-35.5 17.5q-19 5 -26 10t-7 12q0 15 28 15h78q37 0 37 -43v-348q0 -91 -49 -91h-14v168h-136q-31 0 -31 25q0 27 31 27h136v166zM317 71q0 80 57 134t139 54t139 -54t57 -134t-57 -134t-139 -54t-139 54t-57 134zM383 71q0 -60 38.5 -97t91.5 -37 t91.5 37t38.5 97t-38.5 97t-91.5 37t-91.5 -37t-38.5 -97z" />
<glyph unicode="&#xaca8;" horiz-adv-x="776" d="M97 633q-31 0 -31 27q0 25 29 25h312q19 0 27.5 -12.5t5.5 -26.5q-4 -24 -11 -48h182v145q0 30 -12.5 41t-33.5 16q-20 6 -28.5 10t-8.5 12q0 17 29 17h81q38 0 38 -42v-803q0 -92 -49 -92h-16v414h-207q-29 0 -29 26q0 25 29 25h207v180h-200q-34 -79 -99 -160 q-105 -134 -236 -216q-26 -15 -35 0.5t10 30.5q119 90 203 208.5t105 222.5h-262z" />
<glyph unicode="&#xaca9;" horiz-adv-x="776" d="M97 680q-31 0 -31 27q0 26 29 26h308q19 0 26.5 -12t4.5 -27q-5 -29 -16 -58h193v107q0 30 -12.5 41t-33.5 16q-20 6 -28.5 10t-8.5 12q0 17 29 17h81q38 0 38 -41v-430q0 -91 -49 -91h-16v118h-198q-30 0 -30 26q0 25 30 25h198v139h-198q-11 0 -18 3q-33 -59 -88 -120 q-105 -116 -233 -183q-25 -11 -32.5 5t11.5 28q123 79 201.5 179.5t102.5 182.5h-260zM229 166q-27 0 -27 27q0 26 25 26h405q36 0 36 -42v-201q0 -92 -45 -92h-19v282h-375z" />
<glyph unicode="&#xacaa;" horiz-adv-x="776" d="M97 680q-31 0 -31 27q0 26 29 26h308q19 0 26.5 -12t4.5 -27q-5 -29 -16 -58h193v107q0 30 -12.5 41t-33.5 16q-20 6 -28.5 10t-8.5 12q0 17 29 17h81q38 0 38 -41v-430q0 -91 -49 -91h-16v118h-198q-30 0 -30 26q0 25 30 25h198v139h-198q-11 0 -18 3q-33 -59 -88 -120 q-105 -116 -233 -183q-25 -11 -32.5 5t11.5 28q123 79 201.5 179.5t102.5 182.5h-260zM471 166q-28 0 -28 27q0 26 26 26h169q36 0 36 -42v-201q0 -92 -45 -92h-18v282h-140zM163 166q-28 0 -28 27q0 26 26 26h210q36 0 36 -42v-201q0 -92 -46 -92h-17v282h-181z" />
<glyph unicode="&#xacac;" horiz-adv-x="776" d="M97 678q-31 0 -31 27q0 26 29 26h308q19 0 26.5 -12t4.5 -27q-6 -34 -18 -69h195v120q0 30 -12.5 41t-33.5 16q-20 6 -28.5 10t-8.5 12q0 17 29 17h81q38 0 38 -42v-577q0 -93 -49 -93h-16v231h-198q-30 0 -30 26q0 25 30 25h198v163h-198q-12 0 -18 4q-33 -66 -87 -131 q-104 -124 -235 -198q-23 -12 -31 4t11 29q117 79 200.5 193.5t102.5 204.5h-259zM685 -87h-325q-90 0 -90 87v106q0 29 -10.5 39.5t-34.5 17.5q-19 5 -23.5 9t-4.5 13q0 17 27 17h75q36 0 36 -47v-167q0 -21 18 -21h331q33 0 33 -27t-32 -27z" />
<glyph unicode="&#xacaf;" horiz-adv-x="776" d="M97 680q-31 0 -31 27q0 26 29 26h308q19 0 26.5 -12t4.5 -27q-5 -26 -14 -53h191v102q0 30 -12.5 41t-33.5 16q-20 6 -28.5 10t-8.5 12q0 17 29 17h81q38 0 38 -41v-416q0 -91 -49 -91h-16v111h-198q-30 0 -30 26q0 25 30 25h198v137h-198q-10 0 -16 2q-32 -61 -91 -128 q-109 -123 -233 -194q-23 -14 -31 2.5t11 29.5q123 88 201.5 190.5t101.5 187.5h-259zM650 -94h-311q-56 0 -56 66v153q0 34 -4.5 48t-27.5 23q-10 3 -16 7.5t-6 12.5q0 17 25 17h386q31 0 31 -27q0 -25 -32 -25h-292v-194q0 -29 25 -29h277q32 0 32 -25q0 -27 -31 -27z" />
<glyph unicode="&#xacb0;" horiz-adv-x="776" d="M97 689q-31 0 -31 26t29 26h308q19 0 27 -12t4 -27q-5 -23 -13 -45h190v86q0 30 -12.5 41t-33.5 16q-20 6 -28.5 10t-8.5 12q0 17 29 17h81q38 0 38 -41v-360q0 -91 -49 -91h-16v82h-198q-30 0 -30 27q0 25 30 25h198v125h-198q-9 0 -15 2q-32 -61 -89 -122 q-102 -109 -235 -176q-25 -12 -33 4t11 28q119 71 197 163.5t108 183.5h-260zM667 -101h-337q-52 0 -52 65v73q0 22 -10 32t-24 17q-8 2 -12.5 6t-4.5 13q0 15 27 15h349v116h-322q-32 0 -32 27q0 25 30 25h355q34 0 34 -41v-129q0 -49 -41 -49h-285v-88q0 -30 24 -30h300 q31 0 31 -25q0 -27 -30 -27z" />
<glyph unicode="&#xacb8;" horiz-adv-x="776" d="M97 680q-31 0 -31 27q0 26 29 26h308q19 0 26.5 -12t4.5 -27q-5 -26 -14 -53h191v102q0 30 -12.5 41t-33.5 16q-20 6 -28.5 10t-8.5 12q0 17 29 17h81q38 0 38 -41v-416q0 -91 -49 -91h-16v111h-198q-30 0 -30 26q0 25 30 25h198v137h-198q-10 0 -16 2q-32 -61 -91 -128 q-109 -123 -233 -194q-23 -14 -31 2.5t11 29.5q123 88 201.5 190.5t101.5 187.5h-259zM340 -42h264v223h-263v-191q0 -17 -1 -32zM632 233q36 0 36 -43v-150q0 -60 -25 -82h7q31 0 31 -25q0 -27 -31 -27h-321q-12 -28 -36 -28h-15v247q0 34 -5 48t-27 23q-12 3 -17 7.5 t-5 12.5q0 17 26 17h382z" />
<glyph unicode="&#xacb9;" horiz-adv-x="776" d="M97 689q-31 0 -31 26t29 26h308q19 0 27 -12t4 -27q-6 -28 -17 -56h194v97q0 30 -12.5 41t-33.5 16q-20 6 -28.5 10t-8.5 12q0 17 29 17h81q38 0 38 -41v-372q0 -91 -49 -91h-16v81h-198q-30 0 -30 27q0 24 30 24h198v127h-198q-13 0 -19 4q-33 -56 -85 -113 q-102 -110 -236 -186q-24 -13 -31 3.5t11 29.5q118 81 195 170.5t109 186.5h-260zM341 149h263v63q0 25 -6.5 33.5t-19.5 13.5q-15 5 -20.5 8.5t-5.5 10.5q0 16 27 16h52q37 0 37 -41v-212q0 -62 -26 -83h8q31 0 31 -25q0 -27 -31 -27h-321q-13 -27 -36 -27h-15v300 q0 24 -6 34.5t-18 13.5q-11 4 -19 7.5t-8 11.5q0 17 27 17h53q34 0 34 -41v-73zM604 97h-263v-106q0 -17 -1 -33h264v139z" />
<glyph unicode="&#xacbb;" horiz-adv-x="776" d="M97 680q-31 0 -31 27q0 26 29 26h308q19 0 26.5 -12t4.5 -27q-5 -26 -14 -53h191v102q0 30 -12.5 41t-33.5 16q-20 6 -28.5 10t-8.5 12q0 17 29 17h81q38 0 38 -41v-466q0 -91 -49 -91h-16v161h-198q-30 0 -30 26q0 25 30 25h198v137h-198q-10 0 -16 2q-32 -61 -91 -128 q-109 -123 -233 -194q-23 -14 -31 2.5t11 29.5q123 88 201.5 190.5t101.5 187.5h-259zM509 212q-9 -40 -35 -82l236 -163q14 -10 17 -26t-4 -25q-9 -11 -23 -11t-31 13l-217 179q-21 -28 -46 -56q-85 -91 -176 -139q-27 -15 -37.5 -2.5t12.5 28.5q85 58 147 135.5t86 138.5 q7 21 -10 28t-36 11q-16 3 -15 18t22 15h62q35 0 44.5 -18.5t3.5 -43.5z" />
<glyph unicode="&#xacbc;" horiz-adv-x="776" d="M97 680q-31 0 -31 27q0 26 29 26h308q19 0 26.5 -12t4.5 -27q-5 -26 -14 -53h191v102q0 30 -12.5 41t-33.5 16q-20 6 -28.5 10t-8.5 12q0 17 29 17h81q38 0 38 -41v-416q0 -91 -49 -91h-16v111h-198q-30 0 -30 26q0 25 30 25h198v137h-198q-10 0 -16 2q-32 -61 -91 -128 q-109 -123 -233 -194q-23 -14 -31 2.5t11 29.5q123 88 201.5 190.5t101.5 187.5h-259zM382 195q-7 -47 -32 -96l119 -105q16 22 32 46q50 80 64 153q2 11 -5.5 19.5t-28.5 14.5q-11 3 -15.5 6t-4.5 9q0 16 26 16h60q28 0 35.5 -13.5t4.5 -38.5q-7 -53 -34 -107l143 -126 q18 -16 21 -30t-6 -23q-8 -10 -22.5 -10t-29.5 17l-127 134q-12 -19 -25 -37q-69 -92 -135 -133q-24 -16 -34 -4t6 26q21 18 40 39l-105 111q-10 -13 -20 -28q-62 -81 -144 -130q-25 -15 -35.5 -3.5t7.5 26.5q68 51 115 122.5t58 128.5q2 11 -5 20t-27 15q-15 5 -18.5 7.5 t-3.5 9.5q0 15 27 15h61q27 0 34 -14.5t4 -36.5z" />
<glyph unicode="&#xacbd;" horiz-adv-x="776" d="M97 680q-31 0 -31 27q0 26 29 26h308q19 0 26.5 -12t4.5 -27q-5 -26 -14 -53h191v102q0 30 -12.5 41t-33.5 16q-20 6 -28.5 10t-8.5 12q0 17 29 17h81q38 0 38 -41v-431q0 -91 -49 -91h-16v126h-198q-30 0 -30 26q0 25 30 25h198v137h-198q-10 0 -16 2q-32 -61 -91 -128 q-109 -123 -233 -194q-23 -14 -31 2.5t11 29.5q123 88 201.5 190.5t101.5 187.5h-259zM280 71q0 80 56.5 134t138.5 54t139 -54t57 -134t-57 -134t-139 -54t-138.5 54t-56.5 134zM345 71q0 -60 38.5 -97t91.5 -37t91.5 37t38.5 97t-38.5 97t-91.5 37t-91.5 -37t-38.5 -97z " />
<glyph unicode="&#xacc1;" horiz-adv-x="776" d="M97 689q-31 0 -31 26t29 26h308q19 0 27 -12t4 -27q-5 -23 -13 -45h190v86q0 30 -12.5 41t-33.5 16q-20 6 -28.5 10t-8.5 12q0 17 29 17h81q38 0 38 -41v-360q0 -91 -49 -91h-16v82h-198q-30 0 -30 27q0 25 30 25h198v125h-198q-9 0 -15 2q-32 -61 -89 -122 q-102 -109 -235 -176q-25 -12 -33 4t11 28q119 71 197 163.5t108 183.5h-260zM637 120q31 0 31 -25q0 -26 -31 -26h-295v-89q0 -29 25 -29h286q32 0 32 -25q0 -27 -31 -27h-319q-57 0 -57 66v216q0 33 -4.5 47t-27.5 23q-10 3 -16 8t-6 13q0 16 25 16h397q31 0 31 -26 t-32 -26h-303v-116h295z" />
<glyph unicode="&#xacc4;" horiz-adv-x="813" d="M97 633q-31 0 -31 27q0 25 29 25h254q20 0 28 -12.5t6 -26.5q-5 -35 -16 -71h129v126q0 30 -11.5 40.5t-34.5 17.5q-20 5 -27 10t-7 12q0 15 28 15h77q37 0 37 -44v-696q0 -92 -49 -92h-13v357h-150q-29 0 -29 26q0 25 29 25h150v152h-148q-29 -72 -78 -144 q-93 -134 -194 -208q-24 -17 -33.5 -2t8.5 31q102 92 168.5 205.5t87.5 226.5h-210zM620 839h77q39 0 39 -42v-803q0 -92 -50 -92h-14v842q0 30 -12 41t-36 17q-20 4 -27.5 8t-7.5 12q0 17 31 17z" />
<glyph unicode="&#xacc8;" horiz-adv-x="813" d="M97 662q-31 0 -31 27q0 25 29 25h258q19 0 26.5 -11.5t4.5 -27.5q-6 -40 -20 -80h138v106q0 30 -11.5 40.5t-34.5 17.5q-20 5 -27 10t-7 12q0 15 29 15h76q37 0 37 -43v-515q0 -91 -49 -91h-13v205h-151q-28 0 -28 25q0 26 28 26h151v141h-158q-27 -57 -66 -117 q-89 -127 -203 -204q-23 -15 -32.5 -1t6.5 29q107 92 175.5 207.5t82.5 203.5h-210zM620 839h77q39 0 39 -42v-580q0 -92 -50 -92h-14v619q0 30 -12 41t-36 17q-20 4 -27.5 8t-7.5 12q0 17 31 17zM726 -87h-355q-90 0 -90 87v106q0 29 -11 39.5t-34 17.5q-20 5 -24.5 9 t-4.5 13q0 17 27 17h75q36 0 36 -47v-167q0 -21 19 -21h361q33 0 33 -27t-32 -27z" />
<glyph unicode="&#xaccc;" horiz-adv-x="813" d="M97 674q-31 0 -31 27q0 25 29 25h258q19 0 26.5 -11.5t4.5 -26.5q-5 -27 -13 -53h131v66q0 30 -11.5 40.5t-34.5 17.5q-20 5 -27 10t-7 12q0 15 29 15h76q37 0 37 -43v-321q0 -92 -49 -92h-13v82h-151q-28 0 -28 26q0 25 28 25h151v111h-152q-27 -60 -74 -119 q-85 -108 -203 -180q-23 -13 -32 2t8 29q111 83 175.5 179.5t82.5 178.5h-210zM672 744q0 30 -12 41t-36 17q-20 4 -27.5 8t-7.5 12q0 17 31 17h77q39 0 39 -41v-377q0 -91 -50 -91h-14v414zM725 -101h-357q-53 0 -53 65v70q0 22 -9.5 32t-23.5 17q-9 2 -13 6t-4 13 q0 15 27 15h370v113h-344q-31 0 -31 26t29 26h376q34 0 34 -41v-126q0 -49 -41 -49h-305v-84q0 -31 23 -31h321q32 0 32 -25q0 -27 -31 -27z" />
<glyph unicode="&#xacd5;" horiz-adv-x="813" d="M97 674q-31 0 -31 27q0 25 29 25h258q19 0 26.5 -11.5t4.5 -26.5q-5 -28 -14 -57h132v70q0 30 -11.5 40.5t-34.5 17.5q-20 5 -27 10t-7 12q0 15 29 15h76q37 0 37 -43v-320q0 -92 -49 -92l-13 3v69h-151q-28 0 -28 26q0 25 28 25h151v116h-153q-27 -57 -74 -116 q-89 -113 -202 -189q-23 -14 -32 1t8 30q95 76 168 177.5t90 190.5h-210zM672 744q0 30 -12 41t-36 17q-20 4 -27.5 8t-7.5 12q0 17 31 17h77q39 0 39 -41v-376q0 -91 -50 -91h-14v413zM374 147h289v61q0 25 -7 33.5t-20 13.5q-14 4 -20 8t-6 11q0 16 27 16h52q37 0 37 -41 v-208q0 -62 -26 -83h9q30 0 30 -25q0 -27 -30 -27h-348q-12 -27 -35 -27h-16v295q0 25 -5.5 35.5t-17.5 13.5q-12 4 -19.5 7.5t-7.5 11.5q0 16 27 16h53q34 0 34 -41v-70zM663 95h-289v-104q0 -17 -1 -33h290v137z" />
<glyph unicode="&#xacd7;" horiz-adv-x="813" d="M97 669q-31 0 -31 27q0 25 29 25h258q19 0 26.5 -11.5t4.5 -27.5q-5 -27 -14 -56h132v75q0 30 -11.5 40.5t-34.5 17.5q-20 5 -27 10t-7 12q0 15 29 15h76q37 0 37 -43v-342q0 -91 -49 -91h-13v77h-151q-28 0 -28 25q0 26 28 26h151v127h-153q-26 -58 -71 -117 q-89 -114 -205 -184q-23 -13 -32 2t8 29q101 76 170 173.5t88 190.5h-210zM620 839h77q39 0 39 -41v-457q0 -91 -50 -91h-14v494q0 30 -12 41t-36 17q-20 4 -27.5 8t-7.5 12q0 17 31 17zM531 212q-9 -38 -36 -81l253 -164q15 -11 17.5 -26.5t-4.5 -24.5q-9 -11 -22.5 -11.5 t-31.5 13.5l-235 181q-20 -27 -47 -55q-89 -92 -187 -142q-29 -14 -39.5 -2t13.5 28q85 56 152.5 133.5t95.5 140.5q10 21 -8.5 28t-36.5 11q-17 3 -16 18t23 15h61q35 0 45 -18.5t3 -43.5z" />
<glyph unicode="&#xace0;" d="M177 717h425q41 0 41 -48q0 -46 -3 -99t-8 -109t-14.5 -108t-23.5 -88q-5 -13 -14 -17.5t-19 -0.5q-8 2 -9 9.5t1 19.5q8 39 11.5 84.5t5.5 96.5q2 50 3.5 101t1.5 106h-396q-32 0 -32 27q0 26 30 26zM336 111v238q0 28 -11 38t-36 17q-15 3 -19 7t-4 13q0 17 29 17h70 q35 0 35 -44v-286h363q33 0 33 -26t-33 -26h-700q-30 0 -30 26t30 26h273z" />
<glyph unicode="&#xace1;" d="M189 732q-31 0 -31 26q0 27 29 27h416q40 0 40 -47q0 -80 -9 -190q-9 -99 -27 -163h155q34 0 34 -25q0 -27 -34 -27h-699q-30 0 -30 27q0 25 30 25h284v112q0 26 -9 37t-32 18q-17 4 -22.5 9t-5.5 13q0 15 28 15h70q36 0 36 -43v-161h148q11 101 13 149q2 49 2 198h-386z M185 160q-27 0 -27 27q0 25 25 25h418q36 0 36 -42v-194q0 -92 -45 -92h-19v276h-388z" />
<glyph unicode="&#xace4;" d="M189 717q-31 0 -31 27q0 26 29 26h416q40 0 40 -47q0 -80 -9 -202q-9 -111 -27 -177h155q34 0 34 -25q0 -27 -34 -27h-699q-30 0 -30 27q0 25 30 25h284v126q0 26 -9 37.5t-32 18.5q-17 4 -22.5 8.5t-5.5 12.5q0 16 28 16h70q36 0 36 -43v-176h148q9 67 12 156 q3 91 3 217h-386zM629 -87h-337q-90 0 -90 87v95q0 28 -12.5 39t-32.5 18q-21 5 -26 9t-5 12q0 18 29 18h74q37 0 37 -47v-156q0 -21 19 -21h343q32 0 32 -27t-31 -27z" />
<glyph unicode="&#xace7;" d="M189 732q-31 0 -31 26q0 27 29 27h416q40 0 40 -47q0 -80 -9 -190q-9 -95 -26 -157h155q33 0 33 -26q0 -27 -33 -27h-700q-30 0 -30 27q0 26 30 26h284v111q0 26 -9 37t-32 18q-17 5 -22.5 9.5t-5.5 12.5q0 15 28 15h70q36 0 36 -43v-160h148q11 96 13 143q2 49 2 198 h-386zM625 -94h-361q-57 0 -57 66v144q0 34 -4 48t-28 23q-10 3 -15.5 7.5t-5.5 12.5q0 17 24 17h436q31 0 31 -27q0 -26 -32 -26h-342v-184q0 -29 25 -29h328q31 0 31 -25q0 -27 -30 -27z" />
<glyph unicode="&#xace8;" d="M189 738q-31 0 -31 26q0 27 29 27h416q40 0 40 -47q0 -80 -9 -171q-8 -77 -25 -136h153q34 0 34 -26q0 -27 -34 -27h-699q-30 0 -30 27q0 26 30 26h284v86q0 25 -9 36.5t-32 18.5q-17 4 -22.5 8.5t-5.5 12.5q0 16 28 16h70q36 0 36 -43v-135h149q10 83 12 123q2 43 2 178 h-386zM205 231q-32 0 -32 24q0 27 30 27h406q34 0 34 -41v-125q0 -49 -40 -49h-337v-85q0 -31 24 -31h352q32 0 32 -26t-31 -26h-380q-61 0 -61 72v63q0 22 -8.5 32t-24.5 17q-8 2 -13.5 6.5t-5.5 12.5q0 16 27 16h402v113h-374z" />
<glyph unicode="&#xacea;" d="M189 738q-31 0 -31 26q0 27 29 27h416q40 0 40 -47q0 -80 -9 -171q-8 -77 -25 -136h153q34 0 34 -26q0 -27 -34 -27h-699q-30 0 -30 27q0 26 30 26h284v86q0 25 -9 36.5t-32 18.5q-17 4 -22.5 8.5t-5.5 12.5q0 16 28 16h70q36 0 36 -43v-135h149q10 83 12 123q2 43 2 178 h-386zM515 -32h111v264h-110v-229q0 -19 -1 -35zM168 231q-32 0 -32 25q0 26 30 26h185q34 0 34 -40v-129q0 -46 -34 -46h-128v-91q0 -25 18 -25h140q32 0 32 -25q0 -27 -31 -27h-162q-59 0 -59 70v65q0 22 -4 33t-22 18q-7 4 -10 7t-3 11q0 14 20 14h181v114h-155zM650 282 q36 0 36 -45v-185q0 -64 -27 -84h10q30 0 30 -25q0 -27 -30 -27h-165q-12 -28 -36 -28h-12v295q0 36 -3 44t-19 17q-9 6 -12.5 9.5t-3.5 12.5q0 16 20 16h212z" />
<glyph unicode="&#xacec;" d="M189 738q-31 0 -31 26q0 27 29 27h416q40 0 40 -47q0 -80 -9 -171q-8 -77 -25 -136h153q34 0 34 -26q0 -27 -34 -27h-699q-30 0 -30 27q0 26 30 26h284v86q0 25 -9 36.5t-32 18.5q-17 4 -22.5 8.5t-5.5 12.5q0 16 28 16h70q36 0 36 -43v-135h149q10 83 12 123q2 43 2 178 h-386zM630 228q-9 -48 -27 -97l140 -163q17 -19 16 -32t-9 -21q-11 -9 -24.5 -8t-24.5 15l-115 165l-14 -28q-43 -85 -97 -143q-8 -9 -16.5 -11t-14.5 3q-5 4 -6 12h-1q-3 -21 -29 -21h-188q-59 0 -59 70v65q0 22 -4 33t-22 18q-7 4 -10 7t-3 11q0 14 20 14h203v114h-177 q-32 0 -32 25q0 26 30 26h209q34 0 34 -40v-129q0 -46 -34 -46h-151v-91q0 -25 18 -25h165q31 0 31 -25q1 4 5 9q46 66 77 139.5t38 139.5q2 18 -10 26.5t-32 12.5q-18 3 -17.5 18.5t21.5 15.5h65q30 0 40.5 -15t4.5 -44z" />
<glyph unicode="&#xacef;" d="M189 738q-31 0 -31 26q0 27 29 27h416q40 0 40 -47q0 -80 -9 -171q-8 -77 -25 -136h153q34 0 34 -26q0 -27 -34 -27h-699q-30 0 -30 27q0 26 30 26h284v86q0 25 -9 36.5t-32 18.5q-17 4 -22.5 8.5t-5.5 12.5q0 16 28 16h70q36 0 36 -43v-135h149q10 83 12 123q2 43 2 178 h-386zM168 231q-32 0 -32 25q0 26 30 26h175q34 0 34 -40v-129q0 -46 -34 -46h-118v-91q0 -25 18 -25h130q31 0 31 -25q0 -27 -30 -27h-153q-58 0 -58 70v65q0 22 -4 33t-22 18q-7 4 -10 7t-3 11q0 14 20 14h170v114h-144zM487 235l-27 22q-8 8 -9.5 16t4.5 16q5 6 13.5 5 t16.5 -5q39 -18 68 -22.5t68 -4.5q29 0 29 -26q0 -12 -7.5 -19t-19.5 -7l-72 1q-35 0 -64 24zM709 107h-47q35 -35 35 -88q0 -55 -37.5 -94t-96.5 -39q-57 0 -94.5 39t-37.5 94q0 53 36 88h-35q-32 0 -32 23q0 25 32 25h277q31 0 31 -25q0 -23 -31 -23zM636 19 q0 36 -21 61.5t-51 25.5q-29 0 -50 -25.5t-21 -61.5t21 -61.5t50 -25.5q30 0 51 25.5t21 61.5z" />
<glyph unicode="&#xacf0;" d="M189 732q-31 0 -31 26q0 27 29 27h416q40 0 40 -47q0 -80 -9 -190q-9 -95 -26 -157h155q33 0 33 -26q0 -27 -33 -27h-700q-30 0 -30 27q0 26 30 26h284v111q0 26 -9 37t-32 18q-17 5 -22.5 9.5t-5.5 12.5q0 15 28 15h70q36 0 36 -43v-160h148q11 96 13 143q2 49 2 198 h-386zM266 -42h311v213h-310v-181q0 -17 -1 -32zM604 224q36 0 36 -44v-140q0 -60 -25 -82h8q30 0 30 -25q0 -27 -30 -27h-368q-11 -28 -36 -28h-15v237q0 35 -4.5 49t-27.5 23q-11 3 -16 7.5t-5 12.5q0 17 25 17h428z" />
<glyph unicode="&#xacf1;" d="M189 738q-31 0 -31 26q0 27 29 27h416q40 0 40 -47q0 -80 -9 -184q-8 -88 -25 -149h153q34 0 34 -26t-34 -26h-699q-30 0 -30 26t30 26h284v112q0 25 -9 36.5t-32 18.5q-17 4 -22.5 8.5t-5.5 12.5q0 16 28 16h70q36 0 36 -43v-161h149q10 84 12 136q2 56 2 191h-386z M623 -94h-368q-12 -27 -36 -27h-15v308q0 24 -5.5 34.5t-18.5 13.5q-11 4 -18.5 7.5t-7.5 11.5q0 17 26 17h53q34 0 34 -41v-83h310v57q0 25 -7 33.5t-20 13.5q-14 4 -20 8t-6 11q0 16 27 16h52q37 0 37 -41v-204q0 -62 -26 -83h9q30 0 30 -25q0 -27 -30 -27zM266 -42h311 v137h-310v-104q0 -17 -1 -33z" />
<glyph unicode="&#xacf3;" d="M189 732q-31 0 -31 26q0 27 29 27h416q40 0 40 -47q0 -80 -9 -185q-9 -98 -28 -162h157q33 0 33 -26q0 -27 -33 -27h-700q-30 0 -30 27q0 26 30 26h284v111q0 26 -9 37t-32 18q-17 5 -22.5 9.5t-5.5 12.5q0 15 28 15h70q36 0 36 -43v-160h147q12 104 14 148t2 193h-386z M463 202q-8 -42 -42 -90l268 -148q17 -10 20.5 -26.5t-7.5 -27.5q-9 -10 -22 -10t-32 13l-250 170q-15 -18 -32 -37q-85 -87 -189 -146q-29 -16 -37.5 -2t15.5 31q79 53 149.5 132.5t87.5 130.5q7 20 -11.5 28t-34.5 11t-15 18t22 15h62q35 0 44 -18.5t4 -43.5z" />
<glyph unicode="&#xacf5;" d="M189 732q-31 0 -31 26q0 27 29 27h416q40 0 40 -47q0 -80 -9 -185q-9 -94 -27 -157h156q33 0 33 -26q0 -27 -33 -27h-700q-30 0 -30 27q0 26 30 26h284v111q0 26 -9 37t-32 19q-17 4 -22.5 8.5t-5.5 12.5q0 15 28 15h70q36 0 36 -43v-160h148q11 100 13 143q2 44 2 193 h-386zM209 67q0 77 60.5 130.5t144.5 53.5t144 -53.5t60 -130.5t-60 -130.5t-144 -53.5t-144.5 53.5t-60.5 130.5zM274 67q0 -53 40.5 -91.5t99.5 -38.5q58 0 98.5 38.5t40.5 91.5t-40.5 91.5t-98.5 38.5q-59 0 -99.5 -38.5t-40.5 -91.5z" />
<glyph unicode="&#xacf6;" d="M189 732q-31 0 -31 26q0 27 29 27h416q40 0 40 -47q0 -80 -9 -190q-9 -95 -26 -157h155q33 0 33 -26q0 -27 -33 -27h-700q-30 0 -30 27q0 26 30 26h284v111q0 26 -9 37t-32 18q-17 5 -22.5 9.5t-5.5 12.5q0 15 28 15h70q36 0 36 -43v-160h148q11 96 13 143q2 49 2 198 h-386zM217 171q-33 0 -33 27q0 26 30 26h360q31 0 43.5 -15.5t3.5 -39.5q-21 -57 -134 -129l214 -80q35 -13 22 -41t-53 -11l-227 105q-134 -78 -282 -116q-23 -6 -28 12.5t13 23.5q81 25 197.5 88t202.5 150h-329z" />
<glyph unicode="&#xacfc;" horiz-adv-x="831" d="M99 648q-31 0 -31 26q0 27 29 27h328q42 0 41 -44q-1 -90 -11.5 -181.5t-29.5 -163.5q-3 -12 -13 -16.5t-18 -1.5q-9 2 -11 10t0 19q12 73 13.5 151.5t1.5 173.5h-299zM593 743q0 30 -13 41t-33 16q-21 6 -29 10t-8 12q0 17 29 17h82q36 0 36 -42v-319h129q33 0 33 -27 t-33 -27h-129v-429q0 -92 -49 -92h-15v840zM206 183v199q0 29 -8.5 40t-31.5 18q-11 3 -19.5 7.5t-8.5 11.5q0 18 33 18h63q36 0 36 -45v-249h58q60 0 103.5 2.5t89.5 10.5q27 5 30.5 -7.5t-10.5 -22.5q-23 -14 -80 -25t-139 -11h-268q-29 0 -29 27q0 26 29 26h152z" />
<glyph unicode="&#xacfd;" horiz-adv-x="831" d="M110 709q-32 0 -32 27q0 26 30 26h326q41 0 41 -47q0 -48 -9.5 -127.5t-31.5 -133.5q-4 -12 -13 -16.5t-18 -1.5q-9 2 -11.5 9.5t0.5 18.5q11 48 13.5 102t2.5 143h-298zM593 743q0 30 -13 41t-33 16q-21 6 -29 10t-8 12q0 17 29 17h82q36 0 36 -42v-243h129q33 0 33 -26 q0 -27 -33 -27h-129v-166q0 -92 -49 -92h-15v500zM212 354v122q0 28 -8 39t-32 18q-11 3 -19.5 7.5t-8.5 11.5q0 18 33 18h64q35 0 35 -44v-172h52q60 0 103.5 2.5t89.5 10.5q27 5 30.5 -7.5t-10.5 -22.5q-23 -14 -80 -25t-139 -11h-268q-29 0 -29 27q0 26 29 26h158z M233 143q-27 0 -27 26t25 26h383q36 0 36 -42v-177q0 -92 -45 -92h-18v259h-354z" />
<glyph unicode="&#xad00;" horiz-adv-x="831" d="M110 689q-32 0 -32 26q0 27 30 27h326q41 0 41 -47q0 -48 -9.5 -127.5t-31.5 -133.5q-4 -13 -13 -17.5t-18 -1.5q-9 2 -11.5 10t0.5 19q11 48 13.5 101.5t2.5 143.5h-298zM593 743q0 30 -13 41t-33 16q-21 6 -29 10t-8 12q0 17 29 17h82q36 0 36 -42v-284h129 q33 0 33 -26q0 -27 -33 -27h-129v-268q0 -92 -49 -92h-15v643zM212 318v142q0 29 -8 39.5t-32 18.5q-11 3 -19.5 7.5t-8.5 11.5q0 17 33 17h64q35 0 35 -44v-192h52q60 0 103.5 2.5t89.5 10.5q27 5 30.5 -7.5t-10.5 -22.5q-23 -14 -80 -24.5t-139 -10.5h-268q-29 0 -29 26 t29 26h158zM656 -87h-329q-90 0 -90 87v78q0 29 -11 39.5t-35 18.5q-19 5 -23.5 8.5t-4.5 12.5q0 17 27 17h75q36 0 36 -47v-139q0 -21 18 -21h336q33 0 33 -27t-32 -27z" />
<glyph unicode="&#xad04;" horiz-adv-x="831" d="M110 712q-32 0 -32 27q0 26 30 26h326q41 0 41 -47q0 -48 -9.5 -110t-31.5 -116q-4 -12 -13 -17t-18 -2t-11.5 10.5t0.5 18.5q11 48 13.5 84.5t2.5 125.5h-298zM593 743q0 30 -13 41t-33 16q-21 6 -29 10t-8 12q0 17 29 17h82q36 0 36 -42v-212h129q33 0 33 -27 q0 -26 -33 -26h-129v-125q0 -92 -49 -92h-15v428zM212 405v91q0 29 -8 39.5t-32 17.5q-11 3 -19.5 8t-8.5 12q0 17 33 17h64q35 0 35 -44v-141h52q60 0 103.5 2.5t89.5 10.5q27 5 30.5 -7.5t-10.5 -21.5q-23 -15 -80 -25.5t-139 -10.5h-268q-29 0 -29 26t29 26h158z M649 -101h-347q-52 0 -52 65v62q0 22 -10 32t-24 17q-8 2 -12 5.5t-4 13.5q0 15 26 15h360v104h-333q-32 0 -32 26t30 26h365q34 0 34 -41v-116q0 -49 -41 -49h-295v-77q0 -31 24 -31h310q32 0 32 -25q0 -27 -31 -27z" />
<glyph unicode="&#xad06;" horiz-adv-x="831" d="M110 712q-32 0 -32 27q0 26 30 26h326q41 0 41 -47q0 -48 -9.5 -110t-31.5 -116q-4 -12 -13 -17t-18 -2t-11.5 10.5t0.5 18.5q11 48 13.5 84.5t2.5 125.5h-298zM593 743q0 30 -13 41t-33 16q-21 6 -29 10t-8 12q0 17 29 17h82q36 0 36 -42v-212h129q33 0 33 -27 q0 -26 -33 -26h-129v-125q0 -92 -49 -92h-15v428zM212 405v91q0 29 -8 39.5t-32 17.5q-11 3 -19.5 8t-8.5 12q0 17 33 17h64q35 0 35 -44v-141h52q60 0 103.5 2.5t89.5 10.5q27 5 30.5 -7.5t-10.5 -21.5q-23 -15 -80 -25.5t-139 -10.5h-268q-29 0 -29 26t29 26h158zM497 -32 h100v246h-99v-214q0 -17 -1 -32zM158 213q-32 0 -32 26t30 26h176q34 0 34 -40v-120q0 -46 -34 -46h-118v-83q0 -25 17 -25h130q32 0 32 -25q0 -27 -31 -27h-153q-58 0 -58 70v57q0 22 -4.5 32.5t-21.5 17.5q-7 4 -10 6.5t-3 11.5q0 14 20 14h170v105h-144zM623 265 q35 0 35 -45v-168q0 -64 -26 -84h9q31 0 31 -25q0 -27 -31 -27h-156q-11 -28 -35 -28h-14v278q0 35 -3 43t-18 18q-9 6 -13 9.5t-4 11.5q0 17 21 17h204z" />
<glyph unicode="&#xad0c;" horiz-adv-x="831" d="M110 709q-32 0 -32 27q0 26 30 26h326q41 0 41 -47q0 -48 -9.5 -122t-31.5 -129q-4 -12 -13 -16.5t-18 -1.5q-9 2 -11.5 9.5t0.5 19.5q11 48 13.5 96.5t2.5 137.5h-298zM593 743q0 30 -13 41t-33 16q-21 6 -29 10t-8 12q0 17 29 17h82q36 0 36 -42v-232h129q33 0 33 -27 t-33 -27h-129v-155q0 -92 -49 -92h-15v479zM212 364v132q0 29 -8 39.5t-32 17.5q-11 3 -19.5 8t-8.5 12q0 17 33 17h64q35 0 35 -44v-182h52q60 0 103.5 2.5t89.5 10.5q27 5 30.5 -7.5t-10.5 -21.5q-23 -15 -80 -25.5t-139 -10.5h-268q-29 0 -29 26t29 26h158zM313 -42h274 v205h-273v-173q0 -17 -1 -32zM614 215q36 0 36 -44v-141q0 -48 -15 -72h3q32 0 32 -25q0 -27 -32 -27h-336q-12 -28 -37 -28h-15v229q0 35 -6 49t-29 23q-10 3 -14 7.5t-4 12.5q0 16 20 16h397z" />
<glyph unicode="&#xad0d;" horiz-adv-x="831" d="M110 712q-32 0 -32 27q0 26 30 26h326q41 0 41 -47q0 -48 -9.5 -115t-31.5 -121q-4 -13 -13 -17.5t-18 -1.5q-9 2 -11.5 10t0.5 19q11 48 13.5 89.5t2.5 130.5h-298zM593 743q0 30 -13 41t-33 16q-21 6 -29 10t-8 12q0 17 29 17h82q36 0 36 -42v-212h129q33 0 33 -27 q0 -26 -33 -26h-129v-135q0 -92 -49 -92h-15v438zM212 384v112q0 29 -8 39.5t-32 17.5q-11 3 -19.5 8t-8.5 12q0 17 33 17h64q35 0 35 -44v-162h52q60 0 103.5 3t89.5 11q27 5 30.5 -8t-10.5 -22q-23 -14 -80 -25t-139 -11h-268q-29 0 -29 27q0 25 29 25h158zM633 -94h-332 q-12 -27 -36 -27h-15v283q0 25 -5.5 35t-18.5 13q-11 4 -18.5 8t-7.5 12q0 16 26 16h54q33 0 33 -41v-65h274v45q0 24 -7 33t-20 14q-14 4 -19.5 7.5t-5.5 10.5q0 17 26 17h52q37 0 37 -41v-185q0 -62 -25 -83h8q31 0 31 -25q0 -27 -31 -27zM312 -42h275v129h-274v-96 q0 -17 -1 -33z" />
<glyph unicode="&#xad0f;" horiz-adv-x="831" d="M110 709q-32 0 -32 27q0 26 30 26h326q41 0 41 -47q0 -48 -9.5 -122t-31.5 -129q-4 -12 -13 -16.5t-18 -1.5q-9 2 -11.5 9.5t0.5 19.5q11 48 13.5 96.5t2.5 137.5h-298zM593 743q0 30 -13 41t-33 16q-21 6 -29 10t-8 12q0 17 29 17h82q36 0 36 -42v-232h129q33 0 33 -27 t-33 -27h-129v-217q0 -92 -49 -92h-15v541zM212 364v132q0 29 -8 39.5t-32 17.5q-11 3 -19.5 8t-8.5 12q0 17 33 17h64q35 0 35 -44v-182h52q60 0 103.5 2.5t89.5 10.5q27 5 30.5 -7.5t-10.5 -21.5q-23 -15 -80 -25.5t-139 -10.5h-268q-29 0 -29 26t29 26h158zM492 192 q-9 -37 -32 -76l232 -149q15 -10 18 -26t-4 -25q-10 -11 -23.5 -11t-31.5 13l-215 165q-19 -25 -46 -51q-84 -84 -177 -130q-28 -13 -38 -1t12 27q83 53 144.5 122t89.5 132q7 20 -10.5 27t-35.5 12q-17 3 -16 17.5t23 14.5h61q35 0 45 -18.5t4 -42.5z" />
<glyph unicode="&#xad11;" horiz-adv-x="831" d="M110 709q-32 0 -32 27q0 26 30 26h326q41 0 41 -47q0 -48 -9.5 -122t-31.5 -129q-4 -12 -13 -16.5t-18 -1.5q-9 2 -11.5 9.5t0.5 19.5q11 48 13.5 96.5t2.5 137.5h-298zM593 743q0 30 -13 41t-33 16q-21 6 -29 10t-8 12q0 17 29 17h82q36 0 36 -42v-232h129q33 0 33 -27 t-33 -27h-129v-176q0 -92 -49 -92h-15v500zM212 364v132q0 29 -8 39.5t-32 17.5q-11 3 -19.5 8t-8.5 12q0 17 33 17h64q35 0 35 -44v-182h52q60 0 103.5 2.5t89.5 10.5q27 5 30.5 -7.5t-10.5 -21.5q-23 -15 -80 -25.5t-139 -10.5h-268q-29 0 -29 26t29 26h158zM267 58 q0 71 53 123t138 52q86 0 139 -52t53 -123q0 -72 -53 -123.5t-139 -51.5q-85 0 -138 51.5t-53 123.5zM333 58q0 -53 35.5 -87t89.5 -34t90.5 34t36.5 87t-36.5 87t-90.5 34t-89.5 -34t-35.5 -87z" />
<glyph unicode="&#xad18;" horiz-adv-x="813" d="M83 642q-32 0 -32 27t30 27h283q40 0 40 -47q0 -77 -9.5 -176t-26.5 -143q-4 -12 -13.5 -16.5t-17.5 -1.5q-9 2 -10.5 9.5t0.5 18.5q9 66 10 148.5t1 153.5h-255zM672 743q0 31 -12 42t-36 17q-20 4 -27.5 8t-7.5 12q0 17 31 17h78q38 0 38 -42v-803q0 -92 -50 -92h-14 v503h-112v-349q0 -92 -49 -92h-14v737q0 30 -11.5 40.5t-34.5 17.5q-20 5 -27 10t-7 12q0 15 28 15h78q37 0 37 -43v-297h112v287zM176 183v199q0 29 -8 40t-32 18q-11 3 -19 7.5t-8 11.5q0 18 32 18h63q36 0 36 -45v-249q57 0 99 3q43 2 89 10q27 5 30.5 -7.5t-11.5 -22.5 q-22 -14 -79 -25t-139 -11h-175q-29 0 -29 27q0 26 29 26h122z" />
<glyph unicode="&#xad1c;" horiz-adv-x="813" d="M82 663q-32 0 -32 27q0 26 30 26h285q42 0 41 -44q-2 -58 -12 -130.5t-29 -117.5q-5 -12 -14 -16.5t-17 -1.5q-9 2 -11 9.5t1 19.5q10 42 12.5 97t2.5 131h-257zM672 743q0 31 -12 42t-36 17q-20 4 -27.5 8t-7.5 12q0 17 31 17h78q38 0 38 -42v-595q0 -92 -50 -92h-14 v332h-107v-230q0 -92 -49 -92h-14v581q0 30 -11.5 40.5t-34.5 17.5q-20 5 -27 10t-7 12q0 15 29 15h77q37 0 37 -43v-260h107v250zM179 318v121q0 26 -5.5 40t-32.5 21q-11 3 -20 6.5t-9 11.5q0 14 32 14h63q36 0 36 -42v-172q58 0 101 3q43 2 89 10q27 5 30.5 -7.5 t-10.5 -22.5q-23 -14 -80 -24.5t-139 -10.5h-180q-29 0 -29 26t29 26h125zM722 -87h-371q-90 0 -90 87v78q0 29 -10.5 39.5t-34.5 18.5q-19 5 -24 8.5t-5 12.5q0 17 28 17h75q36 0 36 -47v-139q0 -21 18 -21h377q33 0 33 -27t-32 -27z" />
<glyph unicode="&#xad20;" horiz-adv-x="813" d="M82 686q-32 0 -32 27t30 27h285q42 0 41 -44q-2 -59 -12 -113.5t-29 -99.5q-5 -13 -14 -17.5t-17 -1.5q-9 2 -11 10t1 19q10 42 12.5 80t2.5 113h-257zM672 743q0 31 -12 42t-36 17q-20 4 -27.5 8t-7.5 12q0 17 31 17h78q38 0 38 -41v-392q0 -91 -50 -91h-14v209h-107 v-107q0 -92 -49 -92h-14v376q0 30 -11.5 40.5t-34.5 17.5q-20 5 -27 10t-7 12q0 15 29 15h77q37 0 37 -43v-178h107v168zM179 390v100q0 27 -5.5 40.5t-32.5 20.5q-11 3 -20 7t-9 11q0 14 32 14h63q36 0 36 -42v-151q58 0 101 3q43 2 89 10q27 5 30.5 -8t-10.5 -22 q-23 -14 -80 -25t-139 -11h-180q-29 0 -29 27q0 26 29 26h125zM725 -101h-368q-52 0 -52 65v62q0 22 -9.5 32t-24.5 17q-8 2 -12 5.5t-4 13.5q0 15 27 15h380v104h-354q-32 0 -32 26t30 26h386q34 0 34 -41v-116q0 -49 -41 -49h-315v-77q0 -31 23 -31h331q32 0 32 -25 q0 -27 -31 -27z" />
<glyph unicode="&#xad29;" horiz-adv-x="813" d="M82 686q-32 0 -32 27t30 27h285q42 0 41 -44q-2 -59 -12 -124t-29 -110q-5 -12 -14 -16.5t-17 -1.5q-9 2 -11 9.5t1 18.5q10 42 12.5 90.5t2.5 123.5h-257zM672 743q0 31 -12 42t-36 17q-20 4 -27.5 8t-7.5 12q0 17 31 17h78q38 0 38 -41v-402q0 -91 -50 -91h-14v219 h-107v-117q0 -92 -49 -92h-14v386q0 30 -11.5 40.5t-34.5 17.5q-20 5 -27 10t-7 12q0 15 29 15h77q37 0 37 -43v-178h107v168zM179 369v112q0 25 -5.5 39t-32.5 21q-11 3 -20 6.5t-9 10.5q0 15 32 15h63q36 0 36 -42v-162q58 0 101 3q43 2 89 10q27 5 30.5 -7.5t-10.5 -21.5 q-23 -15 -80 -25.5t-139 -10.5h-180q-29 0 -29 26t29 26h125zM709 -94h-358q-12 -27 -36 -27h-15v283q0 25 -5.5 35t-18.5 13q-11 4 -18.5 8t-7.5 12q0 16 26 16h54q34 0 34 -41v-65h299v45q0 24 -7 33t-20 14q-14 4 -20 7.5t-6 10.5q0 17 27 17h52q37 0 37 -41v-185 q0 -62 -26 -83h9q30 0 30 -25q0 -27 -30 -27zM362 -42h301v129h-299v-96q0 -17 -2 -33z" />
<glyph unicode="&#xad2c;" horiz-adv-x="813" d="M82 683q-32 0 -32 27t30 27h285q42 0 41 -44q-2 -59 -12 -126t-29 -112q-5 -12 -14 -16.5t-17 -1.5q-9 2 -11 9.5t1 18.5q10 42 12.5 92.5t2.5 125.5h-257zM672 743q0 31 -12 42t-36 17q-20 4 -27.5 8t-7.5 12q0 17 31 17h78q38 0 38 -41v-443q0 -91 -50 -91h-14v239 h-107v-137q0 -92 -49 -92h-14v427q0 30 -11.5 40.5t-34.5 17.5q-20 5 -27 10t-7 12q0 15 29 15h77q37 0 37 -43v-199h107v189zM179 349v121q0 26 -5.5 40t-32.5 21q-11 3 -20 6.5t-9 10.5q0 15 32 15h63q36 0 36 -42v-172q58 0 101 3q43 2 89 10q27 5 30.5 -8t-10.5 -22 q-23 -14 -80 -25t-139 -11h-180q-29 0 -29 27q0 26 29 26h125zM373 183q-4 -35 -22 -73l132 -108q9 11 16 23q49 74 69 151q2 11 -5.5 19t-27.5 14q-12 3 -16.5 6.5t-4.5 9.5q0 16 26 16h58q28 0 36 -14t4 -38q-6 -40 -27 -84l153 -128q16 -13 19 -28.5t-8 -26.5 q-10 -12 -25.5 -11.5t-26.5 11.5l-134 142q-12 -20 -27 -40q-63 -88 -129 -133q-10 -6 -18 -6t-14 4q-4 5 -3.5 11.5t8.5 12.5q21 18 43 44l-118 115q-12 -18 -26 -38q-61 -81 -133 -130q-10 -7 -19 -5t-12 7q-2 5 -0.5 12t10.5 14q47 38 92.5 104.5t58.5 130.5q2 12 -5 21 t-28 15q-14 4 -17.5 6.5t-3.5 10.5q0 15 26 15h61q26 0 33 -14.5t5 -37.5z" />
<glyph unicode="&#xad2d;" horiz-adv-x="813" d="M82 683q-32 0 -32 27t30 27h285q42 0 41 -44q-2 -59 -12 -126t-29 -112q-5 -12 -14 -16.5t-17 -1.5q-9 2 -11 9.5t1 18.5q10 42 12.5 92.5t2.5 125.5h-257zM672 743q0 31 -12 42t-36 17q-20 4 -27.5 8t-7.5 12q0 17 31 17h78q38 0 38 -41v-459q0 -91 -50 -91h-14v255 h-107v-113q0 -93 -49 -93h-14v404q0 30 -11.5 40.5t-34.5 17.5q-20 5 -27 10t-7 12q0 15 29 15h77q37 0 37 -43v-199h107v189zM179 338v132q0 26 -5.5 40t-32.5 21q-11 3 -20 6.5t-9 10.5q0 15 32 15h63q36 0 36 -42v-183q58 0 101 3q43 2 89 11q27 5 30.5 -8t-10.5 -22 q-23 -14 -80 -25t-139 -11h-180q-29 0 -29 27q0 25 29 25h125zM323 58q0 71 52.5 123t137.5 52q86 0 139.5 -52t53.5 -123q0 -72 -53.5 -123.5t-139.5 -51.5q-85 0 -137.5 51.5t-52.5 123.5zM388 58q0 -53 36 -87t89 -34q54 0 90.5 34t36.5 87t-36.5 87t-90.5 34 q-53 0 -89 -34t-36 -87z" />
<glyph unicode="&#xad34;" horiz-adv-x="776" d="M99 648q-31 0 -31 26q0 27 29 27h333q42 0 41 -44q-1 -90 -11 -181.5t-30 -163.5q-3 -12 -12.5 -16.5t-18.5 -1.5q-9 2 -11 10t0 19q12 73 13.5 151.5t1.5 173.5h-304zM611 743q0 30 -12.5 41t-33.5 16q-20 6 -28.5 10t-8.5 12q0 17 29 17h81q38 0 38 -42v-803 q0 -92 -49 -92h-16v841zM208 183v199q0 29 -8.5 40t-31.5 18q-11 3 -19.5 7.5t-8.5 11.5q0 18 33 18h64q35 0 35 -45v-249h74q61 0 104.5 2.5t89.5 10.5q26 5 29.5 -7.5t-10.5 -22.5q-22 -14 -79 -25t-140 -11h-286q-29 0 -29 27q0 26 30 26h153z" />
<glyph unicode="&#xad35;" horiz-adv-x="776" d="M110 709q-32 0 -32 27q0 26 30 26h331q41 0 41 -47q0 -48 -9.5 -127.5t-31.5 -133.5q-4 -12 -13 -16.5t-17 -1.5q-10 2 -12.5 9.5t0.5 18.5q12 48 14 102t2 143h-303zM676 333q0 -90 -49 -90h-16v500q0 30 -12.5 41t-33.5 16q-20 6 -28.5 10t-8.5 12q0 17 29 17h82 q37 0 37 -41v-465zM214 354v122q0 28 -8 39t-32 18q-11 3 -19.5 7.5t-8.5 11.5q0 18 33 18h64q36 0 36 -44v-172h67q61 0 104.5 2.5t89.5 10.5q26 5 29.5 -7.5t-10.5 -22.5q-22 -14 -79 -25t-140 -11h-286q-29 0 -29 27q0 26 30 26h159zM251 143q-28 0 -28 26t26 26h383 q36 0 36 -42v-177q0 -92 -45 -92h-19v259h-353z" />
<glyph unicode="&#xad38;" horiz-adv-x="776" d="M110 689q-32 0 -32 26q0 27 30 27h331q41 0 41 -47q0 -48 -9.5 -127.5t-31.5 -133.5q-4 -13 -13 -17.5t-17 -1.5q-10 2 -12.5 10t0.5 19q12 48 14 101.5t2 143.5h-303zM676 191q0 -91 -49 -91h-16v643q0 30 -12.5 41t-33.5 16q-20 6 -28.5 10t-8.5 12q0 17 29 17h82 q37 0 37 -42v-606zM214 318v142q0 29 -8 39.5t-32 18.5q-11 3 -19.5 7.5t-8.5 11.5q0 17 33 17h64q36 0 36 -44v-192h67q61 0 104.5 2.5t89.5 10.5q26 5 29.5 -7.5t-10.5 -22.5q-22 -14 -79 -24.5t-140 -10.5h-286q-29 0 -29 26t30 26h159zM674 -87h-330q-90 0 -90 87v78 q0 29 -11 39.5t-34 18.5q-20 5 -24.5 8.5t-4.5 12.5q0 17 28 17h75q35 0 35 -47v-139q0 -21 19 -21h336q33 0 33 -27t-32 -27z" />
<glyph unicode="&#xad3c;" horiz-adv-x="776" d="M110 712q-32 0 -32 27q0 26 30 26h331q41 0 41 -47q0 -48 -9.5 -110t-31.5 -116q-4 -12 -13 -17t-17 -2q-10 3 -12.5 10.5t0.5 18.5q12 48 14 84.5t2 125.5h-303zM676 405q0 -90 -49 -90h-16v428q0 30 -12.5 41t-33.5 16q-20 6 -28.5 10t-8.5 12q0 17 29 17h82 q37 0 37 -41v-393zM214 405v91q0 29 -8 39.5t-32 17.5q-11 3 -19.5 8t-8.5 12q0 17 33 17h64q36 0 36 -44v-141h67q61 0 104.5 2.5t89.5 10.5q26 5 29.5 -7.5t-10.5 -21.5q-22 -15 -79 -25.5t-140 -10.5h-286q-29 0 -29 26t30 26h159zM667 -101h-348q-52 0 -52 65v62 q0 22 -9.5 32t-24.5 17q-8 2 -12 5.5t-4 13.5q0 15 27 15h359v104h-333q-31 0 -31 26t29 26h366q34 0 34 -41v-116q0 -49 -41 -49h-295v-77q0 -31 23 -31h311q31 0 31 -25q0 -27 -30 -27z" />
<glyph unicode="&#xad44;" horiz-adv-x="776" d="M110 709q-32 0 -32 27q0 26 30 26h331q41 0 41 -47q0 -48 -9.5 -122t-31.5 -129q-4 -12 -13 -16.5t-17 -1.5q-10 2 -12.5 9.5t0.5 19.5q12 48 14 96.5t2 137.5h-303zM676 354q0 -90 -49 -90h-16v479q0 30 -12.5 41t-33.5 16q-20 6 -28.5 10t-8.5 12q0 17 29 17h82 q37 0 37 -41v-444zM214 364v132q0 29 -8 39.5t-32 17.5q-11 3 -19.5 8t-8.5 12q0 17 33 17h64q36 0 36 -44v-182h67q61 0 104.5 2.5t89.5 10.5q26 5 29.5 -7.5t-10.5 -21.5q-22 -15 -79 -25.5t-140 -10.5h-286q-29 0 -29 26t30 26h159zM331 -42h273v205h-272v-173 q0 -17 -1 -32zM632 215q36 0 36 -44v-141q0 -48 -16 -72h3q32 0 32 -25q0 -27 -32 -27h-336q-12 -28 -36 -28h-16v229q0 35 -6 49t-29 23q-10 3 -14 7.5t-4 12.5q0 16 20 16h398z" />
<glyph unicode="&#xad45;" horiz-adv-x="776" d="M110 712q-32 0 -32 27q0 26 30 26h331q41 0 41 -47q0 -48 -9.5 -115t-31.5 -121q-4 -13 -13 -17.5t-17 -1.5q-10 2 -12.5 10t0.5 19q12 48 14 89.5t2 130.5h-303zM676 395q0 -90 -49 -90h-16v438q0 30 -12.5 41t-33.5 16q-20 6 -28.5 10t-8.5 12q0 17 29 17h82 q37 0 37 -41v-403zM214 384v112q0 29 -8 39.5t-32 17.5q-11 3 -19.5 8t-8.5 12q0 17 33 17h64q36 0 36 -44v-162h67q61 0 104.5 3t89.5 11q26 5 29.5 -8t-10.5 -22q-22 -14 -79 -25t-140 -11h-286q-29 0 -29 27q0 25 30 25h159zM650 -94h-332q-12 -27 -35 -27h-16v283 q0 25 -5.5 35t-17.5 13q-12 4 -19.5 8t-7.5 12q0 16 27 16h53q34 0 34 -41v-65h273v45q0 24 -6.5 33t-19.5 14q-15 4 -20.5 7.5t-5.5 10.5q0 17 27 17h52q37 0 37 -41v-185q0 -62 -26 -83h8q31 0 31 -25q0 -27 -31 -27zM330 -42h274v129h-273v-96q0 -17 -1 -33z" />
<glyph unicode="&#xad47;" horiz-adv-x="776" d="M110 709q-32 0 -32 27q0 26 30 26h331q41 0 41 -47q0 -48 -9.5 -122t-31.5 -129q-4 -12 -13 -16.5t-17 -1.5q-10 2 -12.5 9.5t0.5 19.5q12 48 14 96.5t2 137.5h-303zM676 292q0 -90 -49 -90h-16v541q0 30 -12.5 41t-33.5 16q-20 6 -28.5 10t-8.5 12q0 17 29 17h82 q37 0 37 -41v-506zM214 364v132q0 29 -8 39.5t-32 17.5q-11 3 -19.5 8t-8.5 12q0 17 33 17h64q36 0 36 -44v-182h67q61 0 104.5 2.5t89.5 10.5q26 5 29.5 -7.5t-10.5 -21.5q-22 -15 -79 -25.5t-140 -10.5h-286q-29 0 -29 26t30 26h159zM509 192q-8 -37 -32 -76l233 -149 q14 -10 17 -26t-4 -25q-9 -11 -23 -11t-31 13l-215 165q-20 -25 -46 -51q-84 -84 -178 -130q-27 -13 -37.5 -1t12.5 27q83 53 144.5 122t88.5 132q7 20 -10 27t-36 12q-16 3 -15 17.5t22 14.5h62q35 0 44.5 -18.5t3.5 -42.5z" />
<glyph unicode="&#xad49;" horiz-adv-x="776" d="M110 709q-32 0 -32 27q0 26 30 26h331q41 0 41 -47q0 -48 -9.5 -122t-31.5 -129q-4 -12 -13 -16.5t-17 -1.5q-10 2 -12.5 9.5t0.5 19.5q12 48 14 96.5t2 137.5h-303zM676 333q0 -90 -49 -90h-16v500q0 30 -12.5 41t-33.5 16q-20 6 -28.5 10t-8.5 12q0 17 29 17h82 q37 0 37 -41v-465zM214 364v132q0 29 -8 39.5t-32 17.5q-11 3 -19.5 8t-8.5 12q0 17 33 17h64q36 0 36 -44v-182h67q61 0 104.5 2.5t89.5 10.5q26 5 29.5 -7.5t-10.5 -21.5q-22 -15 -79 -25.5t-140 -10.5h-286q-29 0 -29 26t30 26h159zM285 58q0 71 52.5 123t137.5 52 q86 0 139.5 -52t53.5 -123q0 -72 -53.5 -123.5t-139.5 -51.5q-85 0 -137.5 51.5t-52.5 123.5zM350 58q0 -53 36 -87t89 -34q54 0 90.5 34t36.5 87t-36.5 87t-90.5 34q-53 0 -89 -34t-36 -87z" />
<glyph unicode="&#xad50;" d="M177 717h425q41 0 41 -48q0 -46 -3 -99t-8 -109t-14.5 -108t-23.5 -88q-5 -13 -14 -17.5t-19 -0.5q-8 2 -9 9.5t1 19.5q8 39 11.5 84.5t5.5 96.5q2 50 3.5 101t1.5 106h-396q-32 0 -32 27q0 26 30 26zM763 59h-700q-30 0 -30 26t30 26h176v244q0 21 -9 31t-30 16 q-12 3 -20 7.5t-8 12.5q0 17 34 17h64q32 0 32 -40v-288h126v264q0 22 -7.5 31.5t-29.5 15.5q-11 3 -19 8t-8 13q0 16 33 16h63q32 0 32 -40v-308h271q33 0 33 -26t-33 -26z" />
<glyph unicode="&#xad54;" d="M189 717q-31 0 -31 27q0 26 29 26h416q40 0 40 -47q0 -80 -9 -202q-10 -120 -30 -187h158q34 0 34 -25q0 -27 -34 -27h-699q-30 0 -30 27q0 25 30 25h181v136q0 22 -5.5 34.5t-27.5 18.5q-11 3 -19 7t-8 11q0 16 33 16h58q32 0 32 -38v-185h122v147q0 21 -4 33.5 t-27 18.5q-11 3 -18.5 7t-7.5 11q0 17 32 17h57q32 0 32 -39v-195h66v6q10 68 13 159.5t3 217.5h-386zM629 -87h-337q-90 0 -90 87v95q0 28 -12.5 39t-32.5 18q-21 5 -26 9t-5 12q0 18 29 18h74q37 0 37 -47v-156q0 -21 19 -21h343q32 0 32 -27t-31 -27z" />
<glyph unicode="&#xad58;" d="M189 738q-31 0 -31 26q0 27 29 27h416q40 0 40 -47q0 -80 -9 -171q-9 -84 -27 -147h155q34 0 34 -25q0 -27 -34 -27h-699q-30 0 -30 27q0 25 30 25h181v93q0 20 -5.5 32.5t-27.5 18.5q-11 3 -19 7t-8 11q0 17 33 17h58q32 0 32 -39v-140h122v102q0 21 -4 33.5t-27 18.5 q-11 3 -18.5 7t-7.5 11q0 17 32 17h57q32 0 32 -39v-150h66q12 92 14 134q2 43 2 178h-386zM205 231q-32 0 -32 24q0 27 30 27h406q34 0 34 -41v-125q0 -49 -40 -49h-337v-85q0 -31 24 -31h352q32 0 32 -26t-31 -26h-380q-61 0 -61 72v63q0 22 -8.5 32t-24.5 17 q-8 2 -13.5 6.5t-5.5 12.5q0 16 27 16h402v113h-374z" />
<glyph unicode="&#xad61;" d="M189 738q-31 0 -31 26q0 27 29 27h416q40 0 40 -47q0 -80 -9 -184q-9 -96 -27 -159h155q34 0 34 -26t-34 -26h-699q-30 0 -30 26t30 26h181v108q0 22 -5.5 34t-27.5 19q-11 3 -19 7t-8 11q0 16 33 16h58q32 0 32 -39v-156h122v119q0 21 -4 33.5t-27 18.5q-11 3 -18.5 7 t-7.5 11q0 17 32 17h57q32 0 32 -39v-167h66q12 91 14 146q2 56 2 191h-386zM623 -94h-368q-12 -27 -36 -27h-15v308q0 24 -5.5 34.5t-18.5 13.5q-11 4 -18.5 7.5t-7.5 11.5q0 17 26 17h53q34 0 34 -41v-83h310v57q0 25 -7 33.5t-20 13.5q-14 4 -20 8t-6 11q0 16 27 16h52 q37 0 37 -41v-204q0 -62 -26 -83h9q30 0 30 -25q0 -27 -30 -27zM266 -42h311v137h-310v-104q0 -17 -1 -33z" />
<glyph unicode="&#xad63;" d="M189 732q-31 0 -31 26q0 27 29 27h416q40 0 40 -47q0 -80 -9.5 -185t-30.5 -172v-1h159q34 0 34 -25q0 -27 -34 -27h-699q-30 0 -30 27q0 25 30 25h181v119q0 22 -5.5 34t-27.5 18q-11 3 -19 7.5t-8 11.5q0 16 33 16h58q32 0 32 -39v-167h122v129q0 22 -4 34t-27 19 q-11 3 -18.5 7t-7.5 11q0 16 32 16h57q32 0 32 -39v-177h66q-1 4 0 11q12 104 14 148t2 193h-386zM463 202q-8 -42 -42 -90l268 -148q17 -10 20.5 -26.5t-7.5 -27.5q-9 -10 -22 -10t-32 13l-250 170q-15 -18 -32 -37q-85 -87 -189 -146q-29 -16 -37.5 -2t15.5 31 q79 53 149.5 132.5t87.5 130.5q7 20 -11.5 28t-34.5 11t-15 18t22 15h62q35 0 44 -18.5t4 -43.5z" />
<glyph unicode="&#xad6c;" d="M189 715q-31 0 -31 27q0 26 29 26h414q41 0 41 -46q0 -24 -2.5 -64t-6.5 -86q-4 -45 -12.5 -89t-19.5 -71q-4 -11 -12.5 -15.5t-19.5 -1.5q-7 3 -8 9.5t0 19.5q5 33 7.5 73t4.5 78q0 39 0.5 71.5t0.5 68.5h-385zM446 282v-285q0 -95 -45 -95h-18v380h-320q-30 0 -30 27 q0 25 30 25h700q33 0 33 -25q0 -27 -33 -27h-317z" />
<glyph unicode="&#xad6d;" d="M189 732q-31 0 -31 26q0 27 29 27h416q40 0 40 -47q0 -75 -10.5 -154.5t-29.5 -129.5v-1h160q33 0 33 -26t-33 -26h-317v-109q0 -58 -17 -80h172q36 0 36 -42v-194q0 -92 -45 -92h-19v276h-388q-27 0 -27 27q0 25 25 25h200v189h-320q-30 0 -30 26t30 26h496q-1 4 0 9 q10 64 14 130.5t2 139.5h-386z" />
<glyph unicode="&#xad70;" d="M189 717q-31 0 -31 27q0 26 29 26h416q40 0 40 -47q0 -80 -9 -167q-9 -80 -28 -144h156q34 0 34 -26t-34 -26h-300v-170q0 -94 -47 -94h-17v264h-335q-30 0 -30 26t30 26h496q10 68 13 124q3 55 3 181h-386zM629 -87h-337q-90 0 -90 87v115q0 29 -12.5 39.5t-32.5 17.5 q-21 6 -26 10t-5 12q0 17 29 17h74q37 0 37 -47v-176q0 -21 19 -21h343q32 0 32 -27t-31 -27z" />
<glyph unicode="&#xad73;" d="M189 732q-31 0 -31 26q0 27 29 27h416q40 0 40 -47q0 -80 -9 -159q-9 -70 -26 -129h154q34 0 34 -26t-34 -26h-315v-101q0 -51 -14 -73h181q31 0 31 -27q0 -26 -32 -26h-342v-184q0 -29 25 -29h328q31 0 31 -25q0 -27 -30 -27h-361q-57 0 -57 66v144q0 34 -4 48t-28 23 q-10 3 -15.5 7.5t-5.5 12.5q0 17 24 17h205v174h-320q-30 0 -30 26t30 26h497q9 62 12 107q3 49 3 175h-386z" />
<glyph unicode="&#xad74;" d="M189 738q-31 0 -31 26q0 27 29 27h416q40 0 40 -47q0 -73 -9 -139q-9 -63 -28 -124h157q33 0 33 -26q0 -27 -33 -27h-317v-76q0 -37 -7 -60h170q34 0 34 -41v-130q0 -49 -40 -49h-337v-91q0 -30 24 -30h352q32 0 32 -26t-31 -26h-380q-61 0 -61 72v68q0 22 -8.5 32 t-24.5 17q-8 3 -13.5 7t-5.5 12q0 16 27 16h402v118h-374q-32 0 -32 25q0 26 30 26h180v136h-320q-30 0 -30 27q0 26 30 26h496q10 66 13 128q3 61 3 129h-386z" />
<glyph unicode="&#xad75;" d="M189 738q-31 0 -31 26q0 27 29 27h416q40 0 40 -47q0 -73 -9 -139q-9 -63 -28 -124h157q33 0 33 -26q0 -27 -33 -27h-317v-76q0 -85 -37 -91v-143q0 -46 -34 -46h-151v-96q0 -25 18 -25h165q31 0 31 -25q0 -27 -30 -27h-188q-59 0 -59 70v70q0 22 -4 33t-22 19 q-7 4 -10 6.5t-3 10.5q0 14 20 14h203v119h-177q-32 0 -32 26q0 25 30 25h209q4 0 8 -1v137h-320q-30 0 -30 27q0 26 30 26h496q10 66 13 128q3 61 3 129h-386zM475 292h164q37 0 37 -41v-260q0 -92 -47 -92h-18v342h-134q-32 0 -32 26q0 25 30 25z" />
<glyph unicode="&#xad76;" d="M515 -32h111v274h-110v-239q0 -19 -1 -35zM650 292q36 0 36 -45v-195q0 -64 -27 -84h10q30 0 30 -25q0 -27 -30 -27h-165q-12 -28 -36 -28h-12v305q0 36 -3 44t-19 17q-9 7 -12 11h-1q-8 -6 -20 -6h-16v-141q0 -46 -34 -46h-128v-96q0 -25 18 -25h140q32 0 32 -25 q0 -27 -31 -27h-162q-59 0 -59 70v70q0 22 -4 33t-22 19q-7 4 -10 6.5t-3 10.5q0 14 20 14h181v119h-155q-32 0 -32 26q0 25 30 25h185q26 0 32 -22v158h-320q-30 0 -30 27q0 26 30 26h496q10 66 13 128q3 61 3 129h-386q-31 0 -31 26q0 27 29 27h416q40 0 40 -47 q0 -73 -9 -139q-9 -63 -28 -124h157q33 0 33 -26q0 -27 -33 -27h-317v-76q0 -37 -7 -60h211z" />
<glyph unicode="&#xad7b;" d="M189 738q-31 0 -31 26q0 27 29 27h416q40 0 40 -47q0 -73 -9 -139q-9 -63 -28 -124h157q33 0 33 -26q0 -27 -33 -27h-317v-76q0 -93 -45 -93h-18v169h-320q-30 0 -30 27q0 26 30 26h496q10 66 13 128q3 61 3 129h-386zM168 241q-32 0 -32 26q0 25 30 25h175q34 0 34 -40 v-134q0 -46 -34 -46h-118v-96q0 -25 18 -25h130q31 0 31 -25q0 -27 -30 -27h-153q-58 0 -58 70v70q0 22 -4 33t-22 19q-7 4 -10 6.5t-3 10.5q0 14 20 14h170v119h-144zM709 107h-47q35 -35 35 -88q0 -55 -37.5 -94t-96.5 -39q-57 0 -94.5 39t-37.5 94q0 53 36 88h-35 q-32 0 -32 23q0 25 32 25h277q31 0 31 -25q0 -23 -31 -23zM636 19q0 36 -21 61.5t-51 25.5q-29 0 -50 -25.5t-21 -61.5t21 -61.5t50 -25.5q30 0 51 25.5t21 61.5zM498 245l-28 23q-8 7 -9.5 15t4.5 16q5 7 13.5 6t17.5 -6q39 -18 62.5 -22.5t62.5 -4.5q29 0 29 -26 q0 -12 -7.5 -18.5t-19.5 -6.5l-67 1q-30 0 -58 23z" />
<glyph unicode="&#xad7c;" d="M266 -42h311v213h-310v-181q0 -17 -1 -32zM383 224v174h-320q-30 0 -30 26t30 26h497q9 62 12 107q3 49 3 175h-386q-31 0 -31 26q0 27 29 27h416q40 0 40 -47q0 -80 -9 -159q-9 -70 -26 -129h154q34 0 34 -26t-34 -26h-315v-101q0 -51 -14 -73h171q36 0 36 -44v-140 q0 -60 -25 -82h8q30 0 30 -25q0 -27 -30 -27h-368q-11 -28 -36 -28h-15v237q0 35 -4.5 49t-27.5 23q-11 3 -16 7.5t-5 12.5q0 17 25 17h207z" />
<glyph unicode="&#xad7d;" d="M189 738q-31 0 -31 26q0 27 29 27h416q40 0 40 -44q-1 -72 -12 -160q-10 -78 -24 -125h155q34 0 34 -25q0 -27 -34 -27h-315v-86q0 -92 -47 -92h-17v178h-320q-30 0 -30 27q0 25 30 25h496q10 66 13 126q2 62 3 150h-386zM623 -94h-368q-12 -27 -36 -27h-15v308 q0 24 -5.5 34.5t-18.5 13.5q-11 4 -18.5 7.5t-7.5 11.5q0 17 26 17h53q34 0 34 -41v-83h310v57q0 25 -7 33.5t-20 13.5q-14 4 -20 8t-6 11q0 16 27 16h52q37 0 37 -41v-204q0 -62 -26 -83h9q30 0 30 -25q0 -27 -30 -27zM266 -42h311v137h-310v-104q0 -17 -1 -33z" />
<glyph unicode="&#xad7f;" d="M189 732q-31 0 -31 26q0 27 29 27h416q40 0 40 -44q-1 -76 -12 -154t-28 -129q-2 -5 -5 -8h164q34 0 34 -26t-34 -26h-315v-57q0 -57 -18 -78q23 -4 30 -18q9 -18 4 -43q-8 -42 -42 -90l268 -148q17 -10 20.5 -26.5t-7.5 -27.5q-9 -10 -22 -10t-32 13l-250 170 q-15 -18 -32 -37q-85 -87 -189 -146q-29 -16 -37.5 -2t15.5 31q79 53 149.5 132.5t87.5 130.5q7 20 -11.5 28t-34.5 11t-15 18t22 15h30v134h-320q-30 0 -30 26t30 26h498q-4 6 -2 17q7 42 11 110.5t5 154.5h-386z" />
<glyph unicode="&#xad81;" d="M189 732q-31 0 -31 26q0 27 29 27h416q40 0 40 -44q-1 -76 -12 -154q-11 -77 -28 -128h160q33 0 33 -25q0 -27 -33 -27h-317v-89q0 -44 -10 -68q70 -6 122 -52q60 -54 60 -131t-60 -130.5t-144 -53.5t-144.5 53.5t-60.5 130.5t60 131q49 43 114 51v158h-320q-30 0 -30 27 q0 25 30 25h496q-1 4 0 8q7 42 11 110.5t5 154.5h-386zM274 67q0 -53 40.5 -91.5t99.5 -38.5q58 0 98.5 38.5t40.5 91.5t-40.5 91.5t-98.5 38.5q-59 0 -99.5 -38.5t-40.5 -91.5z" />
<glyph unicode="&#xad82;" d="M189 732q-31 0 -31 26q0 27 29 27h416q40 0 40 -47q0 -80 -9 -159q-9 -70 -26 -129h154q34 0 34 -26t-34 -26h-315v-101q0 -51 -14 -73h141q31 0 43.5 -15.5t3.5 -39.5q-21 -57 -134 -129l214 -80q35 -13 22 -41t-53 -11l-227 105q-134 -78 -282 -116q-23 -6 -28 12.5 t13 23.5q81 25 197.5 88t202.5 150h-329q-33 0 -33 27q0 26 30 26h169v174h-320q-30 0 -30 26t30 26h497q9 62 12 107q3 49 3 175h-386z" />
<glyph unicode="&#xad88;" horiz-adv-x="776" d="M99 700q-31 0 -31 26q0 27 29 27h312q41 0 41 -47q0 -85 -10 -178q-9 -85 -27 -142q19 0 38 3q43 2 89 10q26 5 29.5 -8t-10.5 -22q-22 -14 -79 -25t-140 -11h-39v-319q0 -91 -45 -91h-19v410h-183q-29 0 -29 27q0 25 30 25h312q11 62 13 130q2 69 2 185h-283zM611 743 q0 30 -12.5 41t-33.5 16q-20 6 -28.5 10t-8.5 12q0 17 29 17h82q37 0 37 -42v-803q0 -92 -49 -92h-16v254h-167q-32 0 -32 26q0 25 32 25h167v536z" />
<glyph unicode="&#xad89;" horiz-adv-x="776" d="M110 715q-32 0 -32 27q0 26 30 26h311q41 0 41 -47q0 -48 -9 -114q-11 -68 -32 -122l32 2q43 2 89 10q26 5 29.5 -7.5t-10.5 -22.5q-22 -14 -79 -24.5t-140 -10.5h-38v-155q0 -60 -45 -60h-20v215h-183q-29 0 -29 26t30 26h320q0 5 2 11q11 48 13 107t2 113h-282z M611 743q0 30 -12.5 41t-33.5 16q-20 6 -28.5 10t-8.5 12q0 17 29 17h82q37 0 37 -41v-489q0 -92 -49 -92h-16v91h-167q-32 0 -32 25q0 26 32 26h167v384zM241 127q-28 0 -28 27q0 26 26 26h393q36 0 36 -42v-162q0 -92 -45 -92h-19v243h-363z" />
<glyph unicode="&#xad8c;" horiz-adv-x="776" d="M110 710q-32 0 -32 27q0 26 30 26h311q41 0 41 -47q0 -48 -10 -126t-31 -132l-2 -4l34 2q43 2 89 10q26 5 29.5 -7.5t-10.5 -21.5q-22 -15 -79 -25.5t-140 -10.5h-37v-140q0 -66 -45 -66h-20v206h-184q-29 0 -29 26t30 26h321q-1 7 1 15q11 49 13 101t2 141h-282z M611 743q0 30 -12.5 41t-33.5 16q-20 6 -28.5 10t-8.5 12q0 17 29 17h81q38 0 38 -42v-623q0 -92 -49 -92h-16v173h-167q-32 0 -32 27q0 26 32 26h167v435zM675 -87h-329q-90 0 -90 86v55q0 28 -11 39t-34 18q-20 5 -24.5 8.5t-4.5 13.5q0 17 28 17h75q36 0 36 -47v-115 q0 -21 18 -21h335q33 0 33 -27t-32 -27z" />
<glyph unicode="&#xad90;" horiz-adv-x="776" d="M110 722q-32 0 -32 27t30 27h311q41 0 41 -47q0 -45 -10 -107q-12 -60 -30 -101q16 1 31 2q43 2 89 10q26 5 29.5 -8t-10.5 -22q-22 -14 -79 -25t-140 -11h-38v-130q0 -59 -45 -59h-20v189h-183q-29 0 -29 27q0 26 30 26h320q1 4 2 9q11 40 13 89.5t2 103.5h-282z M611 743q0 30 -12.5 41t-33.5 16q-20 6 -28.5 10t-8.5 12q0 17 29 17h82q37 0 37 -41v-423q0 -91 -49 -91h-16v66h-167q-32 0 -32 25q0 26 32 26h167v342zM667 -101h-348q-52 0 -52 64v54q0 21 -9.5 31.5t-24.5 17.5q-8 2 -12 5.5t-4 12.5q0 16 27 16h359v95h-333 q-31 0 -31 26q0 25 29 25h366q34 0 34 -41v-107q0 -48 -41 -48h-295v-68q0 -31 23 -31h311q31 0 31 -25q0 -27 -30 -27z" />
<glyph unicode="&#xad9c;" horiz-adv-x="776" d="M110 715q-32 0 -32 27q0 26 30 26h311q41 0 41 -47q0 -48 -9 -112q-11 -66 -32 -120l32 2q43 2 89 10q26 5 29.5 -7.5t-10.5 -22.5q-22 -14 -79 -24.5t-140 -10.5h-38v-145q0 -59 -45 -59h-20v204h-183q-29 0 -29 26t30 26h320q0 5 2 11q11 48 13 105t2 111h-282z M611 743q0 30 -12.5 41t-33.5 16q-20 6 -28.5 10t-8.5 12q0 17 29 17h82q37 0 37 -41v-475q0 -91 -49 -91h-16v80h-167q-32 0 -32 25q0 26 32 26h167v380zM361 129q-7 -25 -23 -53l120 -87q8 8 15 19q46 56 73 126q4 12 -5.5 20t-28.5 14q-11 3 -15.5 6.5t-4.5 9.5 q0 16 25 16h57q28 0 37 -21.5t1 -47.5q-8 -29 -25 -59l145 -93q20 -12 23.5 -27t-5.5 -28q-10 -12 -25.5 -12.5t-28.5 10.5l-134 110q-12 -15 -25 -32q-58 -67 -126 -109q-11 -6 -19 -6t-12 4q-5 5 -4 11.5t7 12.5q17 15 35 33l-103 95q-14 -18 -30 -35q-61 -67 -120 -102 q-10 -6 -19 -4.5t-12 6.5q-2 5 -1 12t10 14q40 29 85.5 84t66.5 109q4 13 -4 22t-29 15q-14 4 -17.5 6.5t-3.5 10.5q0 15 26 15h60q31 0 36.5 -20.5t-2.5 -44.5z" />
<glyph unicode="&#xad9d;" horiz-adv-x="776" d="M110 715q-32 0 -32 27q0 26 30 26h311q41 0 41 -47q0 -48 -9 -112q-11 -66 -32 -120l32 2q43 2 89 10q26 5 29.5 -7.5t-10.5 -22.5q-22 -14 -79 -24.5t-140 -10.5h-38v-160q0 -60 -45 -60h-20v220h-183q-29 0 -29 26t30 26h320q0 5 2 11q11 48 13 105t2 111h-282z M611 743q0 30 -12.5 41t-33.5 16q-20 6 -28.5 10t-8.5 12q0 17 29 17h82q37 0 37 -41v-480q0 -91 -49 -91h-16v90h-167q-32 0 -32 25q0 26 32 26h167v375zM274 51q0 71 55 119.5t141 48.5q87 0 142.5 -48.5t55.5 -119.5q0 -72 -55.5 -120t-142.5 -48q-86 0 -141 48t-55 120z M340 51q0 -49 35.5 -81.5t94.5 -32.5q60 0 96 32.5t36 81.5q0 48 -36 80.5t-96 32.5q-59 0 -94.5 -32.5t-35.5 -80.5z" />
<glyph unicode="&#xada4;" horiz-adv-x="813" d="M90 679q-32 0 -32 27t30 27h256q41 0 41 -48q0 -85 -7 -162q-8 -74 -30 -136q2 0 4 2q43 2 89 10q27 5 30.5 -8t-10.5 -22q-23 -14 -79 -25q-49 -9 -116 -11v-279q0 -90 -45 -90h-19v369h-148q-29 0 -29 27q0 25 29 25h194q30 0 55 1v3q11 61 13 109t2 181h-228zM620 839 h77q39 0 39 -42v-803q0 -92 -50 -92h-14v842q0 30 -12 41t-36 17q-20 4 -27.5 8t-7.5 12q0 17 31 17zM458 796h78q36 0 36 -44v-696q0 -92 -49 -92h-14v222h-130q-33 0 -33 25q0 27 33 27h130v462q0 31 -11.5 41.5t-34.5 17.5q-20 5 -27 10t-7 12q0 15 29 15z" />
<glyph unicode="&#xadb7;" horiz-adv-x="813" d="M101 680q-31 0 -31 27t29 27h246q41 0 41 -46q0 -50 -11 -109q-11 -58 -29 -99q3 0 6 1q43 2 89 10q27 5 30.5 -8t-10.5 -22q-23 -14 -79 -24q-46 -10 -109 -12v-164q0 -66 -44 -66h-20v230h-155q-29 0 -29 27q0 26 29 26h194q30 0 54 1l2 8q11 41 13 88t2 105h-218z M620 839h77q39 0 39 -41v-530q0 -92 -50 -92h-14v568q0 30 -12 41t-36 17q-20 4 -27.5 8t-7.5 12q0 17 31 17zM458 796h78q36 0 36 -43v-410q0 -91 -49 -91h-14v57h-133q-33 0 -33 25q0 27 33 27h133v339q0 31 -11.5 41.5t-34.5 17.5q-20 5 -27 10t-7 12q0 15 29 15z M531 161q-5 -32 -26 -64l244 -130q15 -10 17 -26t-5 -25q-9 -11 -20.5 -12t-34.5 14l-227 147q-20 -23 -48 -45q-89 -74 -193 -117q-28 -11 -38.5 1t11.5 24q77 40 147.5 103t101.5 120q11 20 -8 27.5t-37 11.5q-17 3 -16 18t23 15h61q35 0 44 -18.5t4 -43.5z" />
<glyph unicode="&#xadc0;" horiz-adv-x="776" d="M99 700q-31 0 -31 26q0 27 29 27h312q41 0 41 -47q0 -85 -8 -185q-8 -97 -30 -160q20 0 39 2q43 2 89 10q26 5 29.5 -7.5t-10.5 -22.5q-22 -14 -79 -24.5t-140 -10.5h-39v-294q0 -91 -45 -91h-19v385h-183q-29 0 -29 26t30 26h311q1 2 1 5q11 61 13 131.5t2 203.5h-283z M611 -98v841q0 30 -12.5 41t-33.5 16q-20 6 -28.5 10t-8.5 12q0 17 29 17h82q37 0 37 -42v-803q0 -92 -49 -92h-16z" />
<glyph unicode="&#xadc1;" horiz-adv-x="776" d="M110 715q-32 0 -32 27q0 26 30 26h311q41 0 41 -47q0 -48 -9 -120q-11 -72 -32 -126l32 2q43 2 89 10q26 5 29.5 -8t-10.5 -22q-22 -14 -79 -25t-140 -11h-38v-134q0 -59 -45 -59h-20v193h-183q-29 0 -29 27q0 25 30 25h320q0 6 2 12q11 48 13 112t2 118h-282zM611 228 v515q0 30 -12.5 41t-33.5 16q-20 6 -28.5 10t-8.5 12q0 17 29 17h82q37 0 37 -41v-479q0 -91 -49 -91h-16zM241 138q-28 0 -28 26t26 26h393q36 0 36 -42v-172q0 -92 -45 -92h-19v254h-363z" />
<glyph unicode="&#xadc4;" horiz-adv-x="776" d="M110 710q-32 0 -32 27q0 26 30 26h311q41 0 41 -47q0 -48 -10 -131t-31 -137l-2 -4l34 2q43 2 89 10q26 5 29.5 -7.5t-10.5 -22.5q-22 -14 -79 -24.5t-140 -10.5h-37v-130q0 -66 -45 -66h-20v196h-184q-29 0 -29 26t30 26h321q-1 7 1 15q11 48 13 105.5t2 146.5h-282z M611 82v661q0 30 -12.5 41t-33.5 16q-20 6 -28.5 10t-8.5 12q0 17 29 17h81q38 0 38 -42v-623q0 -92 -49 -92h-16zM675 -87h-329q-90 0 -90 86v55q0 28 -11 39t-34 18q-20 5 -24.5 8.5t-4.5 13.5q0 17 28 17h75q36 0 36 -47v-115q0 -21 18 -21h335q33 0 33 -27t-32 -27z" />
<glyph unicode="&#xadc8;" horiz-adv-x="776" d="M110 722q-32 0 -32 27t30 27h311q41 0 41 -47q0 -45 -10 -122q-12 -76 -30 -117q16 1 31 2q43 2 89 10q26 5 29.5 -7.5t-10.5 -22.5q-22 -14 -79 -24.5t-140 -10.5h-38v-84q0 -59 -45 -59h-20v143h-183q-29 0 -29 26t30 26h320q1 4 2 9q11 40 13 105t2 119h-282zM611 300 v443q0 30 -12.5 41t-33.5 16q-20 6 -28.5 10t-8.5 12q0 17 29 17h82q37 0 37 -41v-406q0 -92 -49 -92h-16zM667 -101h-348q-52 0 -52 64v61q0 21 -9.5 31.5t-24.5 17.5q-8 2 -12 5.5t-4 13.5q0 15 27 15h359v102h-333q-31 0 -31 26t29 26h366q34 0 34 -41v-114 q0 -49 -41 -49h-295v-75q0 -31 23 -31h311q31 0 31 -25q0 -27 -30 -27z" />
<glyph unicode="&#xadd0;" horiz-adv-x="776" d="M110 715q-32 0 -32 27q0 26 30 26h311q41 0 41 -47q0 -48 -9 -117q-11 -71 -32 -125l32 2q43 2 89 10q26 5 29.5 -8t-10.5 -22q-22 -14 -79 -25t-140 -11h-38v-118q0 -60 -45 -60h-20v178h-183q-29 0 -29 27q0 26 30 26h320q0 5 2 11q11 48 13 110t2 116h-282zM611 247 v496q0 30 -12.5 41t-33.5 16q-20 6 -28.5 10t-8.5 12q0 17 29 17h82q37 0 37 -41v-460q0 -91 -49 -91h-16zM331 -42h273v194h-272v-162q0 -17 -1 -32zM632 204q36 0 36 -44v-130q0 -48 -16 -72h3q32 0 32 -25q0 -27 -32 -27h-336q-12 -28 -36 -28h-16v218q0 34 -6 48.5 t-29 22.5q-10 3 -14 8t-4 13q0 16 20 16h398z" />
<glyph unicode="&#xadd1;" horiz-adv-x="776" d="M110 722q-32 0 -32 27t30 27h311q41 0 41 -47q0 -45 -10 -125q-11 -77 -29 -118l30 2q43 2 89 10q26 5 29.5 -7.5t-10.5 -22.5q-22 -14 -79 -24.5t-140 -10.5h-38v-97q0 -58 -45 -58h-20v155h-183q-29 0 -29 26t30 26h321q0 3 1 7q11 40 13 108t2 122h-282zM611 288v455 q0 30 -12.5 41t-33.5 16q-20 6 -28.5 10t-8.5 12q0 17 29 17h82q37 0 37 -41v-419q0 -91 -49 -91h-16zM650 -94h-332q-12 -27 -35 -27h-16v269q0 24 -5.5 34.5t-17.5 13.5q-12 4 -19.5 7.5t-7.5 11.5q0 17 27 17h53q34 0 34 -40v-64h273v40q0 25 -6.5 33.5t-19.5 13.5 q-15 5 -20.5 8.5t-5.5 10.5q0 16 27 16h52q37 0 37 -40v-168q0 -63 -27 -84h9q31 0 31 -25q0 -27 -31 -27zM330 -42h274v118h-273v-82q0 -19 -1 -36z" />
<glyph unicode="&#xadd3;" horiz-adv-x="776" d="M110 715q-32 0 -32 27q0 26 30 26h311q41 0 41 -47q0 -48 -9 -117q-11 -71 -32 -125l32 2q43 2 89 10q26 5 29.5 -8t-10.5 -22q-22 -14 -79 -25t-140 -11h-38v-170q0 -59 -45 -59h-20v229h-183q-29 0 -29 27q0 26 30 26h320q0 5 2 11q11 48 13 110t2 116h-282zM611 176 v567q0 30 -12.5 41t-33.5 16q-20 6 -28.5 10t-8.5 12q0 17 29 17h82q37 0 37 -41v-530q0 -92 -49 -92h-16zM509 192q-7 -37 -31 -76l232 -149q14 -10 17 -26t-4 -25q-9 -11 -23 -11t-31 13l-214 164q-21 -24 -46 -50q-87 -85 -179 -130q-27 -13 -37.5 -1t12.5 27 q83 53 144.5 122t88.5 132q7 20 -10 27t-36 12q-16 3 -15 17.5t22 14.5h62q35 0 44 -18.5t4 -42.5z" />
<glyph unicode="&#xaddc;" d="M189 715q-31 0 -31 27q0 26 29 26h414q41 0 41 -46q0 -24 -2.5 -64t-6.5 -86q-4 -45 -12.5 -89t-19.5 -71q-4 -11 -12.5 -15.5t-19.5 -1.5q-7 3 -8 9.5t0 19.5q5 33 7.5 73t4.5 78q0 39 0.5 71.5t0.5 68.5h-385zM316 282v-285q0 -95 -46 -95h-15v380h-192q-30 0 -30 27 q0 25 30 25h699q34 0 34 -25q0 -27 -34 -27h-179v-285q0 -95 -46 -95h-16v380h-205z" />
<glyph unicode="&#xade0;" d="M189 717q-31 0 -31 27q0 26 29 26h416q40 0 40 -47q0 -80 -9 -167q-9 -78 -27 -141h156q33 0 33 -25q0 -27 -33 -27h-182v-164q0 -94 -47 -94h-17v258h-128v-164q0 -94 -47 -94h-16v258h-263q-30 0 -30 27q0 25 30 25h496q10 66 13 121t3 181h-386zM629 -87h-337 q-90 0 -90 87v115q0 29 -12.5 39.5t-32.5 17.5q-21 6 -26 10t-5 12q0 17 29 17h74q37 0 37 -47v-176q0 -21 19 -21h343q32 0 32 -27t-31 -27z" />
<glyph unicode="&#xade4;" d="M189 738q-31 0 -31 26q0 27 29 27h416q40 0 40 -47q0 -73 -9 -139q-9 -58 -25 -114h153q34 0 34 -26t-34 -26h-180v-68q0 -57 -19 -79h46q34 0 34 -41v-130q0 -49 -40 -49h-337v-91q0 -30 24 -30h352q32 0 32 -26t-31 -26h-380q-61 0 -61 72v68q0 22 -8.5 32t-24.5 17 q-8 3 -13.5 7t-5.5 12q0 16 27 16h402v118h-374q-32 0 -32 25q0 26 30 26h52v147h-192q-30 0 -30 26t30 26h498q8 61 11 118q3 61 3 129h-386zM519 439h-201v-68q0 -57 -18 -79h219v147z" />
<glyph unicode="&#xadf8;" d="M177 717h425q41 0 41 -48q0 -46 -3 -104.5t-8 -113.5q-5 -56 -14.5 -108t-23.5 -89q-5 -12 -14 -16.5t-19 -0.5q-8 2 -9 9t1 20q8 39 11.5 84.5t5.5 96.5q2 50 3.5 106t1.5 111h-396q-32 0 -32 27q0 26 30 26zM763 59h-700q-30 0 -30 26q0 27 30 27h700q33 0 33 -27 q0 -26 -33 -26z" />
<glyph unicode="&#xadf9;" d="M189 732q-31 0 -31 26q0 27 29 27h416q40 0 40 -47q0 -80 -10 -167.5t-30 -148.5v-1h160q33 0 33 -25q0 -28 -33 -28h-700q-30 0 -30 28q0 25 30 25h496q-1 4 0 11q10 67 13 120.5t3 179.5h-386zM185 160q-27 0 -27 27q0 25 25 25h418q36 0 36 -42v-194q0 -92 -45 -92 h-19v276h-388z" />
<glyph unicode="&#xadfc;" d="M189 717q-31 0 -31 27q0 26 29 26h416q40 0 40 -47q0 -80 -9 -177q-10 -96 -31 -163h159q34 0 34 -25q0 -28 -34 -28h-699q-30 0 -30 28q0 25 30 25h496q-1 4 0 9q10 67 13 133t3 192h-386zM629 -87h-337q-90 0 -90 87v105q0 29 -12.5 39.5t-32.5 17.5q-21 5 -26 9.5 t-5 12.5q0 17 29 17h74q37 0 37 -47v-166q0 -21 19 -21h343q32 0 32 -27t-31 -27z" />
<glyph unicode="&#xadff;" d="M189 732q-31 0 -31 26q0 27 29 27h416q40 0 40 -44q-1 -74 -11 -165t-29 -149h159q34 0 34 -25q0 -28 -34 -28h-699q-30 0 -30 28q0 25 30 25h496q-1 5 0 10q9 51 12 135t4 160h-386zM625 -94h-361q-57 0 -57 66v154q0 34 -4 48t-28 23q-10 3 -15.5 7.5t-5.5 12.5 q0 17 24 17h436q31 0 31 -27q0 -25 -32 -25h-342v-195q0 -29 25 -29h328q31 0 31 -25q0 -27 -30 -27z" />
<glyph unicode="&#xae00;" d="M189 738q-31 0 -31 26q0 27 29 27h416q40 0 40 -47q0 -55 -9 -144q-9 -80 -27 -143h156q33 0 33 -27q0 -26 -33 -26h-700q-30 0 -30 26q0 27 30 27h496q10 64 13 130q3 69 3 151h-386zM205 241q-32 0 -32 25q0 26 30 26h406q34 0 34 -41v-130q0 -49 -40 -49h-337v-91 q0 -30 24 -30h352q32 0 32 -26t-31 -26h-380q-61 0 -61 72v68q0 22 -8.5 32t-24.5 17q-8 3 -13.5 7t-5.5 12q0 16 27 16h402v118h-374z" />
<glyph unicode="&#xae01;" d="M189 738q-31 0 -31 26q0 27 29 27h416q40 0 40 -47q0 -55 -9 -144q-9 -80 -27 -143h156q33 0 33 -27q0 -26 -33 -26h-700q-30 0 -30 26q0 27 30 27h496q10 64 13 130q3 69 3 151h-386zM168 241q-32 0 -32 26q0 25 30 25h209q34 0 34 -40v-134q0 -46 -34 -46h-151v-96 q0 -25 18 -25h165q31 0 31 -25q0 -27 -30 -27h-188q-59 0 -59 70v70q0 22 -4 33t-22 19q-7 4 -10 6.5t-3 10.5q0 14 20 14h203v119h-177zM475 292h164q37 0 37 -41v-260q0 -92 -47 -92h-18v342h-134q-32 0 -32 26q0 25 30 25z" />
<glyph unicode="&#xae08;" d="M189 732q-31 0 -31 26q0 27 29 27h416q40 0 40 -44q-1 -74 -11 -165t-29 -149h159q34 0 34 -25q0 -28 -34 -28h-699q-30 0 -30 28q0 25 30 25h496q-1 5 0 10q9 51 12 135t4 160h-386zM266 -42h311v224h-310v-192q0 -17 -1 -32zM604 234q36 0 36 -44v-150q0 -60 -25 -82h8 q30 0 30 -25q0 -27 -30 -27h-368q-11 -28 -36 -28h-15v247q0 35 -4.5 49t-27.5 23q-11 3 -16 7.5t-5 12.5q0 17 25 17h428z" />
<glyph unicode="&#xae09;" d="M189 738q-31 0 -31 26q0 27 29 27h416q40 0 40 -47q0 -80 -9 -161q-10 -82 -31 -148h159q34 0 34 -26q0 -28 -34 -28h-699q-30 0 -30 28q0 26 30 26h496q-1 4 0 9q10 67 13 117.5t3 176.5h-386zM623 -94h-368q-12 -27 -36 -27h-15v308q0 24 -5.5 34.5t-18.5 13.5 q-11 4 -18.5 7.5t-7.5 11.5q0 17 26 17h53q34 0 34 -41v-83h310v57q0 25 -7 33.5t-20 13.5q-14 4 -20 8t-6 11q0 16 27 16h52q37 0 37 -41v-204q0 -62 -26 -83h9q30 0 30 -25q0 -27 -30 -27zM266 -42h311v137h-310v-104q0 -17 -1 -33z" />
<glyph unicode="&#xae0b;" d="M189 732q-31 0 -31 26q0 27 29 27h416q40 0 40 -47q0 -80 -9 -164q-10 -81 -30 -147h158q34 0 34 -25q0 -28 -34 -28h-699q-30 0 -30 28q0 25 30 25h496v5q10 67 13 126.5t3 173.5h-386zM463 202q-8 -42 -42 -90l268 -148q17 -10 20.5 -26.5t-7.5 -27.5q-9 -10 -22 -10 t-32 13l-250 170q-15 -18 -32 -37q-85 -87 -189 -146q-29 -16 -37.5 -2t15.5 31q79 53 149.5 132.5t87.5 130.5q7 20 -11.5 28t-34.5 11t-15 18t22 15h62q35 0 44 -18.5t4 -43.5z" />
<glyph unicode="&#xae0d;" d="M189 732q-31 0 -31 26q0 27 29 27h416q40 0 40 -47q0 -80 -9 -164q-10 -83 -31 -151h160q33 0 33 -25q0 -28 -33 -28h-700q-30 0 -30 28q0 25 30 25h496q-1 4 0 9q10 67 13 126.5t3 173.5h-386zM209 67q0 77 60.5 130.5t144.5 53.5t144 -53.5t60 -130.5t-60 -130.5 t-144 -53.5t-144.5 53.5t-60.5 130.5zM274 67q0 -53 40.5 -91.5t99.5 -38.5q58 0 98.5 38.5t40.5 91.5t-40.5 91.5t-98.5 38.5q-59 0 -99.5 -38.5t-40.5 -91.5z" />
<glyph unicode="&#xae14;" horiz-adv-x="776" d="M99 648q-31 0 -31 26q0 27 29 27h333q42 0 41 -44q-1 -90 -11 -182.5t-30 -164.5q-3 -12 -12.5 -16.5t-18.5 -1.5q-9 2 -11 10t0 19q12 73 13.5 152.5t1.5 174.5h-304zM611 743q0 30 -12.5 41t-33.5 16q-20 6 -28.5 10t-8.5 12q0 17 29 17h81q38 0 38 -42v-803 q0 -92 -49 -92h-16v841zM340 130h-286q-29 0 -29 27t30 27h291q61 0 104.5 2.5t89.5 10.5q26 5 29.5 -8t-10.5 -23q-22 -14 -79 -25t-140 -11z" />
<glyph unicode="&#xae30;" horiz-adv-x="776" d="M97 633q-31 0 -31 27q0 25 29 25h312q19 0 27.5 -12.5t5.5 -26.5q-22 -125 -127.5 -259t-236.5 -216q-26 -15 -35 0.5t10 30.5q119 90 203 208.5t105 222.5h-262zM611 743q0 30 -12.5 41t-33.5 16q-20 6 -28.5 10t-8.5 12q0 17 29 17h81q38 0 38 -42v-803q0 -92 -49 -92 h-16v841z" />
<glyph unicode="&#xae31;" horiz-adv-x="776" d="M97 680q-31 0 -31 27q0 26 29 26h308q19 0 26.5 -12t4.5 -27q-21 -110 -126.5 -226t-233.5 -183q-25 -11 -32.5 5t11.5 28q123 79 201.5 179.5t102.5 182.5h-260zM611 277v466q0 30 -12.5 41t-33.5 16q-20 6 -28.5 10t-8.5 12q0 17 29 17h81q38 0 38 -41v-430 q0 -91 -49 -91h-16zM229 166q-27 0 -27 27q0 26 25 26h405q36 0 36 -42v-201q0 -92 -45 -92h-19v282h-375z" />
<glyph unicode="&#xae34;" horiz-adv-x="776" d="M97 678q-31 0 -31 27q0 26 29 26h308q19 0 26.5 -12t4.5 -27q-22 -123 -126 -247t-235 -198q-23 -12 -31 4t11 29q117 79 200.5 193.5t102.5 204.5h-259zM611 127v616q0 30 -12.5 41t-33.5 16q-20 6 -28.5 10t-8.5 12q0 17 29 17h81q38 0 38 -42v-577q0 -93 -49 -93h-16z M685 -87h-325q-90 0 -90 87v106q0 29 -10.5 39.5t-34.5 17.5q-19 5 -23.5 9t-4.5 13q0 17 27 17h75q36 0 36 -47v-167q0 -21 18 -21h331q33 0 33 -27t-32 -27z" />
<glyph unicode="&#xae37;" horiz-adv-x="776" d="M97 680q-31 0 -31 27q0 26 29 26h308q19 0 26.5 -12t4.5 -27q-19 -107 -128 -230t-233 -194q-23 -14 -31 2.5t11 29.5q123 88 201.5 190.5t101.5 187.5h-259zM611 291v452q0 30 -12.5 41t-33.5 16q-20 6 -28.5 10t-8.5 12q0 17 29 17h81q38 0 38 -41v-416q0 -91 -49 -91 h-16zM650 -94h-311q-56 0 -56 66v153q0 34 -4.5 48t-27.5 23q-10 3 -16 7.5t-6 12.5q0 17 25 17h386q31 0 31 -27q0 -25 -32 -25h-292v-194q0 -29 25 -29h277q32 0 32 -25q0 -27 -31 -27z" />
<glyph unicode="&#xae38;" horiz-adv-x="776" d="M97 689q-31 0 -31 26t29 26h308q19 0 27 -12t4 -27q-23 -108 -125 -216.5t-235 -175.5q-25 -12 -33 4t11 28q119 71 197 163.5t108 183.5h-260zM611 347v396q0 30 -12.5 41t-33.5 16q-20 6 -28.5 10t-8.5 12q0 17 29 17h81q38 0 38 -41v-360q0 -91 -49 -91h-16zM667 -101 h-337q-52 0 -52 65v73q0 22 -10 32t-24 17q-8 2 -12.5 6t-4.5 13q0 15 27 15h349v116h-322q-32 0 -32 27q0 25 30 25h355q34 0 34 -41v-129q0 -49 -41 -49h-285v-88q0 -30 24 -30h300q31 0 31 -25q0 -27 -30 -27z" />
<glyph unicode="&#xae3a;" horiz-adv-x="776" d="M97 689q-31 0 -31 26t29 26h308q19 0 27 -12t4 -27q-23 -108 -125 -216.5t-235 -175.5q-25 -12 -33 4t11 28q119 71 197 163.5t108 183.5h-260zM611 347v396q0 30 -12.5 41t-33.5 16q-20 6 -28.5 10t-8.5 12q0 17 29 17h81q38 0 38 -41v-360q0 -91 -49 -91h-16zM514 -32 h100v269h-99v-237q0 -17 -1 -32zM175 236q-32 0 -32 27q0 25 30 25h176q34 0 34 -40v-133q0 -46 -34 -46h-118v-93q0 -25 18 -25h130q32 0 32 -25q0 -27 -31 -27h-154q-58 0 -58 70v68q0 22 -4 32.5t-22 17.5q-7 5 -10 7.5t-3 10.5q0 14 21 14h169v117h-144zM640 288 q36 0 36 -45v-191q0 -64 -27 -84h9q31 0 31 -25q0 -27 -31 -27h-155q-11 -28 -36 -28h-13v301q0 36 -3.5 44t-18.5 17q-9 6 -12.5 10t-3.5 12q0 16 20 16h204z" />
<glyph unicode="&#xae40;" horiz-adv-x="776" d="M97 680q-31 0 -31 27q0 26 29 26h308q19 0 26.5 -12t4.5 -27q-19 -107 -128 -230t-233 -194q-23 -14 -31 2.5t11 29.5q123 88 201.5 190.5t101.5 187.5h-259zM611 291v452q0 30 -12.5 41t-33.5 16q-20 6 -28.5 10t-8.5 12q0 17 29 17h81q38 0 38 -41v-416q0 -91 -49 -91 h-16zM340 -42h264v223h-263v-191q0 -17 -1 -32zM632 233q36 0 36 -43v-150q0 -60 -25 -82h7q31 0 31 -25q0 -27 -31 -27h-321q-12 -28 -36 -28h-15v247q0 34 -5 48t-27 23q-12 3 -17 7.5t-5 12.5q0 17 26 17h382z" />
<glyph unicode="&#xae41;" horiz-adv-x="776" d="M97 689q-31 0 -31 26t29 26h308q19 0 27 -12t4 -27q-23 -108 -125 -217.5t-236 -185.5q-24 -13 -31 3.5t11 29.5q118 81 195 170.5t109 186.5h-260zM611 335v408q0 30 -12.5 41t-33.5 16q-20 6 -28.5 10t-8.5 12q0 17 29 17h81q38 0 38 -41v-372q0 -91 -49 -91h-16z M341 149h263v63q0 25 -6.5 33.5t-19.5 13.5q-15 5 -20.5 8.5t-5.5 10.5q0 16 27 16h52q37 0 37 -41v-212q0 -62 -26 -83h8q31 0 31 -25q0 -27 -31 -27h-321q-13 -27 -36 -27h-15v300q0 24 -6 34.5t-18 13.5q-11 4 -19 7.5t-8 11.5q0 17 27 17h53q34 0 34 -41v-73zM604 97 h-263v-106q0 -17 -1 -33h264v139z" />
<glyph unicode="&#xae43;" horiz-adv-x="776" d="M97 680q-31 0 -31 27q0 26 29 26h308q19 0 26.5 -12t4.5 -27q-19 -107 -128 -230t-233 -194q-23 -14 -31 2.5t11 29.5q123 88 201.5 190.5t101.5 187.5h-259zM611 241v502q0 30 -12.5 41t-33.5 16q-20 6 -28.5 10t-8.5 12q0 17 29 17h81q38 0 38 -41v-466q0 -91 -49 -91 h-16zM509 212q-9 -40 -35 -82l236 -163q14 -10 17 -26t-4 -25q-9 -11 -23 -11t-31 13l-217 179q-21 -28 -46 -56q-85 -91 -176 -139q-27 -15 -37.5 -2.5t12.5 28.5q85 58 147 135.5t86 138.5q7 21 -10 28t-36 11q-16 3 -15 18t22 15h62q35 0 44.5 -18.5t3.5 -43.5z" />
<glyph unicode="&#xae45;" horiz-adv-x="776" d="M97 680q-31 0 -31 27q0 26 29 26h308q19 0 26.5 -12t4.5 -27q-19 -107 -128 -230t-233 -194q-23 -14 -31 2.5t11 29.5q123 88 201.5 190.5t101.5 187.5h-259zM611 276v467q0 30 -12.5 41t-33.5 16q-20 6 -28.5 10t-8.5 12q0 17 29 17h81q38 0 38 -41v-431q0 -91 -49 -91 h-16zM280 71q0 80 56.5 134t138.5 54t139 -54t57 -134t-57 -134t-139 -54t-138.5 54t-56.5 134zM345 71q0 -60 38.5 -97t91.5 -37t91.5 37t38.5 97t-38.5 97t-91.5 37t-91.5 -37t-38.5 -97z" />
<glyph unicode="&#xae46;" horiz-adv-x="776" d="M97 680q-31 0 -31 27q0 26 29 26h308q19 0 26.5 -12t4.5 -27q-19 -107 -128 -230t-233 -194q-23 -14 -31 2.5t11 29.5q123 88 201.5 190.5t101.5 187.5h-259zM611 291v452q0 30 -12.5 41t-33.5 16q-20 6 -28.5 10t-8.5 12q0 17 29 17h81q38 0 38 -41v-416q0 -91 -49 -91 h-16zM269 181q-31 0 -31 26t29 26h320q28 0 37 -15.5t-1 -38.5q-27 -61 -103 -122l189 -98q17 -9 21 -22.5t-3 -27.5q-7 -11 -22 -13t-28 8l-191 127l-14 -10q-116 -81 -246 -124q-21 -8 -28.5 7.5t12.5 23.5q87 37 181 103t158 150h-280z" />
<glyph unicode="&#xae4a;" horiz-adv-x="776" d="M97 680q-31 0 -31 27q0 26 29 26h308q19 0 26.5 -12t4.5 -27q-19 -107 -128 -230t-233 -194q-23 -14 -31 2.5t11 29.5q123 88 201.5 190.5t101.5 187.5h-259zM611 291v452q0 30 -12.5 41t-33.5 16q-20 6 -28.5 10t-8.5 12q0 17 29 17h81q38 0 38 -41v-416q0 -91 -49 -91 h-16zM673 182h-69v-225h69q32 0 32 -25q0 -26 -32 -26h-452q-30 0 -30 26q0 25 30 25h84v225h-84q-30 0 -30 25q0 26 30 26h452q32 0 32 -26q0 -25 -32 -25zM541 182h-172v-225h172v225z" />
<glyph unicode="&#xae4c;" horiz-adv-x="841" d="M77 638q-32 0 -32 27q0 26 30 26h366q22 0 30 -12.5t6 -25.5q-19 -156 -72 -272.5t-142 -209.5q-19 -19 -32.5 -8t-0.5 29q73 96 116 209.5t53 236.5h-119q-24 -126 -79 -232.5t-129 -173.5q-23 -21 -34.5 -8.5t7.5 34.5q55 63 104.5 167.5t60.5 212.5h-133zM602 743 q0 30 -12.5 41t-33.5 16q-20 6 -28.5 10t-8.5 12q0 17 29 17h82q37 0 37 -42v-309h119q33 0 33 -27q0 -26 -33 -26h-119v-440q0 -92 -50 -92h-15v840z" />
<glyph unicode="&#xae4d;" horiz-adv-x="841" d="M77 685q-32 0 -32 27q0 26 30 26h366q22 0 30 -12.5t6 -27.5q-16 -120 -73.5 -220.5t-139.5 -170.5q-21 -19 -35 -8t1 27q63 69 109.5 161t59.5 198h-119q-22 -100 -78.5 -186t-123.5 -134q-24 -17 -34 -5t10 32q52 50 97 126.5t60 166.5h-134zM602 743q0 30 -12.5 41 t-33.5 16q-20 6 -28.5 10t-8.5 12q0 17 29 17h82q37 0 37 -42v-222h119q33 0 33 -27q0 -26 -33 -26h-119v-150q0 -92 -50 -92h-15v463zM221 166q-27 0 -27 27q0 26 25 26h405q35 0 35 -42v-201q0 -92 -45 -92h-18v282h-375z" />
<glyph unicode="&#xae4e;" horiz-adv-x="841" d="M77 685q-32 0 -32 27q0 26 30 26h366q22 0 30 -12.5t6 -27.5q-16 -120 -73.5 -220.5t-139.5 -170.5q-21 -19 -35 -8t1 27q63 69 109.5 161t59.5 198h-119q-22 -100 -78.5 -186t-123.5 -134q-24 -17 -34 -5t10 32q52 50 97 126.5t60 166.5h-134zM602 743q0 30 -12.5 41 t-33.5 16q-20 6 -28.5 10t-8.5 12q0 17 29 17h82q37 0 37 -42v-222h119q33 0 33 -27q0 -26 -33 -26h-119v-150q0 -92 -50 -92h-15v463zM464 166q-28 0 -28 27q0 26 26 26h169q36 0 36 -42v-201q0 -92 -45 -92h-18v282h-140zM156 166q-28 0 -28 27q0 26 26 26h210 q35 0 35 -42v-201q0 -92 -45 -92h-17v282h-181z" />
<glyph unicode="&#xae50;" horiz-adv-x="841" d="M77 685q-32 0 -32 27q0 26 30 26h366q22 0 30 -12.5t6 -25.5q-16 -128 -73 -232t-140 -177q-21 -19 -35 -8t1 28q63 69 111 168t58 206h-119q-20 -108 -79.5 -197.5t-122.5 -137.5q-24 -18 -34 -5.5t10 31.5q52 50 98.5 131.5t58.5 177.5h-134zM548 839h82q37 0 37 -42 v-243h119q33 0 33 -26q0 -27 -33 -27h-119v-281q0 -93 -50 -93h-15v616q0 30 -12.5 41t-33.5 16q-20 6 -28.5 10t-8.5 12q0 17 29 17zM677 -87h-325q-90 0 -90 87v106q0 29 -10.5 39.5t-34.5 17.5q-19 5 -24 9t-5 13q0 17 28 17h75q36 0 36 -47v-167q0 -21 18 -21h331 q33 0 33 -27t-32 -27z" />
<glyph unicode="&#xae54;" horiz-adv-x="841" d="M77 696q-32 0 -32 26t30 26h366q22 0 30 -12.5t6 -25.5q-15 -109 -73 -200t-140 -153q-22 -18 -35.5 -7t0.5 25q68 67 114 148.5t57 172.5h-118q-23 -86 -76.5 -159t-127.5 -122q-25 -15 -32.5 -3t13.5 30q49 40 93 109t59 145h-134zM602 743q0 30 -12.5 41t-33.5 16 q-20 6 -28.5 10t-8.5 12q0 17 29 17h82q37 0 37 -42v-191h119q33 0 33 -27t-33 -27h-119v-113q0 -92 -50 -92h-15v396zM659 -101h-336q-53 0 -53 65v73q0 22 -9.5 32t-23.5 17q-9 2 -13 6t-4 13q0 15 27 15h349v116h-323q-31 0 -31 27q0 25 29 25h356q33 0 33 -41v-129 q0 -49 -40 -49h-285v-88q0 -30 23 -30h300q32 0 32 -25q0 -27 -31 -27z" />
<glyph unicode="&#xae56;" horiz-adv-x="841" d="M77 696q-32 0 -32 26t30 26h366q22 0 30 -12.5t6 -25.5q-15 -109 -73 -200t-140 -153q-22 -18 -35.5 -7t0.5 25q68 67 114 148.5t57 172.5h-118q-23 -86 -76.5 -159t-127.5 -122q-25 -15 -32.5 -3t13.5 30q49 40 93 109t59 145h-134zM602 743q0 30 -12.5 41t-33.5 16 q-20 6 -28.5 10t-8.5 12q0 17 29 17h82q37 0 37 -42v-191h119q33 0 33 -27t-33 -27h-119v-113q0 -92 -50 -92h-15v396zM507 -32h100v269h-99v-237q0 -17 -1 -32zM168 236q-32 0 -32 27q0 25 30 25h176q34 0 34 -40v-133q0 -46 -34 -46h-118v-93q0 -25 18 -25h130 q31 0 31 -25q0 -27 -30 -27h-154q-58 0 -58 70v68q0 22 -4 32.5t-22 17.5q-8 5 -10.5 7t-2.5 10q0 15 20 15h170v117h-144zM633 288q36 0 36 -45v-191q0 -64 -27 -84h9q31 0 31 -25q0 -27 -31 -27h-155q-12 -28 -36 -28h-14v301q0 36 -3 44t-18 17q-9 6 -12.5 10t-3.5 12 q0 16 20 16h204z" />
<glyph unicode="&#xae5c;" horiz-adv-x="841" d="M77 685q-32 0 -32 27q0 26 30 26h366q22 0 30 -12.5t6 -25.5q-16 -120 -73.5 -218.5t-139.5 -164.5q-22 -19 -35.5 -8t1.5 26q67 73 113 161.5t56 188.5h-119q-23 -99 -80 -180.5t-122 -129.5q-24 -17 -34.5 -5t10.5 32q56 51 99 123.5t58 159.5h-134zM602 743 q0 30 -12.5 41t-33.5 16q-20 6 -28.5 10t-8.5 12q0 17 29 17h82q37 0 37 -42v-225h119q33 0 33 -27q0 -26 -33 -26h-119v-136q0 -92 -50 -92h-15v452zM333 -42h264v223h-263v-191q0 -17 -1 -32zM625 233q35 0 35 -43v-150q0 -60 -24 -82h7q31 0 31 -25q0 -27 -31 -27h-321 q-12 -28 -36 -28h-16v247q0 34 -4.5 48t-26.5 23q-12 3 -17 7.5t-5 12.5q0 17 26 17h382z" />
<glyph unicode="&#xae5d;" horiz-adv-x="841" d="M77 696q-32 0 -32 26t30 26h366q22 0 30 -12.5t6 -25.5q-15 -113 -73.5 -210t-139.5 -159q-23 -17 -36 -7t1 26q68 68 114 154.5t57 181.5h-120q-21 -88 -74.5 -166t-127.5 -130q-24 -17 -34.5 -5t13.5 33q48 41 93.5 112.5t60.5 155.5h-134zM602 743q0 30 -12.5 41 t-33.5 16q-20 6 -28.5 10t-8.5 12q0 17 29 17h82q37 0 37 -42v-191h119q33 0 33 -27t-33 -27h-119v-125q0 -92 -50 -92h-15v408zM334 149h263v63q0 25 -6.5 33.5t-20.5 13.5t-19.5 8.5t-5.5 10.5q0 16 26 16h53q36 0 36 -41v-212q0 -62 -25 -83h8q31 0 31 -25q0 -27 -31 -27 h-321q-13 -27 -36 -27h-16v300q0 24 -5.5 34.5t-17.5 13.5q-11 4 -19 7.5t-8 11.5q0 17 27 17h53q34 0 34 -41v-73zM597 97h-263v-106q0 -17 -1 -33h264v139z" />
<glyph unicode="&#xae5f;" horiz-adv-x="841" d="M77 685q-32 0 -32 27q0 26 30 26h366q22 0 30 -12.5t6 -25.5q-16 -120 -73.5 -218.5t-139.5 -164.5q-22 -19 -35.5 -8t1.5 26q67 73 113 161.5t56 188.5h-119q-23 -99 -80 -180.5t-122 -129.5q-24 -17 -34.5 -5t10.5 32q56 51 99 123.5t58 159.5h-134zM602 743 q0 30 -12.5 41t-33.5 16q-20 6 -28.5 10t-8.5 12q0 17 29 17h82q37 0 37 -42v-225h119q33 0 33 -27q0 -26 -33 -26h-119v-186q0 -92 -50 -92h-15v502zM502 212q-9 -40 -35 -82l235 -163q15 -10 18 -26t-4 -25q-9 -11 -23 -11t-31 13l-218 179q-20 -28 -46 -56 q-85 -91 -175 -139q-27 -15 -37.5 -2.5t12.5 28.5q85 58 147 135.5t86 138.5q7 21 -10.5 28t-35.5 11q-16 3 -15 18t22 15h62q34 0 44 -18.5t4 -43.5z" />
<glyph unicode="&#xae60;" horiz-adv-x="841" d="M77 685q-32 0 -32 27q0 26 30 26h366q22 0 30 -12.5t6 -25.5q-16 -120 -73.5 -218.5t-139.5 -164.5q-22 -19 -35.5 -8t1.5 26q67 73 113 161.5t56 188.5h-119q-23 -99 -80 -180.5t-122 -129.5q-24 -17 -34.5 -5t10.5 32q56 51 99 123.5t58 159.5h-134zM602 743 q0 30 -12.5 41t-33.5 16q-20 6 -28.5 10t-8.5 12q0 17 29 17h82q37 0 37 -42v-225h119q33 0 33 -27q0 -26 -33 -26h-119v-136q0 -92 -50 -92h-15v452zM375 195q-7 -47 -32 -96l119 -105q16 22 32 46q50 80 64 153q2 11 -5.5 19.5t-28.5 14.5q-11 3 -15.5 6t-4.5 9 q0 16 25 16h61q27 0 35 -13.5t5 -38.5q-7 -53 -34 -107l143 -126q18 -16 21 -30t-6 -23q-9 -10 -23 -10t-30 17l-127 134q-11 -19 -24 -37q-69 -92 -135 -133q-24 -16 -34 -4t6 26q21 18 40 39l-105 111q-10 -13 -20 -28q-62 -81 -144 -130q-25 -15 -35.5 -3.5t7.5 26.5 q68 51 115 122.5t58 128.5q2 11 -5 20t-28 15q-14 5 -17.5 7.5t-3.5 9.5q0 15 26 15h62q27 0 34 -14.5t4 -36.5z" />
<glyph unicode="&#xae61;" horiz-adv-x="841" d="M77 685q-32 0 -32 27q0 26 30 26h366q22 0 30 -12.5t6 -25.5q-16 -120 -73.5 -218.5t-139.5 -164.5q-22 -19 -35.5 -8t1.5 26q67 73 113 161.5t56 188.5h-119q-23 -99 -80 -180.5t-122 -129.5q-24 -17 -34.5 -5t10.5 32q56 51 99 123.5t58 159.5h-134zM602 743 q0 30 -12.5 41t-33.5 16q-20 6 -28.5 10t-8.5 12q0 17 29 17h82q37 0 37 -42v-225h119q33 0 33 -27q0 -26 -33 -26h-119v-151q0 -92 -50 -92h-15v467zM272 71q0 80 57 134t139 54t139 -54t57 -134t-57 -134t-139 -54t-139 54t-57 134zM338 71q0 -60 38.5 -97t91.5 -37 t91.5 37t38.5 97t-38.5 97t-91.5 37t-91.5 -37t-38.5 -97z" />
<glyph unicode="&#xae65;" horiz-adv-x="841" d="M77 696q-32 0 -32 26t30 26h366q22 0 30 -12.5t6 -25.5q-15 -109 -73 -200t-140 -153q-22 -18 -35.5 -7t0.5 25q68 67 114 148.5t57 172.5h-118q-23 -86 -76.5 -159t-127.5 -122q-25 -15 -32.5 -3t13.5 30q49 40 93 109t59 145h-134zM602 743q0 30 -12.5 41t-33.5 16 q-20 6 -28.5 10t-8.5 12q0 17 29 17h82q37 0 37 -42v-191h119q33 0 33 -27t-33 -27h-119v-113q0 -92 -50 -92h-15v396zM630 120q30 0 30 -25q0 -26 -30 -26h-295v-89q0 -29 24 -29h287q32 0 32 -25q0 -27 -31 -27h-319q-58 0 -58 66v216q0 33 -4 47t-27 23q-11 3 -16.5 8 t-5.5 13q0 16 25 16h397q31 0 31 -26t-32 -26h-303v-116h295z" />
<glyph unicode="&#xae68;" d="M75 691h319q20 0 28 -12.5t6 -25.5q-17 -144 -71 -272t-117 -204q-18 -21 -32.5 -11t-2.5 28q55 85 95.5 200t52.5 244h-103q-26 -136 -77 -238.5t-107 -170.5q-18 -21 -29 -10t6 36q43 66 84.5 168.5t54.5 214.5h-105q-32 0 -32 27q0 26 30 26zM455 796h77q37 0 37 -43 v-260h113v250q0 31 -12 42t-36 17q-20 4 -27.5 8t-7.5 12q0 17 31 17h80q36 0 36 -42v-803q0 -92 -49 -92h-15v540h-113v-386q0 -92 -48 -92h-15v737q0 30 -11.5 40.5t-34.5 17.5q-20 5 -27 10t-7 12q0 15 29 15z" />
<glyph unicode="&#xae69;" d="M75 726h324q20 0 28 -12t6 -25q-17 -135 -68.5 -232.5t-119.5 -161.5q-21 -20 -35 -10t0 27q57 68 99 162t49 200h-108q-20 -110 -69.5 -195.5t-103.5 -130.5q-23 -19 -33 -8.5t9 33.5q51 60 85 135.5t43 165.5h-104q-32 0 -32 27q0 25 30 25zM630 839h79q37 0 37 -42 v-428q0 -92 -50 -92h-14v247h-102v-145q0 -92 -50 -92h-14v414q0 30 -11 40.5t-35 17.5q-19 5 -26.5 10t-7.5 12q0 15 29 15h78q37 0 37 -43v-178h102v168q0 31 -12 42t-36 17q-20 4 -27.5 8t-7.5 12q0 17 31 17zM264 166q-27 0 -27 27q0 26 25 26h435q36 0 36 -42v-201 q0 -92 -45 -92h-18v282h-406z" />
<glyph unicode="&#xae6c;" d="M75 719h324q20 0 28 -12t6 -26q-17 -134 -68.5 -237t-119.5 -166q-21 -21 -35 -10.5t0 26.5q57 69 99 168t49 205h-108q-20 -113 -70 -203.5t-103 -133.5q-23 -18 -33 -8.5t9 34.5q53 65 86 142t42 169h-104q-32 0 -32 27q0 25 30 25zM516 701q0 30 -11 40.5t-35 17.5 q-19 5 -26.5 10t-7.5 12q0 15 29 15h78q37 0 37 -43v-209h102v199q0 31 -12 42t-36 17q-20 4 -27.5 8t-7.5 12q0 17 31 17h79q37 0 37 -43v-577q0 -94 -50 -94h-14v368h-102v-254q0 -92 -50 -92h-14v554zM734 -87h-355q-90 0 -90 87v106q0 29 -11 39.5t-34 17.5 q-20 5 -24.5 9t-4.5 13q0 17 28 17h74q36 0 36 -47v-167q0 -21 19 -21h361q33 0 33 -27t-32 -27z" />
<glyph unicode="&#xae70;" d="M75 731h324q20 0 28 -12.5t6 -25.5q-17 -122 -68.5 -215t-118.5 -152q-23 -19 -37 -9.5t1 25.5q57 65 99 155.5t49 180.5h-108q-21 -94 -68 -174.5t-105 -125.5q-24 -17 -33.5 -7t9.5 32q47 51 82 121.5t47 153.5h-105q-32 0 -32 27q0 26 30 26zM465 796h78q37 0 37 -43 v-153h102v143q0 31 -12 42t-36 17q-20 4 -27.5 8t-7.5 12q0 17 31 17h79q37 0 37 -42v-375q0 -92 -50 -92h-14v219h-102v-116q0 -93 -50 -93h-14v361q0 30 -11 40.5t-35 17.5q-19 5 -26.5 10t-7.5 12q0 15 29 15zM733 -101h-357q-52 0 -52 65v70q0 22 -10 32t-24 17 q-8 2 -12.5 6t-4.5 13q0 15 27 15h370v113h-343q-32 0 -32 26t30 26h375q34 0 34 -41v-126q0 -49 -41 -49h-305v-84q0 -31 24 -31h320q32 0 32 -25q0 -27 -31 -27z" />
<glyph unicode="&#xae78;" d="M75 726h324q20 0 28 -12t6 -25q-17 -132 -68.5 -226.5t-118.5 -156.5q-22 -20 -36 -10t0 26q57 65 99 156t49 196h-108q-21 -103 -69 -187.5t-104 -128.5q-23 -18 -33.5 -7.5t9.5 32.5q56 62 86.5 132.5t42.5 158.5h-105q-32 0 -32 27q0 25 30 25zM516 701q0 30 -11 40.5 t-35 17.5q-19 5 -26.5 10t-7.5 12q0 15 29 15h78q37 0 37 -43v-173h102v163q0 31 -12 42t-36 17q-20 4 -27.5 8t-7.5 12q0 17 31 17h79q37 0 37 -42v-414q0 -92 -50 -92h-14v238h-102v-135q0 -93 -50 -93h-14v400zM376 -42h295v223h-294v-191q0 -17 -1 -32zM698 233 q36 0 36 -43v-150q0 -60 -24 -82h7q31 0 31 -25q0 -27 -31 -27h-352q-12 -28 -36 -28h-16v247q0 34 -4.5 48t-26.5 23q-12 3 -17 7.5t-5 12.5q0 17 26 17h412z" />
<glyph unicode="&#xae79;" d="M75 731h324q20 0 28 -12.5t6 -25.5q-17 -130 -68.5 -221t-118.5 -150q-23 -20 -37 -10t1 26q57 65 99 150t49 190h-108q-21 -102 -69 -181t-104 -123q-23 -17 -33.5 -7t9.5 32q52 56 85 124t44 155h-105q-32 0 -32 27q0 26 30 26zM516 701q0 30 -11 40.5t-35 17.5 q-19 5 -26.5 10t-7.5 12q0 15 29 15h78q37 0 37 -43v-163h102v153q0 31 -12 42t-36 17q-20 4 -27.5 8t-7.5 12q0 17 31 17h79q37 0 37 -42v-374q0 -92 -50 -92h-14v208h-102v-105q0 -93 -50 -93h-14v360zM382 147h289v61q0 25 -7 33.5t-20 13.5q-14 4 -20 8t-6 11 q0 16 27 16h52q37 0 37 -41v-208q0 -62 -25 -83h8q31 0 31 -25q0 -27 -31 -27h-347q-13 -27 -36 -27h-16v295q0 25 -5.5 35.5t-17.5 13.5q-11 4 -19 7.5t-8 11.5q0 16 27 16h53q34 0 34 -41v-70zM671 95h-289v-104q0 -17 -1 -33h290v137z" />
<glyph unicode="&#xae7b;" d="M75 726h324q20 0 28 -12t6 -25q-17 -132 -68.5 -226.5t-118.5 -156.5q-22 -20 -36 -10t0 26q57 65 99 156t49 196h-108q-21 -103 -69 -187.5t-104 -128.5q-23 -18 -33.5 -7.5t9.5 32.5q56 62 86.5 132.5t42.5 158.5h-105q-32 0 -32 27q0 25 30 25zM465 796h78 q37 0 37 -43v-173h102v163q0 31 -12 42t-36 17q-20 4 -27.5 8t-7.5 12q0 17 31 17h80q36 0 36 -42v-455q0 -92 -49 -92h-15v279h-102v-117q0 -92 -49 -92h-15v381q0 30 -11 40.5t-35 17.5q-19 5 -26.5 10t-7.5 12q0 15 29 15zM540 212q-10 -38 -37 -81l253 -164 q15 -11 17.5 -26.5t-4.5 -24.5q-9 -11 -22.5 -11.5t-31.5 13.5l-235 181q-20 -27 -47 -55q-89 -92 -187 -142q-29 -14 -39 -2t13 28q85 56 152.5 133.5t95.5 140.5q10 21 -8.5 28t-36.5 11q-16 3 -15 18t22 15h62q34 0 44 -18.5t4 -43.5z" />
<glyph unicode="&#xae7c;" d="M75 726h324q20 0 28 -12t6 -25q-17 -132 -68.5 -226.5t-118.5 -156.5q-22 -20 -36 -10t0 26q57 65 99 156t49 196h-108q-21 -103 -69 -187.5t-104 -128.5q-23 -18 -33.5 -7.5t9.5 32.5q56 62 86.5 132.5t42.5 158.5h-105q-32 0 -32 27q0 25 30 25zM516 701q0 30 -11 40.5 t-35 17.5q-19 5 -26.5 10t-7.5 12q0 15 29 15h78q37 0 37 -43v-173h102v163q0 31 -12 42t-36 17q-20 4 -27.5 8t-7.5 12q0 17 31 17h79q37 0 37 -42v-414q0 -92 -50 -92h-14v238h-102v-135q0 -93 -50 -93h-14v400zM397 195q-6 -43 -27 -87l130 -114q16 22 31 46 q51 80 65 153q2 11 -5.5 19.5t-28.5 14.5q-11 3 -15.5 6t-4.5 9q0 16 25 16h61q27 0 35 -13.5t5 -38.5q-8 -52 -33 -104l147 -129q18 -16 21 -30t-6 -23q-9 -10 -23 -10t-30 17l-130 137q-12 -21 -26 -40q-69 -92 -135 -133q-24 -16 -34 -4t6 26q20 18 40 39l-115 121 q-12 -19 -25 -38q-63 -81 -145 -130q-24 -15 -35 -3.5t8 26.5q67 51 114 122.5t59 128.5q2 11 -5.5 20t-27.5 15q-14 5 -18 7.5t-4 9.5q0 15 27 15h61q27 0 34 -14.5t4 -36.5z" />
<glyph unicode="&#xae7d;" d="M75 726h324q20 0 28 -12t6 -25q-17 -132 -68.5 -226.5t-118.5 -156.5q-22 -20 -36 -10t0 26q57 65 99 156t49 196h-108q-21 -103 -69 -187.5t-104 -128.5q-23 -18 -33.5 -7.5t9.5 32.5q56 62 86.5 132.5t42.5 158.5h-105q-32 0 -32 27q0 25 30 25zM516 701q0 30 -11 40.5 t-35 17.5q-19 5 -26.5 10t-7.5 12q0 15 29 15h78q37 0 37 -43v-173h102v163q0 31 -12 42t-36 17q-20 4 -27.5 8t-7.5 12q0 17 31 17h79q37 0 37 -42v-430q0 -92 -50 -92h-14v254h-102v-123q0 -92 -50 -92h-14v387zM326 71q0 80 56.5 134t138.5 54t139 -54t57 -134t-57 -134 t-139 -54t-138.5 54t-56.5 134zM391 71q0 -60 38.5 -97t91.5 -37t91.5 37t38.5 97t-38.5 97t-91.5 37t-91.5 -37t-38.5 -97z" />
<glyph unicode="&#xae84;" horiz-adv-x="841" d="M77 638q-32 0 -32 27q0 26 30 26h366q22 0 30 -12.5t6 -25.5q-19 -156 -72 -272.5t-142 -209.5q-19 -19 -32.5 -8t-0.5 29q73 96 116 209.5t53 236.5h-119q-24 -126 -79 -232.5t-129 -173.5q-23 -21 -34.5 -8.5t7.5 34.5q55 63 104.5 167.5t60.5 212.5h-133zM667 -6 q0 -91 -50 -91h-15v840q0 30 -12.5 41t-33.5 16q-20 6 -28.5 10t-8.5 12q0 17 29 17h82q37 0 37 -42v-189h120q32 0 32 -26q0 -27 -32 -27h-120v-203h120q32 0 32 -26q0 -27 -32 -27h-120v-305z" />
<glyph unicode="&#xae85;" horiz-adv-x="841" d="M77 685q-32 0 -32 27q0 26 30 26h366q22 0 30 -12.5t6 -27.5q-16 -120 -73.5 -220.5t-139.5 -170.5q-21 -19 -35 -8t1 27q63 69 109.5 161t59.5 198h-119q-22 -100 -78.5 -186t-123.5 -134q-24 -17 -34 -5t10 32q52 50 97 126.5t60 166.5h-134zM667 370q0 -90 -50 -90 h-15v463q0 30 -12.5 41t-33.5 16q-20 6 -28.5 10t-8.5 12q0 17 29 17h82q37 0 37 -41v-120h120q32 0 32 -25q0 -27 -32 -27h-120v-162h120q32 0 32 -25q0 -27 -32 -27h-120v-42zM221 166q-27 0 -27 27q0 26 25 26h405q35 0 35 -42v-201q0 -92 -45 -92h-18v282h-375z" />
<glyph unicode="&#xae8c;" horiz-adv-x="841" d="M77 696q-32 0 -32 26t30 26h366q22 0 30 -12.5t6 -25.5q-15 -109 -73 -200t-140 -153q-22 -18 -35.5 -7t0.5 25q68 67 114 148.5t57 172.5h-118q-23 -86 -76.5 -159t-127.5 -122q-25 -15 -32.5 -3t13.5 30q49 40 93 109t59 145h-134zM667 437q0 -90 -50 -90h-15v396 q0 30 -12.5 41t-33.5 16q-20 6 -28.5 10t-8.5 12q0 17 29 17h82q37 0 37 -41v-104h120q32 0 32 -26q0 -27 -32 -27h-120v-131h120q32 0 32 -25q0 -27 -32 -27h-120v-21zM659 -101h-336q-53 0 -53 65v73q0 22 -9.5 32t-23.5 17q-9 2 -13 6t-4 13q0 15 27 15h349v116h-323 q-31 0 -31 27q0 25 29 25h356q33 0 33 -41v-129q0 -49 -40 -49h-285v-88q0 -30 23 -30h300q32 0 32 -25q0 -27 -31 -27z" />
<glyph unicode="&#xaebc;" horiz-adv-x="785" d="M77 638q-32 0 -32 27q0 26 30 26h370q22 0 30 -12.5t6 -25.5q-11 -86 -31 -161q5 1 11 1h160v249q0 31 -13 42t-34 16q-20 6 -28 10t-8 12q0 17 28 17h82q37 0 37 -42v-803q0 -92 -49 -92h-15v539h-160q-18 0 -25 7q-12 -35 -26 -68q-54 -116 -143 -209q-19 -19 -32.5 -8 t-0.5 29q73 96 116 209.5t53 236.5h-123q-24 -126 -79 -232.5t-129 -173.5q-23 -21 -34.5 -8.5t7.5 34.5q55 63 104.5 167.5t60.5 212.5h-133z" />
<glyph unicode="&#xaebd;" horiz-adv-x="785" d="M77 685q-32 0 -32 27q0 26 30 26h370q22 0 30 -12.5t6 -27.5q-16 -120 -73.5 -220.5t-139.5 -170.5q-21 -19 -35 -8t1 27q63 69 109.5 161t59.5 198h-123q-22 -100 -78.5 -186t-123.5 -134q-24 -17 -34 -5t10 32q52 50 97 126.5t60 166.5h-134zM621 742q0 31 -13 42 t-34 16q-20 6 -28 10t-8 12q0 17 28 17h81q38 0 38 -41v-430q0 -91 -49 -91h-15v225h-142q-33 0 -33 27q0 25 33 25h142v188zM240 166q-28 0 -28 27q0 26 26 26h404q36 0 36 -42v-201q0 -92 -45 -92h-19v282h-374z" />
<glyph unicode="&#xaebe;" horiz-adv-x="785" d="M77 685q-32 0 -32 27q0 26 30 26h370q22 0 30 -12.5t6 -27.5q-16 -120 -73.5 -220.5t-139.5 -170.5q-21 -19 -35 -8t1 27q63 69 109.5 161t59.5 198h-123q-22 -100 -78.5 -186t-123.5 -134q-24 -17 -34 -5t10 32q52 50 97 126.5t60 166.5h-134zM621 742q0 31 -13 42 t-34 16q-20 6 -28 10t-8 12q0 17 28 17h81q38 0 38 -41v-430q0 -91 -49 -91h-15v225h-142q-33 0 -33 27q0 25 33 25h142v188zM481 166q-27 0 -27 27q0 26 25 26h169q36 0 36 -42v-201q0 -92 -45 -92h-17v282h-141zM173 166q-28 0 -28 27q0 26 26 26h210q36 0 36 -42v-201 q0 -92 -45 -92h-18v282h-181z" />
<glyph unicode="&#xaec0;" horiz-adv-x="785" d="M77 685q-32 0 -32 27q0 26 30 26h370q22 0 30 -12.5t6 -25.5q-16 -128 -73 -232t-140 -177q-21 -19 -35 -8t1 28q63 69 111 168t58 206h-123q-20 -108 -79.5 -197.5t-122.5 -137.5q-24 -18 -34 -5.5t10 31.5q52 50 98.5 131.5t58.5 177.5h-134zM621 742q0 31 -13 42 t-34 16q-20 6 -28 10t-8 12q0 17 28 17h81q38 0 38 -42v-577q0 -93 -49 -93h-15v375h-137q-32 0 -32 26t32 26h137v188zM695 -87h-324q-90 0 -90 87v106q0 29 -11 39.5t-34 17.5q-20 5 -24.5 9t-4.5 13q0 17 27 17h75q36 0 36 -47v-167q0 -21 19 -21h330q33 0 33 -27 t-32 -27z" />
<glyph unicode="&#xaec4;" horiz-adv-x="785" d="M77 696q-32 0 -32 26t30 26h370q22 0 30 -12.5t6 -25.5q-15 -109 -73 -200t-140 -153q-22 -18 -35.5 -7t0.5 25q68 67 114 148.5t57 172.5h-122q-23 -86 -76.5 -159t-127.5 -122q-25 -15 -32.5 -3t13.5 30q49 40 93 109t59 145h-134zM621 742q0 31 -13 42t-34 16 q-20 6 -28 10t-8 12q0 17 28 17h81q38 0 38 -41v-360q0 -91 -49 -91h-15v188h-139q-31 0 -31 26t31 26h139v155zM677 -101h-337q-52 0 -52 65v73q0 22 -10 32t-24 17q-8 2 -12 6t-4 13q0 15 26 15h349v116h-322q-32 0 -32 27q0 25 30 25h355q34 0 34 -41v-129q0 -49 -41 -49 h-285v-88q0 -30 24 -30h300q32 0 32 -25q0 -27 -31 -27z" />
<glyph unicode="&#xaecc;" horiz-adv-x="785" d="M77 685q-32 0 -32 27q0 26 30 26h370q22 0 30 -12.5t6 -25.5q-16 -120 -73.5 -218.5t-139.5 -164.5q-22 -19 -35.5 -8t1.5 26q67 73 113 161.5t56 188.5h-123q-23 -99 -80 -180.5t-122 -129.5q-24 -17 -34.5 -5t10.5 32q56 51 99 123.5t58 159.5h-134zM621 742 q0 31 -13 42t-34 16q-20 6 -28 10t-8 12q0 17 28 17h81q38 0 38 -41v-416q0 -91 -49 -91h-15v214h-141q-31 0 -31 26t31 26h141v185zM350 -42h264v223h-263v-191q0 -17 -1 -32zM642 233q36 0 36 -43v-150q0 -60 -25 -82h7q31 0 31 -25q0 -27 -31 -27h-321q-11 -28 -36 -28 h-15v247q0 34 -4.5 48t-27.5 23q-11 3 -16.5 7.5t-5.5 12.5q0 17 26 17h382z" />
<glyph unicode="&#xaecd;" horiz-adv-x="785" d="M77 696q-32 0 -32 26t30 26h370q22 0 30 -12.5t6 -25.5q-15 -113 -73.5 -210t-139.5 -159q-23 -17 -36 -7t1 26q68 68 114 154.5t57 181.5h-124q-21 -88 -74.5 -166t-127.5 -130q-24 -17 -34.5 -5t13.5 33q48 41 93.5 112.5t60.5 155.5h-134zM621 742q0 31 -13 42t-34 16 q-20 6 -28 10t-8 12q0 17 28 17h81q38 0 38 -41v-373q0 -91 -49 -91h-15v196h-133q-32 0 -32 25q0 27 32 27h133v160zM351 149h263v63q0 25 -6.5 33.5t-19.5 13.5q-15 5 -20.5 8.5t-5.5 10.5q0 16 27 16h52q37 0 37 -41v-212q0 -62 -26 -83h8q31 0 31 -25q0 -27 -31 -27 h-321q-12 -27 -36 -27h-15v300q0 24 -6 34.5t-18 13.5q-11 4 -18.5 7.5t-7.5 11.5q0 17 26 17h53q34 0 34 -41v-73zM614 97h-263v-106q0 -17 -1 -33h264v139z" />
<glyph unicode="&#xaecf;" horiz-adv-x="785" d="M77 685q-32 0 -32 27q0 26 30 26h370q22 0 30 -12.5t6 -25.5q-16 -120 -73.5 -218.5t-139.5 -164.5q-22 -19 -35.5 -8t1.5 26q67 73 113 161.5t56 188.5h-123q-23 -99 -80 -180.5t-122 -129.5q-24 -17 -34.5 -5t10.5 32q56 51 99 123.5t58 159.5h-134zM566 839h82 q37 0 37 -41v-466q0 -91 -49 -91h-15v259h-142q-32 0 -32 26t32 26h142v190q0 31 -13 42t-34 16q-20 6 -28 10t-8 12q0 17 28 17zM519 212q-9 -40 -35 -82l236 -163q14 -10 17 -26t-4 -25q-9 -11 -23 -11t-31 13l-217 179q-21 -28 -46 -56q-85 -91 -175 -139 q-28 -15 -38 -2.5t12 28.5q85 58 147 135.5t87 138.5q7 21 -10.5 28t-36.5 11q-16 3 -15 18t23 15h61q35 0 44.5 -18.5t3.5 -43.5z" />
<glyph unicode="&#xaed0;" horiz-adv-x="785" d="M77 685q-32 0 -32 27q0 26 30 26h370q22 0 30 -12.5t6 -25.5q-16 -120 -73.5 -218.5t-139.5 -164.5q-22 -19 -35.5 -8t1.5 26q67 73 113 161.5t56 188.5h-123q-23 -99 -80 -180.5t-122 -129.5q-24 -17 -34.5 -5t10.5 32q56 51 99 123.5t58 159.5h-134zM621 742 q0 31 -13 42t-34 16q-20 6 -28 10t-8 12q0 17 28 17h81q38 0 38 -41v-416q0 -91 -49 -91h-15v214h-141q-31 0 -31 26t31 26h141v185zM392 195q-7 -47 -32 -96l119 -105q17 22 32 46q50 80 64 153q3 11 -5 19.5t-28 14.5q-12 3 -16.5 6t-4.5 9q0 16 26 16h60q28 0 35.5 -13.5 t4.5 -38.5q-7 -53 -34 -107l144 -126q17 -16 20 -30t-6 -23q-8 -10 -22.5 -10t-29.5 17l-127 134q-11 -19 -25 -37q-68 -92 -135 -133q-23 -16 -33.5 -4t5.5 26q21 18 40 39l-105 111q-9 -13 -20 -28q-62 -81 -144 -130q-24 -15 -35 -3.5t7 26.5q68 51 115 122.5t59 128.5 q2 11 -5.5 20t-27.5 15q-15 5 -18.5 7.5t-3.5 9.5q0 15 27 15h61q27 0 34 -14.5t4 -36.5z" />
<glyph unicode="&#xaed1;" horiz-adv-x="785" d="M77 685q-32 0 -32 27q0 26 30 26h370q22 0 30 -12.5t6 -25.5q-16 -120 -73.5 -218.5t-139.5 -164.5q-22 -19 -35.5 -8t1.5 26q67 73 113 161.5t56 188.5h-123q-23 -99 -80 -180.5t-122 -129.5q-24 -17 -34.5 -5t10.5 32q56 51 99 123.5t58 159.5h-134zM621 742 q0 31 -13 42t-34 16q-20 6 -28 10t-8 12q0 17 28 17h81q38 0 38 -41v-431q0 -91 -49 -91h-15v229h-141q-31 0 -31 26t31 26h141v185zM290 71q0 80 56.5 134t138.5 54t139 -54t57 -134t-57 -134t-139 -54t-138.5 54t-56.5 134zM355 71q0 -60 38.5 -97t91.5 -37q54 0 92 37 t38 97t-38 97t-92 37q-53 0 -91.5 -37t-38.5 -97z" />
<glyph unicode="&#xaed8;" d="M75 691h319q20 0 28 -12.5t6 -25.5q-10 -85 -33 -164q7 6 23 6h105v205q0 31 -11 41.5t-35 17.5q-19 5 -26.5 10t-7.5 12q0 15 29 15h78q37 0 37 -44v-696q0 -92 -49 -92h-15v479h-105q-28 0 -31 19q-13 -41 -30 -81q-54 -128 -117 -204q-18 -21 -32.5 -11t-2.5 28 q55 85 95.5 200t52.5 244h-103q-26 -136 -77 -238.5t-107 -170.5q-18 -21 -29 -10t6 36q43 66 84.5 168.5t54.5 214.5h-105q-32 0 -32 27q0 26 30 26zM630 839h79q37 0 37 -42v-803q0 -92 -49 -92h-15v842q0 30 -12 41t-36 17q-20 4 -27.5 8t-7.5 12q0 17 31 17z" />
<glyph unicode="&#xaed9;" d="M75 726h324q20 0 28 -12t6 -25q-10 -80 -33 -147q7 2 15 2h108v156q0 31 -11 41.5t-35 17.5q-19 5 -26.5 10t-7.5 12q0 15 29 15h78q37 0 37 -43v-375q0 -91 -49 -91h-15v205h-108q-22 0 -29 11q-10 -24 -21 -46q-52 -98 -120 -162q-21 -20 -35 -10t0 27q57 68 99 162 t49 200h-108q-20 -110 -69.5 -195.5t-103.5 -130.5q-23 -19 -33 -8.5t9 33.5q51 60 85 135.5t43 165.5h-104q-32 0 -32 27q0 25 30 25zM682 744q0 30 -12 41t-36 17q-20 4 -27.5 8t-7.5 12q0 17 31 17h78q38 0 38 -41v-430q0 -91 -50 -91h-14v467zM264 166q-27 0 -27 27 q0 26 25 26h435q36 0 36 -42v-201q0 -92 -45 -92h-18v282h-406z" />
<glyph unicode="&#xaedc;" d="M75 719h324q20 0 28 -12t6 -26q-10 -75 -31 -142h121v161q0 31 -11 41.5t-35 17.5q-19 5 -26.5 10t-7.5 12q0 15 29 15h78q37 0 37 -43v-515q0 -91 -49 -91h-15v340h-122q-10 0 -16 2q-9 -23 -20 -44q-52 -104 -120 -167q-21 -21 -35 -10.5t0 26.5q57 69 99 168t49 205 h-108q-20 -113 -70 -203.5t-103 -133.5q-23 -18 -33 -8.5t9 34.5q53 65 86 142t42 169h-104q-32 0 -32 27q0 25 30 25zM630 839h78q38 0 38 -42v-580q0 -92 -50 -92h-14v619q0 30 -12 41t-36 17q-20 4 -27.5 8t-7.5 12q0 17 31 17zM734 -87h-355q-90 0 -90 87v106 q0 29 -11 39.5t-34 17.5q-20 5 -24.5 9t-4.5 13q0 17 28 17h74q36 0 36 -47v-167q0 -21 19 -21h361q33 0 33 -27t-32 -27z" />
<glyph unicode="&#xaee8;" d="M75 726h324q20 0 28 -12t6 -25q-9 -71 -29 -132q6 1 11 1h108v142q0 31 -11 41.5t-35 17.5q-19 5 -26.5 10t-7.5 12q0 15 29 15h78q37 0 37 -43v-360q0 -92 -49 -92h-15v205h-108q-19 0 -26 8q-11 -26 -24 -51q-52 -95 -119 -157q-22 -20 -36 -10t0 26q57 65 99 156 t49 196h-108q-21 -103 -69 -187.5t-104 -128.5q-23 -18 -33.5 -7.5t9.5 32.5q56 62 86.5 132.5t42.5 158.5h-105q-32 0 -32 27q0 25 30 25zM630 839h78q38 0 38 -41v-416q0 -91 -50 -91h-14v453q0 30 -12 41t-36 17q-20 4 -27.5 8t-7.5 12q0 17 31 17zM376 -42h295v223h-294 v-191q0 -17 -1 -32zM698 233q36 0 36 -43v-150q0 -60 -24 -82h7q31 0 31 -25q0 -27 -31 -27h-352q-12 -28 -36 -28h-16v247q0 34 -4.5 48t-26.5 23q-12 3 -17 7.5t-5 12.5q0 17 26 17h412z" />
<glyph unicode="&#xaeeb;" d="M75 726h324q20 0 28 -12t6 -25q-10 -80 -34 -146q5 1 13 1h111v156q0 31 -11 41.5t-35 17.5q-19 5 -26.5 10t-7.5 12q0 15 29 15h78q37 0 37 -43v-342q0 -91 -49 -91h-15v172h-111q-21 0 -28 10q-9 -20 -19 -39q-52 -95 -119 -157q-22 -20 -36 -10t0 26q57 65 99 156 t49 196h-108q-21 -103 -69 -187.5t-104 -128.5q-23 -18 -33.5 -7.5t9.5 32.5q56 62 86.5 132.5t42.5 158.5h-105q-32 0 -32 27q0 25 30 25zM630 839h78q38 0 38 -41v-457q0 -91 -50 -91h-14v494q0 30 -12 41t-36 17q-20 4 -27.5 8t-7.5 12q0 17 31 17zM540 212 q-10 -38 -37 -81l253 -164q15 -11 17.5 -26.5t-4.5 -24.5q-9 -11 -22.5 -11.5t-31.5 13.5l-235 181q-20 -27 -47 -55q-89 -92 -187 -142q-29 -14 -39 -2t13 28q85 56 152.5 133.5t95.5 140.5q10 21 -8.5 28t-36.5 11q-16 3 -15 18t22 15h62q34 0 44 -18.5t4 -43.5z" />
<glyph unicode="&#xaeed;" d="M75 726h324q20 0 28 -12t6 -25q-9 -71 -29 -132q6 1 11 1h108v142q0 31 -11 41.5t-35 17.5q-19 5 -26.5 10t-7.5 12q0 15 29 15h78q37 0 37 -43v-348q0 -91 -49 -91h-15v192h-108q-19 0 -26 8q-11 -26 -24 -51q-52 -95 -119 -157q-22 -20 -36 -10t0 26q57 65 99 156 t49 196h-108q-21 -103 -69 -187.5t-104 -128.5q-23 -18 -33.5 -7.5t9.5 32.5q56 62 86.5 132.5t42.5 158.5h-105q-32 0 -32 27q0 25 30 25zM630 839h78q38 0 38 -41v-432q0 -91 -50 -91h-14v469q0 30 -12 41t-36 17q-20 4 -27.5 8t-7.5 12q0 17 31 17zM326 71q0 80 56.5 134 t138.5 54t139 -54t57 -134t-57 -134t-139 -54t-138.5 54t-56.5 134zM391 71q0 -60 38.5 -97t91.5 -37t91.5 37t38.5 97t-38.5 97t-91.5 37t-91.5 -37t-38.5 -97z" />
<glyph unicode="&#xaef4;" horiz-adv-x="785" d="M77 638q-32 0 -32 27q0 26 30 26h370q22 0 30 -12.5t6 -25.5q-3 -25 -7 -49h147v139q0 30 -13 41t-34 16q-20 6 -28 10t-8 12q0 17 28 17h81q38 0 38 -42v-803q0 -92 -49 -92h-15v419h-150q-29 0 -29 27q0 24 29 24h150v180h-156q-21 -94 -55 -172q-54 -116 -143 -209 q-19 -19 -32.5 -8t-0.5 29q73 96 116 209.5t53 236.5h-123q-24 -126 -79 -232.5t-129 -173.5q-23 -21 -34.5 -8.5t7.5 34.5q55 63 104.5 167.5t60.5 212.5h-133z" />
<glyph unicode="&#xaef8;" horiz-adv-x="785" d="M77 685q-32 0 -32 27q0 26 30 26h370q22 0 30 -12.5t6 -25.5q-3 -25 -8 -48h148v91q0 30 -13 41t-34 16q-20 6 -28 10t-8 12q0 17 28 17h81q38 0 38 -42v-577q0 -93 -49 -93h-15v254h-147q-29 0 -29 27q0 25 29 25h147v167h-147q-7 0 -12 3q-20 -72 -53 -135 q-58 -104 -141 -177q-21 -19 -35 -8t1 28q63 69 111 168t58 206h-123q-20 -108 -79.5 -197.5t-122.5 -137.5q-24 -18 -34 -5.5t10 31.5q52 50 98.5 131.5t58.5 177.5h-134zM695 -87h-324q-90 0 -90 87v106q0 29 -11 39.5t-34 17.5q-20 5 -24.5 9t-4.5 13q0 17 27 17h75 q36 0 36 -47v-167q0 -21 19 -21h330q33 0 33 -27t-32 -27z" />
<glyph unicode="&#xaefc;" horiz-adv-x="785" d="M77 696q-32 0 -32 26t30 26h370q22 0 30 -12.5t6 -25.5q-3 -21 -8 -43h148v76q0 30 -13 41t-34 16q-20 6 -28 10t-8 12q0 17 28 17h81q38 0 38 -41v-360q0 -91 -49 -91h-15v91h-147q-29 0 -29 26q0 25 29 25h147v127h-147q-8 0 -14 2q-20 -56 -51 -108q-59 -91 -141 -153 q-22 -18 -35.5 -7t0.5 25q68 67 114 148.5t57 172.5h-122q-23 -86 -76.5 -159t-127.5 -122q-25 -15 -32.5 -3t13.5 30q49 40 93 109t59 145h-134zM677 -101h-337q-52 0 -52 65v73q0 22 -10 32t-24 17q-8 2 -12 6t-4 13q0 15 26 15h349v116h-322q-32 0 -32 27q0 25 30 25h355 q34 0 34 -41v-129q0 -49 -41 -49h-285v-88q0 -30 24 -30h300q32 0 32 -25q0 -27 -31 -27z" />
<glyph unicode="&#xaf07;" horiz-adv-x="785" d="M77 685q-32 0 -32 27q0 26 30 26h370q22 0 30 -12.5t6 -25.5q-3 -20 -6 -38h146v81q0 30 -13 41t-34 16q-20 6 -28 10t-8 12q0 17 28 17h82q37 0 37 -41v-466q0 -91 -49 -91h-15v171h-147q-29 0 -29 27q0 24 29 24h147v148h-147q-6 0 -11 1q-20 -69 -55 -130 q-58 -99 -140 -165q-22 -19 -35.5 -8t1.5 26q67 73 113 161.5t56 188.5h-123q-23 -99 -80 -180.5t-122 -129.5q-24 -17 -34.5 -5t10.5 32q56 51 99 123.5t58 159.5h-134zM519 212q-9 -40 -35 -82l236 -163q14 -10 17 -26t-4 -25q-9 -11 -23 -11t-31 13l-217 179 q-21 -28 -46 -56q-85 -91 -175 -139q-28 -15 -38 -2.5t12 28.5q85 58 147 135.5t87 138.5q7 21 -10.5 28t-36.5 11q-16 3 -15 18t23 15h61q35 0 44.5 -18.5t3.5 -43.5z" />
<glyph unicode="&#xaf08;" horiz-adv-x="785" d="M77 685q-32 0 -32 27q0 26 30 26h370q22 0 30 -12.5t6 -25.5q-3 -20 -6 -38h146v81q0 30 -13 41t-34 16q-20 6 -28 10t-8 12q0 17 28 17h81q38 0 38 -41v-416q0 -91 -49 -91h-15v121h-147q-29 0 -29 27q0 24 29 24h147v148h-147q-6 0 -11 1q-20 -69 -55 -130 q-58 -99 -140 -165q-22 -19 -35.5 -8t1.5 26q67 73 113 161.5t56 188.5h-123q-23 -99 -80 -180.5t-122 -129.5q-24 -17 -34.5 -5t10.5 32q56 51 99 123.5t58 159.5h-134zM392 195q-7 -47 -32 -96l119 -105q17 22 32 46q50 80 64 153q3 11 -5 19.5t-28 14.5q-12 3 -16.5 6 t-4.5 9q0 16 26 16h60q28 0 35.5 -13.5t4.5 -38.5q-7 -53 -34 -107l144 -126q17 -16 20 -30t-6 -23q-8 -10 -22.5 -10t-29.5 17l-127 134q-11 -19 -25 -37q-68 -92 -135 -133q-23 -16 -33.5 -4t5.5 26q21 18 40 39l-105 111q-9 -13 -20 -28q-62 -81 -144 -130 q-24 -15 -35 -3.5t7 26.5q68 51 115 122.5t59 128.5q2 11 -5.5 20t-27.5 15q-15 5 -18.5 7.5t-3.5 9.5q0 15 27 15h61q27 0 34 -14.5t4 -36.5z" />
<glyph unicode="&#xaf0d;" horiz-adv-x="785" d="M77 696q-32 0 -32 26t30 26h370q22 0 30 -12.5t6 -25.5q-3 -21 -8 -43h148v76q0 30 -13 41t-34 16q-20 6 -28 10t-8 12q0 17 28 17h81q38 0 38 -41v-360q0 -91 -49 -91h-15v91h-147q-29 0 -29 26q0 25 29 25h147v127h-147q-8 0 -14 2q-20 -56 -51 -108q-59 -91 -141 -153 q-22 -18 -35.5 -7t0.5 25q68 67 114 148.5t57 172.5h-122q-23 -86 -76.5 -159t-127.5 -122q-25 -15 -32.5 -3t13.5 30q49 40 93 109t59 145h-134zM647 120q31 0 31 -25q0 -26 -31 -26h-295v-89q0 -29 25 -29h287q31 0 31 -25q0 -27 -30 -27h-320q-57 0 -57 66v216 q0 33 -4 47t-28 23q-10 3 -16 8t-6 13q0 16 25 16h397q31 0 31 -26t-32 -26h-303v-116h295z" />
<glyph unicode="&#xaf10;" d="M75 691h319q20 0 28 -12.5t6 -25.5q-4 -31 -9 -61h107v109q0 30 -11 40.5t-35 17.5q-19 5 -26.5 10t-7.5 12q0 15 29 15h77q37 0 37 -44v-696q0 -92 -49 -92h-14v359h-107q-29 0 -29 26q0 25 29 25h107v167h-107q-5 0 -10 1q-20 -83 -52 -161q-54 -128 -117 -204 q-18 -21 -32.5 -11t-2.5 28q55 85 95.5 200t52.5 244h-103q-26 -136 -77 -238.5t-107 -170.5q-18 -21 -29 -10t6 36q43 66 84.5 168.5t54.5 214.5h-105q-32 0 -32 27q0 26 30 26zM630 839h79q37 0 37 -42v-803q0 -92 -49 -92h-15v842q0 30 -12 41t-36 17q-20 4 -27.5 8 t-7.5 12q0 17 31 17z" />
<glyph unicode="&#xaf2c;" d="M137 680q-33 0 -33 27q0 26 31 26h192q40 0 40 -43q-1 -101 -23.5 -247t-42.5 -186q-5 -11 -13.5 -15t-18.5 -1q-8 3 -9.5 9.5t1.5 20.5q14 69 25.5 183.5t11.5 225.5h-161zM437 680q-31 0 -31 27q0 26 29 26h191q42 0 42 -47q0 -79 -13 -227.5t-35 -201.5 q-5 -11 -13.5 -15.5t-17.5 -1.5q-8 3 -10 9.5t1 20.5q14 66 16.5 195.5t1.5 214.5h-161zM762 59h-699q-30 0 -30 26t30 26h350v238q0 25 -9.5 37t-29.5 18q-17 5 -21.5 9t-4.5 12q0 16 26 16h66q36 0 36 -44v-286h286q34 0 34 -26t-34 -26z" />
<glyph unicode="&#xaf2d;" d="M137 737q-33 0 -33 26t31 26h192q41 0 40 -43q-1 -76 -23.5 -156.5t-42.5 -121.5q-5 -11 -13.5 -15t-18.5 -1q-8 3 -10.5 10t2.5 19q14 38 25.5 101t11.5 155h-161zM437 737q-31 0 -31 26t29 26h191q42 0 42 -45q0 -41 -10 -132.5t-30 -143.5q-4 -11 -13 -15.5t-18 -1.5 q-8 3 -9.5 9.5t0.5 20.5q11 72 11 121.5t-1 134.5h-161zM762 331h-699q-30 0 -30 27q0 25 30 25h347v97q0 25 -9.5 36.5t-31.5 18.5q-18 4 -21 8.5t-3 12.5q0 16 24 16h68q36 0 36 -43v-146h289q34 0 34 -25q0 -27 -34 -27zM185 160q-27 0 -27 27q0 25 25 25h418 q36 0 36 -42v-194q0 -92 -45 -92h-19v276h-388z" />
<glyph unicode="&#xaf30;" d="M137 718q-33 0 -33 27q0 25 31 25h192q41 0 40 -43q-1 -82 -25.5 -171t-42.5 -127q-5 -11 -14 -15t-18 -1q-8 3 -10.5 9.5t2.5 19.5q14 44 26.5 111t12.5 165h-161zM437 718q-31 0 -31 27q0 25 29 25h191q42 0 42 -45q0 -41 -10 -142t-32 -154q-4 -11 -13 -15.5t-18 -1.5 q-8 3 -9.5 9.5t0.5 20.5q11 85 12 138t0 138h-161zM762 281h-699q-30 0 -30 27q0 25 30 25h347v111q0 25 -9.5 37t-31.5 18q-15 4 -19.5 8.5t-4.5 13.5q0 15 24 15h68q36 0 36 -43v-160h289q34 0 34 -25q0 -27 -34 -27zM629 -87h-337q-90 0 -90 87v95q0 28 -12.5 39 t-32.5 18q-21 5 -26 9t-5 12q0 18 29 18h74q37 0 37 -47v-156q0 -21 19 -21h343q32 0 32 -27t-31 -27z" />
<glyph unicode="&#xaf32;" d="M137 744q-33 0 -33 26t31 26h192q41 0 40 -43q-1 -78 -22.5 -151.5t-42.5 -109.5q-7 -11 -15 -16.5t-17 -0.5q-9 3 -11.5 10t2.5 18q17 39 27 99t10 142h-161zM437 744q-31 0 -31 26t29 26h191q42 0 42 -45q0 -41 -10 -125t-30 -135q-4 -11 -13 -16t-18 -2 q-8 4 -9.5 10.5t0.5 19.5q10 77 10.5 117.5t-0.5 123.5h-161zM762 357h-699q-30 0 -30 26t30 26h347v88q0 26 -9.5 37t-31.5 18q-18 4 -21 9t-3 13q0 15 24 15h68q36 0 36 -43v-137h289q34 0 34 -26t-34 -26zM481 241l-27 23q-9 7 -10.5 15t5.5 16q5 6 13.5 5t16.5 -5 q39 -18 67.5 -22.5t67.5 -4.5q30 0 30 -26q0 -12 -7.5 -19t-20.5 -7l-71 1q-35 0 -64 24zM382 -101h-129q-88 0 -88 87v167q0 29 -11 39.5t-34 17.5q-20 5 -24.5 9t-4.5 13q0 17 28 17h75q35 0 35 -47v-228q0 -22 19 -22h133q33 0 33 -26q0 -27 -32 -27zM716 108h-60 q40 -36 40 -89q0 -56 -40.5 -94.5t-97.5 -38.5t-97.5 38.5t-40.5 94.5q0 53 40 89h-68q-32 0 -32 23q0 25 32 25h324q32 0 32 -25q0 -23 -32 -23zM481 19q0 -38 24 -62.5t53 -24.5t53 24.5t24 62.5t-24 62.5t-53 24.5t-53 -24.5t-24 -62.5z" />
<glyph unicode="&#xaf34;" d="M137 744q-33 0 -33 26t31 26h192q41 0 40 -43q-1 -70 -22.5 -138t-42.5 -102q-8 -12 -15.5 -16.5t-16.5 -0.5q-9 3 -11.5 10t2.5 19q17 40 27 92.5t10 126.5h-161zM437 744q-31 0 -31 26t29 26h191q42 0 42 -45q0 -41 -10 -114t-30 -125q-4 -11 -13 -15.5t-18 -1.5 q-8 3 -9.5 9.5t0.5 20.5q9 70 10 106.5t0 112.5h-161zM762 380h-699q-30 0 -30 27q0 26 30 26h347v80q0 26 -9.5 37.5t-31.5 18.5q-18 4 -21 8.5t-3 12.5q0 16 24 16h68q36 0 36 -43v-130h289q34 0 34 -26q0 -27 -34 -27zM205 231q-32 0 -32 24q0 27 30 27h406q34 0 34 -41 v-125q0 -49 -40 -49h-337v-85q0 -31 24 -31h352q32 0 32 -26t-31 -26h-380q-61 0 -61 72v63q0 22 -8.5 32t-24.5 17q-8 2 -13.5 6.5t-5.5 12.5q0 16 27 16h402v113h-374z" />
<glyph unicode="&#xaf3c;" d="M137 737q-33 0 -33 26t31 26h192q41 0 40 -43q-1 -69 -22.5 -151t-42.5 -120q-7 -13 -15 -17t-18 -1q-8 3 -10.5 9.5t2.5 19.5q17 45 27 104.5t10 146.5h-161zM437 737q-31 0 -31 26t29 26h191q42 0 42 -45q0 -41 -10 -130t-30 -141q-4 -11 -13 -15.5t-18 -1.5 q-8 3 -9.5 9.5t0.5 20.5q11 77 11 122.5t-1 128.5h-161zM762 336h-699q-30 0 -30 27q0 26 30 26h347v97q0 25 -9.5 36.5t-31.5 18.5q-18 4 -21 8.5t-3 13.5q0 15 24 15h68q36 0 36 -43v-146h289q34 0 34 -26q0 -27 -34 -27zM266 -42h311v213h-310v-181q0 -17 -1 -32z M604 224q36 0 36 -44v-140q0 -60 -25 -82h8q30 0 30 -25q0 -27 -30 -27h-368q-11 -28 -36 -28h-15v237q0 35 -4.5 49t-27.5 23q-11 3 -16 7.5t-5 12.5q0 17 25 17h428z" />
<glyph unicode="&#xaf3d;" d="M137 744q-33 0 -33 26t31 26h192q41 0 40 -43q-1 -78 -22.5 -151.5t-42.5 -109.5q-7 -11 -15 -16.5t-17 -0.5q-9 3 -11.5 10t2.5 18q17 39 27 99t10 142h-161zM437 744q-31 0 -31 26t29 26h191q42 0 42 -45q0 -41 -10 -125t-30 -135q-4 -11 -13 -16t-18 -2 q-8 4 -9.5 10.5t0.5 19.5q10 77 10.5 117.5t-0.5 123.5h-161zM762 357h-699q-30 0 -30 26t30 26h347v88q0 26 -9.5 37t-31.5 18q-18 4 -21 9t-3 13q0 15 24 15h68q36 0 36 -43v-137h289q34 0 34 -26t-34 -26zM623 -94h-368q-12 -27 -36 -27h-15v308q0 24 -5.5 34.5 t-18.5 13.5q-11 4 -18.5 7.5t-7.5 11.5q0 17 26 17h53q34 0 34 -41v-83h310v57q0 25 -7 33.5t-20 13.5q-14 4 -20 8t-6 11q0 16 27 16h52q37 0 37 -41v-204q0 -62 -26 -83h9q30 0 30 -25q0 -27 -30 -27zM266 -42h311v137h-310v-104q0 -17 -1 -33z" />
<glyph unicode="&#xaf3f;" d="M137 737q-33 0 -33 26t31 26h192q41 0 40 -43q-1 -69 -22.5 -151t-42.5 -120q-7 -13 -15 -17t-18 -1q-8 3 -10.5 9.5t2.5 19.5q17 45 27 104.5t10 146.5h-161zM437 737q-31 0 -31 26t29 26h191q42 0 42 -45q0 -41 -10 -130t-30 -141q-4 -11 -13 -15.5t-18 -1.5 q-8 3 -9.5 9.5t0.5 20.5q11 77 11 122.5t-1 128.5h-161zM762 336h-699q-30 0 -30 27q0 26 30 26h347v97q0 25 -9.5 36.5t-31.5 18.5q-18 4 -21 8.5t-3 13.5q0 15 24 15h68q36 0 36 -43v-146h289q34 0 34 -26q0 -27 -34 -27zM463 202q-8 -42 -42 -90l268 -148 q17 -10 20.5 -26.5t-7.5 -27.5q-9 -10 -22 -10t-32 13l-250 170q-15 -18 -32 -37q-85 -87 -189 -146q-29 -16 -37.5 -2t15.5 31q79 53 149.5 132.5t87.5 130.5q7 20 -11.5 28t-34.5 11t-15 18t22 15h62q35 0 44 -18.5t4 -43.5z" />
<glyph unicode="&#xaf41;" d="M137 737q-33 0 -33 26t31 26h192q41 0 40 -43q-1 -69 -22.5 -151t-42.5 -120q-7 -13 -15 -17t-18 -1q-8 3 -10.5 9.5t2.5 19.5q17 45 27 104.5t10 146.5h-161zM437 737q-31 0 -31 26t29 26h191q42 0 42 -45q0 -41 -10 -130t-30 -141q-4 -11 -13 -15.5t-18 -1.5 q-8 3 -9.5 9.5t0.5 20.5q11 77 11 122.5t-1 128.5h-161zM762 338h-699q-30 0 -30 27q0 26 30 26h347v95q0 25 -9.5 36.5t-31.5 18.5q-18 4 -21 8.5t-3 13.5q0 15 24 15h68q36 0 36 -43v-144h289q34 0 34 -26q0 -27 -34 -27zM209 67q0 77 60.5 130.5t144.5 53.5t144 -53.5 t60 -130.5t-60 -130.5t-144 -53.5t-144.5 53.5t-60.5 130.5zM274 67q0 -53 40.5 -91.5t99.5 -38.5q58 0 98.5 38.5t40.5 91.5t-40.5 91.5t-98.5 38.5q-59 0 -99.5 -38.5t-40.5 -91.5z" />
<glyph unicode="&#xaf42;" d="M137 737q-33 0 -33 26t31 26h192q41 0 40 -43q-1 -69 -22.5 -151t-42.5 -120q-7 -13 -15 -17t-18 -1q-8 3 -10.5 9.5t2.5 19.5q17 45 27 104.5t10 146.5h-161zM437 737q-31 0 -31 26t29 26h191q42 0 42 -45q0 -41 -10 -130t-30 -141q-4 -11 -13 -15.5t-18 -1.5 q-8 3 -9.5 9.5t0.5 20.5q11 77 11 122.5t-1 128.5h-161zM762 336h-699q-30 0 -30 27q0 26 30 26h347v97q0 25 -9.5 36.5t-31.5 18.5q-18 4 -21 8.5t-3 13.5q0 15 24 15h68q36 0 36 -43v-146h289q34 0 34 -26q0 -27 -34 -27zM217 171q-33 0 -33 27q0 26 30 26h360 q31 0 43.5 -15.5t3.5 -39.5q-21 -57 -134 -129l214 -80q35 -13 22 -41t-53 -11l-227 105q-134 -78 -282 -116q-23 -6 -28 12.5t13 23.5q81 25 197.5 88t202.5 150h-329z" />
<glyph unicode="&#xaf43;" d="M137 744q-33 0 -33 26t31 26h192q41 0 40 -43q-1 -70 -22.5 -138t-42.5 -102q-8 -12 -15.5 -16.5t-16.5 -0.5q-9 3 -11.5 10t2.5 19q17 40 27 92.5t10 126.5h-161zM437 744q-31 0 -31 26t29 26h191q42 0 42 -45q0 -41 -10 -114t-30 -125q-4 -11 -13 -15.5t-18 -1.5 q-8 3 -9.5 9.5t0.5 20.5q9 70 10 106.5t0 112.5h-161zM762 380h-699q-30 0 -30 27q0 26 30 26h347v80q0 26 -9.5 37.5t-31.5 18.5q-18 4 -21 8.5t-3 12.5q0 16 24 16h68q36 0 36 -43v-130h289q34 0 34 -26q0 -27 -34 -27zM315 259l-27 23q-8 7 -10 15.5t5 16.5q5 6 13.5 5 t16.5 -5q40 -19 99.5 -23.5t97.5 -4.5q30 0 30 -25q0 -13 -8 -19.5t-20 -6.5l-108 1q-60 0 -89 23zM726 -90q-4 -9 -17 -11.5t-30 4.5l-239 85q-119 -57 -255 -90q-44 -10 -47.5 7.5t25.5 26.5q116 35 206.5 80.5t169.5 107.5h-321q-33 0 -33 26q0 25 30 25h366 q33 0 43 -17.5t-1 -36.5q-31 -49 -131 -103l214 -61q17 -5 21.5 -17.5t-1.5 -25.5z" />
<glyph unicode="&#xaf48;" horiz-adv-x="841" d="M74 654q-33 0 -33 26t30 26h129q39 0 39 -46q0 -88 -18 -196q-1 -2 -1 -4q6 1 14 1h64q36 0 36 -45v-233h4q60 0 103.5 2.5t89.5 10.5q27 5 30.5 -7.5t-10.5 -22.5q-23 -14 -79.5 -25t-139.5 -11h-278q-29 0 -29 27q0 26 30 26h214v184q0 29 -8 39.5t-32 17.5q-8 2 -14 5 q-15 -80 -32 -119q-4 -13 -11 -16.5t-16 -0.5q-10 3 -13.5 10t0.5 20q13 48 20.5 136.5t6.5 194.5h-96zM299 654q-32 0 -32 26t30 26h150q41 0 41 -46q0 -77 -9.5 -182t-29.5 -169q-4 -11 -11.5 -15.5t-16.5 -1.5q-8 3 -11 10.5t-1 19.5q9 78 10 157t0 175h-120zM602 743 q0 30 -12.5 41t-33.5 16q-20 6 -28.5 10t-8.5 12q0 17 29 17h82q37 0 37 -42v-319h119q33 0 33 -27t-33 -27h-119v-429q0 -92 -50 -92h-15v840z" />
<glyph unicode="&#xaf49;" horiz-adv-x="841" d="M79 720q-33 0 -33 27q0 26 30 26h129q39 0 39 -47q0 -72 -17 -153q-3 -15 -6 -27q7 2 20 2h63q36 0 36 -44v-166q58 0 101 3q43 2 89 11q27 5 30.5 -8t-10.5 -22q-23 -14 -79.5 -25t-139.5 -11h-277q-29 0 -29 27q0 25 30 25h220v116q0 29 -8 39.5t-31 17.5q-12 3 -20 9 q-1 0 -2 1q-11 -44 -26 -73q-5 -12 -11.5 -16t-15.5 0q-9 3 -13 9.5t0 19.5q13 45 20.5 110t6.5 149h-96zM304 720q-32 0 -32 27q0 26 30 26h151q41 0 41 -47q0 -76 -11 -156t-29 -122q-4 -11 -11.5 -16t-16.5 -2q-8 4 -11 11t-1 19q9 78 10 131.5t0 128.5h-120zM602 743 q0 30 -12.5 41t-33.5 16q-20 6 -28.5 10t-8.5 12q0 17 29 17h82q37 0 37 -42v-243h119q33 0 33 -26q0 -27 -33 -27h-119v-176q0 -92 -50 -92h-15v510zM244 133q-28 0 -28 26t26 26h383q35 0 35 -42v-167q0 -92 -45 -92h-18v249h-353z" />
<glyph unicode="&#xaf50;" horiz-adv-x="841" d="M79 723q-33 0 -33 27q0 26 30 26h129q39 0 39 -47q0 -72 -17 -141q-3 -11 -6 -21q7 2 20 2h63q36 0 36 -44v-135q58 0 101 3q43 2 89 10q27 5 30.5 -8t-10.5 -22q-23 -14 -79.5 -25t-139.5 -11h-277q-29 0 -29 27q0 26 30 26h220v85q0 28 -8 39t-31 18q-12 3 -20 8 q-1 0 -2 1q-12 -38 -26 -65q-5 -13 -11.5 -16.5t-15.5 -0.5t-13 10t0 21q13 42 20.5 101t6.5 132h-96zM304 723q-32 0 -32 27q0 26 30 26h151q41 0 41 -47q0 -76 -11 -143.5t-29 -109.5q-4 -12 -11.5 -16.5t-16.5 -1.5q-8 3 -11 10.5t-1 19.5q9 58 10 109t0 126h-120z M602 743q0 30 -12.5 41t-33.5 16q-20 6 -28.5 10t-8.5 12q0 17 29 17h82q37 0 37 -42v-212h119q33 0 33 -27q0 -26 -33 -26h-119v-135q0 -92 -50 -92h-15v438zM659 -101h-347q-52 0 -52 64v58q0 21 -9.5 31.5t-24.5 17.5q-8 2 -12 5.5t-4 12.5q0 16 27 16h359v99h-333 q-32 0 -32 26q0 25 30 25h366q33 0 33 -41v-111q0 -48 -40 -48h-295v-72q0 -31 23 -31h310q32 0 32 -25q0 -27 -31 -27z" />
<glyph unicode="&#xaf5c;" horiz-adv-x="841" d="M79 720q-33 0 -33 27q0 26 30 26h129q39 0 39 -47q0 -72 -17 -148q-2 -5 -3 -10q7 1 17 1h63q36 0 36 -44v-166q58 0 101 3q43 2 89 10q27 5 30.5 -7.5t-10.5 -22.5q-23 -14 -79.5 -24.5t-139.5 -10.5h-277q-29 0 -29 26t30 26h220v116q0 28 -8 39t-31 18q-11 3 -19 7 q-13 -49 -29 -81q-5 -12 -11.5 -15.5t-15.5 -0.5t-13 9.5t0 19.5q13 46 20.5 105.5t6.5 143.5h-96zM304 720q-32 0 -32 27q0 26 30 26h151q41 0 41 -47q0 -76 -11 -151t-29 -117q-4 -11 -11.5 -15.5t-16.5 -1.5q-8 3 -11 10t-1 19q9 78 10 126.5t0 123.5h-120zM602 743 q0 30 -12.5 41t-33.5 16q-20 6 -28.5 10t-8.5 12q0 17 29 17h82q37 0 37 -42v-232h119q33 0 33 -27t-33 -27h-119v-166q0 -92 -50 -92h-15v490zM358 172q-4 -35 -23 -74l119 -100q7 11 15 21q48 69 70 146q2 12 -6 20t-28 14q-11 3 -16 6t-5 9q0 17 26 17h58q28 0 36 -14 t4 -38q-6 -40 -26 -82l147 -120q16 -13 19.5 -28.5t-8.5 -26.5q-10 -12 -25.5 -11.5t-26.5 11.5l-130 133q-11 -18 -26 -36q-63 -83 -129 -128q-10 -6 -18 -6t-13 4q-4 5 -3.5 11.5t7.5 12.5q20 17 42 40l-105 107q-10 -16 -22 -31q-62 -76 -133 -125q-11 -7 -19.5 -5 t-11.5 7q-2 5 -0.5 12t9.5 14q47 38 92.5 99.5t59.5 125.5q2 11 -5.5 20.5t-27.5 15.5q-14 4 -18 6.5t-4 9.5q0 16 27 16h61q26 0 32.5 -14.5t4.5 -38.5z" />
<glyph unicode="&#xaf5d;" horiz-adv-x="841" d="M79 720q-33 0 -33 27q0 26 30 26h129q39 0 39 -47q0 -72 -17 -148q-2 -5 -3 -10q7 1 17 1h63q36 0 36 -44v-166q58 0 101 3q43 2 89 10q27 5 30.5 -7.5t-10.5 -22.5q-23 -14 -79.5 -24.5t-139.5 -10.5h-277q-29 0 -29 26t30 26h220v116q0 28 -8 39t-31 18q-11 3 -19 7 q-13 -49 -29 -81q-5 -12 -11.5 -15.5t-15.5 -0.5t-13 9.5t0 19.5q13 46 20.5 105.5t6.5 143.5h-96zM304 720q-32 0 -32 27q0 26 30 26h151q41 0 41 -47q0 -76 -11 -151t-29 -117q-4 -11 -11.5 -15.5t-16.5 -1.5q-8 3 -11 10t-1 19q9 78 10 126.5t0 123.5h-120zM602 743 q0 30 -12.5 41t-33.5 16q-20 6 -28.5 10t-8.5 12q0 17 29 17h82q37 0 37 -42v-232h119q33 0 33 -27t-33 -27h-119v-186q0 -92 -50 -92h-15v510zM278 56q0 71 54 122t135 51q83 0 138 -51t55 -122q0 -72 -55 -122.5t-138 -50.5q-81 0 -135 50.5t-54 122.5zM343 56 q0 -49 35.5 -84t88.5 -35q55 0 91.5 35t36.5 84t-36.5 83.5t-91.5 34.5q-53 0 -88.5 -34.5t-35.5 -83.5z" />
<glyph unicode="&#xaf64;" d="M65 648q-33 0 -33 26t29 26h117q39 0 39 -46q0 -88 -17 -186q-1 -4 -2 -7h64q36 0 36 -45v-233q33 1 59 3q43 2 89 10q27 5 30.5 -7.5t-10.5 -22.5q-23 -14 -79.5 -25t-138.5 -11h-194q-29 0 -29 27q0 26 29 26h180v184q0 29 -8 39.5t-31 17.5q-2 1 -5 1 q-13 -65 -28 -101q-4 -12 -11 -15.5t-16 -0.5q-8 3 -11.5 10t-0.5 19q12 49 22 129.5t8 181.5h-88zM278 648q-32 0 -32 26t28 26h119q41 0 41 -46q0 -77 -9.5 -172t-30.5 -159q-3 -10 -10 -14.5t-16 -1.5t-12 10t-1 19q10 57 13 128t2 184h-92zM682 743q0 31 -12 42t-36 17 q-20 4 -27.5 8t-7.5 12q0 17 31 17h79q37 0 37 -42v-803q0 -92 -50 -92h-14v503h-103v-349q0 -92 -50 -92h-14v737q0 30 -11 40.5t-35 17.5q-19 5 -26.5 10t-7.5 12q0 15 29 15h78q37 0 37 -43v-297h103v287z" />
<glyph unicode="&#xaf65;" d="M65 695q-33 0 -33 26t29 26h117q39 0 39 -46q0 -79 -13 -141h58q36 0 36 -42v-185q37 1 67 3q43 2 89 11q26 5 29.5 -8t-10.5 -22q-22 -15 -79 -25.5t-139 -10.5h-201q-29 0 -29 27q0 25 29 25h180v133q0 27 -5.5 41t-31.5 21h-1q-15 -55 -34 -95q-5 -12 -12 -16t-16 -1 q-8 3 -11.5 10t0.5 20q12 44 20 107t7 142h-85zM278 695q-32 0 -32 26t28 26h119q41 0 41 -46q0 -77 -9.5 -148.5t-29.5 -118.5q-5 -13 -12 -17t-16 -1t-12 9.5t0 19.5q10 49 11.5 98.5t0.5 151.5h-89zM682 743q0 31 -12 42t-36 17q-20 4 -27.5 8t-7.5 12q0 17 31 17h79 q37 0 37 -41v-464q0 -91 -50 -91h-14v250h-97v-148q0 -92 -49 -92h-15v448q0 30 -11 40.5t-35 17.5q-19 5 -26.5 10t-7.5 12q0 15 29 15h78q37 0 37 -43v-209h97v199zM287 133q-28 0 -28 26t26 26h413q36 0 36 -42v-167q0 -92 -45 -92h-18v249h-384z" />
<glyph unicode="&#xaf79;" d="M65 695q-33 0 -33 26t29 26h117q39 0 39 -46q0 -82 -14 -141h59q36 0 36 -42v-185q37 1 67 3q43 2 89 11q26 5 29.5 -8t-10.5 -22q-22 -15 -79 -25.5t-139 -10.5h-201q-29 0 -29 27q0 25 29 25h180v133q0 27 -5.5 41t-31.5 21q-1 0 -3 1q-14 -47 -32 -86 q-5 -11 -12 -15.5t-16 -1.5q-8 3 -11.5 10t0.5 20q12 44 20 102t7 137h-85zM278 695q-32 0 -32 26t28 26h119q41 0 41 -46q0 -77 -9.5 -143.5t-29.5 -113.5q-5 -12 -12 -16.5t-16 -1.5t-12 9.5t0 19.5q10 49 11.5 93.5t0.5 146.5h-89zM682 743q0 31 -12 42t-36 17 q-20 4 -27.5 8t-7.5 12q0 17 31 17h79q37 0 37 -41v-469q0 -91 -50 -91h-14v265h-97v-124q0 -92 -49 -92h-15v414q0 30 -11 40.5t-35 17.5q-19 5 -26.5 10t-7.5 12q0 15 29 15h78q37 0 37 -43v-199h97v189zM331 56q0 71 54 122t135 51q83 0 138.5 -51t55.5 -122 q0 -72 -55.5 -122.5t-138.5 -50.5q-81 0 -135 50.5t-54 122.5zM396 56q0 -49 35.5 -84t88.5 -35q55 0 91.5 35t36.5 84t-36.5 83.5t-91.5 34.5q-53 0 -88.5 -34.5t-35.5 -83.5z" />
<glyph unicode="&#xaf80;" horiz-adv-x="785" d="M74 654q-33 0 -33 26t30 26h129q39 0 39 -46q0 -88 -18 -196q-1 -2 -1 -5q6 2 17 2h63q36 0 36 -45v-233h19q61 0 104.5 2.5t89.5 10.5q26 5 30 -7.5t-11 -22.5q-22 -14 -79 -25t-140 -11h-295q-29 0 -29 27q0 26 30 26h216v184q0 29 -8 39.5t-32 17.5q-9 3 -16 6 q-15 -81 -32 -120q-4 -13 -11 -16.5t-16 -0.5q-10 3 -13.5 10t0.5 20q13 48 20.5 136.5t6.5 194.5h-96zM299 654q-32 0 -32 26t30 26h156q41 0 41 -46q0 -77 -10 -182t-30 -169q-3 -11 -11 -15.5t-17 -1.5q-8 3 -11 10.5t-1 19.5q9 78 10 157t0 175h-125zM621 743 q0 30 -13 41t-34 16q-20 6 -28 10t-8 12q0 17 28 17h81q38 0 38 -42v-803q0 -92 -49 -92h-15v841z" />
<glyph unicode="&#xaf84;" horiz-adv-x="785" d="M79 700q-33 0 -33 26t30 26h129q39 0 39 -46q0 -73 -17 -154q-4 -17 -8 -33q8 4 24 4h63q36 0 36 -44v-166h13q61 0 104.5 2.5t89.5 10.5q26 5 30 -7.5t-11 -22.5q-22 -14 -79 -24.5t-140 -10.5h-295q-29 0 -29 26t30 26h223v115q0 29 -8.5 40t-31.5 18q-12 3 -20 8 q-3 1 -4 3q-12 -42 -26 -70q-5 -12 -11.5 -15.5t-15.5 -0.5t-13 9.5t0 20.5q13 45 20.5 110t6.5 149h-96zM304 700q-32 0 -32 26t30 26h156q41 0 41 -46q0 -77 -11 -157t-29 -122q-4 -11 -11.5 -15.5t-16.5 -1.5q-8 3 -11 10t-1 20q9 78 10 131t0 129h-125zM685 191 q0 -91 -49 -91h-15v643q0 30 -13 41t-34 16q-20 6 -28 10t-8 12q0 17 28 17h82q37 0 37 -42v-606zM684 -87h-330q-90 0 -90 86v69q0 29 -10.5 39.5t-34.5 17.5q-19 5 -24 9t-5 13q0 17 28 17h75q36 0 36 -47v-129q0 -21 18 -21h336q33 0 33 -27t-32 -27z" />
<glyph unicode="&#xaf88;" horiz-adv-x="785" d="M79 723q-33 0 -33 27q0 26 30 26h129q39 0 39 -47q0 -72 -17 -141l-6 -22q8 3 22 3h63q36 0 36 -44v-135h13q61 0 104.5 2.5t89.5 10.5q26 5 30 -8t-11 -22q-22 -14 -79 -25t-140 -11h-295q-29 0 -29 27q0 26 30 26h223v85q0 28 -8.5 39t-31.5 18q-12 3 -20 8l-4 2 q-12 -38 -26 -66q-5 -13 -11.5 -16.5t-15.5 -0.5t-13 10t0 21q13 42 20.5 101t6.5 132h-96zM304 723q-32 0 -32 27q0 26 30 26h156q41 0 41 -47q0 -76 -11 -143.5t-29 -109.5q-4 -12 -11.5 -16.5t-16.5 -1.5q-8 3 -11 10.5t-1 19.5q9 58 10 109t0 126h-125zM685 395 q0 -90 -49 -90h-15v438q0 30 -13 41t-34 16q-20 6 -28 10t-8 12q0 17 28 17h82q37 0 37 -41v-403zM677 -101h-347q-52 0 -52 64v58q0 21 -10 31.5t-24 17.5q-8 2 -12.5 5.5t-4.5 12.5q0 16 27 16h359v99h-332q-32 0 -32 26q0 25 30 25h365q34 0 34 -41v-111q0 -48 -41 -48 h-295v-72q0 -31 24 -31h310q32 0 32 -25q0 -27 -31 -27z" />
<glyph unicode="&#xaf90;" horiz-adv-x="785" d="M79 720q-33 0 -33 27q0 26 30 26h129q39 0 39 -47q0 -72 -17 -148q-2 -6 -3 -11q7 2 19 2h63q36 0 36 -44v-166h13q61 0 104.5 2.5t89.5 10.5q26 5 30 -7.5t-11 -22.5q-22 -14 -79 -24.5t-140 -10.5h-295q-29 0 -29 26t30 26h223v116q0 28 -8.5 39t-31.5 18q-12 3 -20 8 h-1q-13 -49 -29 -82q-5 -12 -11.5 -15.5t-15.5 -0.5t-13 9.5t0 19.5q13 46 20.5 105.5t6.5 143.5h-96zM304 720q-32 0 -32 27q0 26 30 26h156q41 0 41 -47q0 -76 -11 -151t-29 -117q-4 -11 -11.5 -15.5t-16.5 -1.5q-8 3 -11 10t-1 19q9 78 10 126.5t0 123.5h-125zM685 343 q0 -90 -49 -90h-15v490q0 30 -13 41t-34 16q-20 6 -28 10t-8 12q0 17 28 17h82q37 0 37 -41v-455zM341 -42h273v195h-272v-163q0 -17 -1 -32zM642 205q36 0 36 -44v-131q0 -48 -15 -72h3q31 0 31 -25q0 -27 -31 -27h-336q-13 -28 -37 -28h-15v219q0 34 -6.5 48.5t-28.5 22.5 q-11 3 -15 8t-4 13q0 16 21 16h397z" />
<glyph unicode="&#xaf91;" horiz-adv-x="785" d="M79 723q-33 0 -33 27q0 26 30 26h129q39 0 39 -47q0 -72 -17 -146l-4 -16q7 2 20 2h63q36 0 36 -44v-156h13q61 0 104.5 2.5t89.5 10.5q26 5 30 -7.5t-11 -21.5q-22 -15 -79 -25.5t-140 -10.5h-295q-29 0 -29 26t30 26h223v106q0 28 -8.5 39t-31.5 18q-12 3 -20 8 q-1 0 -2 1q-12 -45 -28 -76q-5 -12 -11.5 -15.5t-15.5 -0.5t-13 9.5t0 20.5q13 45 20.5 102.5t6.5 141.5h-96zM304 723q-32 0 -32 27q0 26 30 26h156q41 0 41 -47q0 -76 -11 -149t-29 -115q-4 -11 -11.5 -15.5t-16.5 -1.5q-8 3 -11 10t-1 20q9 77 10 123.5t0 121.5h-125z M685 384q0 -90 -49 -90h-15v449q0 30 -13 41t-34 16q-20 6 -28 10t-8 12q0 17 28 17h82q37 0 37 -41v-414zM660 -94h-331q-13 -27 -36 -27h-15v273q0 25 -6 35t-18 13q-11 4 -19 7.5t-8 12.5q0 16 27 16h53q34 0 34 -41v-64h273v43q0 25 -6.5 33.5t-19.5 14.5 q-15 4 -20.5 7.5t-5.5 10.5q0 16 27 16h52q37 0 37 -41v-174q0 -62 -26 -83h8q31 0 31 -25q0 -27 -31 -27zM340 -42h274v121h-273v-88q0 -17 -1 -33z" />
<glyph unicode="&#xaf95;" horiz-adv-x="785" d="M79 720q-33 0 -33 27q0 26 30 26h129q39 0 39 -47q0 -72 -17 -148q-2 -6 -3 -11q7 2 19 2h63q36 0 36 -44v-166h13q61 0 104.5 2.5t89.5 10.5q26 5 30 -7.5t-11 -22.5q-22 -14 -79 -24.5t-140 -10.5h-295q-29 0 -29 26t30 26h223v116q0 28 -8.5 39t-31.5 18q-12 3 -20 8 h-1q-13 -49 -29 -82q-5 -12 -11.5 -15.5t-15.5 -0.5t-13 9.5t0 19.5q13 46 20.5 105.5t6.5 143.5h-96zM304 720q-32 0 -32 27q0 26 30 26h156q41 0 41 -47q0 -76 -11 -151t-29 -117q-4 -11 -11.5 -15.5t-16.5 -1.5q-8 3 -11 10t-1 19q9 78 10 126.5t0 123.5h-125zM685 323 q0 -90 -49 -90h-15v510q0 30 -13 41t-34 16q-20 6 -28 10t-8 12q0 17 28 17h82q37 0 37 -41v-475zM295 56q0 71 54 122t135 51q83 0 138.5 -51t55.5 -122q0 -72 -55.5 -122.5t-138.5 -50.5q-81 0 -135 50.5t-54 122.5zM360 56q0 -49 35.5 -84t88.5 -35q56 0 92 35t36 84 t-36 83.5t-92 34.5q-53 0 -88.5 -34.5t-35.5 -83.5z" />
<glyph unicode="&#xaf9c;" d="M137 680q-33 0 -33 27q0 26 31 26h192q40 0 40 -43q-1 -99 -34 -218q-10 -37 -21 -69h23q30 0 30 -34v-258h117v215q0 28 -7.5 38t-25.5 17q-15 4 -20.5 8.5t-5.5 12.5q0 16 31 16h52q37 0 37 -44v-263h219q34 0 34 -26t-34 -26h-699q-30 0 -30 26t30 26h241v205 q0 26 -7 38q-1 0 -1 1q-15 -38 -30 -67q-7 -10 -15.5 -15t-17.5 -1q-9 3 -11 10t3 18q30 71 51.5 178.5t21.5 201.5h-161zM437 680q-31 0 -31 27q0 26 29 26h196q42 0 42 -47q0 -79 -13 -212.5t-35 -185.5q-4 -11 -13 -15.5t-18 -1.5q-8 3 -10 9.5t1 19.5q14 78 16.5 186.5 t1.5 193.5h-166z" />
<glyph unicode="&#xafb8;" d="M137 726q-33 0 -33 27q0 26 31 26h192q41 0 40 -43q-1 -67 -14.5 -173t-33.5 -146q-5 -11 -13.5 -15t-17.5 -1q-8 3 -10 9.5t2 19.5q14 73 16 129t2 167h-161zM437 726q-31 0 -31 27q0 26 29 26h191q42 0 42 -45q0 -41 -10 -153t-32 -164q-4 -11 -13 -15.5t-18 -1.5 q-8 3 -9.5 9.5t0.5 19.5q11 85 12 148.5t0 148.5h-161zM446 282v-285q0 -95 -45 -95h-18v380h-320q-30 0 -30 27q0 25 30 25h700q33 0 33 -25q0 -27 -33 -27h-317z" />
<glyph unicode="&#xafb9;" d="M137 737q-33 0 -33 26t31 26h192q41 0 40 -43q-1 -77 -14 -172q-11 -85 -27 -126h262v2q11 78 11 140t-1 147h-161q-31 0 -31 26t29 26h191q42 0 42 -45q0 -41 -10 -148q-9 -97 -26 -148h131q33 0 33 -26t-33 -26h-317v-105q0 -57 -17 -79h172q36 0 36 -42v-194 q0 -92 -45 -92h-19v276h-388q-27 0 -27 27q0 25 25 25h200v184h-320q-30 0 -30 26t30 26h218q1 1 1 3q13 66 14.5 120t1.5 166h-161z" />
<glyph unicode="&#xafbc;" d="M137 718q-33 0 -33 27q0 25 31 25h192q41 0 40 -43q-1 -66 -14.5 -169.5t-33.5 -143.5q-2 -4 -4 -7h270q-1 6 1 19q11 85 12 146t0 146h-161q-31 0 -31 27q0 25 29 25h191q42 0 42 -45q0 -41 -10 -150t-32 -161q-1 -4 -3 -7h139q34 0 34 -26t-34 -26h-300v-165 q0 -94 -47 -94h-17v259h-335q-30 0 -30 26t30 26h216v1q-3 6 1 19q14 73 16 126.5t2 164.5h-161zM629 -87h-337q-90 0 -90 87v115q0 29 -12.5 39.5t-32.5 17.5q-21 6 -26 10t-5 12q0 17 29 17h74q37 0 37 -47v-176q0 -21 19 -21h343q32 0 32 -27t-31 -27z" />
<glyph unicode="&#xafc0;" d="M137 744q-33 0 -33 26t31 26h192q41 0 40 -43q-1 -77 -13.5 -154t-31.5 -117q-3 -3 -4 -6h269q-1 6 1 18q10 71 10 128v122h-161q-31 0 -31 26t29 26h191q42 0 42 -45q0 -41 -10 -129.5t-30 -139.5q-1 -3 -3 -6h138q33 0 33 -26q0 -27 -33 -27h-317v-71q0 -37 -7 -60h170 q34 0 34 -41v-130q0 -49 -40 -49h-337v-91q0 -30 24 -30h352q32 0 32 -26t-31 -26h-380q-61 0 -61 72v68q0 22 -8.5 32t-24.5 17q-8 3 -13.5 7t-5.5 12q0 16 27 16h402v118h-374q-32 0 -32 25q0 26 30 26h180v131h-320q-30 0 -30 27q0 26 30 26h217q-1 6 2 19 q12 56 13.5 115.5t2.5 133.5h-161z" />
<glyph unicode="&#xafc7;" d="M137 744q-33 0 -33 26t31 26h192q41 0 40 -43q-1 -77 -13.5 -154t-31.5 -117q-3 -3 -4 -6h269q-1 6 1 18q10 71 10 128v122h-161q-31 0 -31 26t29 26h191q42 0 42 -45q0 -41 -10 -129.5t-30 -139.5q-1 -3 -3 -6h138q33 0 33 -26q0 -27 -33 -27h-317v-71q0 -93 -45 -93 h-18v164h-320q-30 0 -30 27q0 26 30 26h217q-1 6 2 19q12 56 13.5 115.5t2.5 133.5h-161zM168 241q-32 0 -32 26q0 25 30 25h175q34 0 34 -40v-134q0 -46 -34 -46h-118v-96q0 -25 18 -25h130q31 0 31 -25q0 -27 -30 -27h-153q-58 0 -58 70v70q0 22 -4 33t-22 19 q-7 4 -10 6.5t-3 10.5q0 14 20 14h170v119h-144zM709 107h-47q35 -35 35 -88q0 -55 -37.5 -94t-96.5 -39q-57 0 -94.5 39t-37.5 94q0 53 36 88h-35q-32 0 -32 23q0 25 32 25h277q31 0 31 -25q0 -23 -31 -23zM636 19q0 36 -21 61.5t-51 25.5q-29 0 -50 -25.5t-21 -61.5 t21 -61.5t50 -25.5q30 0 51 25.5t21 61.5zM498 245l-28 23q-8 7 -9.5 15t4.5 16q5 7 13.5 6t17.5 -6q39 -18 62.5 -22.5t62.5 -4.5q29 0 29 -26q0 -12 -7.5 -18.5t-19.5 -6.5l-67 1q-30 0 -58 23z" />
<glyph unicode="&#xafc8;" d="M266 -42h311v213h-310v-181q0 -17 -1 -32zM383 224v169h-320q-30 0 -30 26t30 26h217q0 6 2 16q13 64 14.5 121.5t1.5 154.5h-161q-33 0 -33 26t31 26h192q41 0 40 -43q-1 -77 -13.5 -167.5t-31.5 -130.5q-1 -2 -3 -3h268q0 6 1 15q11 77 11 135.5t-1 141.5h-161 q-31 0 -31 26t29 26h191q42 0 42 -45q0 -41 -10 -143t-30 -153q-1 -2 -1 -3h135q34 0 34 -26t-34 -26h-315v-96q0 -51 -14 -73h171q36 0 36 -44v-140q0 -60 -25 -82h8q30 0 30 -25q0 -27 -30 -27h-368q-11 -28 -36 -28h-15v237q0 35 -4.5 49t-27.5 23q-11 3 -16 7.5t-5 12.5 q0 17 25 17h207z" />
<glyph unicode="&#xafc9;" d="M137 744q-33 0 -33 26t31 26h192q41 0 40 -43q-1 -77 -13.5 -162.5t-31.5 -125.5q-3 -5 -6 -8h272v1q-2 6 0 20q11 76 11 129.5t-1 136.5h-161q-31 0 -31 26t29 26h191q42 0 42 -45q0 -41 -10 -137.5t-30 -148.5q-2 -5 -4 -8h138q34 0 34 -25q0 -27 -34 -27h-315v-81 q0 -92 -47 -92h-17v173h-320q-30 0 -30 27q0 25 30 25h218v2q-2 6 1 20q13 63 14 126t2 139h-161zM623 -94h-368q-12 -27 -36 -27h-15v308q0 24 -5.5 34.5t-18.5 13.5q-11 4 -18.5 7.5t-7.5 11.5q0 17 26 17h53q34 0 34 -41v-83h310v57q0 25 -7 33.5t-20 13.5q-14 4 -20 8 t-6 11q0 16 27 16h52q37 0 37 -41v-204q0 -62 -26 -83h9q30 0 30 -25q0 -27 -30 -27zM266 -42h311v137h-310v-104q0 -17 -1 -33z" />
<glyph unicode="&#xafcb;" d="M137 737q-33 0 -33 26t31 26h192q41 0 40 -43q-1 -77 -13.5 -165t-31.5 -128q-3 -5 -6 -8h272v1q-2 6 0 19q11 77 11 133t-1 139h-161q-31 0 -31 26t29 26h191q42 0 42 -45q0 -41 -10 -140.5t-30 -150.5q-2 -5 -4 -8h138q34 0 34 -26t-34 -26h-315v-52q0 -57 -18 -78 q23 -4 30 -18q9 -18 4 -43q-8 -42 -42 -90l268 -148q17 -10 20.5 -26.5t-7.5 -27.5q-9 -10 -22 -10t-32 13l-250 170q-15 -18 -32 -37q-85 -87 -189 -146q-29 -16 -37.5 -2t15.5 31q79 53 149.5 132.5t87.5 130.5q7 20 -11.5 28t-34.5 11t-15 18t22 15h30v129h-320 q-30 0 -30 26t30 26h218v2q-2 6 1 19q13 64 14.5 119t1.5 152h-161z" />
<glyph unicode="&#xafcd;" d="M137 737q-33 0 -33 26t31 26h192q41 0 40 -43q-1 -77 -13.5 -165t-31.5 -128q-3 -5 -6 -8h272v1q-2 6 0 19q11 77 11 133t-1 139h-161q-31 0 -31 26t29 26h191q42 0 42 -45q0 -41 -10 -140.5t-30 -150.5q-2 -5 -4 -8h138q34 0 34 -26t-34 -26h-316v-75q0 -44 -10 -68 q70 -6 122 -52q60 -54 60 -131t-60 -130.5t-144 -53.5t-144.5 53.5t-60.5 130.5t60 131q49 43 114 51v144h-320q-30 0 -30 26t30 26h218v2q-2 6 1 19q13 64 14.5 119t1.5 152h-161zM274 67q0 -53 40.5 -91.5t99.5 -38.5q58 0 98.5 38.5t40.5 91.5t-40.5 91.5t-98.5 38.5 q-59 0 -99.5 -38.5t-40.5 -91.5z" />
<glyph unicode="&#xafce;" d="M137 737q-33 0 -33 26t31 26h192q41 0 40 -43q-1 -77 -13.5 -167.5t-31.5 -130.5q-1 -2 -3 -3h268q0 6 1 15q11 77 11 135.5t-1 141.5h-161q-31 0 -31 26t29 26h191q42 0 42 -45q0 -41 -10 -143t-30 -153q-1 -2 -1 -3h135q34 0 34 -26t-34 -26h-315v-96q0 -51 -14 -73 h141q31 0 43.5 -15.5t3.5 -39.5q-21 -57 -134 -129l214 -80q35 -13 22 -41t-53 -11l-227 105q-134 -78 -282 -116q-23 -6 -28 12.5t13 23.5q81 25 197.5 88t202.5 150h-329q-33 0 -33 27q0 26 30 26h169v169h-320q-30 0 -30 26t30 26h217q0 6 2 16q13 64 14.5 121.5 t1.5 154.5h-161z" />
<glyph unicode="&#xafd4;" horiz-adv-x="785" d="M74 712q-33 0 -33 27q0 25 30 25h129q39 0 39 -46q0 -88 -13 -179.5t-32 -144.5q-3 -5 -5 -9h215v1q-3 8 -1 20q10 78 11 135.5t0 170.5h-115q-32 0 -32 27q0 25 30 25h145q41 0 41 -46q0 -77 -9.5 -169t-30.5 -156l-2 -6q10 0 19 2q43 2 89 10q26 5 30 -8t-11 -22 q-22 -14 -79 -25t-140 -11h-35v-319q0 -91 -45 -91h-19v410h-196q-29 0 -29 27q0 25 30 25h101q-1 0 -1 1q-3 7 -1 19q9 56 13 118.5t3 188.5h-96zM621 743q0 30 -13 41t-34 16q-20 6 -28 10t-8 12q0 17 28 17h82q37 0 37 -42v-803q0 -92 -49 -92h-15v254h-167q-33 0 -33 26 q0 25 33 25h167v536z" />
<glyph unicode="&#xafdc;" horiz-adv-x="785" d="M74 734q-33 0 -33 26t30 26h129q39 0 39 -46q0 -54 -13 -112t-32 -98q-3 -5 -5 -8h215v1q-4 7 -1 19q10 42 11 87t0 105h-115q-32 0 -32 26t30 26h145q41 0 41 -46q0 -65 -9.5 -115.5t-30.5 -94.5q-1 -4 -3 -6q11 0 20 1q43 2 89 10q26 5 30 -8t-11 -22q-22 -14 -79 -25 t-140 -11h-37v-141q0 -65 -45 -65h-20v206h-193q-29 0 -29 27q0 26 30 26h100q-1 0 -1 1q-3 6 0 18q9 44 13 84.5t3 108.5h-96zM621 743q0 30 -13 41t-34 16q-20 6 -28 10t-8 12q0 17 28 17h81q38 0 38 -41v-438q0 -91 -49 -91h-15v75h-167q-33 0 -33 27q0 26 33 26h167v346 zM677 -101h-347q-52 0 -52 64v46q0 21 -10 31.5t-24 17.5q-8 2 -12.5 5.5t-4.5 12.5q0 16 27 16h359v88h-332q-32 0 -32 25q0 26 30 26h365q34 0 34 -41v-101q0 -48 -41 -48h-295v-59q0 -31 24 -31h310q32 0 32 -25q0 -27 -31 -27z" />
<glyph unicode="&#xafe8;" horiz-adv-x="785" d="M74 726q-33 0 -33 27q0 26 30 26h129q39 0 39 -46q0 -54 -13 -126.5t-32 -111.5q-1 -3 -3 -5h212q-3 7 0 17q10 45 11 102.5t0 116.5h-115q-32 0 -32 27q0 26 30 26h145q41 0 41 -46q0 -65 -9.5 -129.5t-30.5 -108.5q-1 -2 -1 -3q9 0 18 1q43 2 89 10q26 5 30 -7.5 t-11 -22.5q-22 -14 -79 -24.5t-140 -10.5h-37v-156q0 -66 -45 -66h-20v222h-193q-29 0 -29 26t30 26h98q-2 6 1 16q9 44 13 98.5t3 121.5h-96zM621 743q0 30 -13 41t-34 16q-20 6 -28 10t-8 12q0 17 28 17h81q38 0 38 -41v-490q0 -92 -49 -92h-15v85h-167q-33 0 -33 27 q0 26 33 26h167v389zM373 115q-7 -22 -22 -46l123 -81q6 7 13 14q43 53 69 116q5 12 -4.5 20.5t-29.5 14.5q-11 3 -15.5 6t-4.5 9q0 17 25 17h59q27 0 36 -19t2 -44q-8 -26 -23 -55l139 -87q21 -12 24.5 -28t-4.5 -28q-9 -13 -25 -13.5t-27 10.5l-131 109q-13 -16 -28 -34 q-60 -68 -127 -105q-10 -5 -19 -5.5t-14 3.5q-4 5 -3.5 11.5t7.5 12.5q21 16 40 33l-106 89q-14 -16 -29 -33q-58 -60 -123 -98q-10 -6 -19 -4.5t-12 6.5q-2 5 -0.5 13t10.5 13q42 29 84.5 76.5t65.5 101.5q6 12 -2.5 21.5t-29.5 15.5q-14 4 -17.5 6.5t-3.5 9.5q0 16 27 16 h59q27 0 35 -20t1 -44z" />
<glyph unicode="&#xafe9;" horiz-adv-x="785" d="M74 726q-33 0 -33 27q0 26 30 26h129q39 0 39 -46q0 -54 -13 -126.5t-32 -111.5q-1 -3 -3 -5h212q-3 7 0 17q10 45 11 102.5t0 116.5h-115q-32 0 -32 27q0 26 30 26h145q41 0 41 -46q0 -65 -9.5 -129.5t-30.5 -108.5q-1 -2 -1 -3q9 0 18 1q43 2 89 10q26 5 30 -7.5 t-11 -22.5q-22 -14 -79 -24.5t-140 -10.5h-37v-182q0 -65 -45 -65h-20v247h-193q-29 0 -29 26t30 26h98q-2 6 1 16q9 44 13 98.5t3 121.5h-96zM621 743q0 30 -13 41t-34 16q-20 6 -28 10t-8 12q0 17 28 17h81q38 0 38 -41v-506q0 -91 -49 -91h-15v100h-167q-33 0 -33 27 q0 26 33 26h167v389zM285 38q0 69 56 112.5t139 43.5q84 0 141 -43.5t57 -112.5q0 -68 -57 -111.5t-141 -43.5q-83 0 -139 43.5t-56 111.5zM350 38q0 -44 37.5 -72.5t92.5 -28.5q57 0 94.5 28.5t37.5 72.5t-37.5 73t-94.5 29q-55 0 -92.5 -29t-37.5 -73z" />
<glyph unicode="&#xaff0;" d="M70 689q-33 0 -33 26t30 26h111q39 0 39 -46q0 -88 -13 -170t-32 -129q-1 -3 -2 -5h88q49 0 87 2q-2 6 0 15q9 62 10.5 126t0.5 155h-78q-32 0 -32 26t28 26h109q41 0 41 -46q0 -62 -10 -153.5t-30 -145.5v-1q33 3 68 9q26 5 29.5 -8t-10.5 -22q-22 -14 -79 -24 q-47 -10 -110 -12v-283q0 -91 -45 -91h-20v374h-163q-29 0 -29 27q0 26 29 26h79q-3 7 0 18q11 51 15 118t2 162h-80zM630 839h78q38 0 38 -42v-803q0 -92 -50 -92h-14v842q0 30 -12 41t-36 17q-20 4 -27.5 8t-7.5 12q0 17 31 17zM468 796h78q37 0 37 -44v-696 q0 -92 -49 -92h-15v222h-130q-33 0 -33 25q0 27 33 27h130v462q0 31 -11 41.5t-35 17.5q-19 5 -26.5 10t-7.5 12q0 15 29 15z" />
<glyph unicode="&#xaff1;" d="M75 705q-33 0 -33 27q0 25 30 25h111q39 0 39 -46q0 -64 -12.5 -127t-32.5 -105q-1 -3 -3 -6h93q46 0 82 2q-1 6 1 16q9 41 10.5 88.5t0.5 125.5h-78q-32 0 -32 27q0 25 29 25h108q41 0 41 -46q0 -61 -9.5 -126t-30.5 -106q0 -1 -1 -1q36 3 73 9q26 5 30 -8t-11 -22 q-22 -14 -79 -24q-50 -11 -117 -12v-171q0 -65 -44 -65h-21v236h-165q-29 0 -29 27q0 25 29 25h83q-3 7 1 19q9 36 14 91.5t3 121.5h-80zM630 839h78q38 0 38 -41v-521q0 -91 -50 -91h-14v558q0 30 -12 41t-36 17q-20 4 -27.5 8t-7.5 12q0 17 31 17zM477 796h78q37 0 37 -43 v-466q0 -91 -49 -91h-15v95h-133q-33 0 -33 26t33 26h133v357q0 31 -11 41.5t-35 17.5q-19 5 -26 10t-7 12q0 15 28 15zM257 96q-28 0 -28 26t26 26h443q36 0 36 -42v-131q0 -91 -45 -91h-18v212h-414z" />
<glyph unicode="&#xaff4;" d="M75 700q-33 0 -33 26t30 26h111q39 0 39 -46q0 -65 -12.5 -132t-32.5 -108q-2 -5 -5 -8h95q46 0 83 1v1q-3 5 0 19q9 41 10.5 92t0.5 129h-78q-32 0 -32 26t29 26h108q41 0 41 -46q0 -61 -9.5 -130t-30.5 -110q-1 -2 -3 -4q37 2 75 9q26 6 30 -7t-11 -22q-22 -15 -79 -25 q-50 -10 -117 -11v-151q0 -65 -44 -65h-21v216h-165q-29 0 -29 27q0 25 29 25h85q-1 1 -2 3q-3 5 1 19q9 35 14 94.5t3 125.5h-80zM630 841h78q38 0 38 -42v-625q0 -92 -50 -92h-14v664q0 30 -12 41t-36 17q-20 4 -27.5 8.5t-7.5 11.5q0 17 31 17zM477 798h78q37 0 37 -43 v-569q0 -92 -49 -92h-15v175h-133q-33 0 -33 25q0 27 33 27h133v381q0 31 -11 41.5t-35 17.5q-19 5 -26 10t-7 12q0 15 28 15zM730 -87h-371q-90 0 -90 86v49q0 28 -10.5 39t-34.5 18q-19 5 -23.5 8.5t-4.5 12.5q0 18 27 18h75q36 0 36 -47v-109q0 -21 18 -21h377 q33 0 33 -27t-32 -27z" />
<glyph unicode="&#xaff8;" d="M75 715q-33 0 -33 27q0 25 30 25h111q39 0 39 -46q0 -56 -12.5 -110.5t-32.5 -90.5q-2 -5 -4 -8h94q45 0 82 1q-3 7 1 19q9 36 10.5 84.5t0.5 98.5h-78q-32 0 -32 27q0 25 29 25h108q41 0 41 -46q0 -56 -9.5 -108.5t-30.5 -92.5q-1 -2 -2 -3q36 2 74 9q26 5 30 -8 t-11 -22q-22 -14 -79 -25q-50 -10 -117 -11v-152q0 -66 -44 -66h-21v218h-165q-29 0 -29 27q0 25 29 25h84q-1 1 -1 2q-3 6 1 18q9 32 14 75t3 108h-80zM630 839h78q38 0 38 -41v-454q0 -91 -50 -91h-14v491q0 30 -12 41t-36 17q-20 4 -27.5 8t-7.5 12q0 17 31 17zM477 796 h78q37 0 37 -43v-397q0 -91 -49 -91h-15v82h-133q-33 0 -33 25q0 27 33 27h133v301q0 31 -11 41.5t-35 17.5q-19 5 -26 10t-7 12q0 15 28 15zM733 -101h-367q-53 0 -53 64v43q0 21 -9.5 31.5t-23.5 17.5q-9 2 -13 5.5t-4 12.5q0 15 27 15h380v84h-354q-31 0 -31 26t29 26 h386q34 0 34 -41v-97q0 -48 -41 -48h-315v-55q0 -32 23 -32h331q32 0 32 -25q0 -27 -31 -27z" />
<glyph unicode="&#xb000;" d="M75 705q-33 0 -33 27q0 25 30 25h111q39 0 39 -46q0 -64 -12.5 -124.5t-32.5 -102.5q-1 -2 -1 -3h91q45 0 81 1q0 6 2 14q9 41 10.5 86t0.5 123h-78q-32 0 -32 27q0 25 29 25h108q41 0 41 -46q0 -61 -9 -124q-10 -61 -31 -102q35 3 72 9q26 5 30 -8t-11 -22 q-22 -14 -79 -24q-50 -11 -117 -12v-159q0 -66 -44 -66h-21v225h-165q-29 0 -29 27q0 26 29 26h82q-1 6 2 16q9 36 14 89t3 119h-80zM630 839h78q38 0 38 -41v-492q0 -92 -50 -92h-14v530q0 30 -12 41t-36 17q-20 4 -27.5 8t-7.5 12q0 17 31 17zM477 796h78q37 0 37 -43 v-442q0 -91 -49 -91h-15v85h-133q-33 0 -33 25q0 27 33 27h133v343q0 31 -11 41.5t-35 17.5q-19 5 -26 10t-7 12q0 15 28 15zM367 -42h304v166h-303v-134q0 -17 -1 -32zM698 177q36 0 36 -43v-104q0 -48 -15 -72h3q32 0 32 -25q0 -27 -32 -27h-367q-12 -28 -37 -28h-15v190 q0 35 -6 49t-29 23q-10 3 -14 7.5t-4 12.5q0 17 20 17h428z" />
<glyph unicode="&#xb001;" d="M75 715q-33 0 -33 27q0 25 30 25h111q39 0 39 -46q0 -64 -12.5 -119t-32.5 -97q-2 -5 -5 -8h95q46 0 83 1v1q-3 5 0 19q9 40 10.5 79.5t0.5 117.5h-78q-32 0 -32 27q0 25 29 25h108q41 0 41 -46q0 -61 -9.5 -118t-30.5 -98q-1 -2 -3 -4q37 2 75 9q26 5 30 -7.5t-11 -21.5 q-22 -15 -79 -25q-50 -10 -117 -11v-152q0 -65 -44 -65h-21v217h-165q-29 0 -29 26t29 26h85q-1 1 -2 3q-3 5 1 19q9 35 14 83t3 113h-80zM630 839h78q38 0 38 -41v-468q0 -91 -50 -91h-14v505q0 30 -12 41t-36 17q-20 4 -27.5 8t-7.5 12q0 17 31 17zM477 796h78 q37 0 37 -43v-423q0 -91 -49 -91h-15v77h-133q-33 0 -33 25q0 27 33 27h133v332q0 31 -11 41.5t-35 17.5q-19 5 -26 10t-7 12q0 15 28 15zM717 -94h-358q-12 -27 -35 -27h-16v230q0 25 -5.5 35t-17.5 13q-12 4 -19.5 7.5t-7.5 12.5q0 16 27 16h53q34 0 34 -41v-41h299v18 q0 25 -7 33.5t-20 14.5q-14 4 -20 7.5t-6 10.5q0 16 27 16h52q37 0 37 -40v-129q0 -63 -26 -84h9q31 0 31 -25q0 -27 -31 -27zM371 -42h300v101h-299v-68q0 -17 -1 -33z" />
<glyph unicode="&#xb004;" d="M75 705q-33 0 -33 27q0 25 30 25h111q39 0 39 -46q0 -64 -12.5 -124.5t-32.5 -102.5q-1 -2 -1 -3h91q45 0 81 1q0 6 2 14q9 41 10.5 86t0.5 123h-78q-32 0 -32 27q0 25 29 25h108q41 0 41 -46q0 -61 -9 -124q-10 -61 -31 -102q35 3 72 9q26 5 30 -8t-11 -22 q-22 -14 -79 -24q-50 -11 -117 -12v-159q0 -66 -44 -66h-21v225h-165q-29 0 -29 27q0 26 29 26h82q-1 6 2 16q9 36 14 89t3 119h-80zM630 839h78q38 0 38 -41v-492q0 -92 -50 -92h-14v530q0 30 -12 41t-36 17q-20 4 -27.5 8t-7.5 12q0 17 31 17zM477 796h78q37 0 37 -43 v-442q0 -91 -49 -91h-15v85h-133q-33 0 -33 25q0 27 33 27h133v343q0 31 -11 41.5t-35 17.5q-19 5 -26 10t-7 12q0 15 28 15zM378 115q-6 -20 -19 -41l138 -84q5 6 11 12q43 53 69 116q5 12 -5 20.5t-29 14.5q-12 3 -16.5 6t-4.5 9q0 17 26 17h58q28 0 36.5 -19t1.5 -44 t-21 -52l143 -90q20 -12 24 -28t-5 -28q-9 -13 -25 -13.5t-27 10.5l-134 112q-13 -18 -30 -37q-59 -68 -127 -105q-10 -5 -18.5 -5.5t-13.5 3.5q-4 5 -3.5 11.5t7.5 12.5q21 17 42 35l-120 92q-14 -19 -33 -38q-58 -60 -123 -98q-10 -6 -18.5 -4.5t-11.5 6.5t-1 13t10 13 q42 29 83.5 76.5t66.5 101.5q6 12 -2.5 21.5t-28.5 15.5q-15 4 -18.5 6.5t-3.5 9.5q0 16 27 16h59q27 0 35 -20t1 -44z" />
<glyph unicode="&#xb00c;" horiz-adv-x="785" d="M74 712q-33 0 -33 27q0 25 30 25h129q39 0 39 -46q0 -88 -13 -184.5t-32 -150.5q-3 -6 -6 -10h218q0 2 -2 3q-3 7 -1 20q10 77 11 140t0 176h-115q-32 0 -32 27q0 25 30 25h145q41 0 41 -46q0 -77 -9.5 -174t-30.5 -162q-1 -4 -3 -7q10 0 20 1q43 2 89 10q26 6 30 -7 t-11 -22q-22 -15 -79 -25.5t-140 -10.5h-35v-307q0 -91 -45 -91h-19v398h-196q-29 0 -29 27q0 25 30 25h102q-1 1 -2 3q-3 6 -1 19q9 56 13 123.5t3 193.5h-96zM621 -98v841q0 30 -13 41t-34 16q-20 6 -28 10t-8 12q0 17 28 17h82q37 0 37 -42v-803q0 -92 -49 -92h-15z" />
<glyph unicode="&#xb010;" horiz-adv-x="785" d="M74 721q-33 0 -33 27q0 26 30 26h129q39 0 39 -47q0 -65 -13 -152t-32 -126q-1 -3 -4 -6h213q-3 7 0 18q10 45 11 112t0 148h-115q-32 0 -32 27q0 26 30 26h145q41 0 41 -47q0 -73 -9.5 -152t-30.5 -126l-2 -4q10 0 19 1q43 2 89 10q26 5 30 -7.5t-11 -22.5 q-22 -14 -79 -24.5t-140 -10.5h-37v-141q0 -65 -45 -65h-20v206h-193q-29 0 -29 26t30 26h99q-3 6 0 17q9 44 13 109.5t3 151.5h-96zM621 82v661q0 30 -13 41t-34 16q-20 6 -28 10t-8 12q0 17 28 17h81q38 0 38 -42v-623q0 -92 -49 -92h-15zM685 -87h-329q-90 0 -90 86v44 q0 29 -10.5 40t-34.5 18q-19 5 -23.5 8.5t-4.5 12.5q0 18 27 18h75q36 0 36 -47v-105q0 -21 18 -21h335q33 0 33 -27t-32 -27z" />
<glyph unicode="&#xb014;" horiz-adv-x="785" d="M74 734q-33 0 -33 26t30 26h129q39 0 39 -46q0 -54 -13 -123t-32 -108q-3 -5 -5 -8h215v1q-4 7 -1 20q10 42 11 97t0 115h-115q-32 0 -32 26t30 26h145q41 0 41 -46q0 -65 -9.5 -126t-30.5 -105q-1 -4 -3 -6q11 0 20 1q43 2 89 10q26 6 30 -7t-11 -22q-22 -15 -79 -25.5 t-140 -10.5h-37v-100q0 -65 -45 -65h-20v165h-193q-29 0 -29 27q0 25 30 25h100q-1 0 -1 1q-3 6 0 19q9 44 13 94.5t3 118.5h-96zM621 290v453q0 30 -13 41t-34 16q-20 6 -28 10t-8 12q0 17 28 17h81q38 0 38 -41v-417q0 -91 -49 -91h-15zM677 -101h-347q-52 0 -52 64v54 q0 21 -10 31.5t-24 17.5q-8 2 -12.5 5.5t-4.5 12.5q0 16 27 16h359v96h-332q-32 0 -32 26q0 25 30 25h365q34 0 34 -41v-108q0 -48 -41 -48h-295v-68q0 -31 24 -31h310q32 0 32 -25q0 -27 -31 -27z" />
<glyph unicode="&#xb01c;" horiz-adv-x="785" d="M74 726q-33 0 -33 27q0 26 30 26h129q39 0 39 -46q0 -54 -13 -131.5t-32 -116.5l-6 -10h218q-2 2 -2 3q-4 7 -1 19q10 45 11 107.5t0 121.5h-115q-32 0 -32 27q0 26 30 26h145q41 0 41 -46q0 -65 -9.5 -134.5t-30.5 -113.5q-2 -5 -4 -8q11 0 21 1q43 2 89 10q26 5 30 -8 t-11 -22q-22 -14 -79 -25t-140 -11h-37v-125q0 -65 -45 -65h-20v190h-193q-29 0 -29 27q0 26 30 26h101q-1 1 -2 3q-3 6 0 18q9 44 13 103.5t3 126.5h-96zM621 232v511q0 30 -13 41t-34 16q-20 6 -28 10t-8 12q0 17 28 17h81q38 0 38 -41v-475q0 -91 -49 -91h-15zM341 -42 h273v179h-272v-147q0 -17 -1 -32zM642 189q36 0 36 -44v-115q0 -48 -15 -72h3q31 0 31 -25q0 -27 -31 -27h-336q-13 -28 -37 -28h-15v202q0 35 -6.5 49.5t-28.5 22.5q-11 3 -15 7.5t-4 12.5q0 17 21 17h397z" />
<glyph unicode="&#xb01d;" horiz-adv-x="785" d="M74 734q-33 0 -33 26t30 26h129q39 0 39 -46q0 -54 -13 -128.5t-32 -113.5q-1 -3 -4 -6h213q-3 7 0 18q10 42 11 103t0 121h-115q-32 0 -32 26t30 26h145q41 0 41 -46q0 -65 -9.5 -131.5t-30.5 -110.5l-2 -4q10 0 19 1q43 2 89 10q26 5 30 -7.5t-11 -21.5 q-22 -15 -79 -25.5t-140 -10.5h-37v-108q0 -64 -45 -64h-20v172h-193q-29 0 -29 26t30 26h99q-3 6 0 17q9 44 13 100.5t3 124.5h-96zM621 278v465q0 30 -13 41t-34 16q-20 6 -28 10t-8 12q0 17 28 17h81q38 0 38 -41v-429q0 -91 -49 -91h-15zM660 -94h-331q-13 -27 -36 -27 h-15v259q0 24 -6 34.5t-18 13.5q-11 4 -19 7.5t-8 11.5q0 17 27 17h53q34 0 34 -40v-60h273v36q0 25 -6.5 33.5t-19.5 13.5q-15 4 -20.5 7.5t-5.5 11.5q0 16 27 16h52q37 0 37 -40v-158q0 -63 -27 -84h9q31 0 31 -25q0 -27 -31 -27zM340 -42h274v112h-273v-76q0 -19 -1 -36z " />
<glyph unicode="&#xb028;" d="M137 726q-33 0 -33 27q0 26 31 26h192q41 0 40 -43q-1 -67 -14.5 -173t-33.5 -146q-5 -11 -13.5 -15t-17.5 -1q-8 3 -10 9.5t2 19.5q14 73 16 129t2 167h-161zM437 726q-31 0 -31 27q0 26 29 26h191q42 0 42 -45q0 -41 -10 -153t-32 -164q-4 -11 -13 -15.5t-18 -1.5 q-8 3 -9.5 9.5t0.5 19.5q11 85 12 148.5t0 148.5h-161zM316 282v-285q0 -95 -46 -95h-15v380h-192q-30 0 -30 27q0 25 30 25h699q34 0 34 -25q0 -27 -34 -27h-179v-285q0 -95 -46 -95h-16v380h-205z" />
<glyph unicode="&#xb044;" d="M137 680q-33 0 -33 27q0 26 31 26h192q40 0 40 -43q-1 -101 -18.5 -252t-37.5 -191q-5 -11 -13.5 -15t-17.5 -1t-10.5 9.5t1.5 20.5q15 69 21 188.5t6 230.5h-161zM437 680q-31 0 -31 27q0 26 29 26h191q42 0 42 -47q0 -79 -13 -233t-35 -206q-5 -11 -13.5 -15.5 t-17.5 -1.5q-8 3 -10 9.5t1 19.5q14 67 16.5 201.5t1.5 219.5h-161zM763 59h-700q-30 0 -30 26q0 27 30 27h700q33 0 33 -27q0 -26 -33 -26z" />
<glyph unicode="&#xb045;" d="M137 737q-33 0 -33 26t31 26h192q41 0 40 -43q-1 -77 -13.5 -180.5t-31.5 -143.5q-3 -3 -4 -6h269q-1 6 1 19q11 77 11 147t-1 155h-161q-31 0 -31 26t29 26h191q42 0 42 -45q0 -41 -10 -156t-30 -166q-1 -3 -3 -6h138q33 0 33 -25q0 -28 -33 -28h-700q-30 0 -30 28 q0 25 30 25h217q-1 6 2 20q13 65 14.5 127t1.5 174h-161zM185 160q-27 0 -27 27q0 25 25 25h418q36 0 36 -42v-194q0 -92 -45 -92h-19v276h-388z" />
<glyph unicode="&#xb048;" d="M137 728q-33 0 -33 27q0 26 31 26h192q41 0 40 -43q-1 -67 -14.5 -188.5t-33.5 -160.5q-3 -7 -7 -11h274v3q-2 6 0 20q11 85 12 163.5t0 163.5h-161q-31 0 -31 27q0 26 29 26h191q42 0 42 -45q0 -41 -10 -168t-32 -179q-2 -7 -6 -11h142q34 0 34 -25q0 -28 -34 -28h-699 q-30 0 -30 28q0 25 30 25h217q-1 2 -1 4q-3 7 1 20q14 73 16 144t2 182h-161zM629 -87h-337q-90 0 -90 87v105q0 29 -12.5 39.5t-32.5 17.5q-21 5 -26 9.5t-5 12.5q0 17 29 17h74q37 0 37 -47v-166q0 -21 19 -21h343q32 0 32 -27t-31 -27z" />
<glyph unicode="&#xb04a;" d="M137 744q-33 0 -33 26t31 26h192q41 0 40 -43q-1 -77 -13.5 -177.5t-31.5 -140.5q-3 -5 -5 -8h270q-1 7 1 20q11 77 11 145.5t-1 151.5h-161q-31 0 -31 26t29 26h191q42 0 42 -45q0 -41 -10 -153t-30 -163q-1 -5 -3 -8h137q34 0 34 -25q0 -28 -34 -28h-699q-30 0 -30 28 q0 25 30 25h218v1q-2 7 1 20q13 63 14.5 131.5t1.5 164.5h-161zM481 241l-27 23q-9 7 -10.5 15t5.5 16q5 6 13.5 5t16.5 -5q39 -18 67.5 -22.5t67.5 -4.5q30 0 30 -26q0 -12 -7.5 -19t-20.5 -7l-71 1q-35 0 -64 24zM382 -101h-129q-88 0 -88 87v167q0 29 -11 39.5t-34 17.5 q-20 5 -24.5 9t-4.5 13q0 17 28 17h75q35 0 35 -47v-228q0 -22 19 -22h133q33 0 33 -26q0 -27 -32 -27zM716 108h-60q40 -36 40 -89q0 -56 -40.5 -94.5t-97.5 -38.5t-97.5 38.5t-40.5 94.5q0 53 40 89h-68q-32 0 -32 23q0 25 32 25h324q32 0 32 -25q0 -23 -32 -23zM481 19 q0 -38 24 -62.5t53 -24.5t53 24.5t24 62.5t-24 62.5t-53 24.5t-53 -24.5t-24 -62.5z" />
<glyph unicode="&#xb04c;" d="M137 744q-33 0 -33 26t31 26h192q41 0 40 -43q-1 -77 -13.5 -167t-31.5 -130q-1 -2 -3 -3h268q0 6 1 15q10 71 10.5 134.5t-0.5 141.5h-161q-31 0 -31 26t29 26h191q42 0 42 -45q0 -41 -10 -142.5t-30 -152.5q-1 -2 -1 -3h136q33 0 33 -27q0 -26 -33 -26h-700 q-30 0 -30 26q0 27 30 27h217q-1 9 2 22q12 56 14 122.5t2 146.5h-161zM205 241q-32 0 -32 25q0 26 30 26h406q34 0 34 -41v-130q0 -49 -40 -49h-337v-91q0 -30 24 -30h352q32 0 32 -26t-31 -26h-380q-61 0 -61 72v68q0 22 -8.5 32t-24.5 17q-8 3 -13.5 7t-5.5 12 q0 16 27 16h402v118h-374z" />
<glyph unicode="&#xb04e;" d="M137 744q-33 0 -33 26t31 26h192q41 0 40 -43q-1 -77 -13.5 -167t-31.5 -130q-1 -2 -3 -3h268q0 6 1 15q10 71 10.5 134.5t-0.5 141.5h-161q-31 0 -31 26t29 26h191q42 0 42 -45q0 -41 -10 -142.5t-30 -152.5q-1 -2 -1 -3h136q33 0 33 -27q0 -26 -33 -26h-700 q-30 0 -30 26q0 27 30 27h217q-1 9 2 22q12 56 14 122.5t2 146.5h-161zM515 -32h111v274h-110v-239q0 -19 -1 -35zM168 241q-32 0 -32 26q0 25 30 25h185q34 0 34 -40v-134q0 -46 -34 -46h-128v-96q0 -25 18 -25h140q32 0 32 -25q0 -27 -31 -27h-162q-59 0 -59 70v70 q0 22 -4 33t-22 19q-7 4 -10 6.5t-3 10.5q0 14 20 14h181v119h-155zM650 292q36 0 36 -45v-195q0 -64 -27 -84h10q30 0 30 -25q0 -27 -30 -27h-165q-12 -28 -36 -28h-12v305q0 36 -3 44t-19 17q-9 7 -12.5 10.5t-3.5 11.5q0 16 20 16h212z" />
<glyph unicode="&#xb053;" d="M137 744q-33 0 -33 26t31 26h192q41 0 40 -43q-1 -77 -13.5 -167t-31.5 -130q-1 -2 -3 -3h268q0 6 1 15q10 71 10.5 134.5t-0.5 141.5h-161q-31 0 -31 26t29 26h191q42 0 42 -45q0 -41 -10 -142.5t-30 -152.5q-1 -2 -1 -3h136q33 0 33 -27q0 -26 -33 -26h-700 q-30 0 -30 26q0 27 30 27h217q-1 9 2 22q12 56 14 122.5t2 146.5h-161zM168 241q-32 0 -32 26q0 25 30 25h175q34 0 34 -40v-134q0 -46 -34 -46h-118v-96q0 -25 18 -25h130q31 0 31 -25q0 -27 -30 -27h-153q-58 0 -58 70v70q0 22 -4 33t-22 19q-7 4 -10 6.5t-3 10.5 q0 14 20 14h170v119h-144zM487 245l-27 23q-8 7 -9.5 15t4.5 16q5 7 13.5 6t16.5 -6q39 -18 68 -22.5t68 -4.5q29 0 29 -26q0 -12 -7.5 -18.5t-19.5 -6.5l-72 1q-35 0 -64 23zM709 107h-47q35 -35 35 -88q0 -55 -37.5 -94t-96.5 -39q-57 0 -94.5 39t-37.5 94q0 53 36 88h-35 q-32 0 -32 23q0 25 32 25h277q31 0 31 -25q0 -23 -31 -23zM636 19q0 36 -21 61.5t-51 25.5q-29 0 -50 -25.5t-21 -61.5t21 -61.5t50 -25.5q30 0 51 25.5t21 61.5z" />
<glyph unicode="&#xb054;" d="M137 737q-33 0 -33 26t31 26h192q41 0 40 -43q-1 -77 -13.5 -178t-31.5 -141q-4 -6 -8 -10h274v3q-2 6 0 20q11 77 11 145.5t-1 151.5h-161q-31 0 -31 26t29 26h191q42 0 42 -45q0 -41 -10 -153t-30 -164q-2 -6 -6 -10h140q34 0 34 -25q0 -28 -34 -28h-699q-30 0 -30 28 q0 25 30 25h219q-1 2 -1 4q-2 6 1 20q13 63 14.5 131t1.5 165h-161zM266 -42h311v224h-310v-192q0 -17 -1 -32zM604 234q36 0 36 -44v-150q0 -60 -25 -82h8q30 0 30 -25q0 -27 -30 -27h-368q-11 -28 -36 -28h-15v247q0 35 -4.5 49t-27.5 23q-11 3 -16 7.5t-5 12.5 q0 17 25 17h428z" />
<glyph unicode="&#xb055;" d="M137 744q-33 0 -33 26t31 26h192q41 0 40 -43q-1 -77 -13.5 -177.5t-31.5 -140.5q-3 -5 -5 -8h270q-1 7 1 20q11 77 11 145.5t-1 151.5h-161q-31 0 -31 26t29 26h191q42 0 42 -45q0 -41 -10 -153t-30 -163q-1 -5 -3 -8h137q34 0 34 -25q0 -28 -34 -28h-699q-30 0 -30 28 q0 25 30 25h218v1q-2 7 1 20q13 63 14.5 131.5t1.5 164.5h-161zM623 -94h-368q-12 -27 -36 -27h-15v308q0 24 -5.5 34.5t-18.5 13.5q-11 4 -18.5 7.5t-7.5 11.5q0 17 26 17h53q34 0 34 -41v-83h310v57q0 25 -7 33.5t-20 13.5q-14 4 -20 8t-6 11q0 16 27 16h52q37 0 37 -41 v-204q0 -62 -26 -83h9q30 0 30 -25q0 -27 -30 -27zM266 -42h311v137h-310v-104q0 -17 -1 -33z" />
<glyph unicode="&#xb057;" d="M137 737q-33 0 -33 26t31 26h192q41 0 40 -43q-1 -77 -13.5 -178t-31.5 -141q-4 -6 -8 -10h274v3q-2 6 0 20q11 77 11 145.5t-1 151.5h-161q-31 0 -31 26t29 26h191q42 0 42 -45q0 -41 -10 -153t-30 -164q-2 -6 -6 -10h140q34 0 34 -25q0 -28 -34 -28h-699q-30 0 -30 28 q0 25 30 25h219q-1 2 -1 4q-2 6 1 20q13 63 14.5 131t1.5 165h-161zM463 202q-8 -42 -42 -90l268 -148q17 -10 20.5 -26.5t-7.5 -27.5q-9 -10 -22 -10t-32 13l-250 170q-15 -18 -32 -37q-85 -87 -189 -146q-29 -16 -37.5 -2t15.5 31q79 53 149.5 132.5t87.5 130.5 q7 20 -11.5 28t-34.5 11t-15 18t22 15h62q35 0 44 -18.5t4 -43.5z" />
<glyph unicode="&#xb059;" d="M137 737q-33 0 -33 26t31 26h192q41 0 40 -43q-1 -77 -13.5 -178t-31.5 -141q-5 -10 -13 -14h283q-4 3 -4 7q-2 6 0 20q11 77 11 145.5t-1 151.5h-161q-31 0 -31 26t29 26h191q42 0 42 -45q0 -41 -10 -153t-30 -164q-3 -9 -11 -14h146q33 0 33 -26q0 -27 -33 -27h-700 q-30 0 -30 27q0 26 30 26h223q-4 3 -5 8q-2 6 1 20q13 63 14.5 131t1.5 165h-161zM209 67q0 77 60.5 130.5t144.5 53.5t144 -53.5t60 -130.5t-60 -130.5t-144 -53.5t-144.5 53.5t-60.5 130.5zM274 67q0 -53 40.5 -91.5t99.5 -38.5q58 0 98.5 38.5t40.5 91.5t-40.5 91.5 t-98.5 38.5q-59 0 -99.5 -38.5t-40.5 -91.5z" />
<glyph unicode="&#xb05d;" d="M137 744q-33 0 -33 26t31 26h192q41 0 40 -43q-1 -77 -13.5 -167t-31.5 -130q-1 -2 -3 -3h268q0 6 1 15q10 71 10.5 134.5t-0.5 141.5h-161q-31 0 -31 26t29 26h191q42 0 42 -45q0 -41 -10 -142.5t-30 -152.5q-1 -2 -1 -3h136q33 0 33 -27q0 -26 -33 -26h-700 q-30 0 -30 26q0 27 30 27h217q-1 9 2 22q12 56 14 122.5t2 146.5h-161zM612 123q31 0 31 -26q0 -25 -31 -25h-346v-92q0 -29 25 -29h339q32 0 32 -25q0 -27 -31 -27h-372q-57 0 -57 66v222q0 34 -4 46.5t-28 21.5q-10 3 -16 8t-6 13q0 16 25 16h449q30 0 30 -26 q0 -25 -31 -25h-355v-118h346z" />
</font>
</defs>
</svg>
