<?xml version="1.0" standalone="no"?>
<!DOCTYPE svg PUBLIC "-//W3C//DTD SVG 1.1//EN" "http://www.w3.org/Graphics/SVG/1.1/DTD/svg11.dtd" >
<svg xmlns="http://www.w3.org/2000/svg" xmlns:xlink="http://www.w3.org/1999/xlink" version="1.1">
<metadata></metadata>
<defs>
<font id="seoulhangangjangblregular" horiz-adv-x="822" >
<font-face units-per-em="1024" ascent="879" descent="-145" />
<missing-glyph horiz-adv-x="307" />
<glyph unicode=" "  horiz-adv-x="307" />
<glyph unicode="&#x09;" horiz-adv-x="307" />
<glyph unicode="&#xa0;" horiz-adv-x="307" />
<glyph unicode="!" horiz-adv-x="299" d="M230 61q0 -33 -23.5 -56.5t-56.5 -23.5q-34 0 -57.5 23.5t-23.5 56.5t23.5 56.5t57.5 23.5q33 0 56.5 -23.5t23.5 -56.5zM77 810h145l-27 -577q-1 -17 -12 -27t-33 -10q-20 0 -32.5 9t-12.5 28z" />
<glyph unicode="&#x22;" horiz-adv-x="379" d="M49 831h127l-14 -242q-1 -19 -14 -30t-33 -11q-24 -1 -36 11t-12 31zM203 831h127l-18 -241q0 -19 -12.5 -30.5t-35.5 -11.5q-22 0 -34 11.5t-12 30.5z" />
<glyph unicode="#" horiz-adv-x="574" d="M503 735l-45 -197h109l-19 -76h-108l-27 -124h114l-22 -75h-110l-51 -226h-101l51 226h-72l-51 -226h-102l51 226h-108l22 75h102l29 124h-111l23 76h105l44 197h103l-44 -197h71l44 197h103zM310 338l29 124h-72l-28 -124h71z" />
<glyph unicode="$" horiz-adv-x="497" d="M197 23q-69 7 -111 37q-55 39 -62 117h123q0 -44 27 -65q10 -9 23 -14v274q-79 31 -117 70q-46 47 -46 124t55 130q42 39 108 48v75h85v-74q60 -7 100 -34q51 -37 68 -116h-125q-2 45 -25 67q-8 7 -18 11v-250q93 -36 134 -78q48 -50 48 -123q0 -95 -64 -148 q-49 -41 -118 -50v-80h-85v79zM282 99q20 9 35 27q30 36 30 88q0 56 -29 92q-14 18 -36 31v-238zM197 671q-13 -7 -22 -19q-27 -31 -27 -92q0 -55 27 -83q9 -11 22 -19v213z" />
<glyph unicode="%" horiz-adv-x="784" d="M485 743h99l-285 -721h-99zM11 510q0 93 45 150t121 57q75 0 120.5 -57t45.5 -150q0 -92 -45.5 -149t-120.5 -57q-76 0 -121 57t-45 149zM234 510q0 62 -16 100t-40 38q-23 0 -39.5 -38t-16.5 -100q0 -61 16.5 -99t39.5 -38q24 0 40 38t16 99zM441 251q0 92 45 149.5 t121 57.5q75 0 120.5 -57.5t45.5 -149.5t-45.5 -149.5t-120.5 -57.5q-76 0 -121 57.5t-45 149.5zM665 251q0 62 -16.5 100t-40.5 38q-23 0 -39.5 -38t-16.5 -100q0 -61 16.5 -99t39.5 -38q24 0 40.5 38t16.5 99z" />
<glyph unicode="&#x26;" horiz-adv-x="762" d="M310 267q-22 35 -60 104q-33 -24 -52 -51q-35 -49 -31 -106q4 -60 34 -90t66 -32q32 -3 72 16q26 11 56 40q-51 64 -85 119zM207 452q-41 87 -42 149q-1 72 46.5 120t134.5 45q70 -2 112.5 -44t42.5 -106q0 -67 -44 -112q-37 -38 -115 -80q36 -65 56 -98q27 -44 64 -96 q9 16 17 35q23 49 23 76q0 20 -6 28.5t-37 8.5q-19 0 -19 31t18 31h208q23 0 23 -31t-25 -31q-32 0 -40 -4.5t-15 -38.5q-27 -102 -89 -186q42 -47 80 -53q10 -2 25 1.5t32 10.5q45 26 66 -2.5t-6 -49.5q-17 -12 -49 -25.5t-78 -13.5q-72 0 -134 58q-82 -75 -189 -75 q-100 0 -158 61.5t-58 147.5q0 89 54 156q39 48 102 87zM302 502q50 29 71 51q27 31 27 58q0 32 -17 51.5t-43 19.5q-27 0 -45.5 -19.5t-18.5 -62.5q0 -39 26 -98z" />
<glyph unicode="'" horiz-adv-x="298" d="M83 831h132l-14 -242q-1 -19 -15 -30t-35 -11q-23 -1 -37.5 10.5t-15.5 31.5z" />
<glyph unicode="(" horiz-adv-x="348" d="M71 351q0 174 58.5 295.5t138.5 171.5q41 25 58.5 -1.5t-2.5 -46.5q-69 -65 -102 -170t-32 -249q-1 -145 32 -250t102 -170q20 -20 2.5 -46.5t-58.5 -0.5q-80 48 -138.5 170.5t-58.5 296.5z" />
<glyph unicode=")" horiz-adv-x="348" d="M278 351q0 -174 -59 -296.5t-140 -170.5q-41 -26 -58.5 0.5t2.5 45.5q69 66 102.5 171t32.5 250q1 144 -32.5 249t-102.5 170q-20 20 -2.5 46.5t58.5 1.5q81 -50 140 -171.5t59 -295.5z" />
<glyph unicode="*" horiz-adv-x="348" d="M174 547q-1 -6 -5 -29q-6 -34 -19 -54q-12 -19 -28 -26.5t-37 5.5q-17 11 -19.5 29.5t9.5 36.5q9 19 36 41q22 20 25 23q-4 -2 -31 -11q-33 -13 -58 -13q-20 0 -34 11t-14 34q0 21 14 33t34 12q25 0 57 -11q27 -9 31 -11q-4 3 -24 21q-26 23 -36 38q-12 22 -9.5 40.5 t20.5 28.5t35 4t29 -27q13 -17 19 -51q4 -23 5 -30l5 31q6 33 19 49q10 22 27 28t34 -4q20 -10 23 -28.5t-10 -40.5q-9 -15 -34 -38q-22 -18 -25 -21q3 2 30 11q32 11 55 11q24 0 38 -12t14 -33q0 -23 -14 -34t-38 -11q-23 0 -55 13q-25 8 -30 10q4 -3 25 -22q25 -22 34 -41 q13 -19 10 -37t-21 -29q-19 -13 -36 -5.5t-27 26.5q-13 20 -19 54q-4 23 -5 29z" />
<glyph unicode="+" horiz-adv-x="528" d="M213 360h-182v83h182v207h99v-207h184v-83h-184v-224h-99v224z" />
<glyph unicode="," horiz-adv-x="281" d="M59 61q0 33 23.5 56.5t57.5 23.5q33 0 57 -23.5t28 -52.5q7 -54 -20 -107.5t-78 -80.5q-29 -16 -46.5 0.5t10.5 37.5q14 12 24.5 28.5t13.5 35.5q1 8 -7 8q-21 1 -42 22t-21 52z" />
<glyph unicode="-" horiz-adv-x="379" d="M32 449h315v-95h-315v95z" />
<glyph unicode="." horiz-adv-x="281" d="M221 61q0 -33 -23.5 -56.5t-57.5 -23.5t-57.5 23.5t-23.5 56.5t23.5 56.5t57.5 23.5t57.5 -23.5t23.5 -56.5z" />
<glyph unicode="/" horiz-adv-x="375" d="M270 828h106l-272 -957h-105z" />
<glyph unicode="0" horiz-adv-x="461" d="M4 382q0 174 56.5 277t168.5 103q113 0 170.5 -103t57.5 -277q0 -173 -57.5 -275t-170.5 -102q-112 0 -168.5 102t-56.5 275zM134 382q0 -156 31 -223.5t64 -67.5q35 0 66.5 67.5t31.5 223.5q0 158 -31.5 226t-66.5 68q-33 0 -64 -68t-31 -226z" />
<glyph unicode="1" horiz-adv-x="461" d="M164 617l-19 -7q-48 -24 -63 8t9 46l151 95h72v-747h-125v566q0 35 -7 38.5t-18 0.5z" />
<glyph unicode="2" horiz-adv-x="461" d="M18 79q17 19 35 42q61 65 152.5 203.5t91.5 226.5q0 63 -25.5 94t-66.5 31q-30 0 -53.5 -23t-30.5 -84h-112q8 99 64 147t133 48q108 0 164 -59.5t56 -157.5q0 -85 -76.5 -209t-174.5 -232h105q31 0 51 7.5t30 52.5q7 32 44 26.5t37 -31.5l-10 -143h-414v61z" />
<glyph unicode="3" horiz-adv-x="461" d="M344 400q38 -15 67.5 -67.5t26.5 -116.5q-3 -85 -66 -148t-190 -63q-42 0 -88.5 13.5t-82.5 42.5v104q63 -51 102.5 -60t64.5 -9q53 0 92.5 33.5t39.5 103.5q0 44 -15.5 69.5t-32.5 35.5q-15 11 -35.5 15.5t-47.5 4.5q-36 0 -35.5 42.5t46.5 42.5h25.5t17.5 2q26 7 48 36 t24 81q3 56 -26.5 84.5t-70.5 28.5q-29 0 -53 -18.5t-34 -67.5h-107q12 85 64.5 129t133.5 44q102 0 159.5 -55.5t57.5 -141.5q0 -66 -29.5 -111t-55.5 -54z" />
<glyph unicode="4" horiz-adv-x="461" d="M263 215h-268v74l261 473h124v-460h87v-87h-87v-198h-117v198zM115 302h148v262z" />
<glyph unicode="5" horiz-adv-x="461" d="M156 454q26 13 51 18.5t56 2.5q78 -6 132.5 -63t54.5 -154q0 -107 -67 -176t-183 -74q-50 -2 -99.5 13t-83.5 41v91q71 -48 119.5 -54.5t70.5 -1.5q51 11 85 53.5t34 113.5q0 61 -28 91.5t-66 34.5q-27 1 -50.5 -10.5t-40.5 -42.5h-108l16 414h358v-88h-242z" />
<glyph unicode="6" horiz-adv-x="461" d="M141 428q40 42 114 44q100 0 153.5 -67.5t53.5 -165.5q0 -103 -59.5 -168t-174.5 -68q-106 -1 -162 77.5t-56 255.5q0 145 26 230t74 131q56 60 149.5 64.5t162.5 -49.5v-89q-55 40 -90.5 46.5t-52.5 6.5q-55 -3 -98 -72q-31 -53 -40 -176zM138 299q4 -121 32 -163 q31 -50 64 -50q38 0 69 37.5t31 111.5q0 82 -26.5 116.5t-58.5 34.5q-44 0 -86 -47q-13 -15 -25 -40z" />
<glyph unicode="7" horiz-adv-x="461" d="M310 661h-162q-18 0 -33 -11.5t-22 -51.5q-6 -33 -43 -32t-37 37l1 143h437v-57l-227 -678h-126z" />
<glyph unicode="8" horiz-adv-x="461" d="M22 564q0 91 54.5 144.5t152.5 53.5q100 0 155 -55.5t55 -146.5q0 -84 -55 -136q-11 -11 -25 -19q20 -13 36 -30q60 -63 60 -153q0 -103 -60.5 -161t-165.5 -58q-103 0 -163 58t-60 161q0 90 60 153q16 18 36 30q-14 9 -25 21q-55 54 -55 138zM133 222q0 -68 30.5 -101 t65.5 -33q36 0 67.5 33t31.5 101t-31.5 103.5t-67.5 35.5q-35 0 -65.5 -35.5t-30.5 -103.5zM147 564q0 -59 26.5 -88.5t55.5 -29.5q31 0 57.5 27.5t26.5 86.5t-27 88t-57 29q-29 0 -55.5 -27t-26.5 -86z" />
<glyph unicode="9" horiz-adv-x="461" d="M322 337q-4 -2 -6 -4q-41 -37 -106 -37q-99 0 -152 66.5t-53 165.5q0 102 56 168t166 67q103 2 160.5 -87.5t57.5 -279.5q0 -115 -28.5 -203.5t-78.5 -131.5q-57 -49 -145.5 -54.5t-156.5 50.5v88q50 -36 85.5 -42t55.5 -6q60 0 103 64q34 52 42 176zM322 453 q-6 116 -31 165q-32 60 -71 62q-35 1 -61 -40.5t-26 -108.5q0 -82 28.5 -115.5t56.5 -33.5q43 0 85 44q10 11 19 27z" />
<glyph unicode=":" horiz-adv-x="298" d="M229 536q0 -33 -23 -56t-56 -23q-34 0 -57 23t-23 56t23 56t57 23q33 0 56 -23t23 -56zM229 163q0 -33 -23 -56t-56 -23q-34 0 -57 23t-23 56t23 56t57 23q33 0 56 -23t23 -56z" />
<glyph unicode=";" horiz-adv-x="298" d="M229 536q0 -33 -23 -56t-56 -23q-34 0 -57 23t-23 56t23 56t57 23q33 0 56 -23t23 -56zM69 161q0 33 23.5 56.5t57.5 23.5q32 0 56 -23.5t28 -52.5q8 -54 -19.5 -107t-78.5 -81q-28 -16 -45.5 0.5t9.5 38.5q15 11 25 28t13 35q1 8 -7 8q-20 1 -41 22t-21 52z" />
<glyph unicode="&#x3c;" horiz-adv-x="528" d="M80 339v78l421 379v-120l-328 -298l328 -298v-120z" />
<glyph unicode="=" horiz-adv-x="528" d="M31 345h467v-89h-467v89zM31 546h467v-89h-467v89z" />
<glyph unicode="&#x3e;" horiz-adv-x="528" d="M449 339l-421 -379v120l325 298l-325 298v120l421 -379v-78z" />
<glyph unicode="?" horiz-adv-x="465" d="M283 61q0 -33 -23.5 -56.5t-57.5 -23.5t-57.5 23.5t-23.5 56.5t23.5 56.5t57.5 23.5t57.5 -23.5t23.5 -56.5zM150 304q0 48 16.5 82.5t47.5 70.5l55 65q21 26 34.5 47.5t13.5 65.5q0 53 -26 77.5t-63 24.5q-27 0 -50.5 -24t-23.5 -78h-125q0 77 53 127.5t144 50.5 q101 0 155.5 -51t54.5 -132q0 -49 -15 -84.5t-57 -82.5q-71 -73 -85.5 -90.5t-21.5 -31.5q-5 -12 -7.5 -23.5t-2.5 -41.5v-59q0 -14 -14.5 -25t-35.5 -11q-22 0 -34.5 11t-12.5 25v87z" />
<glyph unicode="@" horiz-adv-x="911" d="M774 -17q-51 -57 -130.5 -92.5t-181.5 -35.5q-213 0 -313.5 126t-92.5 291q12 206 132 351t302 145q173 0 272 -107t92 -295q-3 -116 -63.5 -212.5t-148.5 -133.5q-57 -24 -102 -7.5t-53 43.5q-11 -10 -40 -22.5t-64 -12.5q-76 0 -114.5 49.5t-36.5 123.5 q6 118 80.5 234.5t187.5 118.5q41 0 70.5 -16t35.5 -24l6 19h67q47 0 34 -47l-111 -327q-14 -45 0 -47.5t40 11.5q44 27 76 97t36 149q9 162 -69 241t-182 79q-117 1 -213.5 -99t-118.5 -263q-24 -181 62 -282.5t230 -101.5q71 0 134 24.5t111 69.5q33 34 62 9t4 -56z M342 201q-5 -57 12.5 -75t38.5 -18q30 0 60.5 30.5t55.5 95.5q23 59 35.5 106t12.5 67q0 29 -18 42t-40 12q-42 -3 -95 -86t-62 -174z" />
<glyph unicode="A" horiz-adv-x="546" d="M438 18l-73 230h-195l-72 -230h-121l194 603q16 50 12.5 56.5t-13.5 8.5q-22 6 -32 13.5t-10 25.5q0 30 40 30h159l244 -737h-133zM337 334l-71 223l-69 -223h140z" />
<glyph unicode="B" horiz-adv-x="562" d="M191 638v-188h88q51 0 81.5 25.5t30.5 86.5q0 54 -34.5 82t-84.5 28h-45q-36 0 -36 -34zM191 136q0 -35 37 -35h47q63 0 105.5 31t42.5 93q0 74 -40.5 106.5t-101.5 32.5h-90v-228zM292 18h-225v614q0 31 -5.5 41t-14.5 13q-19 6 -28.5 14t-9.5 24q0 31 34 31h240 q112 0 174.5 -48.5t62.5 -135.5q0 -62 -31.5 -105.5t-59.5 -51.5q43 -10 83 -59.5t40 -129.5q0 -92 -64 -149.5t-196 -57.5z" />
<glyph unicode="C" horiz-adv-x="582" d="M560 65q-24 -19 -72.5 -34.5t-101.5 -19.5q-174 -11 -275.5 101.5t-101.5 287.5q0 161 80.5 264.5t240.5 103.5q103 0 172.5 -55t69.5 -130h-135q-2 47 -33 71.5t-79 24.5q-71 0 -127.5 -71.5t-56.5 -190.5q0 -179 82.5 -250.5t172.5 -64.5q32 3 56.5 11t44.5 17 q26 17 49 12t31 -23q6 -14 0.5 -29.5t-17.5 -24.5z" />
<glyph unicode="D" horiz-adv-x="596" d="M67 632q0 32 -6.5 42.5t-13.5 13.5q-18 4 -27 11.5t-9 24.5q0 31 37 31h134q42 0 93 -3t85 -9q103 -20 165 -106t62 -255q0 -116 -30.5 -185t-81.5 -110q-48 -37 -110 -53t-152 -16h-146v614zM256 101q84 0 143 67t59 214q0 144 -49.5 217t-139.5 73h-40q-36 0 -36 -36 v-500q0 -35 36 -35h27z" />
<glyph unicode="E" horiz-adv-x="532" d="M193 441h98q47 0 65 12t18 45q0 19 40 19t40 -19v-200q0 -17 -40 -17t-40 17q0 34 -19 48t-65 14h-97v-224q0 -35 38 -35h121q39 0 51.5 18.5t17.5 41.5q6 33 47 28.5t41 -32.5l-7 -139h-435v614q0 32 -5 41.5t-14 12.5q-17 6 -27 13.5t-10 24.5q0 31 35 31h440l6 -131 q0 -32 -42 -33t-44 32q-3 16 -15.5 32.5t-54.5 16.5h-107q-36 0 -36 -36v-195z" />
<glyph unicode="F" horiz-adv-x="497" d="M193 445h97q48 0 66 12t18 45q0 19 40 19t40 -19v-200q0 -17 -40 -17t-40 17q0 34 -19 48t-66 14h-96v-346h-126v614q0 32 -6.5 42.5t-13.5 13.5q-15 4 -25.5 11.5t-10.5 24.5q0 31 35 31h440l6 -131q0 -32 -39.5 -33t-46.5 30q-8 28 -19 40t-51 12h-107q-36 0 -36 -39 v-189z" />
<glyph unicode="G" horiz-adv-x="600" d="M570 376v-303q-77 -53 -195.5 -60t-198.5 41q-74 45 -120.5 129t-47.5 210q0 167 81 271t241 104q103 0 172.5 -55t69.5 -130h-133q-2 46 -35.5 71t-78.5 25q-69 0 -127.5 -67.5t-58.5 -202.5q0 -147 62 -224.5t152 -81.5q19 0 44.5 2t46.5 9v148q0 53 -18.5 65.5 t-69.5 13.5q-30 0 -30 35.5t23 35.5h183q38 0 38 -36z" />
<glyph unicode="H" horiz-adv-x="608" d="M193 18h-126v613q0 31 -5 41t-13 13q-17 7 -31 11.5t-14 23.5q0 34 42 34h106q41 0 41 -33v-271h238v305h126v-737h-126v346h-238v-346z" />
<glyph unicode="I" horiz-adv-x="246" d="M194 18h-126v614q0 32 -4.5 41t-15.5 13q-16 6 -29.5 12.5t-13.5 22.5q0 34 42 34h106q41 0 41 -33v-704z" />
<glyph unicode="J" horiz-adv-x="409" d="M232 221v413q0 30 -4 39.5t-15 11.5q-13 5 -28 11.5t-15 26.5q0 32 42 32h105q41 0 41 -33v-505q0 -106 -52 -155.5t-143 -49.5q-97 0 -144 41t-47 121h127q1 -51 18.5 -64t43.5 -13q28 0 49.5 26t21.5 98z" />
<glyph unicode="K" horiz-adv-x="514" d="M195 18h-126v613q0 32 -5 42t-12 12q-16 6 -31 12t-15 23q0 34 42 34h106q41 0 41 -33v-237l203 270h79q22 0 28 -17.5t-5 -30.5l-233 -288l300 -400h-143l-229 322v-322z" />
<glyph unicode="L" horiz-adv-x="478" d="M194 147q0 -39 37 -39h114q35 0 48 13t20 56q5 32 46.5 28.5t41.5 -32.5l-7 -155h-426v613q0 32 -4.5 41.5t-11.5 11.5q-19 5 -33 12t-14 26q0 32 42 32h106q41 0 41 -32v-575z" />
<glyph unicode="M" horiz-adv-x="758" d="M228 755l152 -546l161 545l169 1v-737h-118v508l-145 -461q-8 -25 -23 -36t-39 -11h-68l-141 524v-524h-111v615q0 31 -4 40.5t-13 12.5q-17 7 -26 14t-9 21q0 34 43 34h172z" />
<glyph unicode="N" horiz-adv-x="608" d="M206 755l233 -501v501h118v-690q0 -47 -63 -47h-71l-244 527v-527h-112v615q0 31 -3.5 40.5t-11.5 12.5q-18 6 -30 12t-12 23q0 34 42 34h154z" />
<glyph unicode="O" horiz-adv-x="653" d="M9 390q0 165 82.5 271.5t234.5 106.5t235 -106.5t83 -271.5t-83 -271.5t-235 -106.5t-234.5 106.5t-82.5 271.5zM139 390q0 -140 55 -214.5t132 -74.5t132.5 74.5t55.5 214.5t-55.5 215t-132.5 75t-132 -75t-55 -215z" />
<glyph unicode="P" horiz-adv-x="525" d="M49 686q-22 6 -31.5 14t-9.5 24q0 31 30 31h241q119 0 185 -58t66 -151q0 -106 -71.5 -162t-202.5 -56h-35q-25 0 -25 42t22 42h26q75 0 116 33t41 102q1 59 -38 92.5t-87 33.5h-48q-41 0 -41 -39v-616h-120v614q0 32 -6 42t-12 12z" />
<glyph unicode="Q" horiz-adv-x="653" d="M412 22q13 -23 41 -35q41 -19 147 -1v-70q-41 -11 -64 -13t-52 -2q-94 0 -153 34q-48 26 -77 84q-100 19 -162 99q-83 107 -83 272t82.5 271.5t234.5 106.5t235 -106.5t83 -271.5t-83 -272q-57 -74 -149 -96zM139 390q0 -140 55 -214.5t132 -74.5t132.5 74.5t55.5 214.5 t-55.5 215t-132.5 75t-132 -75t-55 -215z" />
<glyph unicode="R" horiz-adv-x="525" d="M278 673h-50q-41 0 -41 -39v-616h-120v614q0 32 -6.5 42t-10.5 11q-23 7 -32.5 15t-9.5 24q0 31 30 31h241q119 0 185 -57t66 -150q0 -100 -62 -157t-132 -59l202 -314h-147l-190 324q-15 25 -5.5 47.5t32.5 22.5h21q70 0 111 34t41 103q1 59 -38 91.5t-85 32.5z" />
<glyph unicode="S" horiz-adv-x="461" d="M317 225q-3 42 -35 74.5t-103 70.5q-82 40 -125 91.5t-42 128.5q2 76 60 127t156 51q53 0 96 -8t85 -23v-105q-57 30 -101 40t-76 10t-61 -24.5t-29 -71.5q0 -42 35.5 -74.5t113.5 -74.5q79 -42 118.5 -93.5t39.5 -120.5q0 -85 -60.5 -146t-178.5 -67q-44 -2 -93 8.5 t-80 30.5q-20 12 -26 29t0 37q9 20 33 26.5t55 -12.5q21 -10 53 -18.5t55 -7.5q56 5 86 38t24 84z" />
<glyph unicode="T" horiz-adv-x="520" d="M141 672q-44 0 -57.5 -26t-14.5 -54q-1 -26 -43.5 -25t-42.5 32l5 156h544l6 -156q0 -31 -43 -32t-45 31q-1 23 -15 48.5t-60 25.5h-52v-654h-126v654h-56z" />
<glyph unicode="U" horiz-adv-x="611" d="M67 290v342q0 30 -5 40t-12 12q-17 5 -31.5 13t-14.5 24q0 33 42 33h106q41 0 41 -33v-410q0 -108 30.5 -158.5t91.5 -50.5q59 0 95 44.5t36 162.5v446h120v-450q0 -159 -66.5 -226t-184.5 -67q-117 0 -182.5 69t-65.5 209z" />
<glyph unicode="V" horiz-adv-x="568" d="M18 688q-14 5 -22 11.5t-8 24.5q0 31 43 31h107l173 -536l168 536h70q28 0 36 -15.5t4 -34.5l-233 -689h-102l-203 601q-13 39 -19 53t-14 18z" />
<glyph unicode="W" horiz-adv-x="778" d="M665 16h-119l-125 527l-128 -527h-128l-113 602q-8 38 -16 54t-18 19q-12 4 -20.5 11.5t-8.5 23.5q0 29 42 29h125l86 -510l115 510h130l115 -508l82 508h79q18 0 27 -10t8 -27z" />
<glyph unicode="X" horiz-adv-x="497" d="M184 398l-115 218q-20 39 -32 54t-20 18q-14 4 -23 11t-9 25q0 31 42 31h110l117 -233l128 233h74q24 0 32.5 -17.5t-0.5 -33.5l-169 -296l208 -390h-140l-138 260l-136 -260h-130z" />
<glyph unicode="Y" horiz-adv-x="527" d="M281 481l160 274h70q26 0 32 -17t-1 -32l-202 -342v-346h-126v346l-152 252q-23 39 -31 53t-17 20q-10 7 -18 12t-8 21q0 33 43 33h95z" />
<glyph unicode="Z" horiz-adv-x="523" d="M6 81l338 590h-168q-40 0 -49.5 -17.5t-14.5 -53.5q-6 -30 -49 -30t-43 33l6 152h467v-63l-346 -590h195q48 0 58.5 23.5t13.5 55.5q2 31 47 31t45 -33l-4 -161h-496v63z" />
<glyph unicode="[" horiz-adv-x="326" d="M185 6q0 -59 49 -59h42q26 0 26 -39q0 -38 -30 -38h-162q-34 0 -34 30v899q0 30 34 30h162q30 0 30 -38q0 -39 -26 -39h-42q-49 0 -49 -58v-688z" />
<glyph unicode="\" horiz-adv-x="911" d="M694 19h-110l-83 337h-79l-84 -337h-120l-62 337h-127v87h110l-27 147q-9 36 -16.5 50.5t-15.5 17.5q-13 4 -23 11t-10 25q0 27 42 27h123l46 -278h79l64 278h125l65 -278h76l44 278h76q15 0 25 -9t9 -27l-46 -242h114v-87h-130zM479 443l-17 71l-18 -71h35zM272 356 l19 -111l25 111h-44zM611 356l25 -108l17 108h-42z" />
<glyph unicode="]" horiz-adv-x="326" d="M140 6v688q0 58 -49 58h-42q-25 0 -25 39q0 38 28 38h162q36 0 36 -30v-899q0 -30 -33 -30h-151q-42 2 -42 40q0 37 25 37h42q49 0 49 59z" />
<glyph unicode="^" horiz-adv-x="433" d="M171 779h93l149 -267h-111l-84 156l-87 -156h-113z" />
<glyph unicode="_" horiz-adv-x="461" d="M-15 -16h492v-82h-492v82z" />
<glyph unicode="`" horiz-adv-x="281" d="M66 700q-16 25 -8 46t22 32q19 11 43.5 9t39.5 -27l53 -143q10 -33 -20 -47.5t-51 14.5z" />
<glyph unicode="a" horiz-adv-x="483" d="M328 53q-13 -10 -46 -26t-93 -16q-71 0 -117 41.5t-46 106.5q0 88 78.5 141t190.5 53h32v21q0 46 -26 72.5t-62 26.5q-32 0 -54.5 -17t-22.5 -66h-130q0 79 57 122t153 43q102 0 155.5 -50.5t53.5 -135.5v-351h-123v35zM327 268q-81 2 -129 -25t-48 -74q0 -40 19 -54.5 t43 -14.5q42 0 78.5 31t36.5 75v62z" />
<glyph unicode="b" horiz-adv-x="512" d="M374 277q0 92 -31.5 141.5t-75.5 49.5q-37 0 -65 -36.5t-28 -99.5v-95q0 -81 29 -112.5t65 -31.5q39 0 72.5 47t33.5 137zM173 519q43 36 110 36q106 0 161 -75.5t55 -199.5q0 -115 -58 -192t-167 -77q-75 0 -117 41q-24 -34 -83 -34h-24v637q0 30 -5 41t-13 14 q-17 6 -25 11.5t-8 22.5q0 34 42 34h89q43 0 43 -33v-226z" />
<glyph unicode="c" horiz-adv-x="483" d="M437 49q-24 -18 -68.5 -29.5t-106.5 -8.5q-105 6 -177 81.5t-72 207.5q0 116 65 185.5t179 69.5q92 0 147.5 -44.5t59.5 -119.5h-127q0 44 -23 63t-62 19q-40 0 -75 -44.5t-35 -128.5q0 -92 42 -147t106 -60q22 -2 47 1.5t50 15.5q26 13 42.5 9t24.5 -18q5 -14 0.5 -28.5 t-17.5 -23.5z" />
<glyph unicode="d" horiz-adv-x="512" d="M138 277q0 -90 33 -136.5t69 -46.5q40 0 69 42t29 131v64q0 67 -29 102t-73 35q-36 0 -67 -46.5t-31 -144.5zM339 49q-41 -38 -103 -38q-111 0 -167 77t-56 192q0 124 56 199.5t158 75.5q69 0 112 -31v131q0 30 -5 41.5t-11 13.5q-17 4 -26.5 10.5t-9.5 25.5q0 32 43 32 h89q43 0 43 -33v-727h-123v31z" />
<glyph unicode="e" horiz-adv-x="483" d="M142 257q4 -60 44 -109.5t104 -54.5q22 -2 47 1.5t49 15.5q30 14 45.5 8.5t23.5 -21.5q4 -13 -0.5 -27.5t-18.5 -23.5q-27 -16 -72.5 -27t-101.5 -8q-105 7 -177 82t-72 207q0 118 65 186.5t177 68.5q96 0 156 -63t60 -192v-43h-329zM142 341h204q0 67 -29.5 99.5 t-64.5 32.5q-40 0 -73.5 -37t-36.5 -95z" />
<glyph unicode="f" horiz-adv-x="344" d="M76 461h-84v81h84v103q0 63 39.5 101.5t114.5 38.5q80 0 119 -39t39 -106h-123q-1 37 -9.5 52.5t-25.5 15.5q-14 -1 -22 -16.5t-8 -56.5v-93h135v-81h-135v-443h-124v443z" />
<glyph unicode="g" horiz-adv-x="512" d="M137 278q0 -79 32.5 -119.5t68.5 -40.5q43 0 72 35.5t29 113.5v64q0 67 -30.5 102t-72.5 35q-38 0 -68.5 -44t-30.5 -146zM340 68q-41 -33 -104 -33q-109 0 -166 73t-57 172q0 124 57 199.5t157 75.5q73 0 116 -40q11 27 52 27h74q44 0 44 -32q0 -17 -16.5 -23t-27.5 -9 q-1 -1 -3.5 -7.5t-2.5 -45.5v-376q0 -92 -54 -147t-169 -55q-110 0 -156 41.5t-49 117.5h124q2 -43 23 -61t63 -18q39 0 67 29t28 93v19z" />
<glyph unicode="h" horiz-adv-x="512" d="M174 18h-124v637q0 30 -5 40.5t-12 13.5q-16 6 -25 12t-9 23q0 34 42 34h90q43 0 43 -33v-258q11 12 26 23q50 40 112 40q72 0 116.5 -49t44.5 -165v-318h-124v320q0 70 -18 93.5t-42 23.5q-42 0 -89 -58q-15 -19 -26 -46v-333z" />
<glyph unicode="i" horiz-adv-x="230" d="M183 18h-125v401q0 31 -5 42t-11 14q-18 5 -27 12t-9 21q0 34 43 34h91q43 0 43 -36v-488zM187 697q0 -32 -22.5 -54.5t-54.5 -22.5t-54 22.5t-22 54.5t22 55.5t54 23.5t54.5 -23.5t22.5 -55.5z" />
<glyph unicode="j" horiz-adv-x="263" d="M217 39q0 -106 -42 -149t-124 -43q-84 0 -123.5 39.5t-39.5 112.5h126q0 -52 12.5 -64t24.5 -12q19 0 30 21.5t11 94.5v382q0 30 -3.5 40t-9.5 12q-19 6 -29 12.5t-10 24.5q0 32 43 32h91q43 0 43 -34v-469zM224 697q0 -32 -22.5 -54.5t-55.5 -22.5q-31 0 -53 22.5 t-22 54.5t22 55.5t53 23.5q33 0 55.5 -23.5t22.5 -55.5z" />
<glyph unicode="k" horiz-adv-x="456" d="M174 18h-124v637q0 31 -4 41.5t-12 13.5q-14 4 -26 10.5t-12 25.5q0 32 42 32h93q43 0 43 -33v-367l159 164h143l-229 -224l248 -300h-144l-177 222v-222z" />
<glyph unicode="l" horiz-adv-x="230" d="M183 18h-125v637q0 31 -4.5 41.5t-12.5 13.5q-16 6 -25.5 12.5t-9.5 24.5q0 31 43 31h91q43 0 43 -33v-727z" />
<glyph unicode="m" horiz-adv-x="731" d="M173 18h-123v401q0 31 -5 42t-11 14q-19 4 -27 11t-8 24q0 32 42 32h89q43 0 43 -36v-8q4 4 8 9q39 41 106 43q74 0 110 -50q9 -12 16 -28q9 16 22 30q44 48 110 48q76 0 111.5 -50.5t35.5 -159.5v-322h-123v319q0 69 -12.5 95t-34.5 26q-29 0 -68 -55q-14 -18 -21 -41 v-344h-123v319q0 70 -12.5 95.5t-32.5 25.5q-29 -1 -70 -55q-14 -17 -22 -40v-345z" />
<glyph unicode="n" horiz-adv-x="512" d="M173 18h-122v401q0 32 -3.5 41.5t-11.5 12.5q-18 7 -29 13t-11 24q0 32 42 32h92q43 0 43 -36v-18q11 12 26 23q47 39 113 39q72 0 116.5 -49t44.5 -165v-318h-124v320q0 70 -18 93.5t-40 23.5q-45 -1 -89 -57q-17 -22 -29 -50v-330z" />
<glyph unicode="o" horiz-adv-x="512" d="M11 282q0 120 62.5 196.5t181.5 76.5q120 0 183 -76.5t63 -196.5q0 -119 -63 -195t-183 -76q-119 0 -181.5 76t-62.5 195zM142 282q0 -98 35 -143.5t78 -45.5q44 0 79.5 45.5t35.5 143.5q0 99 -35.5 145t-79.5 46q-43 0 -78 -46t-35 -145z" />
<glyph unicode="p" horiz-adv-x="512" d="M50 419q0 31 -5 41.5t-12 14.5q-16 5 -25 12t-9 22q0 33 42 33h89q38 0 42 -25q43 38 111 38q106 0 161 -75.5t55 -199.5q0 -115 -58 -192t-167 -77q-62 0 -101 29v-193h-123v572zM374 277q0 92 -31.5 141.5t-75.5 49.5q-37 0 -65 -36.5t-28 -99.5v-95q0 -78 27.5 -111 t66.5 -33q38 0 72 47t34 137z" />
<glyph unicode="q" horiz-adv-x="512" d="M138 277q0 -98 32 -138.5t67 -40.5q36 1 67 40t31 121v73q0 63 -28.5 99.5t-69.5 36.5t-70 -45.5t-29 -145.5zM338 53q-41 -42 -109 -42q-109 0 -162.5 77.5t-53.5 191.5q0 124 56 199.5t160 75.5q76 0 119 -44q3 8 8 16q20 28 51 28h55v-708h-124v206z" />
<glyph unicode="r" horiz-adv-x="361" d="M61 419q0 32 -4.5 42.5t-11.5 13.5q-16 4 -26.5 11.5t-10.5 23.5q0 32 43 32h88q44 0 44 -36v-8q7 7 15 13q45 39 118 39h51v-112q-96 21 -154 -23q-17 -12 -30 -34v-363h-122v401z" />
<glyph unicode="s" horiz-adv-x="418" d="M184 253q-73 25 -117.5 63.5t-44.5 93.5q0 67 48 107.5t142 43.5q41 2 81.5 -6.5t79.5 -27.5v-121q-58 50 -93.5 61.5t-63.5 10.5q-33 0 -52.5 -14t-21.5 -43q-1 -25 28.5 -45.5t83.5 -41.5q81 -30 116.5 -68t35.5 -89q0 -77 -55.5 -121.5t-155.5 -44.5q-49 0 -91.5 13.5 t-63.5 32.5q-22 19 -23 34.5t6 26.5q15 21 38 22.5t43 -16.5q18 -13 44 -21.5t47 -8.5q49 2 71.5 26t16.5 59q-2 17 -22 36t-77 38z" />
<glyph unicode="t" horiz-adv-x="326" d="M189 745v-203h135v-81h-134v-310q0 -36 12.5 -47t38.5 -11q14 0 27.5 0.5t64.5 13.5v-84q-34 -11 -65.5 -13t-48.5 -2q-51 0 -84 11.5t-47 33.5q-16 20 -18.5 50.5t-2.5 63.5v294h-72v81h72v77z" />
<glyph unicode="u" horiz-adv-x="512" d="M471 18h-124v51l-10 -10q-49 -48 -126 -48q-69 0 -115 48.5t-46 156.5v204q0 31 -4.5 41t-9.5 12q-16 6 -26.5 12.5t-10.5 24.5q0 32 42 32h90q43 0 43 -33v-287q0 -70 18 -93.5t44 -23.5q48 0 88 48q13 16 23 42v224q0 32 -4 42t-15 15q-15 4 -24 11t-9 21q0 34 43 34 h90q43 0 43 -36v-488z" />
<glyph unicode="v" horiz-adv-x="466" d="M256 211l113 331h62q34 0 41 -17t3 -34l-178 -476h-86l-177 431q-7 16 -9.5 24.5t-11.5 11.5q-11 3 -18.5 9t-7.5 24q0 27 43 27h100z" />
<glyph unicode="w" horiz-adv-x="636" d="M515 15h-98l-94 312l-85 -312h-98l-112 431q-5 15 -8.5 24.5t-9.5 12.5q-9 5 -17 11t-8 19q0 29 41 29h100l68 -304l75 299h113l82 -301l74 306h67q20 0 29.5 -11t7.5 -30z" />
<glyph unicode="x" horiz-adv-x="442" d="M434 496l-140 -202l181 -276h-135l-116 175l-122 -175h-121l180 271l-92 140q-11 16 -23 33t-17 19q-18 9 -24 14.5t-6 21.5q0 25 44 25h89l98 -149l100 149h77q22 0 28.5 -16t-1.5 -30z" />
<glyph unicode="y" horiz-adv-x="436" d="M81 -149q-55 9 -84 47.5t-29 112.5h119q0 -33 2.5 -46.5t6.5 -19.5q7 -10 16.5 -11t12.5 -1q11 1 21 18t22 54l18 56l-133 343q-10 32 -19.5 53.5t-16.5 23.5q-14 4 -22.5 11.5t-8.5 20.5q0 29 43 29h106l111 -305l102 305h72q23 0 31.5 -15t4.5 -32l-180 -514 q-32 -93 -82.5 -117.5t-112.5 -12.5z" />
<glyph unicode="z" horiz-adv-x="446" d="M354 141q3 11 10 23t31 12q26 0 35 -11t9 -27l-7 -119h-424v60l271 384h-118q-28 0 -40 -7t-21 -30q-3 -9 -10.5 -21t-38.5 -12q-17 0 -24.5 10.5t-7.5 25.5l5 114h401v-60l-272 -383h120q40 0 57.5 10.5t23.5 30.5z" />
<glyph unicode="{" horiz-adv-x="416" d="M82 374q53 11 76.5 33t23.5 73q0 27 -17 105.5t9 128.5q27 47 71 76.5t105 34.5q29 1 35 -27t-29 -40q-24 -7 -46 -25.5t-30 -53.5q-12 -39 -2.5 -94.5t9.5 -81.5q0 -58 -21 -97.5t-52 -55.5q31 -17 52 -56.5t21 -97.5q0 -28 -9.5 -82.5t2.5 -93.5q8 -35 30 -54.5 t46 -24.5q35 -12 29 -40t-35 -27q-61 6 -105 34t-71 77q-26 50 -9 127.5t17 104.5q0 53 -23.5 75t-76.5 33v49z" />
<glyph unicode="|" horiz-adv-x="310" d="M106 816h98v-932h-98v932z" />
<glyph unicode="}" horiz-adv-x="416" d="M334 325q-53 -11 -77 -33t-24 -75q0 -27 17 -104.5t-11 -127.5q-24 -49 -68 -77t-106 -34q-28 -1 -34 27t26 40q26 5 47.5 24.5t31.5 54.5q11 39 2 93.5t-9 82.5q0 58 21 97.5t52 56.5q-31 16 -52 55.5t-21 97.5q0 26 9 81.5t-2 94.5q-10 35 -31.5 53.5t-47.5 25.5 q-32 12 -26 40t34 27q62 -5 106 -34.5t68 -76.5q28 -50 11 -128.5t-17 -105.5q0 -51 24 -73t77 -33v-49z" />
<glyph unicode="~" horiz-adv-x="545" d="M512 512q0 -113 -38.5 -164.5t-102.5 -51.5q-36 0 -66 14.5t-63 54.5q-29 36 -42.5 44t-21.5 8q-17 0 -30.5 -22t-14.5 -100h-99q0 114 40 165.5t102 51.5q37 0 66 -15t62 -53q23 -30 37.5 -41t25.5 -11q19 0 32 22.5t13 97.5h100z" />
<glyph unicode="&#x25fc;" horiz-adv-x="540" d="M0 540h540v-540h-540v540z" />
<glyph unicode="&#xac00;" horiz-adv-x="831" d="M67 613q-32 0 -32 47q0 46 33 46h352q27 0 38.5 -20.5t8.5 -43.5q-24 -135 -130.5 -266t-239.5 -212q-57 -37 -78.5 -10t7.5 53q111 85 192 203t103 203h-254zM562 736q0 29 -6.5 36t-19.5 11q-24 5 -38 13t-14 25q0 39 44 39h108q52 0 52 -42v-309h109q32 0 32 -48 t-32 -48h-109v-438q0 -92 -96 -92h-30v853z" />
<glyph unicode="&#xac01;" horiz-adv-x="831" d="M67 660q-32 0 -32 47q0 46 34 46h348q22 0 34 -20.5t10 -41.5q-21 -111 -129 -229t-239 -184q-59 -33 -76 -3.5t13 48.5q115 74 191.5 178t93.5 159h-248zM562 736q0 29 -6.5 36t-19.5 11q-24 5 -38 13t-14 25q0 39 44 39h108q52 0 52 -42v-222h109q32 0 32 -48t-32 -48 h-109v-138q0 -92 -96 -92h-30v466zM180 142q-27 0 -27 47q0 46 28 46h457q42 0 42 -47v-221q0 -104 -89 -104h-36v279h-375z" />
<glyph unicode="&#xac04;" horiz-adv-x="831" d="M67 658q-32 0 -32 47q0 46 34 46h348q22 0 34 -20.5t10 -41.5q-24 -124 -131.5 -251.5t-236.5 -197.5q-57 -36 -75 -5.5t11 50.5q114 79 192.5 194.5t95.5 178.5h-250zM528 860h108q52 0 52 -42v-252h109q32 0 32 -48q0 -49 -32 -49h-109v-257q0 -92 -96 -92h-30v616 q0 29 -6.5 36t-19.5 11q-24 5 -38 13t-14 25q0 39 44 39zM692 -107h-369q-102 0 -102 91v114q0 29 -7 36t-21 12q-26 7 -33 15t-7 23q0 35 38 35h104q52 0 52 -46v-164q0 -22 19 -22h330q33 0 33 -47t-37 -47z" />
<glyph unicode="&#xac07;" horiz-adv-x="831" d="M67 660q-32 0 -32 47q0 46 34 46h348q22 0 34 -20.5t10 -41.5q-21 -111 -125 -231t-243 -197q-57 -36 -75 -6t11 51q121 85 195 189t91 163h-248zM562 736q0 29 -6.5 36t-19.5 11q-24 5 -38 13t-14 25q0 39 44 39h108q52 0 52 -42v-225h109q32 0 32 -48t-32 -48h-109 v-121q0 -92 -96 -92h-30v452zM657 -114h-357q-66 0 -66 69v161q0 36 -3 44t-17 13q-13 8 -22 16t-9 24q0 36 28 36h437q36 0 36 -48q0 -45 -32 -45h-292v-154q0 -23 25 -23h278q31 0 31 -46q0 -47 -37 -47z" />
<glyph unicode="&#xac08;" horiz-adv-x="831" d="M67 668q-32 0 -32 47q0 46 34 46h348q21 0 34 -20.5t10 -42.5q-24 -111 -129.5 -219.5t-238.5 -173.5q-59 -30 -76 -1.5t13 48.5q115 72 188.5 163t96.5 153h-248zM562 736q0 29 -6.5 36t-19.5 11q-24 5 -38 13t-14 25q0 39 44 39h108q52 0 52 -42v-191h109q32 0 32 -48 t-32 -48h-109v-99q0 -93 -96 -93h-30v397zM675 -121h-388q-58 0 -58 69v78q0 23 -6.5 29.5t-14.5 10.5q-12 3 -19.5 11t-7.5 26q0 34 27 34h347v74h-323q-31 0 -31 47q0 46 32 46h408q40 0 40 -50v-151q0 -57 -41 -57h-285v-56q0 -19 24 -19h300q32 0 32 -45q0 -47 -36 -47z " />
<glyph unicode="&#xac09;" horiz-adv-x="831" d="M67 668q-32 0 -32 47q0 46 34 46h348q21 0 34 -20.5t10 -42.5q-24 -111 -129.5 -219.5t-238.5 -173.5q-59 -30 -76 -1.5t13 48.5q115 72 188.5 163t96.5 153h-248zM562 736q0 29 -6.5 36t-19.5 11q-24 5 -38 13t-14 25q0 39 44 39h108q52 0 52 -42v-191h109q32 0 32 -48 t-32 -48h-109v-99q0 -93 -96 -93h-30v397zM127 211q-32 0 -32 47q0 46 35 46h237q43 0 43 -48v-156q0 -54 -34 -54h-152v-59q0 -16 18 -16h166q31 0 31 -45q0 -47 -37 -47h-212q-70 0 -70 77v72q0 24 -2.5 30t-12.5 10q-11 6 -16 12t-5 25q0 31 28 31h192v75h-177zM462 304 h180q46 0 46 -46v-279q0 -100 -72 -100h-33v332h-126q-32 0 -32 47q0 46 37 46z" />
<glyph unicode="&#xac0a;" horiz-adv-x="831" d="M67 668q-32 0 -32 47q0 46 34 46h348q21 0 34 -20.5t10 -42.5q-24 -111 -129.5 -219.5t-238.5 -173.5q-59 -30 -76 -1.5t13 48.5q115 72 188.5 163t96.5 153h-248zM562 736q0 29 -6.5 36t-19.5 11q-24 5 -38 13t-14 25q0 39 44 39h108q52 0 52 -42v-191h109q32 0 32 -48 t-32 -48h-109v-99q0 -93 -96 -93h-30v397zM524 -13h63v225h-63v-225zM127 211q-32 0 -32 47q0 46 35 46h205q43 0 43 -48v-156q0 -54 -34 -54h-120v-59q0 -16 18 -16h132q32 0 32 -45q0 -47 -40 -47h-172q-74 0 -74 77v73q0 24 -2.5 29.5t-12.5 9.5q-11 6 -16 12t-5 25 q0 31 28 31h163v75h-148zM636 304q53 0 53 -52v-203q0 -38 -12 -64q25 -7 25 -42q0 -47 -39 -47h-158q-18 -29 -49 -29h-32v312q0 38 -1.5 43t-8.5 10q-11 7 -18.5 13.5t-7.5 23.5q0 35 36 35h212z" />
<glyph unicode="&#xac10;" horiz-adv-x="831" d="M67 660q-32 0 -32 47q0 46 34 46h348q22 0 34 -20.5t10 -41.5q-21 -111 -125 -231t-243 -197q-57 -36 -75 -6t11 51q121 85 195 189t91 163h-248zM562 736q0 29 -6.5 36t-19.5 11q-24 5 -38 13t-14 25q0 39 44 39h108q52 0 52 -42v-225h109q32 0 32 -48t-32 -48h-109 v-121q0 -92 -96 -92h-30v452zM351 -21h208v177h-208v-177zM633 249q48 0 48 -55v-153q0 -38 -12 -63q25 -6 25 -45q0 -47 -37 -47h-332q-24 -29 -66 -29h-30v255q0 40 -3 48.5t-15 13.5q-12 7 -20.5 15t-8.5 24q0 36 42 36h409z" />
<glyph unicode="&#xac11;" horiz-adv-x="831" d="M67 668q-32 0 -32 47q0 46 34 46h348q21 0 34 -20.5t10 -42.5q-24 -111 -127.5 -220.5t-240.5 -185.5q-59 -38 -76 -6.5t12 51.5q115 79 188 170.5t98 160.5h-248zM562 736q0 29 -6.5 36t-19.5 11q-24 5 -38 13t-14 25q0 39 44 39h108q52 0 52 -42v-191h109q32 0 32 -48 t-32 -48h-109v-111q0 -92 -96 -92h-30v408zM349 167h212v34q0 27 -3 31t-6 5q-16 6 -26.5 12.5t-10.5 24.5q0 33 43 33h66q57 0 57 -45v-219q0 -40 -13 -65q26 -6 26 -45q0 -47 -37 -47h-335q-23 -28 -63 -28h-30v309q0 28 -2.5 33t-5.5 6q-11 4 -23.5 10.5t-12.5 24.5 q0 34 43 34h68q53 0 53 -44v-64zM561 74h-212v-95h212v95z" />
<glyph unicode="&#xac12;" horiz-adv-x="831" d="M67 668q-32 0 -32 47q0 46 34 46h348q21 0 34 -20.5t10 -42.5q-24 -111 -127.5 -220.5t-240.5 -185.5q-59 -38 -76 -6.5t12 51.5q115 79 188 170.5t98 160.5h-248zM562 736q0 29 -6.5 36t-19.5 11q-24 5 -38 13t-14 25q0 39 44 39h108q52 0 52 -42v-191h109q32 0 32 -48 t-32 -48h-109v-111q0 -92 -96 -92h-30v408zM433 -46q35 46 61 110q31 76 36 143q2 4 -2 6.5t-15 6.5q-18 5 -26 12t-8 21q0 35 37 35h71q50 -2 61.5 -21.5t7.5 -50.5q-7 -51 -27 -101l132 -131q21 -20 23 -43.5t-12 -38.5q-19 -20 -42 -13.5t-39 25.5l-101 125q-2 -3 -3 -5 q-59 -88 -117 -136q-16 -11 -29 -15q-12 -4 -24 7q-8 -4 -20 -4h-193q-20 -28 -54 -28h-24v305q0 27 -2 30t-5 4q-13 7 -21 14.5t-8 20.5q0 29 40 29h40q57 0 57 -42v-64h105v39q0 28 -2.5 31t-5.5 4q-17 7 -24 14t-7 21q0 28 43 28h40q57 0 57 -42v-207q0 -42 -14 -69 q10 -6 14 -20zM332 63h-105v-84h105v84z" />
<glyph unicode="&#xac13;" horiz-adv-x="831" d="M67 660q-32 0 -32 47q0 46 34 46h348q22 0 34 -20.5t10 -41.5q-21 -111 -125 -231t-243 -197q-57 -36 -75 -6t11 51q121 85 195 189t91 163h-248zM688 818v-225h109q32 0 32 -48t-32 -48h-109v-171q0 -92 -96 -92h-30v502q0 29 -6.5 36t-19.5 11q-24 5 -38 13t-14 25 q0 39 44 39h108q52 0 52 -42zM522 200q-9 -35 -29 -70l213 -149q20 -13 23.5 -36t-7.5 -38q-14 -19 -37 -21t-49 19l-193 159q-16 -18 -34 -36q-93 -89 -189 -139q-58 -32 -72.5 -4.5t20.5 52.5q83 56 139.5 128.5t79.5 129.5q4 5 -1 13.5t-19 12.5q-35 8 -32 35.5t36 27.5 h79q50 0 64 -26.5t8 -57.5z" />
<glyph unicode="&#xac14;" horiz-adv-x="831" d="M67 660q-32 0 -32 47q0 46 34 46h348q22 0 34 -20.5t10 -41.5q-21 -111 -125 -231t-243 -197q-57 -36 -75 -6t11 51q121 85 195 189t91 163h-248zM562 736q0 29 -6.5 36t-19.5 11q-24 5 -38 13t-14 25q0 39 44 39h108q52 0 52 -42v-225h109q32 0 32 -48t-32 -48h-109 v-121q0 -92 -96 -92h-30v452zM395 190q-6 -46 -31 -93l83 -74q7 9 13 19q47 82 61 151q2 4 -3 7t-14 6q-14 4 -23 10.5t-9 20.5q0 34 39 34h76q42 0 53.5 -19.5t9.5 -50.5q-7 -52 -33 -103l126 -113q24 -19 26 -39.5t-11 -36.5q-14 -16 -37 -18t-45 22l-105 111 q-5 -6 -9 -11q-77 -95 -148 -136q-54 -31 -70.5 -7t12.5 47q18 14 35 32l-74 79l-4 -4q-70 -84 -156 -133q-54 -33 -71.5 -8.5t14.5 49.5q66 48 110.5 121t55.5 127q2 4 -2.5 7.5t-13.5 6.5q-17 5 -25 11t-8 22q0 31 41 31h78q40 0 50.5 -19.5t8.5 -48.5z" />
<glyph unicode="&#xac15;" horiz-adv-x="831" d="M67 660q-32 0 -32 47q0 46 34 46h348q22 0 34 -20.5t10 -41.5q-21 -111 -125 -231t-243 -197q-57 -36 -75 -6t11 51q121 85 195 189t91 163h-248zM562 736q0 29 -6.5 36t-19.5 11q-24 5 -38 13t-14 25q0 39 44 39h108q52 0 52 -42v-225h109q32 0 32 -48t-32 -48h-109 v-136q0 -92 -96 -92h-30v467zM231 64q0 85 63 146.5t163 61.5t163.5 -61.5t63.5 -146.5q0 -82 -63.5 -142t-163.5 -60t-163 60t-63 142zM560 66q0 46 -30 78.5t-74 32.5q-42 0 -71.5 -32.5t-29.5 -78.5q0 -45 29.5 -77t71.5 -32q44 0 74 32t30 77z" />
<glyph unicode="&#xac16;" horiz-adv-x="831" d="M67 660q-32 0 -32 47q0 46 34 46h348q22 0 34 -20.5t10 -41.5q-21 -111 -125 -231t-243 -197q-57 -36 -75 -6t11 51q121 85 195 189t91 163h-248zM562 736q0 29 -6.5 36t-19.5 11q-24 5 -38 13t-14 25q0 39 44 39h108q52 0 52 -42v-225h109q32 0 32 -48t-32 -48h-109 v-121q0 -92 -96 -92h-30v452zM219 156q-30 0 -30 47q0 46 33 46h365q34 0 47 -26t2 -56q-24 -53 -92 -110l156 -82q26 -14 31 -33.5t-4 -40.5q-12 -21 -34 -26t-48 15l-171 115q-2 -3 -4 -4q-132 -88 -271 -130q-33 -11 -46 17.5t21 44.5q96 41 180 105.5t128 117.5h-263z " />
<glyph unicode="&#xac17;" horiz-adv-x="831" d="M67 668q-32 0 -32 47q0 46 34 46h348q21 0 34 -20.5t10 -42.5q-24 -111 -127.5 -220.5t-240.5 -185.5q-59 -38 -76 -6.5t12 51.5q115 79 188 170.5t98 160.5h-248zM562 736q0 29 -6.5 36t-19.5 11q-24 5 -38 13t-14 25q0 39 44 39h108q52 0 52 -42v-191h109q32 0 32 -48 t-32 -48h-109v-166q0 -92 -96 -92h-30v463zM219 82q-29 0 -29 42t33 42h368q34 0 47 -25.5t-3 -52.5q-26 -36 -78 -72l133 -47q29 -9 39 -26t6 -36q-5 -18 -25 -26t-53 7l-188 79q-115 -56 -237 -81q-80 -19 -94 8t50 47q84 26 168 73t108 68h-245zM326 230l-29 24 q-12 13 -14 24t6 22q11 16 29 15t37 -11q33 -18 73.5 -20t93.5 -2q43 -2 43 -42q0 -20 -13 -30.5t-32 -10.5l-95 1q-64 0 -99 30z" />
<glyph unicode="&#xac19;" horiz-adv-x="831" d="M67 668q-32 0 -32 47q0 46 34 46h348q21 0 34 -20.5t10 -42.5q-24 -111 -129.5 -219.5t-238.5 -173.5q-59 -30 -76 -1.5t13 48.5q115 72 188.5 163t96.5 153h-248zM562 736q0 29 -6.5 36t-19.5 11q-24 5 -38 13t-14 25q0 39 44 39h108q52 0 52 -42v-191h109q32 0 32 -48 t-32 -48h-109v-99q0 -93 -96 -93h-30v397zM644 137q37 0 37 -45q0 -46 -37 -46h-292v-51q0 -24 25 -24h290q31 0 31 -45q0 -47 -36 -47h-367q-66 0 -66 69v223q0 36 -3 44.5t-17 13.5q-13 7 -19.5 15t-6.5 25q0 35 28 35h444q35 0 35 -48q0 -45 -32 -45h-306v-74h292z" />
<glyph unicode="&#xac1a;" horiz-adv-x="831" d="M67 660q-32 0 -32 47q0 46 34 46h348q22 0 34 -20.5t10 -41.5q-21 -111 -125 -231t-243 -197q-57 -36 -75 -6t11 51q121 85 195 189t91 163h-248zM562 736q0 29 -6.5 36t-19.5 11q-24 5 -38 13t-14 25q0 39 44 39h108q52 0 52 -42v-225h109q32 0 32 -48t-32 -48h-109 v-121q0 -92 -96 -92h-30v452zM682 157h-67v-179h67q36 0 36 -46t-36 -46h-506q-33 0 -33 46t33 46h83v179h-83q-33 0 -33 46t33 46h506q36 0 36 -46t-36 -46zM495 157h-115v-179h115v179z" />
<glyph unicode="&#xac1b;" horiz-adv-x="831" d="M67 668q-32 0 -32 47q0 46 34 46h348q21 0 34 -20.5t10 -42.5q-24 -111 -129.5 -226.5t-238.5 -181.5q-59 -29 -76 -0.5t13 47.5q114 72 188 170.5t97 160.5h-248zM562 736q0 29 -6.5 36t-19.5 11q-24 5 -38 13t-14 25q0 39 44 39h108q52 0 52 -42v-191h109q32 0 32 -48 t-32 -48h-109v-138q0 -93 -96 -93h-30v436zM682 94h-61q22 -33 22 -75q0 -63 -52 -110.5t-142 -47.5t-141.5 47.5t-51.5 110.5q0 42 23 75h-63q-35 0 -35 44q0 43 35 43h466q36 0 36 -43q0 -44 -36 -44zM524 21q0 30 -22 51q-23 22 -55 22q-30 0 -52 -22q-22 -21 -22 -51 q0 -28 22 -48.5t52 -20.5q32 0 54.5 20.5t22.5 48.5zM326 239l-29 25q-12 12 -14 23t6 23q11 15 29 14t37 -11q33 -18 83.5 -20t104.5 -2q43 -2 43 -42q0 -20 -13.5 -30.5t-32.5 -10.5l-116 1q-63 0 -98 30z" />
<glyph unicode="&#xac1c;" horiz-adv-x="813" d="M67 613q-32 0 -32 47q0 46 35 46h292q28 0 37.5 -20t7.5 -44q-21 -134 -114 -267.5t-198 -211.5q-55 -42 -75 -13t5 54q99 90 164 206t83 203h-205zM767 813v-835q0 -96 -95 -96h-24v539h-70v-386q0 -92 -89 -92h-24v746q0 29 -6 36t-21 11q-23 6 -35.5 13t-12.5 22 q0 36 42 36h93q53 0 53 -43v-251h70v227q0 26 -4.5 33.5t-19.5 11.5q-25 5 -37 12t-12 24q0 39 47 39h92q53 0 53 -47z" />
<glyph unicode="&#xac1d;" horiz-adv-x="813" d="M67 649q-32 0 -32 47q0 46 35 46h297q23 0 33 -21t8 -42q-20 -114 -109 -224t-209 -183q-53 -35 -73 -9t7 52q100 76 166.5 174.5t81.5 159.5h-205zM767 812v-443q0 -99 -95 -99h-24v233h-81v-131q0 -92 -88 -92h-24v409q0 29 -6.5 36t-20.5 11q-24 6 -36 13t-12 22 q0 36 42 36h93q52 0 52 -43v-169h81v145q0 26 -4.5 33.5t-19.5 11.5q-25 5 -37 12t-12 24q0 39 47 39h92q53 0 53 -48zM225 142q-27 0 -27 47q0 46 28 46h489q41 0 41 -47v-221q0 -104 -89 -104h-36v279h-406z" />
<glyph unicode="&#xac20;" horiz-adv-x="813" d="M67 641q-32 0 -32 48q0 46 35 46h297q23 0 33 -21t7 -42q-19 -125 -107 -251t-206 -206q-54 -34 -75 -9.5t5 49.5q103 89 170 206.5t78 179.5h-205zM767 812v-597q0 -97 -95 -97h-24v354h-81v-240q0 -92 -88 -92h-24v549q0 29 -6.5 36t-20.5 11q-24 6 -36 13t-12 22 q0 36 42 36h93q52 0 52 -43v-199h81v175q0 26 -4.5 33.5t-19.5 11.5q-25 5 -37 12t-12 24q0 39 47 39h92q53 0 53 -48zM752 -107h-401q-101 0 -101 91v114q0 29 -7 36t-22 12q-25 7 -32.5 15t-7.5 23q0 35 39 35h104q52 0 52 -46v-164q0 -22 18 -22h362q32 0 32 -47t-36 -47 z" />
<glyph unicode="&#xac24;" horiz-adv-x="813" d="M67 654q-32 0 -32 47q0 46 35 46h297q23 0 33 -21t8 -42q-23 -117 -109.5 -223.5t-208.5 -178.5q-55 -35 -74 -8t9 51q107 80 169.5 176.5t77.5 152.5h-205zM767 812v-390q0 -99 -95 -99h-24v206h-81v-104q0 -92 -88 -92h-24v356q0 29 -6.5 36t-20.5 11q-24 6 -36 13 t-12 22q0 36 42 36h93q52 0 52 -43v-143h81v119q0 26 -4.5 33.5t-19.5 11.5q-25 5 -37 12t-12 24q0 39 47 39h92q53 0 53 -48zM752 -121h-410q-57 0 -57 69v73q0 22 -7 29t-15 11q-12 3 -19 11t-7 26q0 33 26 33h368v70h-343q-32 0 -32 47q0 45 33 45h428q40 0 40 -49v-146 q0 -57 -41 -57h-305v-51q0 -19 23 -19h321q31 0 31 -45q0 -47 -34 -47z" />
<glyph unicode="&#xac2c;" horiz-adv-x="813" d="M67 649q-32 0 -32 47q0 46 35 46h297q23 0 33 -21t8 -42q-20 -114 -109 -227.5t-209 -185.5q-55 -34 -74 -7t10 51q96 73 163 172.5t83 166.5h-205zM767 812v-429q0 -99 -95 -99h-24v224h-81v-122q0 -92 -88 -92h-24v395q0 29 -6.5 36t-20.5 11q-24 6 -36 13t-12 22 q0 36 42 36h93q52 0 52 -43v-164h81v140q0 26 -4.5 33.5t-19.5 11.5q-25 5 -37 12t-12 24q0 39 47 39h92q53 0 53 -48zM396 -21h239v177h-239v-177zM710 249q47 0 47 -55v-153q0 -38 -13 -63q26 -6 26 -45q0 -47 -37 -47h-363q-24 -29 -66 -29h-30v255q0 40 -3 48.5 t-15 13.5q-12 7 -20.5 15t-8.5 24q0 36 42 36h441z" />
<glyph unicode="&#xac2d;" horiz-adv-x="813" d="M67 654q-32 0 -32 47q0 46 35 46h297q23 0 33 -21t8 -42q-20 -114 -110 -226.5t-206 -189.5q-56 -38 -74.5 -10.5t6.5 53.5q93 73 163.5 176.5t84.5 166.5h-205zM767 812v-389q0 -99 -95 -99h-24v195h-81v-93q0 -92 -88 -92h-24v355q0 29 -6.5 36t-20.5 11q-24 6 -36 13 t-12 22q0 36 42 36h93q52 0 52 -43v-153h81v129q0 26 -4.5 33.5t-19.5 11.5q-25 5 -37 12t-12 24q0 39 47 39h92q53 0 53 -48zM399 165h238v32q0 27 -3 31t-6 5q-17 6 -27 12.5t-10 24.5q0 32 43 32h65q58 0 58 -45v-214q0 -40 -14 -65q27 -6 27 -45q0 -47 -37 -47h-361 q-23 -28 -63 -28h-29v305q0 28 -3 33t-6 6q-11 4 -23 10.5t-12 24.5q0 34 43 34h67q53 0 53 -44v-62zM637 72h-238v-93h238v93z" />
<glyph unicode="&#xac2f;" horiz-adv-x="813" d="M67 649q-32 0 -32 47q0 46 35 46h297q23 0 33 -21t8 -42q-20 -114 -109 -227.5t-209 -185.5q-55 -34 -74 -7t10 51q96 73 163 172.5t83 166.5h-205zM767 812v-470q0 -99 -95 -99h-24v265h-81v-106q0 -92 -88 -92h-24v379q0 29 -6.5 36t-20.5 11q-24 6 -36 13t-12 22 q0 36 42 36h93q52 0 52 -43v-164h81v140q0 26 -4.5 33.5t-19.5 11.5q-25 5 -37 12t-12 24q0 39 47 39h92q53 0 53 -48zM562 199q-8 -33 -30 -68l230 -151q23 -15 25.5 -37t-7.5 -37q-15 -20 -37 -21.5t-49 18.5l-211 164q-17 -18 -37 -38q-97 -91 -199 -142 q-60 -30 -74.5 -2.5t22.5 52.5q84 55 144.5 127t87.5 130q4 5 -1 13.5t-19 12.5q-35 8 -32 35.5t36 27.5h78q52 0 65 -26.5t8 -57.5z" />
<glyph unicode="&#xac30;" horiz-adv-x="813" d="M67 649q-32 0 -32 47q0 46 35 46h297q23 0 33 -21t8 -42q-20 -114 -109 -227.5t-209 -185.5q-55 -34 -74 -7t10 51q96 73 163 172.5t83 166.5h-205zM767 812v-429q0 -99 -95 -99h-24v224h-81v-122q0 -92 -88 -92h-24v395q0 29 -6.5 36t-20.5 11q-24 6 -36 13t-12 22 q0 36 42 36h93q52 0 52 -43v-164h81v140q0 26 -4.5 33.5t-19.5 11.5q-25 5 -37 12t-12 24q0 39 47 39h92q53 0 53 -48zM420 190q-6 -42 -27 -84l94 -83q7 9 13 19q47 82 61 151q2 4 -3 7t-14 6q-14 4 -23 10.5t-9 20.5q0 34 39 34h76q42 0 53.5 -19.5t9.5 -50.5 q-6 -50 -31 -100l129 -116q24 -19 26 -39.5t-11 -36.5t-36.5 -18t-45.5 22l-108 114q-6 -7 -11 -14q-77 -95 -148 -136q-54 -31 -70.5 -7t12.5 47q18 14 35 32l-82 88q-5 -7 -11 -13q-71 -84 -157 -133q-53 -33 -71 -8.5t15 49.5q65 48 110 121t56 127q2 4 -2.5 7.5 t-14.5 6.5q-16 5 -24 11t-8 22q0 31 41 31h77q40 0 51 -19.5t9 -48.5z" />
<glyph unicode="&#xac31;" horiz-adv-x="813" d="M67 649q-32 0 -32 47q0 46 35 46h297q23 0 33 -21t8 -42q-20 -114 -109 -227.5t-209 -185.5q-55 -34 -74 -7t10 51q96 73 163 172.5t83 166.5h-205zM767 812v-445q0 -99 -95 -99h-24v240h-81v-112q0 -92 -88 -92h-24v385q0 29 -6.5 36t-20.5 11q-24 6 -36 13t-12 22 q0 36 42 36h93q52 0 52 -43v-164h81v140q0 26 -4.5 33.5t-19.5 11.5q-25 5 -37 12t-12 24q0 39 47 39h92q53 0 53 -48zM287 64q0 85 63 146.5t162 61.5q100 0 163.5 -61.5t63.5 -146.5q0 -82 -63.5 -142t-163.5 -60q-99 0 -162 60t-63 142zM615 66q0 46 -30 78.5t-74 32.5 q-42 0 -71 -32.5t-29 -78.5q0 -45 29 -77t71 -32q44 0 74 32t30 77z" />
<glyph unicode="&#xac38;" horiz-adv-x="831" d="M67 613q-32 0 -32 47q0 46 33 46h352q27 0 38.5 -20.5t8.5 -43.5q-24 -135 -130.5 -266t-239.5 -212q-57 -37 -78.5 -10t7.5 53q111 85 192 203t103 203h-254zM688 -22q0 -95 -96 -95h-30v853q0 29 -6.5 36t-19.5 11q-24 5 -38 13t-14 25q0 39 44 39h108q52 0 52 -43 v-189h97q44 0 44 -46q0 -47 -44 -47h-97v-163h97q44 0 44 -46q0 -47 -44 -47h-97v-301z" />
<glyph unicode="&#xac39;" horiz-adv-x="831" d="M67 660q-32 0 -32 47q0 46 34 46h348q22 0 34 -20.5t10 -41.5q-21 -111 -129 -229t-239 -184q-59 -33 -76 -3.5t13 48.5q115 74 191.5 178t93.5 159h-248zM688 367q0 -97 -96 -97h-30v466q0 29 -6.5 36t-19.5 11q-24 5 -38 13t-14 25q0 39 44 39h108q52 0 52 -47v-114h97 q44 0 44 -46q0 -47 -44 -47h-97v-121h97q44 0 44 -46q0 -47 -44 -47h-97v-25zM180 142q-27 0 -27 47q0 46 28 46h457q42 0 42 -47v-221q0 -104 -89 -104h-36v279h-375z" />
<glyph unicode="&#xac3c;" horiz-adv-x="831" d="M67 658q-32 0 -32 47q0 46 34 46h348q22 0 34 -20.5t10 -41.5q-24 -124 -131.5 -251.5t-236.5 -197.5q-57 -36 -75 -5.5t11 50.5q114 79 192.5 194.5t95.5 178.5h-250zM688 215q0 -95 -96 -95h-30v616q0 29 -6.5 36t-19.5 11q-24 5 -38 13t-14 25q0 39 44 39h108 q52 0 52 -46v-141h97q44 0 44 -46q0 -47 -44 -47h-97v-121h97q44 0 44 -46q0 -47 -44 -47h-97v-151zM692 -107h-369q-102 0 -102 91v114q0 29 -7 36t-21 12q-26 7 -33 15t-7 23q0 35 38 35h104q52 0 52 -46v-164q0 -22 19 -22h330q33 0 33 -47t-37 -47z" />
<glyph unicode="&#xac40;" horiz-adv-x="831" d="M67 668q-32 0 -32 47q0 46 34 46h348q21 0 34 -20.5t10 -42.5q-24 -111 -129.5 -219.5t-238.5 -173.5q-59 -30 -76 -1.5t13 48.5q115 72 188.5 163t96.5 153h-248zM688 437q0 -98 -96 -98h-30v397q0 29 -6.5 36t-19.5 11q-24 5 -38 13t-14 25q0 39 44 39h108q52 0 52 -47 v-99h97q44 0 44 -46q0 -47 -44 -47h-97v-90h97q44 0 44 -46q0 -47 -44 -47h-97v-1zM675 -121h-388q-58 0 -58 69v78q0 23 -6.5 29.5t-14.5 10.5q-12 3 -19.5 11t-7.5 26q0 34 27 34h347v74h-323q-31 0 -31 47q0 46 32 46h408q40 0 40 -50v-151q0 -57 -41 -57h-285v-56 q0 -19 24 -19h300q32 0 32 -45q0 -47 -36 -47z" />
<glyph unicode="&#xac4b;" horiz-adv-x="831" d="M67 660q-32 0 -32 47q0 46 34 46h348q22 0 34 -20.5t10 -41.5q-21 -111 -125 -231t-243 -197q-57 -36 -75 -6t11 51q121 85 195 189t91 163h-248zM688 331q0 -97 -96 -97h-30v502q0 29 -6.5 36t-19.5 11q-24 5 -38 13t-14 25q0 39 44 39h108q52 0 52 -47v-119h97 q44 0 44 -46q0 -48 -44 -48h-97v-120h97q44 0 44 -46q0 -48 -44 -48h-97v-55zM522 200q-9 -35 -29 -70l213 -149q20 -13 23.5 -36t-7.5 -38q-14 -19 -37 -21t-49 19l-193 159q-16 -18 -34 -36q-93 -89 -189 -139q-58 -32 -72.5 -4.5t20.5 52.5q83 56 139.5 128.5t79.5 129.5 q4 5 -1 13.5t-19 12.5q-35 8 -32 35.5t36 27.5h79q50 0 64 -26.5t8 -57.5z" />
<glyph unicode="&#xac4d;" horiz-adv-x="831" d="M67 660q-32 0 -32 47q0 46 34 46h348q22 0 34 -20.5t10 -41.5q-21 -111 -125 -231t-243 -197q-57 -36 -75 -6t11 51q121 85 195 189t91 163h-248zM688 366q0 -97 -96 -97h-30v467q0 29 -6.5 36t-19.5 11q-24 5 -38 13t-14 25q0 39 44 39h108q52 0 52 -47v-119h97 q44 0 44 -46q0 -48 -44 -48h-97v-120h97q44 0 44 -46q0 -48 -44 -48h-97v-20zM231 64q0 85 63 146.5t163 61.5t163.5 -61.5t63.5 -146.5q0 -82 -63.5 -142t-163.5 -60t-163 60t-63 142zM560 66q0 46 -30 78.5t-74 32.5q-42 0 -71.5 -32.5t-29.5 -78.5q0 -45 29.5 -77 t71.5 -32q44 0 74 32t30 77z" />
<glyph unicode="&#xac54;" horiz-adv-x="813" d="M67 613q-32 0 -32 47q0 46 35 46h292q28 0 37.5 -20t7.5 -44q-21 -134 -114 -267.5t-198 -211.5q-55 -42 -75 -13t5 54q99 90 164 206t83 203h-205zM577 385h72v155h-72v-155zM649 293h-72v-255q0 -95 -91 -95h-21v746q0 29 -6 36t-21 11q-23 6 -35.5 13t-12.5 22 q0 36 42 36h91q54 0 54 -45v-130h72v107q0 27 -4.5 34.5t-19.5 11.5q-25 5 -36.5 12t-11.5 24q0 39 46 39h91q53 0 53 -47v-835q0 -96 -97 -96h-21v411z" />
<glyph unicode="&#xac58;" horiz-adv-x="813" d="M67 641q-32 0 -32 48q0 46 35 46h297q23 0 33 -21t7 -42q-19 -125 -107 -251t-206 -206q-54 -34 -75 -9.5t5 49.5q103 89 170 206.5t78 179.5h-205zM566 438h83v125h-83v-125zM649 345h-83v-110q0 -95 -90 -95h-21v549q0 29 -6.5 36t-20.5 11q-24 6 -36 13t-12 22 q0 36 42 36h91q53 0 53 -45v-107h83v84q0 27 -4.5 34.5t-19.5 11.5q-25 5 -36.5 12t-11.5 24q0 39 46 39h91q53 0 53 -48v-597q0 -97 -97 -97h-21v227zM752 -107h-401q-101 0 -101 91v114q0 29 -7 36t-22 12q-25 7 -32.5 15t-7.5 23q0 35 39 35h104q52 0 52 -46v-164 q0 -22 18 -22h362q32 0 32 -47t-36 -47z" />
<glyph unicode="&#xac5c;" horiz-adv-x="813" d="M67 654q-32 0 -32 47q0 46 35 46h297q23 0 33 -21t8 -42q-23 -117 -109.5 -223.5t-208.5 -178.5q-55 -35 -74 -8t9 51q107 80 169.5 176.5t77.5 152.5h-205zM566 544h83v78h-83v-78zM649 452h-83v-24q0 -95 -90 -95h-21v356q0 29 -6.5 36t-20.5 11q-24 6 -36 13t-12 22 q0 36 42 36h91q53 0 53 -45v-48h83v25q0 27 -4.5 34.5t-19.5 11.5q-25 5 -36.5 12t-11.5 24q0 39 46 39h91q53 0 53 -48v-392q0 -97 -97 -97h-21v129zM752 -121h-410q-57 0 -57 69v73q0 22 -7 29t-15 11q-12 3 -19 11t-7 26q0 33 26 33h368v70h-343q-32 0 -32 47q0 45 33 45 h428q40 0 40 -49v-146q0 -57 -41 -57h-305v-51q0 -19 23 -19h321q31 0 31 -45q0 -47 -34 -47z" />
<glyph unicode="&#xac70;" horiz-adv-x="776" d="M67 613q-32 0 -32 47q0 46 33 46h356q28 0 39 -20.5t8 -43.5q-14 -81 -59 -161q4 1 8 1h161v256q0 27 -7 34t-20 11q-24 5 -37.5 13t-13.5 25q0 39 44 39h106q54 0 54 -43v-839q0 -96 -97 -96h-29v507h-161q-32 0 -32 47v7q-21 -33 -49 -66q-109 -131 -242 -213 q-56 -39 -78 -11t7 54q111 85 194 203t105 203h-258z" />
<glyph unicode="&#xac71;" horiz-adv-x="776" d="M67 660q-32 0 -32 47q0 46 34 46h352q22 0 34 -20.5t10 -41.5q-11 -58 -44 -116h160v164q0 26 -7 33t-20 11q-24 5 -37.5 13t-13.5 25q0 39 44 39h106q54 0 54 -47v-445q0 -98 -97 -98h-29v212h-155q-33 0 -33 47v3q-25 -36 -58 -71q-110 -117 -242 -185 q-59 -31 -76 -1.5t13 48.5q120 77 196 179.5t93 157.5h-252zM199 142q-28 0 -28 47q0 46 29 46h456q42 0 42 -47v-221q0 -104 -89 -104h-36v279h-374z" />
<glyph unicode="&#xac74;" horiz-adv-x="776" d="M67 658q-32 0 -32 47q0 46 34 46h352q22 0 34 -20.5t10 -41.5q-23 -127 -130.5 -251t-241.5 -198q-57 -36 -75 -5.5t12 50.5q113 77 194 193t98 180h-255zM581 738q0 27 -7 34t-20 11q-24 5 -37.5 13t-13.5 25q0 39 44 39h106q54 0 54 -46v-598q0 -96 -97 -96h-29v310 h-157q-33 0 -33 46q0 48 33 48h157v214zM711 -107h-370q-101 0 -101 91v114q0 29 -7.5 36t-21.5 12q-26 7 -33 15t-7 23q0 35 39 35h103q53 0 53 -46v-164q0 -22 18 -22h331q33 0 33 -47t-37 -47z" />
<glyph unicode="&#xac77;" horiz-adv-x="776" d="M67 660q-32 0 -32 47q0 46 34 46h352q22 0 34 -20.5t10 -41.5q-11 -62 -51 -127q5 1 10 1h157v174q0 26 -7 33t-20 11q-24 5 -37.5 13t-13.5 25q0 39 44 39h106q54 0 54 -47v-431q0 -98 -97 -98h-29v187h-157q-32 0 -32 46q0 8 1 14q-25 -36 -60 -74q-113 -123 -239 -194 q-58 -37 -76 -6.5t11 51.5q121 85 197 189t93 163h-252zM675 -114h-358q-65 0 -65 69v161q0 36 -3 44t-18 13q-13 8 -21.5 16t-8.5 24q0 36 27 36h438q35 0 35 -48q0 -45 -31 -45h-292v-154q0 -23 24 -23h278q32 0 32 -46q0 -47 -37 -47z" />
<glyph unicode="&#xac78;" horiz-adv-x="776" d="M67 668q-32 0 -32 47q0 46 34 46h352q21 0 34 -20.5t10 -42.5q-12 -60 -49 -118h165v159q0 26 -7 33t-20 11q-24 5 -37.5 13t-13.5 25q0 39 44 39h106q54 0 54 -47v-374q0 -100 -97 -100h-29v148h-163q-32 0 -32 45v6q-22 -30 -52 -59q-108 -109 -241 -174 q-59 -30 -76 -1.5t13 48.5q115 72 190.5 163t98.5 153h-252zM692 -121h-388q-57 0 -57 69v78q0 23 -7 29.5t-15 10.5q-12 3 -19 11t-7 26q0 34 26 34h347v74h-322q-32 0 -32 47q0 46 33 46h407q40 0 40 -50v-151q0 -57 -41 -57h-284v-56q0 -19 23 -19h300q32 0 32 -45 q0 -47 -36 -47z" />
<glyph unicode="&#xac7a;" horiz-adv-x="776" d="M67 668q-32 0 -32 47q0 46 34 46h352q21 0 34 -20.5t10 -42.5q-12 -60 -49 -118h165v159q0 26 -7 33t-20 11q-24 5 -37.5 13t-13.5 25q0 39 44 39h106q54 0 54 -47v-374q0 -100 -97 -100h-29v148h-163q-32 0 -32 45v6q-22 -30 -52 -59q-108 -109 -241 -174 q-59 -30 -76 -1.5t13 48.5q115 72 190.5 163t98.5 153h-252zM542 -13h62v225h-62v-225zM144 211q-31 0 -31 47q0 46 34 46h205q43 0 43 -48v-156q0 -54 -34 -54h-119v-59q0 -16 17 -16h132q32 0 32 -45q0 -47 -40 -47h-172q-74 0 -74 77v73q0 24 -2.5 29.5t-11.5 9.5 q-11 6 -16.5 12t-5.5 25q0 31 28 31h164v75h-149zM653 304q54 0 54 -52v-203q0 -38 -13 -64q26 -7 26 -42q0 -47 -40 -47h-158q-17 -29 -49 -29h-32v312q0 38 -1.5 43t-8.5 10q-10 7 -17.5 13.5t-7.5 23.5q0 35 35 35h212z" />
<glyph unicode="&#xac80;" horiz-adv-x="776" d="M67 660q-32 0 -32 47q0 46 34 46h352q22 0 34 -20.5t10 -41.5q-11 -62 -51 -127q5 1 10 1h157v174q0 26 -7 33t-20 11q-24 5 -37.5 13t-13.5 25q0 39 44 39h106q54 0 54 -47v-431q0 -98 -97 -98h-29v187h-157q-32 0 -32 46q0 8 1 14q-25 -36 -60 -74q-113 -123 -239 -194 q-58 -37 -76 -6.5t11 51.5q121 85 197 189t93 163h-252zM369 -21h208v177h-208v-177zM650 249q48 0 48 -55v-153q0 -38 -12 -63q26 -6 26 -45q0 -47 -37 -47h-333q-24 -29 -66 -29h-29v255q0 40 -3 48.5t-16 13.5q-12 7 -20 15t-8 24q0 36 42 36h408z" />
<glyph unicode="&#xac81;" horiz-adv-x="776" d="M67 668q-32 0 -32 47q0 46 33 46h353q21 0 34 -20.5t10 -42.5q-11 -55 -42 -108h158v149q0 26 -7 33t-20 11q-24 5 -37.5 13t-13.5 25q0 39 44 39h106q54 0 54 -47v-387q0 -98 -97 -98h-29v169h-161q-31 0 -33 40q-22 -30 -51 -59q-106 -110 -243 -186q-59 -38 -76 -6.5 t12 51.5q115 79 190 170.5t100 160.5h-252zM367 167h212v34q0 27 -3.5 31t-6.5 5q-16 6 -26.5 12.5t-10.5 24.5q0 33 43 33h66q57 0 57 -45v-219q0 -40 -13 -65q27 -6 27 -45q0 -47 -37 -47h-336q-23 -28 -63 -28h-29v309q0 28 -2.5 33t-5.5 6q-12 4 -24 10.5t-12 24.5 q0 34 43 34h67q54 0 54 -44v-64zM579 74h-212v-95h212v95z" />
<glyph unicode="&#xac83;" horiz-adv-x="776" d="M67 660q-32 0 -32 47q0 46 34 46h352q22 0 34 -20.5t10 -41.5q-11 -62 -51 -127q5 1 10 1h157v173q0 27 -7 34t-20 11q-24 5 -37.5 13t-13.5 25q0 39 44 39h106q54 0 54 -46v-484q0 -96 -97 -96h-29v237h-157q-33 0 -33 46q0 7 1 13q-25 -36 -59 -73q-113 -123 -239 -194 q-58 -37 -76 -6.5t11 51.5q121 85 197 189t93 163h-252zM540 200q-10 -35 -30 -70l213 -149q20 -13 24 -36t-8 -38q-14 -19 -37 -21t-49 19l-192 159q-17 -18 -35 -36q-92 -89 -188 -139q-59 -32 -73 -4.5t20 52.5q83 56 139.5 128.5t79.5 129.5q5 5 -0.5 13.5t-19.5 12.5 q-35 8 -32 35.5t36 27.5h79q50 0 64.5 -26.5t8.5 -57.5z" />
<glyph unicode="&#xac84;" horiz-adv-x="776" d="M67 660q-32 0 -32 47q0 46 34 46h352q22 0 34 -20.5t10 -41.5q-11 -62 -51 -127q5 1 10 1h157v174q0 26 -7 33t-20 11q-24 5 -37.5 13t-13.5 25q0 39 44 39h106q54 0 54 -47v-431q0 -98 -97 -98h-29v187h-157q-32 0 -32 46q0 8 1 14q-25 -36 -60 -74q-113 -123 -239 -194 q-58 -37 -76 -6.5t11 51.5q121 85 197 189t93 163h-252zM413 190q-6 -46 -32 -93l84 -74q6 9 12 19q47 82 62 151q2 4 -3.5 7t-14.5 6q-13 4 -22.5 10.5t-9.5 20.5q0 34 39 34h76q42 0 54 -19.5t10 -50.5q-8 -52 -33 -103l126 -113q23 -19 25 -39.5t-11 -36.5t-36 -18 t-46 22l-104 111q-5 -6 -9 -11q-77 -95 -149 -136q-53 -31 -70 -7t13 47q17 14 35 32l-74 79l-4 -4q-71 -84 -157 -133q-53 -33 -71 -8.5t15 49.5q65 48 109.5 121t56.5 127q2 4 -3 7.5t-14 6.5q-16 5 -24.5 11t-8.5 22q0 31 41 31h78q40 0 51 -19.5t9 -48.5z" />
<glyph unicode="&#xac85;" horiz-adv-x="776" d="M67 660q-32 0 -32 47q0 46 34 46h352q22 0 34 -20.5t10 -41.5q-11 -62 -51 -127q5 1 10 1h157v174q0 26 -7 33t-20 11q-24 5 -37.5 13t-13.5 25q0 39 44 39h106q54 0 54 -47v-446q0 -98 -97 -98h-29v202h-157q-32 0 -32 46q0 8 1 14q-25 -36 -60 -74q-113 -123 -239 -194 q-58 -37 -76 -6.5t11 51.5q121 85 197 189t93 163h-252zM249 64q0 85 63 146.5t162 61.5q100 0 163.5 -61.5t63.5 -146.5q0 -82 -63.5 -142t-163.5 -60q-99 0 -162 60t-63 142zM578 66q0 46 -30.5 78.5t-74.5 32.5q-42 0 -71 -32.5t-29 -78.5q0 -45 29 -77t71 -32 q44 0 74.5 32t30.5 77z" />
<glyph unicode="&#xac86;" horiz-adv-x="776" d="M67 660q-32 0 -32 47q0 46 34 46h352q22 0 34 -20.5t10 -41.5q-11 -62 -51 -127q5 1 10 1h157v174q0 26 -7 33t-20 11q-24 5 -37.5 13t-13.5 25q0 39 44 39h106q54 0 54 -47v-431q0 -98 -97 -98h-29v187h-157q-32 0 -32 46q0 8 1 14q-25 -36 -60 -74q-113 -123 -239 -194 q-58 -37 -76 -6.5t11 51.5q121 85 197 189t93 163h-252zM237 156q-30 0 -30 47q0 46 33 46h364q34 0 47.5 -26t1.5 -56q-23 -53 -92 -110l157 -82q25 -14 30.5 -33.5t-4.5 -40.5q-12 -21 -34 -26t-47 15l-171 115q-3 -3 -5 -4q-132 -88 -271 -130q-33 -11 -45.5 17.5 t20.5 44.5q97 41 181 105.5t128 117.5h-263z" />
<glyph unicode="&#xac89;" horiz-adv-x="776" d="M67 668q-32 0 -32 47q0 46 34 46h352q21 0 34 -20.5t10 -42.5q-12 -60 -49 -118h165v159q0 26 -7 33t-20 11q-24 5 -37.5 13t-13.5 25q0 39 44 39h106q54 0 54 -47v-374q0 -100 -97 -100h-29v148h-163q-32 0 -32 45v6q-22 -30 -52 -59q-108 -109 -241 -174 q-59 -30 -76 -1.5t13 48.5q115 72 190.5 163t98.5 153h-252zM662 137q36 0 36 -45q0 -46 -36 -46h-292v-51q0 -24 24 -24h290q32 0 32 -45q0 -47 -37 -47h-367q-65 0 -65 69v223q0 36 -3 44.5t-18 13.5q-13 7 -19 15t-6 25q0 35 27 35h445q35 0 35 -48q0 -45 -32 -45h-306 v-74h292z" />
<glyph unicode="&#xac8a;" horiz-adv-x="776" d="M67 660q-32 0 -32 47q0 46 34 46h352q22 0 34 -20.5t10 -41.5q-11 -62 -51 -127q5 1 10 1h157v174q0 26 -7 33t-20 11q-24 5 -37.5 13t-13.5 25q0 39 44 39h106q54 0 54 -47v-431q0 -98 -97 -98h-29v187h-157q-32 0 -32 46q0 8 1 14q-25 -36 -60 -74q-113 -123 -239 -194 q-58 -37 -76 -6.5t11 51.5q121 85 197 189t93 163h-252zM699 157h-66v-179h66q36 0 36 -46t-36 -46h-505q-33 0 -33 46t33 46h82v179h-82q-33 0 -33 46t33 46h505q36 0 36 -46t-36 -46zM512 157h-115v-179h115v179z" />
<glyph unicode="&#xac8b;" horiz-adv-x="776" d="M67 668q-32 0 -32 47q0 46 33 46h353q21 0 34 -20.5t10 -42.5q-12 -58 -47 -116h163v157q0 26 -7 33t-20 11q-24 5 -37.5 13t-13.5 25q0 39 44 39h106q54 0 54 -47v-414q0 -99 -97 -99h-29v189h-159q-32 0 -32 45v6q-24 -35 -56 -69q-108 -115 -241 -181 q-59 -29 -76 -0.5t13 47.5q114 73 190 171t99 160h-252zM699 94h-61q22 -33 22 -75q0 -63 -52 -110.5t-142 -47.5q-89 0 -141 47.5t-52 110.5q0 42 23 75h-63q-34 0 -34 44q0 43 34 43h466q36 0 36 -43q0 -44 -36 -44zM542 21q0 30 -23 51q-22 22 -54 22q-31 0 -52 -22 q-23 -21 -23 -51q0 -28 22 -48.5t53 -20.5q32 0 54.5 20.5t22.5 48.5zM343 239l-29 25q-12 12 -14 23t6 23q11 15 29 14t38 -11q33 -18 83.5 -20t103.5 -2q43 -2 43 -42q0 -20 -13 -30.5t-33 -10.5l-116 1q-62 0 -98 30z" />
<glyph unicode="&#xac8c;" horiz-adv-x="813" d="M67 613q-32 0 -32 47q0 46 35 46h292q28 0 37.5 -20t7.5 -44q-12 -72 -43 -144h105v192q0 28 -6 35t-21 11q-23 6 -34.5 12.5t-11.5 21.5q0 37 42 37h90q54 0 54 -45v-723q0 -96 -92 -96h-21v462h-133q-11 0 -20 6q-11 -18 -23 -36q-93 -134 -198 -212q-55 -42 -75 -13 t5 54q99 90 164 206t83 203h-205zM767 813v-835q0 -96 -95 -96h-24v857q0 27 -4.5 34.5t-19.5 11.5q-25 5 -37 12t-12 24q0 39 47 39h92q53 0 53 -47z" />
<glyph unicode="&#xac90;" horiz-adv-x="813" d="M67 641q-32 0 -32 48q0 46 35 46h297q23 0 33 -21t7 -42q-11 -71 -43 -142h105v160q0 28 -6 35t-21 11q-23 6 -34.5 12.5t-11.5 21.5q0 37 42 37h90q54 0 54 -45v-526q0 -96 -88 -96h-25v297h-128q-15 0 -24 10q-8 -13 -17 -26q-88 -126 -206 -206q-54 -34 -75 -9.5 t5 49.5q103 89 170 206.5t78 179.5h-205zM767 812v-598q0 -96 -95 -96h-24v621q0 27 -4.5 34.5t-19.5 11.5q-25 5 -37 12t-12 24q0 39 47 39h92q53 0 53 -48zM752 -107h-401q-101 0 -101 91v114q0 29 -7 36t-22 12q-25 7 -32.5 15t-7.5 23q0 35 39 35h104q52 0 52 -46v-164 q0 -22 18 -22h362q32 0 32 -47t-36 -47z" />
<glyph unicode="&#xac94;" horiz-adv-x="813" d="M67 654q-32 0 -32 47q0 46 35 46h297q23 0 33 -21t8 -42q-13 -63 -42 -122h103v128q0 28 -6 35t-21 11q-23 6 -34.5 12.5t-11.5 21.5q0 37 42 37h90q54 0 54 -45v-333q0 -96 -88 -96h-25v135h-133q-15 0 -24 10q-6 -9 -13 -18q-87 -106 -209 -178q-55 -35 -74 -8t9 51 q107 80 169.5 176.5t77.5 152.5h-205zM767 812v-393q0 -96 -95 -96h-24v416q0 27 -4.5 34.5t-19.5 11.5q-25 5 -37 12t-12 24q0 39 47 39h92q53 0 53 -48zM752 -121h-410q-57 0 -57 69v73q0 22 -7 29t-15 11q-12 3 -19 11t-7 26q0 33 26 33h368v70h-343q-32 0 -32 47 q0 45 33 45h428q40 0 40 -49v-146q0 -57 -41 -57h-305v-51q0 -19 23 -19h321q31 0 31 -45q0 -47 -34 -47z" />
<glyph unicode="&#xac9c;" horiz-adv-x="813" d="M67 649q-32 0 -32 47q0 46 35 46h297q23 0 33 -21t8 -42q-11 -62 -42 -125h103v136q0 28 -6 35t-21 11q-23 6 -34.5 12.5t-11.5 21.5q0 37 42 37h90q54 0 54 -45v-371q0 -97 -88 -97h-25v167h-133q-14 0 -23 9l-14 -18q-89 -114 -209 -186q-55 -34 -74 -7t10 51 q96 73 163 172.5t83 166.5h-205zM767 812v-432q0 -96 -95 -96h-24v455q0 27 -4.5 34.5t-19.5 11.5q-25 5 -37 12t-12 24q0 39 47 39h92q53 0 53 -48zM396 -21h239v177h-239v-177zM710 249q47 0 47 -55v-153q0 -38 -13 -63q26 -6 26 -45q0 -47 -37 -47h-363q-24 -29 -66 -29 h-30v255q0 40 -3 48.5t-15 13.5q-12 7 -20.5 15t-8.5 24q0 36 42 36h441z" />
<glyph unicode="&#xac9d;" horiz-adv-x="813" d="M67 654q-32 0 -32 47q0 46 35 46h297q23 0 33 -21t8 -42q-11 -62 -43 -124h104v130q0 28 -6 35t-21 11q-23 6 -34.5 12.5t-11.5 21.5q0 37 42 37h90q54 0 54 -45v-332q0 -96 -88 -96h-25v132h-133q-15 0 -24 11l-14 -19q-90 -113 -206 -190q-56 -38 -74.5 -10.5t6.5 53.5 q93 73 163.5 176.5t84.5 166.5h-205zM767 812v-392q0 -96 -95 -96h-24v415q0 27 -4.5 34.5t-19.5 11.5q-25 5 -37 12t-12 24q0 39 47 39h92q53 0 53 -48zM399 165h238v32q0 27 -3 31t-6 5q-17 6 -27 12.5t-10 24.5q0 32 43 32h65q58 0 58 -45v-214q0 -40 -14 -65 q27 -6 27 -45q0 -47 -37 -47h-361q-23 -28 -63 -28h-29v305q0 28 -3 33t-6 6q-11 4 -23 10.5t-12 24.5q0 34 43 34h67q53 0 53 -44v-62zM637 72h-238v-93h238v93z" />
<glyph unicode="&#xac9f;" horiz-adv-x="813" d="M67 649q-32 0 -32 47q0 46 35 46h297q23 0 33 -21t8 -42q-12 -63 -43 -127h104v138q0 28 -6 35t-21 11q-23 6 -34.5 12.5t-11.5 21.5q0 37 42 37h90q54 0 54 -45v-356q0 -96 -88 -96h-25v149h-130q-16 0 -25 12q-7 -10 -15 -19q-89 -114 -209 -186q-55 -34 -74 -7t10 51 q96 73 163 172.5t83 166.5h-205zM767 812v-473q0 -96 -95 -96h-24v496q0 27 -4.5 34.5t-19.5 11.5q-25 5 -37 12t-12 24q0 39 47 39h92q53 0 53 -48zM562 199q-8 -33 -30 -68l230 -151q23 -15 25.5 -37t-7.5 -37q-15 -20 -37 -21.5t-49 18.5l-211 164q-17 -18 -37 -38 q-97 -91 -199 -142q-60 -30 -74.5 -2.5t22.5 52.5q84 55 144.5 127t87.5 130q4 5 -1 13.5t-19 12.5q-35 8 -32 35.5t36 27.5h78q52 0 65 -26.5t8 -57.5z" />
<glyph unicode="&#xaca0;" horiz-adv-x="813" d="M67 649q-32 0 -32 47q0 46 35 46h297q23 0 33 -21t8 -42q-11 -62 -42 -125h103v136q0 28 -6 35t-21 11q-23 6 -34.5 12.5t-11.5 21.5q0 37 42 37h90q54 0 54 -45v-371q0 -97 -88 -97h-25v167h-133q-14 0 -23 9l-14 -18q-89 -114 -209 -186q-55 -34 -74 -7t10 51 q96 73 163 172.5t83 166.5h-205zM767 812v-432q0 -96 -95 -96h-24v455q0 27 -4.5 34.5t-19.5 11.5q-25 5 -37 12t-12 24q0 39 47 39h92q53 0 53 -48zM420 190q-6 -42 -27 -84l94 -83q7 9 13 19q47 82 61 151q2 4 -3 7t-14 6q-14 4 -23 10.5t-9 20.5q0 34 39 34h76 q42 0 53.5 -19.5t9.5 -50.5q-6 -50 -31 -100l129 -116q24 -19 26 -39.5t-11 -36.5t-36.5 -18t-45.5 22l-108 114q-6 -7 -11 -14q-77 -95 -148 -136q-54 -31 -70.5 -7t12.5 47q18 14 35 32l-82 88q-5 -7 -11 -13q-71 -84 -157 -133q-53 -33 -71 -8.5t15 49.5q65 48 110 121 t56 127q2 4 -2.5 7.5t-14.5 6.5q-16 5 -24 11t-8 22q0 31 41 31h77q40 0 51 -19.5t9 -48.5z" />
<glyph unicode="&#xaca1;" horiz-adv-x="813" d="M67 649q-32 0 -32 47q0 46 35 46h297q23 0 33 -21t8 -42q-11 -62 -42 -125h103v136q0 28 -6 35t-21 11q-23 6 -34.5 12.5t-11.5 21.5q0 37 42 37h90q54 0 54 -45v-362q0 -96 -88 -96h-25v157h-133q-14 0 -23 9l-14 -18q-89 -114 -209 -186q-55 -34 -74 -7t10 51 q96 73 163 172.5t83 166.5h-205zM767 812v-448q0 -96 -95 -96h-24v471q0 27 -4.5 34.5t-19.5 11.5q-25 5 -37 12t-12 24q0 39 47 39h92q53 0 53 -48zM287 64q0 85 63 146.5t162 61.5q100 0 163.5 -61.5t63.5 -146.5q0 -82 -63.5 -142t-163.5 -60q-99 0 -162 60t-63 142z M615 66q0 46 -30 78.5t-74 32.5q-42 0 -71 -32.5t-29 -78.5q0 -45 29 -77t71 -32q44 0 74 32t30 77z" />
<glyph unicode="&#xaca8;" horiz-adv-x="776" d="M67 613q-32 0 -32 47q0 46 33 46h356q28 0 39 -20.5t8 -43.5q-2 -12 -5 -23h115v117q0 29 -7 36t-20 11q-24 5 -37.5 13t-13.5 25q0 39 42 39h108q54 0 54 -43v-839q0 -96 -97 -96h-29v413h-184q-35 0 -35 47q0 45 35 45h184v140h-146q-35 -76 -96 -150 q-109 -131 -242 -213q-56 -39 -78 -11t7 54q111 85 194 203t105 203h-258z" />
<glyph unicode="&#xaca9;" horiz-adv-x="776" d="M67 660q-32 0 -32 47q0 46 34 46h352q22 0 34 -20.5t10 -41.5q-3 -17 -8 -34h124v79q0 29 -7 36t-20 11q-24 5 -37.5 13t-13.5 25q0 39 42 39h108q54 0 54 -47v-445q0 -98 -97 -98h-29v104h-175q-35 0 -35 47q0 45 35 45h175v99h-166q-32 -53 -80 -104 q-110 -117 -242 -185q-59 -31 -76 -1.5t13 48.5q120 77 196 179.5t93 157.5h-252zM199 142q-28 0 -28 47q0 46 29 46h456q42 0 42 -47v-221q0 -104 -89 -104h-36v279h-374z" />
<glyph unicode="&#xacaa;" horiz-adv-x="776" d="M67 660q-32 0 -32 47q0 46 34 46h352q22 0 34 -20.5t10 -41.5q-3 -17 -8 -34h124v79q0 29 -7 36t-20 11q-24 5 -37.5 13t-13.5 25q0 39 42 39h108q54 0 54 -47v-445q0 -98 -97 -98h-29v104h-175q-35 0 -35 47q0 45 35 45h175v99h-166q-32 -53 -80 -104 q-110 -117 -242 -185q-59 -31 -76 -1.5t13 48.5q120 77 196 179.5t93 157.5h-252zM462 142q-26 0 -26 47q0 46 29 46h194q46 0 46 -47v-221q0 -104 -85 -104h-28v279h-130zM132 142q-28 0 -28 47q0 46 31 46h253q43 0 43 -47v-221q0 -104 -83 -104h-30v279h-186z" />
<glyph unicode="&#xacac;" horiz-adv-x="776" d="M67 658q-32 0 -32 47q0 46 34 46h352q22 0 34 -20.5t10 -41.5q-4 -23 -10 -46h126v93q0 29 -7 36t-20 11q-24 5 -37.5 13t-13.5 25q0 39 42 39h108q54 0 54 -46v-598q0 -96 -97 -96h-29v217h-175q-35 0 -35 47q0 45 35 45h175v122h-165q-32 -57 -81 -113 q-108 -124 -242 -198q-57 -36 -75 -5.5t12 50.5q113 77 194 193t98 180h-255zM711 -107h-370q-101 0 -101 91v114q0 29 -7.5 36t-21.5 12q-26 7 -33 15t-7 23q0 35 39 35h103q53 0 53 -46v-164q0 -22 18 -22h331q33 0 33 -47t-37 -47z" />
<glyph unicode="&#xacaf;" horiz-adv-x="776" d="M67 660q-32 0 -32 47q0 46 34 46h352q22 0 34 -20.5t10 -41.5q-2 -15 -6 -29h122v74q0 29 -7 36t-20 11q-24 5 -37.5 13t-13.5 25q0 39 42 39h108q54 0 54 -47v-431q0 -98 -97 -98h-29v97h-175q-35 0 -35 47q0 45 35 45h175v97h-163q-32 -56 -85 -113 q-113 -123 -239 -194q-58 -37 -76 -6.5t11 51.5q121 85 197 189t93 163h-252zM675 -114h-358q-65 0 -65 69v161q0 36 -3 44t-18 13q-13 8 -21.5 16t-8.5 24q0 36 27 36h438q35 0 35 -48q0 -45 -31 -45h-292v-154q0 -23 24 -23h278q32 0 32 -46q0 -47 -37 -47z" />
<glyph unicode="&#xacb0;" horiz-adv-x="776" d="M67 668q-32 0 -32 47q0 46 34 46h352q21 0 34 -20.5t10 -42.5q-2 -10 -5 -21h121v59q0 29 -7 36t-20 11q-24 5 -37.5 13t-13.5 25q0 39 42 39h108q54 0 54 -47v-374q0 -100 -97 -100h-29v70h-175q-35 0 -35 47q0 45 35 45h175v84h-162q-33 -53 -85 -106 q-108 -109 -241 -174q-59 -30 -76 -1.5t13 48.5q115 72 190.5 163t98.5 153h-252zM692 -121h-388q-57 0 -57 69v78q0 23 -7 29.5t-15 10.5q-12 3 -19 11t-7 26q0 34 26 34h347v74h-322q-32 0 -32 47q0 46 33 46h407q40 0 40 -50v-151q0 -57 -41 -57h-284v-56q0 -19 23 -19 h300q32 0 32 -45q0 -47 -36 -47z" />
<glyph unicode="&#xacb8;" horiz-adv-x="776" d="M67 660q-32 0 -32 47q0 46 34 46h352q22 0 34 -20.5t10 -41.5q-2 -15 -6 -29h122v74q0 29 -7 36t-20 11q-24 5 -37.5 13t-13.5 25q0 39 42 39h108q54 0 54 -47v-431q0 -98 -97 -98h-29v97h-175q-35 0 -35 47q0 45 35 45h175v97h-163q-32 -56 -85 -113 q-113 -123 -239 -194q-58 -37 -76 -6.5t11 51.5q121 85 197 189t93 163h-252zM369 -21h208v177h-208v-177zM650 249q48 0 48 -55v-153q0 -38 -12 -63q26 -6 26 -45q0 -47 -37 -47h-333q-24 -29 -66 -29h-29v255q0 40 -3 48.5t-16 13.5q-12 7 -20 15t-8 24q0 36 42 36h408z " />
<glyph unicode="&#xacb9;" horiz-adv-x="776" d="M67 668q-32 0 -32 47q0 46 33 46h353q21 0 34 -20.5t10 -42.5q-3 -17 -8 -32h124v70q0 29 -7 36t-20 11q-24 5 -37.5 13t-13.5 25q0 39 42 39h108q54 0 54 -47v-387q0 -98 -97 -98h-29v68h-175q-35 0 -35 47q0 45 35 45h175v86h-168q-31 -48 -77 -96q-106 -110 -243 -186 q-59 -38 -76 -6.5t12 51.5q115 79 190 170.5t100 160.5h-252zM367 167h212v34q0 27 -3.5 31t-6.5 5q-16 6 -26.5 12.5t-10.5 24.5q0 33 43 33h66q57 0 57 -45v-219q0 -40 -13 -65q27 -6 27 -45q0 -47 -37 -47h-336q-23 -28 -63 -28h-29v309q0 28 -2.5 33t-5.5 6 q-12 4 -24 10.5t-12 24.5q0 34 43 34h67q54 0 54 -44v-64zM579 74h-212v-95h212v95z" />
<glyph unicode="&#xacbb;" horiz-adv-x="776" d="M67 660q-32 0 -32 47q0 46 34 46h352q22 0 34 -20.5t10 -41.5q-2 -15 -6 -29h122v74q0 29 -7 36t-20 11q-24 5 -37.5 13t-13.5 25q0 39 42 39h108q54 0 54 -47v-481q0 -98 -97 -98h-29v147h-175q-35 0 -35 47q0 45 35 45h175v97h-163q-32 -56 -85 -113 q-113 -123 -239 -194q-58 -37 -76 -6.5t11 51.5q121 85 197 189t93 163h-252zM540 200q-10 -35 -30 -70l213 -149q20 -13 24 -36t-8 -38q-14 -19 -37 -21t-49 19l-192 159q-17 -18 -35 -36q-92 -89 -188 -139q-59 -32 -73 -4.5t20 52.5q83 56 139.5 128.5t79.5 129.5 q5 5 -0.5 13.5t-19.5 12.5q-35 8 -32 35.5t36 27.5h79q50 0 64.5 -26.5t8.5 -57.5z" />
<glyph unicode="&#xacbc;" horiz-adv-x="776" d="M67 660q-32 0 -32 47q0 46 34 46h352q22 0 34 -20.5t10 -41.5q-2 -15 -6 -29h122v74q0 29 -7 36t-20 11q-24 5 -37.5 13t-13.5 25q0 39 42 39h108q54 0 54 -47v-431q0 -98 -97 -98h-29v97h-175q-35 0 -35 47q0 45 35 45h175v97h-163q-32 -56 -85 -113 q-113 -123 -239 -194q-58 -37 -76 -6.5t11 51.5q121 85 197 189t93 163h-252zM413 190q-6 -46 -32 -93l84 -74q6 9 12 19q47 82 62 151q2 4 -3.5 7t-14.5 6q-13 4 -22.5 10.5t-9.5 20.5q0 34 39 34h76q42 0 54 -19.5t10 -50.5q-8 -52 -33 -103l126 -113q23 -19 25 -39.5 t-11 -36.5t-36 -18t-46 22l-104 111q-5 -6 -9 -11q-77 -95 -149 -136q-53 -31 -70 -7t13 47q17 14 35 32l-74 79l-4 -4q-71 -84 -157 -133q-53 -33 -71 -8.5t15 49.5q65 48 109.5 121t56.5 127q2 4 -3 7.5t-14 6.5q-16 5 -24.5 11t-8.5 22q0 31 41 31h78q40 0 51 -19.5 t9 -48.5z" />
<glyph unicode="&#xacbd;" horiz-adv-x="776" d="M67 660q-32 0 -32 47q0 46 34 46h352q22 0 34 -20.5t10 -41.5q-2 -15 -6 -29h122v74q0 29 -7 36t-20 11q-24 5 -37.5 13t-13.5 25q0 39 42 39h108q54 0 54 -47v-456q0 -99 -97 -99h-29v123h-175q-35 0 -35 47q0 45 35 45h175v97h-163q-32 -56 -85 -113 q-113 -123 -239 -194q-58 -37 -76 -6.5t11 51.5q121 85 197 189t93 163h-252zM249 64q0 85 63 146.5t162 61.5q100 0 163.5 -61.5t63.5 -146.5q0 -82 -63.5 -142t-163.5 -60q-99 0 -162 60t-63 142zM578 66q0 46 -30.5 78.5t-74.5 32.5q-42 0 -71 -32.5t-29 -78.5 q0 -45 29 -77t71 -32q44 0 74.5 32t30.5 77z" />
<glyph unicode="&#xacc1;" horiz-adv-x="776" d="M67 668q-32 0 -32 47q0 46 34 46h352q21 0 34 -20.5t10 -42.5q-2 -10 -5 -21h121v59q0 29 -7 36t-20 11q-24 5 -37.5 13t-13.5 25q0 39 42 39h108q54 0 54 -47v-374q0 -100 -97 -100h-29v70h-175q-35 0 -35 47q0 45 35 45h175v84h-162q-33 -53 -85 -106 q-108 -109 -241 -174q-59 -30 -76 -1.5t13 48.5q115 72 190.5 163t98.5 153h-252zM662 137q36 0 36 -45q0 -46 -36 -46h-292v-51q0 -24 24 -24h290q32 0 32 -45q0 -47 -37 -47h-367q-65 0 -65 69v223q0 36 -3 44.5t-18 13.5q-13 7 -19 15t-6 25q0 35 27 35h445q35 0 35 -48 q0 -45 -32 -45h-306v-74h292z" />
<glyph unicode="&#xacc4;" horiz-adv-x="813" d="M67 613q-32 0 -32 47q0 46 35 46h292q28 0 37.5 -20t7.5 -44q-5 -23 -10 -47h75v94q0 29 -6 36t-21 11q-23 6 -34.5 12.5t-11.5 21.5q0 37 42 37h89q54 0 54 -45v-723q0 -96 -90 -96h-22v357h-124q-38 0 -38 47q0 46 38 46h124v110h-106q-28 -64 -73 -128 q-93 -134 -198 -212q-55 -42 -75 -13t5 54q99 90 164 206t83 203h-205zM767 813v-835q0 -96 -95 -96h-24v857q0 27 -4.5 34.5t-19.5 11.5q-25 5 -37 12t-12 24q0 39 47 39h92q53 0 53 -47z" />
<glyph unicode="&#xacc8;" horiz-adv-x="813" d="M67 641q-32 0 -32 48q0 46 35 46h297q23 0 33 -21t7 -42q-5 -27 -13 -56h84v73q0 29 -6 36t-20 11q-24 6 -35 12.5t-11 21.5q0 37 41 37h90q53 0 53 -45v-526q0 -96 -90 -96h-22v191h-130q-38 0 -38 46t38 46h130v101h-118q-24 -52 -60 -103q-88 -126 -206 -206 q-54 -34 -75 -9.5t5 49.5q103 89 170 206.5t78 179.5h-205zM767 812v-598q0 -96 -95 -96h-24v621q0 27 -4.5 34.5t-19.5 11.5q-25 5 -37 12t-12 24q0 39 47 39h92q53 0 53 -48zM752 -107h-401q-101 0 -101 91v114q0 29 -7 36t-22 12q-25 7 -32.5 15t-7.5 23q0 35 39 35h104 q52 0 52 -46v-164q0 -22 18 -22h362q32 0 32 -47t-36 -47z" />
<glyph unicode="&#xaccc;" horiz-adv-x="813" d="M67 654q-32 0 -32 47q0 46 35 46h297q23 0 33 -21t8 -42l-7 -28h77v33q0 29 -6 36t-20 11q-24 6 -35 12.5t-11 21.5q0 37 41 37h90q53 0 53 -45v-333q0 -96 -90 -96h-22v69h-130q-38 0 -38 46t38 46h130v70h-111q-28 -54 -68 -104q-87 -106 -209 -178q-55 -35 -74 -8 t9 51q107 80 169.5 176.5t77.5 152.5h-205zM767 812v-393q0 -96 -95 -96h-24v416q0 27 -4.5 34.5t-19.5 11.5q-25 5 -37 12t-12 24q0 39 47 39h92q53 0 53 -48zM752 -121h-410q-57 0 -57 69v73q0 22 -7 29t-15 11q-12 3 -19 11t-7 26q0 33 26 33h368v70h-343q-32 0 -32 47 q0 45 33 45h428q40 0 40 -49v-146q0 -57 -41 -57h-305v-51q0 -19 23 -19h321q31 0 31 -45q0 -47 -34 -47z" />
<glyph unicode="&#xacd5;" horiz-adv-x="813" d="M67 654q-32 0 -32 47q0 46 35 46h297q23 0 33 -21t8 -42l-8 -32h78v37q0 29 -6 36t-20 11q-24 6 -35 12.5t-11 21.5q0 37 41 37h90q53 0 53 -45v-332q0 -96 -90 -96h-22v59h-130q-38 0 -38 46t38 46h130v75h-113q-26 -52 -67 -102q-90 -113 -206 -190 q-56 -38 -74.5 -10.5t6.5 53.5q93 73 163.5 176.5t84.5 166.5h-205zM767 812v-392q0 -96 -95 -96h-24v415q0 27 -4.5 34.5t-19.5 11.5q-25 5 -37 12t-12 24q0 39 47 39h92q53 0 53 -48zM399 165h238v32q0 27 -3 31t-6 5q-17 6 -27 12.5t-10 24.5q0 32 43 32h65q58 0 58 -45 v-214q0 -40 -14 -65q27 -6 27 -45q0 -47 -37 -47h-361q-23 -28 -63 -28h-29v305q0 28 -3 33t-6 6q-11 4 -23 10.5t-12 24.5q0 34 43 34h67q53 0 53 -44v-62zM637 72h-238v-93h238v93z" />
<glyph unicode="&#xacd7;" horiz-adv-x="813" d="M67 649q-32 0 -32 47q0 46 35 46h297q23 0 33 -21t8 -42l-8 -32h78v42q0 29 -6 36t-20 11q-24 6 -35 12.5t-11 21.5q0 37 41 37h90q53 0 53 -45v-356q0 -96 -90 -96h-22v66h-130q-38 0 -38 46t38 46h130v86h-112q-27 -51 -67 -102q-89 -114 -209 -186q-55 -34 -74 -7 t10 51q96 73 163 172.5t83 166.5h-205zM767 812v-473q0 -96 -95 -96h-24v496q0 27 -4.5 34.5t-19.5 11.5q-25 5 -37 12t-12 24q0 39 47 39h92q53 0 53 -48zM562 199q-8 -33 -30 -68l230 -151q23 -15 25.5 -37t-7.5 -37q-15 -20 -37 -21.5t-49 18.5l-211 164q-17 -18 -37 -38 q-97 -91 -199 -142q-60 -30 -74.5 -2.5t22.5 52.5q84 55 144.5 127t87.5 130q4 5 -1 13.5t-19 12.5q-35 8 -32 35.5t36 27.5h78q52 0 65 -26.5t8 -57.5z" />
<glyph unicode="&#xace0;" d="M150 737h477q47 0 47 -59q0 -114 -14.5 -231t-42.5 -191q-6 -17 -25 -27t-40 -1q-14 5 -20 16.5t-4 33.5q11 63 14 122.5t3 241.5h-397q-31 0 -31 48q0 47 33 47zM305 133v201q0 25 -6 33.5t-24 13.5q-16 5 -25 12.5t-9 20.5q0 35 47 35h90q53 0 53 -48v-268h349 q36 0 36 -51q0 -45 -36 -45h-736q-32 0 -32 45q0 51 32 51h261z" />
<glyph unicode="&#xace1;" d="M159 711q-32 0 -32 47t33 47h468q46 0 46 -56q0 -113 -14 -212q-10 -77 -24 -130h143q37 0 37 -49q0 -45 -37 -45h-735q-32 0 -32 45q0 49 32 49h272v79q0 23 -4 32t-17 14q-14 5 -28.5 11.5t-14.5 22.5q0 31 46 31h91q53 0 53 -50v-140h94q9 89 9 153v151h-386zM155 140 q-28 0 -28 47q0 46 29 46h470q42 0 42 -47v-219q0 -104 -89 -104h-36v277h-388z" />
<glyph unicode="&#xace4;" d="M159 697q-32 0 -32 47t33 47h468q46 0 46 -56q0 -93 -14 -211q-10 -97 -25 -158h144q37 0 37 -49q0 -45 -37 -45h-735q-32 0 -32 45q0 49 32 49h272v93q0 24 -5.5 32.5t-18.5 13.5q-14 5 -27 12t-13 22q0 32 46 32h91q53 0 53 -50v-155h95q8 61 8 139v192h-386zM655 -107 h-383q-101 0 -101 91v107q0 29 -8 36.5t-21 11.5q-26 7 -34 14.5t-8 23.5q0 34 40 34h104q53 0 53 -45v-157q0 -22 18 -22h343q33 0 33 -47t-36 -47z" />
<glyph unicode="&#xace7;" d="M159 711q-32 0 -32 47t33 47h468q46 0 46 -56q0 -92 -14 -199q-10 -81 -24 -138h144q36 0 36 -49q0 -45 -36 -45h-736q-32 0 -32 45q0 49 32 49h272v79q0 23 -4 32t-17 14q-14 5 -28.5 11.5t-14.5 22.5q0 32 46 32h91q53 0 53 -51v-140h95q8 78 8 122v177h-386zM651 -114 h-411q-64 0 -64 69v156q0 36 -3 44t-17 13q-14 8 -22.5 16t-8.5 24q0 36 28 36h488q35 0 35 -48q0 -45 -32 -45h-342v-149q0 -23 25 -23h327q32 0 32 -46q0 -47 -35 -47z" />
<glyph unicode="&#xace8;" d="M159 718q-32 0 -32 46q0 47 33 47h468q46 0 46 -56q0 -92 -14 -180q-10 -65 -23 -118h142q37 0 37 -48q0 -45 -37 -45h-735q-32 0 -32 45q0 48 32 48h272v54q0 24 -4 32.5t-17 13.5q-14 6 -28.5 12.5t-14.5 21.5q0 32 46 32h91q53 0 53 -50v-116h96q7 61 7 99v162h-386z M174 210q-32 0 -32 44q0 47 33 47h460q39 0 39 -49v-149q0 -57 -40 -57h-339v-56q0 -19 23 -19h355q32 0 32 -47q0 -45 -35 -45h-431q-68 0 -68 79v67q0 24 -5 30t-16 9q-11 6 -20 12.5t-9 25.5q0 35 27 35h402v73h-376z" />
<glyph unicode="&#xacea;" d="M159 718q-32 0 -32 46q0 47 33 47h468q46 0 46 -56q0 -92 -14 -180q-10 -65 -23 -118h142q37 0 37 -48q0 -45 -37 -45h-735q-32 0 -32 45q0 48 32 48h272v54q0 24 -4 32.5t-17 13.5q-14 6 -28.5 12.5t-14.5 21.5q0 32 46 32h91q53 0 53 -50v-116h96q7 61 7 99v162h-386z M543 -13h72v224h-72v-224zM137 210q-32 0 -32 46q0 45 35 45h214q43 0 43 -47v-154q0 -54 -33 -54h-131v-59q0 -16 18 -16h142q32 0 32 -45q0 -47 -39 -47h-182q-74 0 -74 77v72q0 24 -2.5 30t-11.5 10q-12 6 -17 12t-5 25q0 31 28 31h174v74h-159zM664 301q53 0 53 -51 v-201q0 -38 -12 -64q25 -6 25 -42q0 -47 -40 -47h-167q-17 -29 -49 -29h-31v310q0 38 -2 43t-8 10q-9 7 -17 13t-8 24q0 34 35 34h221z" />
<glyph unicode="&#xacec;" d="M159 718q-32 0 -32 46q0 47 33 47h468q46 0 46 -56q0 -92 -14 -180q-10 -65 -23 -118h142q37 0 37 -48q0 -45 -37 -45h-735q-32 0 -32 45q0 48 32 48h272v54q0 24 -4 32.5t-17 13.5q-14 6 -28.5 12.5t-14.5 21.5q0 32 46 32h91q53 0 53 -50v-116h96q7 61 7 99v162h-386z M659 229q-8 -50 -27 -101l128 -151q19 -22 18.5 -42t-14.5 -33q-21 -17 -41.5 -15.5t-37.5 24.5l-93 135q-46 -83 -95 -135q-14 -14 -30 -24q-12 -8 -27 0q-8 -8 -23 -8h-216q-71 0 -71 77v72q0 24 -2.5 30t-11.5 10q-12 6 -17 12t-5 25q0 31 28 31h196v74h-181 q-32 0 -32 46q0 45 35 45h242q42 0 42 -47v-154q0 -54 -34 -54h-156v-59q0 -16 18 -16h170q11 0 19 -6q33 53 56 114q27 76 34 142q4 8 -3 12t-19 6q-37 9 -33.5 38.5t36.5 29.5h79q45 0 60 -21t8 -57z" />
<glyph unicode="&#xacef;" d="M159 718q-32 0 -32 46q0 47 33 47h468q46 0 46 -56q0 -92 -14 -180q-10 -65 -23 -118h142q37 0 37 -48q0 -45 -37 -45h-735q-32 0 -32 45q0 48 32 48h272v54q0 24 -4 32.5t-17 13.5q-14 6 -28.5 12.5t-14.5 21.5q0 32 46 32h91q53 0 53 -50v-116h96q7 61 7 99v162h-386z M137 210q-32 0 -32 46q0 45 35 45h207q43 0 43 -47v-96q9 9 27 9h316q38 0 38 -42q0 -40 -38 -40h-22q17 -29 17 -67q0 -62 -44.5 -107.5t-121.5 -45.5q-75 0 -114.5 45.5t-39.5 107.5q0 38 15 67h-6q-18 0 -27 10q-2 -49 -34 -49h-123v-59q0 -16 18 -16h135q32 0 32 -45 q0 -47 -40 -47h-174q-74 0 -74 77v72q0 24 -2.5 30t-11.5 10q-12 6 -17 12t-5 25q0 31 28 31h164v74h-149zM469 225l-29 24q-12 13 -13.5 25.5t8.5 23.5q14 16 29.5 13.5t29.5 -9.5q40 -18 65.5 -21.5t78.5 -3.5q43 0 43 -42q0 -21 -13 -31t-36 -10l-74 1q-52 0 -89 30z M620 18q0 27 -17 48q-17 19 -40 19q-21 0 -38 -19q-16 -21 -16 -48t16.5 -46.5t37.5 -19.5q23 0 40 19.5t17 46.5z" />
<glyph unicode="&#xacf0;" d="M159 711q-32 0 -32 47t33 47h468q46 0 46 -56q0 -92 -14 -199q-10 -81 -24 -138h144q36 0 36 -49q0 -45 -36 -45h-736q-32 0 -32 45q0 49 32 49h272v79q0 23 -4 32t-17 14q-14 5 -28.5 11.5t-14.5 22.5q0 32 46 32h91q53 0 53 -51v-140h95q8 78 8 122v177h-386zM294 -21 h256v172h-256v-172zM624 244q47 0 47 -54v-149q0 -38 -13 -63q26 -6 26 -45q0 -47 -36 -47h-381q-23 -29 -65 -29h-29v251q0 39 -3 47.5t-15 13.5q-13 7 -21 15t-8 24q0 36 42 36h456z" />
<glyph unicode="&#xacf1;" d="M159 717q-32 0 -32 47t33 47h468q46 0 46 -56q0 -92 -14 -192q-10 -75 -23 -130h142q37 0 37 -50q0 -45 -37 -45h-735q-32 0 -32 45q0 50 32 50h272v78q0 24 -4 32.5t-17 13.5q-14 6 -28.5 12.5t-14.5 21.5q0 32 46 32h91q53 0 53 -50v-140h96q8 76 8 119q-1 49 -1 165 h-386zM648 -114h-384q-22 -28 -62 -28h-29v322q0 27 -2.5 32t-5.5 7q-11 4 -23.5 10t-12.5 24q0 34 43 34h67q53 0 53 -44v-76h260v30q0 27 -3 31t-6 5q-17 6 -27 12.5t-10 24.5q0 32 43 32h64q58 0 58 -45v-213q0 -39 -14 -66q27 -5 27 -45q0 -47 -36 -47zM292 -21h260v95 h-260v-95z" />
<glyph unicode="&#xacf3;" d="M159 711q-32 0 -32 47t33 47h468q46 0 46 -56q0 -92 -14 -197q-11 -85 -26 -140h146q36 0 36 -49q0 -45 -36 -45h-736q-32 0 -32 45q0 49 32 49h272v79q0 23 -4 32t-17 14q-14 5 -28.5 11.5t-14.5 22.5q0 32 46 32h91q53 0 53 -51v-140h94q9 81 9 125v174h-386zM494 193 q-9 -37 -38 -79l242 -137q27 -13 29.5 -37t-10.5 -40q-12 -16 -33 -18.5t-50 16.5l-227 156l-22 -22q-93 -89 -200 -146q-53 -31 -70.5 -3t12.5 49q85 56 149 131.5t82 123.5q4 6 -2 15t-20 12q-33 8 -30 35.5t36 27.5h79q51 0 65 -26.5t8 -57.5z" />
<glyph unicode="&#xacf5;" d="M159 711q-32 0 -32 47t33 47h468q46 0 46 -56q0 -92 -14 -197q-10 -81 -24 -135h144q36 0 36 -49q0 -45 -36 -45h-736q-32 0 -32 45q0 49 32 49h272v79q0 24 -4 32.5t-17 13.5q-14 5 -28.5 12t-14.5 22q0 32 46 32h91q53 0 53 -51v-140h95q8 78 8 120v174h-386zM178 66 q0 84 67 145t168 61t168.5 -61t67.5 -145q0 -83 -67.5 -143.5t-168.5 -60.5t-168 60.5t-67 143.5zM525 66q0 46 -32.5 78.5t-80.5 32.5q-46 0 -78 -32.5t-32 -78.5q0 -45 32 -77t78 -32q48 0 80.5 32t32.5 77z" />
<glyph unicode="&#xacf6;" d="M159 711q-32 0 -32 47t33 47h468q46 0 46 -56q0 -92 -14 -199q-10 -81 -24 -138h144q36 0 36 -49q0 -45 -36 -45h-736q-32 0 -32 45q0 49 32 49h272v79q0 23 -4 32t-17 14q-14 5 -28.5 11.5t-14.5 22.5q0 32 46 32h91q53 0 53 -51v-140h95q8 78 8 122v177h-386zM183 151 q-29 0 -29 47q0 46 32 46h403q36 0 53.5 -24t8.5 -58q-21 -54 -119 -120l180 -67q52 -20 31.5 -67t-94.5 -11l-202 93q-134 -74 -280 -110q-53 -14 -63 15.5t33 44.5q84 29 190.5 93.5t162.5 117.5h-307z" />
<glyph unicode="&#xacfc;" horiz-adv-x="831" d="M69 627q-32 0 -32 47t34 47h379q47 0 47 -64q0 -84 -14.5 -187.5t-33.5 -161.5q-7 -19 -25 -29t-39 -3q-16 5 -22 15.5t-5 33.5q10 73 10 148.5v153.5h-299zM562 735q0 30 -8 37t-23 11q-20 6 -34.5 13.5t-14.5 24.5q0 39 42 39h112q52 0 52 -42v-319h109q32 0 32 -48 t-32 -48h-109v-428q0 -92 -96 -92h-30v289q-3 -12 -15 -20q-29 -18 -92 -30t-155 -12h-264q-32 0 -32 47q0 46 32 46h139v164q0 28 -4 37t-16 13q-16 4 -27 11.5t-11 21.5q0 35 53 35h77q54 0 54 -48v-234h3q67 0 107.5 1t82.5 9q60 13 68 -16v-2v540z" />
<glyph unicode="&#xacfd;" horiz-adv-x="831" d="M79 689q-32 0 -32 47t34 47h378q47 0 47 -59q0 -58 -13.5 -140t-34.5 -137q-7 -18 -25 -28.5t-39 -2.5q-19 6 -23.5 19.5t-1.5 30.5q8 47 8 98.5v124.5h-298zM562 736q0 29 -6.5 36t-19.5 11q-24 5 -38 13t-14 25q0 39 44 39h108q52 0 52 -42v-242h109q32 0 32 -48 t-32 -48h-109v-152q0 -92 -96 -92h-30v107q-3 -12 -15 -20q-29 -18 -92 -30t-155 -12h-264q-32 0 -32 47q0 46 32 46h145v89q0 31 -3.5 38.5t-14.5 10.5q-16 5 -27.5 11.5t-11.5 21.5q0 33 53 33h76q54 0 54 -50v-154q65 0 105 1t82 9q60 13 68 -16v-2v370zM203 118 q-28 0 -28 47q0 46 29 46h435q42 0 42 -47v-197q0 -104 -89 -104h-36v255h-353z" />
<glyph unicode="&#xad00;" horiz-adv-x="831" d="M79 668q-32 0 -32 47t34 47h378q47 0 47 -59q0 -50 -13.5 -135t-34.5 -142q-7 -17 -26.5 -28.5t-40.5 -1.5q-17 6 -21 19t-2 31q9 50 9 106v116h-298zM562 736q0 29 -6.5 36t-19.5 11q-24 5 -38 13t-14 25q0 39 44 39h108q52 0 52 -42v-283h109q32 0 32 -48t-32 -48h-109 v-254q0 -92 -96 -92h-30v215q-3 -13 -15 -21q-29 -18 -92 -30t-155 -12h-264q-32 0 -32 47q0 46 32 46h145v110q0 31 -5 38.5t-16 10.5q-16 4 -26 10.5t-10 22.5q0 33 53 33h76q54 0 54 -51v-174q65 0 105 1t82 10q60 12 68 -17v-2v406zM682 -107h-375q-101 0 -101 92v85 q0 30 -7.5 36.5t-21.5 11.5q-25 7 -32.5 15.5t-7.5 22.5q0 35 39 35h104q52 0 52 -45v-137q0 -22 18 -22h336q33 0 33 -47t-37 -47z" />
<glyph unicode="&#xad04;" horiz-adv-x="831" d="M79 693q-32 0 -32 46q0 47 34 47h378q47 0 47 -60q0 -49 -14 -123.5t-34 -117.5q-8 -17 -25.5 -27.5t-39.5 -3.5q-17 7 -22.5 20t-2.5 31q7 33 8 82.5t1 105.5h-298zM562 736q0 29 -6.5 36t-19.5 11q-24 5 -38 13t-14 25q0 39 44 39h108q52 0 52 -42v-211h109 q32 0 32 -49q0 -48 -32 -48h-109v-110q0 -92 -96 -92h-30v87q-3 -13 -15 -21q-29 -18 -92 -30t-155 -12h-264q-32 0 -32 47q0 46 32 46h145v59q0 30 -5 38t-16 11q-16 4 -26 10.5t-10 22.5q0 32 53 32h76q54 0 54 -50v-123q65 0 105 1t82 10q60 12 68 -17v-2v319zM675 -121 h-399q-57 0 -57 69v67q0 22 -6.5 29t-14.5 11q-13 3 -20 11t-7 26q0 33 27 33h359v64h-335q-32 0 -32 46q0 45 33 45h418q40 0 40 -49v-138q0 -57 -41 -57h-297v-46q0 -19 24 -19h312q32 0 32 -45q0 -47 -36 -47z" />
<glyph unicode="&#xad06;" horiz-adv-x="831" d="M79 693q-32 0 -32 46q0 47 34 47h378q47 0 47 -60q0 -49 -14 -123.5t-34 -117.5q-8 -17 -25.5 -27.5t-39.5 -3.5q-17 7 -22.5 20t-2.5 31q7 33 8 82.5t1 105.5h-298zM562 736q0 29 -6.5 36t-19.5 11q-24 5 -38 13t-14 25q0 39 44 39h108q52 0 52 -42v-211h109 q32 0 32 -49q0 -48 -32 -48h-109v-110q0 -92 -96 -92h-30v87q-3 -13 -15 -21q-29 -18 -92 -30t-155 -12h-264q-32 0 -32 47q0 46 32 46h145v59q0 30 -5 38t-16 11q-16 4 -26 10.5t-10 22.5q0 32 53 32h76q54 0 54 -50v-123q65 0 105 1t82 10q60 12 68 -17v-2v319zM524 -13 h63v203h-63v-203zM127 189q-32 0 -32 46q0 45 35 45h205q43 0 43 -48v-143q0 -53 -34 -53h-120v-49q0 -16 18 -16h132q32 0 32 -45q0 -47 -40 -47h-172q-74 0 -74 77v62q0 23 -2.5 29t-12.5 10q-11 6 -16 12t-5 25q0 30 28 30h163v65h-148zM636 280q53 0 53 -51v-179 q0 -39 -12 -65q25 -6 25 -42q0 -47 -39 -47h-158q-18 -29 -49 -29h-32v288q0 39 -2 43.5t-8 9.5q-10 7 -18 13.5t-8 23.5q0 35 36 35h212z" />
<glyph unicode="&#xad0c;" horiz-adv-x="831" d="M79 689q-32 0 -32 47t34 47h378q47 0 47 -59q0 -58 -13.5 -134.5t-34.5 -132.5q-6 -17 -25 -28.5t-42 -2.5q-18 7 -21.5 20t-1.5 31q9 48 9 98.5v113.5h-298zM562 736q0 29 -6.5 36t-19.5 11q-24 5 -38 13t-14 25q0 39 44 39h108q52 0 52 -42v-232h109q32 0 32 -48 t-32 -48h-109v-141q0 -93 -96 -93h-30v98q-3 -13 -15 -21q-29 -18 -92 -30t-155 -12h-264q-32 0 -32 47q0 46 32 46h145v100q0 30 -3.5 38t-14.5 11q-16 4 -27.5 10.5t-11.5 22.5q0 32 53 32h76q54 0 54 -50v-164q65 0 105 1t82 10q60 12 68 -17v-2v360zM341 -21h219v160 h-219v-160zM634 232q47 0 47 -54v-147q0 -31 -8 -53q27 -6 27 -45q0 -47 -37 -47h-350q-22 -29 -65 -29h-29v239q0 39 -4 47.5t-14 12.5q-17 7 -23.5 15.5t-6.5 24.5q0 36 34 36h429z" />
<glyph unicode="&#xad0d;" horiz-adv-x="831" d="M79 692q-32 0 -32 47t34 47h378q47 0 47 -59q0 -58 -13.5 -130t-34.5 -122q-7 -18 -26 -28.5t-41 -2.5q-18 6 -21.5 19.5t-1.5 30.5q7 46 8 94t1 104h-298zM562 736q0 29 -6.5 36t-19.5 11q-24 5 -38 13t-14 25q0 39 44 39h108q52 0 52 -42v-211h109q32 0 32 -49 q0 -48 -32 -48h-109v-120q0 -93 -96 -93h-30v77q-3 -12 -15 -20q-29 -19 -92 -30.5t-155 -11.5h-264q-32 0 -32 47q0 46 32 46h145v79q0 30 -3.5 38t-14.5 11q-16 4 -27.5 10.5t-11.5 22.5q0 32 53 32h76q54 0 54 -50v-143q65 0 105 1t82 9q60 12 68 -16v-2v339zM657 -114 h-347q-22 -28 -62 -28h-29v288q0 27 -2.5 32.5t-5.5 6.5q-11 4 -23.5 10t-12.5 25q0 33 43 33h67q53 0 53 -44v-51h224v10q0 27 -3 31t-6 5q-16 6 -26.5 13t-10.5 24q0 33 43 33h65q57 0 57 -45v-186q0 -40 -13 -65q26 -6 26 -45q0 -47 -37 -47zM338 -21h224v86h-224v-86z " />
<glyph unicode="&#xad0f;" horiz-adv-x="831" d="M79 689q-32 0 -32 47t34 47h378q47 0 47 -59q0 -58 -13.5 -134.5t-34.5 -132.5q-6 -17 -25 -28.5t-42 -2.5q-18 7 -21.5 20t-1.5 31q9 48 9 98.5v113.5h-298zM562 736q0 29 -6.5 36t-19.5 11q-24 5 -38 13t-14 25q0 39 44 39h108q52 0 52 -42v-232h109q32 0 32 -48 t-32 -48h-109v-203q0 -92 -96 -92h-30v159q-3 -13 -15 -21q-29 -18 -92 -30t-155 -12h-264q-32 0 -32 47q0 46 32 46h145v100q0 30 -3.5 38t-14.5 11q-16 4 -27.5 10.5t-11.5 22.5q0 32 53 32h76q54 0 54 -50v-164q65 0 105 1t82 10q60 12 68 -17v-2v360zM522 179 q-7 -31 -25 -63l208 -136q21 -13 24 -36t-6 -38q-14 -19 -36.5 -20.5t-49.5 17.5l-194 145q-14 -16 -31 -31q-94 -84 -192 -132q-58 -29 -72.5 -1t20.5 53q82 53 137.5 116t81.5 120q4 6 -1 14.5t-19 11.5q-35 8 -32 36t36 28h79q51 0 64 -27t8 -57z" />
<glyph unicode="&#xad11;" horiz-adv-x="831" d="M79 689q-32 0 -32 47t34 47h378q47 0 47 -59q0 -58 -13.5 -134.5t-34.5 -132.5q-6 -17 -25 -28.5t-42 -2.5q-18 7 -21.5 20t-1.5 31q9 48 9 98.5v113.5h-298zM562 736q0 29 -6.5 36t-19.5 11q-24 5 -38 13t-14 25q0 39 44 39h108q52 0 52 -42v-232h109q32 0 32 -48 t-32 -48h-109v-162q0 -92 -96 -92h-30v118q-3 -13 -15 -21q-29 -18 -92 -30t-155 -12h-264q-32 0 -32 47q0 46 32 46h145v100q0 30 -3.5 38t-14.5 11q-16 4 -27.5 10.5t-11.5 22.5q0 32 53 32h76q54 0 54 -50v-164q65 0 105 1t82 10q60 12 68 -17v-2v360zM237 51 q0 78 61.5 136t159.5 58t160.5 -58t62.5 -136q0 -76 -62.5 -132.5t-160.5 -56.5t-159.5 56.5t-61.5 132.5zM557 53q0 40 -28.5 68.5t-71.5 28.5q-41 0 -69 -28.5t-28 -68.5q0 -39 28 -67.5t69 -28.5q43 0 71.5 28.5t28.5 67.5z" />
<glyph unicode="&#xad18;" horiz-adv-x="813" d="M52 622q-32 0 -32 47t35 47h326q47 0 47 -56q0 -89 -13.5 -191t-30.5 -146q-7 -17 -22.5 -28t-36.5 -2q-14 5 -19 14.5t-3 33.5q5 60 4.5 141t-0.5 140h-255zM145 203v168q0 24 -3 35t-16 16t-25.5 11.5t-12.5 20.5q0 31 51 31h70q53 0 53 -50v-232q36 0 61 1q39 1 81 9 q61 13 69 -16v-2v494q0 29 -6 36t-21 11q-23 6 -35.5 13t-12.5 22q0 36 42 36h94q52 0 52 -43v-287h62v263q0 26 -4.5 33.5t-19.5 11.5q-25 5 -37 12t-12 24q0 39 47 39h92q53 0 53 -47v-835q0 -96 -95 -96h-24v502h-62v-349q0 -92 -88 -92h-25v229q-3 -12 -15 -20 q-29 -18 -92 -30t-156 -12h-173q-33 0 -33 47q0 46 33 46h108z" />
<glyph unicode="&#xad1c;" horiz-adv-x="813" d="M51 642q-32 0 -32 48q0 47 35 47h326q49 0 48 -64q0 -60 -14.5 -138t-33.5 -120q-7 -16 -23.5 -27t-39.5 -1q-13 6 -16.5 19t-1.5 31q10 54 10 111.5v93.5h-258zM215 245h-178q-33 0 -33 47q0 46 33 46h111v94q0 26 -4 33.5t-18 13.5q-14 4 -24 10.5t-10 19.5q0 31 51 31 h69q53 0 53 -51v-151q37 0 63 1q40 1 82 10q60 12 68 -17v-2v359q0 29 -6 36t-20 11q-24 6 -34 13t-10 22q0 36 42 36h89q52 0 52 -43v-251h57v227q0 26 -4.5 33.5t-19.5 11.5q-25 5 -37 12t-12 24q0 39 47 39h92q53 0 53 -48v-613q0 -96 -95 -96h-24v318h-57v-216 q0 -92 -86 -92h-27v195q-3 -13 -15 -21q-29 -18 -92 -30t-156 -12zM749 -107h-417q-102 0 -102 92v85q0 30 -7 36.5t-21 11.5q-26 7 -33 15.5t-7 22.5q0 35 39 35h103q52 0 52 -43v-139q0 -22 19 -22h377q32 0 32 -47t-35 -47z" />
<glyph unicode="&#xad20;" horiz-adv-x="813" d="M51 667q-32 0 -32 46q0 47 35 47h326q49 0 48 -63q0 -61 -15 -123.5t-32 -97.5q-8 -17 -24 -27.5t-36 -2.5q-18 6 -21 19.5t-1 29.5q7 39 8 83.5t1 88.5h-257zM215 317h-178q-33 0 -33 47q0 46 33 46h111v73q0 26 -4 34t-18 13q-14 4 -24 10.5t-10 20.5q0 30 51 30h69 q53 0 53 -51v-130q37 0 63 1q40 1 82 9q60 13 68 -16v-2v287q0 29 -6 36t-20 11q-24 6 -34 13t-10 22q0 36 42 36h89q52 0 52 -43v-169h57v145q0 26 -4.5 33.5t-19.5 11.5q-25 5 -37 12t-12 24q0 39 47 39h92q53 0 53 -48v-408q0 -96 -95 -96h-24v195h-57v-93q0 -92 -86 -92 h-27v61q-3 -12 -15 -20q-29 -19 -92 -30.5t-156 -11.5zM752 -121h-420q-58 0 -58 69v67q0 22 -6.5 29t-14.5 11q-12 3 -19.5 11t-7.5 26q0 33 27 33h380v64h-355q-32 0 -32 46q0 45 33 45h438q40 0 40 -49v-138q0 -57 -41 -57h-318v-46q0 -19 24 -19h333q31 0 31 -45 q0 -47 -34 -47z" />
<glyph unicode="&#xad29;" horiz-adv-x="813" d="M51 666q-32 0 -32 47t35 47h326q49 0 48 -63q0 -61 -15 -133t-32 -109q-8 -16 -25.5 -27t-39.5 -4q-14 6 -17 19.5t1 31.5q8 36 8 89.5v101.5h-257zM215 296h-178q-33 0 -33 47t33 47h111v82q0 27 -4 34.5t-18 13.5q-14 4 -24 10.5t-10 19.5q0 31 51 31h69q53 0 53 -51 v-140q37 0 63 1q40 1 82 9q60 12 68 -17v-2v308q0 29 -6 36t-20 11q-24 6 -34 13t-10 22q0 36 42 36h89q52 0 52 -43v-169h57v145q0 26 -4.5 33.5t-19.5 11.5q-25 5 -37 12t-12 24q0 39 47 39h92q53 0 53 -48v-418q0 -97 -95 -97h-24v206h-57v-103q0 -92 -86 -92h-27v51 q-3 -12 -15 -21q-29 -18 -92 -30t-156 -12zM734 -114h-374q-22 -28 -62 -28h-29v288q0 27 -3.5 32.5t-5.5 5.5q-13 3 -25 10.5t-12 26.5q0 32 41 32h71q53 0 53 -44v-51h250v10q0 26 -3.5 30t-8.5 6q-19 6 -27.5 13t-8.5 24q0 33 41 33h68q58 0 58 -45v-186q0 -40 -14 -65 q27 -6 27 -45q0 -47 -36 -47zM388 -21h250v86h-250v-86z" />
<glyph unicode="&#xad2c;" horiz-adv-x="813" d="M51 663q-32 0 -32 47t35 47h327q48 0 48 -62q0 -65 -15.5 -139.5t-32.5 -107.5q-8 -16 -26 -26.5t-36 -3.5q-16 5 -19 18.5t0 29.5q8 45 8 100v97h-257zM215 276h-178q-33 0 -33 47q0 46 33 46h111v93q0 27 -4 34.5t-18 12.5q-14 4 -24 11t-10 20q0 31 51 31h69 q53 0 53 -51v-151q37 0 63 1q40 1 82 9q60 13 68 -16v-2v328q0 29 -6 36t-20 11q-24 6 -34 13t-10 22q0 36 42 36h89q52 0 52 -43v-189h57v165q0 26 -4.5 33.5t-19.5 11.5q-25 5 -37 12t-12 24q0 39 47 39h92q53 0 53 -48v-459q0 -97 -95 -97h-24v227h-57v-124 q0 -92 -86 -92h-27v71q-3 -12 -15 -20q-29 -19 -92 -30.5t-156 -11.5zM403 180q-3 -34 -20 -71l93 -78q46 74 66 146q2 3 -3 6t-15 6q-16 4 -22.5 11t-6.5 22q0 31 39 31h71q42 0 54.5 -19.5t9.5 -49.5q-6 -39 -26 -81l134 -113q24 -18 26 -40t-12 -39q-19 -20 -42 -20 t-42 20l-111 117q-5 -7 -11 -14q-72 -90 -141 -137q-19 -13 -33.5 -15t-27.5 10q-11 12 -11 23t13 22q17 15 36 36l-83 85q-5 -7 -11 -14q-70 -83 -144 -134q-25 -18 -39.5 -13.5t-24.5 17.5q-5 8 -3.5 19t14.5 22q45 38 88.5 105t56.5 128q3 4 -2 8t-14 7q-19 5 -25 11 t-6 21q0 32 42 32h74q40 0 50 -20t9 -47z" />
<glyph unicode="&#xad2d;" horiz-adv-x="813" d="M51 663q-32 0 -32 47t35 47h327q48 0 48 -62q0 -65 -15.5 -139.5t-32.5 -107.5q-8 -16 -26 -26.5t-36 -3.5q-16 5 -19 18.5t0 29.5q8 45 8 100v97h-257zM215 266h-178q-33 0 -33 47q0 46 33 46h111v103q0 27 -4 34.5t-18 12.5q-14 4 -24 11t-10 20q0 31 51 31h69 q53 0 53 -51v-161q37 0 63 1q40 1 82 9q60 12 68 -16v-2v338q0 29 -6 36t-20 11q-24 6 -34 13t-10 22q0 36 42 36h89q52 0 52 -43v-189h57v165q0 26 -4.5 33.5t-19.5 11.5q-25 5 -37 12t-12 24q0 39 47 39h92q53 0 53 -48v-475q0 -96 -95 -96h-24v242h-57v-104 q0 -92 -86 -92h-27v41q-3 -12 -15 -20q-29 -19 -92 -30.5t-156 -11.5zM292 51q0 78 62 136t159 58q98 0 160.5 -58t62.5 -136q0 -76 -62.5 -132.5t-160.5 -56.5q-97 0 -159 56.5t-62 132.5zM612 53q0 40 -28.5 68.5t-71.5 28.5q-41 0 -68.5 -28.5t-27.5 -68.5 q0 -39 27.5 -67.5t68.5 -28.5q43 0 71.5 28.5t28.5 67.5z" />
<glyph unicode="&#xad34;" horiz-adv-x="776" d="M69 627q-32 0 -32 47t34 47h384q47 0 47 -64q0 -84 -14.5 -187.5t-33.5 -161.5q-7 -19 -25 -29t-39 -3q-16 5 -22 15.5t-4 33.5q9 73 9 148.5v153.5h-304zM177 203v164q0 28 -4 37t-16 13q-16 4 -27 10.5t-11 22.5q0 35 53 35h77q54 0 54 -48v-234h20q66 0 106.5 1 t82.5 9q60 13 69 -16v-2v540q0 30 -8.5 37.5t-22.5 11.5q-21 6 -34 13t-13 24q0 39 42 39h109q53 0 53 -43v-842q0 -92 -97 -92h-29v289q-3 -12 -16 -20q-28 -18 -91 -30t-156 -12h-282q-32 0 -32 47q0 46 32 46h141z" />
<glyph unicode="&#xad35;" horiz-adv-x="776" d="M79 689q-32 0 -32 47t34 47h383q47 0 47 -59q0 -58 -13.5 -140t-34.5 -137q-7 -18 -25 -28.5t-39 -2.5q-19 6 -23.5 19.5t-1.5 30.5q8 47 8 98.5v124.5h-303zM318 281h-282q-32 0 -32 47q0 46 32 46h147v89q0 31 -3.5 38.5t-14.5 10.5q-15 5 -27 11.5t-12 21.5 q0 33 53 33h76q54 0 54 -50v-154h14q66 0 106.5 1t82.5 9q60 13 69 -16v-2v370q0 29 -7 36t-20 11q-24 5 -37.5 13t-13.5 25q0 39 44 39h107q53 0 53 -43v-489q0 -92 -97 -92h-29v107q-3 -12 -16 -20q-28 -18 -91 -30t-156 -12zM220 118q-27 0 -27 47q0 46 28 46h435 q42 0 42 -47v-197q0 -104 -89 -104h-36v255h-353z" />
<glyph unicode="&#xad38;" horiz-adv-x="776" d="M79 668q-32 0 -32 47t34 47h383q47 0 47 -59q0 -50 -13.5 -135t-34.5 -142q-7 -17 -26.5 -28.5t-40.5 -1.5q-17 6 -21 19t-2 31q9 50 9 106v116h-303zM318 245h-282q-32 0 -32 47q0 46 32 46h147v110q0 31 -5 38.5t-16 10.5q-16 4 -26 10.5t-10 22.5q0 33 53 33h76 q54 0 54 -51v-174h14q66 0 106.5 1t82.5 10q60 12 69 -17v-2v406q0 29 -7 36t-20 11q-24 5 -37.5 13t-13.5 25q0 39 44 39h107q53 0 53 -43v-632q0 -92 -97 -92h-29v215q-3 -13 -16 -21q-28 -18 -91 -30t-156 -12zM699 -107h-374q-102 0 -102 92v85q0 30 -7 36.5t-21 11.5 q-26 7 -33 15.5t-7 22.5q0 35 39 35h103q52 0 52 -45v-137q0 -22 19 -22h335q33 0 33 -47t-37 -47z" />
<glyph unicode="&#xad3c;" horiz-adv-x="776" d="M79 693q-32 0 -32 46q0 47 34 47h383q47 0 47 -60q0 -49 -14 -123.5t-34 -117.5q-8 -17 -25.5 -27.5t-39.5 -3.5q-17 7 -22.5 20t-2.5 31q7 33 8 82.5t1 105.5h-303zM318 332h-282q-32 0 -32 47q0 46 32 46h147v59q0 30 -3.5 38t-14.5 11q-15 4 -27 10.5t-12 22.5 q0 32 53 32h76q54 0 54 -50v-123h14q66 0 106.5 1t82.5 10q60 12 69 -17v-2v319q0 29 -7 36t-20 11q-24 5 -37.5 13t-13.5 25q0 39 44 39h107q53 0 53 -43v-417q0 -92 -97 -92h-29v87q-3 -13 -16 -21q-28 -18 -91 -30t-156 -12zM692 -121h-398q-57 0 -57 69v67q0 22 -7 29 t-15 11q-12 3 -19.5 11t-7.5 26q0 33 27 33h359v64h-334q-32 0 -32 46q0 45 33 45h417q40 0 40 -49v-138q0 -57 -41 -57h-297v-46q0 -19 24 -19h312q32 0 32 -45q0 -47 -36 -47z" />
<glyph unicode="&#xad44;" horiz-adv-x="776" d="M79 689q-32 0 -32 47t34 47h383q47 0 47 -59q0 -58 -13.5 -134.5t-34.5 -132.5q-6 -17 -25 -28.5t-42 -2.5q-18 7 -21.5 20t-1.5 31q9 48 9 98.5v113.5h-303zM318 291h-282q-32 0 -32 47q0 46 32 46h147v100q0 30 -3.5 38t-14.5 11q-15 4 -27 10.5t-12 22.5q0 32 53 32 h76q54 0 54 -50v-164h14q66 0 106.5 1t82.5 10q60 12 69 -17v-2v360q0 29 -7 36t-20 11q-24 5 -37.5 13t-13.5 25q0 39 44 39h107q53 0 53 -43v-468q0 -93 -97 -93h-29v98q-3 -13 -16 -21q-28 -18 -91 -30t-156 -12zM358 -21h220v160h-220v-160zM651 232q47 0 47 -54v-147 q0 -31 -8 -53q28 -6 28 -45q0 -47 -38 -47h-349q-23 -29 -66 -29h-28v239q0 39 -4.5 47.5t-14.5 12.5q-16 7 -23 15.5t-7 24.5q0 36 34 36h429z" />
<glyph unicode="&#xad45;" horiz-adv-x="776" d="M79 692q-32 0 -32 47t34 47h383q47 0 47 -59q0 -58 -13.5 -130t-34.5 -122q-7 -18 -26 -28.5t-41 -2.5q-18 6 -21.5 19.5t-1.5 30.5q7 46 8 94t1 104h-303zM318 312h-282q-32 0 -32 47q0 46 32 46h147v79q0 30 -3.5 38t-14.5 11q-15 4 -27 10.5t-12 22.5q0 32 53 32h76 q54 0 54 -50v-143h14q66 0 106.5 1t82.5 9q60 12 69 -16v-2v339q0 29 -7 36t-20 11q-24 5 -37.5 13t-13.5 25q0 39 44 39h107q53 0 53 -43v-427q0 -93 -97 -93h-29v77q-3 -12 -16 -20q-28 -19 -91 -30.5t-156 -11.5zM675 -114h-347q-23 -28 -63 -28h-28v288q0 27 -3 32.5 t-6 6.5q-11 4 -23 10t-12 25q0 33 43 33h66q53 0 53 -44v-51h225v10q0 27 -3.5 31t-6.5 5q-16 6 -26 13t-10 24q0 33 43 33h64q57 0 57 -45v-186q0 -40 -13 -65q27 -6 27 -45q0 -47 -37 -47zM355 -21h225v86h-225v-86z" />
<glyph unicode="&#xad47;" horiz-adv-x="776" d="M79 689q-32 0 -32 47t34 47h383q47 0 47 -59q0 -58 -13.5 -134.5t-34.5 -132.5q-6 -17 -25 -28.5t-42 -2.5q-18 7 -21.5 20t-1.5 31q9 48 9 98.5v113.5h-303zM318 291h-282q-32 0 -32 47q0 46 32 46h147v100q0 30 -3.5 38t-14.5 11q-15 4 -27 10.5t-12 22.5q0 32 53 32 h76q54 0 54 -50v-164h14q66 0 106.5 1t82.5 10q60 12 69 -17v-2v360q0 29 -7 36t-20 11q-24 5 -37.5 13t-13.5 25q0 39 44 39h107q53 0 53 -43v-530q0 -92 -97 -92h-29v159q-3 -13 -16 -21q-28 -18 -91 -30t-156 -12zM540 179q-8 -31 -26 -63l208 -136q21 -13 24.5 -36 t-6.5 -38q-14 -19 -36.5 -20.5t-49.5 17.5l-193 145q-15 -16 -32 -31q-93 -84 -191 -132q-59 -29 -73 -1t20 53q82 53 138 116t81 120q5 6 -0.5 14.5t-19.5 11.5q-35 8 -32 36t36 28h79q51 0 64.5 -27t8.5 -57z" />
<glyph unicode="&#xad49;" horiz-adv-x="776" d="M79 689q-32 0 -32 47t34 47h383q47 0 47 -59q0 -58 -13.5 -134.5t-34.5 -132.5q-6 -17 -25 -28.5t-42 -2.5q-18 7 -21.5 20t-1.5 31q9 48 9 98.5v113.5h-303zM318 291h-282q-32 0 -32 47q0 46 32 46h147v100q0 30 -3.5 38t-14.5 11q-15 4 -27 10.5t-12 22.5q0 32 53 32 h76q54 0 54 -50v-164h14q66 0 106.5 1t82.5 10q60 12 69 -17v-2v360q0 29 -7 36t-20 11q-24 5 -37.5 13t-13.5 25q0 39 44 39h107q53 0 53 -43v-489q0 -92 -97 -92h-29v118q-3 -13 -16 -21q-28 -18 -91 -30t-156 -12zM254 51q0 78 62 136t159 58q98 0 160.5 -58t62.5 -136 q0 -76 -62.5 -132.5t-160.5 -56.5q-97 0 -159 56.5t-62 132.5zM574 53q0 40 -28.5 68.5t-71.5 28.5q-41 0 -68.5 -28.5t-27.5 -68.5q0 -39 27.5 -67.5t68.5 -28.5q43 0 71.5 28.5t28.5 67.5z" />
<glyph unicode="&#xad50;" d="M150 738h477q47 0 47 -59q0 -107 -13.5 -219t-43.5 -203q-6 -17 -21.5 -27t-38.5 -1q-14 5 -20.5 16.5t-1.5 32.5q12 64 11 160t-1 205h-397q-31 0 -31 48q0 47 33 47zM780 38h-736q-32 0 -32 47q0 46 32 46h164v213q0 22 -4.5 27.5t-15.5 8.5q-13 4 -27 11t-14 23 q0 33 51 33h75q48 0 48 -43v-273h74v234q0 24 -3.5 28.5t-13.5 7.5q-14 4 -23 11t-9 22q0 33 45 33h70q47 0 47 -43v-293h272q36 0 36 -46q0 -47 -36 -47z" />
<glyph unicode="&#xad54;" d="M159 697q-32 0 -32 47t33 47h468q46 0 46 -56q0 -93 -14 -211q-11 -105 -28 -169h147q37 0 37 -46q0 -47 -37 -47h-735q-32 0 -32 47q0 46 32 46h169v107q0 24 -3 30.5t-12 9.5q-13 4 -25.5 10.5t-12.5 21.5q0 32 49 32h69q48 0 48 -45v-166h70v117q0 24 -3 30.5t-10 9.5 q-11 5 -22.5 11t-11.5 20q0 33 49 33h63q48 0 48 -45v-176h26q10 65 10 150v192h-386zM655 -107h-383q-101 0 -101 91v107q0 29 -8 36.5t-21 11.5q-26 7 -34 14.5t-8 23.5q0 34 40 34h104q53 0 53 -45v-157q0 -22 18 -22h343q33 0 33 -47t-36 -47z" />
<glyph unicode="&#xad58;" d="M159 718q-32 0 -32 46q0 47 33 47h468q46 0 46 -56q0 -92 -14 -180q-10 -71 -26 -128h145q37 0 37 -46q0 -47 -37 -47h-735q-32 0 -32 47q0 46 32 46h169v62q0 24 -3 30.5t-12 9.5q-13 4 -25.5 10.5t-12.5 21.5q0 32 49 32h69q48 0 48 -45v-121h70v73q0 23 -3 29.5 t-10 10.5q-11 4 -22.5 10t-11.5 20q0 33 49 33h63q48 0 48 -45v-131h28q8 67 8 109v162h-386zM174 210q-32 0 -32 44q0 47 33 47h460q39 0 39 -49v-149q0 -57 -40 -57h-339v-56q0 -19 23 -19h355q32 0 32 -47q0 -45 -35 -45h-431q-68 0 -68 79v67q0 24 -5 30t-16 9 q-11 6 -20 12.5t-9 25.5q0 35 27 35h402v73h-376z" />
<glyph unicode="&#xad61;" d="M159 717q-32 0 -32 47t33 47h468q46 0 46 -56q0 -92 -14 -192q-11 -82 -26 -142h145q37 0 37 -46q0 -47 -37 -47h-735q-32 0 -32 47q0 46 32 46h169v80q0 24 -3 30.5t-12 9.5q-13 4 -23.5 10t-10.5 22q-4 32 45 32h69q48 0 48 -45v-139h70v90q0 24 -3 30.5t-10 9.5 q-11 4 -22.5 10.5t-11.5 20.5q0 33 49 33h63q48 0 48 -45v-149h28q9 84 9 131q-1 49 -1 165h-386zM648 -114h-384q-22 -28 -62 -28h-29v322q0 27 -2.5 32t-5.5 7q-11 4 -23.5 10t-12.5 24q0 34 43 34h67q53 0 53 -44v-76h260v30q0 27 -3 31t-6 5q-17 6 -27 12.5t-10 24.5 q0 32 43 32h64q58 0 58 -45v-213q0 -39 -14 -66q27 -5 27 -45q0 -47 -36 -47zM292 -21h260v95h-260v-95z" />
<glyph unicode="&#xad63;" d="M159 711q-32 0 -32 47t33 47h468q46 0 46 -56q0 -92 -14 -197q-12 -93 -29 -151h148q37 0 37 -46q0 -47 -37 -47h-735q-32 0 -32 47q0 46 32 46h169v90q0 23 -3 30t-12 10q-13 4 -25.5 10t-12.5 22q0 31 49 31h69q48 0 48 -45v-148h70v100q0 24 -3 30.5t-10 9.5 q-11 4 -22.5 10t-11.5 21q0 33 49 33h63q48 0 48 -45v-159h26v2q10 88 10 133.5v174.5h-386zM494 193q-9 -37 -38 -79l242 -137q27 -13 29.5 -37t-10.5 -40q-12 -16 -33 -18.5t-50 16.5l-227 156l-22 -22q-93 -89 -200 -146q-53 -31 -70.5 -3t12.5 49q85 56 149 131.5 t82 123.5q4 6 -2 15t-20 12q-33 8 -30 35.5t36 27.5h79q51 0 65 -26.5t8 -57.5z" />
<glyph unicode="&#xad6c;" d="M159 695q-32 0 -32 47t33 47h466q47 0 47 -58q0 -71 -13.5 -173t-34.5 -153q-7 -14 -22.5 -26.5t-40.5 -3.5q-15 5 -20.5 17t-4.5 33q8 70 8 129v141h-386zM477 262v-277q0 -103 -89 -103h-36v380h-308q-32 0 -32 47q0 46 32 46h736q36 0 36 -46q0 -47 -36 -47h-303z" />
<glyph unicode="&#xad6d;" d="M158 711q-31 0 -31 47t33 47h468q46 0 46 -56q0 -78 -14 -161q-11 -70 -27 -115h147q36 0 36 -46q0 -47 -36 -47h-303v-76q0 -45 -14 -71h163q42 0 42 -47v-219q0 -104 -89 -104h-36v277h-388q-28 0 -28 47q0 46 29 46h196v147h-308q-32 0 -32 47q0 46 32 46h491v2 q8 62 9.5 122.5t-0.5 113.5h-386z" />
<glyph unicode="&#xad70;" d="M159 697q-32 0 -32 47t33 47h468q46 0 46 -56q0 -93 -12 -181q-11 -70 -27 -121h144q37 0 37 -47t-37 -47h-286v-143q0 -107 -94 -107h-31v250h-324q-32 0 -32 47t32 47h492q9 61 9 108v156h-386zM655 -107h-383q-101 0 -101 91v127q0 30 -8 37t-21 11q-26 7 -34 15 t-8 23q0 35 40 35h104q53 0 53 -45v-178q0 -22 18 -22h343q33 0 33 -47t-36 -47z" />
<glyph unicode="&#xad73;" d="M159 711q-32 0 -32 47t33 47h468q46 0 46 -56q0 -88 -14 -176q-10 -62 -22 -103h141q37 0 37 -46q0 -47 -37 -47h-301v-66q0 -41 -12 -67h175q35 0 35 -48q0 -45 -32 -45h-342v-149q0 -23 25 -23h327q32 0 32 -46q0 -47 -35 -47h-411q-64 0 -64 69v156q0 36 -3 44t-17 13 q-14 8 -22.5 16t-8.5 24q0 36 28 36h199v133h-308q-32 0 -32 47q0 46 32 46h493q8 56 8 93v148h-386z" />
<glyph unicode="&#xad74;" d="M159 718q-32 0 -32 46q0 47 33 47h468q46 0 46 -56q0 -85 -15 -160q-11 -55 -23 -94h144q36 0 36 -46q0 -47 -36 -47h-303v-42q0 -32 -7 -54h165q39 0 39 -48v-156q0 -56 -40 -56h-339v-61q0 -20 23 -20h355q32 0 32 -47q0 -45 -35 -45h-431q-68 0 -68 78v73q0 24 -5 30 t-16 9q-11 6 -20 12.5t-9 25.5q0 35 27 35h402v79h-376q-32 0 -32 44q0 47 33 47h177v96h-308q-32 0 -32 47q0 46 32 46h493q8 60 8 113v104h-386z" />
<glyph unicode="&#xad75;" d="M159 718q-32 0 -32 46q0 47 33 47h468q46 0 46 -56q0 -85 -15 -160q-11 -55 -23 -94h144q36 0 36 -46q0 -47 -36 -47h-303v-42q0 -32 -7 -54h190q47 0 47 -45v-288q0 -100 -72 -100h-34v342h-130q-32 0 -32 46q-7 -4 -15 -8v-154q0 -53 -34 -53h-156v-65q0 -16 18 -16 h170q32 0 32 -45q0 -47 -37 -47h-216q-71 0 -71 77v77q0 24 -2.5 30t-11.5 10q-12 6 -17 12.5t-5 24.5q0 31 28 31h196v80h-181q-32 0 -32 46q0 45 35 45h212v96h-308q-32 0 -32 47q0 46 32 46h493q8 60 8 113v104h-386z" />
<glyph unicode="&#xad76;" d="M159 718q-32 0 -32 46q0 47 33 47h468q46 0 46 -56q0 -85 -15 -160q-11 -55 -23 -94h144q36 0 36 -46q0 -47 -36 -47h-303v-42q0 -32 -7 -54h194q53 0 53 -51v-212q0 -38 -12 -64q25 -6 25 -42q0 -47 -40 -47h-167q-17 -29 -49 -29h-31v320q0 39 -2 43.5t-8 9.5 q-9 7 -17 13l-3 3q-7 -2 -16 -3v-148q0 -53 -33 -53h-131v-65q0 -16 18 -16h142q32 0 32 -45q0 -47 -39 -47h-182q-74 0 -74 77v77q0 24 -2.5 30t-11.5 10q-12 6 -17 12.5t-5 24.5q0 31 28 31h174v80h-159q-32 0 -32 46q0 45 35 45h212v96h-308q-32 0 -32 47q0 46 32 46h493 q8 60 8 113v104h-386zM543 -13h72v235h-72v-235z" />
<glyph unicode="&#xad7b;" d="M159 718q-32 0 -32 46q0 47 33 47h468q46 0 46 -56q0 -85 -15 -160q-11 -55 -23 -94h144q36 0 36 -46q0 -47 -36 -47h-303v-42q0 -25 -4 -44h2q15 -3 29 -9q40 -19 60.5 -22.5t73.5 -3.5q43 0 43 -42q0 -20 -13 -30.5t-36 -10.5l-64 1q-52 0 -89 30l-28 24q-6 6 -9 11 q-20 -17 -52 -17v-95q9 9 27 9h316q38 0 38 -42q0 -40 -38 -40h-22q17 -29 17 -67q0 -62 -44.5 -107.5t-121.5 -45.5q-75 0 -114.5 45.5t-39.5 107.5q0 38 15 67h-6q-18 0 -27 10q-3 -43 -34 -43h-123v-65q0 -16 18 -16h135q32 0 32 -45q0 -47 -40 -47h-174q-74 0 -74 77v77 q0 24 -2.5 30t-11.5 10q-12 6 -17 12.5t-5 24.5q0 31 28 31h164v80h-149q-32 0 -32 46q0 45 35 45h212v96h-308q-32 0 -32 47q0 46 32 46h493q8 60 8 113v104h-386zM620 18q0 27 -17 48q-17 19 -40 19q-21 0 -38 -19q-16 -21 -16 -48t16.5 -46.5t37.5 -19.5q23 0 40 19.5 t17 46.5z" />
<glyph unicode="&#xad7c;" d="M159 711q-32 0 -32 47t33 47h468q46 0 46 -56q0 -88 -14 -176q-10 -62 -22 -103h141q37 0 37 -46q0 -47 -37 -47h-301v-66q0 -41 -12 -67h158q47 0 47 -54v-149q0 -38 -13 -63q26 -6 26 -45q0 -47 -36 -47h-381q-23 -29 -65 -29h-29v251q0 39 -3 47.5t-15 13.5 q-13 7 -21 15t-8 24q0 36 42 36h184v133h-308q-32 0 -32 47q0 46 32 46h493q8 56 8 93v148h-386zM294 -21h256v172h-256v-172z" />
<glyph unicode="&#xad7d;" d="M159 717q-32 0 -32 47t33 47h468q46 0 46 -65q-1 -72 -16 -159q-10 -63 -22 -104h143q37 0 37 -46q0 -47 -37 -47h-301v-52q0 -112 -93 -112h-33v164h-308q-32 0 -32 47q0 46 32 46h493q8 60 8 110v124h-386zM648 -114h-384q-22 -28 -62 -28h-29v322q0 27 -2.5 32t-5.5 7 q-11 4 -23.5 10t-12.5 24q0 34 43 34h67q53 0 53 -44v-76h260v30q0 27 -3 31t-6 5q-17 6 -27 12.5t-10 24.5q0 32 43 32h64q58 0 58 -45v-213q0 -39 -14 -66q27 -5 27 -45q0 -47 -36 -47zM292 -21h260v95h-260v-95z" />
<glyph unicode="&#xad7f;" d="M159 711q-32 0 -32 47t33 47h468q46 0 46 -64q0 -71 -16 -155q-14 -76 -28 -116h149q37 0 37 -46q0 -47 -37 -47h-301v-17q0 -59 -23 -87q22 -6 31 -23q14 -26 8 -57q-9 -37 -38 -79l242 -137q27 -13 29.5 -37t-10.5 -40q-12 -16 -33 -18.5t-50 16.5l-227 156l-22 -22 q-93 -89 -200 -146q-53 -31 -70.5 -3t12.5 49q85 56 149 131.5t82 123.5q4 6 -2 15t-20 12q-33 8 -30 35.5t36 27.5h10v100h-308q-32 0 -32 47q0 46 32 46h490q0 5 1 10q7 41 8.5 95t1.5 136h-386z" />
<glyph unicode="&#xad81;" d="M159 711q-32 0 -32 47t33 47h468q46 0 46 -64q0 -71 -16 -155q-12 -67 -25 -106h147q36 0 36 -46q0 -48 -36 -48h-303v-56q0 -38 -10 -63q65 -13 115 -56q67 -61 67 -145q0 -83 -67.5 -143.5t-168.5 -60.5t-168 60.5t-67 143.5q0 84 68 145q45 41 106 55v120h-308 q-32 0 -32 48q0 46 32 46h491q7 41 9 95q1 54 1 136h-386zM525 66q0 46 -32.5 78.5t-80.5 32.5q-46 0 -78 -32.5t-32 -78.5q0 -45 32 -77t78 -32q48 0 80.5 32t32.5 77z" />
<glyph unicode="&#xad82;" d="M159 711q-32 0 -32 47t33 47h468q46 0 46 -56q0 -88 -14 -176q-10 -62 -22 -103h141q37 0 37 -46q0 -47 -37 -47h-301v-66q0 -41 -12 -67h123q36 0 53.5 -24t8.5 -58q-21 -54 -119 -120l180 -67q52 -20 31.5 -67t-94.5 -11l-202 93q-134 -74 -280 -110q-53 -14 -63 15 t33 44q88 32 192.5 95.5t160.5 116.5h-307q-29 0 -29 47q0 46 32 46h166v133h-308q-32 0 -32 47q0 46 32 46h493q8 56 8 93v148h-386z" />
<glyph unicode="&#xad88;" horiz-adv-x="776" d="M70 679q-32 0 -32 47q0 48 34 48h362q47 0 47 -56q0 -98 -13 -192q-9 -68 -23 -118q33 2 67 8q60 12 69 -16v336q0 29 -7 36t-20 11q-24 5 -37.5 13t-13.5 25q0 39 44 39h107q53 0 53 -43v-839q0 -96 -97 -96h-29v254h-153q-33 0 -33 46t33 46h153v147q-3 -12 -16 -20 q-28 -19 -91 -30q-59 -11 -142 -12v-312q0 -99 -88 -99h-38v411h-170q-32 0 -32 47q0 46 32 46h309q7 61 7 120v153h-282z" />
<glyph unicode="&#xad89;" horiz-adv-x="776" d="M79 695q-32 0 -32 47t34 47h362q47 0 47 -58q0 -59 -13 -130q-11 -56 -26 -95q29 2 61 8q60 13 69 -16v239q0 28 -7 35t-20 11q-24 5 -37.5 13t-13.5 25q0 39 44 39h106q54 0 54 -46v-507q0 -97 -97 -97h-29v77h-153q-33 0 -33 46t33 46h153v94q-3 -12 -16 -20 q-28 -18 -91 -30q-58 -11 -141 -12v-124q0 -77 -88 -77h-39v201h-170q-32 0 -32 47q0 46 32 46h316v3q9 53 9 101.5v86.5h-282zM210 100q-28 0 -28 47q0 46 29 46h445q42 0 42 -47v-179q0 -104 -89 -104h-36v237h-363z" />
<glyph unicode="&#xad8c;" horiz-adv-x="776" d="M79 690q-32 0 -32 47t34 47h362q47 0 47 -59q0 -58 -13 -138q-10 -63 -25 -111q29 2 60 8q60 12 69 -17v270q0 28 -7 35t-20 11q-24 5 -37.5 13t-13.5 25q0 39 44 39h106q54 0 54 -46v-643q0 -96 -97 -96h-29v160h-153q-33 0 -33 47q0 46 33 46h153v115q-3 -13 -16 -21 q-28 -18 -91 -29q-58 -12 -140 -13v-118q0 -77 -88 -77h-39v195h-171q-32 0 -32 47q0 46 32 46h316q9 56 9 112v105h-282zM700 -107h-373q-102 0 -102 94v58q0 30 -7 36.5t-21 12.5q-26 7 -33 15t-7 22q0 32 39 32h103q52 0 52 -45v-109q0 -22 19 -22h335q32 0 32 -47 t-37 -47z" />
<glyph unicode="&#xad90;" horiz-adv-x="776" d="M79 703q-32 0 -32 46q0 47 34 47h362q47 0 47 -59q0 -54 -14 -113q-11 -46 -25 -82q29 2 61 8q60 13 69 -16v203q0 28 -7 35t-20 11q-24 5 -37.5 13t-13.5 25q0 39 44 39h106q54 0 54 -46v-441q0 -96 -97 -96h-29v52h-153q-33 0 -33 46t33 46h153v88q-3 -12 -16 -20 q-28 -19 -91 -30q-58 -11 -141 -12v-99q0 -77 -88 -77h-39v176h-170q-32 0 -32 47q0 46 32 46h316v2q7 32 8 79.5t1 81.5h-282zM692 -121h-398q-57 0 -57 69v55q0 23 -7 29.5t-15 10.5q-12 3 -19.5 11.5t-7.5 25.5q0 34 27 34h359v52h-334q-32 0 -32 46q0 45 33 45h417 q40 0 40 -49v-127q0 -56 -41 -56h-297v-36q0 -18 24 -18h312q32 0 32 -45q0 -47 -36 -47z" />
<glyph unicode="&#xad9c;" horiz-adv-x="776" d="M79 695q-32 0 -32 47t34 47h362q47 0 47 -58q0 -59 -12 -125q-11 -55 -27 -96q30 2 61 9q60 12 69 -17v235q0 28 -7 35t-20 11q-24 5 -37.5 13t-13.5 25q0 39 44 39h106q54 0 54 -46v-493q0 -96 -97 -96h-29v66h-153q-33 0 -33 46t33 46h153v95q-3 -13 -16 -21 q-28 -18 -91 -30q-58 -11 -141 -12v-114q0 -76 -88 -76h-39v190h-170q-32 0 -32 47q0 46 32 46h315q1 2 1 4q7 33 8 86t1 97h-282zM392 123q-7 -23 -21 -48l83 -61q45 57 65 123q2 3 -2.5 5t-14.5 6q-17 4 -26 11t-9 22q0 31 41 31h77q42 0 53 -28.5t5 -58.5q-7 -25 -22 -53 l124 -80q24 -14 29 -36t-7 -43q-18 -21 -43 -22t-43 16l-112 94q-6 -6 -12 -13q-67 -71 -137 -111q-19 -11 -35 -12t-28 10q-9 12 -8 21.5t13 19.5q15 12 29 26l-70 67l-16 -16q-69 -68 -132 -103q-23 -16 -38 -12t-24 19q-5 8 -2.5 19t14.5 20q39 29 82.5 84.5t62.5 107.5 q2 3 -2.5 7t-13.5 7q-20 5 -28 11t-8 21q0 32 42 32h79q48 0 54.5 -28t0.5 -55z" />
<glyph unicode="&#xad9d;" horiz-adv-x="776" d="M79 695q-32 0 -32 47t34 47h362q47 0 47 -58q0 -59 -12 -125q-11 -55 -27 -96q30 2 61 9q60 12 69 -17v235q0 28 -7 35t-20 11q-24 5 -37.5 13t-13.5 25q0 39 44 39h106q54 0 54 -46v-498q0 -96 -97 -96h-29v76h-153q-33 0 -33 46q0 47 33 47h153v89q-3 -13 -16 -21 q-28 -18 -91 -30q-58 -11 -141 -12v-129q0 -77 -88 -77h-39v206h-170q-32 0 -32 47q0 46 32 46h315q1 2 1 4q7 33 8 86t1 97h-282zM244 43q0 77 65 132.5t161 55.5q97 0 162.5 -55.5t65.5 -132.5q0 -73 -65.5 -127t-162.5 -54q-96 0 -161 54t-65 127zM575 46 q0 37 -30.5 63.5t-75.5 26.5q-43 0 -73 -26.5t-30 -63.5q0 -35 30 -61t73 -26q45 0 75.5 26t30.5 61z" />
<glyph unicode="&#xada4;" horiz-adv-x="813" d="M59 659q-31 0 -31 47t34 47h296q51 0 51 -55q0 -85 -13 -173q-9 -64 -23 -116q21 3 44 7q60 12 68 -16v289q0 29 -6 36t-20 11q-24 6 -36 13t-12 22q0 36 42 36h93q52 0 52 -45v-723q0 -96 -88 -96h-25v222h-123q-32 0 -32 45q0 48 32 48h123v117q-3 -12 -15 -20 q-29 -19 -91 -30q-39 -8 -89 -10v-273q0 -99 -84 -99h-35v370h-134q-33 0 -33 47q0 46 32 46h245q8 58 8 117v136h-230zM767 813v-835q0 -96 -95 -96h-23v857q0 27 -4.5 34.5t-19.5 11.5q-25 5 -36.5 12t-11.5 24q0 39 46 39h91q53 0 53 -47z" />
<glyph unicode="&#xadb7;" horiz-adv-x="813" d="M71 660q-32 0 -32 47t35 47h285q51 0 51 -58q0 -59 -14 -120q-10 -44 -23 -74q21 2 44 6q60 13 68 -16v197q0 29 -6 36t-20 11q-24 6 -36 13t-12 22q0 36 42 36h93q52 0 52 -45v-421q0 -96 -86 -96h-27v43h-126q-32 0 -32 45q0 48 32 48h126v86q-3 -12 -15 -20 q-29 -19 -91 -30q-36 -7 -82 -10v-141q0 -78 -83 -78h-36v217h-141q-33 0 -33 47q0 46 32 46h244v2q6 29 7.5 75t1.5 85h-218zM767 812v-547q0 -97 -95 -97h-24v571q0 27 -4.5 34.5t-19.5 11.5q-25 5 -36 12t-11 24q0 39 46 39h91q53 0 53 -48zM562 148q-5 -25 -20 -49 l217 -119q26 -14 27.5 -37t-7.5 -37q-13 -18 -32 -21t-54 19l-204 132q-18 -17 -40 -34q-98 -71 -205 -116q-57 -24 -72.5 2.5t22.5 47.5q79 44 141.5 100t91.5 107q5 7 0 14.5t-20 10.5q-35 9 -32 36.5t36 27.5h78q52 0 65 -26.5t8 -57.5z" />
<glyph unicode="&#xadc0;" horiz-adv-x="776" d="M69 679q-32 0 -32 47q0 48 34 48h362q47 0 47 -56q0 -98 -11 -199q-8 -78 -26 -137q34 1 69 9q60 12 69 -17v362q0 29 -7 36t-20 11q-24 5 -37.5 13t-13.5 25q0 39 44 39h107q53 0 53 -43v-839q0 -96 -97 -96h-29v468q-3 -13 -16 -21q-28 -18 -91 -30q-59 -11 -142 -12 v-286q0 -99 -88 -99h-38v385h-170q-32 0 -32 47q0 46 32 46h308q7 55 7 115v184h-282z" />
<glyph unicode="&#xadc1;" horiz-adv-x="776" d="M79 695q-32 0 -32 47t34 47h362q47 0 47 -58q0 -59 -13 -133q-11 -60 -27 -102q30 2 62 8q60 13 69 -16v249q0 28 -7 35t-20 11q-24 5 -37.5 13t-13.5 25q0 39 44 39h106q54 0 54 -46v-497q0 -96 -97 -96h-29v242q-3 -12 -16 -20q-28 -19 -91 -30q-58 -11 -141 -12v-104 q0 -76 -88 -76h-39v180h-170q-32 0 -32 47q0 46 32 46h316v3q9 50 9 104.5v93.5h-282zM210 110q-28 0 -28 47q0 46 29 46h445q42 0 42 -47v-189q0 -104 -89 -104h-36v247h-363z" />
<glyph unicode="&#xadc4;" horiz-adv-x="776" d="M79 690q-32 0 -32 47t34 47h362q47 0 47 -59q0 -58 -13 -140q-10 -66 -26 -120q29 2 61 8q60 13 69 -16v280q0 28 -7 35t-20 11q-24 5 -37.5 13t-13.5 25q0 39 44 39h106q54 0 54 -46v-643q0 -96 -97 -96h-29v358q-3 -13 -16 -21q-28 -18 -91 -30q-58 -11 -140 -12v-108 q0 -77 -88 -77h-39v185h-171q-32 0 -32 47q0 46 32 46h316q9 61 9 120v107h-282zM700 -107h-373q-102 0 -102 94v58q0 30 -7 36.5t-21 12.5q-26 7 -33 15t-7 22q0 32 39 32h103q52 0 52 -45v-109q0 -22 19 -22h335q32 0 32 -47t-37 -47z" />
<glyph unicode="&#xadc8;" horiz-adv-x="776" d="M79 702q-32 0 -32 46q0 47 34 47h362q47 0 47 -59q0 -54 -14 -128q-11 -59 -25 -97q30 2 61 9q60 12 69 -17v234q0 28 -7 35t-20 11q-24 5 -37.5 13t-13.5 25q0 39 44 39h106q54 0 54 -46v-424q0 -97 -97 -97h-29v186q-3 -13 -16 -21q-28 -18 -91 -30q-58 -11 -141 -12 v-52q0 -77 -88 -77h-39v129h-170q-32 0 -32 47q0 46 32 46h316q9 44 9 94v99h-282zM692 -121h-398q-57 0 -57 69v64q0 22 -7 28t-15 11q-12 3 -19.5 11t-7.5 25q0 34 27 34h359v60h-334q-32 0 -32 46q0 45 33 45h417q40 0 40 -49v-135q0 -56 -41 -56h-297v-42q0 -19 24 -19 h312q32 0 32 -45q0 -47 -36 -47z" />
<glyph unicode="&#xadd0;" horiz-adv-x="776" d="M79 695q-32 0 -32 47t34 47h362q47 0 47 -60q0 -51 -13 -124q-11 -62 -27 -105q30 2 62 8q60 13 69 -16v245q0 28 -7 35t-20 11q-24 5 -37.5 13t-13.5 25q0 39 44 39h106q54 0 54 -46v-478q0 -96 -97 -96h-29v227q-3 -12 -16 -20q-28 -19 -91 -30q-58 -11 -141 -12v-88 q0 -77 -88 -77h-39v165h-170q-32 0 -32 47q0 46 32 46h316q1 2 1 3q8 40 8 95v99h-282zM358 -21h220v144h-220v-144zM651 216q47 0 47 -54v-131q0 -31 -8 -53q28 -6 28 -45q0 -47 -38 -47h-349q-23 -29 -66 -29h-28v223q0 39 -4.5 48t-14.5 13q-16 7 -23 15t-7 25 q0 35 34 35h429z" />
<glyph unicode="&#xadd1;" horiz-adv-x="776" d="M79 702q-32 0 -32 47t34 47h362q47 0 47 -59q0 -54 -14 -136q-10 -59 -23 -94q28 2 59 8q60 13 69 -16v238q0 28 -7 35t-20 11q-24 5 -37.5 13t-13.5 25q0 39 44 39h106q54 0 54 -46v-437q0 -96 -97 -96h-29v194q-3 -13 -16 -21q-28 -18 -91 -30q-58 -11 -141 -12v-64 q0 -77 -88 -77h-39v141h-170q-32 0 -32 47q0 46 32 46h316q9 44 9 104v93h-282zM675 -114h-346q-23 -28 -64 -28h-28v272q0 29 -3 34t-6 6q-11 4 -23 10.5t-12 24.5q0 34 43 34h66q53 0 53 -46v-46h225v5q0 27 -3.5 31t-6.5 5q-16 6 -26 12.5t-10 24.5q0 32 43 32h64 q57 0 57 -46v-169q0 -39 -12 -64q26 -6 26 -45q0 -47 -37 -47zM355 -21h225v75h-225v-75z" />
<glyph unicode="&#xadd3;" horiz-adv-x="776" d="M79 695q-32 0 -32 47t34 47h362q47 0 47 -60q0 -51 -13 -124q-11 -62 -27 -105q30 2 62 8q60 13 69 -16v245q0 28 -7 35t-20 11q-24 5 -37.5 13t-13.5 25q0 39 44 39h106q54 0 54 -46v-549q0 -97 -97 -97h-29v299q-3 -12 -16 -20q-28 -19 -91 -30q-58 -11 -141 -12v-139 q0 -77 -88 -77h-39v216h-170q-32 0 -32 47q0 46 32 46h316q1 2 1 3q8 40 8 95v99h-282zM540 179q-8 -32 -26 -64l208 -135q21 -13 25 -36t-8 -38q-14 -19 -36 -20.5t-49 18.5l-189 147q-16 -18 -36 -35q-94 -82 -191 -131q-55 -28 -71 -0.5t18 52.5q82 53 138 116t81 120 q5 6 -0.5 14.5t-19.5 11.5q-35 8 -32 36t36 28h79q51 0 64.5 -27t8.5 -57z" />
<glyph unicode="&#xaddc;" d="M159 695q-32 0 -32 47t33 47h466q47 0 47 -58q0 -71 -13.5 -173t-34.5 -153q-7 -14 -22.5 -26.5t-40.5 -3.5q-15 5 -20.5 17t-4.5 33q8 70 8 129v141h-386zM347 262v-277q0 -103 -92 -103h-31v380h-180q-32 0 -32 47q0 46 32 46h735q37 0 37 -46q0 -47 -37 -47h-166v-277 q0 -103 -92 -103h-31v380h-143z" />
<glyph unicode="&#xade0;" d="M159 697q-32 0 -32 47t33 47h468q46 0 46 -56q0 -93 -12 -181q-11 -68 -26 -118h144q36 0 36 -46q0 -48 -36 -48h-169v-138q0 -106 -83 -106h-29v244h-77v-138q0 -106 -83 -106h-30v244h-265q-32 0 -32 48q0 46 32 46h493q8 59 8 105v156h-386zM655 -107h-388 q-101 0 -101 91v127q0 30 -8 37t-21 11q-26 7 -34 15t-8 23q0 35 40 35h98q54 0 54 -45v-178q0 -22 18 -22h353q33 0 33 -47t-36 -47z" />
<glyph unicode="&#xade4;" d="M159 718q-32 0 -32 46q0 47 33 47h468q46 0 46 -56q0 -85 -15 -160q-10 -48 -20 -84h141q37 0 37 -46q0 -47 -37 -47h-167v-34q0 -46 -15 -72h37q39 0 39 -48v-156q0 -56 -40 -56h-339v-61q0 -20 23 -20h355q32 0 32 -47q0 -45 -35 -45h-431q-68 0 -68 78v73q0 24 -5 30 t-16 9q-11 6 -20 12.5t-9 25.5q0 35 27 35h402v79h-376q-32 0 -32 44q0 47 33 47h50v106h-180q-32 0 -32 47q0 46 32 46h494q6 55 6 103v104h-386zM489 312v106h-139v-34q0 -46 -15 -72h154z" />
<glyph unicode="&#xadf8;" d="M150 738h477q47 0 47 -59q0 -93 -13.5 -219.5t-43.5 -212.5q-6 -17 -24.5 -27.5t-40.5 -0.5q-14 5 -20.5 16.5t-3.5 33.5q12 60 14.5 163t2.5 211h-397q-31 0 -31 48q0 47 33 47zM780 37h-736q-32 0 -32 48t32 48h736q36 0 36 -48t-36 -48z" />
<glyph unicode="&#xadf9;" d="M159 711q-32 0 -32 47t33 47h468q46 0 46 -56q0 -82 -12 -175q-12 -81 -29 -131h147q36 0 36 -47t-36 -47h-736q-32 0 -32 47t32 47h491v1q10 66 10 113.5v153.5h-386zM155 140q-28 0 -28 47q0 46 29 46h470q42 0 42 -47v-219q0 -104 -89 -104h-36v277h-388z" />
<glyph unicode="&#xadfc;" d="M159 697q-32 0 -32 47t33 47h468q46 0 46 -56q0 -93 -14 -192q-11 -86 -27 -138h147q36 0 36 -47t-36 -47h-736q-32 0 -32 47t32 47h490q11 66 11 138v154h-386zM655 -107h-383q-101 0 -101 91v117q0 29 -8 36.5t-21 11.5q-26 7 -34 14.5t-8 23.5q0 35 40 35h104 q53 0 53 -45v-168q0 -22 18 -22h343q33 0 33 -47t-36 -47z" />
<glyph unicode="&#xadff;" d="M159 711q-32 0 -32 47t33 47h468q46 0 46 -65q-1 -83 -15 -172q-12 -73 -26 -119h147q36 0 36 -47t-36 -47h-736q-32 0 -32 47t32 47h491q10 50 10 128v134h-386zM651 -114h-411q-64 0 -64 69v166q0 36 -3 44t-17 14q-14 7 -22.5 15t-8.5 25q0 35 28 35h488q35 0 35 -48 q0 -45 -32 -45h-342v-159q0 -23 25 -23h327q32 0 32 -46q0 -47 -35 -47z" />
<glyph unicode="&#xae00;" d="M159 718q-32 0 -32 46q0 47 33 47h468q46 0 46 -56q0 -67 -14 -152q-11 -69 -26 -126h146q36 0 36 -47t-36 -47h-736q-32 0 -32 47t32 47h493q8 58 8 116v125h-386zM174 221q-32 0 -32 44q0 47 33 47h460q39 0 39 -48v-156q0 -56 -40 -56h-339v-61q0 -20 23 -20h355 q32 0 32 -47q0 -45 -35 -45h-431q-68 0 -68 78v73q0 24 -5 30t-16 9q-11 6 -20 12.5t-9 25.5q0 35 27 35h402v79h-376z" />
<glyph unicode="&#xae01;" d="M159 718q-32 0 -32 46q0 47 33 47h468q46 0 46 -56q0 -67 -14 -152q-11 -69 -26 -126h146q36 0 36 -47t-36 -47h-736q-32 0 -32 47t32 47h493q8 58 8 116v125h-386zM137 221q-32 0 -32 46q0 45 35 45h242q42 0 42 -47v-160q0 -53 -34 -53h-156v-65q0 -16 18 -16h170 q32 0 32 -45q0 -47 -37 -47h-216q-71 0 -71 77v77q0 24 -2.5 30t-11.5 10q-12 6 -17 12.5t-5 24.5q0 31 28 31h196v80h-181zM476 312h184q47 0 47 -45v-288q0 -100 -72 -100h-34v342h-130q-32 0 -32 46q0 45 37 45z" />
<glyph unicode="&#xae08;" d="M159 711q-32 0 -32 47t33 47h468q46 0 46 -65q-1 -83 -15 -172q-12 -73 -26 -119h147q36 0 36 -47t-36 -47h-736q-32 0 -32 47t32 47h491q10 50 10 128v134h-386zM294 -21h256v182h-256v-182zM624 254q47 0 47 -54v-159q0 -38 -13 -63q26 -6 26 -45q0 -47 -36 -47h-381 q-23 -29 -65 -29h-29v261q0 39 -3 47.5t-15 14.5q-13 6 -21 14t-8 25q0 35 42 35h456z" />
<glyph unicode="&#xae09;" d="M159 717q-32 0 -32 47t33 47h468q46 0 46 -56q0 -85 -14 -166q-12 -72 -29 -133h149q36 0 36 -47t-36 -47h-736q-32 0 -32 47t32 47h491q10 67 10 111v150h-386zM648 -114h-384q-22 -28 -62 -28h-29v322q0 27 -2.5 32t-5.5 7q-11 4 -23.5 10t-12.5 24q0 34 43 34h67 q53 0 53 -44v-76h260v30q0 27 -3 31t-6 5q-17 6 -27 12.5t-10 24.5q0 32 43 32h69q53 0 53 -45v-213q0 -39 -14 -66q27 -5 27 -45q0 -47 -36 -47zM292 -21h260v95h-260v-95z" />
<glyph unicode="&#xae0b;" d="M159 711q-32 0 -32 47t33 47h468q46 0 46 -56q0 -87 -14 -176q-11 -74 -26 -124h146q36 0 36 -47t-36 -47h-736q-32 0 -32 47t32 47h492q9 63 9 115v147h-386zM494 193q-9 -37 -38 -79l242 -137q27 -13 29.5 -37t-10.5 -40q-12 -16 -33 -18.5t-50 16.5l-227 156l-22 -22 q-93 -89 -200 -146q-53 -31 -70.5 -3t12.5 49q85 56 149 131.5t82 123.5q4 6 -2 15t-20 12q-33 8 -30 35.5t36 27.5h79q51 0 65 -26.5t8 -57.5z" />
<glyph unicode="&#xae0d;" d="M159 711q-32 0 -32 47t33 47h468q46 0 46 -56q0 -87 -14 -176q-11 -77 -27 -128h147q36 0 36 -47t-36 -47h-736q-32 0 -32 47t32 47h491q10 65 10 119v147h-386zM178 66q0 84 67 145t168 61t168.5 -61t67.5 -145q0 -83 -67.5 -143.5t-168.5 -60.5t-168 60.5t-67 143.5z M525 66q0 46 -32.5 78.5t-80.5 32.5q-46 0 -78 -32.5t-32 -78.5q0 -45 32 -77t78 -32q48 0 80.5 32t32.5 77z" />
<glyph unicode="&#xae14;" horiz-adv-x="776" d="M69 627q-32 0 -32 47t34 47h384q47 0 47 -64q0 -84 -14.5 -187.5t-33.5 -161.5q-7 -19 -25 -29t-39 -3q-16 5 -22 15.5t-4 33.5q9 73 9 148.5v153.5h-304zM318 110h-282q-32 0 -32 47t32 47h287q66 0 106.5 1t82.5 9q60 13 69 -16v-3v540q0 30 -8.5 37.5t-22.5 11.5 q-21 6 -34 13t-13 24q0 39 42 39h109q53 0 53 -43v-842q0 -92 -97 -92h-29v289q-3 -12 -16 -20q-28 -18 -91 -30t-156 -12z" />
<glyph unicode="&#xae30;" horiz-adv-x="776" d="M67 613q-32 0 -32 47q0 46 33 46h356q28 0 39 -20.5t8 -43.5q-24 -135 -132.5 -265.5t-241.5 -212.5q-56 -39 -78 -11t7 54q111 85 194 203t105 203h-258zM581 736q0 29 -7 36t-20 11q-24 5 -37.5 13t-13.5 25q0 39 44 39h106q54 0 54 -43v-839q0 -96 -97 -96h-29v854z " />
<glyph unicode="&#xae31;" horiz-adv-x="776" d="M67 660q-32 0 -32 47q0 46 34 46h352q22 0 34 -20.5t10 -41.5q-22 -114 -131 -230.5t-241 -184.5q-59 -31 -76 -1.5t13 48.5q120 77 196 179.5t93 157.5h-252zM581 270v466q0 29 -7 36t-20 11q-24 5 -37.5 13t-13.5 25q0 39 44 39h106q54 0 54 -47v-445q0 -98 -97 -98 h-29zM199 142q-28 0 -28 47q0 46 29 46h456q42 0 42 -47v-221q0 -104 -89 -104h-36v279h-374z" />
<glyph unicode="&#xae34;" horiz-adv-x="776" d="M67 658q-32 0 -32 47q0 46 34 46h352q22 0 34 -20.5t10 -41.5q-23 -127 -130.5 -251t-241.5 -198q-57 -36 -75 -5.5t12 50.5q113 77 194 193t98 180h-255zM581 120v616q0 29 -7 36t-20 11q-24 5 -37.5 13t-13.5 25q0 39 44 39h106q54 0 54 -46v-598q0 -96 -97 -96h-29z M711 -107h-370q-101 0 -101 91v114q0 29 -7.5 36t-21.5 12q-26 7 -33 15t-7 23q0 35 39 35h103q53 0 53 -46v-164q0 -22 18 -22h331q33 0 33 -47t-37 -47z" />
<glyph unicode="&#xae37;" horiz-adv-x="776" d="M67 660q-32 0 -32 47q0 46 34 46h352q22 0 34 -20.5t10 -41.5q-20 -111 -132.5 -234t-238.5 -194q-58 -37 -76 -6.5t11 51.5q121 85 197 189t93 163h-252zM581 284v452q0 29 -7 36t-20 11q-24 5 -37.5 13t-13.5 25q0 39 44 39h106q54 0 54 -47v-431q0 -98 -97 -98h-29z M675 -114h-358q-65 0 -65 69v161q0 36 -3 44t-18 13q-13 8 -21.5 16t-8.5 24q0 36 27 36h438q35 0 35 -48q0 -45 -31 -45h-292v-154q0 -23 24 -23h278q32 0 32 -46q0 -47 -37 -47z" />
<glyph unicode="&#xae38;" horiz-adv-x="776" d="M67 668q-32 0 -32 47q0 46 34 46h352q21 0 34 -20.5t10 -42.5q-24 -111 -131.5 -219.5t-240.5 -173.5q-59 -30 -76 -1.5t13 48.5q115 72 190.5 163t98.5 153h-252zM581 339v397q0 29 -7 36t-20 11q-24 5 -37.5 13t-13.5 25q0 39 44 39h106q54 0 54 -47v-374 q0 -100 -97 -100h-29zM692 -121h-388q-57 0 -57 69v78q0 23 -7 29.5t-15 10.5q-12 3 -19 11t-7 26q0 34 26 34h347v74h-322q-32 0 -32 47q0 46 33 46h407q40 0 40 -50v-151q0 -57 -41 -57h-284v-56q0 -19 23 -19h300q32 0 32 -45q0 -47 -36 -47z" />
<glyph unicode="&#xae3a;" horiz-adv-x="776" d="M67 668q-32 0 -32 47q0 46 34 46h352q21 0 34 -20.5t10 -42.5q-24 -111 -131.5 -219.5t-240.5 -173.5q-59 -30 -76 -1.5t13 48.5q115 72 190.5 163t98.5 153h-252zM581 339v397q0 29 -7 36t-20 11q-24 5 -37.5 13t-13.5 25q0 39 44 39h106q54 0 54 -47v-374 q0 -100 -97 -100h-29zM542 -13h62v225h-62v-225zM144 211q-31 0 -31 47q0 46 34 46h205q43 0 43 -48v-156q0 -54 -34 -54h-119v-59q0 -16 17 -16h132q32 0 32 -45q0 -47 -40 -47h-172q-74 0 -74 77v73q0 24 -2.5 29.5t-11.5 9.5q-11 6 -16.5 12t-5.5 25q0 31 28 31h164v75 h-149zM653 304q54 0 54 -52v-203q0 -38 -13 -64q26 -7 26 -42q0 -47 -40 -47h-158q-17 -29 -49 -29h-32v312q0 38 -1.5 43t-8.5 10q-10 7 -17.5 13.5t-7.5 23.5q0 35 35 35h212z" />
<glyph unicode="&#xae40;" horiz-adv-x="776" d="M67 660q-32 0 -32 47q0 46 34 46h352q22 0 34 -20.5t10 -41.5q-20 -111 -132.5 -234t-238.5 -194q-58 -37 -76 -6.5t11 51.5q121 85 197 189t93 163h-252zM581 284v452q0 29 -7 36t-20 11q-24 5 -37.5 13t-13.5 25q0 39 44 39h106q54 0 54 -47v-431q0 -98 -97 -98h-29z M369 -21h208v177h-208v-177zM650 249q48 0 48 -55v-153q0 -38 -12 -63q26 -6 26 -45q0 -47 -37 -47h-333q-24 -29 -66 -29h-29v255q0 40 -3 48.5t-16 13.5q-12 7 -20 15t-8 24q0 36 42 36h408z" />
<glyph unicode="&#xae41;" horiz-adv-x="776" d="M67 668q-32 0 -32 47q0 46 33 46h353q21 0 34 -20.5t10 -42.5q-24 -111 -129.5 -220.5t-242.5 -185.5q-59 -38 -76 -6.5t12 51.5q115 79 190 170.5t100 160.5h-252zM581 328v408q0 29 -7 36t-20 11q-24 5 -37.5 13t-13.5 25q0 39 44 39h106q54 0 54 -47v-387 q0 -98 -97 -98h-29zM367 167h212v34q0 27 -3.5 31t-6.5 5q-16 6 -26.5 12.5t-10.5 24.5q0 33 43 33h66q57 0 57 -45v-219q0 -40 -13 -65q27 -6 27 -45q0 -47 -37 -47h-336q-23 -28 -63 -28h-29v309q0 28 -2.5 33t-5.5 6q-12 4 -24 10.5t-12 24.5q0 34 43 34h67q54 0 54 -44 v-64zM579 74h-212v-95h212v95z" />
<glyph unicode="&#xae43;" horiz-adv-x="776" d="M67 660q-32 0 -32 47q0 46 34 46h352q22 0 34 -20.5t10 -41.5q-20 -111 -132.5 -234t-238.5 -194q-58 -37 -76 -6.5t11 51.5q121 85 197 189t93 163h-252zM581 234v502q0 29 -7 36t-20 11q-24 5 -37.5 13t-13.5 25q0 39 44 39h106q54 0 54 -47v-481q0 -98 -97 -98h-29z M540 200q-10 -35 -30 -70l213 -149q20 -13 24 -36t-8 -38q-14 -19 -37 -21t-49 19l-192 159q-17 -18 -35 -36q-92 -89 -188 -139q-59 -32 -73 -4.5t20 52.5q83 56 139.5 128.5t79.5 129.5q5 5 -0.5 13.5t-19.5 12.5q-35 8 -32 35.5t36 27.5h79q50 0 64.5 -26.5t8.5 -57.5z " />
<glyph unicode="&#xae45;" horiz-adv-x="776" d="M67 660q-32 0 -32 47q0 46 34 46h352q22 0 34 -20.5t10 -41.5q-20 -111 -132.5 -234t-238.5 -194q-58 -37 -76 -6.5t11 51.5q121 85 197 189t93 163h-252zM581 269v467q0 29 -7 36t-20 11q-24 5 -37.5 13t-13.5 25q0 39 44 39h106q54 0 54 -47v-446q0 -98 -97 -98h-29z M249 64q0 85 63 146.5t162 61.5q100 0 163.5 -61.5t63.5 -146.5q0 -82 -63.5 -142t-163.5 -60q-99 0 -162 60t-63 142zM578 66q0 46 -30.5 78.5t-74.5 32.5q-42 0 -71 -32.5t-29 -78.5q0 -45 29 -77t71 -32q44 0 74.5 32t30.5 77z" />
<glyph unicode="&#xae46;" horiz-adv-x="776" d="M67 660q-32 0 -32 47q0 46 34 46h352q22 0 34 -20.5t10 -41.5q-20 -111 -132.5 -234t-238.5 -194q-58 -37 -76 -6.5t11 51.5q121 85 197 189t93 163h-252zM581 284v452q0 29 -7 36t-20 11q-24 5 -37.5 13t-13.5 25q0 39 44 39h106q54 0 54 -47v-431q0 -98 -97 -98h-29z M237 156q-30 0 -30 47q0 46 33 46h364q34 0 47.5 -26t1.5 -56q-23 -53 -92 -110l157 -82q25 -14 30.5 -33.5t-4.5 -40.5q-12 -21 -34 -26t-47 15l-171 115q-3 -3 -5 -4q-132 -88 -271 -130q-33 -11 -45.5 17.5t20.5 44.5q97 41 181 105.5t128 117.5h-263z" />
<glyph unicode="&#xae4a;" horiz-adv-x="776" d="M67 660q-32 0 -32 47q0 46 34 46h352q22 0 34 -20.5t10 -41.5q-20 -111 -132.5 -234t-238.5 -194q-58 -37 -76 -6.5t11 51.5q121 85 197 189t93 163h-252zM581 284v452q0 29 -7 36t-20 11q-24 5 -37.5 13t-13.5 25q0 39 44 39h106q54 0 54 -47v-431q0 -98 -97 -98h-29z M699 157h-66v-179h66q36 0 36 -46t-36 -46h-505q-33 0 -33 46t33 46h82v179h-82q-33 0 -33 46t33 46h505q36 0 36 -46t-36 -46zM512 157h-115v-179h115v179z" />
<glyph unicode="&#xae4c;" horiz-adv-x="841" d="M46 618q-32 0 -32 47q0 46 33 46h413q23 0 36.5 -17t10.5 -44q-18 -157 -74 -275t-146 -211q-43 -44 -71.5 -22t-6.5 53q71 95 111.5 209.5t50.5 213.5h-69q-19 -112 -76.5 -219.5t-135.5 -176.5q-48 -48 -72 -20t2 61q54 61 100.5 165.5t56.5 189.5h-131zM575 736 q0 29 -6.5 36t-19.5 11q-24 5 -37.5 13t-13.5 25q0 39 44 39h103q52 0 52 -42v-309h100q32 0 32 -48t-32 -48h-100v-438q0 -92 -92 -92h-30v853z" />
<glyph unicode="&#xae4d;" horiz-adv-x="841" d="M46 665q-32 0 -32 47q0 46 33 46h413q23 0 36.5 -18t10.5 -41q-15 -123 -80.5 -231t-142.5 -173q-45 -40 -71 -15.5t-1 52.5q60 70 104.5 159.5t54.5 173.5h-69q-20 -87 -80 -174.5t-130 -137.5q-52 -39 -71 -11.5t12 58.5q52 50 92 124t51 141h-130zM575 736 q0 29 -6.5 36t-19.5 11q-24 5 -37.5 13t-13.5 25q0 39 44 39h103q52 0 52 -42v-222h100q32 0 32 -48t-32 -48h-100v-135q0 -92 -92 -92h-30v463zM190 142q-27 0 -27 47q0 46 28 46h457q42 0 42 -47v-221q0 -104 -89 -104h-36v279h-375z" />
<glyph unicode="&#xae4e;" horiz-adv-x="841" d="M46 665q-32 0 -32 47q0 46 33 46h413q23 0 36.5 -18t10.5 -41q-15 -123 -80.5 -231t-142.5 -173q-45 -40 -71 -15.5t-1 52.5q60 70 104.5 159.5t54.5 173.5h-69q-20 -87 -80 -174.5t-130 -137.5q-52 -39 -71 -11.5t12 58.5q52 50 92 124t51 141h-130zM575 736 q0 29 -6.5 36t-19.5 11q-24 5 -37.5 13t-13.5 25q0 39 44 39h103q52 0 52 -42v-222h100q32 0 32 -48t-32 -48h-100v-135q0 -92 -92 -92h-30v463zM455 142q-26 0 -26 47q0 46 29 46h194q45 0 45 -47v-221q0 -104 -85 -104h-27v279h-130zM125 142q-28 0 -28 47q0 46 31 46h253 q43 0 43 -47v-221q0 -104 -83 -104h-30v279h-186z" />
<glyph unicode="&#xae50;" horiz-adv-x="841" d="M46 665q-32 0 -32 47q0 46 33 46h413q23 0 36.5 -18t11.5 -43q-16 -125 -76.5 -233.5t-147.5 -183.5q-45 -39 -71 -15.5t-1 52.5q66 73 107.5 168.5t51.5 179.5h-69q-18 -90 -77.5 -180t-132.5 -148q-50 -42 -70 -12.5t11 59.5q52 51 92 130t51 151h-130zM697 818v-242 h100q32 0 32 -48t-32 -48h-100v-268q0 -92 -92 -92h-30v616q0 29 -6.5 36t-19.5 11q-24 5 -37.5 13t-13.5 25q0 39 44 39h103q52 0 52 -42zM702 -107h-369q-102 0 -102 91v114q0 29 -7 36t-21 12q-26 7 -33 15t-7 23q0 35 39 35h103q52 0 52 -46v-164q0 -22 19 -22h331 q32 0 32 -47t-37 -47z" />
<glyph unicode="&#xae54;" horiz-adv-x="841" d="M46 675q-32 0 -32 47q0 46 33 46h413q23 0 37 -17.5t11 -43.5q-19 -117 -86 -212.5t-139 -146.5q-47 -33 -72 -10.5t1 49.5q62 61 105.5 143.5t53.5 144.5h-67q-28 -84 -86 -154t-126 -115q-57 -38 -71 -8t18 58q47 40 84.5 98.5t52.5 120.5h-130zM575 736q0 29 -6.5 36 t-19.5 11q-24 5 -37.5 13t-13.5 25q0 39 44 39h103q52 0 52 -42v-191h100q32 0 32 -48t-32 -48h-100v-99q0 -93 -92 -93h-30v397zM685 -121h-388q-57 0 -57 69v78q0 23 -7 29.5t-15 10.5q-12 3 -19.5 11t-7.5 26q0 34 27 34h347v74h-322q-32 0 -32 47q0 46 33 46h407 q40 0 40 -50v-151q0 -57 -41 -57h-284v-56q0 -19 23 -19h300q32 0 32 -45q0 -47 -36 -47z" />
<glyph unicode="&#xae56;" horiz-adv-x="841" d="M46 675q-32 0 -32 47q0 46 33 46h413q23 0 37 -17.5t11 -43.5q-19 -117 -86 -212.5t-139 -146.5q-47 -33 -72 -10.5t1 49.5q62 61 105.5 143.5t53.5 144.5h-67q-28 -84 -86 -154t-126 -115q-57 -38 -71 -8t18 58q47 40 84.5 98.5t52.5 120.5h-130zM575 736q0 29 -6.5 36 t-19.5 11q-24 5 -37.5 13t-13.5 25q0 39 44 39h103q52 0 52 -42v-191h100q32 0 32 -48t-32 -48h-100v-99q0 -93 -92 -93h-30v397zM535 -13h62v221h-62v-221zM137 207q-32 0 -32 47q0 45 35 45h205q43 0 43 -47v-154q0 -54 -34 -54h-120v-57q0 -16 18 -16h132q32 0 32 -45 q0 -47 -40 -47h-172q-74 0 -74 77v71q0 24 -2.5 29.5t-11.5 9.5q-12 6 -17 12t-5 25q0 31 28 31h164v73h-149zM646 299q53 0 53 -51v-199q0 -38 -12 -64q26 -7 26 -42q0 -47 -40 -47h-158q-17 -29 -49 -29h-32v306q0 39 -1.5 44.5t-8.5 10.5q-10 7 -18 13.5t-8 23.5 q0 34 36 34h212z" />
<glyph unicode="&#xae5c;" horiz-adv-x="841" d="M46 665q-32 0 -32 47q0 46 33 46h413q23 0 37 -16.5t11 -44.5q-16 -123 -82 -228.5t-143 -163.5q-46 -36 -70.5 -13.5t-0.5 50.5q66 72 107.5 159.5t51.5 163.5h-69q-23 -89 -81 -170.5t-129 -132.5q-52 -38 -71.5 -10.5t12.5 58.5q54 51 92.5 121t50.5 134h-130z M575 736q0 29 -6.5 36t-19.5 11q-24 5 -37.5 13t-13.5 25q0 39 44 39h103q52 0 52 -42v-225h100q32 0 32 -48t-32 -48h-100v-121q0 -92 -92 -92h-30v452zM361 -21h208v177h-208v-177zM643 249q48 0 48 -55v-153q0 -38 -12 -63q26 -6 26 -45q0 -47 -37 -47h-333 q-24 -29 -66 -29h-29v255q0 40 -3.5 48.5t-15.5 13.5q-12 7 -20 15t-8 24q0 36 41 36h409z" />
<glyph unicode="&#xae5d;" horiz-adv-x="841" d="M46 675q-32 0 -32 47q0 46 33 46h413q23 0 36.5 -17.5t10.5 -43.5q-13 -110 -76.5 -212.5t-147.5 -166.5q-46 -35 -71 -12t0 51q66 70 107.5 154t51.5 154h-69q-16 -68 -75 -151.5t-135 -137.5q-53 -36 -72.5 -7.5t11.5 55.5q53 45 93 114t52 127h-130zM575 736 q0 29 -6.5 36t-19.5 11q-24 5 -37.5 13t-13.5 25q0 39 44 39h103q52 0 52 -42v-191h100q32 0 32 -48t-32 -48h-100v-111q0 -92 -92 -92h-30v408zM359 167h212v34q0 27 -3 31t-6 5q-16 6 -26.5 12.5t-10.5 24.5q0 33 43 33h66q57 0 57 -45v-219q0 -40 -13 -65q27 -6 27 -45 q0 -47 -37 -47h-336q-23 -28 -63 -28h-29v309q0 28 -3 33t-6 6q-11 4 -23 10.5t-12 24.5q0 34 43 34h67q53 0 53 -44v-64zM571 74h-212v-95h212v95z" />
<glyph unicode="&#xae5f;" horiz-adv-x="841" d="M46 665q-32 0 -32 47q0 46 33 46h413q23 0 37 -16.5t11 -44.5q-16 -123 -82 -228.5t-143 -163.5q-46 -36 -70.5 -13.5t-0.5 50.5q66 72 107.5 159.5t51.5 163.5h-69q-23 -89 -81 -170.5t-129 -132.5q-52 -38 -71.5 -10.5t12.5 58.5q54 51 92.5 121t50.5 134h-130z M575 736q0 29 -6.5 36t-19.5 11q-24 5 -37.5 13t-13.5 25q0 39 44 39h103q52 0 52 -42v-225h100q32 0 32 -48t-32 -48h-100v-171q0 -92 -92 -92h-30v502zM532 200q-9 -35 -29 -70l213 -149q20 -13 23.5 -36t-7.5 -38q-14 -19 -37 -21t-49 19l-192 159q-17 -18 -35 -36 q-92 -89 -189 -139q-58 -32 -72.5 -4.5t20.5 52.5q83 56 139.5 128.5t79.5 129.5q4 5 -1 13.5t-19 12.5q-35 8 -32 35.5t36 27.5h79q50 0 64.5 -26.5t7.5 -57.5z" />
<glyph unicode="&#xae60;" horiz-adv-x="841" d="M46 665q-32 0 -32 47q0 46 33 46h413q23 0 37 -16.5t11 -44.5q-16 -123 -82 -228.5t-143 -163.5q-46 -36 -70.5 -13.5t-0.5 50.5q66 72 107.5 159.5t51.5 163.5h-69q-23 -89 -81 -170.5t-129 -132.5q-52 -38 -71.5 -10.5t12.5 58.5q54 51 92.5 121t50.5 134h-130z M575 736q0 29 -6.5 36t-19.5 11q-24 5 -37.5 13t-13.5 25q0 39 44 39h103q52 0 52 -42v-225h100q32 0 32 -48t-32 -48h-100v-121q0 -92 -92 -92h-30v452zM406 190q-7 -46 -32 -93l84 -74q6 9 12 19q47 82 61 151q3 4 -2.5 7t-14.5 6q-13 4 -22.5 10.5t-9.5 20.5q0 34 39 34 h76q42 0 54 -19.5t9 -50.5q-7 -52 -32 -103l126 -113q23 -19 25 -39.5t-11 -36.5t-36 -18t-46 22l-104 111q-5 -6 -10 -11q-76 -95 -148 -136q-53 -31 -70 -7t13 47q17 14 34 32l-73 79l-4 -4q-71 -84 -157 -133q-53 -33 -71 -8.5t15 49.5q65 48 109.5 121t55.5 127 q3 4 -2 7.5t-14 6.5q-16 5 -24.5 11t-8.5 22q0 31 41 31h78q40 0 51 -19.5t9 -48.5z" />
<glyph unicode="&#xae61;" horiz-adv-x="841" d="M46 665q-32 0 -32 47q0 46 33 46h413q23 0 37 -16.5t11 -44.5q-16 -123 -82 -228.5t-143 -163.5q-46 -36 -70.5 -13.5t-0.5 50.5q66 72 107.5 159.5t51.5 163.5h-69q-23 -89 -81 -170.5t-129 -132.5q-52 -38 -71.5 -10.5t12.5 58.5q54 51 92.5 121t50.5 134h-130z M575 736q0 29 -6.5 36t-19.5 11q-24 5 -37.5 13t-13.5 25q0 39 44 39h103q52 0 52 -42v-225h100q32 0 32 -48t-32 -48h-100v-136q0 -92 -92 -92h-30v467zM242 64q0 85 63 146.5t162 61.5q100 0 163.5 -61.5t63.5 -146.5q0 -82 -63.5 -142t-163.5 -60q-99 0 -162 60t-63 142z M570 66q0 46 -30 78.5t-74 32.5q-42 0 -71 -32.5t-29 -78.5q0 -45 29 -77t71 -32q44 0 74 32t30 77z" />
<glyph unicode="&#xae65;" horiz-adv-x="841" d="M46 675q-32 0 -32 47q0 46 33 46h413q23 0 37 -17.5t11 -43.5q-19 -117 -86 -212.5t-139 -146.5q-47 -33 -72 -10.5t1 49.5q62 61 105.5 143.5t53.5 144.5h-67q-28 -84 -86 -154t-126 -115q-57 -38 -71 -8t18 58q47 40 84.5 98.5t52.5 120.5h-130zM575 736q0 29 -6.5 36 t-19.5 11q-24 5 -37.5 13t-13.5 25q0 39 44 39h103q52 0 52 -42v-191h100q32 0 32 -48t-32 -48h-100v-99q0 -93 -92 -93h-30v397zM654 137q37 0 37 -45q0 -46 -37 -46h-292v-51q0 -24 25 -24h290q32 0 32 -45q0 -47 -37 -47h-367q-65 0 -65 69v223q0 36 -3.5 44.5 t-17.5 13.5q-13 7 -19 15t-6 25q0 35 27 35h445q34 0 34 -48q0 -45 -31 -45h-307v-74h292z" />
<glyph unicode="&#xae68;" d="M47 711h360q22 0 33.5 -17.5t8.5 -43.5q-17 -145 -72 -273t-120 -208q-37 -45 -67.5 -24.5t-11.5 52.5q54 83 92.5 199t50.5 222h-54q-21 -118 -74 -222t-110 -173q-41 -50 -64 -25.5t-3 60.5q42 64 81.5 167.5t50.5 192.5h-102q-32 0 -32 47q0 46 33 46zM777 813v-835 q0 -96 -91 -96h-26v539h-66v-386q0 -92 -83 -92h-26v746q0 29 -6 36.5t-20 11.5q-24 6 -36 12.5t-12 21.5q0 36 42 36h89q52 0 52 -43v-251h66v227q0 26 -4.5 33.5t-19.5 11.5q-25 5 -36.5 12t-11.5 24q0 39 46 39h90q53 0 53 -47z" />
<glyph unicode="&#xae69;" d="M47 747h365q22 0 33.5 -18.5t9.5 -43.5q-18 -130 -72.5 -232.5t-123.5 -167.5q-42 -40 -68.5 -19.5t-3.5 52.5q58 69 95 161t45 175h-60q-15 -87 -67.5 -178t-110.5 -141q-46 -41 -66 -15.5t8 59.5q50 60 79.5 134.5t37.5 140.5h-102q-32 0 -32 47q0 46 33 46zM777 812 v-443q0 -99 -91 -99h-26v233h-56v-131q0 -92 -83 -92h-25v409q0 29 -6.5 37.5t-20.5 12.5q-24 6 -36 12.5t-12 22.5q0 33 42 33h89q52 0 52 -43v-169h56v145q0 26 -4.5 33.5t-19.5 11.5q-25 5 -36.5 12t-11.5 24q0 39 46 39h90q53 0 53 -48zM233 142q-27 0 -27 47 q0 46 28 46h489q41 0 41 -47v-221q0 -104 -89 -104h-36v279h-406z" />
<glyph unicode="&#xae6c;" d="M47 740h365q22 0 33.5 -18t9.5 -44q-18 -131 -73 -240t-123 -170q-43 -41 -69.5 -19t-2.5 52q59 70 95.5 167t44.5 179h-60q-19 -95 -68 -186t-110 -144q-45 -40 -66 -14.5t8 59.5q51 63 80 139.5t37 145.5h-102q-32 0 -32 47q0 46 33 46zM777 812v-597q0 -97 -93 -97 h-24v354h-56v-240q0 -92 -84 -92h-24v549q0 29 -6.5 37.5t-20.5 12.5q-24 6 -36 12.5t-12 22.5q0 33 42 33h89q52 0 52 -43v-199h56v175q0 26 -4.5 33.5t-19.5 11.5q-25 5 -36.5 12t-11.5 24q0 39 46 39h90q53 0 53 -48zM760 -107h-401q-101 0 -101 91v114q0 29 -7 36 t-22 12q-25 7 -32.5 15t-7.5 23q0 35 39 35h104q52 0 52 -46v-164q0 -22 18 -22h362q33 0 33 -47t-37 -47z" />
<glyph unicode="&#xae70;" d="M47 751h365q22 0 33.5 -18t9.5 -43q-17 -121 -72.5 -218t-123.5 -153q-45 -37 -71 -17t-1 50q56 62 93.5 147t46.5 159h-60q-19 -82 -67.5 -160.5t-110.5 -127.5q-49 -42 -68 -15t10 59q42 46 73.5 112.5t42.5 131.5h-101q-32 0 -32 47q0 46 33 46zM777 812v-390 q0 -99 -91 -99h-26v206h-54v-104q0 -92 -85 -92h-25v356q0 29 -6.5 37.5t-20.5 12.5q-24 6 -36 12.5t-12 22.5q0 33 42 33h91q52 0 52 -43v-143h54v119q0 26 -4.5 33.5t-19.5 11.5q-25 5 -36.5 12t-11.5 24q0 39 46 39h90q53 0 53 -48zM760 -121h-410q-57 0 -57 69v73 q0 22 -6.5 29t-15.5 11q-12 3 -19 11t-7 26q0 33 26 33h368v70h-343q-32 0 -32 47q0 45 33 45h428q40 0 40 -49v-146q0 -57 -41 -57h-305v-51q0 -19 23 -19h321q32 0 32 -45q0 -47 -35 -47z" />
<glyph unicode="&#xae78;" d="M47 747h365q22 0 33 -21t10 -41q-18 -132 -74.5 -231.5t-121.5 -158.5q-42 -39 -69 -18.5t-3 50.5q59 69 96.5 158t43.5 169h-60q-17 -85 -67 -171t-111 -139q-46 -39 -66 -13t8 59q44 50 75.5 122.5t40.5 141.5h-101q-32 0 -32 47q0 46 33 46zM777 812v-429 q0 -99 -91 -99h-26v224h-56v-122q0 -92 -83 -92h-25v395q0 29 -6.5 37.5t-20.5 12.5q-24 6 -36 12.5t-12 22.5q0 33 42 33h89q52 0 52 -43v-164h56v140q0 26 -4.5 33.5t-19.5 11.5q-25 5 -36.5 12t-11.5 24q0 39 46 39h90q53 0 53 -48zM404 -21h239v177h-239v-177zM718 249 q47 0 47 -55v-153q0 -38 -12 -63q25 -6 25 -45q0 -47 -37 -47h-363q-24 -29 -66 -29h-29v255q0 40 -3.5 48.5t-15.5 13.5q-12 7 -20 15t-8 24q0 36 42 36h440z" />
<glyph unicode="&#xae79;" d="M47 751h365q22 0 33.5 -18.5t9.5 -42.5q-18 -128 -74.5 -225t-121.5 -153q-44 -40 -70.5 -19t-1.5 51q52 59 92 146.5t48 167.5h-60q-17 -84 -68.5 -167t-109.5 -130q-47 -38 -67 -13t9 58q49 54 78 121.5t38 130.5h-101q-32 0 -32 47q0 46 33 46zM777 812v-389 q0 -99 -91 -99h-26v195h-56v-93q0 -92 -83 -92h-25v355q0 29 -6.5 37.5t-20.5 12.5q-24 6 -36 12.5t-12 22.5q0 33 42 33h89q52 0 52 -43v-153h56v129q0 26 -4.5 33.5t-19.5 11.5q-25 5 -36.5 12t-11.5 24q0 39 46 39h90q53 0 53 -48zM408 165h237v32q0 27 -3 31t-6 5 q-16 6 -26.5 12.5t-10.5 24.5q0 32 43 32h66q57 0 57 -45v-214q0 -40 -13 -65q26 -6 26 -45q0 -47 -37 -47h-361q-23 -28 -63 -28h-29v305q0 28 -2.5 33t-5.5 6q-12 4 -24 10.5t-12 24.5q0 34 43 34h67q54 0 54 -44v-62zM645 72h-237v-93h237v93z" />
<glyph unicode="&#xae7b;" d="M47 747h365q22 0 33 -21t10 -41q-18 -132 -74.5 -231.5t-121.5 -158.5q-42 -39 -69 -18.5t-3 50.5q59 69 96.5 158t43.5 169h-60q-17 -85 -67 -171t-111 -139q-46 -39 -66 -13t8 59q44 50 75.5 122.5t40.5 141.5h-101q-32 0 -32 47q0 46 33 46zM777 812v-470 q0 -99 -91 -99h-26v265h-56v-106q0 -92 -83 -92h-25v379q0 29 -6.5 37.5t-20.5 12.5q-24 6 -36 12.5t-12 22.5q0 33 42 33h89q52 0 52 -43v-164h56v140q0 26 -4.5 33.5t-19.5 11.5q-25 5 -36.5 12t-11.5 24q0 39 46 39h90q53 0 53 -48zM570 199q-8 -33 -29 -68l229 -151 q24 -15 26 -37t-8 -37q-15 -20 -37 -21.5t-49 18.5l-210 164q-18 -18 -37 -38q-98 -91 -200 -142q-59 -30 -74 -2.5t22 52.5q84 55 145 127t87 130q4 5 -1 13.5t-19 12.5q-35 8 -32 35.5t36 27.5h79q51 0 64 -26.5t8 -57.5z" />
<glyph unicode="&#xae7c;" d="M47 747h365q22 0 33 -21t10 -41q-18 -132 -74.5 -231.5t-121.5 -158.5q-42 -39 -69 -18.5t-3 50.5q59 69 96.5 158t43.5 169h-60q-17 -85 -67 -171t-111 -139q-46 -39 -66 -13t8 59q44 50 75.5 122.5t40.5 141.5h-101q-32 0 -32 47q0 46 33 46zM777 812v-429 q0 -99 -91 -99h-26v224h-56v-122q0 -92 -83 -92h-25v395q0 29 -6.5 37.5t-20.5 12.5q-24 6 -36 12.5t-12 22.5q0 33 42 33h89q52 0 52 -43v-164h56v140q0 26 -4.5 33.5t-19.5 11.5q-25 5 -36.5 12t-11.5 24q0 39 46 39h90q53 0 53 -48zM428 190q-6 -42 -27 -84l95 -83 q6 9 12 19q47 82 61 151q2 4 -3 7t-14 6q-13 4 -22.5 10.5t-9.5 20.5q0 34 39 34h76q42 0 53.5 -19.5t9.5 -50.5q-6 -50 -30 -100l129 -116q23 -19 25 -39.5t-11 -36.5t-36 -18t-46 22l-107 114q-7 -7 -12 -14q-76 -95 -148 -136q-53 -31 -70 -7t12 47q18 14 35 32l-82 88 q-5 -7 -11 -13q-71 -84 -157 -133q-53 -33 -71 -8.5t15 49.5q66 48 110.5 121t55.5 127q2 4 -2.5 7.5t-13.5 6.5q-17 5 -25 11t-8 22q0 31 41 31h78q40 0 50.5 -19.5t8.5 -48.5z" />
<glyph unicode="&#xae7d;" d="M47 747h365q22 0 33 -21t10 -41q-18 -132 -74.5 -231.5t-121.5 -158.5q-42 -39 -69 -18.5t-3 50.5q59 69 96.5 158t43.5 169h-60q-17 -85 -67 -171t-111 -139q-46 -39 -66 -13t8 59q44 50 75.5 122.5t40.5 141.5h-101q-32 0 -32 47q0 46 33 46zM777 812v-445 q0 -99 -91 -99h-26v240h-56v-112q0 -92 -83 -92h-25v385q0 29 -6.5 37.5t-20.5 12.5q-24 6 -36 12.5t-12 22.5q0 33 42 33h89q52 0 52 -43v-164h56v140q0 26 -4.5 33.5t-19.5 11.5q-25 5 -36.5 12t-11.5 24q0 39 46 39h90q53 0 53 -48zM295 64q0 85 63 146.5t162 61.5 q101 0 164.5 -61.5t63.5 -146.5q0 -82 -63.5 -142t-164.5 -60q-99 0 -162 60t-63 142zM624 66q0 46 -30.5 78.5t-74.5 32.5q-42 0 -71 -32.5t-29 -78.5q0 -45 29 -77t71 -32q44 0 74.5 32t30.5 77z" />
<glyph unicode="&#xae84;" horiz-adv-x="841" d="M46 618q-32 0 -32 47q0 46 33 46h413q23 0 36.5 -17t10.5 -44q-18 -157 -74 -275t-146 -211q-43 -44 -71.5 -22t-6.5 53q71 95 111.5 209.5t50.5 213.5h-69q-19 -112 -76.5 -219.5t-135.5 -176.5q-48 -48 -72 -20t2 61q54 61 100.5 165.5t56.5 189.5h-131zM697 -22 q0 -95 -92 -95h-30v853q0 29 -6.5 36t-19.5 11q-24 5 -37.5 13t-13.5 25q0 39 44 39h103q52 0 52 -43v-189h88q44 0 44 -46q0 -47 -44 -47h-88v-163h88q44 0 44 -46q0 -47 -44 -47h-88v-301z" />
<glyph unicode="&#xae85;" horiz-adv-x="841" d="M46 665q-32 0 -32 47q0 46 33 46h413q23 0 36.5 -18t10.5 -41q-15 -123 -80.5 -231t-142.5 -173q-45 -40 -71 -15.5t-1 52.5q60 70 104.5 159.5t54.5 173.5h-69q-20 -87 -80 -174.5t-130 -137.5q-52 -39 -71 -11.5t12 58.5q52 50 92 124t51 141h-130zM697 370 q0 -97 -92 -97h-30v463q0 29 -6.5 35.5t-20.5 11.5q-23 6 -36.5 13t-13.5 25q0 39 44 39h103q52 0 52 -47v-114h88q44 0 44 -46q0 -47 -44 -47h-88v-121h88q44 0 44 -46q0 -47 -44 -47h-88v-22zM190 142q-27 0 -27 47q0 46 28 46h457q42 0 42 -47v-221q0 -104 -89 -104h-36 v279h-375z" />
<glyph unicode="&#xae8c;" horiz-adv-x="841" d="M46 675q-32 0 -32 47q0 46 33 46h413q23 0 37 -17.5t11 -43.5q-19 -117 -86 -212.5t-139 -146.5q-47 -33 -72 -10.5t1 49.5q62 61 105.5 143.5t53.5 144.5h-67q-28 -84 -86 -154t-126 -115q-57 -38 -71 -8t18 58q47 40 84.5 98.5t52.5 120.5h-130zM697 437q0 -98 -92 -98 h-30v397q0 29 -6.5 36t-19.5 11q-24 5 -37.5 13t-13.5 25q0 39 44 39h103q52 0 52 -47v-99h88q44 0 44 -46q0 -47 -44 -47h-88v-90h88q44 0 44 -46q0 -47 -44 -47h-88v-1zM685 -121h-388q-57 0 -57 69v78q0 23 -7 29.5t-15 10.5q-12 3 -19.5 11t-7.5 26q0 34 27 34h347v74 h-322q-32 0 -32 47q0 46 33 46h407q40 0 40 -50v-151q0 -57 -41 -57h-284v-56q0 -19 23 -19h300q32 0 32 -45q0 -47 -36 -47z" />
<glyph unicode="&#xaebc;" horiz-adv-x="785" d="M46 618q-32 0 -32 47q0 46 33 46h417q23 0 36.5 -17t10.5 -44q-8 -73 -25 -137h108v225q0 27 -6.5 34t-20.5 11q-23 5 -37 13t-14 25q0 39 44 39h104q52 0 52 -43v-839q0 -96 -92 -96h-30v538h-137q-10 -23 -20 -45q-56 -118 -146 -211q-43 -44 -71.5 -22t-6.5 53 q71 95 112 209.5t50 213.5h-73q-19 -112 -76.5 -219.5t-135.5 -176.5q-48 -48 -72 -20t2 61q54 61 100.5 165.5t56.5 189.5h-131z" />
<glyph unicode="&#xaebd;" horiz-adv-x="785" d="M46 665q-32 0 -32 47q0 46 33 46h417q23 0 36.5 -18t10.5 -41q-8 -64 -30 -124h113v164q0 26 -6.5 33t-20.5 11q-23 5 -37 13t-14 25q0 39 44 39h103q53 0 53 -47v-445q0 -98 -92 -98h-30v212h-133q-11 0 -19 6q-6 -10 -11 -20q-65 -108 -143 -173q-45 -40 -71 -15.5 t-1 52.5q60 70 105 159.5t54 173.5h-73q-20 -87 -80 -174.5t-130 -137.5q-52 -39 -71 -11.5t12 58.5q52 50 92 124t51 141h-130zM209 142q-28 0 -28 47q0 46 29 46h457q42 0 42 -47v-221q0 -104 -89 -104h-36v279h-375z" />
<glyph unicode="&#xaebe;" horiz-adv-x="785" d="M46 665q-32 0 -32 47q0 46 33 46h417q23 0 36.5 -18t10.5 -41q-8 -64 -30 -124h113v164q0 26 -6.5 33t-20.5 11q-23 5 -37 13t-14 25q0 39 44 39h103q53 0 53 -47v-445q0 -98 -92 -98h-30v212h-133q-11 0 -19 6q-6 -10 -11 -20q-65 -108 -143 -173q-45 -40 -71 -15.5 t-1 52.5q60 70 105 159.5t54 173.5h-73q-20 -87 -80 -174.5t-130 -137.5q-52 -39 -71 -11.5t12 58.5q52 50 92 124t51 141h-130zM472 142q-26 0 -26 47q0 46 29 46h195q45 0 45 -47v-221q0 -104 -85 -104h-28v279h-130zM142 142q-27 0 -27 47q0 46 30 46h253q43 0 43 -47 v-221q0 -104 -83 -104h-29v279h-187z" />
<glyph unicode="&#xaec0;" horiz-adv-x="785" d="M46 665q-32 0 -32 47q0 46 33 46h417q23 0 36.5 -18t11.5 -43q-8 -64 -28 -122h110v164q0 26 -6.5 33t-20.5 11q-23 5 -37 13t-14 25q0 39 44 39h103q53 0 53 -46v-598q0 -96 -92 -96h-30v362h-128q-11 0 -19 5l-12 -24q-60 -108 -147 -183q-45 -39 -71 -15.5t-1 52.5 q66 73 108 168.5t51 179.5h-73q-18 -90 -77.5 -180t-132.5 -148q-50 -42 -70 -12.5t11 59.5q52 51 92 130t51 151h-130zM721 -107h-370q-101 0 -101 91v114q0 29 -7 36t-22 12q-25 7 -32.5 15t-7.5 23q0 35 39 35h104q52 0 52 -46v-164q0 -22 18 -22h331q33 0 33 -47 t-37 -47z" />
<glyph unicode="&#xaec4;" horiz-adv-x="785" d="M46 675q-32 0 -32 47q0 46 33 46h417q23 0 37 -17.5t11 -43.5q-8 -52 -26 -99h108v131q0 26 -6.5 33t-20.5 11q-23 5 -37 13t-14 25q0 39 44 39h103q53 0 53 -47v-374q0 -100 -92 -100h-30v175h-130q-12 0 -20 8q-9 -15 -17 -27q-68 -96 -140 -147q-47 -33 -72 -10.5 t1 49.5q63 61 106.5 143.5t52.5 144.5h-71q-28 -84 -86 -154t-126 -115q-57 -38 -71 -8t18 58q47 40 84.5 98.5t52.5 120.5h-130zM702 -121h-388q-57 0 -57 69v78q0 23 -6.5 29.5t-14.5 10.5q-13 3 -20 11t-7 26q0 34 27 34h347v74h-323q-32 0 -32 47q0 46 33 46h408 q40 0 40 -50v-151q0 -57 -41 -57h-285v-56q0 -19 24 -19h300q31 0 31 -45q0 -47 -36 -47z" />
<glyph unicode="&#xaecc;" horiz-adv-x="785" d="M46 665q-32 0 -32 47q0 46 33 46h417q23 0 37 -16.5t11 -44.5q-8 -62 -29 -119h111v161q0 26 -6.5 33t-20.5 11q-23 5 -37 13t-14 25q0 39 44 39h103q53 0 53 -47v-431q0 -98 -92 -98h-30v201h-132q-11 0 -19 6q-6 -11 -13 -23q-65 -105 -143 -163q-46 -36 -70 -13.5 t-1 50.5q66 72 108 159.5t51 163.5h-73q-23 -89 -81 -170.5t-129 -132.5q-52 -38 -71.5 -10.5t12.5 58.5q54 51 92.5 121t50.5 134h-130zM379 -21h208v177h-208v-177zM660 249q49 0 49 -55v-153q0 -38 -13 -63q26 -6 26 -45q0 -47 -37 -47h-333q-23 -29 -65 -29h-30v255 q0 40 -3 48.5t-15 13.5q-13 7 -21 15t-8 24q0 36 42 36h408z" />
<glyph unicode="&#xaecd;" horiz-adv-x="785" d="M46 675q-32 0 -32 47q0 46 33 46h417q23 0 36.5 -17.5t10.5 -43.5q-6 -53 -25 -104h108v136q0 26 -6.5 33t-20.5 11q-23 5 -37 13t-14 25q0 39 44 39h103q53 0 53 -47v-388q0 -98 -92 -98h-30v182h-124q-14 0 -23 9q-6 -12 -13 -23q-63 -103 -147 -167q-46 -35 -71 -12 t0 51q66 70 108 154t51 154h-73q-16 -68 -75 -151.5t-135 -137.5q-53 -36 -72.5 -7.5t11.5 55.5q53 45 93 114t52 127h-130zM377 167h212v34q0 27 -3 31t-6 5q-17 6 -27 12.5t-10 24.5q0 33 43 33h65q58 0 58 -45v-219q0 -40 -14 -65q27 -6 27 -45q0 -47 -37 -47h-336 q-22 -28 -62 -28h-30v309q0 28 -2.5 33t-5.5 6q-11 4 -23.5 10.5t-12.5 24.5q0 34 43 34h68q53 0 53 -44v-64zM589 74h-212v-95h212v95z" />
<glyph unicode="&#xaecf;" horiz-adv-x="785" d="M46 665q-32 0 -32 47q0 46 33 46h417q23 0 37 -16.5t11 -44.5q-8 -65 -31 -124h113v166q0 26 -6.5 33t-20.5 11q-23 5 -37 13t-14 25q0 39 44 39h103q53 0 53 -46v-484q0 -96 -92 -96h-30v246h-136q-12 0 -19 5q-4 -8 -9 -17q-65 -105 -143 -163q-46 -36 -70 -13.5 t-1 50.5q66 72 108 159.5t51 163.5h-73q-23 -89 -81 -170.5t-129 -132.5q-52 -38 -71.5 -10.5t12.5 58.5q54 51 92.5 121t50.5 134h-130zM550 200q-9 -35 -30 -70l213 -149q21 -13 24.5 -36t-7.5 -38q-15 -19 -38 -21t-48 19l-193 159q-16 -18 -35 -36q-92 -89 -188 -139 q-59 -32 -73 -4.5t21 52.5q83 56 139 128.5t80 129.5q4 5 -1 13.5t-20 12.5q-35 8 -31.5 35.5t35.5 27.5h79q50 0 64.5 -26.5t8.5 -57.5z" />
<glyph unicode="&#xaed0;" horiz-adv-x="785" d="M46 665q-32 0 -32 47q0 46 33 46h417q23 0 37 -16.5t11 -44.5q-8 -62 -29 -119h111v161q0 26 -6.5 33t-20.5 11q-23 5 -37 13t-14 25q0 39 44 39h103q53 0 53 -47v-431q0 -98 -92 -98h-30v201h-132q-11 0 -19 6q-6 -11 -13 -23q-65 -105 -143 -163q-46 -36 -70 -13.5 t-1 50.5q66 72 108 159.5t51 163.5h-73q-23 -89 -81 -170.5t-129 -132.5q-52 -38 -71.5 -10.5t12.5 58.5q54 51 92.5 121t50.5 134h-130zM423 190q-6 -46 -32 -93l84 -74q6 9 12 19q48 82 62 151q2 4 -3 7t-15 6q-13 4 -22 10.5t-9 20.5q0 34 39 34h75q42 0 54 -19.5 t10 -50.5q-7 -52 -33 -103l126 -113q24 -19 26 -39.5t-12 -36.5q-13 -16 -36 -18t-46 22l-104 111q-5 -6 -9 -11q-77 -95 -149 -136q-53 -31 -70 -7t13 47q17 14 35 32l-74 79l-4 -4q-71 -84 -157 -133q-53 -33 -71 -8.5t15 49.5q66 48 110.5 121t55.5 127q2 4 -2.5 7.5 t-13.5 6.5q-17 5 -25 11t-8 22q0 31 41 31h78q39 0 50 -19.5t9 -48.5z" />
<glyph unicode="&#xaed1;" horiz-adv-x="785" d="M46 665q-32 0 -32 47q0 46 33 46h417q23 0 37 -16.5t11 -44.5q-8 -62 -29 -119h111v161q0 26 -6.5 33t-20.5 11q-23 5 -37 13t-14 25q0 39 44 39h103q53 0 53 -47v-446q0 -98 -92 -98h-30v216h-132q-11 0 -19 6q-6 -11 -13 -23q-65 -105 -143 -163q-46 -36 -70 -13.5 t-1 50.5q66 72 108 159.5t51 163.5h-73q-23 -89 -81 -170.5t-129 -132.5q-52 -38 -71.5 -10.5t12.5 58.5q54 51 92.5 121t50.5 134h-130zM259 64q0 85 63 146.5t162 61.5q101 0 164.5 -61.5t63.5 -146.5q0 -82 -63.5 -142t-164.5 -60q-99 0 -162 60t-63 142zM588 66 q0 46 -30.5 78.5t-74.5 32.5q-42 0 -71 -32.5t-29 -78.5q0 -45 29 -77t71 -32q44 0 74.5 32t30.5 77z" />
<glyph unicode="&#xaed8;" d="M47 711h360q22 0 33.5 -17.5t8.5 -43.5q-9 -69 -25 -135h76v175q0 28 -5 35t-19 11q-23 6 -36 12.5t-13 21.5q0 37 42 37h88q53 0 53 -45v-723q0 -96 -86 -96h-24v479h-90q-9 0 -14 3q-9 -24 -19 -48q-55 -128 -120 -208q-37 -45 -67.5 -24.5t-11.5 52.5q54 83 92.5 199 t50.5 222h-54q-21 -118 -74 -222t-110 -173q-41 -50 -64 -25.5t-3 60.5q42 64 81.5 167.5t50.5 192.5h-102q-32 0 -32 47q0 46 33 46zM660 739q0 27 -4.5 34.5t-19.5 11.5q-25 5 -36.5 12t-11.5 24q0 39 46 39h90q53 0 53 -47v-835q0 -96 -91 -96h-26v857z" />
<glyph unicode="&#xaed9;" d="M47 747h365q22 0 33.5 -18.5t9.5 -43.5q-9 -63 -26 -120h71v125q0 28 -6.5 35t-20.5 11q-23 6 -34.5 12.5t-11.5 21.5q0 37 42 37h88q53 0 53 -45v-386q0 -96 -86 -96h-24v191h-90q-10 0 -16 5l-11 -23q-55 -103 -124 -168q-42 -40 -68.5 -19.5t-3.5 52.5q58 69 95 161 t45 175h-60q-15 -87 -67.5 -178t-110.5 -141q-46 -41 -66 -15.5t8 59.5q50 60 79.5 134.5t37.5 140.5h-102q-32 0 -32 47q0 46 33 46zM660 739q0 27 -4.5 34.5t-19.5 11.5q-25 5 -36.5 12t-11.5 24q0 39 46 39h90q53 0 53 -48v-446q0 -96 -91 -96h-26v469zM233 142 q-27 0 -27 47q0 46 28 46h489q41 0 41 -47v-221q0 -104 -89 -104h-36v279h-406z" />
<glyph unicode="&#xaedc;" d="M47 740h365q22 0 33.5 -18t9.5 -44q-9 -61 -25 -118h70v130q0 28 -6.5 35t-20.5 11q-23 6 -34.5 12.5t-11.5 21.5q0 37 42 37h88q53 0 53 -45v-526q0 -96 -86 -96h-24v326h-105q-6 -14 -13 -27q-55 -110 -123 -171q-43 -41 -69.5 -19t-2.5 52q59 70 95.5 167t44.5 179 h-60q-19 -95 -68 -186t-110 -144q-45 -40 -66 -14.5t8 59.5q51 63 80 139.5t37 145.5h-102q-32 0 -32 47q0 46 33 46zM660 739q0 27 -4.5 34.5t-19.5 11.5q-25 5 -36.5 12t-11.5 24q0 39 46 39h90q53 0 53 -48v-598q0 -96 -91 -96h-26v621zM760 -107h-401q-101 0 -101 91 v114q0 29 -7 36t-22 12q-25 7 -32.5 15t-7.5 23q0 35 39 35h104q52 0 52 -46v-164q0 -22 18 -22h362q33 0 33 -47t-37 -47z" />
<glyph unicode="&#xaee8;" d="M47 747h365q22 0 33 -21t10 -41q-8 -56 -22 -106h67v111q0 28 -6.5 35t-20.5 11q-23 6 -34.5 12.5t-11.5 21.5q0 37 42 37h88q53 0 53 -45v-371q0 -97 -86 -97h-24v192h-90q-7 0 -12 2q-8 -18 -17 -34q-57 -100 -122 -159q-42 -39 -69 -18.5t-3 50.5q59 69 96.5 158 t43.5 169h-60q-17 -85 -67 -171t-111 -139q-46 -39 -66 -13t8 59q44 50 75.5 122.5t40.5 141.5h-101q-32 0 -32 47q0 46 33 46zM660 739q0 27 -4.5 34.5t-19.5 11.5q-25 5 -36.5 12t-11.5 24q0 39 46 39h90q53 0 53 -48v-432q0 -96 -91 -96h-26v455zM404 -21h239v177h-239 v-177zM718 249q47 0 47 -55v-153q0 -38 -12 -63q25 -6 25 -45q0 -47 -37 -47h-363q-24 -29 -66 -29h-29v255q0 40 -3.5 48.5t-15.5 13.5q-12 7 -20 15t-8 24q0 36 42 36h440z" />
<glyph unicode="&#xaeeb;" d="M47 747h365q22 0 33 -21t10 -41q-9 -64 -27 -120h72v125q0 28 -6.5 35t-20.5 11q-23 6 -34.5 12.5t-11.5 21.5q0 37 42 37h88q53 0 53 -45v-356q0 -96 -86 -96h-24v161h-94q-9 0 -15 4q-5 -12 -10 -21q-57 -100 -122 -159q-42 -39 -69 -18.5t-3 50.5q59 69 96.5 158 t43.5 169h-60q-17 -85 -67 -171t-111 -139q-46 -39 -66 -13t8 59q44 50 75.5 122.5t40.5 141.5h-101q-32 0 -32 47q0 46 33 46zM660 739q0 27 -4.5 34.5t-19.5 11.5q-25 5 -36.5 12t-11.5 24q0 39 46 39h90q53 0 53 -48v-473q0 -96 -91 -96h-26v496zM570 199q-8 -33 -29 -68 l229 -151q24 -15 26 -37t-8 -37q-15 -20 -37 -21.5t-49 18.5l-210 164q-18 -18 -37 -38q-98 -91 -200 -142q-59 -30 -74 -2.5t22 52.5q84 55 145 127t87 130q4 5 -1 13.5t-19 12.5q-35 8 -32 35.5t36 27.5h79q51 0 64 -26.5t8 -57.5z" />
<glyph unicode="&#xaeed;" d="M47 747h365q22 0 33 -21t10 -41q-8 -56 -22 -106h67v111q0 28 -6.5 35t-20.5 11q-23 6 -34.5 12.5t-11.5 21.5q0 37 42 37h88q53 0 53 -45v-362q0 -96 -86 -96h-24v182h-90q-7 0 -12 2q-8 -18 -17 -34q-57 -100 -122 -159q-42 -39 -69 -18.5t-3 50.5q59 69 96.5 158 t43.5 169h-60q-17 -85 -67 -171t-111 -139q-46 -39 -66 -13t8 59q44 50 75.5 122.5t40.5 141.5h-101q-32 0 -32 47q0 46 33 46zM660 739q0 27 -4.5 34.5t-19.5 11.5q-25 5 -36.5 12t-11.5 24q0 39 46 39h90q53 0 53 -48v-448q0 -96 -91 -96h-26v471zM295 64q0 85 63 146.5 t162 61.5q101 0 164.5 -61.5t63.5 -146.5q0 -82 -63.5 -142t-164.5 -60q-99 0 -162 60t-63 142zM624 66q0 46 -30.5 78.5t-74.5 32.5q-42 0 -71 -32.5t-29 -78.5q0 -45 29 -77t71 -32q44 0 74.5 32t30.5 77z" />
<glyph unicode="&#xaef4;" horiz-adv-x="785" d="M46 618q-32 0 -32 47q0 46 33 46h417q23 0 36.5 -17t10.5 -44q-1 -14 -3 -26h86v112q0 29 -6.5 36t-20.5 11q-23 5 -37 13t-14 25q0 39 42 39h105q53 0 53 -43v-839q0 -96 -92 -96h-30v418h-122q-38 0 -38 48q0 45 38 45h122v139h-102q-21 -85 -55 -157 q-56 -118 -146 -211q-43 -44 -71.5 -22t-6.5 53q71 95 112 209.5t50 213.5h-73q-19 -112 -76.5 -219.5t-135.5 -176.5q-48 -48 -72 -20t2 61q54 61 100.5 165.5t56.5 189.5h-131z" />
<glyph unicode="&#xaef8;" horiz-adv-x="785" d="M46 665q-32 0 -32 47q0 46 33 46h417q23 0 36.5 -18t11.5 -43l-4 -25h82v64q0 29 -6.5 36t-20.5 11q-23 5 -37 13t-14 25q0 39 42 39h109q53 0 53 -46v-598q0 -96 -96 -96h-30v241h-119q-38 0 -38 47q0 45 38 45h119v127h-104q-20 -60 -51 -117q-60 -108 -147 -183 q-45 -39 -71 -15.5t-1 52.5q66 73 108 168.5t51 179.5h-73q-18 -90 -77.5 -180t-132.5 -148q-50 -42 -70 -12.5t11 59.5q52 51 92 130t51 151h-130zM721 -107h-370q-101 0 -101 91v114q0 29 -7 36t-22 12q-25 7 -32.5 15t-7.5 23q0 35 39 35h104q52 0 52 -46v-164 q0 -22 18 -22h331q33 0 33 -47t-37 -47z" />
<glyph unicode="&#xaefc;" horiz-adv-x="785" d="M46 675q-32 0 -32 47q0 46 33 46h417q23 0 37 -17.5t11 -43.5q-2 -10 -3 -19h85v48q0 29 -6.5 36t-20.5 11q-23 5 -37 13t-14 25q0 39 42 39h105q53 0 53 -47v-374q0 -100 -92 -100h-30v78h-119q-38 0 -38 47q0 45 38 45h119v86h-113q-21 -53 -54 -100q-68 -96 -140 -147 q-47 -33 -72 -10.5t1 49.5q63 61 106.5 143.5t52.5 144.5h-71q-28 -84 -86 -154t-126 -115q-57 -38 -71 -8t18 58q47 40 84.5 98.5t52.5 120.5h-130zM702 -121h-388q-57 0 -57 69v78q0 23 -6.5 29.5t-14.5 10.5q-13 3 -20 11t-7 26q0 34 27 34h347v74h-323q-32 0 -32 47 q0 46 33 46h408q40 0 40 -50v-151q0 -57 -41 -57h-285v-56q0 -19 24 -19h300q31 0 31 -45q0 -47 -36 -47z" />
<glyph unicode="&#xaf07;" horiz-adv-x="785" d="M46 665q-32 0 -32 47q0 46 33 46h417q23 0 37 -16.5t11 -44.5l-2 -15h84v54q0 29 -6.5 36t-20.5 11q-23 5 -37 13t-14 25q0 39 42 39h106q52 0 52 -47v-481q0 -98 -92 -98h-30v158h-119q-38 0 -38 47q0 45 38 45h119v106h-107q-21 -63 -57 -122q-65 -105 -143 -163 q-46 -36 -70 -13.5t-1 50.5q66 72 108 159.5t51 163.5h-73q-23 -89 -81 -170.5t-129 -132.5q-52 -38 -71.5 -10.5t12.5 58.5q54 51 92.5 121t50.5 134h-130zM550 200q-9 -35 -30 -70l213 -149q21 -13 24.5 -36t-7.5 -38q-15 -19 -38 -21t-48 19l-193 159q-16 -18 -35 -36 q-92 -89 -188 -139q-59 -32 -73 -4.5t21 52.5q83 56 139 128.5t80 129.5q4 5 -1 13.5t-20 12.5q-35 8 -31.5 35.5t35.5 27.5h79q50 0 64.5 -26.5t8.5 -57.5z" />
<glyph unicode="&#xaf08;" horiz-adv-x="785" d="M46 665q-32 0 -32 47q0 46 33 46h417q23 0 37 -16.5t11 -44.5l-2 -15h84v54q0 29 -6.5 36t-20.5 11q-23 5 -37 13t-14 25q0 39 42 39h105q53 0 53 -47v-431q0 -98 -92 -98h-30v108h-119q-38 0 -38 47q0 45 38 45h119v106h-107q-21 -63 -57 -122q-65 -105 -143 -163 q-46 -36 -70 -13.5t-1 50.5q66 72 108 159.5t51 163.5h-73q-23 -89 -81 -170.5t-129 -132.5q-52 -38 -71.5 -10.5t12.5 58.5q54 51 92.5 121t50.5 134h-130zM423 190q-6 -46 -32 -93l84 -74q6 9 12 19q48 82 62 151q2 4 -3 7t-15 6q-13 4 -22 10.5t-9 20.5q0 34 39 34h75 q42 0 54 -19.5t10 -50.5q-7 -52 -33 -103l126 -113q24 -19 26 -39.5t-12 -36.5q-13 -16 -36 -18t-46 22l-104 111q-5 -6 -9 -11q-77 -95 -149 -136q-53 -31 -70 -7t13 47q17 14 35 32l-74 79l-4 -4q-71 -84 -157 -133q-53 -33 -71 -8.5t15 49.5q66 48 110.5 121t55.5 127 q2 4 -2.5 7.5t-13.5 6.5q-17 5 -25 11t-8 22q0 31 41 31h78q39 0 50 -19.5t9 -48.5z" />
<glyph unicode="&#xaf0d;" horiz-adv-x="785" d="M46 675q-32 0 -32 47q0 46 33 46h417q23 0 37 -17.5t11 -43.5q-2 -10 -3 -19h85v48q0 29 -6.5 36t-20.5 11q-23 5 -37 13t-14 25q0 39 42 39h105q53 0 53 -47v-374q0 -100 -92 -100h-30v78h-119q-38 0 -38 47q0 45 38 45h119v86h-113q-21 -53 -54 -100q-68 -96 -140 -147 q-47 -33 -72 -10.5t1 49.5q63 61 106.5 143.5t52.5 144.5h-71q-28 -84 -86 -154t-126 -115q-57 -38 -71 -8t18 58q47 40 84.5 98.5t52.5 120.5h-130zM672 137q37 0 37 -45q0 -46 -37 -46h-292v-51q0 -24 24 -24h290q32 0 32 -45q0 -47 -37 -47h-366q-66 0 -66 69v223 q0 36 -3 44.5t-17 13.5q-14 7 -20 15t-6 25q0 35 28 35h444q35 0 35 -48q0 -45 -32 -45h-306v-74h292z" />
<glyph unicode="&#xaf10;" d="M47 711h360q22 0 33.5 -17.5t8.5 -43.5q-3 -19 -6 -37h60v76q0 29 -6.5 36t-20.5 11q-23 6 -34.5 12.5t-11.5 21.5q0 37 42 37h87q53 0 53 -45v-723q0 -96 -88 -96h-21v359h-78q-38 0 -38 47q0 46 38 46h78v126h-78q-18 -74 -48 -144q-55 -128 -120 -208 q-37 -45 -67.5 -24.5t-11.5 52.5q54 83 92.5 199t50.5 222h-54q-21 -118 -74 -222t-110 -173q-41 -50 -64 -25.5t-3 60.5q42 64 81.5 167.5t50.5 192.5h-102q-32 0 -32 47q0 46 33 46zM777 813v-835q0 -96 -93 -96h-24v857q0 27 -4.5 34.5t-19.5 11.5q-25 5 -36.5 12 t-11.5 24q0 39 46 39h90q53 0 53 -47z" />
<glyph unicode="&#xaf2c;" d="M106 660q-32 0 -32 47q0 46 36 46h231q49 0 49 -64q-1 -99 -22 -240h81q53 0 53 -43v-273h277q37 0 37 -51q0 -45 -37 -45h-735q-32 0 -32 45q0 51 32 51h335v204q0 27 -5 34t-17 11h-1q-16 -94 -32 -128q-9 -18 -26 -28t-42 0q-15 7 -18.5 21t-0.5 31q14 70 22 180.5 t8 201.5h-161zM430 660q-31 0 -31 47q0 46 35 46h213q51 0 51 -55q0 -92 -16 -239t-39 -205q-7 -19 -25 -28.5t-40 0.5q-15 5 -20.5 16.5t-2.5 34.5q15 66 15 191.5t-2 191.5h-138z" />
<glyph unicode="&#xaf2d;" d="M106 716q-32 0 -32 47q0 46 36 46h230q50 0 49 -63q0 -79 -22 -161q-1 -3 -1 -5h83q53 0 53 -50v-125h277q37 0 37 -49q0 -45 -37 -45h-735q-32 0 -32 45q0 49 32 49h335v63q0 24 -4 32.5t-18 13.5q-6 3 -11 5q-11 -33 -22 -54q-10 -17 -28 -27t-38 0q-17 7 -22 22t1 31 q10 30 20 92.5t10 132.5h-161zM430 716q-31 0 -31 47q0 46 35 46h213q51 0 51 -58q0 -49 -13 -140t-34 -146q-8 -21 -25.5 -28.5t-34.5 0.5q-18 6 -23.5 18t-3.5 31q8 71 6.5 118t-2.5 112h-138zM155 140q-28 0 -28 47q0 46 29 46h470q42 0 42 -47v-219q0 -104 -89 -104h-36 v277h-388z" />
<glyph unicode="&#xaf30;" d="M106 698q-32 0 -32 47q0 46 36 46h230q50 0 49 -64q0 -86 -23 -176q-1 -4 -2 -7h85q53 0 53 -50v-139h277q37 0 37 -49q0 -45 -37 -45h-735q-32 0 -32 45q0 49 32 49h335v78q0 23 -4 31.5t-18 14.5q-6 2 -12 5q-12 -38 -23 -58q-11 -17 -27.5 -26t-38.5 -1 q-18 6 -22 20.5t0 29.5q15 44 24 108t9 141h-161zM430 698q-31 0 -31 47q0 46 35 46h213q51 0 51 -58q0 -50 -13 -150.5t-36 -156.5q-8 -19 -24.5 -26.5t-36.5 -1.5q-17 6 -23 16t-4 34q11 83 9.5 133.5t-2.5 116.5h-138zM655 -107h-383q-101 0 -101 91v107q0 29 -8 36.5 t-21 11.5q-26 7 -34 14.5t-8 23.5q0 34 40 34h104q53 0 53 -45v-157q0 -22 18 -22h343q33 0 33 -47t-36 -47z" />
<glyph unicode="&#xaf32;" d="M106 723q-32 0 -32 47t36 47h230q50 0 49 -64q0 -79 -20 -150h80q53 0 53 -51v-122h277q37 0 37 -49q0 -45 -37 -45h-735q-32 0 -32 45q0 49 32 49h335v61q0 23 -4 32t-18 14q-5 2 -9 3q-12 -32 -25 -53q-9 -15 -28 -26t-39 -2q-18 7 -21.5 22t2.5 32q14 39 22 94.5 t8 115.5h-161zM430 723q-31 0 -31 47t35 47h213q51 0 51 -59q0 -49 -13 -132.5t-34 -137.5q-8 -22 -26.5 -29t-35.5 0q-17 5 -22 15.5t-4 34.5q8 75 7 113t-2 101h-138zM387 -121h-143q-110 0 -110 91v175q0 29 -7 35.5t-22 11.5q-25 7 -34 15t-9 26q0 37 39 37h95 q53 0 53 -47v-229q0 -21 18 -21h129q-7 21 -7 45q0 39 19 68h-41q-37 0 -37 40q0 43 37 43h373q38 0 38 -43q0 -40 -38 -40h-31q18 -29 18 -68q0 -63 -47 -108t-123 -45q-75 0 -121 45q-5 4 -8 8q-3 -39 -41 -39zM456 231l-29 24q-12 13 -13.5 26t8.5 25q13 15 29 12.5 t29 -8.5q40 -19 69.5 -22.5t82.5 -3.5q43 0 43 -43q0 -20 -13 -30.5t-36 -10.5l-81 1q-52 0 -89 30zM620 18q0 27 -18.5 47t-45.5 20q-25 0 -42 -20t-17 -47t17 -46.5t42 -19.5q27 0 45.5 19.5t18.5 46.5z" />
<glyph unicode="&#xaf34;" d="M108 724q-33 0 -33 46q0 47 36 47h230q50 0 49 -64q0 -72 -21 -139h80q53 0 53 -50v-111h277q37 0 37 -48q0 -45 -37 -45h-735q-32 0 -32 45q0 48 32 48h335v49q0 24 -4 32.5t-18 13.5q-5 2 -11 4q-11 -26 -22 -43q-13 -18 -30.5 -26t-35.5 -2q-17 5 -21.5 21t1.5 33 q14 38 22 87.5t8 101.5h-160zM430 724q-31 0 -31 46q0 47 35 47h214q51 0 51 -58q0 -65 -13 -135t-34 -115q-8 -18 -24 -27.5t-36 -1.5q-18 5 -23.5 17t-4.5 34q9 68 7.5 102.5t-2.5 90.5h-139zM174 210q-32 0 -32 44q0 47 33 47h460q39 0 39 -49v-149q0 -57 -40 -57h-339 v-56q0 -19 23 -19h355q32 0 32 -47q0 -45 -35 -45h-431q-68 0 -68 79v67q0 24 -5 30t-16 9q-11 6 -20 12.5t-9 25.5q0 35 27 35h402v73h-376z" />
<glyph unicode="&#xaf3c;" d="M106 716q-32 0 -32 47q0 46 36 46h230q50 0 49 -63q0 -72 -21 -154l-2 -6h83q53 0 53 -50v-126h277q37 0 37 -49q0 -45 -37 -45h-735q-32 0 -32 45q0 49 32 49h335v65q0 23 -4 31.5t-18 14.5l-10 4q-11 -34 -23 -56q-10 -17 -27 -26t-38 -2q-16 7 -21.5 21.5t-0.5 32.5 q16 43 23 99.5t7 121.5h-161zM430 716q-31 0 -31 47q0 46 35 46h213q51 0 51 -58q0 -49 -13 -137.5t-34 -143.5q-8 -21 -26 -29t-38 1q-12 4 -18.5 15.5t-5.5 34.5q9 75 7.5 118t-2.5 106h-138zM294 -21h256v172h-256v-172zM624 244q47 0 47 -54v-149q0 -38 -13 -63 q26 -6 26 -45q0 -47 -36 -47h-381q-23 -29 -65 -29h-29v251q0 39 -3 47.5t-15 13.5q-13 7 -21 15t-8 24q0 36 42 36h456z" />
<glyph unicode="&#xaf3d;" d="M106 723q-32 0 -32 47t36 47h230q50 0 49 -64q0 -79 -20 -150h80q53 0 53 -51v-122h277q37 0 37 -49q0 -45 -37 -45h-735q-32 0 -32 45q0 49 32 49h335v61q0 23 -4 32t-18 14q-5 2 -9 3q-12 -32 -25 -53q-9 -15 -28 -26t-39 -2q-18 7 -21.5 22t2.5 32q14 39 22 94.5 t8 115.5h-161zM430 723q-31 0 -31 47t35 47h213q51 0 51 -59q0 -49 -13 -132.5t-34 -137.5q-8 -22 -26.5 -29t-35.5 0q-17 5 -22 15.5t-4 34.5q8 75 7 113t-2 101h-138zM648 -114h-384q-22 -28 -62 -28h-29v322q0 27 -2.5 32t-5.5 7q-11 4 -23.5 10t-12.5 24q0 34 43 34h67 q53 0 53 -44v-76h260v30q0 27 -3 31t-6 5q-17 6 -27 12.5t-10 24.5q0 32 43 32h64q58 0 58 -45v-213q0 -39 -14 -66q27 -5 27 -45q0 -47 -36 -47zM292 -21h260v95h-260v-95z" />
<glyph unicode="&#xaf3f;" d="M106 716q-32 0 -32 47q0 46 36 46h230q50 0 49 -63q0 -72 -21 -153v-2h81q53 0 53 -50v-131h277q37 0 37 -49q0 -45 -37 -45h-735q-32 0 -32 45q0 49 32 49h335v70q0 23 -4 32t-18 14q-4 2 -9 3q-12 -36 -24 -60q-9 -16 -26 -25.5t-40 -2.5q-18 7 -22.5 22t1.5 32 q15 43 22.5 99.5t7.5 121.5h-161zM430 716q-31 0 -31 47q0 46 35 46h213q51 0 51 -58q0 -49 -13 -137.5t-34 -143.5q-8 -21 -26 -28.5t-35 0.5q-19 7 -23.5 18t-2.5 31q8 76 6.5 119t-2.5 106h-138zM494 193q-9 -37 -38 -79l242 -137q27 -13 29.5 -37t-10.5 -40 q-12 -16 -33 -18.5t-50 16.5l-227 156l-22 -22q-93 -89 -200 -146q-53 -31 -70.5 -3t12.5 49q85 56 149 131.5t82 123.5q4 6 -2 15t-20 12q-33 8 -30 35.5t36 27.5h79q51 0 65 -26.5t8 -57.5z" />
<glyph unicode="&#xaf41;" d="M106 716q-32 0 -32 47q0 46 36 46h230q50 0 49 -63q0 -72 -21 -153q-1 -3 -1 -6h82q53 0 53 -50v-125h277q37 0 37 -48q0 -45 -37 -45h-735q-32 0 -32 45q0 48 32 48h335v64q0 23 -4 32t-18 14l-10 4q-11 -34 -23 -57q-9 -16 -26 -25.5t-40 -2.5q-18 7 -22.5 22t1.5 32 q15 43 22.5 99.5t7.5 121.5h-161zM430 716q-31 0 -31 47q0 46 35 46h213q51 0 51 -58q0 -49 -13 -137.5t-34 -143.5q-8 -21 -26 -28.5t-35 0.5q-19 7 -23.5 18t-2.5 31q8 76 6.5 119t-2.5 106h-138zM178 66q0 84 67 145t168 61t168.5 -61t67.5 -145q0 -83 -67.5 -143.5 t-168.5 -60.5t-168 60.5t-67 143.5zM525 66q0 46 -32.5 78.5t-80.5 32.5q-46 0 -78 -32.5t-32 -78.5q0 -45 32 -77t78 -32q48 0 80.5 32t32.5 77z" />
<glyph unicode="&#xaf42;" d="M106 716q-32 0 -32 47q0 46 36 46h230q50 0 49 -63q0 -72 -21 -154l-2 -6h83q53 0 53 -50v-126h277q37 0 37 -49q0 -45 -37 -45h-735q-32 0 -32 45q0 49 32 49h335v65q0 23 -4 31.5t-18 14.5l-10 4q-11 -34 -23 -56q-10 -17 -27 -26t-38 -2q-16 7 -21.5 21.5t-0.5 32.5 q16 43 23 99.5t7 121.5h-161zM430 716q-31 0 -31 47q0 46 35 46h213q51 0 51 -58q0 -49 -13 -137.5t-34 -143.5q-8 -21 -26 -29t-38 1q-12 4 -18.5 15.5t-5.5 34.5q9 75 7.5 118t-2.5 106h-138zM183 151q-29 0 -29 47q0 46 32 46h403q36 0 53.5 -24t8.5 -58 q-21 -54 -119 -120l180 -67q52 -20 31.5 -67t-94.5 -11l-202 93q-134 -74 -280 -110q-53 -14 -63 15.5t33 44.5q84 29 190.5 93.5t162.5 117.5h-307z" />
<glyph unicode="&#xaf43;" d="M108 724q-33 0 -33 46q0 47 36 47h230q50 0 49 -64q0 -72 -21 -139h80q53 0 53 -50v-111h277q37 0 37 -48q0 -45 -37 -45h-735q-32 0 -32 45q0 48 32 48h335v49q0 24 -4 32.5t-18 13.5q-5 2 -11 4q-11 -26 -22 -43q-13 -18 -30.5 -26t-35.5 -2q-17 5 -21.5 21t1.5 33 q14 38 22 87.5t8 101.5h-160zM430 724q-31 0 -31 46q0 47 35 47h214q51 0 51 -58q0 -65 -13 -135t-34 -115q-8 -18 -24 -27.5t-36 -1.5q-18 5 -23.5 17t-4.5 34q9 68 7.5 102.5t-2.5 90.5h-139zM183 100q-28 0 -28 43t32 43h411q38 0 53 -26t-1 -52q-27 -46 -103 -91 l162 -47q30 -10 37.5 -29.5t-1.5 -37.5q-8 -16 -26 -23t-47 5l-226 81q-117 -53 -249 -85q-81 -20 -89 10t40 45q112 35 200 85t128 79h-293zM290 249l-29 25q-12 12 -14 23.5t6 22.5q11 15 29 14t37 -11q33 -17 94 -19.5t114 -2.5q43 -2 43 -42q0 -20 -13 -30t-33 -10 l-136 1q-62 0 -98 29z" />
<glyph unicode="&#xaf48;" horiz-adv-x="841" d="M42 633q-32 0 -32 47q0 46 39 46h165q39 0 48 -31q5 31 36 31h164q53 0 53 -55q0 -89 -13.5 -196.5t-33.5 -166.5q-5 -16 -21.5 -27t-37.5 -3q-16 5 -21 17t-4 33q10 76 7 152.5t-4 152.5h-95q-20 0 -27 20q-2 -89 -19 -184h60q54 0 54 -51v-215q38 0 66 1q40 1 82 9 q58 13 67 -14v536q0 30 -8 37.5t-22 11.5q-21 6 -34 13t-13 24q0 39 45 39h102q52 0 52 -42v-319h100q32 0 32 -48t-32 -48h-100v-428q0 -92 -92 -92h-30v286q-4 -10 -14 -17q-29 -18 -91.5 -30t-154.5 -12h-279q-32 0 -32 47q0 46 32 46h203v151q0 29 -2 38q-3 4 -6 7 q-14 -61 -27 -92q-7 -18 -26 -28t-40 -2q-14 7 -18 21.5t-1 31.5q11 47 16 132.5t3 170.5h-96z" />
<glyph unicode="&#xaf49;" horiz-adv-x="841" d="M47 700q-32 0 -32 47q0 46 39 46h165q39 0 48 -32q5 32 36 32h164q53 0 53 -55q0 -89 -14 -168t-33 -125q-7 -19 -22 -28t-35 -1q-17 5 -22.5 17.5t-3.5 31.5q8 77 5.5 127.5t-3.5 107.5h-95q-19 0 -27 19q-2 -74 -19 -146l-4 -17h65q55 0 55 -50v-147q33 0 58 1 q40 1 82 9q60 12 68 -16v383q0 29 -6.5 36t-19.5 11q-24 5 -37.5 13t-13.5 25q0 39 44 39h103q52 0 52 -42v-242h100q32 0 32 -48t-32 -48h-100v-162q0 -92 -92 -92h-30v102q-3 -12 -15 -20q-29 -19 -91.5 -30.5t-155.5 -11.5h-277q-32 0 -32 47q0 46 32 46h209v83 q0 30 -3.5 38t-15.5 11q-9 -27 -19 -46q-8 -18 -24 -26.5t-38 -2.5q-13 5 -19 19.5t-2 32.5q12 44 16.5 106t2.5 126h-96zM213 108q-28 0 -28 47q0 46 29 46h435q42 0 42 -47v-187q0 -104 -89 -104h-36v245h-353z" />
<glyph unicode="&#xaf50;" horiz-adv-x="841" d="M47 704q-32 0 -32 46t39 46h165q39 0 48 -32q5 32 36 32h164q53 0 53 -55q0 -80 -14 -155.5t-33 -114.5q-8 -18 -24.5 -26.5t-34.5 -1.5q-17 5 -21.5 17t-2.5 32q8 77 5.5 116.5t-3.5 95.5h-95q-19 0 -27 19q-2 -67 -20 -135q-2 -6 -3 -11h65q55 0 55 -50v-117q33 0 58 1 q40 1 82 9q60 13 68 -16v332q0 29 -6.5 36t-19.5 11q-24 5 -37.5 13t-13.5 25q0 39 44 39h103q52 0 52 -42v-211h100q32 0 32 -49q0 -48 -32 -48h-100v-120q0 -93 -92 -93h-30v82q-3 -12 -15 -20q-29 -19 -91.5 -30.5t-155.5 -11.5h-277q-32 0 -32 47q0 46 32 46h209v52 q0 31 -5 39q-6 6 -15 9q-9 -22 -18 -39q-9 -16 -24.5 -25t-37.5 -3q-13 5 -19 19.5t-2 32.5q12 44 16.5 97.5t2.5 111.5h-96zM685 -121h-398q-58 0 -58 69v62q0 22 -6.5 28.5t-14.5 11.5q-12 3 -19.5 11t-7.5 25q0 34 27 34h359v59h-335q-31 0 -31 46q0 45 32 45h418 q40 0 40 -49v-134q0 -56 -41 -56h-297v-41q0 -19 24 -19h312q32 0 32 -45q0 -47 -36 -47z" />
<glyph unicode="&#xaf5c;" horiz-adv-x="841" d="M47 700q-32 0 -32 47q0 46 39 46h165q39 0 48 -32q5 32 36 32h164q53 0 53 -55q0 -89 -14 -163t-33 -120q-7 -18 -22 -27.5t-35 -1.5q-17 6 -22.5 18t-3.5 32q8 76 5.5 121.5t-3.5 102.5h-95q-19 0 -27 19q-2 -74 -19 -141v-1h61q55 0 55 -50v-148q33 0 58 1q40 1 82 10 q60 12 68 -17v363q0 29 -6.5 36t-19.5 11q-24 5 -37.5 13t-13.5 25q0 39 44 39h103q52 0 52 -42v-232h100q32 0 32 -48t-32 -48h-100v-152q0 -92 -92 -92h-30v103q-3 -13 -15 -21q-29 -18 -91.5 -30t-155.5 -12h-277q-32 0 -32 47q0 46 32 46h209v83q0 31 -3 39q-3 6 -12 9 q-11 -31 -23 -55q-8 -17 -24 -26t-38 -3q-13 6 -19 20t-2 33q12 44 16.5 100.5t2.5 120.5h-96zM389 169q-3 -35 -21 -72l82 -67q43 67 62 136q2 3 -3 6.5t-14 6.5q-13 4 -21.5 11t-8.5 21q0 32 39 32h71q42 0 54.5 -19.5t9.5 -50.5q-6 -38 -26 -78l129 -105 q24 -18 26.5 -39.5t-13.5 -39.5q-19 -20 -41.5 -20t-41.5 20l-107 110l-10 -12q-73 -85 -140 -132q-21 -13 -36 -13t-29 13q-7 9 -7 18.5t12 21.5q18 14 36 34l-72 75l-7 -7q-69 -78 -143 -129q-27 -19 -41 -14t-24 17q-4 10 -3 20.5t15 21.5q45 36 88.5 100t56.5 123 q2 4 -2.5 7.5t-13.5 6.5q-16 6 -23.5 12t-7.5 21q0 32 42 32h74q40 0 50 -20t9 -48z" />
<glyph unicode="&#xaf5d;" horiz-adv-x="841" d="M47 700q-32 0 -32 47q0 46 39 46h165q39 0 48 -32q5 32 36 32h164q53 0 53 -55q0 -89 -14 -163t-33 -120q-7 -18 -22 -27.5t-35 -1.5q-17 6 -22.5 18t-3.5 32q8 76 5.5 121.5t-3.5 102.5h-95q-19 0 -27 19q-2 -74 -19 -141v-1h61q55 0 55 -50v-148q33 0 58 1q40 1 82 10 q60 12 68 -17v363q0 29 -6.5 36t-19.5 11q-24 5 -37.5 13t-13.5 25q0 39 44 39h103q52 0 52 -42v-232h100q32 0 32 -48t-32 -48h-100v-172q0 -92 -92 -92h-30v123q-3 -13 -15 -21q-29 -18 -91.5 -30t-155.5 -12h-277q-32 0 -32 47q0 46 32 46h209v83q0 31 -3 39q-3 6 -12 9 q-11 -31 -23 -55q-8 -17 -24 -26t-38 -3q-13 6 -19 20t-2 33q12 44 16.5 100.5t2.5 120.5h-96zM468 -138q-93 0 -157 55.5t-64 131.5q0 78 64 135t157 57q94 0 158.5 -57t64.5 -135q0 -76 -64.5 -131.5t-158.5 -55.5zM567 51q0 38 -28.5 66.5t-71.5 28.5q-41 0 -68.5 -28.5 t-27.5 -66.5t27.5 -66t68.5 -28q43 0 71.5 28t28.5 66z" />
<glyph unicode="&#xaf64;" d="M33 627q-32 0 -32 47q0 46 39 46h146q40 0 50 -31q5 31 36 31h128q56 0 56 -55q0 -89 -13 -188t-34 -155q-8 -18 -22 -27.5t-33 -2.5q-15 5 -20 16.5t-2 32.5q8 57 8 125t-2 161h-73q-19 0 -26 20q-2 -90 -21 -178h47q53 -2 53 -52v-213h23q40 1 82 9q60 13 69 -16v492 q0 29 -6.5 36t-20.5 11q-24 6 -34 13t-10 22q0 36 42 36h86q53 0 53 -43v-287h58v263q0 26 -4.5 33.5t-19.5 11.5q-25 5 -36.5 12t-11.5 24q0 39 46 39h90q53 0 53 -47v-835q0 -96 -93 -96h-24v502h-58v-349q0 -92 -86 -92h-24v229q-4 -12 -16 -20q-29 -18 -91.5 -30 t-156.5 -12h-191q-33 0 -33 47q0 46 32 46h173v153q0 23 -3 35q-1 5 -4 8q-14 -50 -26 -78q-7 -17 -22.5 -26t-34.5 -2q-16 5 -20.5 17.5t-0.5 33.5q13 49 19.5 126t3.5 157h-88z" />
<glyph unicode="&#xaf65;" d="M33 674q-32 0 -32 47q0 46 39 46h146q40 0 50 -31q5 31 36 31h128q17 0 28 -5q-1 4 -1 9q0 36 42 36h87q52 0 52 -43v-199h52v175q0 26 -4.5 33.5t-19.5 11.5q-25 5 -36.5 12t-11.5 24q0 39 46 39h90q53 0 53 -48v-480q0 -96 -93 -96h-24v236h-52v-134q0 -92 -86 -92h-24 v77q-3 -12 -16 -21q-28 -18 -91 -29.5t-157 -11.5h-197q-33 0 -33 47q0 46 32 46h173v105q0 27 -4 35l-2 2q-15 -42 -28 -67q-8 -15 -24 -24.5t-33 -2.5q-17 5 -20 20t0 31q12 41 17 102t3 119h-85zM450 743q6 -12 6 -31q0 -89 -14.5 -165t-33.5 -119q-8 -15 -22 -24.5 t-36 -2.5q-14 6 -17.5 19.5t-1.5 30.5q8 45 6.5 93t-2.5 130h-70q-19 0 -26 20q-2 -69 -16 -126h40q53 0 53 -51v-163q17 1 31 1q40 1 82 9q60 12 69 -16v341q0 29 -6.5 36t-20.5 11q-12 3 -21 7zM256 108q-28 0 -28 47q0 46 29 46h466q42 0 42 -47v-187q0 -104 -89 -104 h-36v245h-384z" />
<glyph unicode="&#xaf79;" d="M33 674q-32 0 -32 47q0 46 39 46h146q40 0 50 -31q5 31 36 31h128q17 0 28 -5q-1 4 -1 9q0 36 42 36h87q52 0 52 -43v-189h52v165q0 26 -4.5 33.5t-19.5 11.5q-25 5 -36.5 12t-11.5 24q0 39 46 39h90q53 0 53 -48v-485q0 -96 -93 -96h-24v252h-52v-114q0 -92 -86 -92h-24 v46q-3 -12 -16 -21q-28 -18 -91 -29.5t-157 -11.5h-197q-33 0 -33 47q0 46 32 46h173v105q0 27 -4 35q-1 2 -4 4q-14 -36 -26 -58q-8 -16 -24 -25.5t-33 -2.5q-17 5 -20 20t0 31q12 41 17 97t3 114h-85zM450 743q6 -12 6 -31q0 -89 -14.5 -159.5t-33.5 -113.5 q-8 -16 -22 -25.5t-36 -2.5q-14 6 -17.5 19.5t-1.5 30.5q8 45 6.5 88t-2.5 125h-70q-19 0 -26 20q-2 -71 -16 -126h40q53 0 53 -51v-163q17 1 31 1q40 1 82 9q60 12 69 -16v341q0 29 -6.5 36t-20.5 11q-12 3 -21 7zM523 -138q-93 0 -157 55.5t-64 131.5q0 78 64 135t157 57 q94 0 158.5 -57t64.5 -135q0 -76 -64.5 -131.5t-158.5 -55.5zM623 51q0 38 -29 66.5t-72 28.5q-41 0 -68.5 -28.5t-27.5 -66.5t27.5 -66t68.5 -28q43 0 72 28t29 66z" />
<glyph unicode="&#xaf80;" horiz-adv-x="785" d="M42 633q-32 0 -32 47q0 46 39 46h165q39 0 48 -31q5 31 36 31h169q53 0 53 -55q0 -89 -13 -196.5t-34 -166.5q-5 -16 -21.5 -27t-37.5 -3q-16 5 -21 17t-4 33q10 76 7 152.5t-4 152.5h-100q-20 0 -27 20q-2 -89 -19 -184h62q54 0 54 -51v-215q50 0 82 1q40 1 82 9 q59 13 68 -14v536q0 30 -8 37.5t-23 11.5q-20 6 -33.5 13t-13.5 24q0 39 42 39h106q52 0 52 -43v-842q0 -92 -92 -92h-30v286q-4 -10 -14 -17q-29 -18 -92 -30t-154 -12h-298q-32 0 -32 47q0 46 32 46h205v151q0 29 -2 38q-2 5 -8 8q-14 -62 -27 -93q-7 -18 -26 -28t-40 -2 q-14 7 -18 21.5t-1 31.5q11 47 16 132.5t3 170.5h-96z" />
<glyph unicode="&#xaf84;" horiz-adv-x="785" d="M47 679q-32 0 -32 47t39 47h165q39 0 48 -32q5 32 36 32h169q53 0 53 -56q0 -89 -14 -168t-33 -125q-7 -18 -22 -27.5t-35 -0.5q-17 5 -22.5 17t-3.5 32q8 77 5.5 127.5t-3.5 106.5h-100q-19 0 -27 20q-2 -75 -19 -147q-3 -11 -6 -21h69q55 0 55 -50v-148q44 0 74 1 q40 1 82 9q61 13 69 -16v409q0 29 -6.5 36t-20.5 11q-23 5 -37 13t-14 25q0 39 44 39h104q52 0 52 -43v-632q0 -92 -92 -92h-30v209q-3 -12 -15 -20q-29 -18 -92 -30t-155 -12h-296q-32 0 -32 47q0 46 32 46h211v83q0 31 -3.5 38.5t-15.5 10.5q-2 0 -3 1q-9 -23 -18 -42 q-8 -17 -24 -25.5t-38 -2.5q-13 5 -19 19t-2 33q12 44 16.5 106t2.5 125h-96zM710 -107h-375q-102 0 -102 93v74q0 29 -7 36t-21 12q-26 7 -33 15t-7 23q0 35 39 35h103q52 0 52 -45v-127q0 -22 19 -22h336q32 0 32 -47t-36 -47z" />
<glyph unicode="&#xaf88;" horiz-adv-x="785" d="M47 704q-32 0 -32 46t39 46h165q39 0 48 -32q5 32 36 32h169q53 0 53 -55q0 -80 -14 -155.5t-33 -114.5q-8 -18 -24.5 -26.5t-34.5 -1.5q-17 5 -21.5 17t-2.5 32q8 77 5.5 116.5t-3.5 95.5h-100q-19 0 -27 19q-2 -67 -20 -135q-2 -6 -3 -11h67q55 0 55 -50v-117 q44 0 74 1q40 1 82 9q61 13 69 -16v332q0 29 -6.5 36t-20.5 11q-23 5 -37 13t-14 25q0 39 44 39h104q52 0 52 -43v-427q0 -93 -92 -93h-30v82q-3 -12 -15 -20q-29 -19 -92 -30.5t-155 -11.5h-296q-32 0 -32 47q0 46 32 46h211v52q0 31 -3.5 38.5t-15.5 10.5q-1 0 -3 1 q-9 -23 -18 -41q-9 -16 -24.5 -25t-37.5 -3q-13 5 -19 19.5t-2 32.5q12 44 16.5 97.5t2.5 111.5h-96zM702 -121h-398q-57 0 -57 69v62q0 22 -7 28.5t-15 11.5q-12 3 -19 11t-7 25q0 34 26 34h360v59h-335q-32 0 -32 46q0 45 33 45h418q40 0 40 -49v-134q0 -56 -41 -56h-297 v-41q0 -19 23 -19h313q31 0 31 -45q0 -47 -36 -47z" />
<glyph unicode="&#xaf90;" horiz-adv-x="785" d="M47 700q-32 0 -32 47q0 46 39 46h165q39 0 48 -32q5 32 36 32h169q53 0 53 -55q0 -89 -14 -163t-33 -120q-7 -18 -22 -27.5t-35 -1.5q-17 6 -22.5 18t-3.5 32q8 76 5.5 121.5t-3.5 102.5h-100q-19 0 -27 19q-2 -74 -19 -141v-1h63q55 0 55 -50v-148q44 0 74 1q40 1 82 10 q61 12 69 -17v363q0 29 -6.5 36t-20.5 11q-23 5 -37 13t-14 25q0 39 44 39h104q52 0 52 -43v-479q0 -92 -92 -92h-30v103q-3 -13 -15 -21q-29 -18 -92 -30t-155 -12h-296q-32 0 -32 47q0 46 32 46h211v83q0 31 -3 39q-4 6 -14 9q-11 -30 -23 -55q-8 -17 -24 -26t-38 -3 q-13 6 -19 20t-2 33q12 44 16.5 100.5t2.5 120.5h-96zM369 -21h219v149h-219v-149zM662 222q47 0 47 -55v-136q0 -31 -9 -53q28 -6 28 -45q0 -47 -38 -47h-349q-23 -29 -66 -29h-28v228q0 39 -4 48t-15 13q-16 7 -22.5 15t-6.5 25q0 36 33 36h430z" />
<glyph unicode="&#xaf91;" horiz-adv-x="785" d="M47 703q-32 0 -32 47q0 46 39 46h165q39 0 48 -32q5 32 36 32h169q53 0 53 -55q0 -89 -14 -161t-33 -118q-7 -18 -23 -27.5t-36 -0.5q-17 5 -21.5 17t-2.5 32q8 77 5.5 120.5t-3.5 99.5h-100q-19 0 -27 19q-2 -74 -19 -139l-2 -6h65q55 0 55 -50v-137q44 0 74 1 q40 1 82 9q61 12 69 -17v353q0 29 -6.5 36t-20.5 11q-23 5 -37 13t-14 25q0 39 44 39h104q52 0 52 -43v-438q0 -92 -92 -92h-30v72q-3 -12 -15 -21q-29 -18 -92 -30t-155 -12h-296q-32 0 -32 47t32 47h211v72q0 31 -3.5 38.5t-15.5 10.5q-10 -27 -21 -49q-8 -17 -24 -26 t-38 -2q-13 5 -19 19t-2 33q12 44 16.5 98.5t2.5 118.5h-96zM685 -114h-347q-23 -28 -63 -28h-28v278q0 27 -2.5 32t-5.5 6q-12 5 -24 11t-12 24q0 34 43 34h66q54 0 54 -44v-49h224v8q0 27 -3 31t-6 5q-17 6 -27 12.5t-10 24.5q0 33 43 33h64q58 0 58 -45v-176 q0 -40 -14 -65q27 -6 27 -45q0 -47 -37 -47zM366 -21h224v78h-224v-78z" />
<glyph unicode="&#xaf95;" horiz-adv-x="785" d="M47 700q-32 0 -32 47q0 46 39 46h165q39 0 48 -32q5 32 36 32h169q53 0 53 -55q0 -89 -14 -163t-33 -120q-7 -18 -22 -27.5t-35 -1.5q-17 6 -22.5 18t-3.5 32q8 76 5.5 121.5t-3.5 102.5h-100q-19 0 -27 19q-2 -74 -19 -141v-1h63q55 0 55 -50v-148q44 0 74 1q40 1 82 10 q61 12 69 -17v363q0 29 -6.5 36t-20.5 11q-23 5 -37 13t-14 25q0 39 44 39h104q52 0 52 -43v-499q0 -92 -92 -92h-30v123q-3 -13 -15 -21q-29 -18 -92 -30t-155 -12h-296q-32 0 -32 47q0 46 32 46h211v83q0 31 -3 39q-4 6 -14 9q-11 -30 -23 -55q-8 -17 -24 -26t-38 -3 q-13 6 -19 20t-2 33q12 44 16.5 100.5t2.5 120.5h-96zM485 -138q-93 0 -157 55.5t-64 131.5q0 78 64 135t157 57q95 0 159.5 -57t64.5 -135q0 -76 -64.5 -131.5t-159.5 -55.5zM585 51q0 38 -29 66.5t-72 28.5q-41 0 -68.5 -28.5t-27.5 -66.5t27.5 -66t68.5 -28q43 0 72 28 t29 66z" />
<glyph unicode="&#xaf9c;" d="M106 660q-32 0 -32 47q0 46 36 46h230q50 0 49 -63q0 -92 -33 -220q-9 -31 -17 -59q46 -2 46 -37v-243h65v185q0 29 -4.5 35t-14.5 10q-13 5 -22 11.5t-9 20.5q0 33 53 33h51q57 0 57 -47v-82q0 4 1 10q16 75 14 181t-3 172h-143q-31 0 -31 47q0 46 35 46h218 q51 0 51 -55q0 -92 -17 -225t-40 -188q-6 -15 -21 -26.5t-41 -2.5q-17 6 -21 18q-1 4 -2 9v-152h218q37 0 37 -46q0 -47 -37 -47h-735q-32 0 -32 47q0 46 32 46h229v140q-8 -8 -17 -13q-17 -9 -38 -2q-13 7 -18 19.5t3 34.5q29 70 46.5 173.5t17.5 176.5h-161z" />
<glyph unicode="&#xafb8;" d="M106 706q-32 0 -32 47q0 46 36 46h230q50 0 49 -63q0 -68 -13.5 -173.5t-33.5 -148.5q-8 -17 -25 -27t-38 -3q-15 7 -20.5 20t-3.5 33q14 71 13 122.5t-1 146.5h-161zM430 706q-31 0 -31 47q0 46 35 46h213q51 0 51 -58q0 -49 -13 -160.5t-36 -166.5q-7 -18 -23.5 -28 t-38.5 -1q-18 7 -22.5 18.5t-3.5 32.5q9 83 9 146t-2 124h-138zM477 262v-277q0 -103 -89 -103h-36v380h-308q-32 0 -32 47q0 46 32 46h736q36 0 36 -46q0 -47 -36 -47h-303z" />
<glyph unicode="&#xafb9;" d="M106 716q-32 0 -32 47q0 46 36 46h230q50 0 49 -63q0 -78 -12 -173q-8 -65 -21 -105h209q8 69 6 123q-2 60 -3 125h-138q-31 0 -31 47q0 46 35 46h213q51 0 51 -57q0 -71 -13 -167q-9 -70 -22 -117h117q36 0 36 -46q0 -47 -36 -47h-303v-70q0 -46 -14 -72h163 q42 0 42 -47v-219q0 -104 -89 -104h-36v277h-388q-28 0 -28 47q0 46 29 46h196v142h-308q-32 0 -32 47q0 46 32 46h215q12 58 10 105q-2 51 -2 143h-161z" />
<glyph unicode="&#xafbc;" d="M106 698q-32 0 -32 47q0 46 36 46h230q50 0 49 -64q0 -67 -12 -167q-10 -85 -28 -133h213v5q11 83 9 141.5t-3 124.5h-138q-31 0 -31 47q0 46 35 46h213q51 0 51 -57q0 -63 -13 -165q-12 -89 -30 -142h124q37 0 37 -46q0 -47 -37 -47h-286v-138q0 -107 -94 -107h-31v245 h-324q-32 0 -32 47q0 46 32 46h210q1 3 1 7q13 53 12.5 112.5t-0.5 151.5h-161zM655 -107h-383q-101 0 -101 91v127q0 30 -8 37t-21 11q-26 7 -34 15t-8 23q0 35 40 35h104q53 0 53 -45v-178q0 -22 18 -22h343q33 0 33 -47t-36 -47z" />
<glyph unicode="&#xafc0;" d="M106 724q-32 0 -32 46q0 47 36 47h230q50 0 49 -64q0 -78 -12 -153q-10 -64 -28 -104h214v9q7 59 6.5 113.5t-0.5 105.5h-138q-32 0 -32 46q0 47 35 47h213q51 0 51 -57q0 -63 -13 -142q-12 -71 -30 -122h125q36 0 36 -46q0 -47 -36 -47h-303v-37q0 -32 -7 -54h165 q39 0 39 -48v-156q0 -56 -40 -56h-339v-61q0 -20 23 -20h355q32 0 32 -47q0 -45 -35 -45h-431q-68 0 -68 78v73q0 24 -5 30t-16 9q-11 6 -20 12.5t-9 25.5q0 35 27 35h402v79h-376q-32 0 -32 44q0 47 33 47h177v91h-308q-32 0 -32 47q0 46 32 46h213q0 4 1 9q10 58 9.5 110 t-0.5 109h-161z" />
<glyph unicode="&#xafc7;" d="M106 724q-32 0 -32 46q0 47 36 47h230q50 0 49 -64q0 -78 -12 -153q-10 -64 -28 -104h214v9q7 59 6.5 113.5t-0.5 105.5h-138q-32 0 -32 46q0 47 35 47h213q51 0 51 -57q0 -63 -13 -142q-12 -71 -30 -122h125q36 0 36 -46q0 -47 -36 -47h-303v-37q0 -25 -4 -44h2 q15 -3 29 -9q40 -19 60.5 -22.5t73.5 -3.5q43 0 43 -42q0 -20 -13 -30.5t-36 -10.5l-64 1q-52 0 -89 30l-28 24q-6 6 -9 11q-20 -17 -52 -17v-95q9 9 27 9h316q38 0 38 -42q0 -40 -38 -40h-22q17 -29 17 -67q0 -62 -44.5 -107.5t-121.5 -45.5q-75 0 -114.5 45.5t-39.5 107.5 q0 38 15 67h-6q-18 0 -27 10q-3 -43 -34 -43h-123v-65q0 -16 18 -16h135q32 0 32 -45q0 -47 -40 -47h-174q-74 0 -74 77v77q0 24 -2.5 30t-11.5 10q-12 6 -17 12.5t-5 24.5q0 31 28 31h164v80h-149q-32 0 -32 46q0 45 35 45h212v91h-308q-32 0 -32 47q0 46 32 46h213 q0 4 1 9q10 58 9.5 110t-0.5 109h-161zM620 18q0 27 -17 48q-17 19 -40 19q-21 0 -38 -19q-16 -21 -16 -48t16.5 -46.5t37.5 -19.5q23 0 40 19.5t17 46.5z" />
<glyph unicode="&#xafc8;" d="M106 716q-32 0 -32 47q0 46 36 46h230q50 0 49 -63q0 -78 -12 -165q-10 -74 -27 -116h213v6q9 75 7.5 128.5t-2.5 116.5h-138q-31 0 -31 47q0 46 35 46h213q51 0 51 -58q0 -49 -13 -147q-11 -86 -29 -139h123q37 0 37 -46q0 -47 -37 -47h-301v-60q0 -41 -12 -68h158 q47 0 47 -54v-149q0 -38 -13 -63q26 -6 26 -45q0 -47 -36 -47h-381q-23 -29 -65 -29h-29v251q0 39 -3 47.5t-15 13.5q-13 7 -21 15t-8 24q0 36 42 36h184v128h-308q-32 0 -32 47q0 46 32 46h213v7q11 64 10.5 114t-0.5 130h-161zM294 -21h256v172h-256v-172z" />
<glyph unicode="&#xafc9;" d="M106 723q-32 0 -32 47t36 47h230q50 0 49 -64q0 -78 -12 -160q-11 -73 -29 -115h215v11q8 74 7 122.5t-2 111.5h-138q-31 0 -31 47t35 47h213q51 0 51 -58q0 -60 -13 -151q-12 -83 -30 -130h124q37 0 37 -46q0 -48 -37 -48h-301v-46q0 -112 -93 -112h-33v158h-308 q-32 0 -32 48q0 46 32 46h213q-1 6 0 12q10 62 10 107.5v125.5h-161zM648 -114h-384q-22 -28 -62 -28h-29v322q0 27 -2.5 32t-5.5 7q-11 4 -23.5 10t-12.5 24q0 34 43 34h67q53 0 53 -44v-76h260v30q0 27 -3 31t-6 5q-17 6 -27 12.5t-10 24.5q0 32 43 32h64q58 0 58 -45 v-213q0 -39 -14 -66q27 -5 27 -45q0 -47 -36 -47zM292 -21h260v95h-260v-95z" />
<glyph unicode="&#xafcb;" d="M106 716q-32 0 -32 47q0 46 36 46h230q50 0 49 -63q0 -78 -11 -164q-10 -73 -28 -117h213v6q9 75 7.5 128.5t-2.5 116.5h-138q-31 0 -31 47q0 46 35 46h213q51 0 51 -58q0 -49 -13 -148q-11 -86 -29 -138h123q37 0 37 -46q0 -47 -37 -47h-301v-12q0 -59 -23 -87 q22 -6 31 -23q14 -26 8 -57q-9 -37 -38 -79l242 -137q27 -13 29.5 -37t-10.5 -40q-12 -16 -33 -18.5t-50 16.5l-227 156l-22 -22q-93 -89 -200 -146q-53 -31 -70.5 -3t12.5 49q85 56 149 131.5t82 123.5q4 6 -2 15t-20 12q-33 8 -30 35.5t36 27.5h10v95h-308q-32 0 -32 47 q0 46 32 46h212q1 3 1 7q10 56 10 110v134h-161z" />
<glyph unicode="&#xafcd;" d="M106 716q-32 0 -32 47q0 46 36 46h230q50 0 49 -63q0 -78 -11 -164q-10 -73 -28 -117h213v6q9 75 7.5 128.5t-2.5 116.5h-138q-31 0 -31 47q0 46 35 46h213q51 0 51 -58q0 -49 -13 -148q-11 -86 -29 -138h123q37 0 37 -46q0 -47 -37 -47h-302v-39q0 -40 -11 -66 q66 -12 116 -56q67 -61 67 -145q0 -83 -67.5 -143.5t-168.5 -60.5t-168 60.5t-67 143.5q0 84 68 145q45 41 106 55v106h-308q-32 0 -32 47q0 46 32 46h212q1 3 1 7q10 56 10 110v134h-161zM525 66q0 46 -32.5 78.5t-80.5 32.5q-46 0 -78 -32.5t-32 -78.5q0 -45 32 -77 t78 -32q48 0 80.5 32t32.5 77z" />
<glyph unicode="&#xafce;" d="M106 716q-32 0 -32 47q0 46 36 46h230q50 0 49 -63q0 -78 -12 -165q-10 -74 -27 -116h213v6q9 75 7.5 128.5t-2.5 116.5h-138q-31 0 -31 47q0 46 35 46h213q51 0 51 -58q0 -49 -13 -147q-11 -86 -29 -139h123q37 0 37 -46q0 -47 -37 -47h-301v-60q0 -41 -12 -68h123 q36 0 53.5 -24t8.5 -58q-21 -54 -119 -120l180 -67q52 -20 31.5 -67t-94.5 -11l-202 93q-134 -74 -280 -110q-53 -14 -63 15t33 44q88 32 192.5 95.5t160.5 116.5h-307q-29 0 -29 47q0 46 32 46h166v128h-308q-32 0 -32 47q0 46 32 46h213v7q11 64 10.5 114t-0.5 130h-161z " />
<glyph unicode="&#xafd4;" horiz-adv-x="785" d="M42 692q-32 0 -32 47q0 46 39 46h165q39 0 48 -32q5 32 37 32h158q53 0 53 -56q0 -89 -13 -181q-14 -84 -30 -140q29 2 58 8q61 12 69 -16v336q0 29 -6.5 36t-20.5 11q-23 5 -37 13t-14 25q0 39 44 39h104q52 0 52 -43v-839q0 -96 -92 -96h-30v254h-157q-33 0 -33 46 t33 46h157v147q-3 -12 -15 -20q-29 -19 -92 -30q-60 -11 -146 -12v-312q0 -99 -84 -99h-38v411h-183q-32 0 -32 47q0 46 32 46h93q-1 5 0 10q8 55 9.5 112.5t-0.5 163.5h-96zM379 406v11q7 76 5.5 128.5t-2.5 146.5h-90q-20 0 -27 19q-2 -90 -16 -170q-16 -82 -33 -135h163z " />
<glyph unicode="&#xafdc;" horiz-adv-x="785" d="M42 714q-32 0 -32 46t39 46h165q39 0 48 -31q5 31 37 31h158q53 0 53 -55q0 -70 -13 -128q-11 -46 -26 -78q27 2 54 7q61 13 69 -16v201q0 28 -6.5 35t-20.5 11q-23 5 -37 13t-14 25q0 39 44 39h103q53 0 53 -46v-456q0 -96 -92 -96h-30v62h-157q-33 0 -33 47q0 46 33 46 h157v94q-3 -12 -15 -20q-29 -19 -92 -30q-61 -12 -148 -12v-117q0 -77 -84 -77h-39v194h-180q-32 0 -32 47q0 46 32 46h93v5q8 45 9.5 73.5t-0.5 93.5h-96zM378 542q1 3 1 7q8 44 6 74t-3 91h-90q-20 0 -27 20q-2 -57 -16 -112q-13 -50 -29 -80h158zM702 -121h-398 q-57 0 -57 70v46q0 23 -7 29.5t-15 10.5q-12 3 -19 11.5t-7 25.5q0 33 26 33h360v48h-335q-32 0 -32 45q0 44 33 44h418q40 0 40 -48v-119q0 -57 -41 -57h-297v-31q0 -18 23 -18h313q31 0 31 -44q0 -46 -36 -46z" />
<glyph unicode="&#xafe8;" horiz-adv-x="785" d="M42 706q-32 0 -32 47q0 46 39 46h165q39 0 48 -32q5 32 37 32h158q53 0 53 -55q0 -86 -13 -145q-11 -46 -26 -86q27 2 54 8q61 12 69 -17v233q0 28 -6.5 35t-20.5 11q-23 5 -37 13t-14 25q0 39 44 39h103q53 0 53 -46v-508q0 -97 -92 -97h-30v72h-157q-33 0 -33 47 q0 46 33 46h157v106q-3 -13 -15 -21q-29 -18 -92 -30q-61 -12 -148 -12v-131q0 -77 -84 -77h-39v208h-180q-32 0 -32 47q0 46 32 46h93v2q8 45 9.5 86.5t-0.5 107.5h-96zM379 510v4q8 44 6 87.5t-3 104.5h-90q-20 0 -27 19q-2 -67 -16 -125q-13 -53 -29 -90h159zM403 109 q-6 -20 -18 -40l84 -55q38 51 60 108q3 2 -1.5 4.5t-14.5 6.5q-13 4 -22 11.5t-9 20.5q0 32 41 32h71q42 0 54 -25.5t6 -55.5q-6 -23 -20 -48l118 -75q26 -17 31 -38.5t-6 -41.5q-16 -22 -40 -23t-45 16l-108 93q-7 -8 -15 -15q-68 -71 -140 -107q-17 -10 -33 -11.5 t-27 12.5q-10 9 -10 19t14 20q16 12 33 26l-72 60q-8 -7 -17 -15q-68 -62 -134 -98q-23 -15 -37.5 -11.5t-24.5 17.5q-4 7 -2 18.5t15 21.5q42 31 82 78.5t63 99.5q3 2 -2.5 5.5t-14.5 6.5q-14 5 -22.5 11.5t-8.5 21.5q0 32 42 32h75q40 0 51 -27t4 -55z" />
<glyph unicode="&#xafe9;" horiz-adv-x="785" d="M42 706q-32 0 -32 47q0 46 39 46h165q39 0 48 -32q5 32 37 32h158q53 0 53 -55q0 -86 -13 -145q-11 -46 -26 -86q27 2 54 8q61 12 69 -17v233q0 28 -6.5 35t-20.5 11q-23 5 -37 13t-14 25q0 39 44 39h103q53 0 53 -46v-524q0 -96 -92 -96h-30v87h-157q-33 0 -33 47 q0 46 33 46h157v106q-3 -13 -15 -21q-29 -18 -92 -30q-61 -12 -148 -12v-156q0 -77 -84 -77h-39v233h-180q-32 0 -32 47q0 46 32 46h93v2q8 45 9.5 86.5t-0.5 107.5h-96zM379 510v4q8 44 6 87.5t-3 104.5h-90q-20 0 -27 19q-2 -67 -16 -125q-13 -53 -29 -90h159zM254 31 q0 71 63.5 123t162.5 52q100 0 164.5 -52t64.5 -123q0 -67 -64.5 -118t-164.5 -51q-99 0 -162.5 51t-63.5 118zM584 33q0 33 -30.5 56.5t-75.5 23.5q-43 0 -72.5 -23.5t-29.5 -56.5q0 -32 29.5 -55t72.5 -23q45 0 75.5 23t30.5 55z" />
<glyph unicode="&#xaff0;" d="M38 668q-32 0 -32 47q0 46 39 46h141q40 0 50 -32q5 32 36 32h117q56 0 56 -55q0 -74 -13 -162q-11 -75 -28 -127l23 4q60 13 69 -16v284q0 29 -6.5 36t-20.5 11q-24 6 -34 13t-10 22q0 36 42 36h87q52 0 52 -45v-723q0 -96 -86 -96h-24v222h-123q-33 0 -33 45 q0 48 33 48h123v122q-3 -12 -16 -20q-28 -19 -91 -30q-38 -7 -86 -10v-278q0 -99 -82 -99h-35v375h-149q-33 0 -33 47q0 46 32 46h72q0 5 1 10q9 50 10.5 111t-1.5 136h-80zM321 412v7q8 62 6.5 120t-2.5 129h-60q-19 0 -26 20q-2 -90 -17 -161q-14 -69 -31 -116h43 q51 0 87 1zM777 813v-835q0 -96 -93 -96h-24v857q0 27 -4.5 34.5t-19.5 11.5q-25 5 -36 12t-11 24q0 39 46 39h89q53 0 53 -47z" />
<glyph unicode="&#xaff1;" d="M43 684q-32 0 -32 48q0 46 39 46h141q40 0 50 -32q5 32 37 32h116q27 0 40 -13v6q0 36 42 36h87q21 0 33 -7q-7 7 -7 21q0 39 46 39h89q53 0 53 -48v-537q0 -96 -93 -96h-24v560q0 27 -4.5 34.5t-19.5 11.5q-22 4 -33 10q12 -11 12 -33v-477q0 -96 -86 -96h-24v82h-126 q-33 0 -33 45q0 48 33 48h126v99q-3 -12 -16 -20q-28 -19 -91 -30q-41 -8 -93 -10v-148q0 -76 -81 -76h-36v222h-151q-33 0 -33 47q0 46 32 46h75q-1 7 1 16q8 34 11 81.5t0 92.5h-80zM446 748q5 -11 5 -26q0 -73 -13 -133q-10 -50 -27 -89q12 2 25 4q61 13 69 -16v201 q0 29 -6 36t-21 11q-21 5 -32 12zM323 494q0 7 1 14q8 41 8 79.5t-2 96.5h-60q-19 0 -26 20q-2 -66 -16 -116q-14 -53 -32 -94h127zM226 68q-27 0 -27 47q0 46 28 46h497q41 0 41 -49v-144q0 -105 -89 -105h-36v205h-414z" />
<glyph unicode="&#xaff4;" d="M43 679q-32 0 -32 47t39 47h141q40 0 50 -32q5 32 37 32h116q57 0 57 -56q0 -74 -13 -139q-10 -54 -26 -93l24 4q61 12 69 -17v219q0 29 -6 36t-21 11q-23 6 -33.5 13t-10.5 23q0 35 42 35h87q21 0 33 -7q-7 7 -7 21q0 39 46 39h89q53 0 53 -48v-643q0 -96 -93 -96h-24 v666q0 27 -4.5 34.5t-19.5 11.5q-22 4 -33 10q12 -11 12 -33v-581q0 -97 -86 -97h-24v162h-126q-33 0 -33 45q0 48 33 48h126v107q-3 -12 -16 -21q-28 -18 -91 -29q-41 -8 -93 -11v-131q0 -76 -81 -76h-36v205h-151q-33 0 -33 48q0 46 32 46h75q0 6 1 13q8 36 11 89t0 98 h-80zM323 479q0 6 1 11q8 41 8 86t-2 103h-60q-19 0 -26 20q-2 -67 -16 -123q-13 -57 -30 -97h125zM757 -107h-417q-101 0 -101 93v53q0 30 -7.5 36.5t-21.5 11.5q-26 8 -33 16t-7 22q0 32 39 32h103q53 0 53 -45v-104q0 -23 18 -23h377q33 0 33 -46t-36 -46z" />
<glyph unicode="&#xaff8;" d="M43 696q-32 0 -32 46t39 46h141q40 0 50 -32q5 32 37 32h116q26 0 40 -12q3 31 42 31h87q21 0 33 -7q-7 7 -7 21q0 39 46 39h89q53 0 53 -48v-470q0 -96 -93 -96h-24v493q0 27 -4.5 34.5t-19.5 11.5q-22 4 -33 10q12 -11 12 -33v-408q0 -97 -86 -97h-24v69h-126 q-33 0 -33 45q0 48 33 48h126v83q-3 -12 -16 -20q-28 -19 -91 -30q-41 -8 -93 -10v-130q0 -77 -81 -77h-36v205h-151q-33 0 -33 47q0 46 32 46h75q0 3 1 7q8 31 11 71t0 85h-80zM450 746q1 -6 1 -13q0 -60 -13 -121q-8 -42 -21 -72q9 1 19 3q61 12 69 -16v162q0 29 -6 36 t-21 11q-18 5 -28 10zM324 533v5q8 41 8 70t-2 88h-60q-20 0 -26 19q-2 -49 -16 -103q-12 -49 -26 -79h122zM760 -121h-420q-57 0 -57 70v43q0 23 -7 29.5t-15 10.5q-12 3 -19.5 11.5t-7.5 25.5q0 33 27 33h380v44h-355q-32 0 -32 45q0 44 33 44h438q40 0 40 -48v-115 q0 -57 -41 -57h-317v-29q0 -17 23 -17h333q32 0 32 -44q0 -46 -35 -46z" />
<glyph unicode="&#xb000;" d="M43 684q-32 0 -32 48q0 46 39 46h141q40 0 50 -32q5 32 37 32h116q27 0 40 -13v6q0 36 42 36h87q21 0 33 -7q-7 7 -7 21q0 39 46 39h89q53 0 53 -48v-508q0 -97 -93 -97h-24v532q0 27 -4.5 34.5t-19.5 11.5q-22 4 -33 10q12 -11 12 -33v-453q0 -97 -86 -97h-24v72h-126 q-33 0 -33 45q0 48 33 48h126v93q-3 -12 -16 -20q-28 -18 -91 -30q-41 -8 -93 -10v-137q0 -77 -81 -77h-36v212h-151q-33 0 -33 47q0 46 32 46h75q0 4 1 9q8 34 11 81.5t0 92.5h-80zM446 748q5 -11 5 -26q0 -73 -13 -133q-9 -45 -24 -82l22 4q61 13 69 -16v194q0 29 -6 36 t-21 11q-21 5 -32 12zM323 501q1 4 1 7q8 41 8 79.5t-2 96.5h-60q-19 0 -26 20q-2 -66 -16 -116q-13 -49 -29 -87h124zM394 -23h250v121h-250v-121zM718 189q47 0 47 -54v-104q0 -32 -9 -55q28 -5 28 -44q0 -46 -36 -46h-381q-23 -29 -66 -29h-29v197q0 39 -4 47.5t-14 12.5 q-16 7 -23 15.5t-7 24.5q0 35 34 35h460z" />
<glyph unicode="&#xb001;" d="M43 695q-32 0 -32 47q0 46 39 46h141q40 0 50 -32q5 32 37 32h116q26 0 40 -12q3 31 42 31h87q21 0 33 -7q-7 7 -7 21q0 39 46 39h89q53 0 53 -48v-484q0 -96 -93 -96h-24v507q0 27 -4.5 34.5t-19.5 11.5q-22 4 -33 10q12 -11 12 -33v-434q0 -96 -86 -96h-24v63h-126 q-33 0 -33 45q0 49 33 49h126v98q-3 -12 -16 -21q-28 -18 -91 -29q-41 -9 -93 -11v-129q0 -76 -81 -76h-36v203h-151q-33 0 -33 47t32 47h75q0 4 1 8q8 31 11 77.5t0 91.5h-80zM450 746q1 -6 1 -13q0 -66 -13 -129q-9 -47 -23 -80q11 2 21 4q61 12 69 -17v178q0 29 -6 36 t-21 11q-18 5 -28 10zM323 518q1 3 1 6q8 41 8 76.5t-2 94.5h-60q-19 0 -26 19q-2 -56 -16 -110q-12 -53 -27 -86h122zM742 -114h-373q-23 -28 -63 -28h-28v235q0 27 -3 32t-6 6q-11 5 -23.5 11t-12.5 24q0 34 43 34h67q53 0 53 -45v-29h250q-1 15 -3 18q-3 4 -6 5 q-16 6 -26.5 12.5t-10.5 24.5q0 33 43 33h65q57 0 57 -48v-128q0 -41 -13 -67q26 -5 26 -44q0 -46 -36 -46zM395 -23h251v60h-250v-40q0 -10 -1 -20z" />
<glyph unicode="&#xb004;" d="M43 684q-32 0 -32 48q0 46 39 46h141q40 0 50 -32q5 32 37 32h116q27 0 40 -13v6q0 36 42 36h87q21 0 33 -7q-7 7 -7 21q0 39 46 39h89q53 0 53 -48v-508q0 -97 -93 -97h-24v532q0 27 -4.5 34.5t-19.5 11.5q-22 4 -33 10q12 -11 12 -33v-453q0 -97 -86 -97h-24v72h-126 q-33 0 -33 45q0 48 33 48h126v93q-3 -12 -16 -20q-28 -18 -91 -30q-41 -8 -93 -10v-137q0 -77 -81 -77h-36v212h-151q-33 0 -33 47q0 46 32 46h75q0 4 1 9q8 34 11 81.5t0 92.5h-80zM446 748q5 -11 5 -26q0 -73 -13 -133q-9 -45 -24 -82l22 4q61 13 69 -16v194q0 29 -6 36 t-21 11q-21 5 -32 12zM323 501q1 4 1 7q8 41 8 79.5t-2 96.5h-60q-19 0 -26 20q-2 -66 -16 -116q-13 -49 -29 -87h124zM409 109q-6 -17 -15 -34l96 -60q37 50 60 107q3 2 -1 5t-15 6q-16 3 -23.5 10.5t-7.5 20.5q0 33 41 33h70q42 0 54.5 -25.5t6.5 -55.5q-6 -22 -19 -46 l121 -77q25 -15 31.5 -38t-5.5 -42q-15 -20 -45 -22t-50 15l-106 90l-12 -12q-69 -71 -140 -107q-18 -10 -34.5 -10t-26.5 11q-9 10 -9 18.5t13 20.5q15 11 29 23l-82 63q-7 -7 -15 -14q-67 -62 -137 -99q-20 -12 -38.5 -8t-25.5 17q-4 9 -1.5 18.5t16.5 18.5 q41 29 81.5 77.5t63.5 100.5q3 2 -2.5 5.5t-14.5 6.5q-14 5 -22 11.5t-8 21.5q0 32 42 32h74q40 0 51 -27t5 -55z" />
<glyph unicode="&#xb00c;" horiz-adv-x="785" d="M42 692q-32 0 -32 47q0 46 39 46h165q39 0 48 -32q5 32 37 32h158q53 0 53 -56q0 -89 -13 -188q-13 -89 -30 -145q29 2 58 8q61 12 69 -17v349q0 29 -6.5 36t-20.5 11q-23 5 -37 13t-14 25q0 39 44 39h104q52 0 52 -43v-839q0 -96 -92 -96h-30v481q-3 -12 -15 -21 q-29 -18 -92 -29q-60 -12 -146 -13v-299q0 -99 -84 -99h-38v398h-183q-32 0 -32 48q0 46 32 46h93v8q8 55 9.5 119.5t-0.5 170.5h-96zM379 394v9q7 76 5.5 135.5t-2.5 153.5h-90q-20 0 -27 19q-2 -91 -16 -177q-15 -87 -32 -140h162z" />
<glyph unicode="&#xb010;" horiz-adv-x="785" d="M42 701q-32 0 -32 47q0 46 39 46h165q39 0 48 -32q5 32 37 32h158q53 0 53 -55q0 -86 -13 -165q-11 -65 -26 -109q27 3 54 8q61 13 69 -16v280q0 28 -6.5 35t-20.5 11q-23 5 -37 13t-14 25q0 39 44 39h103q53 0 53 -46v-643q0 -96 -92 -96h-30v358q-3 -13 -15 -21 q-29 -18 -92 -30q-61 -12 -148 -12v-119q0 -77 -84 -77h-39v196h-180q-32 0 -32 47q0 46 32 46h93v2q8 45 9.5 107.5t-0.5 128.5h-96zM379 463v4q8 44 6 108t-3 126h-90q-20 0 -27 19q-2 -69 -16 -146q-13 -71 -29 -111h159zM711 -107h-374q-101 0 -101 93v49 q0 30 -7.5 36.5t-21.5 11.5q-26 8 -33 16t-7 22q0 32 39 32h103q52 0 52 -45v-100q0 -23 19 -23h335q33 0 33 -46t-37 -46z" />
<glyph unicode="&#xb014;" horiz-adv-x="785" d="M42 714q-32 0 -32 46t39 46h165q39 0 48 -31q5 31 37 31h158q53 0 53 -55q0 -72 -13 -138q-12 -57 -28 -89q28 3 56 8q61 12 69 -17v222q0 28 -6.5 35t-20.5 11q-23 5 -37 13t-14 25q0 39 44 39h103q53 0 53 -46v-435q0 -96 -92 -96h-30v208q-3 -12 -15 -21 q-29 -18 -92 -29q-61 -13 -148 -13v-74q0 -77 -84 -77h-39v151h-180q-32 0 -32 48q0 46 32 46h92q0 5 1 10q8 45 9.5 81t-0.5 101h-96zM378 522q0 6 1 12q8 44 6 81.5t-3 98.5h-90q-20 0 -27 20q-2 -64 -15 -121q-14 -58 -33 -91h161zM702 -121h-398q-57 0 -57 68v56 q0 23 -7 29.5t-15 10.5q-12 3 -19 11.5t-7 25.5q0 33 26 33h360v56h-335q-32 0 -32 45q0 44 33 44h418q40 0 40 -48v-129q0 -55 -41 -55h-297v-38q0 -19 23 -19h313q31 0 31 -44q0 -46 -36 -46z" />
<glyph unicode="&#xb01c;" horiz-adv-x="785" d="M42 706q-32 0 -32 47q0 46 39 46h165q39 0 48 -32q5 32 37 32h158q53 0 53 -55q0 -86 -13 -147q-13 -55 -30 -100q29 2 58 8q61 13 69 -16v248q0 28 -6.5 35t-20.5 11q-23 5 -37 13t-14 25q0 39 44 39h103q53 0 53 -46v-493q0 -96 -92 -96h-30v239q-3 -12 -15 -20 q-29 -19 -92 -30q-61 -12 -148 -12v-101q0 -76 -84 -76h-39v177h-180q-32 0 -32 47q0 46 32 46h92q0 6 1 12q8 45 9.5 89t-0.5 110h-96zM378 495q0 7 1 14q8 44 6 90t-3 107h-90q-20 0 -27 19q-2 -67 -16 -128q-16 -62 -34 -102h163zM369 -23h219v133h-219v-133zM662 201 q47 0 47 -53v-117q0 -32 -10 -55q29 -5 29 -44q0 -46 -38 -46h-349q-23 -29 -66 -29h-28v209q0 39 -4 47.5t-15 12.5q-16 8 -22.5 16t-6.5 24q0 35 33 35h430z" />
<glyph unicode="&#xb01d;" horiz-adv-x="785" d="M42 713q-32 0 -32 47q0 46 39 46h165q39 0 48 -31q5 31 37 31h158q53 0 53 -55q0 -76 -13 -142q-12 -57 -28 -95q28 4 56 9q61 12 69 -17v231q0 28 -6.5 35t-20.5 11q-23 5 -37 13t-14 25q0 39 44 39h103q53 0 53 -46v-447q0 -96 -92 -96h-30v211q-3 -13 -15 -21 q-29 -18 -92 -29q-61 -13 -148 -13v-82q0 -76 -84 -76h-39v158h-180q-32 0 -32 47q0 46 32 46h92q0 5 1 9q8 45 9.5 86t-0.5 106h-96zM378 512q0 6 1 11q8 44 6 86.5t-3 103.5h-90q-20 0 -27 20q-2 -64 -15 -124q-14 -61 -32 -97h160zM685 -114h-346q-23 -28 -64 -28h-28 v262q0 29 -2.5 34t-5.5 6q-12 4 -24 10.5t-12 24.5q0 34 43 34h66q54 0 54 -46v-43h224v2q0 26 -3 30.5t-6 5.5q-17 6 -27 12.5t-10 23.5q0 33 43 33h64q58 0 58 -46v-158q0 -41 -15 -67q28 -5 28 -44q0 -46 -37 -46zM366 -23h224v72h-224v-72z" />
<glyph unicode="&#xb028;" d="M106 706q-32 0 -32 47q0 46 36 46h230q50 0 49 -63q0 -68 -13.5 -173.5t-33.5 -148.5q-8 -17 -25 -27t-38 -3q-15 7 -20.5 20t-3.5 33q14 71 13 122.5t-1 146.5h-161zM430 706q-31 0 -31 47q0 46 35 46h213q51 0 51 -58q0 -49 -13 -160.5t-36 -166.5q-7 -18 -23.5 -28 t-38.5 -1q-18 7 -22.5 18.5t-3.5 32.5q9 83 9 146t-2 124h-138zM347 262v-277q0 -103 -92 -103h-31v380h-180q-32 0 -32 47q0 46 32 46h735q37 0 37 -46q0 -47 -37 -47h-166v-277q0 -103 -92 -103h-31v380h-143z" />
<glyph unicode="&#xb044;" d="M106 660q-32 0 -32 47q0 46 36 46h231q49 0 49 -64q-1 -101 -19 -251.5t-37 -193.5q-8 -18 -25.5 -28t-42.5 -1q-15 8 -18 21.5t-1 31.5q12 69 16 185t4 207h-161zM430 660q-31 0 -31 47q0 46 35 46h213q51 0 51 -55q0 -92 -16 -244.5t-39 -209.5q-7 -19 -25 -28.5 t-40 -0.5q-15 6 -20.5 17.5t-2.5 34.5q15 66 15 196.5t-2 196.5h-138zM780 37h-736q-32 0 -32 48t32 48h736q36 0 36 -48t-36 -48z" />
<glyph unicode="&#xb045;" d="M106 716q-32 0 -32 47q0 46 36 46h230q50 0 49 -63q0 -78 -12 -180q-10 -84 -26 -128h213v2q10 77 7.5 144t-3.5 132h-138q-31 0 -31 47q0 46 35 46h213q51 0 51 -57q0 -81 -13 -179q-11 -84 -28 -135h123q36 0 36 -47q0 -48 -36 -48h-736q-32 0 -32 48q0 47 32 47h213v5 q12 63 11 122t-1 151h-161zM155 140q-28 0 -28 47q0 46 29 46h470q42 0 42 -47v-219q0 -104 -89 -104h-36v277h-388z" />
<glyph unicode="&#xb048;" d="M106 708q-32 0 -32 47q0 46 36 46h230q50 0 49 -63q0 -71 -13 -190q-11 -102 -28 -148h213v7q11 83 9.5 159t-2.5 142h-138q-31 0 -31 47q0 46 35 46h213q51 0 51 -56q0 -71 -13 -188q-11 -102 -31 -157h126q36 0 36 -47t-36 -47h-736q-32 0 -32 47t32 47h211q0 3 1 7 q14 73 12.5 141t-1.5 160h-161zM655 -107h-383q-101 0 -101 91v117q0 29 -8 36.5t-21 11.5q-26 7 -34 14.5t-8 23.5q0 35 40 35h104q53 0 53 -45v-168q0 -22 18 -22h343q33 0 33 -47t-36 -47z" />
<glyph unicode="&#xb04a;" d="M106 723q-32 0 -32 47t36 47h230q50 0 49 -64q0 -78 -12 -175q-10 -85 -28 -129h214v9q10 74 8 138t-3 127h-138q-31 0 -31 47t35 47h213q51 0 51 -58q0 -63 -13 -166q-12 -91 -30 -144h125q36 0 36 -47t-36 -47h-736q-32 0 -32 47t32 47h212q0 5 1 11q12 62 11 124.5 t-1 138.5h-161zM387 -121h-143q-110 0 -110 91v175q0 29 -7 35.5t-22 11.5q-25 7 -34 15t-9 26q0 37 39 37h95q53 0 53 -47v-229q0 -21 18 -21h129q-7 21 -7 45q0 39 19 68h-41q-37 0 -37 40q0 43 37 43h373q38 0 38 -43q0 -40 -38 -40h-31q18 -29 18 -68q0 -63 -47 -108 t-123 -45q-75 0 -121 45q-5 4 -8 8q-3 -39 -41 -39zM456 231l-29 24q-12 13 -13.5 26t8.5 25q13 15 29 12.5t29 -8.5q40 -19 69.5 -22.5t82.5 -3.5q43 0 43 -43q0 -20 -13 -30.5t-36 -10.5l-81 1q-52 0 -89 30zM620 18q0 27 -18.5 47t-45.5 20q-25 0 -42 -20t-17 -47 t17 -46.5t42 -19.5q27 0 45.5 19.5t18.5 46.5z" />
<glyph unicode="&#xb04c;" d="M106 724q-32 0 -32 46q0 47 36 47h230q50 0 49 -64q0 -78 -12 -166q-10 -75 -27 -115h213v8q9 64 7.5 125t-2.5 119h-138q-31 0 -31 46q0 47 35 47h213q51 0 51 -59q0 -49 -13 -148q-11 -87 -29 -138h124q36 0 36 -46q0 -47 -36 -47h-736q-32 0 -32 47q0 46 32 46h213 q0 5 1 9q10 52 9.5 117.5t-0.5 125.5h-161zM174 221q-32 0 -32 44q0 47 33 47h460q39 0 39 -48v-156q0 -56 -40 -56h-339v-61q0 -20 23 -20h355q32 0 32 -47q0 -45 -35 -45h-431q-68 0 -68 78v73q0 24 -5 30t-16 9q-11 6 -20 12.5t-9 25.5q0 35 27 35h402v79h-376z" />
<glyph unicode="&#xb04e;" d="M106 724q-32 0 -32 46q0 47 36 47h230q50 0 49 -64q0 -78 -12 -166q-10 -75 -27 -115h213v8q9 64 7.5 125t-2.5 119h-138q-31 0 -31 46q0 47 35 47h213q51 0 51 -59q0 -49 -13 -148q-11 -87 -29 -138h124q36 0 36 -46q0 -47 -36 -47h-736q-32 0 -32 47q0 46 32 46h213 q0 5 1 9q10 52 9.5 117.5t-0.5 125.5h-161zM543 -13h72v235h-72v-235zM137 221q-32 0 -32 46q0 45 35 45h214q43 0 43 -47v-160q0 -53 -33 -53h-131v-65q0 -16 18 -16h142q32 0 32 -45q0 -47 -39 -47h-182q-74 0 -74 77v77q0 24 -2.5 30t-11.5 10q-12 6 -17 12.5t-5 24.5 q0 31 28 31h174v80h-159zM664 312q53 0 53 -51v-212q0 -38 -12 -64q25 -6 25 -42q0 -47 -40 -47h-167q-17 -29 -49 -29h-31v320q0 39 -2 43.5t-8 9.5q-9 7 -17 13t-8 24q0 35 35 35h221z" />
<glyph unicode="&#xb053;" d="M106 724q-32 0 -32 46q0 47 36 47h230q50 0 49 -64q0 -78 -12 -166q-10 -75 -27 -115h213v8q9 64 7.5 125t-2.5 119h-138q-31 0 -31 46q0 47 35 47h213q51 0 51 -59q0 -49 -13 -148q-11 -87 -29 -138h124q36 0 36 -46q0 -47 -36 -47h-736q-32 0 -32 47q0 46 32 46h213 q0 5 1 9q10 52 9.5 117.5t-0.5 125.5h-161zM137 221q-32 0 -32 46q0 45 35 45h207q43 0 43 -47v-107q9 9 27 9h316q38 0 38 -42q0 -40 -38 -40h-22q17 -29 17 -67q0 -62 -44.5 -107.5t-121.5 -45.5q-75 0 -114.5 45.5t-39.5 107.5q0 38 15 67h-6q-18 0 -27 10 q-3 -43 -34 -43h-123v-65q0 -16 18 -16h135q32 0 32 -45q0 -47 -40 -47h-174q-74 0 -74 77v77q0 24 -2.5 30t-11.5 10q-12 6 -17 12.5t-5 24.5q0 31 28 31h164v80h-149zM469 235l-29 24q-12 13 -13.5 25.5t8.5 24.5q14 15 29.5 12.5t29.5 -8.5q40 -19 65.5 -22.5t78.5 -3.5 q43 0 43 -42q0 -20 -13 -30.5t-36 -10.5l-74 1q-52 0 -89 30zM620 18q0 27 -17 48q-17 19 -40 19q-21 0 -38 -19q-16 -21 -16 -48t16.5 -46.5t37.5 -19.5q23 0 40 19.5t17 46.5z" />
<glyph unicode="&#xb054;" d="M106 716q-32 0 -32 47q0 46 36 46h230q50 0 49 -63q0 -78 -12 -175q-11 -88 -29 -132h215v12q10 75 8 138.5t-3 126.5h-138q-31 0 -31 47q0 46 35 46h213q51 0 51 -58q0 -49 -13 -159q-12 -100 -31 -153h126q36 0 36 -47q0 -48 -36 -48h-736q-32 0 -32 48q0 47 32 47h213 q0 6 1 13q11 62 10 124.5t-1 139.5h-161zM294 -21h256v182h-256v-182zM624 254q47 0 47 -54v-159q0 -38 -13 -63q26 -6 26 -45q0 -47 -36 -47h-381q-23 -29 -65 -29h-29v261q0 39 -3 47.5t-15 14.5q-13 6 -21 14t-8 25q0 35 42 35h456z" />
<glyph unicode="&#xb055;" d="M106 723q-32 0 -32 47t36 47h230q50 0 49 -64q0 -78 -12 -175q-10 -85 -28 -129h214v9q10 74 8 138t-3 127h-138q-31 0 -31 47t35 47h213q51 0 51 -58q0 -63 -13 -166q-12 -91 -30 -144h125q36 0 36 -47t-36 -47h-736q-32 0 -32 47t32 47h212q0 5 1 11q12 62 11 124.5 t-1 138.5h-161zM648 -114h-384q-22 -28 -62 -28h-29v322q0 27 -2.5 32t-5.5 7q-11 4 -23.5 10t-12.5 24q0 34 43 34h67q53 0 53 -44v-76h260v30q0 27 -3 31t-6 5q-17 6 -27 12.5t-10 24.5q0 32 43 32h69q53 0 53 -45v-213q0 -39 -14 -66q27 -5 27 -45q0 -47 -36 -47z M292 -21h260v95h-260v-95z" />
<glyph unicode="&#xb057;" d="M106 716q-32 0 -32 47q0 46 36 46h230q50 0 49 -63q0 -78 -12 -175q-11 -88 -29 -132h215v12q10 75 8 138.5t-3 126.5h-138q-31 0 -31 47q0 46 35 46h213q51 0 51 -58q0 -49 -13 -159q-12 -100 -31 -153h126q36 0 36 -47q0 -48 -36 -48h-736q-32 0 -32 48q0 47 32 47h212 q1 6 2 13q11 62 10 124.5t-1 139.5h-161zM494 193q-9 -37 -38 -79l242 -137q27 -13 29.5 -37t-10.5 -40q-12 -16 -33 -18.5t-50 16.5l-227 156l-22 -22q-93 -89 -200 -146q-53 -31 -70.5 -3t12.5 49q85 56 149 131.5t82 123.5q4 6 -2 15t-20 12q-33 8 -30 35.5t36 27.5h79 q51 0 65 -26.5t8 -57.5z" />
<glyph unicode="&#xb059;" d="M106 716q-32 0 -32 47q0 46 36 46h230q50 0 49 -63q0 -78 -12 -175q-11 -93 -31 -136h217q-1 8 0 16q10 75 8 138.5t-3 126.5h-138q-31 0 -31 47q0 46 35 46h213q51 0 51 -58q0 -49 -13 -159q-12 -104 -32 -157h127q36 0 36 -48q0 -47 -36 -47h-736q-32 0 -32 47 q0 48 32 48h212q0 8 2 17q11 62 10 124.5t-1 139.5h-161zM178 66q0 84 67 145t168 61t168.5 -61t67.5 -145q0 -83 -67.5 -143.5t-168.5 -60.5t-168 60.5t-67 143.5zM525 66q0 46 -32.5 78.5t-80.5 32.5q-46 0 -78 -32.5t-32 -78.5q0 -45 32 -77t78 -32q48 0 80.5 32t32.5 77 z" />
<glyph unicode="&#xb05d;" d="M106 724q-32 0 -32 46q0 47 36 47h230q50 0 49 -64q0 -78 -12 -166q-10 -75 -27 -115h213v8q9 64 7.5 125t-2.5 119h-138q-31 0 -31 46q0 47 35 47h213q51 0 51 -59q0 -49 -13 -148q-11 -87 -29 -138h124q36 0 36 -46q0 -47 -36 -47h-736q-32 0 -32 47q0 46 32 46h213 q0 5 1 9q10 52 9.5 117.5t-0.5 125.5h-161zM637 142q37 0 37 -47q0 -43 -37 -43h-345v-57q0 -24 24 -24h344q32 0 32 -45q0 -47 -35 -47h-424q-62 0 -62 69v234q0 35 -2.5 42.5t-17.5 12.5q-14 7 -21.5 15.5t-7.5 24.5q0 35 26 35h500q35 0 35 -47q0 -44 -32 -44h-359v-79 h345z" />
<glyph unicode="&#xb07c;" horiz-adv-x="785" d="M46 618q-32 0 -32 47q0 46 33 46h417q23 0 36.5 -17t10.5 -44q-17 -157 -73.5 -275t-146.5 -211q-43 -44 -71.5 -22t-6.5 53q71 95 112 209.5t50 213.5h-73q-19 -112 -76.5 -219.5t-135.5 -176.5q-48 -48 -72 -20t2 61q54 61 100.5 165.5t56.5 189.5h-131zM594 736 q0 29 -6.5 36t-20.5 11q-23 5 -37 13t-14 25q0 39 44 39h104q52 0 52 -43v-839q0 -96 -92 -96h-30v854z" />
<glyph unicode="&#xb07d;" horiz-adv-x="785" d="M46 665q-32 0 -32 47q0 46 33 46h417q23 0 36.5 -18t10.5 -41q-15 -123 -80 -231t-143 -173q-45 -40 -71 -15.5t-1 52.5q60 70 105 159.5t54 173.5h-73q-20 -87 -80 -174.5t-130 -137.5q-52 -39 -71 -11.5t12 58.5q52 50 92 124t51 141h-130zM594 270v466q0 29 -6.5 36 t-20.5 11q-23 5 -37 13t-14 25q0 39 44 39h103q53 0 53 -47v-445q0 -98 -92 -98h-30zM209 142q-28 0 -28 47q0 46 29 46h457q42 0 42 -47v-221q0 -104 -89 -104h-36v279h-375z" />
<glyph unicode="&#xb080;" horiz-adv-x="785" d="M46 665q-32 0 -32 47q0 46 33 46h417q23 0 36.5 -18t11.5 -43q-16 -125 -76.5 -233.5t-147.5 -183.5q-45 -39 -71 -15.5t-1 52.5q66 73 108 168.5t51 179.5h-73q-18 -90 -77.5 -180t-132.5 -148q-50 -42 -70 -12.5t11 59.5q52 51 92 130t51 151h-130zM594 736 q0 29 -6.5 36t-20.5 11q-23 5 -37 13t-14 25q0 39 44 39h104q52 0 52 -46v-598q0 -96 -92 -96h-30v616zM721 -107h-370q-101 0 -101 91v114q0 29 -7 36t-22 12q-25 7 -32.5 15t-7.5 23q0 35 39 35h104q52 0 52 -46v-164q0 -22 18 -22h331q33 0 33 -47t-37 -47z" />
<glyph unicode="&#xb084;" horiz-adv-x="785" d="M46 675q-32 0 -32 47q0 46 33 46h417q23 0 37 -17.5t11 -43.5q-18 -117 -85.5 -212.5t-139.5 -146.5q-47 -33 -72 -10.5t1 49.5q63 61 106.5 143.5t52.5 144.5h-71q-28 -84 -86 -154t-126 -115q-57 -38 -71 -8t18 58q47 40 84.5 98.5t52.5 120.5h-130zM594 339v397 q0 29 -6.5 36t-20.5 11q-23 5 -37 13t-14 25q0 39 44 39h103q53 0 53 -47v-374q0 -100 -92 -100h-30zM702 -121h-388q-57 0 -57 69v78q0 23 -6.5 29.5t-14.5 10.5q-13 3 -20 11t-7 26q0 34 27 34h347v74h-323q-32 0 -32 47q0 46 33 46h408q40 0 40 -50v-151q0 -57 -41 -57 h-285v-56q0 -19 24 -19h300q31 0 31 -45q0 -47 -36 -47z" />
<glyph unicode="&#xb08c;" horiz-adv-x="785" d="M46 665q-32 0 -32 47q0 46 33 46h417q23 0 37 -16.5t11 -44.5q-16 -123 -81.5 -228.5t-143.5 -163.5q-46 -36 -70 -13.5t-1 50.5q66 72 108 159.5t51 163.5h-73q-23 -89 -81 -170.5t-129 -132.5q-52 -38 -71.5 -10.5t12.5 58.5q54 51 92.5 121t50.5 134h-130zM594 736 q0 29 -6.5 36t-20.5 11q-23 5 -37 13t-14 25q0 39 44 39h103q53 0 53 -47v-431q0 -98 -92 -98h-30v452zM379 -21h208v177h-208v-177zM660 249q49 0 49 -55v-153q0 -38 -13 -63q26 -6 26 -45q0 -47 -37 -47h-333q-23 -29 -65 -29h-30v255q0 40 -3 48.5t-15 13.5q-13 7 -21 15 t-8 24q0 36 42 36h408z" />
</font>
</defs>
</svg>
