<?xml version="1.0" standalone="no"?>
<!DOCTYPE svg PUBLIC "-//W3C//DTD SVG 1.1//EN" "http://www.w3.org/Graphics/SVG/1.1/DTD/svg11.dtd" >
<svg xmlns="http://www.w3.org/2000/svg">
<metadata></metadata>
<defs>
<font id="seoulhangangjangbregular" horiz-adv-x="822" >
<font-face units-per-em="1024" ascent="879" descent="-145" />
<missing-glyph horiz-adv-x="307" />
<glyph unicode=" "  horiz-adv-x="307" />
<glyph unicode="&#x09;" horiz-adv-x="307" />
<glyph unicode="&#xa0;" horiz-adv-x="307" />
<glyph unicode="!" horiz-adv-x="299" d="M92 801h115l-28 -568q-1 -13 -8.5 -20.5t-20.5 -7.5q-12 0 -20.5 7t-8.5 21zM220 61q0 -29 -20.5 -49.5t-49.5 -20.5q-30 0 -50.5 20.5t-20.5 49.5q0 28 20.5 48.5t50.5 20.5q29 0 49.5 -20.5t20.5 -48.5z" />
<glyph unicode="&#x22;" horiz-adv-x="379" d="M70 822h102l-14 -232q-1 -16 -12 -24.5t-24 -8.5q-14 -1 -24.5 8t-10.5 25zM207 822h102l-17 -232q0 -16 -11 -24.5t-25 -8.5t-24 8.5t-10 24.5z" />
<glyph unicode="#" horiz-adv-x="574" d="M485 725l-45 -196h110l-15 -58h-107l-33 -142h114l-17 -57h-110l-51 -226h-78l51 226h-88l-51 -226h-79l51 226h-106l16 57h103l32 142h-109l17 58h106l44 196h78l-44 -196h88l45 196h78zM316 329l33 142h-88l-33 -142h88z" />
<glyph unicode="$" horiz-adv-x="497" d="M210 29q-71 5 -114 36q-52 37 -59 104h102q0 -39 27 -62q16 -15 44 -21v289q-82 28 -119 69q-44 47 -44 122t53 125q43 41 110 47v73h58v-72q64 -5 104 -33q48 -35 62 -103h-101q-2 49 -28 68q-16 11 -37 15v-267q96 -35 136 -77q47 -49 47 -120q0 -92 -61 -143 q-50 -43 -122 -50v-78h-58v78zM268 86q32 9 55 36q32 38 32 92q0 58 -26 97q-21 28 -61 46v-271zM210 685q-27 -7 -43 -28q-27 -34 -27 -97q0 -57 27 -87q16 -19 43 -32v244z" />
<glyph unicode="%" horiz-adv-x="784" d="M498 734h66l-277 -703h-68zM27 508q0 80 37.5 140t112.5 60t113 -60t38 -140q0 -78 -38.5 -137t-112.5 -59q-75 0 -112.5 59t-37.5 137zM457 250q0 80 37.5 140.5t112.5 60.5t113 -60.5t38 -140.5q0 -78 -38.5 -137t-112.5 -59q-75 0 -112.5 59t-37.5 137zM105 508 q0 -61 20.5 -102.5t50.5 -41.5q31 0 52 41.5t21 102.5q0 64 -21 106.5t-52 42.5q-30 0 -50.5 -42.5t-20.5 -106.5zM536 250q0 -61 20.5 -102.5t49.5 -41.5q31 0 52 41.5t21 102.5q0 64 -21 106.5t-52 42.5q-29 0 -49.5 -42.5t-20.5 -106.5z" />
<glyph unicode="&#x26;" horiz-adv-x="762" d="M325 271q-26 40 -69 120q-47 -31 -72 -66q-37 -51 -32 -111q4 -63 37 -96.5t77 -35.5q38 -2 81 18q31 14 66 47q-54 67 -88 124zM224 449q-43 89 -44 152q-1 69 43.5 114t121.5 42q62 -2 101 -41t39 -100q0 -64 -42 -107q-37 -39 -118 -82q37 -69 59 -105q32 -51 78 -118 q17 26 33 58q22 51 22 80q0 22 -7.5 33.5t-37.5 11.5q-16 0 -16 21.5t15 21.5h182q21 0 21 -21.5t-22 -21.5q-26 0 -38 -7t-20 -44q-28 -104 -90 -187q46 -54 91 -63q16 -3 35 2t38 14q29 16 43.5 -4t-6.5 -36q-15 -11 -44.5 -23.5t-70.5 -12.5q-71 0 -133 68 q-84 -84 -189 -84q-92 0 -146.5 58t-54.5 141q0 86 53 152q40 49 104 88zM294 486q67 36 93 63q29 32 29 62q0 36 -20.5 58.5t-55.5 22.5q-36 0 -57.5 -22.5t-21.5 -68.5q0 -47 33 -115z" />
<glyph unicode="'" horiz-adv-x="298" d="M96 822h106l-15 -232q-1 -16 -12 -24.5t-25 -8.5q-15 -1 -26 8t-12 25z" />
<glyph unicode="(" horiz-adv-x="348" d="M86 351q0 173 58 292.5t136 167.5q24 15 35.5 -2.5t-4.5 -31.5q-70 -68 -102 -174.5t-31 -251.5q-1 -146 31 -252.5t102 -173.5q16 -15 4.5 -32.5t-35.5 -2.5q-78 48 -136 168t-58 293z" />
<glyph unicode=")" horiz-adv-x="348" d="M262 351q0 -173 -58 -293t-136 -168q-24 -15 -35 2.5t3 32.5q70 67 102.5 173.5t31.5 252.5q1 145 -31.5 251.5t-102.5 174.5q-14 14 -3 31.5t35 2.5q78 -48 136 -167.5t58 -292.5z" />
<glyph unicode="*" horiz-adv-x="348" d="M174 568q-7 -14 -13 -47.5t-18 -51.5q-10 -17 -23.5 -22.5t-29.5 3.5q-14 9 -16 24t8 32q9 17 34.5 39.5t34.5 35.5q-14 0 -47 -12t-55 -12q-19 0 -31 9.5t-12 27.5t12 27.5t31 9.5q22 0 54.5 -11t47.5 -12q-8 13 -34 35.5t-35 37.5q-10 19 -8 33.5t17 24.5q14 8 28 3 t24 -24q12 -16 18 -50t13 -47q7 14 13.5 47.5t17.5 49.5q9 19 23 24t28 -3q15 -10 17.5 -24.5t-7.5 -33.5q-9 -15 -35 -37.5t-33 -35.5q14 1 47 12t53 11t32 -9.5t12 -27.5t-12 -27.5t-32 -9.5t-53.5 12t-46.5 12q8 -13 33.5 -35.5t34.5 -39.5q10 -17 7.5 -32t-16.5 -24 q-15 -9 -29 -3.5t-23 22.5q-11 18 -17.5 51t-13.5 48z" />
<glyph unicode="+" horiz-adv-x="528" d="M222 369h-182v65h182v206h81v-206h183v-65h-183v-224h-81v224z" />
<glyph unicode="," horiz-adv-x="281" d="M70 61q0 28 20.5 48.5t49.5 20.5t50 -20.5t25 -46.5q7 -52 -18 -101.5t-74 -78.5q-20 -13 -33 -1t5 26q17 14 29.5 33t17.5 45q2 9 -10 9q-23 0 -42.5 19.5t-19.5 46.5z" />
<glyph unicode="-" horiz-adv-x="379" d="M41 440h297v-77h-297v77z" />
<glyph unicode="." horiz-adv-x="281" d="M211 61q0 -29 -20.5 -49.5t-50.5 -20.5q-29 0 -49.5 20.5t-20.5 49.5q0 28 20.5 48.5t49.5 20.5q30 0 50.5 -20.5t20.5 -48.5z" />
<glyph unicode="/" horiz-adv-x="375" d="M284 819h73l-266 -938h-75z" />
<glyph unicode="0" horiz-adv-x="461" d="M24 383q0 178 55 273.5t151 95.5q97 0 152 -95.5t55 -273.5q0 -177 -55 -272.5t-152 -95.5q-96 0 -151 95.5t-55 272.5zM115 383q0 -158 34 -230.5t81 -72.5q48 0 82 72.5t34 230.5q0 159 -34 231t-82 72q-47 0 -81 -72t-34 -231z" />
<glyph unicode="1" horiz-adv-x="461" d="M152 625l-19 -7q-23 -11 -34 9.5t9 31.5l144 90h43v-727h-88v560q0 34 -13 44.5t-42 -1.5z" />
<glyph unicode="2" horiz-adv-x="461" d="M34 77q15 18 38 41q61 65 152.5 203t91.5 231q0 65 -28 99.5t-83 34.5q-38 0 -67 -26.5t-36 -80.5h-72q8 87 59.5 131t119.5 44q93 0 145.5 -56t52.5 -150q0 -84 -73.5 -206.5t-179.5 -245.5h126q39 0 62.5 9.5t33.5 59.5q3 20 25 17t22 -18l-10 -136h-379v49z" />
<glyph unicode="3" horiz-adv-x="461" d="M316 401q49 -21 78 -71.5t26 -112.5q-4 -86 -63.5 -143.5t-173.5 -58.5q-38 0 -79.5 11t-72.5 34v75q43 -32 82 -41t66 -9q66 0 107.5 38t41.5 111q0 53 -15 75.5t-35 37.5q-22 14 -45 17.5t-43 3.5q-27 0 -26 32.5t33 32.5q11 0 23 0.5t25 4.5q31 9 54 39.5t25 85.5 q2 62 -32.5 92t-84.5 30q-38 0 -65 -21.5t-36 -64.5h-70q10 72 58.5 112.5t120.5 40.5q87 0 142 -53.5t55 -132.5q0 -64 -32 -109.5t-64 -55.5z" />
<glyph unicode="4" horiz-adv-x="461" d="M275 226h-262v62l259 464h88v-460h87v-66h-87v-199h-85v199zM97 292h178v323z" />
<glyph unicode="5" horiz-adv-x="461" d="M139 439q24 18 59.5 23t62.5 3q68 -4 118.5 -57t50.5 -149q0 -105 -63 -170.5t-168 -69.5q-44 -2 -88.5 10.5t-73.5 33.5v65q57 -31 103.5 -39t75.5 -1q58 13 93.5 58t35.5 119q0 63 -30 97.5t-78 37.5q-31 2 -57 -9.5t-49 -42.5h-79l18 393h317v-68h-239z" />
<glyph unicode="6" horiz-adv-x="461" d="M120 398q10 13 24 25q41 38 111 39q85 0 136 -62t51 -160q0 -101 -55.5 -162.5t-157.5 -62.5q-93 -1 -146 73t-53 249q0 144 26.5 227.5t71.5 129.5q52 54 134 57.5t140 -37.5v-64q-47 25 -76 30.5t-47 5.5q-64 0 -112 -74q-41 -64 -47 -214zM120 280q5 -109 33 -151 q33 -53 81 -53q53 0 86 41.5t33 118.5q0 85 -31 123t-70 38q-48 0 -91 -49q-24 -28 -41 -68z" />
<glyph unicode="7" horiz-adv-x="461" d="M333 671h-191q-22 0 -39 -14.5t-24 -57.5q-4 -23 -25.5 -22.5t-21.5 26.5l3 133h396v-46l-223 -669h-87z" />
<glyph unicode="8" horiz-adv-x="461" d="M41 565q0 88 51.5 137.5t137.5 49.5t138 -51.5t52 -139.5q0 -82 -51 -131q-18 -15 -37 -25q26 -14 48 -36q55 -59 55 -146q0 -101 -56.5 -155t-148.5 -54q-91 0 -147.5 54t-56.5 155q0 87 56 146q21 23 48 36q-20 11 -37 28q-52 50 -52 132zM114 223q0 -71 33.5 -108 t82.5 -37q50 0 83.5 37t33.5 108q0 70 -33.5 109t-83.5 39q-49 0 -82.5 -39t-33.5 -109zM128 565q0 -62 29.5 -95.5t72.5 -33.5t73 31.5t30 93.5q0 61 -30 94t-73 33t-72.5 -31t-29.5 -92z" />
<glyph unicode="9" horiz-adv-x="461" d="M339 367q-13 -17 -33 -32q-41 -28 -96 -28q-85 0 -135 61.5t-50 160.5q0 101 53 162.5t150 62.5q87 1 142.5 -84.5t55.5 -272.5q0 -112 -27 -200t-77 -130q-54 -47 -131 -50t-136 38v65q46 -25 75.5 -29.5t47.5 -4.5q68 0 115 69q42 61 46 212zM337 471q-6 104 -31 152 q-34 65 -82 68q-50 3 -80 -43.5t-30 -115.5q0 -85 32.5 -122.5t70.5 -37.5q43 0 83 39q25 24 37 60z" />
<glyph unicode=":" horiz-adv-x="298" d="M220 536q0 -29 -20.5 -49.5t-49.5 -20.5q-30 0 -50.5 20.5t-20.5 49.5t20.5 49.5t50.5 20.5q29 0 49.5 -20.5t20.5 -49.5zM220 163q0 -28 -20.5 -48.5t-49.5 -20.5q-30 0 -50.5 20.5t-20.5 48.5q0 29 20.5 49.5t50.5 20.5q29 0 49.5 -20.5t20.5 -49.5z" />
<glyph unicode=";" horiz-adv-x="298" d="M220 536q0 -29 -20.5 -49.5t-49.5 -20.5q-30 0 -50.5 20.5t-20.5 49.5t20.5 49.5t50.5 20.5q29 0 49.5 -20.5t20.5 -49.5zM79 162q0 29 20.5 49.5t50.5 20.5q28 0 49 -20.5t25 -47.5q7 -52 -18 -101t-74 -79q-19 -12 -32.5 -0.5t4.5 26.5q17 13 29.5 32.5t18.5 44.5 q2 10 -11 10q-23 0 -42.5 19.5t-19.5 45.5z" />
<glyph unicode="&#x3c;" horiz-adv-x="528" d="M90 343v70l400 361v-94l-331 -302l331 -302v-93z" />
<glyph unicode="=" horiz-adv-x="528" d="M41 335h446v-68h-446v68zM41 536h446v-69h-446v69z" />
<glyph unicode="&#x3e;" horiz-adv-x="528" d="M438 343l-400 -360v93l332 302l-332 302v94l400 -361v-70z" />
<glyph unicode="?" horiz-adv-x="465" d="M165 304q0 47 16.5 80t45.5 69l56 65q21 26 35.5 49t14.5 68q0 56 -29.5 83.5t-76.5 27.5q-36 0 -62.5 -27t-26.5 -74h-94q0 64 50 111.5t132 47.5q91 0 143 -48t52 -126q0 -48 -15 -82t-56 -81q-70 -73 -85 -90.5t-22 -32.5q-6 -12 -9 -24.5t-3 -42.5v-56 q0 -14 -10.5 -22.5t-23.5 -8.5q-14 0 -23 8t-9 23v83zM272 61q0 -29 -20.5 -49.5t-49.5 -20.5q-30 0 -50.5 20.5t-20.5 49.5q0 28 20.5 48.5t50.5 20.5q29 0 49.5 -20.5t20.5 -48.5z" />
<glyph unicode="@" horiz-adv-x="911" d="M769 -4q-46 -56 -129.5 -94t-177.5 -38q-199 0 -299 123t-90 286q11 203 130.5 344t288.5 141q158 0 256.5 -102t91.5 -289q-4 -115 -61.5 -208t-148.5 -130q-57 -22 -96.5 -4.5t-36.5 45.5l-36.5 -19.5t-76.5 -19.5q-71 0 -106 53t-31 117q8 125 82 230.5t170 105.5 q53 0 83.5 -24.5t31.5 -32.5l12 35h51q32 0 20 -33l-110 -328q-15 -50 5 -61.5t61 17.5q50 34 81.5 103t35.5 150q8 162 -70 246t-196 85q-130 1 -228.5 -103.5t-118.5 -269.5q-24 -184 62.5 -289.5t245.5 -105.5q77 0 144.5 26.5t113.5 74.5q20 17 40 2.5t6 -33.5zM329 207 q-8 -57 14 -83.5t49 -27.5q34 -1 71.5 34.5t61.5 101.5q24 59 36 107t12 69q0 24 -17 44t-51 20q-51 0 -106.5 -79.5t-69.5 -185.5z" />
<glyph unicode="A" horiz-adv-x="546" d="M457 28l-74 230h-228l-73 -230h-83l192 592q16 52 12 60.5t-24 13.5q-17 4 -27.5 9.5t-10.5 18.5q0 23 30 23h139l240 -717h-93zM361 324l-94 294l-92 -294h186z" />
<glyph unicode="B" horiz-adv-x="562" d="M172 646v-206h109q61 0 95.5 29.5t34.5 93.5q0 56 -40 87.5t-98 31.5h-56q-45 0 -45 -36zM172 128q0 -37 45 -37h58q70 0 118.5 34.5t48.5 100.5q0 76 -45.5 112t-114.5 36h-110v-246zM293 28h-207v607q0 30 -7.5 43.5t-20.5 16.5q-18 5 -26.5 11t-8.5 17q0 22 27 22h232 q103 0 161 -44.5t58 -128.5q0 -60 -30.5 -102t-73.5 -58q60 -15 97.5 -62.5t37.5 -123.5q0 -90 -59.5 -144t-179.5 -54z" />
<glyph unicode="C" horiz-adv-x="582" d="M544 71q-23 -16 -67 -31t-93 -18q-159 -10 -257 98t-98 281q0 157 77.5 257t223.5 100q93 0 158 -51t65 -114h-95q-2 40 -39.5 68.5t-90.5 28.5q-87 0 -146.5 -75.5t-59.5 -196.5q0 -182 87 -259t192 -66q35 3 63.5 11.5t47.5 20.5q13 9 27 6t20 -15t0.5 -24.5 t-15.5 -20.5z" />
<glyph unicode="D" horiz-adv-x="596" d="M86 635q0 31 -6.5 44t-21.5 17t-24 9.5t-9 17.5q0 22 28 22h133q38 0 87 -2.5t81 -8.5q93 -18 153 -101.5t60 -249.5q0 -115 -29.5 -182.5t-78.5 -106.5q-46 -36 -103 -51t-138 -15h-132v607zM252 91q102 0 163.5 71t61.5 221q0 146 -51 222.5t-160 76.5h-48 q-45 0 -45 -37v-517q0 -37 45 -37h34z" />
<glyph unicode="E" horiz-adv-x="532" d="M173 430h129q45 0 66 16t21 45q0 15 22.5 15t22.5 -15v-184q0 -16 -22.5 -16t-22.5 16q0 28 -21.5 45.5t-65.5 17.5h-129v-242q0 -37 45 -37h144q45 0 58.5 22.5t18.5 46.5q4 22 27 20t23 -22l-7 -130h-396v607q0 31 -6.5 44t-19.5 16q-18 5 -26.5 10.5t-8.5 17.5 q0 22 28 22h414l5 -121q0 -21 -23 -22t-25 22q-2 18 -17 38t-63 20h-126q-45 0 -45 -37v-215z" />
<glyph unicode="F" horiz-adv-x="497" d="M173 435h129q45 0 66 15.5t21 44.5q0 15 22.5 15t22.5 -15v-184q0 -16 -22.5 -16t-22.5 16q0 28 -21.5 45.5t-66.5 17.5h-128v-346h-87v607q0 31 -6.5 44t-21.5 17t-24 9.5t-9 17.5q0 22 28 22h414l5 -121q0 -21 -21.5 -22t-26.5 21q-7 29 -20.5 44.5t-59.5 15.5h-126 q-45 0 -45 -38v-210z" />
<glyph unicode="G" horiz-adv-x="600" d="M551 370v-293q-69 -47 -177.5 -53.5t-182.5 37.5q-70 43 -115.5 125.5t-46.5 207.5q-1 163 77 263.5t224 100.5q93 0 158 -51t65 -114h-93q-2 40 -40.5 68.5t-91.5 28.5q-84 0 -146 -71.5t-62 -208.5q0 -151 64.5 -231.5t167.5 -84.5q20 -1 50 1.5t62 14.5v155 q0 55 -20 70.5t-78 15.5q-21 0 -21 26t21 26h153q32 0 32 -33z" />
<glyph unicode="H" horiz-adv-x="608" d="M173 28h-87v606q0 30 -6 43.5t-20 16.5q-18 4 -30.5 8.5t-12.5 18.5q0 23 30 23h93q33 0 33 -32v-272h278v305h87v-717h-87v346h-278v-346z" />
<glyph unicode="I" horiz-adv-x="246" d="M174 28h-87v607q0 30 -6 43.5t-20 16.5q-18 4 -30.5 9t-12.5 18q0 23 30 23h93q33 0 33 -32v-685z" />
<glyph unicode="J" horiz-adv-x="409" d="M252 221v414q0 30 -6 43.5t-21 16.5q-16 3 -29 8t-13 19q0 23 30 23h93q33 0 33 -32v-494q0 -105 -48.5 -151t-126.5 -46q-83 0 -127.5 35t-44.5 107h88q1 -43 23 -60.5t60 -17.5q41 0 65 30.5t24 104.5z" />
<glyph unicode="K" horiz-adv-x="514" d="M175 28h-87v606q0 30 -6 43.5t-20 16.5q-18 4 -30.5 8.5t-12.5 18.5q0 23 30 23h93q33 0 33 -32v-269l238 301h55q15 0 20 -11.5t-6 -22.5l-234 -291l294 -391h-104l-263 355v-355z" />
<glyph unicode="L" horiz-adv-x="478" d="M174 137q0 -39 45 -39h135q39 0 55 16.5t22 62.5q3 21 26.5 19.5t23.5 -22.5l-7 -146h-387v606q0 30 -6 43.5t-21 16.5q-16 3 -29 8t-13 19q0 23 30 23h93q33 0 33 -32v-575z" />
<glyph unicode="M" horiz-adv-x="758" d="M211 745l170 -590l176 590h133v-717h-84v615l-178 -576q-7 -23 -18.5 -31t-27.5 -8h-49l-171 593v-593h-78v607q0 30 -4 42.5t-19 17.5q-16 6 -25 10t-9 17q0 23 29 23h155z" />
<glyph unicode="N" horiz-adv-x="608" d="M191 745l265 -549v549h82v-672q0 -45 -45 -45h-41l-289 586v-586h-77v607q0 30 -3.5 42.5t-19.5 17.5t-26 9.5t-10 17.5q0 23 32 23h132z" />
<glyph unicode="O" horiz-adv-x="653" d="M29 391q0 162 79.5 264.5t218.5 102.5q138 0 218 -102.5t80 -264.5q0 -163 -80 -266t-218 -103q-139 0 -218.5 103t-79.5 266zM120 391q0 -143 57 -221.5t150 -78.5q92 0 149.5 78.5t57.5 221.5q0 142 -57.5 221t-149.5 79q-93 0 -150 -79t-57 -221z" />
<glyph unicode="P" horiz-adv-x="525" d="M60 695q-18 5 -26.5 11t-8.5 17q0 22 28 22h225q109 0 171 -54t62 -144q0 -104 -67 -156.5t-179 -52.5h-48q-22 0 -22 32t21 32h44q72 0 116.5 37t44.5 108q1 62 -42 99t-99 37h-62q-45 0 -45 -38v-617h-87v607q0 31 -6 43.5t-20 16.5z" />
<glyph unicode="Q" horiz-adv-x="653" d="M388 27q12 -29 53 -48q48 -24 140 -7v-49q-28 -8 -48.5 -10t-46.5 -2q-86 0 -141 32q-49 28 -76 84q-98 17 -160 98q-80 103 -80 266q0 162 79.5 264.5t218.5 102.5q138 0 218 -102.5t80 -264.5q0 -163 -80 -266q-62 -80 -157 -98zM120 391q0 -143 57 -221.5t150 -78.5 q92 0 149.5 78.5t57.5 221.5q0 142 -57.5 221t-149.5 79q-93 0 -150 -79t-57 -221z" />
<glyph unicode="R" horiz-adv-x="525" d="M280 683h-62q-45 0 -45 -38v-617h-87v607q0 31 -6.5 44t-19.5 16q-18 5 -26.5 11t-8.5 17q0 22 28 22h225q109 0 171 -53t62 -143q0 -98 -59 -151.5t-144 -57.5l204 -312h-105l-205 319q-16 21 -8 38t31 17h39q68 0 112.5 38t44.5 109q1 62 -42 98t-99 36z" />
<glyph unicode="S" horiz-adv-x="461" d="M338 226q-3 44 -37 78t-106 72q-79 40 -121.5 90.5t-40.5 124.5q2 73 55.5 120t142.5 47q51 0 85 -6.5t73 -17.5v-80q-41 17 -80.5 28t-77.5 11q-43 0 -75.5 -28.5t-32.5 -77.5q0 -45 37 -79.5t114 -75.5q78 -42 116.5 -92t38.5 -116q0 -83 -57 -140.5t-163 -62.5 q-39 -2 -83.5 7t-72.5 27q-17 11 -25 24t0 30q7 16 24 21t33 -6q21 -13 57.5 -22.5t68.5 -7.5q67 4 99 41t28 91z" />
<glyph unicode="T" horiz-adv-x="520" d="M131 682q-49 0 -64 -30t-16 -53q-1 -22 -25.5 -21.5t-24.5 21.5l5 146h507l5 -146q0 -21 -24.5 -21.5t-25.5 21.5q-1 24 -16 53.5t-64 29.5h-85v-654h-87v654h-85z" />
<glyph unicode="U" horiz-adv-x="611" d="M86 293v341q0 30 -6 43.5t-21 16.5q-16 3 -29 8t-13 19q0 23 30 23h93q33 0 33 -32v-404q0 -106 33.5 -161t109.5 -55q72 0 111 48.5t39 165.5v439h81v-439q0 -157 -63 -220.5t-168 -63.5t-167.5 65.5t-62.5 205.5z" />
<glyph unicode="V" horiz-adv-x="568" d="M32 696q-14 5 -23 9.5t-9 17.5q0 22 30 22h92l189 -573l187 573h46q18 0 24 -10.5t1 -26.5l-229 -682h-68l-200 594q-14 39 -21 55t-19 21z" />
<glyph unicode="W" horiz-adv-x="778" d="M647 26h-78l-148 583l-151 -583h-87l-110 594q-8 39 -17.5 56t-22.5 22q-14 5 -23 10.5t-9 16.5q0 20 30 20h107l100 -553l138 553h94l138 -552l94 552h55q12 0 17.5 -6t3.5 -20z" />
<glyph unicode="X" horiz-adv-x="497" d="M204 398l-115 221q-19 40 -33 56.5t-27 20.5t-22 8.5t-9 18.5q0 22 29 22h95l133 -266l143 266h51q16 0 22.5 -12t-2.5 -26l-168 -298l203 -381h-101l-153 294l-153 -294h-92z" />
<glyph unicode="Y" horiz-adv-x="527" d="M282 442l176 303h46q17 0 21.5 -11.5t-3.5 -24.5l-201 -343v-338h-88v338l-150 253q-24 39 -33 54.5t-18 21.5q-12 7 -22 11.5t-10 16.5q0 22 30 22h82z" />
<glyph unicode="Z" horiz-adv-x="523" d="M26 80l341 601h-197q-48 0 -60.5 -21t-17.5 -59q-3 -21 -27.5 -21t-23.5 24l5 141h427v-51l-346 -602h224q56 0 68 28t15 61q2 21 27 21t25 -22l-4 -152h-456v52z" />
<glyph unicode="[" horiz-adv-x="326" d="M175 -3q0 -60 49 -60h42q26 0 26 -29q0 -27 -28 -27h-146q-32 0 -32 29v879q0 30 32 30h146q28 0 28 -28q0 -29 -26 -29h-42q-49 0 -49 -60v-705z" />
<glyph unicode="\" horiz-adv-x="911" d="M869 366h-128l-64 -337h-75l-86 337h-109l-86 -337h-84l-63 337h-126v67h114l-30 159q-8 37 -17 53t-22 21q-11 4 -20.5 9t-9.5 18q0 18 29 18h103l50 -278h104l71 278h89l71 -278h101l48 278h52q11 0 17 -5t4 -20l-48 -253h115v-67zM670 366h-74l44 -172zM333 366h-76 l32 -173zM424 433h76l-38 147z" />
<glyph unicode="]" horiz-adv-x="326" d="M151 -3v705q0 60 -50 60h-42q-25 0 -25 29q0 28 26 28h148q32 0 32 -30v-879q0 -29 -31 -29h-143q-32 2 -32 29t25 27h42q50 0 50 60z" />
<glyph unicode="^" horiz-adv-x="433" d="M177 768h81l138 -245h-88l-90 167l-93 -167h-88z" />
<glyph unicode="_" horiz-adv-x="461" d="M-5 -26h472v-62h-472v62z" />
<glyph unicode="`" horiz-adv-x="281" d="M74 706q-12 21 -6 38t18 25q15 10 35.5 8t33.5 -21l51 -143q8 -23 -14 -34t-38 11z" />
<glyph unicode="a" horiz-adv-x="483" d="M346 84q-12 -19 -51.5 -41t-101.5 -22q-63 0 -105.5 38t-42.5 101q0 84 75 133t193 49h33v27q0 54 -28.5 84.5t-77.5 30.5q-43 0 -70.5 -20.5t-27.5 -63.5h-91q0 66 53.5 105.5t138.5 39.5q89 0 138.5 -46.5t49.5 -128.5v-342h-85v56zM346 278q-108 3 -162 -27t-54 -81 q0 -43 24 -62t57 -19q48 0 91.5 35.5t43.5 89.5v64z" />
<glyph unicode="b" horiz-adv-x="512" d="M393 278q0 93 -33 147t-94 54q-42 0 -76.5 -40.5t-34.5 -105.5v-95q0 -84 35 -120t79 -36q50 0 87 51.5t37 144.5zM154 490q50 55 130 55q91 0 143 -71.5t52 -192.5q0 -113 -54.5 -186.5t-149.5 -73.5q-82 0 -128 52q-15 -45 -61 -45h-16v630q0 30 -6 42.5t-19 17.5 q-15 6 -24.5 10t-9.5 17q0 22 30 22h80q33 0 33 -31v-246z" />
<glyph unicode="c" horiz-adv-x="483" d="M424 53q-28 -17 -68.5 -25.5t-89.5 -5.5q-95 6 -164 77.5t-69 201.5q0 115 62 179.5t163 64.5q81 0 131.5 -41t55.5 -103h-89q0 37 -26.5 60t-76.5 23t-90 -46.5t-40 -136.5q0 -95 44.5 -152.5t118.5 -65.5q27 -3 57 2.5t58 18.5q16 8 27 2.5t15 -13.5q4 -12 -2 -23 t-17 -17z" />
<glyph unicode="d" horiz-adv-x="512" d="M119 278q0 -93 35 -144t87 -51q49 0 82.5 50.5t33.5 134.5v65q0 68 -35.5 107t-84.5 39q-50 0 -84 -50.5t-34 -150.5zM358 77q-46 -56 -121 -56q-97 0 -150.5 73.5t-53.5 186.5q0 121 53 192.5t142 71.5q81 0 130 -48v161q0 30 -5.5 43t-18.5 17q-16 4 -25 9t-9 18 q0 22 30 22h80q32 0 32 -31v-708h-84v49z" />
<glyph unicode="e" horiz-adv-x="483" d="M124 268q3 -73 45.5 -125t116.5 -60q27 -3 57 2.5t58 18.5q16 8 27.5 2.5t14.5 -14.5q3 -11 -2.5 -22t-16.5 -17q-28 -17 -68.5 -25.5t-89.5 -5.5q-95 6 -164 77.5t-69 201.5q0 115 62 179.5t161 64.5q83 0 139.5 -59t56.5 -178v-40h-328zM124 331h242q0 80 -32.5 116.5 t-78.5 36.5q-53 0 -91 -42.5t-40 -110.5z" />
<glyph unicode="f" horiz-adv-x="344" d="M95 471h-85v61h85v111q0 63 36.5 97.5t99.5 34.5q67 0 102.5 -35t36.5 -89h-84q-1 29 -15.5 48.5t-41.5 18.5q-19 -1 -34 -20t-15 -64v-102h135v-61h-135v-443h-85v443z" />
<glyph unicode="g" horiz-adv-x="512" d="M118 279q0 -82 35 -126.5t86 -44.5q47 0 83 39.5t36 120.5v65q0 68 -36 107t-85 39q-50 0 -84.5 -48t-34.5 -152zM359 98q-46 -53 -122 -53q-96 0 -150 69.5t-54 166.5q0 121 53 192.5t142 71.5q81 0 131 -58q1 45 44 45h67q30 0 30 -21q0 -12 -15 -17t-25 -8 q-8 -2 -12.5 -11t-4.5 -48v-375q0 -92 -50 -144t-152 -52q-98 0 -140.5 38.5t-46.5 100.5h85q2 -35 27 -57t82 -22q49 0 80 33.5t31 95.5v53z" />
<glyph unicode="h" horiz-adv-x="512" d="M155 28h-85v630q0 30 -6 42.5t-17 16.5q-16 6 -26 10.5t-10 17.5q0 22 30 22h81q33 0 33 -31v-286q19 32 52 56q45 34 105 34t101 -45t41 -156v-311h-85v314q0 69 -20.5 96t-56.5 27q-48 -1 -93 -57q-32 -40 -44 -108v-272z" />
<glyph unicode="i" horiz-adv-x="230" d="M164 28h-86v394q0 30 -5.5 43.5t-19.5 17.5q-15 5 -24.5 10t-9.5 16q0 23 30 23h82q33 0 33 -33v-471zM176 698q0 -27 -19 -46t-46 -19q-28 0 -47 19t-19 46q0 26 19 45t47 19q27 0 46 -19t19 -45z" />
<glyph unicode="j" horiz-adv-x="263" d="M198 40q0 -104 -38.5 -144t-107.5 -40q-73 0 -108.5 36.5t-35.5 96.5h88q0 -44 17 -60.5t39 -16.5q31 0 45.5 26.5t14.5 101.5v382q0 30 -6 43.5t-17 16.5q-16 4 -26 9t-10 18q0 23 30 23h82q33 0 33 -33v-459zM213 698q0 -27 -19 -46t-47 -19q-27 0 -46 19t-19 46 q0 26 19 45t46 19q28 0 47 -19t19 -45z" />
<glyph unicode="k" horiz-adv-x="456" d="M155 28h-85v630q0 30 -6 43t-17 16q-16 4 -26 9.5t-10 18.5q0 22 30 22h81q33 0 33 -31v-392l191 188h101l-221 -211l242 -293h-102l-211 252v-252z" />
<glyph unicode="l" horiz-adv-x="230" d="M164 28h-86v630q0 30 -5.5 43t-19.5 17q-15 5 -24.5 10.5t-9.5 16.5q0 22 30 22h82q33 0 33 -31v-708z" />
<glyph unicode="m" horiz-adv-x="731" d="M154 28h-84v394q0 30 -6 43.5t-19 17.5q-15 4 -24.5 8.5t-9.5 17.5q0 23 30 23h80q33 0 33 -33v-41q12 23 34 44q40 37 99 38q59 0 93 -41q16 -21 26 -59q12 32 39 59q40 41 101 41q59 0 93 -43.5t34 -153.5v-315h-84v312q0 68 -17 98t-47 30q-37 0 -78 -61 q-27 -42 -33 -99v-280h-84v312q0 69 -15.5 98.5t-48.5 29.5q-39 -1 -77 -58q-30 -45 -35 -102v-280z" />
<glyph unicode="n" horiz-adv-x="512" d="M154 28h-83v394q0 30 -5.5 43.5t-18.5 16.5q-16 4 -26 9t-10 18q0 23 30 23h80q33 0 33 -33v-51q19 34 53 58q45 34 105 34t101 -45t41 -156v-311h-85v314q0 69 -20.5 96t-56.5 27q-48 -1 -93 -57q-33 -42 -45 -114v-266z" />
<glyph unicode="o" horiz-adv-x="512" d="M31 283q0 117 60 189.5t165 72.5t165 -72.5t60 -189.5t-60 -189.5t-165 -72.5t-165 72.5t-60 189.5zM123 283q0 -101 38 -151t95 -50t95 50t38 151t-38 151t-95 50t-95 -50t-38 -151z" />
<glyph unicode="p" horiz-adv-x="512" d="M70 422q0 30 -6 43.5t-17 16.5q-18 5 -27 10.5t-9 16.5q0 23 30 23h80q33 0 33 -32v-10q50 55 130 55q91 0 143 -71.5t52 -192.5q0 -113 -54.5 -186.5t-149.5 -73.5q-76 0 -121 45v-210h-84v566zM393 278q0 93 -33 147t-94 54q-42 0 -76.5 -40.5t-34.5 -105.5v-95 q0 -84 35 -120t79 -36q50 0 87 51.5t37 144.5z" />
<glyph unicode="q" horiz-adv-x="512" d="M119 278q0 -101 34.5 -146t83.5 -45q44 0 80.5 45.5t36.5 128.5v72q0 65 -36 105.5t-78 40.5q-59 0 -90 -50t-31 -151zM357 85q-48 -64 -127 -64q-95 0 -146 73.5t-51 186.5q0 121 53 192.5t144 71.5q82 0 130 -55q5 16 14 31q17 24 36 24h32v-689h-85v229z" />
<glyph unicode="r" horiz-adv-x="361" d="M81 422q0 30 -5 43.5t-20 17.5t-24 9.5t-9 16.5q0 23 29 23h78q34 0 34 -33v-39q16 29 45 50q40 30 100 30h38v-85q-80 17 -136 -26q-33 -24 -47 -75v-326h-83v394z" />
<glyph unicode="s" horiz-adv-x="418" d="M198 258q-73 28 -115 65.5t-42 87.5q0 64 44.5 101t129.5 39q36 1 71 -5.5t67 -18.5v-90q-35 26 -68.5 39.5t-69.5 12.5q-42 -1 -66 -17.5t-25 -48.5q-1 -29 30 -52t88 -44q76 -29 110 -65t34 -83q0 -75 -50.5 -116.5t-138.5 -41.5q-43 0 -82 13.5t-60 28.5 q-18 14 -21.5 25t2.5 24q9 16 25 17.5t29 -8.5q20 -16 49 -27t59 -10q60 2 84.5 29t20.5 65q-2 19 -24 39t-81 41z" />
<glyph unicode="t" horiz-adv-x="326" d="M170 700v-168h134v-61h-133v-320q0 -38 16 -53.5t52 -15.5q18 0 34 1t40 8v-62q-21 -7 -50 -9t-43 -2q-45 0 -72 9.5t-42 29.5q-14 19 -17 48.5t-3 64.5v301h-73v61h73v85z" />
<glyph unicode="u" horiz-adv-x="512" d="M452 28h-85v78q-15 -25 -39 -45q-47 -40 -114 -40q-58 0 -101 45t-43 154v202q0 30 -6 43.5t-17 16.5q-16 4 -26 9t-10 18q0 23 30 23h81q33 0 33 -32v-281q0 -69 21 -96.5t56 -27.5q58 0 97 52q32 45 38 117v158q0 30 -6 43.5t-19 17.5q-15 5 -24.5 10t-9.5 16 q0 23 30 23h81q33 0 33 -33v-471z" />
<glyph unicode="v" horiz-adv-x="466" d="M257 161l130 371h41q22 0 27.5 -12t0.5 -26l-175 -469h-54l-173 424q-7 16 -12 26.5t-14 13.5q-15 4 -22.5 7.5t-7.5 17.5q0 18 29 18h87z" />
<glyph unicode="w" horiz-adv-x="636" d="M498 25h-63l-111 373l-104 -373h-61l-111 423q-5 16 -8.5 26t-12.5 15q-11 5 -19.5 9t-8.5 15q0 19 27 19h83l86 -351l93 346h77l101 -348l90 353h44q12 0 19 -7t4 -22z" />
<glyph unicode="x" horiz-adv-x="442" d="M416 500l-142 -203l176 -269h-95l-130 198l-137 -198h-83l177 264l-93 142q-10 15 -23.5 33.5t-23.5 21.5q-17 6 -24 11t-7 15q0 17 30 17h81l108 -167l113 167h55q16 0 21 -10.5t-3 -21.5z" />
<glyph unicode="y" horiz-adv-x="436" d="M89 -141q-47 9 -74 45t-27 96h83q0 -22 3.5 -36.5t7.5 -20.5q6 -9 19.5 -16t28.5 -4q20 3 33 23t25 56l20 58l-134 347q-11 32 -21.5 55t-23.5 27q-12 3 -21 7t-9 16q0 20 29 20h91l129 -352l119 352h47q15 0 21 -10t1 -24l-179 -514q-32 -91 -75 -112t-93 -13z" />
<glyph unicode="z" horiz-adv-x="446" d="M372 140q3 10 7 17.5t17 7.5q14 0 19 -7.5t5 -18.5l-7 -110h-385v48l275 396h-144q-36 0 -50.5 -10t-23.5 -34q-3 -9 -8 -17.5t-20 -8.5q-10 0 -14 8t-3 18l4 104h362v-47l-276 -397h146q49 0 69.5 14.5t26.5 36.5z" />
<glyph unicode="{" horiz-adv-x="416" d="M92 366q47 9 74 34t27 80q0 29 -17 105.5t8 124.5q25 45 67 72t99 32q21 2 25 -17.5t-21 -28.5q-26 -7 -50 -27.5t-35 -59.5q-11 -41 -2 -96.5t9 -81.5q0 -56 -19.5 -92.5t-62.5 -60.5q43 -25 62.5 -61.5t19.5 -92.5q0 -26 -9 -81.5t2 -96.5q11 -39 35 -59.5t50 -27.5 q25 -8 21 -27.5t-25 -18.5q-57 5 -99 32t-67 72q-25 48 -8 124.5t17 106.5q0 54 -27 79t-74 34v33z" />
<glyph unicode="|" horiz-adv-x="310" d="M117 805h77v-911h-77v911z" />
<glyph unicode="}" horiz-adv-x="416" d="M324 333q-48 -9 -74.5 -34t-26.5 -79q0 -30 17 -106.5t-10 -124.5q-23 -45 -65 -72t-100 -32q-20 -1 -24 18.5t20 27.5q27 7 50.5 27.5t34.5 59.5q12 41 2.5 96.5t-9.5 81.5q0 56 20 92.5t63 61.5q-43 24 -63 60.5t-20 92.5q0 26 9.5 81.5t-2.5 96.5q-11 39 -34.5 59.5 t-50.5 27.5q-24 9 -20 28.5t24 17.5q58 -5 100 -32t65 -72q27 -48 10 -124.5t-17 -105.5q0 -55 26.5 -80t74.5 -34v-33z" />
<glyph unicode="~" horiz-adv-x="545" d="M502 502q0 -99 -35.5 -147t-95.5 -48q-34 0 -61.5 13t-59.5 51q-31 38 -45.5 47t-26.5 9q-23 0 -38.5 -25t-16.5 -96h-79q0 99 38 147.5t94 48.5q35 0 62 -14.5t58 -49.5q25 -30 40.5 -43.5t30.5 -13.5q25 0 40 27t15 94h80z" />
<glyph unicode="&#x25fc;" horiz-adv-x="530" d="M0 530h530v-530h-530v530z" />
<glyph unicode="&#xac00;" horiz-adv-x="831" d="M86 623q-32 0 -32 37q0 36 32 36h322q20 0 31.5 -17t7.5 -36q-21 -129 -127.5 -262.5t-237.5 -215.5q-35 -22 -50.5 -0.5t12.5 42.5q112 87 193.5 203t104.5 213h-256zM582 739q0 29 -8.5 38t-27.5 14q-21 5 -33 11t-12 20q0 27 35 27h91q42 0 42 -42v-308h125 q32 0 32 -38q0 -37 -32 -37h-125v-439q0 -92 -67 -92h-20v846z" />
<glyph unicode="&#xac01;" horiz-adv-x="831" d="M86 670q-32 0 -32 37q0 36 32 36h318q21 0 30.5 -16t6.5 -35q-20 -109 -126.5 -228t-235.5 -185q-35 -17 -47 5.5t14 38.5q118 75 195 177.5t97 169.5h-252zM582 739q0 29 -8.5 38t-27.5 14q-21 5 -33 11t-12 20q0 27 35 27h91q42 0 42 -42v-221h125q32 0 32 -38 q0 -37 -32 -37h-125v-146q0 -92 -67 -92h-20v466zM200 156q-28 0 -28 37q0 36 28 36h423q37 0 37 -44v-213q0 -99 -61 -99h-25v283h-374z" />
<glyph unicode="&#xac04;" horiz-adv-x="831" d="M86 668q-32 0 -32 37q0 36 32 36h318q21 0 30.5 -16t6.5 -35q-23 -122 -129 -250.5t-233 -198.5q-34 -19 -46.5 4t13.5 40q116 80 195.5 194t97.5 189h-253zM536 849h91q42 0 42 -42v-252h125q32 0 32 -37t-32 -37h-125v-266q0 -92 -67 -92h-20v616q0 29 -8.5 38 t-27.5 14q-21 5 -33 11t-12 20q0 27 35 27zM676 -97h-341q-94 0 -94 89v110q0 28 -9 37t-28 14q-22 7 -29.5 12.5t-7.5 19.5q0 27 32 27h87q42 0 42 -47v-167q0 -21 18 -21h331q33 0 33 -37t-34 -37z" />
<glyph unicode="&#xac07;" horiz-adv-x="831" d="M86 670q-32 0 -32 37q0 36 32 36h318q21 0 30.5 -16t6.5 -35q-20 -109 -122.5 -230t-239.5 -198q-34 -20 -46.5 3t13.5 41q122 86 197 188.5t95 173.5h-252zM582 739q0 29 -8.5 38t-27.5 14q-21 5 -33 11t-12 20q0 27 35 27h91q42 0 42 -42v-224h125q32 0 32 -38 q0 -37 -32 -37h-125v-129q0 -92 -67 -92h-20v452zM642 -104h-328q-60 0 -60 68v159q0 34 -3 45t-23 18q-11 5 -19 11.5t-8 18.5q0 27 26 27h405q33 0 33 -37q0 -36 -32 -36h-292v-175q0 -26 25 -26h277q32 0 32 -36q0 -37 -33 -37z" />
<glyph unicode="&#xac08;" horiz-adv-x="831" d="M86 678q-32 0 -32 37q0 36 32 36h318q20 0 30.5 -16t6.5 -35q-23 -110 -127 -221.5t-235 -174.5q-35 -18 -47 4.5t14 39.5q118 72 192 164t100 166h-252zM582 739q0 29 -8.5 38t-27.5 14q-21 5 -33 11t-12 20q0 27 35 27h91q42 0 42 -42v-190h125q32 0 32 -38 q0 -37 -32 -37h-125v-107q0 -93 -67 -93h-20v397zM658 -111h-355q-54 0 -54 66v78q0 22 -8 30t-20 14q-9 3 -15.5 9t-6.5 19q0 25 26 25h349v96h-322q-32 0 -32 37q0 35 32 35h374q36 0 36 -45v-141q0 -53 -41 -53h-285v-73q0 -25 23 -25h300q32 0 32 -35q0 -37 -33 -37z " />
<glyph unicode="&#xac09;" horiz-adv-x="831" d="M86 678q-32 0 -32 37q0 36 32 36h318q20 0 30.5 -16t6.5 -35q-23 -110 -127 -221.5t-235 -174.5q-35 -18 -47 4.5t14 39.5q118 72 192 164t100 166h-252zM582 739q0 29 -8.5 38t-27.5 14q-21 5 -33 11t-12 20q0 27 35 27h91q42 0 42 -42v-190h125q32 0 32 -38 q0 -37 -32 -37h-125v-107q0 -93 -67 -93h-20v397zM146 226q-31 0 -31 37q0 35 31 35h223q37 0 37 -44v-145q0 -50 -34 -50h-147v-77q0 -21 18 -21h160q32 0 32 -35q0 -37 -33 -37h-199q-64 0 -64 74v71q0 22 -3 30.5t-16 14.5q-9 4 -14.5 9t-5.5 19q0 22 21 22h198v97h-173z M456 298h173q40 0 40 -43v-270q0 -96 -64 -96h-23v337h-126q-32 0 -32 37q0 35 32 35z" />
<glyph unicode="&#xac0a;" horiz-adv-x="831" d="M86 678q-32 0 -32 37q0 36 32 36h318q20 0 30.5 -16t6.5 -35q-23 -110 -127 -221.5t-235 -174.5q-35 -18 -47 4.5t14 39.5q118 72 192 164t100 166h-252zM582 739q0 29 -8.5 38t-27.5 14q-21 5 -33 11t-12 20q0 27 35 27h91q42 0 42 -42v-190h125q32 0 32 -38 q0 -37 -32 -37h-125v-107q0 -93 -67 -93h-20v397zM508 -22h78v249h-77v-220q0 -16 -1 -29zM146 226q-31 0 -31 37q0 35 31 35h191q37 0 37 -44v-145q0 -50 -34 -50h-115v-77q0 -21 18 -21h127q31 0 31 -35q0 -37 -33 -37h-164q-65 0 -65 74v72q0 22 -3 30t-16 14 q-9 4 -14.5 9t-5.5 19q0 22 21 22h170v97h-145zM627 298q43 0 43 -49v-195q0 -49 -18 -76q31 -2 31 -35q0 -37 -34 -37h-157q-17 -28 -47 -28h-17v308q0 37 -1 43t-11 13t-17 12t-7 18q0 26 27 26h208z" />
<glyph unicode="&#xac10;" horiz-adv-x="831" d="M86 670q-32 0 -32 37q0 36 32 36h318q21 0 30.5 -16t6.5 -35q-20 -109 -122.5 -230t-239.5 -198q-34 -20 -46.5 3t13.5 41q122 86 197 188.5t95 173.5h-252zM582 739q0 29 -8.5 38t-27.5 14q-21 5 -33 11t-12 20q0 27 35 27h91q42 0 42 -42v-224h125q32 0 32 -38 q0 -37 -32 -37h-125v-129q0 -92 -67 -92h-20v452zM334 -31h241v201h-240v-174q0 -14 -1 -27zM618 243q44 0 44 -51v-148q0 -49 -17 -75q30 -2 30 -36q0 -37 -33 -37h-326q-16 -29 -47 -29h-20v252q0 38 -2.5 49t-19.5 18q-12 5 -20.5 11.5t-8.5 18.5q0 27 32 27h388z" />
<glyph unicode="&#xac11;" horiz-adv-x="831" d="M86 678q-32 0 -32 37q0 36 32 36h318q20 0 30.5 -16t6.5 -35q-23 -110 -125 -220.5t-237 -186.5q-35 -20 -46 3.5t13 40.5q117 80 190.5 170t101.5 171h-252zM582 739q0 29 -8.5 38t-27.5 14q-21 5 -33 11t-12 20q0 27 35 27h91q42 0 42 -42v-190h125q32 0 32 -38 q0 -37 -32 -37h-125v-119q0 -92 -67 -92h-20v408zM335 159h240v49q0 26 -3.5 32t-11.5 9q-15 6 -25 11t-10 18q0 27 34 27h58q45 0 45 -46v-214q0 -50 -18 -76q31 -1 31 -36q0 -37 -33 -37h-326q-16 -28 -47 -28h-20v306q0 27 -3 34t-12 11q-10 4 -21.5 8.5t-11.5 18.5 q0 27 33 27h60q41 0 41 -45v-69zM575 86h-240v-89q0 -15 -1 -28h241v117z" />
<glyph unicode="&#xac12;" horiz-adv-x="831" d="M86 678q-32 0 -32 37q0 36 32 36h318q20 0 30.5 -16t6.5 -35q-23 -110 -125 -220.5t-237 -186.5q-35 -20 -46 3.5t13 40.5q117 80 190.5 170t101.5 171h-252zM582 739q0 29 -8.5 38t-27.5 14q-21 5 -33 11t-12 20q0 27 35 27h91q42 0 42 -42v-190h125q32 0 32 -38 q0 -37 -32 -37h-125v-119q0 -92 -67 -92h-20v408zM436 -56q40 48 69 114q33 73 41 149q1 7 -2.5 12t-19.5 9q-13 4 -21.5 10t-8.5 17q0 27 31 27h63q34 -1 44 -18.5t6 -46.5q-7 -50 -24 -98l140 -139q19 -16 21.5 -38t-9.5 -34q-15 -15 -36.5 -9.5t-33.5 19.5l-110 136 q-6 -11 -13 -22q-52 -87 -109 -133q-11 -8 -22.5 -8t-19.5 8l-1 1q-7 -4 -18 -4h-194q-16 -28 -47 -28h-17v302q0 26 -2.5 31t-8.5 8q-11 5 -20 11t-9 16q0 22 31 22h50q42 0 42 -43v-68h123v55q0 26 -3 31t-11 8q-13 5 -21 10.5t-8 16.5q0 22 33 22h51q42 0 42 -43v-202 q0 -51 -18 -77q17 -5 20 -24zM351 75h-123v-78q0 -15 -1 -28h124v106z" />
<glyph unicode="&#xac13;" horiz-adv-x="831" d="M86 670q-32 0 -32 37q0 36 32 36h318q21 0 30.5 -16t6.5 -35q-20 -109 -122.5 -230t-239.5 -198q-34 -20 -46.5 3t13.5 41q122 86 197 188.5t95 173.5h-252zM669 807v-224h125q32 0 32 -38q0 -37 -32 -37h-125v-179q0 -92 -67 -92h-20v502q0 29 -8.5 38t-27.5 14 q-21 5 -33 11t-12 20q0 27 35 27h91q42 0 42 -42zM503 208q-9 -36 -32 -73l228 -159q18 -11 21.5 -31.5t-5.5 -33.5q-13 -15 -31.5 -15t-39.5 15l-208 170q-17 -22 -39 -45q-85 -91 -179 -141q-36 -20 -52 -2.5t14 39.5q84 57 145 134.5t85 137.5q5 10 -7.5 16.5t-30.5 10.5 q-25 5 -23 28t28 23h68q40 0 52.5 -22.5t5.5 -51.5z" />
<glyph unicode="&#xac14;" horiz-adv-x="831" d="M86 670q-32 0 -32 37q0 36 32 36h318q21 0 30.5 -16t6.5 -35q-20 -109 -122.5 -230t-239.5 -198q-34 -20 -46.5 3t13.5 41q122 86 197 188.5t95 173.5h-252zM582 739q0 29 -8.5 38t-27.5 14q-21 5 -33 11t-12 20q0 27 35 27h91q42 0 42 -42v-224h125q32 0 32 -38 q0 -37 -32 -37h-125v-129q0 -92 -67 -92h-20v452zM376 193q-6 -46 -30 -92l106 -91q11 16 21 33q49 81 64 152q1 7 -3.5 12t-18.5 9q-13 5 -22 10t-9 16q0 27 32 27h66q32 0 42 -18t7 -47q-7 -51 -32 -103l137 -121q22 -17 25 -35t-9 -32q-12 -13 -31.5 -13t-38.5 21 l-116 121q-8 -12 -17 -24q-70 -93 -138 -135q-32 -21 -49 -4t8 38q17 15 34 33l-91 96q-6 -9 -12 -17q-64 -83 -147 -132q-33 -20 -50.5 -3t9.5 38q65 50 111 122t58 127q2 7 -2.5 13t-18.5 10q-16 5 -24 10t-8 17q0 25 33 25h68q30 0 39.5 -18t6.5 -45z" />
<glyph unicode="&#xac15;" horiz-adv-x="831" d="M86 670q-32 0 -32 37q0 36 32 36h318q21 0 30.5 -16t6.5 -35q-20 -109 -122.5 -230t-239.5 -198q-34 -20 -46.5 3t13.5 41q122 86 197 188.5t95 173.5h-252zM582 739q0 29 -8.5 38t-27.5 14q-21 5 -33 11t-12 20q0 27 35 27h91q42 0 42 -42v-224h125q32 0 32 -38 q0 -37 -32 -37h-125v-144q0 -92 -67 -92h-20v467zM251 71q0 84 60 141.5t147 57.5t147 -57.5t60 -141.5t-60 -141.5t-147 -57.5t-147 57.5t-60 141.5zM339 71q0 -56 35.5 -90t83.5 -34t83.5 34t35.5 90t-35.5 90t-83.5 34t-83.5 -34t-35.5 -90z" />
<glyph unicode="&#xac16;" horiz-adv-x="831" d="M86 670q-32 0 -32 37q0 36 32 36h318q21 0 30.5 -16t6.5 -35q-20 -109 -122.5 -230t-239.5 -198q-34 -20 -46.5 3t13.5 41q122 86 197 188.5t95 173.5h-252zM582 739q0 29 -8.5 38t-27.5 14q-21 5 -33 11t-12 20q0 27 35 27h91q42 0 42 -42v-224h125q32 0 32 -38 q0 -37 -32 -37h-125v-129q0 -92 -67 -92h-20v452zM240 170q-31 0 -31 37q0 36 32 36h333q31 0 42.5 -20.5t-0.5 -48.5q-26 -57 -94 -115l174 -90q22 -12 27 -29t-4 -35q-9 -17 -29 -19t-38 10l-183 123q-3 -3 -7 -5q-118 -82 -249 -127q-33 -12 -43.5 11t17.5 35 q96 42 183 106t140 131h-270z" />
<glyph unicode="&#xac17;" horiz-adv-x="831" d="M86 678q-32 0 -32 37q0 36 32 36h318q20 0 30.5 -16t6.5 -35q-23 -110 -125 -220.5t-237 -186.5q-35 -20 -46 3.5t13 40.5q117 80 190.5 170t101.5 171h-252zM582 739q0 29 -8.5 38t-27.5 14q-21 5 -33 11t-12 20q0 27 35 27h91q42 0 42 -42v-190h125q32 0 32 -38 q0 -37 -32 -37h-125v-174q0 -92 -67 -92h-20v463zM241 95q-31 0 -31 35q0 36 32 36h337q30 0 42 -23.5t-5 -46.5q-27 -40 -87 -79l161 -54q23 -7 32 -22t4 -31q-5 -14 -24 -18.5t-40 4.5l-199 83q-1 -1 -3 -2q-115 -59 -236 -84q-58 -12 -68.5 11.5t44.5 38.5 q88 26 172.5 71.5t122.5 80.5h-254zM344 236l-29 23q-10 11 -12 22t6 24q9 10 22.5 9t22.5 -6q38 -18 75.5 -22.5t81.5 -4.5q35 0 35 -36q0 -16 -11.5 -26t-27.5 -10l-82 1q-50 0 -81 26z" />
<glyph unicode="&#xac19;" horiz-adv-x="831" d="M86 678q-32 0 -32 37q0 36 32 36h318q20 0 30.5 -16t6.5 -35q-23 -110 -127 -221.5t-235 -174.5q-35 -18 -47 4.5t14 39.5q118 72 192 164t100 166h-252zM582 739q0 29 -8.5 38t-27.5 14q-21 5 -33 11t-12 20q0 27 35 27h91q42 0 42 -42v-190h125q32 0 32 -38 q0 -37 -32 -37h-125v-107q0 -93 -67 -93h-20v397zM629 130q33 0 33 -35q0 -36 -33 -36h-293v-71q0 -27 24 -27h287q32 0 32 -35q0 -37 -33 -37h-337q-60 0 -60 67v223q0 33 -3 44t-23 18q-11 5 -19 11.5t-8 19.5q0 26 26 26h416q33 0 33 -36t-32 -36h-303v-96h293z" />
<glyph unicode="&#xac1a;" horiz-adv-x="831" d="M86 670q-32 0 -32 37q0 36 32 36h318q21 0 30.5 -16t6.5 -35q-20 -109 -122.5 -230t-239.5 -198q-34 -20 -46.5 3t13.5 41q122 86 197 188.5t95 173.5h-252zM582 739q0 29 -8.5 38t-27.5 14q-21 5 -33 11t-12 20q0 27 35 27h91q42 0 42 -42v-224h125q32 0 32 -38 q0 -37 -32 -37h-125v-129q0 -92 -67 -92h-20v452zM665 171h-67v-203h67q33 0 33 -36t-33 -36h-470q-32 0 -32 36t32 36h81v203h-81q-32 0 -32 36t32 36h470q33 0 33 -36t-33 -36zM512 171h-150v-203h150v203z" />
<glyph unicode="&#xac1b;" horiz-adv-x="831" d="M86 678q-32 0 -32 37q0 36 32 36h318q20 0 30.5 -16t6.5 -35q-23 -110 -127 -226.5t-235 -180.5q-35 -17 -47 5.5t14 38.5q117 72 191.5 169.5t100.5 171.5h-252zM582 739q0 29 -8.5 38t-27.5 14q-21 5 -33 11t-12 20q0 27 35 27h91q42 0 42 -42v-190h125q32 0 32 -38 q0 -37 -32 -37h-125v-146q0 -92 -67 -92h-20v435zM665 108h-73q32 -34 32 -84q0 -63 -49 -108t-125 -45q-77 0 -126 45t-49 108q0 50 32 84h-73q-33 0 -33 35q0 36 33 36h431q33 0 33 -36q0 -35 -33 -35zM344 245l-29 24q-10 10 -12 21t6 24q9 10 22.5 9t22.5 -6 q38 -18 85.5 -22.5t91.5 -4.5q35 0 35 -36q0 -16 -11 -25.5t-28 -9.5l-92 1q-60 0 -91 25zM364 25q0 -34 25.5 -58t60.5 -24q34 0 60 24t26 58t-26 58t-60 24q-35 0 -60.5 -24t-25.5 -58z" />
<glyph unicode="&#xac1c;" horiz-adv-x="813" d="M86 623q-32 0 -32 37q0 36 32 36h268q22 0 32 -17t8 -36q-20 -133 -114 -267.5t-197 -210.5q-34 -24 -49 -2.5t9 42.5q100 91 165.5 205t85.5 213h-208zM748 807v-821q0 -94 -68 -94h-20v540h-100v-387q0 -92 -66 -92h-20v744q0 29 -6.5 37.5t-27.5 14.5t-32.5 12.5 t-11.5 19.5q0 25 35 25h87q42 0 42 -43v-260h100v238q0 28 -6.5 37t-28.5 14t-33.5 10.5t-11.5 19.5q0 27 36 27h89q43 0 43 -42z" />
<glyph unicode="&#xac1d;" horiz-adv-x="813" d="M86 659q-32 0 -32 37q0 36 32 36h272q21 0 30.5 -16t6.5 -36q-19 -112 -108.5 -222.5t-207.5 -184.5q-32 -20 -47.5 0.5t10.5 41.5q100 78 168 174.5t84 169.5h-208zM616 849h89q43 0 43 -44v-436q0 -96 -68 -96h-20v240h-110v-138q0 -92 -67 -92h-19v414q0 29 -6.5 37.5 t-27.5 14.5t-32.5 12.5t-11.5 19.5q0 25 35 25h87q42 0 42 -43v-178h110v156q0 28 -6.5 37t-28.5 14t-33.5 10.5t-11.5 19.5q0 27 36 27zM245 156q-28 0 -28 37q0 36 28 36h453q38 0 38 -44v-213q0 -99 -61 -99h-25v283h-405z" />
<glyph unicode="&#xac20;" horiz-adv-x="813" d="M86 652q-32 0 -32 37q0 35 32 35h272q21 0 30.5 -15.5t6.5 -35.5q-19 -123 -107.5 -250.5t-205.5 -206.5q-33 -20 -49 -0.5t9 39.5q104 92 172 207t80 190h-208zM421 806h87q42 0 42 -43v-209h110v187q0 28 -6.5 37t-28.5 14t-33.5 10.5t-11.5 19.5q0 27 36 27h89 q43 0 43 -44v-589q0 -95 -68 -95h-20v362h-110v-248q0 -92 -67 -92h-19v554q0 29 -6.5 37.5t-27.5 14.5t-32.5 12.5t-11.5 19.5q0 25 35 25zM735 -97h-371q-95 0 -95 89v110q0 28 -8.5 37t-28.5 14q-21 7 -28.5 12.5t-7.5 19.5q0 27 31 27h87q42 0 42 -47v-167q0 -21 19 -21 h361q33 0 33 -37t-34 -37z" />
<glyph unicode="&#xac24;" horiz-adv-x="813" d="M86 664q-32 0 -32 37q0 36 32 36h272q21 0 30.5 -16t6.5 -36q-22 -115 -109 -224.5t-207 -181.5q-33 -20 -48 1t11 41q109 82 172.5 178.5t79.5 164.5h-208zM421 806h87q42 0 42 -43v-152h110v130q0 28 -6.5 37t-28.5 14t-33.5 10.5t-11.5 19.5q0 27 36 27h89 q43 0 43 -44v-383q0 -96 -68 -96h-20v213h-110v-111q0 -92 -67 -92h-19v361q0 29 -6.5 37.5t-27.5 14.5t-32.5 12.5t-11.5 19.5q0 25 35 25zM734 -111h-376q-54 0 -54 66v75q0 22 -7.5 30t-20.5 14q-9 3 -15.5 8.5t-6.5 19.5q0 25 27 25h369v93h-343q-32 0 -32 36t32 36h394 q36 0 36 -45v-138q0 -53 -41 -53h-305v-70q0 -25 24 -25h320q32 0 32 -35q0 -37 -33 -37z" />
<glyph unicode="&#xac2c;" horiz-adv-x="813" d="M86 659q-32 0 -32 37q0 36 32 36h272q21 0 30.5 -16t6.5 -36q-19 -112 -108.5 -226.5t-207.5 -185.5q-33 -20 -48 1t11 41q98 75 166 172.5t86 176.5h-208zM464 697q0 29 -6.5 37.5t-27.5 14.5t-32.5 12.5t-11.5 19.5q0 25 35 25h87q42 0 42 -43v-173h110v151 q0 28 -6.5 37t-28.5 14t-33.5 10.5t-11.5 19.5q0 27 36 27h89q43 0 43 -44v-422q0 -96 -68 -96h-20v232h-110v-129q0 -93 -67 -93h-19v400zM379 -31h272v201h-271v-174q0 -14 -1 -27zM694 243q43 0 43 -51v-148q0 -49 -16 -75q30 -2 30 -36q0 -37 -33 -37h-357 q-16 -29 -47 -29h-20v252q0 38 -2.5 49t-19.5 18q-12 5 -20.5 11.5t-8.5 18.5q0 27 32 27h419z" />
<glyph unicode="&#xac2d;" horiz-adv-x="813" d="M86 664q-32 0 -32 37q0 36 32 36h272q21 0 30.5 -16t6.5 -36q-19 -112 -109.5 -226t-205.5 -190q-33 -22 -47.5 -0.5t9.5 42.5q93 75 165 176.5t87 176.5h-208zM464 697q0 29 -6.5 37.5t-27.5 14.5t-32.5 12.5t-11.5 19.5q0 25 35 25h87q42 0 42 -43v-163h110v141 q0 28 -6.5 37t-28.5 14t-33.5 10.5t-11.5 19.5q0 27 36 27h89q43 0 43 -44v-382q0 -96 -68 -96h-20v202h-110v-100q0 -92 -67 -92h-19v360zM385 157h266v47q0 26 -3.5 32t-11.5 9q-15 6 -25 11t-10 18q0 26 34 26h58q44 0 44 -45v-210q0 -50 -17 -76q31 -1 31 -36 q0 -37 -33 -37h-351q-17 -28 -48 -28h-20v302q0 27 -3 34t-11 10q-11 5 -22.5 9.5t-11.5 18.5q0 27 34 27h59q41 0 41 -45v-67zM651 84h-266v-87q0 -15 -1 -28h267v115z" />
<glyph unicode="&#xac2f;" horiz-adv-x="813" d="M86 659q-32 0 -32 37q0 36 32 36h272q21 0 30.5 -16t6.5 -36q-19 -112 -108.5 -226.5t-207.5 -185.5q-33 -20 -48 1t11 41q98 75 166 172.5t86 176.5h-208zM464 697q0 29 -6.5 37.5t-27.5 14.5t-32.5 12.5t-11.5 19.5q0 25 35 25h87q42 0 42 -43v-173h110v151 q0 28 -6.5 37t-28.5 14t-33.5 10.5t-11.5 19.5q0 27 36 27h89q43 0 43 -44v-463q0 -96 -68 -96h-20v273h-110v-114q0 -92 -67 -92h-19v384zM543 207q-9 -35 -32 -73l244 -159q19 -12 21.5 -32t-6.5 -33q-12 -15 -30.5 -15.5t-40.5 15.5l-225 173q-18 -22 -41 -46 q-90 -93 -190 -143q-37 -20 -53.5 -2t15.5 40q85 55 151.5 132t93.5 139q5 10 -7.5 16.5t-30.5 10.5q-25 5 -23 28t28 23h68q40 0 52 -22.5t6 -51.5z" />
<glyph unicode="&#xac30;" horiz-adv-x="813" d="M86 659q-32 0 -32 37q0 36 32 36h272q21 0 30.5 -16t6.5 -36q-19 -112 -108.5 -226.5t-207.5 -185.5q-33 -20 -48 1t11 41q98 75 166 172.5t86 176.5h-208zM464 697q0 29 -6.5 37.5t-27.5 14.5t-32.5 12.5t-11.5 19.5q0 25 35 25h87q42 0 42 -43v-173h110v151 q0 28 -6.5 37t-28.5 14t-33.5 10.5t-11.5 19.5q0 27 36 27h89q43 0 43 -44v-422q0 -96 -68 -96h-20v232h-110v-129q0 -93 -67 -93h-19v400zM400 193q-6 -41 -24 -83l116 -100q11 16 21 33q49 81 64 152q1 7 -3.5 12t-18.5 9q-13 5 -22 10t-9 16q0 27 32 27h66q32 0 42 -18 t7 -47q-6 -50 -30 -100l140 -124q22 -17 25 -35t-9 -32q-12 -13 -31.5 -13t-38.5 21l-119 124q-9 -13 -19 -27q-70 -93 -138 -135q-32 -21 -49 -4t8 38q17 15 34 33l-100 106l-18 -27q-65 -83 -148 -132q-33 -20 -50 -3t9 38q66 50 112 122t57 127q2 7 -2 13t-18 10 q-17 5 -24.5 10t-7.5 17q0 25 33 25h67q31 0 40 -18t6 -45z" />
<glyph unicode="&#xac31;" horiz-adv-x="813" d="M86 659q-32 0 -32 37q0 36 32 36h272q21 0 30.5 -16t6.5 -36q-19 -112 -108.5 -226.5t-207.5 -185.5q-33 -20 -48 1t11 41q98 75 166 172.5t86 176.5h-208zM464 697q0 29 -6.5 37.5t-27.5 14.5t-32.5 12.5t-11.5 19.5q0 25 35 25h87q42 0 42 -43v-173h110v151 q0 28 -6.5 37t-28.5 14t-33.5 10.5t-11.5 19.5q0 27 36 27h89q43 0 43 -44v-438q0 -96 -68 -96h-20v248h-110v-120q0 -92 -67 -92h-19v390zM306 71q0 84 60 141.5t147 57.5t147 -57.5t60 -141.5t-60 -141.5t-147 -57.5t-147 57.5t-60 141.5zM394 71q0 -56 35.5 -90t83.5 -34 t83.5 34t35.5 90t-35.5 90t-83.5 34t-83.5 -34t-35.5 -90z" />
<glyph unicode="&#xac38;" horiz-adv-x="831" d="M86 623q-32 0 -32 37q0 36 32 36h322q20 0 31.5 -17t7.5 -36q-21 -129 -127.5 -262.5t-237.5 -215.5q-35 -22 -50.5 -0.5t12.5 42.5q112 87 193.5 203t104.5 213h-256zM669 -14q0 -93 -67 -93h-20v846q0 29 -8.5 38t-27.5 14q-21 5 -33 11t-12 20q0 27 35 27h91 q42 0 42 -42v-189h122q35 0 35 -36q0 -37 -35 -37h-122v-183h122q35 0 35 -36q0 -37 -35 -37h-122v-303z" />
<glyph unicode="&#xac39;" horiz-adv-x="831" d="M86 670q-32 0 -32 37q0 36 32 36h318q21 0 30.5 -16t6.5 -35q-20 -109 -126.5 -228t-235.5 -185q-35 -17 -47 5.5t14 38.5q118 75 195 177.5t97 169.5h-252zM669 367q0 -94 -67 -94h-20v466q0 29 -8.5 38t-27.5 14q-21 5 -33 11t-12 20q0 27 35 27h91q42 0 42 -43v-117 h122q35 0 35 -36q0 -37 -35 -37h-122v-141h122q35 0 35 -36q0 -37 -35 -37h-122v-35zM200 156q-28 0 -28 37q0 36 28 36h423q37 0 37 -44v-213q0 -99 -61 -99h-25v283h-374z" />
<glyph unicode="&#xac3c;" horiz-adv-x="831" d="M86 668q-32 0 -32 37q0 36 32 36h318q21 0 30.5 -16t6.5 -35q-23 -122 -129 -250.5t-233 -198.5q-34 -19 -46.5 4t13.5 40q116 80 195.5 194t97.5 189h-253zM669 216q0 -93 -67 -93h-20v616q0 29 -8.5 38t-27.5 14q-21 5 -33 11t-12 20q0 27 35 27h91q42 0 42 -43v-143 h122q35 0 35 -36q0 -37 -35 -37h-122v-141h122q35 0 35 -36q0 -37 -35 -37h-122v-160zM676 -97h-341q-94 0 -94 89v110q0 28 -9 37t-28 14q-22 7 -29.5 12.5t-7.5 19.5q0 27 32 27h87q42 0 42 -47v-167q0 -21 18 -21h331q33 0 33 -37t-34 -37z" />
<glyph unicode="&#xac40;" horiz-adv-x="831" d="M86 678q-32 0 -32 37q0 36 32 36h318q20 0 30.5 -16t6.5 -35q-23 -110 -127 -221.5t-235 -174.5q-35 -18 -47 4.5t14 39.5q118 72 192 164t100 166h-252zM669 437q0 -95 -67 -95h-20v397q0 29 -8.5 38t-27.5 14q-21 5 -33 11t-12 20q0 27 35 27h91q42 0 42 -43v-102h122 q35 0 35 -36q0 -37 -35 -37h-122v-110h122q35 0 35 -36q0 -37 -35 -37h-122v-11zM658 -111h-355q-54 0 -54 66v78q0 22 -8 30t-20 14q-9 3 -15.5 9t-6.5 19q0 25 26 25h349v96h-322q-32 0 -32 37q0 35 32 35h374q36 0 36 -45v-141q0 -53 -41 -53h-285v-73q0 -25 23 -25h300 q32 0 32 -35q0 -37 -33 -37z" />
<glyph unicode="&#xac4b;" horiz-adv-x="831" d="M86 670q-32 0 -32 37q0 36 32 36h318q21 0 30.5 -16t6.5 -35q-20 -109 -122.5 -230t-239.5 -198q-34 -20 -46.5 3t13.5 41q122 86 197 188.5t95 173.5h-252zM669 331q0 -94 -67 -94h-20v502q0 29 -8.5 38t-27.5 14q-21 5 -33 11t-12 20q0 27 35 27h91q42 0 42 -43v-123 h122q35 0 35 -35q0 -37 -35 -37h-122v-142h122q35 0 35 -35q0 -37 -35 -37h-122v-66zM503 208q-9 -36 -32 -73l228 -159q18 -11 21.5 -31.5t-5.5 -33.5q-13 -15 -31.5 -15t-39.5 15l-208 170q-17 -22 -39 -45q-85 -91 -179 -141q-36 -20 -52 -2.5t14 39.5q84 57 145 134.5 t85 137.5q5 10 -7.5 16.5t-30.5 10.5q-25 5 -23 28t28 23h68q40 0 52.5 -22.5t5.5 -51.5z" />
<glyph unicode="&#xac4d;" horiz-adv-x="831" d="M86 670q-32 0 -32 37q0 36 32 36h318q21 0 30.5 -16t6.5 -35q-20 -109 -122.5 -230t-239.5 -198q-34 -20 -46.5 3t13.5 41q122 86 197 188.5t95 173.5h-252zM669 366q0 -94 -67 -94h-20v467q0 29 -8.5 38t-27.5 14q-21 5 -33 11t-12 20q0 27 35 27h91q42 0 42 -43v-123 h122q35 0 35 -35q0 -37 -35 -37h-122v-142h122q35 0 35 -35q0 -37 -35 -37h-122v-31zM251 71q0 84 60 141.5t147 57.5t147 -57.5t60 -141.5t-60 -141.5t-147 -57.5t-147 57.5t-60 141.5zM339 71q0 -56 35.5 -90t83.5 -34t83.5 34t35.5 90t-35.5 90t-83.5 34t-83.5 -34 t-35.5 -90z" />
<glyph unicode="&#xac54;" horiz-adv-x="813" d="M86 623q-32 0 -32 37q0 36 32 36h268q22 0 32 -17t8 -36q-20 -133 -114 -267.5t-197 -210.5q-34 -24 -49 -2.5t9 42.5q100 91 165.5 205t85.5 213h-208zM662 -108v412h-103v-258q0 -93 -67 -93h-18v744q0 29 -6.5 37.5t-27.5 14.5t-32.5 12.5t-11.5 19.5q0 25 35 25h86 q42 0 42 -44v-140h103v118q0 29 -7 38t-29 14t-33.5 10.5t-11.5 19.5q0 27 36 27h88q43 0 43 -42v-821q0 -94 -69 -94h-17zM662 375v175h-103v-175h103z" />
<glyph unicode="&#xac58;" horiz-adv-x="813" d="M86 652q-32 0 -32 37q0 35 32 35h272q21 0 30.5 -15.5t6.5 -35.5q-19 -123 -107.5 -250.5t-205.5 -206.5q-33 -20 -49 -0.5t9 39.5q104 92 172 207t80 190h-208zM549 236q0 -93 -68 -93h-17v554q0 29 -6.5 37.5t-27.5 14.5t-32.5 12.5t-11.5 19.5q0 25 35 25h86 q42 0 42 -44v-117h113v95q0 29 -7 38t-29 14t-33.5 10.5t-11.5 19.5q0 27 36 27h88q43 0 43 -44v-589q0 -95 -69 -95h-17v235h-113v-120zM549 573v-146h113v146h-113zM735 -97h-371q-95 0 -95 89v110q0 28 -8.5 37t-28.5 14q-21 7 -28.5 12.5t-7.5 19.5q0 27 31 27h87 q42 0 42 -47v-167q0 -21 19 -21h361q33 0 33 -37t-34 -37z" />
<glyph unicode="&#xac5c;" horiz-adv-x="813" d="M86 664q-32 0 -32 37q0 36 32 36h272q21 0 30.5 -16t6.5 -36q-22 -115 -109 -224.5t-207 -181.5q-33 -20 -48 1t11 41q109 82 172.5 178.5t79.5 164.5h-208zM549 430q0 -94 -68 -94h-17v361q0 29 -6.5 37.5t-27.5 14.5t-32.5 12.5t-11.5 19.5q0 25 35 25h86q42 0 42 -44 v-58h113v36q0 29 -7 38t-29 14t-33.5 10.5t-11.5 19.5q0 27 36 27h88q43 0 43 -44v-383q0 -96 -69 -96h-17v136h-113v-32zM549 632v-98h113v98h-113zM734 -111h-376q-54 0 -54 66v75q0 22 -7.5 30t-20.5 14q-9 3 -15.5 8.5t-6.5 19.5q0 25 27 25h369v93h-343q-32 0 -32 36 t32 36h394q36 0 36 -45v-138q0 -53 -41 -53h-305v-70q0 -25 24 -25h320q32 0 32 -35q0 -37 -33 -37z" />
<glyph unicode="&#xac70;" horiz-adv-x="776" d="M86 623q-32 0 -32 37q0 36 32 36h326q20 0 31.5 -17t8.5 -36q-23 -126 -130.5 -260.5t-239.5 -217.5q-35 -22 -50.5 -0.5t12.5 42.5q117 89 200 207.5t102 208.5h-260zM600 740q0 28 -8 37t-28 14t-32.5 11t-12.5 20q0 27 35 27h90q43 0 43 -42v-821q0 -94 -66 -94h-21 v507h-175q-32 0 -32 37q0 35 32 35h175v269z" />
<glyph unicode="&#xac71;" horiz-adv-x="776" d="M86 670q-32 0 -32 37q0 36 32 36h323q20 0 30 -16t6 -35q-21 -112 -128.5 -229.5t-237.5 -183.5q-35 -17 -47 5.5t14 38.5q122 78 199.5 179t96.5 168h-256zM600 740q0 28 -8 37t-28 14t-32.5 11t-12.5 20q0 27 35 27h90q43 0 43 -43v-438q0 -95 -66 -95h-21v219h-169 q-33 0 -33 37q0 36 33 36h169v175zM218 156q-28 0 -28 37q0 36 28 36h423q38 0 38 -44v-213q0 -99 -62 -99h-24v283h-375z" />
<glyph unicode="&#xac74;" horiz-adv-x="776" d="M86 668q-32 0 -32 37q0 36 32 36h323q20 0 30 -16t6 -35q-22 -125 -128 -250t-238 -199q-34 -19 -46.5 4t13.5 40q116 78 198 192.5t99 190.5h-257zM600 740q0 28 -8 37t-28 14t-32.5 11t-12.5 20q0 27 35 27h90q43 0 43 -43v-589q0 -94 -66 -94h-21v318h-171 q-33 0 -33 36t33 36h171v227zM694 -97h-341q-94 0 -94 89v110q0 28 -8.5 37t-28.5 14q-21 7 -29 12.5t-8 19.5q0 27 32 27h87q42 0 42 -47v-167q0 -21 19 -21h330q33 0 33 -37t-34 -37z" />
<glyph unicode="&#xac77;" horiz-adv-x="776" d="M86 670q-32 0 -32 37q0 36 32 36h323q20 0 30 -16t6 -35q-19 -109 -130 -233t-236 -195q-34 -21 -46.5 2.5t13.5 41.5q122 86 199.5 188.5t96.5 173.5h-256zM600 740q0 28 -8 37t-28 14t-32.5 11t-12.5 20q0 27 35 27h90q43 0 43 -43v-424q0 -95 -66 -95h-21v195h-171 q-32 0 -32 36t32 36h171v186zM659 -104h-327q-61 0 -61 68v159q0 34 -3 45t-22 18q-12 5 -20 11.5t-8 18.5q0 27 27 27h404q33 0 33 -37q0 -36 -32 -36h-292v-175q0 -26 25 -26h277q32 0 32 -36q0 -37 -33 -37z" />
<glyph unicode="&#xac78;" horiz-adv-x="776" d="M86 678q-32 0 -32 37q0 36 32 36h323q19 0 30 -16t6 -35q-23 -110 -127 -219.5t-239 -176.5q-35 -18 -47.5 4.5t14.5 39.5q118 70 194 163t102 167h-256zM600 740q0 28 -8 37t-28 14t-32.5 11t-12.5 20q0 27 35 27h90q43 0 43 -43v-368q0 -96 -66 -96h-21v155h-177 q-32 0 -32 36q0 37 32 37h177v170zM676 -111h-355q-55 0 -55 66v78q0 22 -7.5 30t-19.5 14q-10 3 -16.5 9t-6.5 19q0 25 27 25h349v96h-323q-31 0 -31 37q0 35 31 35h374q36 0 36 -45v-141q0 -53 -41 -53h-285v-73q0 -25 24 -25h300q32 0 32 -35q0 -37 -33 -37z" />
<glyph unicode="&#xac7a;" horiz-adv-x="776" d="M86 678q-32 0 -32 37q0 36 32 36h323q19 0 30 -16t6 -35q-23 -110 -127 -219.5t-239 -176.5q-35 -18 -47.5 4.5t14.5 39.5q118 70 194 163t102 167h-256zM600 740q0 28 -8 37t-28 14t-32.5 11t-12.5 20q0 27 35 27h90q43 0 43 -43v-368q0 -96 -66 -96h-21v155h-177 q-32 0 -32 36q0 37 32 37h177v170zM525 -22h78v249h-77v-220q0 -16 -1 -29zM164 226q-32 0 -32 37q0 35 32 35h190q37 0 37 -44v-145q0 -50 -34 -50h-114v-77q0 -21 17 -21h127q32 0 32 -35q0 -37 -34 -37h-164q-64 0 -64 74v72q0 22 -3 30t-17 14q-9 4 -14 9t-5 19 q0 22 20 22h170v97h-144zM644 298q43 0 43 -49v-195q0 -49 -17 -76q30 -2 30 -35q0 -37 -33 -37h-158q-16 -28 -46 -28h-18v308q0 37 -1 43t-11 13t-16.5 12t-6.5 18q0 26 26 26h208z" />
<glyph unicode="&#xac80;" horiz-adv-x="776" d="M86 670q-32 0 -32 37q0 36 32 36h323q20 0 30 -16t6 -35q-19 -109 -130 -233t-236 -195q-34 -21 -46.5 2.5t13.5 41.5q122 86 199.5 188.5t96.5 173.5h-256zM600 740q0 28 -8 37t-28 14t-32.5 11t-12.5 20q0 27 35 27h90q43 0 43 -43v-424q0 -95 -66 -95h-21v195h-171 q-32 0 -32 36t32 36h171v186zM351 -31h242v201h-241v-174q0 -14 -1 -27zM636 243q43 0 43 -51v-148q0 -49 -16 -75q29 -2 29 -36q0 -37 -33 -37h-325q-17 -29 -47 -29h-21v252q0 38 -2.5 49t-18.5 18q-13 5 -21.5 11.5t-8.5 18.5q0 27 33 27h388z" />
<glyph unicode="&#xac81;" horiz-adv-x="776" d="M86 678q-32 0 -32 37q0 36 32 36h323q19 0 30 -16t6 -35q-23 -110 -127 -220.5t-239 -186.5q-35 -20 -46 3.5t13 40.5q117 80 192.5 170t103.5 171h-256zM600 740q0 28 -8 37t-28 14t-32.5 11t-12.5 20q0 27 35 27h90q43 0 43 -43v-380q0 -95 -66 -95h-21v176h-175 q-33 0 -33 36q0 37 33 37h175v160zM352 159h241v49q0 26 -3.5 32t-11.5 9q-16 6 -25.5 11t-9.5 18q0 27 34 27h58q44 0 44 -46v-214q0 -50 -17 -76q30 -1 30 -36q0 -37 -33 -37h-325q-17 -28 -47 -28h-21v306q0 27 -3 34t-11 11q-10 4 -22 8.5t-12 18.5q0 27 34 27h59 q41 0 41 -45v-69zM593 86h-241v-89q0 -15 -1 -28h242v117z" />
<glyph unicode="&#xac83;" horiz-adv-x="776" d="M86 670q-32 0 -32 37q0 36 32 36h323q20 0 30 -16t6 -35q-19 -109 -130 -233t-236 -195q-34 -21 -46.5 2.5t13.5 41.5q122 86 199.5 188.5t96.5 173.5h-256zM600 740q0 28 -8 37t-28 14t-32.5 11t-12.5 20q0 27 35 27h90q43 0 43 -43v-474q0 -95 -66 -95h-21v245h-171 q-32 0 -32 36t32 36h171v186zM520 208q-9 -36 -32 -73l229 -159q17 -11 20.5 -31.5t-5.5 -33.5q-12 -15 -31 -15t-39 15l-208 170q-18 -22 -39 -45q-85 -91 -179 -141q-36 -20 -52.5 -2.5t14.5 39.5q84 57 144.5 134.5t84.5 137.5q5 10 -7 16.5t-31 10.5q-24 5 -22 28t27 23 h69q40 0 52 -22.5t5 -51.5z" />
<glyph unicode="&#xac84;" horiz-adv-x="776" d="M86 670q-32 0 -32 37q0 36 32 36h323q20 0 30 -16t6 -35q-19 -109 -130 -233t-236 -195q-34 -21 -46.5 2.5t13.5 41.5q122 86 199.5 188.5t96.5 173.5h-256zM600 740q0 28 -8 37t-28 14t-32.5 11t-12.5 20q0 27 35 27h90q43 0 43 -43v-424q0 -95 -66 -95h-21v195h-171 q-32 0 -32 36t32 36h171v186zM393 193q-6 -46 -29 -92l105 -91q11 16 21 33q50 81 64 152q1 7 -3 12t-19 9q-13 5 -21.5 10t-8.5 16q0 27 32 27h65q33 0 42.5 -18t6.5 -47q-7 -51 -32 -103l138 -121q21 -17 24 -35t-9 -32q-11 -13 -30.5 -13t-39.5 21l-115 121l-18 -24 q-69 -93 -138 -135q-32 -21 -49 -4t8 38q17 15 35 33l-91 96q-6 -9 -13 -17q-64 -83 -147 -132q-33 -20 -50.5 -3t9.5 38q66 50 112 122t57 127q2 7 -2 13t-18 10q-17 5 -24.5 10t-7.5 17q0 25 33 25h67q31 0 40 -18t6 -45z" />
<glyph unicode="&#xac85;" horiz-adv-x="776" d="M86 670q-32 0 -32 37q0 36 32 36h323q20 0 30 -16t6 -35q-19 -109 -130 -233t-236 -195q-34 -21 -46.5 2.5t13.5 41.5q122 86 199.5 188.5t96.5 173.5h-256zM600 740q0 28 -8 37t-28 14t-32.5 11t-12.5 20q0 27 35 27h90q43 0 43 -43v-439q0 -95 -66 -95h-21v210h-171 q-32 0 -32 36t32 36h171v186zM268 71q0 84 60 141.5t147 57.5t147 -57.5t60 -141.5t-60 -141.5t-147 -57.5t-147 57.5t-60 141.5zM356 71q0 -56 35.5 -90t83.5 -34t83.5 34t35.5 90t-35.5 90t-83.5 34t-83.5 -34t-35.5 -90z" />
<glyph unicode="&#xac86;" horiz-adv-x="776" d="M86 670q-32 0 -32 37q0 36 32 36h323q20 0 30 -16t6 -35q-19 -109 -130 -233t-236 -195q-34 -21 -46.5 2.5t13.5 41.5q122 86 199.5 188.5t96.5 173.5h-256zM600 740q0 28 -8 37t-28 14t-32.5 11t-12.5 20q0 27 35 27h90q43 0 43 -43v-424q0 -95 -66 -95h-21v195h-171 q-32 0 -32 36t32 36h171v186zM257 170q-31 0 -31 37q0 36 32 36h334q31 0 42 -20.5t0 -48.5q-27 -57 -94 -115l174 -90q21 -12 26 -29t-4 -35q-9 -17 -29 -19t-37 10l-184 123q-3 -3 -7 -5q-118 -82 -249 -127q-32 -12 -43 11t18 35q95 42 182 106t140 131h-270z" />
<glyph unicode="&#xac89;" horiz-adv-x="776" d="M86 678q-32 0 -32 37q0 36 32 36h323q19 0 30 -16t6 -35q-23 -110 -127 -219.5t-239 -176.5q-35 -18 -47.5 4.5t14.5 39.5q118 70 194 163t102 167h-256zM600 740q0 28 -8 37t-28 14t-32.5 11t-12.5 20q0 27 35 27h90q43 0 43 -43v-368q0 -96 -66 -96h-21v155h-177 q-32 0 -32 36q0 37 32 37h177v170zM646 130q33 0 33 -35q0 -36 -33 -36h-293v-71q0 -27 25 -27h287q31 0 31 -35q0 -37 -32 -37h-337q-61 0 -61 67v223q0 33 -3 44t-22 18q-12 5 -20 11.5t-8 19.5q0 26 27 26h415q33 0 33 -36t-32 -36h-303v-96h293z" />
<glyph unicode="&#xac8a;" horiz-adv-x="776" d="M86 670q-32 0 -32 37q0 36 32 36h323q20 0 30 -16t6 -35q-19 -109 -130 -233t-236 -195q-34 -21 -46.5 2.5t13.5 41.5q122 86 199.5 188.5t96.5 173.5h-256zM600 740q0 28 -8 37t-28 14t-32.5 11t-12.5 20q0 27 35 27h90q43 0 43 -43v-424q0 -95 -66 -95h-21v195h-171 q-32 0 -32 36t32 36h171v186zM682 171h-67v-203h67q34 0 34 -36t-34 -36h-470q-32 0 -32 36t32 36h82v203h-82q-32 0 -32 36t32 36h470q34 0 34 -36t-34 -36zM529 171h-149v-203h149v203z" />
<glyph unicode="&#xac8b;" horiz-adv-x="776" d="M86 678q-32 0 -32 37q0 36 32 36h323q19 0 30 -16t6 -35q-23 -110 -129 -226.5t-237 -180.5q-35 -17 -47 5.5t14 38.5q117 73 193.5 170t102.5 171h-256zM600 740q0 28 -8 37t-28 14t-32.5 11t-12.5 20q0 27 35 27h90q43 0 43 -43v-407q0 -95 -66 -95h-21v195h-173 q-32 0 -32 36q0 37 32 37h173v168zM682 108h-73q32 -34 32 -84q0 -63 -48.5 -108t-125.5 -45t-125.5 45t-48.5 108q0 50 32 84h-73q-34 0 -34 35q0 36 34 36h430q34 0 34 -36q0 -35 -34 -35zM361 245l-28 24q-10 10 -12.5 21t6.5 24q9 10 22 9t23 -6q38 -18 85.5 -22.5 t91.5 -4.5q35 0 35 -36q0 -16 -11.5 -25.5t-27.5 -9.5l-92 1q-61 0 -92 25zM381 25q0 -34 25.5 -58t60.5 -24t60.5 24t25.5 58t-25.5 58t-60.5 24t-60.5 -24t-25.5 -58z" />
<glyph unicode="&#xac8c;" horiz-adv-x="813" d="M86 623q-32 0 -32 37q0 36 32 36h268q22 0 32 -17t8 -36q-12 -77 -49 -155h136v210q0 28 -6.5 36.5t-27.5 14.5t-32.5 12.5t-11.5 19.5q0 25 35 25h86q43 0 43 -45v-713q0 -95 -66 -95h-20v462h-140q-19 0 -28 13q-15 -26 -32 -52q-95 -134 -198 -210q-34 -24 -49 -3 t9 42q100 91 165.5 205t85.5 213h-208zM616 849h87q45 0 45 -42v-821q0 -94 -68 -94h-20v848q0 29 -6.5 38t-28.5 14t-33.5 10.5t-11.5 19.5q0 27 36 27z" />
<glyph unicode="&#xac90;" horiz-adv-x="813" d="M86 652q-32 0 -32 37q0 35 32 35h272q21 0 30.5 -15.5t6.5 -35.5q-12 -76 -50 -153h136v178q0 28 -6.5 36.5t-27.5 14.5t-32.5 12.5t-11.5 19.5q0 25 35 25h86q43 0 43 -45v-524q0 -94 -66 -94h-20v304h-135q-24 0 -31 19q-13 -21 -27 -43q-89 -128 -206 -207 q-33 -20 -49 -0.5t9 39.5q104 92 172 207t80 190h-208zM616 849h87q45 0 45 -43v-591q0 -94 -68 -94h-20v619q0 29 -6.5 38t-28.5 14t-33.5 10.5t-11.5 19.5q0 27 36 27zM735 -97h-371q-95 0 -95 89v110q0 28 -8.5 37t-28.5 14q-21 7 -28.5 12.5t-7.5 19.5q0 27 31 27h87 q42 0 42 -47v-167q0 -21 19 -21h361q33 0 33 -37t-34 -37z" />
<glyph unicode="&#xac94;" horiz-adv-x="813" d="M86 664q-32 0 -32 37q0 36 32 36h272q21 0 30.5 -16t6.5 -36q-13 -68 -49 -134h135v147q0 28 -6.5 36.5t-27.5 14.5t-32.5 12.5t-11.5 19.5q0 25 35 25h87q42 0 42 -45v-329q0 -96 -66 -96h-20v143h-141q-22 0 -29 16q-12 -17 -25 -35q-87 -109 -207 -181q-33 -20 -48 1 t11 41q109 82 172.5 178.5t79.5 164.5h-208zM660 740q0 29 -6.5 38t-28.5 14t-33.5 10.5t-11.5 19.5q0 27 36 27h87q45 0 45 -43v-385q0 -95 -68 -95h-20v414zM734 -111h-376q-54 0 -54 66v75q0 22 -7.5 30t-20.5 14q-9 3 -15.5 8.5t-6.5 19.5q0 25 27 25h369v93h-343 q-32 0 -32 36t32 36h394q36 0 36 -45v-138q0 -53 -41 -53h-305v-70q0 -25 24 -25h320q32 0 32 -35q0 -37 -33 -37z" />
<glyph unicode="&#xac9c;" horiz-adv-x="813" d="M86 659q-32 0 -32 37q0 36 32 36h272q21 0 30.5 -16t6.5 -36q-11 -67 -49 -136h135v154q0 28 -6.5 36.5t-27.5 14.5t-32.5 12.5t-11.5 19.5q0 25 35 25h87q42 0 42 -45v-368q0 -96 -66 -96h-20v174h-141q-22 0 -29 17q-11 -18 -24 -34q-90 -115 -208 -186q-33 -20 -48 1 t11 41q98 75 166 172.5t86 176.5h-208zM616 849h87q45 0 45 -43v-424q0 -95 -68 -95h-20v453q0 29 -6.5 38t-28.5 14t-33.5 10.5t-11.5 19.5q0 27 36 27zM379 -31h272v201h-271v-174q0 -14 -1 -27zM694 243q43 0 43 -51v-148q0 -49 -16 -75q30 -2 30 -36q0 -37 -33 -37h-357 q-16 -29 -47 -29h-20v252q0 38 -2.5 49t-19.5 18q-12 5 -20.5 11.5t-8.5 18.5q0 27 32 27h419z" />
<glyph unicode="&#xac9d;" horiz-adv-x="813" d="M86 664q-32 0 -32 37q0 36 32 36h272q21 0 30.5 -16t6.5 -36q-11 -67 -49 -136h135v149q0 28 -6.5 36.5t-27.5 14.5t-32.5 12.5t-11.5 19.5q0 25 35 25h87q42 0 42 -45v-328q0 -96 -66 -96h-20v140h-141q-23 0 -29 17q-12 -17 -25 -35q-91 -114 -206 -190 q-33 -22 -47.5 -0.5t9.5 42.5q93 75 165 176.5t87 176.5h-208zM660 740q0 29 -6.5 38t-28.5 14t-33.5 10.5t-11.5 19.5q0 27 36 27h87q45 0 45 -43v-384q0 -95 -68 -95h-20v413zM385 157h266v47q0 26 -3.5 32t-11.5 9q-15 6 -25 11t-10 18q0 26 34 26h58q44 0 44 -45v-210 q0 -50 -17 -76q31 -1 31 -36q0 -37 -33 -37h-351q-17 -28 -48 -28h-20v302q0 27 -3 34t-11 10q-11 5 -22.5 9.5t-11.5 18.5q0 27 34 27h59q41 0 41 -45v-67zM651 84h-266v-87q0 -15 -1 -28h267v115z" />
<glyph unicode="&#xac9f;" horiz-adv-x="813" d="M86 659q-32 0 -32 37q0 36 32 36h272q21 0 30.5 -16t6.5 -36q-12 -68 -50 -138h136v156q0 28 -6.5 36.5t-27.5 14.5t-32.5 12.5t-11.5 19.5q0 25 35 25h86q43 0 43 -45v-353q0 -95 -66 -95h-20v156h-137q-25 0 -31 21q-12 -19 -26 -36q-90 -115 -208 -186q-33 -20 -48 1 t11 41q98 75 166 172.5t86 176.5h-208zM616 849h87q45 0 45 -43v-465q0 -95 -68 -95h-20v494q0 29 -6.5 38t-28.5 14t-33.5 10.5t-11.5 19.5q0 27 36 27zM543 207q-9 -35 -32 -73l244 -159q19 -12 21.5 -32t-6.5 -33q-12 -15 -30.5 -15.5t-40.5 15.5l-225 173 q-18 -22 -41 -46q-90 -93 -190 -143q-37 -20 -53.5 -2t15.5 40q85 55 151.5 132t93.5 139q5 10 -7.5 16.5t-30.5 10.5q-25 5 -23 28t28 23h68q40 0 52 -22.5t6 -51.5z" />
<glyph unicode="&#xaca0;" horiz-adv-x="813" d="M86 659q-32 0 -32 37q0 36 32 36h272q21 0 30.5 -16t6.5 -36q-11 -67 -49 -136h135v154q0 28 -6.5 36.5t-27.5 14.5t-32.5 12.5t-11.5 19.5q0 25 35 25h87q42 0 42 -45v-368q0 -96 -66 -96h-20v174h-141q-22 0 -29 17q-11 -18 -24 -34q-90 -115 -208 -186q-33 -20 -48 1 t11 41q98 75 166 172.5t86 176.5h-208zM616 849h87q45 0 45 -43v-424q0 -95 -68 -95h-20v453q0 29 -6.5 38t-28.5 14t-33.5 10.5t-11.5 19.5q0 27 36 27zM400 193q-6 -41 -24 -83l116 -100q11 16 21 33q49 81 64 152q1 7 -3.5 12t-18.5 9q-13 5 -22 10t-9 16q0 27 32 27h66 q32 0 42 -18t7 -47q-6 -50 -30 -100l140 -124q22 -17 25 -35t-9 -32q-12 -13 -31.5 -13t-38.5 21l-119 124q-9 -13 -19 -27q-70 -93 -138 -135q-32 -21 -49 -4t8 38q17 15 34 33l-100 106l-18 -27q-65 -83 -148 -132q-33 -20 -50 -3t9 38q66 50 112 122t57 127q2 7 -2 13 t-18 10q-17 5 -24.5 10t-7.5 17q0 25 33 25h67q31 0 40 -18t6 -45z" />
<glyph unicode="&#xaca1;" horiz-adv-x="813" d="M86 659q-32 0 -32 37q0 36 32 36h272q21 0 30.5 -16t6.5 -36q-11 -67 -49 -136h135v154q0 28 -6.5 36.5t-27.5 14.5t-32.5 12.5t-11.5 19.5q0 25 35 25h87q42 0 42 -45v-359q0 -95 -66 -95h-20v164h-141q-22 0 -29 17q-11 -18 -24 -34q-90 -115 -208 -186q-33 -20 -48 1 t11 41q98 75 166 172.5t86 176.5h-208zM616 849h87q45 0 45 -43v-440q0 -95 -68 -95h-20v469q0 29 -6.5 38t-28.5 14t-33.5 10.5t-11.5 19.5q0 27 36 27zM306 71q0 84 60 141.5t147 57.5t147 -57.5t60 -141.5t-60 -141.5t-147 -57.5t-147 57.5t-60 141.5zM394 71 q0 -56 35.5 -90t83.5 -34t83.5 34t35.5 90t-35.5 90t-83.5 34t-83.5 -34t-35.5 -90z" />
<glyph unicode="&#xaca8;" horiz-adv-x="776" d="M86 623q-32 0 -32 37q0 36 32 36h326q20 0 31.5 -17t8.5 -36q-3 -17 -9 -34h157v130q0 29 -8 38t-28 14t-32.5 11t-12.5 20q0 27 35 27h90q43 0 43 -42v-821q0 -94 -66 -94h-21v414h-201q-31 0 -31 36q0 35 31 35h201v160h-182q-34 -76 -96 -155q-108 -134 -240 -217 q-35 -22 -50.5 -0.5t12.5 42.5q117 89 200 207.5t102 208.5h-260z" />
<glyph unicode="&#xaca9;" horiz-adv-x="776" d="M86 670q-32 0 -32 37q0 36 32 36h323q20 0 30 -16t6 -35q-4 -23 -12 -45h167v92q0 29 -8 38t-28 14t-32.5 11t-12.5 20q0 27 35 27h90q43 0 43 -43v-438q0 -95 -66 -95h-21v111h-192q-32 0 -32 37q0 35 32 35h192v119h-200q-31 -55 -84 -112q-107 -118 -237 -184 q-35 -17 -47 5.5t14 38.5q122 78 199.5 179t96.5 168h-256zM218 156q-28 0 -28 37q0 36 28 36h423q38 0 38 -44v-213q0 -99 -62 -99h-24v283h-375z" />
<glyph unicode="&#xacaa;" horiz-adv-x="776" d="M86 670q-32 0 -32 37q0 36 32 36h323q20 0 30 -16t6 -35q-4 -23 -12 -45h167v92q0 29 -8 38t-28 14t-32.5 11t-12.5 20q0 27 35 27h90q43 0 43 -43v-438q0 -95 -66 -95h-21v111h-192q-32 0 -32 37q0 35 32 35h192v119h-200q-31 -55 -84 -112q-107 -118 -237 -184 q-35 -17 -47 5.5t14 38.5q122 78 199.5 179t96.5 168h-256zM464 156q-28 0 -28 37q0 36 28 36h182q39 0 39 -44v-213q0 -99 -61 -99h-24v283h-136zM152 156q-28 0 -28 37q0 36 28 36h227q39 0 39 -44v-213q0 -99 -62 -99h-23v283h-181z" />
<glyph unicode="&#xacac;" horiz-adv-x="776" d="M86 668q-32 0 -32 37q0 36 32 36h323q20 0 30 -16t6 -35q-5 -28 -14 -57h169v106q0 29 -8 38t-28 14t-32.5 11t-12.5 20q0 27 35 27h90q43 0 43 -43v-589q0 -94 -66 -94h-21v225h-192q-32 0 -32 36q0 35 32 35h192v143h-200q-31 -61 -83 -122q-106 -125 -238 -199 q-34 -19 -46.5 4t13.5 40q116 78 198 192.5t99 190.5h-257zM694 -97h-341q-94 0 -94 89v110q0 28 -8.5 37t-28.5 14q-21 7 -29 12.5t-8 19.5q0 27 32 27h87q42 0 42 -47v-167q0 -21 19 -21h330q33 0 33 -37t-34 -37z" />
<glyph unicode="&#xacaf;" horiz-adv-x="776" d="M86 670q-32 0 -32 37q0 36 32 36h323q20 0 30 -16t6 -35q-3 -20 -10 -40h165v87q0 29 -8 38t-28 14t-32.5 11t-12.5 20q0 27 35 27h90q43 0 43 -43v-424q0 -95 -66 -95h-21v105h-192q-32 0 -32 36q0 35 32 35h192v117h-197q-32 -58 -88 -121q-111 -124 -236 -195 q-34 -21 -46.5 2.5t13.5 41.5q122 86 199.5 188.5t96.5 173.5h-256zM659 -104h-327q-61 0 -61 68v159q0 34 -3 45t-22 18q-12 5 -20 11.5t-8 18.5q0 27 27 27h404q33 0 33 -37q0 -36 -32 -36h-292v-175q0 -26 25 -26h277q32 0 32 -36q0 -37 -33 -37z" />
<glyph unicode="&#xacb0;" horiz-adv-x="776" d="M86 678q-32 0 -32 37q0 36 32 36h323q19 0 30 -16t6 -35q-3 -17 -9 -33h164v72q0 29 -8 38t-28 14t-32.5 11t-12.5 20q0 27 35 27h90q43 0 43 -43v-368q0 -96 -66 -96h-21v77h-192q-32 0 -32 37q0 35 32 35h192v104h-196q-31 -57 -86 -114q-104 -110 -239 -177 q-35 -18 -47.5 4.5t14.5 39.5q118 70 194 163t102 167h-256zM676 -111h-355q-55 0 -55 66v78q0 22 -7.5 30t-19.5 14q-10 3 -16.5 9t-6.5 19q0 25 27 25h349v96h-323q-31 0 -31 37q0 35 31 35h374q36 0 36 -45v-141q0 -53 -41 -53h-285v-73q0 -25 24 -25h300q32 0 32 -35 q0 -37 -33 -37z" />
<glyph unicode="&#xacb8;" horiz-adv-x="776" d="M86 670q-32 0 -32 37q0 36 32 36h323q20 0 30 -16t6 -35q-3 -20 -10 -40h165v87q0 29 -8 38t-28 14t-32.5 11t-12.5 20q0 27 35 27h90q43 0 43 -43v-424q0 -95 -66 -95h-21v105h-192q-32 0 -32 36q0 35 32 35h192v117h-197q-32 -58 -88 -121q-111 -124 -236 -195 q-34 -21 -46.5 2.5t13.5 41.5q122 86 199.5 188.5t96.5 173.5h-256zM351 -31h242v201h-241v-174q0 -14 -1 -27zM636 243q43 0 43 -51v-148q0 -49 -16 -75q29 -2 29 -36q0 -37 -33 -37h-325q-17 -29 -47 -29h-21v252q0 38 -2.5 49t-18.5 18q-13 5 -21.5 11.5t-8.5 18.5 q0 27 33 27h388z" />
<glyph unicode="&#xacb9;" horiz-adv-x="776" d="M86 678q-32 0 -32 37q0 36 32 36h323q19 0 30 -16t6 -35q-5 -22 -12 -44h167v83q0 29 -8 38t-28 14t-32.5 11t-12.5 20q0 27 35 27h90q43 0 43 -43v-380q0 -95 -66 -95h-21v75h-192q-32 0 -32 37q0 35 32 35h192v106h-192q-6 0 -10 1q-30 -52 -80 -105 q-104 -111 -239 -187q-35 -20 -46 3.5t13 40.5q117 80 192.5 170t103.5 171h-256zM352 159h241v49q0 26 -3.5 32t-11.5 9q-16 6 -25.5 11t-9.5 18q0 27 34 27h58q44 0 44 -46v-214q0 -50 -17 -76q30 -1 30 -36q0 -37 -33 -37h-325q-17 -28 -47 -28h-21v306q0 27 -3 34 t-11 11q-10 4 -22 8.5t-12 18.5q0 27 34 27h59q41 0 41 -45v-69zM593 86h-241v-89q0 -15 -1 -28h242v117z" />
<glyph unicode="&#xacbb;" horiz-adv-x="776" d="M86 670q-32 0 -32 37q0 36 32 36h323q20 0 30 -16t6 -35q-3 -20 -10 -40h165v87q0 29 -8 38t-28 14t-32.5 11t-12.5 20q0 27 35 27h90q43 0 43 -43v-474q0 -95 -66 -95h-21v155h-192q-32 0 -32 36q0 35 32 35h192v117h-197q-32 -58 -88 -121q-111 -124 -236 -195 q-34 -21 -46.5 2.5t13.5 41.5q122 86 199.5 188.5t96.5 173.5h-256zM520 208q-9 -36 -32 -73l229 -159q17 -11 20.5 -31.5t-5.5 -33.5q-12 -15 -31 -15t-39 15l-208 170q-18 -22 -39 -45q-85 -91 -179 -141q-36 -20 -52.5 -2.5t14.5 39.5q84 57 144.5 134.5t84.5 137.5 q5 10 -7 16.5t-31 10.5q-24 5 -22 28t27 23h69q40 0 52 -22.5t5 -51.5z" />
<glyph unicode="&#xacbc;" horiz-adv-x="776" d="M86 670q-32 0 -32 37q0 36 32 36h323q20 0 30 -16t6 -35q-3 -20 -10 -40h165v87q0 29 -8 38t-28 14t-32.5 11t-12.5 20q0 27 35 27h90q43 0 43 -43v-424q0 -95 -66 -95h-21v105h-192q-32 0 -32 36q0 35 32 35h192v117h-197q-32 -58 -88 -121q-111 -124 -236 -195 q-34 -21 -46.5 2.5t13.5 41.5q122 86 199.5 188.5t96.5 173.5h-256zM393 193q-6 -46 -29 -92l105 -91q11 16 21 33q50 81 64 152q1 7 -3 12t-19 9q-13 5 -21.5 10t-8.5 16q0 27 32 27h65q33 0 42.5 -18t6.5 -47q-7 -51 -32 -103l138 -121q21 -17 24 -35t-9 -32 q-11 -13 -30.5 -13t-39.5 21l-115 121l-18 -24q-69 -93 -138 -135q-32 -21 -49 -4t8 38q17 15 35 33l-91 96q-6 -9 -13 -17q-64 -83 -147 -132q-33 -20 -50.5 -3t9.5 38q66 50 112 122t57 127q2 7 -2 13t-18 10q-17 5 -24.5 10t-7.5 17q0 25 33 25h67q31 0 40 -18t6 -45z " />
<glyph unicode="&#xacbd;" horiz-adv-x="776" d="M86 670q-32 0 -32 37q0 36 32 36h323q20 0 30 -16t6 -35q-3 -20 -10 -40h165v87q0 29 -8 38t-28 14t-32.5 11t-12.5 20q0 27 35 27h90q43 0 43 -43v-439q0 -95 -66 -95h-21v120h-192q-32 0 -32 36q0 35 32 35h192v117h-197q-32 -58 -88 -121q-111 -124 -236 -195 q-34 -21 -46.5 2.5t13.5 41.5q122 86 199.5 188.5t96.5 173.5h-256zM268 71q0 84 60 141.5t147 57.5t147 -57.5t60 -141.5t-60 -141.5t-147 -57.5t-147 57.5t-60 141.5zM356 71q0 -56 35.5 -90t83.5 -34t83.5 34t35.5 90t-35.5 90t-83.5 34t-83.5 -34t-35.5 -90z" />
<glyph unicode="&#xacc1;" horiz-adv-x="776" d="M86 678q-32 0 -32 37q0 36 32 36h323q19 0 30 -16t6 -35q-3 -17 -9 -33h164v72q0 29 -8 38t-28 14t-32.5 11t-12.5 20q0 27 35 27h90q43 0 43 -43v-368q0 -96 -66 -96h-21v77h-192q-32 0 -32 37q0 35 32 35h192v104h-196q-31 -57 -86 -114q-104 -110 -239 -177 q-35 -18 -47.5 4.5t14.5 39.5q118 70 194 163t102 167h-256zM646 130q33 0 33 -35q0 -36 -33 -36h-293v-71q0 -27 25 -27h287q31 0 31 -35q0 -37 -32 -37h-337q-61 0 -61 67v223q0 33 -3 44t-22 18q-12 5 -20 11.5t-8 19.5q0 26 27 26h415q33 0 33 -36t-32 -36h-303v-96h293 z" />
<glyph unicode="&#xacc4;" horiz-adv-x="813" d="M86 623q-32 0 -32 37q0 36 32 36h268q22 0 32 -17t8 -36q-4 -28 -12 -58h102v112q0 29 -6.5 37.5t-26.5 14.5q-22 6 -33 12.5t-11 19.5q0 25 34 25h85q43 0 43 -45v-713q0 -95 -67 -95h-18v358h-136q-33 0 -33 36q0 35 33 35h136v131h-127q-29 -68 -76 -137 q-95 -134 -198 -210q-34 -24 -49 -3t9 42q100 91 165.5 205t85.5 213h-208zM616 849h87q45 0 45 -42v-821q0 -94 -68 -94h-20v848q0 29 -6.5 38t-28.5 14t-33.5 10.5t-11.5 19.5q0 27 36 27z" />
<glyph unicode="&#xacc8;" horiz-adv-x="813" d="M86 652q-32 0 -32 37q0 35 32 35h272q21 0 30.5 -15.5t6.5 -35.5q-5 -34 -15 -67h110v91q0 29 -6.5 37.5t-26.5 14.5q-22 6 -33 12.5t-11 19.5q0 25 34 25h85q43 0 43 -45v-524q0 -94 -67 -94h-18v198h-142q-33 0 -33 36t33 36h142v121h-139q-25 -55 -63 -111 q-89 -128 -206 -207q-33 -20 -49 -0.5t9 39.5q104 92 172 207t80 190h-208zM616 849h87q45 0 45 -43v-591q0 -94 -68 -94h-20v619q0 29 -6.5 38t-28.5 14t-33.5 10.5t-11.5 19.5q0 27 36 27zM735 -97h-371q-95 0 -95 89v110q0 28 -8.5 37t-28.5 14q-21 7 -28.5 12.5 t-7.5 19.5q0 27 31 27h87q42 0 42 -47v-167q0 -21 19 -21h361q33 0 33 -37t-34 -37z" />
<glyph unicode="&#xaccc;" horiz-adv-x="813" d="M86 664q-32 0 -32 37q0 36 32 36h272q21 0 30.5 -16t6.5 -36q-4 -20 -10 -39h105v51q0 29 -6.5 37.5t-26.5 14.5q-22 6 -33 12.5t-11 19.5q0 25 34 25h87q41 0 41 -45v-329q0 -96 -67 -96h-18v76h-142q-33 0 -33 36t33 36h142v90h-133q-26 -57 -71 -114 q-87 -109 -207 -181q-33 -20 -48 1t11 41q109 82 172.5 178.5t79.5 164.5h-208zM660 740q0 29 -6.5 38t-28.5 14t-33.5 10.5t-11.5 19.5q0 27 36 27h87q45 0 45 -43v-385q0 -95 -68 -95h-20v414zM734 -111h-376q-54 0 -54 66v75q0 22 -7.5 30t-20.5 14q-9 3 -15.5 8.5 t-6.5 19.5q0 25 27 25h369v93h-343q-32 0 -32 36t32 36h394q36 0 36 -45v-138q0 -53 -41 -53h-305v-70q0 -25 24 -25h320q32 0 32 -35q0 -37 -33 -37z" />
<glyph unicode="&#xacd5;" horiz-adv-x="813" d="M86 664q-32 0 -32 37q0 36 32 36h272q21 0 30.5 -16t6.5 -36q-4 -21 -10 -44h105v56q0 29 -6.5 37.5t-26.5 14.5q-22 6 -33 12.5t-11 19.5q0 25 34 25h87q41 0 41 -45v-328q0 -96 -67 -96h-18v66h-142q-33 0 -33 36t33 36h142v95h-134q-26 -56 -70 -111 q-91 -114 -206 -190q-33 -22 -47.5 -0.5t9.5 42.5q93 75 165 176.5t87 176.5h-208zM660 740q0 29 -6.5 38t-28.5 14t-33.5 10.5t-11.5 19.5q0 27 36 27h87q45 0 45 -43v-384q0 -95 -68 -95h-20v413zM385 157h266v47q0 26 -3.5 32t-11.5 9q-15 6 -25 11t-10 18q0 26 34 26h58 q44 0 44 -45v-210q0 -50 -17 -76q31 -1 31 -36q0 -37 -33 -37h-351q-17 -28 -48 -28h-20v302q0 27 -3 34t-11 10q-11 5 -22.5 9.5t-11.5 18.5q0 27 34 27h59q41 0 41 -45v-67zM651 84h-266v-87q0 -15 -1 -28h267v115z" />
<glyph unicode="&#xacd7;" horiz-adv-x="813" d="M86 659q-32 0 -32 37q0 36 32 36h272q21 0 30.5 -16t6.5 -36q-4 -21 -10 -44h105v61q0 29 -6.5 37.5t-26.5 14.5q-22 6 -33 12.5t-11 19.5q0 25 34 25h85q43 0 43 -45v-353q0 -95 -67 -95h-18v73h-142q-33 0 -33 36t33 36h142v107h-133q-27 -56 -70 -111 q-90 -115 -208 -186q-33 -20 -48 1t11 41q98 75 166 172.5t86 176.5h-208zM616 849h87q45 0 45 -43v-465q0 -95 -68 -95h-20v494q0 29 -6.5 38t-28.5 14t-33.5 10.5t-11.5 19.5q0 27 36 27zM543 207q-9 -35 -32 -73l244 -159q19 -12 21.5 -32t-6.5 -33q-12 -15 -30.5 -15.5 t-40.5 15.5l-225 173q-18 -22 -41 -46q-90 -93 -190 -143q-37 -20 -53.5 -2t15.5 40q85 55 151.5 132t93.5 139q5 10 -7.5 16.5t-30.5 10.5q-25 5 -23 28t28 23h68q40 0 52 -22.5t6 -51.5z" />
<glyph unicode="&#xace0;" d="M168 727h443q43 0 43 -53q0 -76 -10.5 -200t-40.5 -213q-5 -16 -16.5 -22t-26.5 -2q-11 3 -15.5 12t-0.5 29q12 61 16 159t4 217h-396q-32 0 -32 37q0 36 32 36zM325 121v220q0 29 -5.5 36t-28.5 14q-17 4 -25.5 10.5t-8.5 19.5q0 27 36 27h77q42 0 42 -46v-281h361 q34 0 34 -36t-34 -36h-721q-30 0 -30 36t30 36h273z" />
<glyph unicode="&#xace1;" d="M178 721q-32 0 -32 37t32 37h434q42 0 42 -51q0 -86 -10 -192q-10 -94 -27 -156h155q35 0 35 -36q0 -37 -35 -37h-720q-30 0 -30 37q0 36 30 36h284v94q0 25 -4.5 34t-23.5 15t-29.5 12.5t-10.5 19.5q0 25 36 25h77q42 0 42 -47v-153h127q12 101 13 144t1 181h-386z M174 150q-28 0 -28 37q0 36 28 36h436q38 0 38 -44v-207q0 -99 -61 -99h-25v277h-388z" />
<glyph unicode="&#xace4;" d="M178 707q-32 0 -32 37t32 37h434q42 0 42 -52q0 -86 -10 -204q-10 -106 -28 -170h156q35 0 35 -36q0 -37 -35 -37h-720q-30 0 -30 37q0 36 30 36h284v108q0 26 -4.5 34.5t-23.5 14.5q-19 7 -29.5 13.5t-10.5 18.5q0 26 36 26h77q42 0 42 -47v-168h127q10 65 12 150 q2 86 2 202h-386zM638 -97h-353q-95 0 -95 89v99q0 28 -9.5 37t-26.5 14q-23 7 -31 12.5t-8 18.5q0 28 32 28h87q44 0 44 -47v-156q0 -21 18 -21h343q33 0 33 -37t-34 -37z" />
<glyph unicode="&#xace7;" d="M178 721q-32 0 -32 37t32 37h434q42 0 42 -51q0 -86 -10 -192q-9 -90 -26 -151h155q34 0 34 -36q0 -37 -34 -37h-721q-30 0 -30 37q0 36 30 36h284v94q0 26 -4.5 34.5t-23.5 14.5t-29.5 13t-10.5 19q0 25 36 25h77q42 0 42 -47v-153h128q11 97 12 139q1 43 1 181h-386z M634 -104h-379q-59 0 -59 68v150q0 34 -3.5 44.5t-22.5 18.5q-11 5 -19.5 11.5t-8.5 18.5q0 27 27 27h455q32 0 32 -37q0 -36 -31 -36h-342v-166q0 -26 24 -26h328q32 0 32 -36q0 -37 -33 -37z" />
<glyph unicode="&#xace8;" d="M178 727q-32 0 -32 37t32 37h434q42 0 42 -51q0 -86 -10 -173q-9 -73 -24 -130h152q35 0 35 -36q0 -37 -35 -37h-720q-30 0 -30 37q0 36 30 36h284v68q0 26 -4.5 34.5t-23.5 15.5q-19 6 -29.5 12.5t-10.5 18.5q0 26 36 26h77q42 0 42 -47v-128h128q11 83 12 119 q1 37 1 161h-386zM194 221q-32 0 -32 34q0 37 32 37h424q36 0 36 -45v-137q0 -53 -40 -53h-336v-71q0 -25 23 -25h352q32 0 32 -36t-33 -36h-398q-64 0 -64 76v65q0 23 -6 30.5t-20 12.5q-8 4 -17 9.5t-9 19.5q0 26 28 26h401v93h-373z" />
<glyph unicode="&#xacea;" d="M178 727q-32 0 -32 37t32 37h434q42 0 42 -51q0 -86 -10 -173q-9 -73 -24 -130h152q35 0 35 -36q0 -37 -35 -37h-720q-30 0 -30 37q0 36 30 36h284v68q0 26 -4.5 34.5t-23.5 15.5q-19 6 -29.5 12.5t-10.5 18.5q0 26 36 26h77q42 0 42 -47v-128h128q11 83 12 119 q1 37 1 161h-386zM526 -22h88v244h-87v-215q0 -16 -1 -29zM157 221q-32 0 -32 35q0 36 32 36h199q37 0 37 -44v-141q0 -50 -34 -50h-125v-75q0 -21 18 -21h137q32 0 32 -35q0 -37 -34 -37h-173q-64 0 -64 74v74q0 22 -3.5 28t-16.5 12q-9 4 -14 9t-5 19q0 22 20 22h180v94 h-154zM654 292q43 0 43 -49v-189q0 -49 -17 -76q31 -2 31 -35q0 -37 -34 -37h-167q-16 -28 -46 -28h-17v302q0 36 -1.5 42.5t-10.5 13.5t-16 12t-7 18q0 26 26 26h216z" />
<glyph unicode="&#xacec;" d="M178 727q-32 0 -32 37t32 37h434q42 0 42 -51q0 -86 -10 -173q-9 -73 -24 -130h152q35 0 35 -36q0 -37 -35 -37h-720q-30 0 -30 37q0 36 30 36h284v68q0 26 -4.5 34.5t-23.5 15.5q-19 6 -29.5 12.5t-10.5 18.5q0 26 36 26h77q42 0 42 -47v-128h128q11 83 12 119 q1 37 1 161h-386zM641 226q-8 -46 -26 -92l138 -160q18 -21 17 -38.5t-13 -27.5q-14 -12 -33 -11t-32 18l-104 150q-3 -5 -5 -10q-44 -87 -99 -145q-11 -11 -24 -14q-11 -3 -20 1q-8 -8 -23 -8h-204q-63 0 -63 74v69q0 22 -3.5 30.5t-16.5 14.5q-9 4 -14 9t-5 19q0 22 20 22 h203v94h-177q-32 0 -32 35q0 36 32 36h226q37 0 37 -44v-141q0 -50 -34 -50h-150v-75q0 -21 17 -21h165q18 0 25 -11q39 60 67 126q30 74 37 140q2 12 -7.5 18.5t-26.5 10.5q-27 5 -25.5 28.5t27.5 23.5h72q35 0 47.5 -19t6.5 -52z" />
<glyph unicode="&#xacef;" d="M178 727q-32 0 -32 37t32 37h434q42 0 42 -51q0 -86 -10 -173q-9 -73 -24 -130h152q35 0 35 -36q0 -37 -35 -37h-720q-30 0 -30 37q0 36 30 36h284v68q0 26 -4.5 34.5t-23.5 15.5q-19 6 -29.5 12.5t-10.5 18.5q0 26 36 26h77q42 0 42 -47v-128h128q11 83 12 119 q1 37 1 161h-386zM157 221q-32 0 -32 35q0 36 32 36h192q37 0 37 -44v-141q0 -50 -34 -50h-118v-75q0 -21 18 -21h130q32 0 32 -35q0 -37 -34 -37h-166q-64 0 -64 74v69q0 22 -3.5 30.5t-16.5 14.5q-9 4 -14 9t-5 19q0 22 20 22h170v94h-144zM480 227l-28 23q-11 11 -13 22 t6 23q10 11 23 10t22 -7q38 -17 65.5 -21.5t71.5 -4.5q35 0 35 -36q0 -16 -11.5 -26t-27.5 -10l-72 1q-40 0 -71 26zM718 97h-35q26 -32 26 -78q0 -60 -41 -102t-105 -42q-62 0 -102.5 42t-40.5 102q0 46 24 78h-21q-34 0 -34 33q0 35 34 35h295q34 0 34 -35q0 -33 -34 -33z M625 19q0 32 -18 54.5t-43 22.5q-24 0 -42 -22.5t-18 -54.5t18 -54.5t42 -22.5q25 0 43 22.5t18 54.5z" />
<glyph unicode="&#xacf0;" d="M178 721q-32 0 -32 37t32 37h434q42 0 42 -51q0 -86 -10 -192q-9 -90 -26 -151h155q34 0 34 -36q0 -37 -34 -37h-721q-30 0 -30 37q0 36 30 36h284v94q0 26 -4.5 34.5t-23.5 14.5t-29.5 13t-10.5 19q0 25 36 25h77q42 0 42 -47v-153h128q11 97 12 139q1 43 1 181h-386z M278 -31h287v192h-286v-165q0 -14 -1 -27zM608 234q43 0 43 -50v-140q0 -49 -16 -75q30 -2 30 -36q0 -37 -33 -37h-372q-16 -29 -47 -29h-20v244q0 37 -3 47.5t-19 18.5q-12 5 -21 11.5t-9 18.5q0 27 33 27h434z" />
<glyph unicode="&#xacf1;" d="M178 727q-32 0 -32 37t32 37h434q42 0 42 -51q0 -86 -10 -186q-9 -83 -24 -143h152q35 0 35 -36t-35 -36h-720q-30 0 -30 36t30 36h284v94q0 26 -4.5 34.5t-23.5 15.5q-19 6 -29.5 12.5t-10.5 18.5q0 26 36 26h77q42 0 42 -47v-154h128q11 84 12 131q1 51 1 175h-386z M632 -104h-372q-16 -28 -47 -28h-20v315q0 26 -3.5 33.5t-11.5 10.5q-10 4 -22 8.5t-12 18.5q0 27 34 27h60q41 0 41 -45v-79h286v43q0 26 -3.5 32t-11.5 9q-15 6 -25 10.5t-10 18.5q0 26 34 26h58q44 0 44 -45v-206q0 -50 -17 -76q31 -1 31 -36q0 -37 -33 -37zM278 -31h287 v115h-286v-87q0 -15 -1 -28z" />
<glyph unicode="&#xacf3;" d="M178 721q-32 0 -32 37t32 37h434q42 0 42 -51q0 -86 -10 -187q-10 -93 -29 -156h158q34 0 34 -36q0 -37 -34 -37h-721q-30 0 -30 37q0 36 30 36h284v94q0 26 -4.5 34.5t-23.5 14.5t-29.5 13t-10.5 19q0 25 36 25h77q42 0 42 -47v-153h127v2q12 103 13 141.5t1 176.5h-386 zM474 197q-10 -39 -38 -81l258 -144q22 -12 26 -33t-9 -35t-30 -14t-40 15l-241 164q-12 -14 -26 -29q-83 -86 -191 -148q-39 -23 -53 -2t11 39q86 56 153.5 134t86.5 129q4 11 -9 17.5t-28 10.5q-26 5 -23.5 28t27.5 23h69q40 0 51.5 -22.5t5.5 -51.5z" />
<glyph unicode="&#xacf5;" d="M178 721q-32 0 -32 37t32 37h434q42 0 42 -51q0 -86 -10 -187q-10 -89 -27 -151h156q34 0 34 -36q0 -37 -34 -37h-721q-30 0 -30 37q0 36 30 36h284v94q0 26 -4.5 34.5t-23.5 14.5t-29.5 13t-10.5 19q0 26 36 26h77q42 0 42 -47v-154h127q12 101 13 139t1 176h-386z M198 67q0 81 63.5 138t152.5 57t152.5 -57t63.5 -138t-63.5 -138t-152.5 -57t-152.5 57t-63.5 138zM286 67q0 -49 37 -84.5t91 -35.5q53 0 90.5 35.5t37.5 84.5t-37.5 84.5t-90.5 35.5q-54 0 -91 -35.5t-37 -84.5z" />
<glyph unicode="&#xacf6;" d="M178 721q-32 0 -32 37t32 37h434q42 0 42 -51q0 -86 -10 -192q-9 -90 -26 -151h155q34 0 34 -36q0 -37 -34 -37h-721q-30 0 -30 37q0 36 30 36h284v94q0 26 -4.5 34.5t-23.5 14.5t-29.5 13t-10.5 19q0 25 36 25h77q42 0 42 -47v-153h128q11 97 12 139q1 43 1 181h-386z M204 161q-31 0 -31 37q0 36 32 36h374q32 0 47.5 -19.5t5.5 -49.5q-22 -55 -121 -123l195 -71q46 -18 27.5 -56t-68.5 -15l-221 100q-133 -76 -280 -113q-33 -8 -41 17.5t20 34.5q79 25 194.5 89.5t182.5 132.5h-316z" />
<glyph unicode="&#xacfc;" horiz-adv-x="831" d="M88 637q-32 0 -32 37t32 37h346q44 0 43 -54q-1 -90 -12 -182.5t-31 -164.5q-5 -16 -17.5 -22.5t-26.5 -3.5q-14 4 -16 16t0 25q12 72 12.5 150t0.5 162h-299zM582 739q0 29 -10.5 38t-29.5 14q-21 5 -32 11t-11 20q0 27 32 27h96q42 0 42 -42v-318h125q32 0 32 -38 q0 -37 -32 -37h-125v-429q0 -92 -67 -92h-20v846zM195 193v182q0 30 -4.5 37.5t-23.5 13.5q-13 4 -25.5 10.5t-12.5 19.5q0 28 41 28h70q42 0 42 -47v-244h34q63 0 106 1.5t88 9.5q37 7 43 -13t-14 -33q-25 -16 -83.5 -27t-144.5 -11h-267q-31 0 -31 37q0 36 31 36h151z" />
<glyph unicode="&#xacfd;" horiz-adv-x="831" d="M98 699q-31 0 -31 37t31 37h345q43 0 43 -53t-10.5 -133.5t-32.5 -136.5q-6 -14 -17.5 -21t-26.5 -4q-14 4 -16.5 16t0.5 25q11 48 12 101t1 132h-298zM582 739q0 29 -8.5 38t-27.5 14q-21 5 -33 11t-12 20q0 27 35 27h91q42 0 42 -42v-241h125q32 0 32 -38 q0 -37 -32 -37h-125v-160q0 -92 -67 -92h-20v500zM201 364v104q0 30 -5 37.5t-23 14.5q-13 4 -25.5 10t-12.5 19q0 28 41 28h70q42 0 42 -48v-165h28q63 0 106 1.5t88 9.5q37 7 43 -13t-14 -33q-25 -16 -83.5 -27t-144.5 -11h-267q-31 0 -31 37q0 36 31 36h157zM222 133 q-27 0 -27 36t27 36h402q38 0 38 -44v-189q0 -99 -62 -99h-25v260h-353z" />
<glyph unicode="&#xad00;" horiz-adv-x="831" d="M98 678q-31 0 -31 37t31 37h345q43 0 43 -52q0 -53 -10.5 -133.5t-32.5 -137.5q-6 -14 -17.5 -20.5t-26.5 -3.5q-14 4 -16.5 16t0.5 25q11 48 12 100.5t1 131.5h-298zM582 739q0 29 -8.5 38t-27.5 14q-21 5 -33 11t-12 20q0 27 35 27h91q42 0 42 -42v-282h125 q32 0 32 -38q0 -37 -32 -37h-125v-262q0 -92 -67 -92h-20v643zM201 328v125q0 30 -5 37.5t-23 13.5q-13 4 -25.5 10.5t-12.5 19.5q0 28 41 28h70q42 0 42 -49v-185h28q63 0 106 1.5t88 9.5q37 8 43 -12t-14 -34q-25 -16 -83.5 -27t-144.5 -11h-267q-31 0 -31 37q0 36 31 36 h157zM666 -97h-347q-94 0 -94 89v82q0 29 -8.5 37.5t-28.5 13.5q-21 8 -28.5 13.5t-7.5 18.5q0 28 31 28h87q42 0 42 -47v-140q0 -21 19 -21h336q32 0 32 -37t-33 -37z" />
<glyph unicode="&#xad04;" horiz-adv-x="831" d="M98 702q-31 0 -31 37t31 37h345q43 0 43 -53t-10.5 -116t-32.5 -119q-6 -15 -17.5 -21.5t-26.5 -3.5q-14 4 -16.5 16t0.5 25q11 48 12 83.5t1 114.5h-298zM582 739q0 29 -8.5 38t-27.5 14q-21 5 -33 11t-12 20q0 27 35 27h91q42 0 42 -42v-211h125q32 0 32 -38 q0 -36 -32 -36h-125v-119q0 -92 -67 -92h-20v428zM201 415v74q0 30 -5 37.5t-23 13.5q-13 4 -25.5 10t-12.5 20q0 27 41 27h70q42 0 42 -48v-134h28q63 0 106 1.5t88 9.5q37 8 43 -12t-14 -34q-25 -16 -83.5 -27t-144.5 -11h-267q-31 0 -31 37q0 36 31 36h157zM658 -111 h-365q-54 0 -54 66v67q0 21 -8 29.5t-20 14.5q-9 3 -16 8.5t-7 19.5q0 25 27 25h359v84h-332q-32 0 -32 36t32 36h384q36 0 36 -45v-128q0 -53 -41 -53h-295v-63q0 -25 23 -25h310q32 0 32 -35q0 -37 -33 -37z" />
<glyph unicode="&#xad06;" horiz-adv-x="831" d="M98 702q-31 0 -31 37t31 37h345q43 0 43 -53t-10.5 -116t-32.5 -119q-6 -15 -17.5 -21.5t-26.5 -3.5q-14 4 -16.5 16t0.5 25q11 48 12 83.5t1 114.5h-298zM582 739q0 29 -8.5 38t-27.5 14q-21 5 -33 11t-12 20q0 27 35 27h91q42 0 42 -42v-211h125q32 0 32 -38 q0 -36 -32 -36h-125v-119q0 -92 -67 -92h-20v428zM201 415v74q0 30 -5 37.5t-23 13.5q-13 4 -25.5 10t-12.5 20q0 27 41 27h70q42 0 42 -48v-134h28q63 0 106 1.5t88 9.5q37 8 43 -12t-14 -34q-25 -16 -83.5 -27t-144.5 -11h-267q-31 0 -31 37q0 36 31 36h157zM508 -22h78 v226h-77v-197q0 -16 -1 -29zM146 203q-31 0 -31 36t31 36h191q37 0 37 -44v-132q0 -50 -34 -50h-115v-67q0 -21 18 -21h127q31 0 31 -35q0 -37 -33 -37h-164q-65 0 -65 74v61q0 21 -3 29.5t-16 14.5q-9 4 -14.5 8.5t-5.5 19.5q0 22 21 22h170v85h-145zM627 275q43 0 43 -49 v-172q0 -49 -18 -76q31 -2 31 -35q0 -37 -34 -37h-157q-17 -28 -47 -28h-17v284q0 37 -1.5 43t-10.5 14q-9 7 -16.5 12t-7.5 17q0 27 27 27h208z" />
<glyph unicode="&#xad0c;" horiz-adv-x="831" d="M98 699q-31 0 -31 37t31 37h345q43 0 43 -53t-10.5 -128t-32.5 -132q-6 -14 -17.5 -20.5t-26.5 -3.5q-14 4 -16.5 15.5t0.5 25.5q9 43 11 93t2 129h-298zM582 739q0 29 -8.5 38t-27.5 14q-21 5 -33 11t-12 20q0 27 35 27h91q42 0 42 -42v-231h125q32 0 32 -38 q0 -37 -32 -37h-125v-149q0 -93 -67 -93h-20v480zM201 374v115q0 30 -5 37.5t-23 13.5q-13 4 -25.5 10t-12.5 20q0 27 41 27h70q42 0 42 -48v-175h28q63 0 106 1.5t88 9.5q37 8 43 -12t-14 -34q-25 -16 -83.5 -27t-144.5 -11h-267q-31 0 -31 37q0 36 31 36h157zM325 -31h250 v184h-249v-157q0 -14 -1 -27zM618 226q44 0 44 -50v-142q0 -40 -12 -65q31 -2 31 -36q0 -37 -34 -37h-340q-16 -29 -48 -29h-20v236q0 37 -5 48t-20 17q-13 5 -20.5 12t-7.5 19q0 27 27 27h405z" />
<glyph unicode="&#xad0d;" horiz-adv-x="831" d="M98 702q-31 0 -31 37t31 37h345q43 0 43 -53t-10 -125t-33 -120q-6 -14 -17.5 -21t-26.5 -4q-14 4 -16 16t0 25q8 44 10.5 93t2.5 115h-298zM582 739q0 29 -8.5 38t-27.5 14q-21 5 -33 11t-12 20q0 27 35 27h91q42 0 42 -42v-211h125q32 0 32 -38q0 -36 -32 -36h-125 v-129q0 -93 -67 -93h-20v439zM201 395v94q0 30 -5 37.5t-23 13.5q-13 4 -25.5 10t-12.5 20q0 27 41 27h70q42 0 42 -48v-154h28q63 0 106 1.5t88 9.5q37 7 43 -13t-14 -33q-25 -17 -83.5 -27.5t-144.5 -10.5h-267q-31 0 -31 37q0 36 31 36h157zM642 -104h-336 q-16 -28 -47 -28h-20v285q0 27 -3.5 34t-11.5 10q-10 4 -22 8.5t-12 19.5q0 26 34 26h60q41 0 41 -45v-56h250v26q0 25 -3.5 31t-11.5 9q-15 7 -25 11.5t-10 17.5q0 27 34 27h58q45 0 45 -45v-182q0 -50 -18 -76q31 -1 31 -36q0 -37 -33 -37zM324 -31h251v108h-250v-80 q0 -15 -1 -28z" />
<glyph unicode="&#xad0f;" horiz-adv-x="831" d="M98 699q-31 0 -31 37t31 37h345q43 0 43 -53t-10.5 -128t-32.5 -132q-6 -14 -17.5 -20.5t-26.5 -3.5q-14 4 -16.5 15.5t0.5 25.5q9 43 11 93t2 129h-298zM582 739q0 29 -8.5 38t-27.5 14q-21 5 -33 11t-12 20q0 27 35 27h91q42 0 42 -42v-231h125q32 0 32 -38 q0 -37 -32 -37h-125v-211q0 -92 -67 -92h-20v541zM201 374v115q0 30 -5 37.5t-23 13.5q-13 4 -25.5 10t-12.5 20q0 27 41 27h70q42 0 42 -48v-175h28q63 0 106 1.5t88 9.5q37 8 43 -12t-14 -34q-25 -16 -83.5 -27t-144.5 -11h-267q-31 0 -31 37q0 36 31 36h157zM503 187 q-7 -34 -28 -69l224 -143q18 -11 21.5 -31.5t-5.5 -33.5q-13 -15 -31.5 -15t-39.5 15l-205 157q-17 -22 -40 -43q-86 -84 -181 -130q-36 -19 -52 -1t14 39q83 53 143.5 121t86.5 130q5 10 -7.5 16t-30.5 10q-25 5 -23 28.5t28 23.5h68q40 0 52 -23t6 -51z" />
<glyph unicode="&#xad11;" horiz-adv-x="831" d="M98 699q-31 0 -31 37t31 37h345q43 0 43 -53t-10.5 -128t-32.5 -132q-6 -14 -17.5 -20.5t-26.5 -3.5q-14 4 -16.5 15.5t0.5 25.5q9 43 11 93t2 129h-298zM582 739q0 29 -8.5 38t-27.5 14q-21 5 -33 11t-12 20q0 27 35 27h91q42 0 42 -42v-231h125q32 0 32 -38 q0 -37 -32 -37h-125v-170q0 -92 -67 -92h-20v500zM201 374v115q0 30 -5 37.5t-23 13.5q-13 4 -25.5 10t-12.5 20q0 27 41 27h70q42 0 42 -48v-175h28q63 0 106 1.5t88 9.5q37 8 43 -12t-14 -34q-25 -16 -83.5 -27t-144.5 -11h-267q-31 0 -31 37q0 36 31 36h157zM256 58 q0 76 56 130.5t146 54.5q91 0 147.5 -54.5t56.5 -130.5t-56.5 -131t-147.5 -55q-90 0 -146 55t-56 131zM344 58q0 -49 33 -80t81 -31q49 0 82 31t33 80t-33 79.5t-82 30.5q-48 0 -81 -30.5t-33 -79.5z" />
<glyph unicode="&#xad18;" horiz-adv-x="813" d="M72 632q-32 0 -32 37t32 37h301q43 0 43 -51q0 -83 -11 -183t-28 -146q-6 -14 -18 -21t-26 -4q-15 5 -16.5 16.5t0.5 24.5q10 64 10 146.5v143.5h-255zM660 741q0 28 -6.5 37t-28.5 14t-33.5 10.5t-11.5 19.5q0 27 36 27h89q43 0 43 -42v-821q0 -94 -68 -94h-20v503h-89 v-350q0 -92 -66 -92h-20v744q0 29 -6.5 37.5t-26.5 14.5q-22 6 -33 12.5t-11 19.5q0 25 34 25h87q42 0 42 -43v-297h89v275zM165 193v182q0 30 -6 38t-26 13q-13 3 -24.5 10t-11.5 20q0 28 39 28h73q42 0 42 -47v-244q45 0 78 2q43 1 88 9q37 7 43 -13t-15 -33 q-24 -16 -82.5 -27t-144.5 -11h-173q-32 0 -32 37q0 36 32 36h120z" />
<glyph unicode="&#xad1c;" horiz-adv-x="813" d="M71 653q-32 0 -32 37q0 36 32 36h302q45 0 44 -54q-1 -58 -12.5 -131.5t-30.5 -120.5q-6 -14 -18 -20.5t-26 -3.5q-15 4 -17 15.5t1 25.5q11 42 12.5 96t1.5 120h-257zM660 741q0 28 -6.5 37t-28.5 14t-33.5 10.5t-11.5 19.5q0 27 36 27h89q43 0 43 -43v-606 q0 -94 -68 -94h-20v326h-83v-224q0 -92 -67 -92h-20v581q0 29 -6.5 37.5t-26.5 14.5q-22 6 -33 12.5t-11 19.5q0 25 34 25h88q42 0 42 -43v-260h83v238zM168 328v105q0 27 -4.5 38t-25.5 16q-12 3 -25 8.5t-13 18.5q0 25 39 25h73q42 0 42 -46v-165q46 0 80 2q43 1 88 9 q37 8 43 -12t-14 -34q-25 -16 -83.5 -27t-144.5 -11h-178q-32 0 -32 37q0 36 32 36h123zM731 -97h-387q-94 0 -94 89v82q0 29 -9 37.5t-28 13.5q-22 8 -29.5 13.5t-7.5 18.5q0 28 32 28h87q42 0 42 -47v-140q0 -21 18 -21h377q33 0 33 -37t-34 -37z" />
<glyph unicode="&#xad20;" horiz-adv-x="813" d="M71 676q-32 0 -32 37t32 37h302q45 0 44 -54q-1 -59 -12.5 -114.5t-30.5 -102.5q-6 -15 -18 -21.5t-26 -3.5q-15 4 -17 16t1 25q11 42 12.5 79t1.5 102h-257zM660 741q0 28 -6.5 37t-28.5 14t-33.5 10.5t-11.5 19.5q0 27 36 27h89q43 0 43 -43v-400q0 -95 -68 -95h-20 v202h-83v-100q0 -92 -67 -92h-20v376q0 29 -6.5 37.5t-26.5 14.5q-22 6 -33 12.5t-11 19.5q0 25 34 25h88q42 0 42 -43v-178h83v156zM168 400v84q0 27 -4.5 38t-25.5 16q-12 3 -25 8.5t-13 19.5q0 24 39 24h73q42 0 42 -46v-144q46 0 80 2q43 1 88 9q37 7 43 -13t-14 -33 q-25 -16 -83.5 -27t-144.5 -11h-178q-32 0 -32 37q0 36 32 36h123zM734 -111h-386q-54 0 -54 66v67q0 21 -7.5 29.5t-20.5 14.5q-9 3 -15.5 8.5t-6.5 19.5q0 25 26 25h380v84h-353q-32 0 -32 36t32 36h404q36 0 36 -45v-128q0 -53 -41 -53h-315v-63q0 -25 23 -25h331 q32 0 32 -35q0 -37 -33 -37z" />
<glyph unicode="&#xad29;" horiz-adv-x="813" d="M71 676q-32 0 -32 37t32 37h302q45 0 44 -54q-1 -59 -12.5 -125t-30.5 -113q-6 -14 -18 -21t-26 -3q-15 4 -17 15.5t1 25.5q11 42 12.5 89t1.5 112h-257zM660 741q0 28 -6.5 37t-28.5 14t-33.5 10.5t-11.5 19.5q0 27 36 27h89q43 0 43 -43v-410q0 -96 -68 -96h-20v213 h-83v-110q0 -92 -67 -92h-20v386q0 29 -6.5 37.5t-26.5 14.5q-22 6 -33 12.5t-11 19.5q0 25 34 25h88q42 0 42 -43v-178h83v156zM168 379v94q0 28 -4.5 39t-25.5 16q-12 3 -25 8.5t-13 18.5q0 25 39 25h73q42 0 42 -46v-155q46 0 80 2q43 1 88 10q37 7 43 -13t-14 -34 q-25 -16 -83.5 -26.5t-144.5 -10.5h-178q-32 0 -32 36t32 36h123zM718 -104h-362q-16 -28 -47 -28h-20v285q0 27 -3 34t-12 10q-10 4 -21.5 8.5t-11.5 19.5q0 26 33 26h60q41 0 41 -45v-56h276v26q0 25 -3.5 31t-11.5 9q-15 7 -25 11.5t-10 17.5q0 27 34 27h58q44 0 44 -45 v-182q0 -50 -17 -76q31 -1 31 -36q0 -37 -33 -37zM374 -31h277v108h-276v-80q0 -15 -1 -28z" />
<glyph unicode="&#xad2c;" horiz-adv-x="813" d="M71 673q-32 0 -32 37t32 37h302q45 0 44 -54q-1 -59 -12.5 -127t-30.5 -115q-6 -14 -18 -21t-26 -4q-15 4 -17 16t1 25q11 42 12.5 91.5t1.5 114.5h-257zM660 741q0 28 -6.5 37t-28.5 14t-33.5 10.5t-11.5 19.5q0 27 36 27h89q43 0 43 -43v-451q0 -96 -68 -96h-20v234 h-83v-131q0 -92 -67 -92h-20v427q0 29 -6.5 37.5t-26.5 14.5q-22 6 -33 12.5t-11 19.5q0 25 34 25h88q42 0 42 -43v-198h83v176zM168 359v104q0 28 -4.5 38.5t-25.5 16.5q-12 3 -25 8.5t-13 18.5q0 25 39 25h73q42 0 42 -46v-165q46 0 80 2q43 1 88 9q37 7 43 -13t-14 -33 q-25 -16 -83.5 -27t-144.5 -11h-178q-32 0 -32 37q0 36 32 36h123zM384 183q-3 -34 -19 -71l117 -94l6 10q49 75 69 150q1 7 -3 12t-18 9t-22.5 9t-8.5 17q0 26 32 26h63q33 0 43 -18t6 -46q-6 -39 -24 -80l146 -122q21 -16 24 -35t-12 -35q-13 -15 -33.5 -14.5t-34.5 14.5 l-123 131q-9 -14 -20 -27q-64 -90 -132 -136q-13 -9 -26 -9t-21 9q-7 7 -6.5 16t11.5 18q19 16 37 38l-101 101q-9 -14 -20 -27q-62 -83 -135 -133q-15 -10 -28.5 -6.5t-19.5 12.5q-3 9 -1 16.5t13 16.5q45 38 90 105t58 129q2 8 -2 14t-19 10q-16 5 -23.5 9.5t-7.5 17.5 q0 25 32 25h67q31 0 39.5 -18.5t6.5 -43.5z" />
<glyph unicode="&#xad2d;" horiz-adv-x="813" d="M71 673q-32 0 -32 37t32 37h302q45 0 44 -54q-1 -59 -12.5 -127t-30.5 -115q-6 -14 -18 -21t-26 -4q-15 4 -17 16t1 25q11 42 12.5 91.5t1.5 114.5h-257zM660 741q0 28 -6.5 37t-28.5 14t-33.5 10.5t-11.5 19.5q0 27 36 27h89q43 0 43 -43v-467q0 -95 -68 -95h-20v249 h-83v-111q0 -92 -67 -92h-20v407q0 29 -6.5 37.5t-26.5 14.5q-22 6 -33 12.5t-11 19.5q0 25 34 25h88q42 0 42 -43v-198h83v176zM168 349v114q0 28 -4.5 38.5t-25.5 16.5q-12 3 -25 8.5t-13 18.5q0 25 39 25h73q42 0 42 -46v-175q46 0 80 2q43 1 88 9q37 7 43 -13t-14 -33 q-25 -17 -83.5 -27.5t-144.5 -10.5h-178q-32 0 -32 37q0 36 32 36h123zM311 58q0 76 56 130.5t146 54.5q91 0 147.5 -54.5t56.5 -130.5t-56.5 -131t-147.5 -55q-90 0 -146 55t-56 131zM399 58q0 -49 33 -80t81 -31q49 0 82.5 31t33.5 80t-33.5 79.5t-82.5 30.5 q-48 0 -81 -30.5t-33 -79.5z" />
<glyph unicode="&#xad34;" horiz-adv-x="776" d="M88 637q-32 0 -32 37t32 37h351q44 0 43 -54q-1 -90 -12 -182.5t-31 -164.5q-5 -16 -17 -22.5t-27 -3.5q-14 4 -16 16t0 25q12 72 12.5 150t0.5 162h-304zM600 739q0 29 -8 38t-28 14t-32.5 11t-12.5 20q0 27 35 27h90q43 0 43 -42v-821q0 -94 -66 -94h-21v847zM197 193 v182q0 30 -5 37.5t-23 13.5q-13 4 -25.5 10.5t-12.5 19.5q0 28 41 28h70q42 0 42 -47v-244h51q62 0 105 1.5t88 9.5q37 7 43.5 -13t-14.5 -33q-25 -16 -83 -27t-144 -11h-286q-31 0 -31 37q0 36 31 36h153z" />
<glyph unicode="&#xad35;" horiz-adv-x="776" d="M98 699q-31 0 -31 37t31 37h351q43 0 43 -53t-10.5 -133.5t-31.5 -136.5q-7 -14 -19 -21t-27 -4q-14 4 -16.5 16t0.5 25q11 48 12 101t1 132h-303zM687 333q0 -94 -66 -94h-21v500q0 29 -8 38t-28 14t-32.5 11t-12.5 20q0 27 35 27h91q42 0 42 -43v-473zM203 364v104 q0 30 -4.5 37.5t-23.5 14.5q-13 4 -25.5 10t-12.5 19q0 28 41 28h70q42 0 42 -48v-165h45q62 0 105 1.5t88 9.5q37 7 43.5 -13t-14.5 -33q-25 -16 -83 -27t-144 -11h-286q-31 0 -31 37q0 36 31 36h159zM240 133q-28 0 -28 36t28 36h401q38 0 38 -44v-189q0 -99 -62 -99h-24 v260h-353z" />
<glyph unicode="&#xad38;" horiz-adv-x="776" d="M98 678q-31 0 -31 37t31 37h351q43 0 43 -52q0 -53 -11 -133.5t-32 -137.5q-7 -14 -18.5 -20.5t-26.5 -3.5q-14 4 -16.5 16t0.5 25q11 48 12 100.5t1 131.5h-303zM687 189q0 -93 -66 -93h-21v643q0 29 -8 38t-28 14t-32.5 11t-12.5 20q0 27 35 27h91q42 0 42 -43v-617z M203 328v125q0 30 -4.5 37.5t-23.5 13.5q-13 4 -25.5 10.5t-12.5 19.5q0 28 41 28h70q42 0 42 -49v-185h45q62 0 105 1.5t88 9.5q37 8 43.5 -12t-14.5 -34q-25 -16 -83 -27t-144 -11h-286q-31 0 -31 37q0 36 31 36h159zM683 -97h-346q-94 0 -94 89v82q0 29 -9 37.5t-28 13.5 q-22 8 -29.5 13.5t-7.5 18.5q0 28 32 28h87q42 0 42 -47v-140q0 -21 18 -21h336q33 0 33 -37t-34 -37z" />
<glyph unicode="&#xad3c;" horiz-adv-x="776" d="M98 702q-31 0 -31 37t31 37h351q43 0 43 -53t-11 -116t-32 -119q-7 -15 -18.5 -21.5t-26.5 -3.5q-14 4 -16.5 16t0.5 25q11 48 12 83.5t1 114.5h-303zM687 405q0 -94 -66 -94h-21v428q0 29 -8 38t-28 14t-32.5 11t-12.5 20q0 27 35 27h91q42 0 42 -43v-401zM203 415v74 q0 30 -4.5 37.5t-23.5 13.5q-13 4 -25.5 10t-12.5 20q0 27 41 27h70q42 0 42 -48v-134h45q62 0 105 1.5t88 9.5q37 8 43.5 -12t-14.5 -34q-25 -16 -83 -27t-144 -11h-286q-31 0 -31 37q0 36 31 36h159zM676 -111h-366q-54 0 -54 66v67q0 21 -7.5 29.5t-20.5 14.5 q-9 3 -15.5 8.5t-6.5 19.5q0 25 26 25h360v84h-333q-32 0 -32 36t32 36h384q36 0 36 -45v-128q0 -53 -41 -53h-295v-63q0 -25 24 -25h310q32 0 32 -35q0 -37 -33 -37z" />
<glyph unicode="&#xad44;" horiz-adv-x="776" d="M98 699q-31 0 -31 37t31 37h351q43 0 43 -53t-11 -128t-32 -132q-7 -14 -18.5 -20.5t-26.5 -3.5q-14 4 -16.5 15.5t0.5 25.5q9 43 11 93t2 129h-303zM687 354q0 -95 -66 -95h-21v480q0 29 -8 38t-28 14t-32.5 11t-12.5 20q0 27 35 27h91q42 0 42 -43v-452zM203 374v115 q0 30 -4.5 37.5t-23.5 13.5q-13 4 -25.5 10t-12.5 20q0 27 41 27h70q42 0 42 -48v-175h45q62 0 105 1.5t88 9.5q37 8 43.5 -12t-14.5 -34q-25 -16 -83 -27t-144 -11h-286q-31 0 -31 37q0 36 31 36h159zM342 -31h251v184h-250v-157q0 -14 -1 -27zM636 226q43 0 43 -50v-142 q0 -40 -11 -65q30 -2 30 -36q0 -37 -33 -37h-340q-17 -29 -49 -29h-20v236q0 37 -4.5 48t-20.5 17q-13 5 -20 12t-7 19q0 27 26 27h406z" />
<glyph unicode="&#xad45;" horiz-adv-x="776" d="M98 702q-31 0 -31 37t31 37h351q43 0 43 -53t-10.5 -125t-32.5 -120q-7 -14 -18.5 -21t-26.5 -4q-14 4 -16 16t0 25q8 44 10.5 93t2.5 115h-303zM687 395q0 -95 -66 -95h-21v439q0 29 -8 38t-28 14t-32.5 11t-12.5 20q0 27 35 27h91q42 0 42 -43v-411zM203 395v94 q0 30 -4.5 37.5t-23.5 13.5q-13 4 -25.5 10t-12.5 20q0 27 41 27h70q42 0 42 -48v-154h45q62 0 105 1.5t88 9.5q37 7 43.5 -13t-14.5 -33q-25 -17 -83 -27.5t-144 -10.5h-286q-31 0 -31 37q0 36 31 36h159zM659 -104h-335q-17 -28 -48 -28h-20v285q0 27 -3 34t-11 10 q-11 4 -22.5 8.5t-11.5 19.5q0 26 34 26h59q41 0 41 -45v-56h251v26q0 25 -3.5 31t-11.5 9q-16 7 -25.5 11.5t-9.5 17.5q0 27 34 27h58q44 0 44 -45v-182q0 -50 -17 -76q30 -1 30 -36q0 -37 -33 -37zM341 -31h252v108h-251v-80q0 -15 -1 -28z" />
<glyph unicode="&#xad47;" horiz-adv-x="776" d="M98 699q-31 0 -31 37t31 37h351q43 0 43 -53t-11 -128t-32 -132q-7 -14 -18.5 -20.5t-26.5 -3.5q-14 4 -16.5 15.5t0.5 25.5q9 43 11 93t2 129h-303zM687 291q0 -93 -66 -93h-21v541q0 29 -8 38t-28 14t-32.5 11t-12.5 20q0 27 35 27h91q42 0 42 -43v-515zM203 374v115 q0 30 -4.5 37.5t-23.5 13.5q-13 4 -25.5 10t-12.5 20q0 27 41 27h70q42 0 42 -48v-175h45q62 0 105 1.5t88 9.5q37 8 43.5 -12t-14.5 -34q-25 -16 -83 -27t-144 -11h-286q-31 0 -31 37q0 36 31 36h159zM520 187q-7 -34 -27 -69l224 -143q17 -11 20.5 -31.5t-5.5 -33.5 q-12 -15 -31 -15t-39 15l-205 157q-18 -22 -40 -43q-86 -84 -181 -130q-36 -19 -52.5 -1t14.5 39q83 53 143 121t86 130q5 10 -7 16t-31 10q-24 5 -22 28.5t27 23.5h69q40 0 51.5 -23t5.5 -51z" />
<glyph unicode="&#xad49;" horiz-adv-x="776" d="M98 699q-31 0 -31 37t31 37h351q43 0 43 -53t-11 -128t-32 -132q-7 -14 -18.5 -20.5t-26.5 -3.5q-14 4 -16.5 15.5t0.5 25.5q9 43 11 93t2 129h-303zM687 333q0 -94 -66 -94h-21v500q0 29 -8 38t-28 14t-32.5 11t-12.5 20q0 27 35 27h91q42 0 42 -43v-473zM203 374v115 q0 30 -4.5 37.5t-23.5 13.5q-13 4 -25.5 10t-12.5 20q0 27 41 27h70q42 0 42 -48v-175h45q62 0 105 1.5t88 9.5q37 8 43.5 -12t-14.5 -34q-25 -16 -83 -27t-144 -11h-286q-31 0 -31 37q0 36 31 36h159zM273 58q0 76 56 130.5t146 54.5q91 0 147.5 -54.5t56.5 -130.5 t-56.5 -131t-147.5 -55q-90 0 -146 55t-56 131zM361 58q0 -49 33 -80t81 -31q49 0 82.5 31t33.5 80t-33.5 79.5t-82.5 30.5q-48 0 -81 -30.5t-33 -79.5z" />
<glyph unicode="&#xad50;" d="M168 727h443q43 0 43 -53q0 -76 -10.5 -200t-40.5 -213q-5 -16 -16.5 -22t-26.5 -2q-11 3 -15.5 12t-0.5 29q12 61 16 159t4 217h-396q-32 0 -32 37q0 36 32 36zM773 49h-721q-30 0 -30 36t30 36h175v227q0 21 -4.5 28t-21.5 13q-14 4 -26 10t-12 20q0 27 42 27h71 q37 0 37 -42v-283h104v247q0 23 -3.5 29.5t-21.5 11.5q-13 4 -25.5 10t-12.5 21q0 26 42 26h70q37 0 37 -42v-303h270q34 0 34 -36t-34 -36z" />
<glyph unicode="&#xad54;" d="M178 707q-32 0 -32 37t32 37h434q42 0 42 -52q0 -86 -10 -204q-11 -115 -30 -181h158q35 0 35 -35q0 -37 -35 -37h-720q-30 0 -30 37q0 35 30 35h180v121q0 22 -2 30.5t-18 13.5q-13 4 -25 10t-12 19q0 27 41 27h66q36 0 36 -43v-178h100v132q0 21 -1 29.5t-18 14.5 q-13 4 -25 9.5t-12 18.5q0 27 41 27h64q37 0 37 -43v-188h45q0 5 1 9q10 66 12 152t2 202h-386zM638 -97h-353q-95 0 -95 89v99q0 28 -9.5 37t-26.5 14q-23 7 -31 12.5t-8 18.5q0 28 32 28h87q44 0 44 -47v-156q0 -21 18 -21h343q33 0 33 -37t-34 -37z" />
<glyph unicode="&#xad58;" d="M178 727q-32 0 -32 37t32 37h434q42 0 42 -51q0 -86 -10 -173q-10 -79 -28 -140h156q35 0 35 -36q0 -37 -35 -37h-720q-30 0 -30 37q0 36 30 36h180v74q0 23 -2 31.5t-18 13.5q-13 5 -25 10.5t-12 18.5q0 27 41 27h66q36 0 36 -43v-132h100v86q0 21 -1 30t-18 14 q-13 4 -25 9.5t-12 18.5q0 27 41 27h64q37 0 37 -43v-142h46q12 91 13 129q1 37 1 161h-386zM194 221q-32 0 -32 34q0 37 32 37h424q36 0 36 -45v-137q0 -53 -40 -53h-336v-71q0 -25 23 -25h352q32 0 32 -36t-33 -36h-398q-64 0 -64 76v65q0 23 -6 30.5t-20 12.5 q-8 4 -17 9.5t-9 19.5q0 26 28 26h401v93h-373z" />
<glyph unicode="&#xad61;" d="M178 727q-32 0 -32 37t32 37h434q42 0 42 -51q0 -86 -10 -186q-10 -91 -28 -153h156q35 0 35 -36q0 -37 -35 -37h-720q-30 0 -30 37q0 36 30 36h180v93q0 22 -2 30.5t-18 13.5q-13 4 -25 10t-12 19q0 27 41 27h66q36 0 36 -43v-150h100v103q0 22 -1 30.5t-18 13.5 q-13 5 -25 10.5t-12 18.5q0 27 41 27h64q37 0 37 -43v-160h46q12 91 13 141q1 51 1 175h-386zM632 -104h-372q-16 -28 -47 -28h-20v315q0 26 -3.5 33.5t-11.5 10.5q-10 4 -22 8.5t-12 18.5q0 27 34 27h60q41 0 41 -45v-79h286v43q0 26 -3.5 32t-11.5 9q-15 6 -25 10.5 t-10 18.5q0 26 34 26h58q44 0 44 -45v-206q0 -50 -17 -76q31 -1 31 -36q0 -37 -33 -37zM278 -31h287v115h-286v-87q0 -15 -1 -28z" />
<glyph unicode="&#xad63;" d="M178 721q-32 0 -32 37t32 37h434q42 0 42 -51q0 -86 -10 -187q-11 -100 -32 -166h160q35 0 35 -36q0 -37 -35 -37h-720q-30 0 -30 37q0 36 30 36h180v103q0 21 -2 30t-18 14q-13 4 -25 9.5t-12 19.5q0 26 41 26h66q36 0 36 -43v-159h100v113q0 22 -1 30.5t-18 13.5 q-13 4 -25 10t-12 19q0 27 41 27h64q37 0 37 -43v-170h45q0 5 1 12q12 103 13 141.5t1 176.5h-386zM474 197q-10 -39 -38 -81l258 -144q22 -12 26 -33t-9 -35t-30 -14t-40 15l-241 164q-12 -14 -26 -29q-83 -86 -191 -148q-39 -23 -53 -2t11 39q86 56 153.5 134t86.5 129 q4 11 -9 17.5t-28 10.5q-26 5 -23.5 28t27.5 23h69q40 0 51.5 -22.5t5.5 -51.5z" />
<glyph unicode="&#xad6c;" d="M178 705q-32 0 -32 37t32 37h432q43 0 43 -53q0 -34 -10.5 -151t-32.5 -167q-6 -13 -17 -21t-27 -3q-12 5 -14 16t0 25q9 70 10 129.5t1 150.5h-385zM458 272v-281q0 -99 -62 -99h-24v380h-320q-30 0 -30 37q0 35 30 35h721q34 0 34 -35q0 -37 -34 -37h-315z" />
<glyph unicode="&#xad6d;" d="M178 721q-32 0 -32 37t32 37h434q42 0 42 -51q0 -81 -11 -156q-12 -75 -30 -125h160q34 0 34 -36t-34 -36h-315v-95q0 -48 -15 -73h167q38 0 38 -44v-207q0 -99 -61 -99h-25v277h-388q-28 0 -28 37q0 36 28 36h198v168h-320q-30 0 -30 36t30 36h497q0 5 1 12 q10 62 12.5 123t1.5 123h-386z" />
<glyph unicode="&#xad70;" d="M178 707q-32 0 -32 37t32 37h434q42 0 42 -52q0 -86 -10 -168q-10 -76 -29 -139h157q35 0 35 -36t-35 -36h-299v-158q0 -100 -63 -100h-23v258h-335q-30 0 -30 36t30 36h498v2q10 67 12 117t2 166h-386zM638 -97h-353q-95 0 -95 89v119q0 29 -9.5 37.5t-26.5 13.5 q-23 7 -31 13t-8 19q0 28 32 28h87q44 0 44 -48v-176q0 -21 18 -21h343q33 0 33 -37t-34 -37z" />
<glyph unicode="&#xad73;" d="M178 721q-32 0 -32 37t32 37h434q42 0 42 -51q0 -86 -10 -161q-9 -64 -26 -123h154q35 0 35 -36q0 -37 -35 -37h-313v-83q0 -45 -13 -70h178q32 0 32 -37q0 -36 -31 -36h-342v-166q0 -26 24 -26h328q32 0 32 -36q0 -37 -33 -37h-379q-59 0 -59 68v150q0 34 -3.5 44.5 t-22.5 18.5q-11 5 -19.5 11.5t-8.5 18.5q0 27 27 27h203v153h-320q-30 0 -30 37q0 36 30 36h499q9 63 11 104q2 42 2 157h-386z" />
<glyph unicode="&#xad74;" d="M178 727q-32 0 -32 37t32 37h434q42 0 42 -51q0 -79 -10 -141q-10 -58 -28 -118h157q34 0 34 -36q0 -37 -34 -37h-315v-60q0 -33 -6 -56h166q36 0 36 -45v-142q0 -53 -40 -53h-336v-75q0 -26 23 -26h352q32 0 32 -36t-33 -36h-398q-64 0 -64 76v70q0 23 -6 30.5t-20 12.5 q-8 4 -17 10t-9 19q0 27 28 27h401v97h-373q-32 0 -32 35q0 36 32 36h178v116h-320q-30 0 -30 37q0 36 30 36h498v1q10 66 12 122t2 113h-386z" />
<glyph unicode="&#xad75;" d="M178 727q-32 0 -32 37t32 37h434q42 0 42 -51q0 -79 -10 -141q-10 -58 -28 -118h157q34 0 34 -36q0 -37 -34 -37h-315v-60q0 -38 -8 -62q7 6 20 6h177q40 0 40 -43v-274q0 -96 -63 -96h-24v342h-130q-32 0 -32 36q0 5 1 9q-8 -10 -19 -15v-149q0 -50 -34 -50h-150v-80 q0 -21 17 -21h165q32 0 32 -35q0 -37 -33 -37h-204q-63 0 -63 74v74q0 22 -3.5 30.5t-16.5 14.5q-9 4 -14 9t-5 19q0 23 20 23h203v98h-177q-32 0 -32 36q0 35 32 35h215v116h-320q-30 0 -30 37q0 36 30 36h498v1q10 66 12 122t2 113h-386z" />
<glyph unicode="&#xad76;" d="M526 -22h88v254h-87v-225q0 -16 -1 -29zM654 302q43 0 43 -49v-199q0 -49 -17 -76q31 -2 31 -35q0 -37 -34 -37h-167q-16 -28 -46 -28h-17v312q0 37 -1.5 43t-10.5 13t-16 12q-1 0 -1 1q-9 -4 -22 -4h-3v-143q0 -50 -34 -50h-125v-80q0 -21 18 -21h137q32 0 32 -35 q0 -37 -34 -37h-173q-64 0 -64 74v74q0 22 -3.5 30.5t-16.5 14.5q-9 4 -14 9t-5 19q0 23 20 23h180v98h-154q-32 0 -32 36q0 35 32 35h199q10 0 16 -2v118h-320q-30 0 -30 37q0 36 30 36h498v1q10 66 12 122t2 113h-386q-32 0 -32 37t32 37h434q42 0 42 -51q0 -79 -10 -141 q-10 -58 -28 -118h157q34 0 34 -36q0 -37 -34 -37h-315v-60q0 -33 -6 -56h202z" />
<glyph unicode="&#xad7b;" d="M178 727q-32 0 -32 37t32 37h434q42 0 42 -51q0 -79 -10 -141q-10 -58 -28 -118h157q34 0 34 -36q0 -37 -34 -37h-315v-60q0 -103 -62 -103h-10v-143q0 -50 -34 -50h-118v-80q0 -21 18 -21h130q32 0 32 -35q0 -37 -34 -37h-166q-64 0 -64 74v74q0 22 -3.5 30.5 t-16.5 14.5q-9 4 -14 9t-5 19q0 23 20 23h170v98h-144q-32 0 -32 36q0 35 32 35h192q15 0 23 -6v122h-320q-30 0 -30 37q0 36 30 36h498v1q10 66 12 122t2 113h-386zM718 97h-35q26 -32 26 -78q0 -60 -41 -102t-105 -42q-62 0 -102.5 42t-40.5 102q0 46 24 78h-21 q-34 0 -34 33q0 35 34 35h295q34 0 34 -35q0 -33 -34 -33zM625 19q0 32 -18 54.5t-43 22.5q-24 0 -42 -22.5t-18 -54.5t18 -54.5t42 -22.5q25 0 43 22.5t18 54.5zM490 237l-28 24q-10 10 -12.5 21t6.5 24q9 10 22.5 9t22.5 -6q38 -18 60.5 -22.5t66.5 -4.5q34 0 34 -36 q0 -16 -11.5 -26t-27.5 -10l-67 1q-35 0 -66 26z" />
<glyph unicode="&#xad7c;" d="M278 -31h287v192h-286v-165q0 -14 -1 -27zM372 234v153h-320q-30 0 -30 37q0 36 30 36h499q9 63 11 104q2 42 2 157h-386q-32 0 -32 37t32 37h434q42 0 42 -51q0 -86 -10 -161q-9 -64 -26 -123h154q35 0 35 -36q0 -37 -35 -37h-313v-83q0 -45 -13 -70h162q43 0 43 -50 v-140q0 -49 -16 -75q30 -2 30 -36q0 -37 -33 -37h-372q-16 -29 -47 -29h-20v244q0 37 -3 47.5t-19 18.5q-12 5 -21 11.5t-9 18.5q0 27 33 27h198z" />
<glyph unicode="&#xad7d;" d="M178 727q-32 0 -32 37t32 37h434q42 0 42 -54q-1 -72 -13 -156q-10 -72 -25 -119h156q35 0 35 -35q0 -37 -35 -37h-313v-70q0 -102 -64 -102h-23v172h-320q-30 0 -30 37q0 35 30 35h498q10 66 12 122q1 56 2 133h-386zM632 -104h-372q-16 -28 -47 -28h-20v315 q0 26 -3.5 33.5t-11.5 10.5q-10 4 -22 8.5t-12 18.5q0 27 34 27h60q41 0 41 -45v-79h286v43q0 26 -3.5 32t-11.5 9q-15 6 -25 10.5t-10 18.5q0 26 34 26h58q44 0 44 -45v-206q0 -50 -17 -76q31 -1 31 -36q0 -37 -33 -37zM278 -31h287v115h-286v-87q0 -15 -1 -28z" />
<glyph unicode="&#xad7f;" d="M178 721q-32 0 -32 37t32 37h434q42 0 42 -54q-1 -76 -13 -149.5t-29 -125.5l-2 -6h162q35 0 35 -36q0 -37 -35 -37h-313v-37q0 -56 -19 -81q21 -5 29 -21q11 -22 5 -51q-10 -39 -38 -81l258 -144q22 -12 26 -33t-9 -35t-30 -14t-40 15l-241 164q-12 -14 -26 -29 q-83 -86 -191 -148q-39 -23 -53 -2t11 39q86 56 153.5 134t86.5 129q4 11 -9 17.5t-28 10.5q-26 5 -23.5 28t27.5 23h24v116h-320q-30 0 -30 37q0 36 30 36h498q-2 8 0 20q7 41 10 103.5t4 137.5h-386z" />
<glyph unicode="&#xad81;" d="M178 721q-32 0 -32 37t32 37h434q42 0 42 -54q-1 -76 -13 -150q-12 -71 -28 -122h160q34 0 34 -35q0 -37 -34 -37h-315v-74q0 -40 -9 -64q66 -9 117 -54q64 -57 64 -138t-63.5 -138t-152.5 -57t-152.5 57t-63.5 138t63 138q48 42 111 53v139h-320q-30 0 -30 37 q0 35 30 35h497q0 6 1 11q7 41 10 103.5t4 137.5h-386zM286 67q0 -49 37 -84.5t91 -35.5q53 0 90.5 35.5t37.5 84.5t-37.5 84.5t-90.5 35.5q-54 0 -91 -35.5t-37 -84.5z" />
<glyph unicode="&#xad82;" d="M178 721q-32 0 -32 37t32 37h434q42 0 42 -51q0 -86 -10 -161q-9 -64 -26 -123h154q35 0 35 -36q0 -37 -35 -37h-313v-83q0 -45 -13 -70h133q32 0 47.5 -19.5t5.5 -49.5q-22 -55 -121 -123l195 -71q46 -18 27.5 -56t-68.5 -15l-221 100q-133 -76 -280 -113 q-33 -8 -41 17.5t20 34.5q79 25 194.5 89.5t182.5 132.5h-316q-31 0 -31 37q0 36 32 36h167v153h-320q-30 0 -30 37q0 36 30 36h499q9 63 11 104q2 42 2 157h-386z" />
<glyph unicode="&#xad88;" horiz-adv-x="776" d="M88 690q-32 0 -32 36q0 37 32 37h330q43 0 43 -51q0 -91 -10 -185q-10 -76 -25 -130q7 0 14 1q43 1 88 9q37 7 43.5 -13t-14.5 -33q-25 -17 -83 -27.5t-144 -10.5h-18v-315q0 -96 -60 -96h-27v411h-181q-31 0 -31 37q0 36 31 36h314q11 57 12 121q1 67 1 173h-283z M600 739q0 29 -8 38t-28 14t-32.5 11t-12.5 20q0 27 35 27h91q42 0 42 -42v-821q0 -94 -66 -94h-21v254h-163q-33 0 -33 36q0 35 33 35h163v522z" />
<glyph unicode="&#xad89;" horiz-adv-x="776" d="M98 705q-31 0 -31 37t31 37h330q43 0 43 -53t-10 -115q-11 -62 -31 -116q5 0 10 1q43 1 88 9q37 7 43.5 -13t-14.5 -33q-25 -16 -83 -27t-144 -11h-17v-142q0 -66 -60 -66h-28v208h-181q-31 0 -31 37q0 36 31 36h322q0 6 2 13q11 48 12 101t1 97h-283zM600 740 q0 28 -8 37t-28 14t-32.5 11t-12.5 20q0 27 35 27h91q42 0 42 -43v-498q0 -95 -66 -95h-21v84h-163q-33 0 -33 36t33 36h163v371zM229 117q-27 0 -27 37q0 36 27 36h412q38 0 38 -44v-174q0 -99 -62 -99h-24v244h-364z" />
<glyph unicode="&#xad8c;" horiz-adv-x="776" d="M98 700q-31 0 -31 37t31 37h330q43 0 43 -53t-10 -132q-10 -71 -29 -125q4 0 8 1q43 1 88 10q37 7 43.5 -13t-14.5 -34q-25 -16 -83 -26.5t-144 -10.5h-16v-132q0 -71 -60 -71h-28v203h-182q-31 0 -31 36t31 36h323q0 3 1 7q11 49 12 100t1 130h-283zM600 739q0 29 -8 38 t-28 14t-32.5 11t-12.5 20q0 27 35 27h90q43 0 43 -43v-634q0 -94 -66 -94h-21v167h-163q-33 0 -33 37q0 36 33 36h163v421zM684 -97h-345q-94 0 -94 90v57q0 28 -9 37t-28 14q-22 7 -29.5 12.5t-7.5 19.5q0 27 32 27h87q42 0 42 -47v-115q0 -21 18 -21h335q33 0 33 -37 t-34 -37z" />
<glyph unicode="&#xad90;" horiz-adv-x="776" d="M98 712q-31 0 -31 37t31 37h330q43 0 43 -52q0 -50 -11 -108q-11 -54 -30 -95q5 0 10 1q43 1 88 9q37 7 43.5 -13t-14.5 -33q-25 -16 -83 -27t-144 -11h-17v-118q0 -65 -60 -65h-28v183h-181q-31 0 -31 37q0 36 31 36h322q1 5 2 11q11 40 12 83.5t1 87.5h-283zM600 740 q0 28 -7.5 37t-28.5 14q-20 5 -32.5 11t-12.5 20q0 27 35 27h91q42 0 42 -43v-431q0 -95 -66 -95h-21v59h-163q-33 0 -33 36t33 36h163v329zM676 -111h-366q-54 0 -54 66v58q0 21 -7.5 29.5t-20.5 14.5q-9 3 -15.5 8.5t-6.5 18.5q0 26 26 26h360v75h-333q-32 0 -32 36 q0 35 32 35h384q36 0 36 -45v-118q0 -54 -41 -54h-295v-53q0 -25 24 -25h310q32 0 32 -35q0 -37 -33 -37z" />
<glyph unicode="&#xad9c;" horiz-adv-x="776" d="M98 705q-31 0 -31 37t31 37h330q43 0 43 -53t-10 -113q-11 -60 -31 -114q5 0 10 1q43 1 88 9q37 8 43.5 -12t-14.5 -34q-25 -16 -83 -27t-144 -11h-17v-132q0 -65 -60 -65h-28v197h-181q-31 0 -31 37q0 36 31 36h322q0 6 2 13q11 49 12 99.5t1 94.5h-283zM600 740 q0 28 -7.5 37t-28.5 14q-20 5 -32.5 11t-12.5 20q0 27 35 27h91q42 0 42 -43v-483q0 -95 -66 -95h-21v73h-163q-33 0 -33 36t33 36h163v367zM373 127q-7 -23 -21 -48l105 -77q4 5 7 10q45 57 71 125q2 7 -3 12t-19 9q-13 4 -22 9t-9 17q0 26 32 26h65q31 0 41.5 -26.5 t3.5 -54.5q-9 -26 -23 -54l138 -88q22 -14 27 -33t-7 -37q-14 -15 -35 -15.5t-35 11.5l-125 105l-18 -24q-60 -69 -129 -111q-13 -9 -25.5 -9t-20.5 9q-7 7 -6 16t11 17q14 13 30 28l-90 82q-10 -13 -22 -27q-63 -68 -123 -103q-14 -8 -27.5 -5.5t-19.5 11.5q-3 9 -1.5 16.5 t13.5 17.5q39 29 83.5 84.5t64.5 107.5q2 8 -2 14t-19 10q-16 5 -24 9.5t-8 17.5q0 25 33 25h67q37 0 43 -25.5t-1 -51.5z" />
<glyph unicode="&#xad9d;" horiz-adv-x="776" d="M98 705q-31 0 -31 37t31 37h330q43 0 43 -53t-10 -113q-11 -60 -31 -114q5 0 10 1q43 1 88 9q37 8 43.5 -12t-14.5 -34q-25 -16 -83 -27t-144 -11h-17v-147q0 -66 -60 -66h-28v213h-181q-31 0 -31 37q0 36 31 36h322q0 6 2 13q11 49 12 99.5t1 94.5h-283zM600 740 q0 28 -7.5 37t-28.5 14q-20 5 -32.5 11t-12.5 20q0 27 35 27h91q42 0 42 -43v-488q0 -95 -66 -95h-21v84h-163q-33 0 -33 35q0 36 33 36h163v362zM263 51q0 75 58 126.5t149 51.5t150 -51.5t59 -126.5q0 -76 -59 -127.5t-150 -51.5t-149 51.5t-58 127.5zM351 51 q0 -44 32.5 -74t86.5 -30q55 0 88 30t33 74t-33 73.5t-88 29.5q-54 0 -86.5 -29.5t-32.5 -73.5z" />
<glyph unicode="&#xada4;" horiz-adv-x="813" d="M79 669q-32 0 -32 37t32 37h273q44 0 44 -51q0 -92 -8 -170q-7 -66 -27 -123q33 2 68 8q37 7 43 -13t-14 -33q-25 -17 -83 -27q-42 -8 -97 -10v-275q0 -96 -61 -96h-27v370h-145q-32 0 -32 37q0 36 31 36h251q10 57 11 103q1 47 1 170h-228zM616 849h87q45 0 45 -42v-821 q0 -94 -68 -94h-20v848q0 29 -6.5 38t-28.5 14t-33.5 10.5t-11.5 19.5q0 27 36 27zM455 806h86q43 0 43 -45v-713q0 -95 -67 -95h-19v223h-126q-33 0 -33 35q0 37 33 37h126v450q0 28 -7 36.5t-27 14.5q-22 6 -33 12.5t-11 19.5q0 25 35 25z" />
<glyph unicode="&#xadb7;" horiz-adv-x="813" d="M90 670q-32 0 -32 37t32 37h263q44 0 44 -52q0 -54 -12 -112q-11 -53 -28 -90q36 3 72 9q37 7 43 -13t-14 -33q-25 -16 -83 -27q-39 -7 -90 -10v-153q0 -72 -60 -72h-27v224h-153q-32 0 -32 37q0 36 31 36h249q1 6 2 11q7 28 10 79t3 92h-218zM616 849h87q45 0 45 -43 v-540q0 -95 -68 -95h-20v569q0 29 -6.5 38t-28.5 14t-33.5 10.5t-11.5 19.5q0 27 36 27zM455 806h86q43 0 43 -45v-418q0 -95 -67 -95h-19v50h-129q-33 0 -33 36q0 37 33 37h129v327q0 28 -7 36.5t-27 14.5q-22 6 -33 12.5t-11 19.5q0 25 35 25zM543 156q-6 -28 -24 -55 l235 -126q21 -11 23 -31.5t-7 -33.5q-12 -15 -28 -16t-44 16l-217 142q-19 -21 -44 -41q-89 -74 -194 -117q-36 -14 -53.5 2.5t16.5 35.5q79 43 146.5 104t97.5 116q6 11 -7 16.5t-31 10.5q-25 5 -23 28t28 23h68q40 0 52 -22.5t6 -51.5z" />
<glyph unicode="&#xadc0;" horiz-adv-x="776" d="M88 690q-32 0 -32 36q0 37 32 37h330q43 0 43 -51q0 -91 -8 -192q-9 -86 -29 -149q9 0 16 1q43 1 88 9q37 8 43.5 -12t-14.5 -34q-25 -16 -83 -27t-144 -11h-18v-289q0 -96 -60 -96h-27v385h-181q-31 0 -31 37q0 36 31 36h314q11 59 12 127q1 70 1 193h-283zM600 -108 v847q0 29 -8 38t-28 14t-32.5 11t-12.5 20q0 27 35 27h91q42 0 42 -42v-821q0 -94 -66 -94h-21z" />
<glyph unicode="&#xadc1;" horiz-adv-x="776" d="M98 705q-31 0 -31 37t31 37h330q43 0 43 -53t-10 -120q-11 -66 -31 -121q5 0 10 1q43 1 88 9q37 7 43.5 -13t-14.5 -33q-25 -16 -83 -27t-144 -11h-17v-122q0 -65 -60 -65h-28v187h-181q-31 0 -31 37q0 36 31 36h322q-1 6 1 13q11 48 12.5 106t1.5 102h-283zM600 224v515 q0 29 -8 38t-28 14t-32.5 11t-12.5 20q0 27 35 27h91q42 0 42 -43v-487q0 -95 -66 -95h-21zM229 127q-27 0 -27 37q0 36 27 36h412q38 0 38 -44v-184q0 -99 -62 -99h-24v254h-364z" />
<glyph unicode="&#xadc4;" horiz-adv-x="776" d="M98 700q-31 0 -31 37t31 37h330q43 0 43 -53t-10 -137q-10 -77 -29 -130q4 0 8 1q43 1 88 9q37 7 43.5 -12.5t-14.5 -33.5q-25 -16 -83 -27t-144 -11h-16v-121q0 -71 -60 -71h-28v192h-182q-31 0 -31 37q0 36 31 36h323q0 3 1 7q11 48 12 104.5t1 135.5h-283zM600 78v661 q0 29 -8 38t-28 14t-32.5 11t-12.5 20q0 27 35 27h90q43 0 43 -43v-634q0 -94 -66 -94h-21zM684 -97h-345q-94 0 -94 90v57q0 28 -9 37t-28 14q-22 7 -29.5 12.5t-7.5 19.5q0 27 32 27h87q42 0 42 -47v-115q0 -21 18 -21h335q33 0 33 -37t-34 -37z" />
<glyph unicode="&#xadc8;" horiz-adv-x="776" d="M98 712q-31 0 -31 37t31 37h330q43 0 43 -52q0 -50 -11 -123q-11 -69 -30 -111q5 0 10 1q43 1 88 9q37 8 43.5 -12t-14.5 -34q-25 -16 -83 -27t-144 -11h-17v-69q0 -67 -60 -67h-28v136h-181q-31 0 -31 37q0 36 31 36h322q1 5 2 11q11 40 12 99t1 103h-283zM600 296v443 q0 29 -8 38t-28 14t-32.5 11t-12.5 20q0 27 35 27h91q42 0 42 -43v-414q0 -96 -66 -96h-21zM676 -111h-366q-54 0 -54 66v65q0 21 -7.5 29.5t-20.5 14.5q-9 3 -15.5 8.5t-6.5 19.5q0 25 26 25h360v82h-333q-32 0 -32 36t32 36h384q36 0 36 -45v-126q0 -54 -41 -54h-295v-60 q0 -25 24 -25h310q32 0 32 -35q0 -37 -33 -37z" />
<glyph unicode="&#xadd0;" horiz-adv-x="776" d="M98 705q-31 0 -31 37t31 37h330q43 0 43 -53t-10 -118q-11 -65 -31 -119q5 0 10 1q43 1 88 9q37 7 43.5 -13t-14.5 -33q-25 -16 -83 -27t-144 -11h-17v-106q0 -66 -60 -66h-28v172h-181q-31 0 -31 37q0 36 31 36h322q0 6 2 13q11 48 12 104t1 100h-283zM600 243v496 q0 29 -8 38t-28 14t-32.5 11t-12.5 20q0 27 35 27h91q42 0 42 -43v-468q0 -95 -66 -95h-21zM342 -31h251v173h-250v-146q0 -14 -1 -27zM636 214q43 0 43 -50v-130q0 -40 -11 -65q30 -2 30 -36q0 -37 -33 -37h-340q-17 -29 -49 -29h-20v225q0 36 -4.5 47.5t-20.5 17.5 q-13 5 -20 12t-7 19q0 26 26 26h406z" />
<glyph unicode="&#xadd1;" horiz-adv-x="776" d="M98 712q-31 0 -31 37t31 37h330q43 0 43 -52q0 -50 -11 -126q-11 -70 -29 -112q4 0 9 1q43 1 88 9q37 7 43.5 -13t-14.5 -33q-25 -16 -83 -27t-144 -11h-17v-83q0 -65 -60 -65h-28v148h-181q-31 0 -31 37q0 36 31 36h323q0 4 1 9q11 40 12 102t1 106h-283zM600 284v455 q0 29 -8 38t-28 14t-32.5 11t-12.5 20q0 27 35 27h91q42 0 42 -43v-427q0 -95 -66 -95h-21zM659 -104h-335q-17 -28 -48 -28h-20v271q0 26 -3 33.5t-11 10.5q-11 4 -22.5 8.5t-11.5 18.5q0 27 34 27h59q41 0 41 -46v-52h251v20q0 26 -3.5 32t-11.5 9q-16 6 -25.5 10.5 t-9.5 18.5q0 26 34 26h58q44 0 44 -46v-165q0 -49 -17 -75q30 -1 30 -36q0 -37 -33 -37zM341 -31h252v97h-251v-72q0 -13 -1 -25z" />
<glyph unicode="&#xadd3;" horiz-adv-x="776" d="M98 705q-31 0 -31 37t31 37h330q43 0 43 -53t-10 -118q-11 -65 -31 -119q5 0 10 1q43 1 88 9q37 7 43.5 -13t-14.5 -33q-25 -16 -83 -27t-144 -11h-17v-158q0 -65 -60 -65h-28v223h-181q-31 0 -31 37q0 36 31 36h322q0 6 2 13q11 48 12 104t1 100h-283zM600 171v568 q0 29 -8 38t-28 14t-32.5 11t-12.5 20q0 27 35 27h91q42 0 42 -43v-540q0 -95 -66 -95h-21zM520 187q-7 -34 -27 -69l224 -143q17 -11 20.5 -31.5t-5.5 -33.5q-12 -15 -31 -15t-39 15l-205 157q-18 -22 -40 -43q-86 -84 -181 -130q-36 -19 -52.5 -1t14.5 39q83 53 143 121 t86 130q5 10 -7 16t-31 10q-24 5 -22 28.5t27 23.5h69q40 0 51.5 -23t5.5 -51z" />
<glyph unicode="&#xaddc;" d="M178 705q-32 0 -32 37t32 37h432q43 0 43 -53q0 -34 -10.5 -151t-32.5 -167q-6 -13 -17 -21t-27 -3q-12 5 -14 16t0 25q9 70 10 129.5t1 150.5h-385zM328 272v-281q0 -99 -63 -99h-21v380h-192q-30 0 -30 37q0 35 30 35h720q35 0 35 -35q0 -37 -35 -37h-178v-281 q0 -99 -63 -99h-21v380h-182z" />
<glyph unicode="&#xade0;" d="M178 707q-32 0 -32 37t32 37h434q42 0 42 -52q0 -86 -10 -168q-10 -74 -28 -136h157q34 0 34 -35q0 -37 -34 -37h-181v-152q0 -100 -64 -100h-22v252h-106v-152q0 -100 -63 -100h-23v252h-262q-30 0 -30 37q0 35 30 35h498q10 66 12 116t2 166h-386zM638 -97h-353 q-95 0 -95 89v119q0 29 -9.5 37.5t-26.5 13.5q-23 7 -31 13t-8 19q0 28 32 28h87q44 0 44 -48v-176q0 -21 18 -21h343q33 0 33 -37t-34 -37z" />
<glyph unicode="&#xade4;" d="M178 727q-32 0 -32 37t32 37h434q42 0 42 -51q0 -79 -10 -141q-9 -54 -24 -108h152q35 0 35 -36q0 -37 -35 -37h-179v-51q0 -49 -14 -75h39q36 0 36 -45v-142q0 -53 -40 -53h-336v-75q0 -26 23 -26h352q32 0 32 -36t-33 -36h-398q-64 0 -64 76v70q0 23 -6 30.5t-20 12.5 q-8 4 -17 10t-9 19q0 27 28 27h401v97h-373q-32 0 -32 35q0 36 32 36h50v126h-192q-30 0 -30 37q0 36 30 36h499q9 62 11 114q2 55 2 112h-386zM508 428h-178v-51q0 -49 -16 -75h194v126z" />
<glyph unicode="&#xadf8;" d="M168 727h443q43 0 43 -53q0 -76 -10.5 -205.5t-40.5 -218.5q-5 -15 -16.5 -21t-26.5 -2q-11 3 -15.5 12t-0.5 29q12 61 16 164t4 222h-396q-32 0 -32 37q0 36 32 36zM773 49h-721q-30 0 -30 36q0 37 30 37h721q34 0 34 -37q0 -36 -34 -36z" />
<glyph unicode="&#xadf9;" d="M178 721q-32 0 -32 37t32 37h434q42 0 42 -51q0 -86 -11 -169t-31 -143h161q34 0 34 -36q0 -38 -34 -38h-721q-30 0 -30 38q0 36 30 36h497q0 5 1 12q10 66 12 114t2 163h-386zM174 150q-28 0 -28 37q0 36 28 36h436q38 0 38 -44v-207q0 -99 -61 -99h-25v277h-388z" />
<glyph unicode="&#xadfc;" d="M178 707q-32 0 -32 37t32 37h434q42 0 42 -52q0 -86 -10 -179q-11 -91 -31 -156h159q35 0 35 -36q0 -38 -35 -38h-720q-30 0 -30 38q0 36 30 36h496q0 5 1 10q10 66 12.5 126.5t2.5 176.5h-386zM638 -97h-353q-95 0 -95 89v109q0 28 -9.5 37t-26.5 14q-23 7 -31 12.5 t-8 19.5q0 27 32 27h87q44 0 44 -47v-166q0 -21 18 -21h343q33 0 33 -37t-34 -37z" />
<glyph unicode="&#xadff;" d="M178 721q-32 0 -32 37t32 37h434q42 0 42 -54q-1 -74 -12 -161q-11 -85 -29 -142h159q35 0 35 -36q0 -38 -35 -38h-720q-30 0 -30 38q0 36 30 36h497q0 5 1 11q9 50 11 128.5t3 143.5h-386zM634 -104h-379q-59 0 -59 68v160q0 34 -3.5 45t-22.5 18q-11 5 -19.5 11.5 t-8.5 18.5q0 27 27 27h455q32 0 32 -37q0 -36 -31 -36h-342v-176q0 -26 24 -26h328q32 0 32 -36q0 -37 -33 -37z" />
<glyph unicode="&#xae00;" d="M178 727q-32 0 -32 37t32 37h434q42 0 42 -51q0 -61 -10 -145q-10 -77 -28 -139h157q34 0 34 -36q0 -37 -34 -37h-721q-30 0 -30 37q0 36 30 36h498q10 64 12 127t2 134h-386zM194 231q-32 0 -32 35q0 36 32 36h424q36 0 36 -45v-142q0 -53 -40 -53h-336v-75 q0 -26 23 -26h352q32 0 32 -36t-33 -36h-398q-64 0 -64 76v70q0 23 -6 30.5t-20 12.5q-8 4 -17 10t-9 19q0 27 28 27h401v97h-373z" />
<glyph unicode="&#xae01;" d="M178 727q-32 0 -32 37t32 37h434q42 0 42 -51q0 -61 -10 -145q-10 -77 -28 -139h157q34 0 34 -36q0 -37 -34 -37h-721q-30 0 -30 37q0 36 30 36h498q10 64 12 127t2 134h-386zM157 231q-32 0 -32 36q0 35 32 35h226q37 0 37 -44v-146q0 -50 -34 -50h-150v-80 q0 -21 17 -21h165q32 0 32 -35q0 -37 -33 -37h-204q-63 0 -63 74v74q0 22 -3.5 30.5t-16.5 14.5q-9 4 -14 9t-5 19q0 23 20 23h203v98h-177zM470 302h177q40 0 40 -43v-274q0 -96 -63 -96h-24v342h-130q-32 0 -32 36q0 35 32 35z" />
<glyph unicode="&#xae08;" d="M178 721q-32 0 -32 37t32 37h434q42 0 42 -54q-1 -74 -12 -161q-11 -85 -29 -142h159q35 0 35 -36q0 -38 -35 -38h-720q-30 0 -30 38q0 36 30 36h497q0 5 1 11q9 50 11 128.5t3 143.5h-386zM278 -31h287v202h-286v-175q0 -14 -1 -27zM608 244q43 0 43 -50v-150 q0 -49 -16 -75q30 -2 30 -36q0 -37 -33 -37h-372q-16 -29 -47 -29h-20v254q0 37 -3 48t-19 18q-12 5 -21 11.5t-9 18.5q0 27 33 27h434z" />
<glyph unicode="&#xae09;" d="M178 727q-32 0 -32 37t32 37h434q42 0 42 -51q0 -86 -10 -163q-11 -77 -31 -142h159q35 0 35 -36q0 -38 -35 -38h-720q-30 0 -30 38q0 36 30 36h497q0 5 1 11q10 67 12 111.5t2 159.5h-386zM632 -104h-372q-16 -28 -47 -28h-20v315q0 26 -3.5 33.5t-11.5 10.5 q-10 4 -22 8.5t-12 18.5q0 27 34 27h60q41 0 41 -45v-79h286v43q0 26 -3.5 32t-11.5 9q-15 6 -25 10.5t-10 18.5q0 26 34 26h58q44 0 44 -45v-206q0 -50 -17 -76q31 -1 31 -36q0 -37 -33 -37zM278 -31h287v115h-286v-87q0 -15 -1 -28z" />
<glyph unicode="&#xae0b;" d="M178 721q-32 0 -32 37t32 37h434q42 0 42 -51q0 -86 -10 -166q-10 -76 -30 -140h158q35 0 35 -36q0 -38 -35 -38h-720q-30 0 -30 38q0 36 30 36h497q0 3 1 6q10 66 12 120t2 157h-386zM474 197q-10 -39 -38 -81l258 -144q22 -12 26 -33t-9 -35t-30 -14t-40 15l-241 164 q-12 -14 -26 -29q-83 -86 -191 -148q-39 -23 -53 -2t11 39q86 56 153.5 134t86.5 129q4 11 -9 17.5t-28 10.5q-26 5 -23.5 28t27.5 23h69q40 0 51.5 -22.5t5.5 -51.5z" />
<glyph unicode="&#xae0d;" d="M178 721q-32 0 -32 37t32 37h434q42 0 42 -51q0 -86 -10 -166q-11 -78 -31 -144h160q34 0 34 -36q0 -38 -34 -38h-721q-30 0 -30 38q0 36 30 36h497q0 5 1 10q10 66 12 120t2 157h-386zM198 67q0 81 63.5 138t152.5 57t152.5 -57t63.5 -138t-63.5 -138t-152.5 -57 t-152.5 57t-63.5 138zM286 67q0 -49 37 -84.5t91 -35.5q53 0 90.5 35.5t37.5 84.5t-37.5 84.5t-90.5 35.5q-54 0 -91 -35.5t-37 -84.5z" />
<glyph unicode="&#xae14;" horiz-adv-x="776" d="M88 637q-32 0 -32 37t32 37h351q44 0 43 -54q-1 -90 -12 -183.5t-31 -165.5q-5 -16 -17 -22.5t-27 -3.5q-14 4 -16 16t0 25q12 72 12.5 151t0.5 163h-304zM600 739q0 29 -8 38t-28 14t-32.5 11t-12.5 20q0 27 35 27h90q43 0 43 -42v-821q0 -94 -66 -94h-21v847zM330 120 h-286q-31 0 -31 37t31 37h291q62 0 105 1.5t88 9.5q37 7 43.5 -13.5t-14.5 -33.5q-25 -16 -83 -27t-144 -11z" />
<glyph unicode="&#xae30;" horiz-adv-x="776" d="M86 623q-32 0 -32 37q0 36 32 36h326q20 0 31.5 -17t8.5 -36q-23 -126 -130.5 -260.5t-239.5 -217.5q-35 -22 -50.5 -0.5t12.5 42.5q117 89 200 207.5t102 208.5h-260zM600 739q0 29 -8 38t-28 14t-32.5 11t-12.5 20q0 27 35 27h90q43 0 43 -42v-821q0 -94 -66 -94h-21 v847z" />
<glyph unicode="&#xae31;" horiz-adv-x="776" d="M86 670q-32 0 -32 37q0 36 32 36h323q20 0 30 -16t6 -35q-21 -112 -128.5 -229.5t-237.5 -183.5q-35 -17 -47 5.5t14 38.5q122 78 199.5 179t96.5 168h-256zM600 273v466q0 29 -8 38t-28 14t-32.5 11t-12.5 20q0 27 35 27h90q43 0 43 -43v-438q0 -95 -66 -95h-21z M218 156q-28 0 -28 37q0 36 28 36h423q38 0 38 -44v-213q0 -99 -62 -99h-24v283h-375z" />
<glyph unicode="&#xae34;" horiz-adv-x="776" d="M86 668q-32 0 -32 37q0 36 32 36h323q20 0 30 -16t6 -35q-22 -125 -128 -250t-238 -199q-34 -19 -46.5 4t13.5 40q116 78 198 192.5t99 190.5h-257zM600 123v616q0 29 -8 38t-28 14t-32.5 11t-12.5 20q0 27 35 27h90q43 0 43 -43v-589q0 -94 -66 -94h-21zM694 -97h-341 q-94 0 -94 89v110q0 28 -8.5 37t-28.5 14q-21 7 -29 12.5t-8 19.5q0 27 32 27h87q42 0 42 -47v-167q0 -21 19 -21h330q33 0 33 -37t-34 -37z" />
<glyph unicode="&#xae37;" horiz-adv-x="776" d="M86 670q-32 0 -32 37q0 36 32 36h323q20 0 30 -16t6 -35q-19 -109 -130 -233t-236 -195q-34 -21 -46.5 2.5t13.5 41.5q122 86 199.5 188.5t96.5 173.5h-256zM600 287v452q0 29 -8 38t-28 14t-32.5 11t-12.5 20q0 27 35 27h90q43 0 43 -43v-424q0 -95 -66 -95h-21z M659 -104h-327q-61 0 -61 68v159q0 34 -3 45t-22 18q-12 5 -20 11.5t-8 18.5q0 27 27 27h404q33 0 33 -37q0 -36 -32 -36h-292v-175q0 -26 25 -26h277q32 0 32 -36q0 -37 -33 -37z" />
<glyph unicode="&#xae38;" horiz-adv-x="776" d="M86 678q-32 0 -32 37q0 36 32 36h323q19 0 30 -16t6 -35q-23 -110 -127 -219.5t-239 -176.5q-35 -18 -47.5 4.5t14.5 39.5q118 70 194 163t102 167h-256zM600 342v397q0 29 -8 38t-28 14t-32.5 11t-12.5 20q0 27 35 27h90q43 0 43 -43v-368q0 -96 -66 -96h-21zM676 -111 h-355q-55 0 -55 66v78q0 22 -7.5 30t-19.5 14q-10 3 -16.5 9t-6.5 19q0 25 27 25h349v96h-323q-31 0 -31 37q0 35 31 35h374q36 0 36 -45v-141q0 -53 -41 -53h-285v-73q0 -25 24 -25h300q32 0 32 -35q0 -37 -33 -37z" />
<glyph unicode="&#xae3a;" horiz-adv-x="776" d="M86 678q-32 0 -32 37q0 36 32 36h323q19 0 30 -16t6 -35q-23 -110 -127 -219.5t-239 -176.5q-35 -18 -47.5 4.5t14.5 39.5q118 70 194 163t102 167h-256zM600 342v397q0 29 -8 38t-28 14t-32.5 11t-12.5 20q0 27 35 27h90q43 0 43 -43v-368q0 -96 -66 -96h-21zM525 -22 h78v249h-77v-220q0 -16 -1 -29zM164 226q-32 0 -32 37q0 35 32 35h190q37 0 37 -44v-145q0 -50 -34 -50h-114v-77q0 -21 17 -21h127q32 0 32 -35q0 -37 -34 -37h-164q-64 0 -64 74v72q0 22 -3 30t-17 14q-9 4 -14 9t-5 19q0 22 20 22h170v97h-144zM644 298q43 0 43 -49v-195 q0 -49 -17 -76q30 -2 30 -35q0 -37 -33 -37h-158q-16 -28 -46 -28h-18v308q0 37 -1 43t-11 13t-16.5 12t-6.5 18q0 26 26 26h208z" />
<glyph unicode="&#xae40;" horiz-adv-x="776" d="M86 670q-32 0 -32 37q0 36 32 36h323q20 0 30 -16t6 -35q-19 -109 -130 -233t-236 -195q-34 -21 -46.5 2.5t13.5 41.5q122 86 199.5 188.5t96.5 173.5h-256zM600 287v452q0 29 -8 38t-28 14t-32.5 11t-12.5 20q0 27 35 27h90q43 0 43 -43v-424q0 -95 -66 -95h-21z M351 -31h242v201h-241v-174q0 -14 -1 -27zM636 243q43 0 43 -51v-148q0 -49 -16 -75q29 -2 29 -36q0 -37 -33 -37h-325q-17 -29 -47 -29h-21v252q0 38 -2.5 49t-18.5 18q-13 5 -21.5 11.5t-8.5 18.5q0 27 33 27h388z" />
<glyph unicode="&#xae41;" horiz-adv-x="776" d="M86 678q-32 0 -32 37q0 36 32 36h323q19 0 30 -16t6 -35q-23 -110 -127 -220.5t-239 -186.5q-35 -20 -46 3.5t13 40.5q117 80 192.5 170t103.5 171h-256zM600 331v408q0 29 -8 38t-28 14t-32.5 11t-12.5 20q0 27 35 27h90q43 0 43 -43v-380q0 -95 -66 -95h-21zM352 159 h241v49q0 26 -3.5 32t-11.5 9q-16 6 -25.5 11t-9.5 18q0 27 34 27h58q44 0 44 -46v-214q0 -50 -17 -76q30 -1 30 -36q0 -37 -33 -37h-325q-17 -28 -47 -28h-21v306q0 27 -3 34t-11 11q-10 4 -22 8.5t-12 18.5q0 27 34 27h59q41 0 41 -45v-69zM593 86h-241v-89q0 -15 -1 -28 h242v117z" />
<glyph unicode="&#xae43;" horiz-adv-x="776" d="M86 670q-32 0 -32 37q0 36 32 36h323q20 0 30 -16t6 -35q-19 -109 -130 -233t-236 -195q-34 -21 -46.5 2.5t13.5 41.5q122 86 199.5 188.5t96.5 173.5h-256zM600 237v502q0 29 -8 38t-28 14t-32.5 11t-12.5 20q0 27 35 27h90q43 0 43 -43v-474q0 -95 -66 -95h-21z M520 208q-9 -36 -32 -73l229 -159q17 -11 20.5 -31.5t-5.5 -33.5q-12 -15 -31 -15t-39 15l-208 170q-18 -22 -39 -45q-85 -91 -179 -141q-36 -20 -52.5 -2.5t14.5 39.5q84 57 144.5 134.5t84.5 137.5q5 10 -7 16.5t-31 10.5q-24 5 -22 28t27 23h69q40 0 52 -22.5t5 -51.5z " />
<glyph unicode="&#xae45;" horiz-adv-x="776" d="M86 670q-32 0 -32 37q0 36 32 36h323q20 0 30 -16t6 -35q-19 -109 -130 -233t-236 -195q-34 -21 -46.5 2.5t13.5 41.5q122 86 199.5 188.5t96.5 173.5h-256zM600 272v467q0 29 -8 38t-28 14t-32.5 11t-12.5 20q0 27 35 27h90q43 0 43 -43v-439q0 -95 -66 -95h-21zM268 71 q0 84 60 141.5t147 57.5t147 -57.5t60 -141.5t-60 -141.5t-147 -57.5t-147 57.5t-60 141.5zM356 71q0 -56 35.5 -90t83.5 -34t83.5 34t35.5 90t-35.5 90t-83.5 34t-83.5 -34t-35.5 -90z" />
<glyph unicode="&#xae46;" horiz-adv-x="776" d="M86 670q-32 0 -32 37q0 36 32 36h323q20 0 30 -16t6 -35q-19 -109 -130 -233t-236 -195q-34 -21 -46.5 2.5t13.5 41.5q122 86 199.5 188.5t96.5 173.5h-256zM600 287v452q0 29 -8 38t-28 14t-32.5 11t-12.5 20q0 27 35 27h90q43 0 43 -43v-424q0 -95 -66 -95h-21z M257 170q-31 0 -31 37q0 36 32 36h334q31 0 42 -20.5t0 -48.5q-27 -57 -94 -115l174 -90q21 -12 26 -29t-4 -35q-9 -17 -29 -19t-37 10l-184 123q-3 -3 -7 -5q-118 -82 -249 -127q-32 -12 -43 11t18 35q95 42 182 106t140 131h-270z" />
<glyph unicode="&#xae4a;" horiz-adv-x="776" d="M86 670q-32 0 -32 37q0 36 32 36h323q20 0 30 -16t6 -35q-19 -109 -130 -233t-236 -195q-34 -21 -46.5 2.5t13.5 41.5q122 86 199.5 188.5t96.5 173.5h-256zM600 287v452q0 29 -8 38t-28 14t-32.5 11t-12.5 20q0 27 35 27h90q43 0 43 -43v-424q0 -95 -66 -95h-21z M682 171h-67v-203h67q34 0 34 -36t-34 -36h-470q-32 0 -32 36t32 36h82v203h-82q-32 0 -32 36t32 36h470q34 0 34 -36t-34 -36zM529 171h-149v-203h149v203z" />
<glyph unicode="&#xae4c;" horiz-adv-x="841" d="M66 628q-32 0 -32 37q0 36 32 36h381q22 0 32.5 -16.5t8.5 -33.5q-19 -156 -73 -274t-143 -210q-27 -27 -48.5 -12.5t-2.5 40.5q72 95 114.5 209t51.5 224h-98q-22 -119 -77 -227t-132 -176q-30 -29 -50 -10.5t6 47.5q55 61 103 165.5t59 200.5h-132zM591 739 q0 29 -8.5 38t-27.5 14q-20 5 -32.5 11t-12.5 20q0 27 35 27h91q42 0 42 -42v-308h116q32 0 32 -38q0 -37 -32 -37h-116v-439q0 -92 -67 -92h-20v846z" />
<glyph unicode="&#xae4d;" horiz-adv-x="841" d="M66 675q-32 0 -32 37q0 36 32 36h381q22 0 32.5 -16.5t8.5 -31.5q-16 -125 -74.5 -226.5t-142.5 -172.5q-28 -25 -49.5 -10.5t-0.5 38.5q63 70 110 160.5t56 185.5h-98q-20 -94 -77 -180t-127 -136q-33 -24 -50 -7t11 44q51 49 95 124.5t57 154.5h-132zM591 739 q0 29 -8.5 38t-27.5 14q-20 5 -32.5 11t-12.5 20q0 27 35 27h91q42 0 42 -42v-221h116q32 0 32 -38q0 -37 -32 -37h-116v-143q0 -92 -67 -92h-20v463zM210 156q-28 0 -28 37q0 36 28 36h423q38 0 38 -44v-213q0 -99 -62 -99h-24v283h-375z" />
<glyph unicode="&#xae4e;" horiz-adv-x="841" d="M66 675q-32 0 -32 37q0 36 32 36h381q22 0 32.5 -16.5t8.5 -31.5q-16 -125 -74.5 -226.5t-142.5 -172.5q-28 -25 -49.5 -10.5t-0.5 38.5q63 70 110 160.5t56 185.5h-98q-20 -94 -77 -180t-127 -136q-33 -24 -50 -7t11 44q51 49 95 124.5t57 154.5h-132zM591 739 q0 29 -8.5 38t-27.5 14q-20 5 -32.5 11t-12.5 20q0 27 35 27h91q42 0 42 -42v-221h116q32 0 32 -38q0 -37 -32 -37h-116v-143q0 -92 -67 -92h-20v463zM457 156q-28 0 -28 37q0 36 28 36h182q39 0 39 -44v-213q0 -99 -62 -99h-23v283h-136zM144 156q-27 0 -27 37q0 36 27 36 h228q39 0 39 -44v-213q0 -99 -62 -99h-23v283h-182z" />
<glyph unicode="&#xae50;" horiz-adv-x="841" d="M66 675q-32 0 -32 37q0 36 32 36h381q22 0 32.5 -16.5t8.5 -33.5q-16 -128 -74 -233t-143 -179q-28 -25 -49.5 -11t-0.5 39q63 68 110 167t56 194h-98q-18 -102 -78 -191.5t-126 -140.5q-33 -23 -50 -6t11 43q51 49 96 130.5t56 164.5h-132zM678 807v-241h116 q32 0 32 -38q0 -37 -32 -37h-116v-276q0 -92 -67 -92h-20v616q0 29 -8.5 38t-27.5 14q-20 5 -32.5 11t-12.5 20q0 27 35 27h91q42 0 42 -42zM686 -97h-341q-94 0 -94 89v110q0 28 -9 37t-28 14q-21 7 -29 12.5t-8 19.5q0 27 32 27h87q42 0 42 -47v-167q0 -21 18 -21h331 q33 0 33 -37t-34 -37z" />
<glyph unicode="&#xae54;" horiz-adv-x="841" d="M66 685q-32 0 -32 37q0 36 32 36h381q22 0 32.5 -16.5t8.5 -33.5q-15 -111 -74 -202t-143 -155q-29 -23 -50.5 -8t0.5 36q67 66 112 146.5t54 159.5h-96q-21 -79 -76 -152.5t-130 -123.5q-35 -23 -48.5 -4.5t15.5 42.5q53 43 92 105.5t54 132.5h-132zM591 739 q0 29 -8.5 38t-27.5 14q-20 5 -32.5 11t-12.5 20q0 27 35 27h91q42 0 42 -42v-190h116q32 0 32 -38q0 -37 -32 -37h-116v-107q0 -93 -67 -93h-20v397zM669 -111h-356q-54 0 -54 66v78q0 22 -7.5 30t-20.5 14q-9 3 -15.5 9t-6.5 19q0 25 27 25h349v96h-323q-32 0 -32 37 q0 35 32 35h374q36 0 36 -45v-141q0 -53 -41 -53h-285v-73q0 -25 24 -25h300q31 0 31 -35q0 -37 -32 -37z" />
<glyph unicode="&#xae56;" horiz-adv-x="841" d="M66 685q-32 0 -32 37q0 36 32 36h381q22 0 32.5 -16.5t8.5 -33.5q-15 -111 -74 -202t-143 -155q-29 -23 -50.5 -8t0.5 36q67 66 112 146.5t54 159.5h-96q-21 -79 -76 -152.5t-130 -123.5q-35 -23 -48.5 -4.5t15.5 42.5q53 43 92 105.5t54 132.5h-132zM591 739 q0 29 -8.5 38t-27.5 14q-20 5 -32.5 11t-12.5 20q0 27 35 27h91q42 0 42 -42v-190h116q32 0 32 -38q0 -37 -32 -37h-116v-107q0 -93 -67 -93h-20v397zM518 -22h78v249h-77v-220q0 -16 -1 -29zM157 226q-32 0 -32 37q0 35 32 35h190q37 0 37 -44v-145q0 -50 -34 -50h-114v-77 q0 -21 17 -21h127q32 0 32 -35q0 -37 -34 -37h-164q-64 0 -64 74v72q0 22 -3.5 30t-16.5 14q-9 4 -14 9t-5 19q0 22 20 22h170v97h-144zM637 298q43 0 43 -49v-195q0 -49 -17 -76q30 -2 30 -35q0 -37 -34 -37h-157q-17 -28 -46 -28h-18v308q0 37 -1 43t-11 13t-17 12t-7 18 q0 26 27 26h208z" />
<glyph unicode="&#xae5c;" horiz-adv-x="841" d="M66 675q-32 0 -32 37q0 36 32 36h381q22 0 32.5 -16.5t8.5 -33.5q-16 -121 -74.5 -220t-142.5 -167q-29 -24 -50 -9t0 37q67 72 112 160.5t54 175.5h-98q-21 -93 -78.5 -174.5t-125.5 -131.5q-33 -24 -50.5 -7t11.5 44q54 50 96 123.5t56 145.5h-132zM591 739 q0 29 -8.5 38t-27.5 14q-20 5 -32.5 11t-12.5 20q0 27 35 27h91q42 0 42 -42v-224h116q32 0 32 -38q0 -37 -32 -37h-116v-129q0 -92 -67 -92h-20v452zM344 -31h242v201h-241v-174q0 -14 -1 -27zM629 243q43 0 43 -51v-148q0 -49 -17 -75q30 -2 30 -36q0 -37 -33 -37h-325 q-17 -29 -47 -29h-21v252q0 38 -2.5 49t-18.5 18q-13 5 -21.5 11.5t-8.5 18.5q0 27 33 27h388z" />
<glyph unicode="&#xae5d;" horiz-adv-x="841" d="M66 685q-32 0 -32 37q0 36 32 36h381q22 0 32.5 -16.5t8.5 -33.5q-15 -114 -74 -210t-143 -163q-29 -23 -50 -8.5t0 37.5q68 69 112.5 155t53.5 166h-98q-19 -81 -73.5 -159t-130.5 -132q-33 -23 -51 -5t10 39q55 45 97.5 115t56.5 142h-132zM591 739q0 29 -8.5 38 t-27.5 14q-20 5 -32.5 11t-12.5 20q0 27 35 27h91q42 0 42 -42v-190h116q32 0 32 -38q0 -37 -32 -37h-116v-119q0 -92 -67 -92h-20v408zM345 159h241v49q0 26 -3.5 32t-12.5 9q-15 6 -24.5 11t-9.5 18q0 27 33 27h59q44 0 44 -46v-214q0 -50 -18 -76q31 -1 31 -36 q0 -37 -33 -37h-325q-17 -28 -47 -28h-21v306q0 27 -3 34t-11 11q-11 4 -22.5 8.5t-11.5 18.5q0 27 34 27h59q41 0 41 -45v-69zM586 86h-241v-89q0 -15 -1 -28h242v117z" />
<glyph unicode="&#xae5f;" horiz-adv-x="841" d="M66 675q-32 0 -32 37q0 36 32 36h381q22 0 32.5 -16.5t8.5 -33.5q-16 -121 -74.5 -220t-142.5 -167q-29 -24 -50 -9t0 37q67 72 112 160.5t54 175.5h-98q-21 -93 -78.5 -174.5t-125.5 -131.5q-33 -24 -50.5 -7t11.5 44q54 50 96 123.5t56 145.5h-132zM591 739 q0 29 -8.5 38t-27.5 14q-20 5 -32.5 11t-12.5 20q0 27 35 27h91q42 0 42 -42v-224h116q32 0 32 -38q0 -37 -32 -37h-116v-179q0 -92 -67 -92h-20v502zM513 208q-9 -36 -32 -73l229 -159q17 -11 20.5 -31.5t-5.5 -33.5q-12 -15 -31 -15t-40 15l-208 170q-17 -22 -38 -45 q-85 -91 -180 -141q-35 -20 -51.5 -2.5t13.5 39.5q84 57 145 134.5t85 137.5q5 10 -7.5 16.5t-30.5 10.5q-25 5 -23 28t28 23h69q40 0 52 -22.5t5 -51.5z" />
<glyph unicode="&#xae60;" horiz-adv-x="841" d="M66 675q-32 0 -32 37q0 36 32 36h381q22 0 32.5 -16.5t8.5 -33.5q-16 -121 -74.5 -220t-142.5 -167q-29 -24 -50 -9t0 37q67 72 112 160.5t54 175.5h-98q-21 -93 -78.5 -174.5t-125.5 -131.5q-33 -24 -50.5 -7t11.5 44q54 50 96 123.5t56 145.5h-132zM591 739 q0 29 -8.5 38t-27.5 14q-20 5 -32.5 11t-12.5 20q0 27 35 27h91q42 0 42 -42v-224h116q32 0 32 -38q0 -37 -32 -37h-116v-129q0 -92 -67 -92h-20v452zM386 193q-6 -46 -30 -92l106 -91q11 16 21 33q49 81 64 152q1 7 -3 12t-19 9q-13 5 -21.5 10t-8.5 16q0 27 31 27h66 q33 0 42.5 -18t6.5 -47q-7 -51 -32 -103l137 -121q22 -17 25 -35t-9 -32q-11 -13 -30.5 -13t-39.5 21l-115 121l-18 -24q-70 -93 -138 -135q-32 -21 -49 -4t8 38q17 15 35 33l-91 96q-7 -9 -13 -17q-64 -83 -147 -132q-33 -20 -50.5 -3t9.5 38q65 50 111.5 122t57.5 127 q2 7 -2 13t-19 10q-16 5 -23.5 10t-7.5 17q0 25 32 25h68q31 0 40 -18t6 -45z" />
<glyph unicode="&#xae61;" horiz-adv-x="841" d="M66 675q-32 0 -32 37q0 36 32 36h381q22 0 32.5 -16.5t8.5 -33.5q-16 -121 -74.5 -220t-142.5 -167q-29 -24 -50 -9t0 37q67 72 112 160.5t54 175.5h-98q-21 -93 -78.5 -174.5t-125.5 -131.5q-33 -24 -50.5 -7t11.5 44q54 50 96 123.5t56 145.5h-132zM591 739 q0 29 -8.5 38t-27.5 14q-20 5 -32.5 11t-12.5 20q0 27 35 27h91q42 0 42 -42v-224h116q32 0 32 -38q0 -37 -32 -37h-116v-144q0 -92 -67 -92h-20v467zM261 71q0 84 60 141.5t147 57.5t147 -57.5t60 -141.5t-60 -141.5t-147 -57.5t-147 57.5t-60 141.5zM349 71 q0 -56 35.5 -90t83.5 -34t83.5 34t35.5 90t-35.5 90t-83.5 34t-83.5 -34t-35.5 -90z" />
<glyph unicode="&#xae65;" horiz-adv-x="841" d="M66 685q-32 0 -32 37q0 36 32 36h381q22 0 32.5 -16.5t8.5 -33.5q-15 -111 -74 -202t-143 -155q-29 -23 -50.5 -8t0.5 36q67 66 112 146.5t54 159.5h-96q-21 -79 -76 -152.5t-130 -123.5q-35 -23 -48.5 -4.5t15.5 42.5q53 43 92 105.5t54 132.5h-132zM591 739 q0 29 -8.5 38t-27.5 14q-20 5 -32.5 11t-12.5 20q0 27 35 27h91q42 0 42 -42v-190h116q32 0 32 -38q0 -37 -32 -37h-116v-107q0 -93 -67 -93h-20v397zM639 130q33 0 33 -35q0 -36 -33 -36h-293v-71q0 -27 25 -27h286q32 0 32 -35q0 -37 -33 -37h-337q-60 0 -60 67v223 q0 33 -3 44t-23 18q-11 5 -19 11.5t-8 19.5q0 26 26 26h416q33 0 33 -36t-32 -36h-303v-96h293z" />
<glyph unicode="&#xae68;" d="M66 701h333q21 0 31.5 -16.5t8.5 -33.5q-17 -144 -72 -272.5t-118 -206.5q-25 -28 -48.5 -15t-4.5 39q54 84 94 199.5t51 232.5h-82q-23 -129 -75.5 -231.5t-108.5 -171.5q-26 -30 -44.5 -15t3.5 47q42 65 83 168t52 203h-103q-32 0 -32 37q0 36 32 36zM452 806h87 q42 0 42 -43v-260h90v238q0 28 -7 37t-29 14t-33.5 10.5t-11.5 19.5q0 27 37 27h89q42 0 42 -42v-821q0 -94 -67 -94h-20v540h-90v-387q0 -92 -66 -92h-20v744q0 29 -7 37.5t-27 14.5q-22 6 -33 12.5t-11 19.5q0 25 35 25z" />
<glyph unicode="&#xae69;" d="M66 737h338q21 0 31.5 -16.5t8.5 -34.5q-17 -134 -69 -232.5t-122 -163.5q-27 -26 -50 -13t-2 38q57 67 98 161t48 188h-88q-17 -103 -68 -189t-107 -134q-30 -24 -48 -9t8 44q51 59 84 134.5t41 153.5h-103q-32 0 -32 37q0 36 32 36zM627 849h88q43 0 43 -44v-436 q0 -96 -68 -96h-19v240h-80v-138q0 -92 -67 -92h-19v414q0 29 -6.5 37.5t-27.5 14.5t-32.5 12.5t-11.5 19.5q0 25 35 25h87q42 0 42 -43v-178h80v156q0 28 -7 37t-29 14t-33.5 10.5t-11.5 19.5q0 27 37 27zM253 156q-28 0 -28 37q0 36 28 36h454q37 0 37 -44v-213 q0 -99 -61 -99h-25v283h-405z" />
<glyph unicode="&#xae6c;" d="M66 729h338q21 0 31.5 -16t8.5 -34q-17 -134 -69 -238t-122 -168q-27 -27 -50 -13.5t-2 37.5q57 68 98 167t48 193h-88q-17 -106 -68.5 -197t-106.5 -136q-30 -24 -48 -10t8 45q53 64 85 141t40 157h-103q-32 0 -32 37q0 35 32 35zM505 697q0 29 -6.5 37.5t-27.5 14.5 t-32.5 12.5t-11.5 19.5q0 25 35 25h87q42 0 42 -43v-209h80v187q0 28 -7 37t-29 14t-33.5 10.5t-11.5 19.5q0 27 37 27h88q43 0 43 -44v-589q0 -95 -68 -95h-19v362h-80v-248q0 -92 -67 -92h-19v554zM743 -97h-371q-94 0 -94 89v110q0 28 -9 37t-28 14q-22 7 -29.5 12.5 t-7.5 19.5q0 27 32 27h87q42 0 42 -47v-167q0 -21 18 -21h361q33 0 33 -37t-34 -37z" />
<glyph unicode="&#xae70;" d="M66 741h338q21 0 31.5 -16.5t8.5 -33.5q-17 -123 -69 -216.5t-122 -153.5q-29 -26 -51.5 -13t-0.5 37q57 64 98 150t48 173h-88q-18 -88 -66.5 -168.5t-108.5 -127.5q-32 -23 -49.5 -8t9.5 43q48 50 81.5 117.5t43.5 143.5h-103q-32 0 -32 37q0 36 32 36zM462 806h87 q42 0 42 -43v-152h80v130q0 28 -7 37t-29 14t-33.5 10.5t-11.5 19.5q0 27 37 27h88q43 0 43 -44v-383q0 -96 -68 -96h-19v213h-80v-111q0 -92 -67 -92h-19v361q0 29 -6.5 37.5t-27.5 14.5t-32.5 12.5t-11.5 19.5q0 25 35 25zM742 -111h-375q-55 0 -55 66v75q0 22 -7.5 30 t-19.5 14q-10 3 -16.5 8.5t-6.5 19.5q0 25 27 25h369v93h-343q-31 0 -31 36t31 36h395q35 0 35 -45v-138q0 -53 -40 -53h-306v-70q0 -25 24 -25h320q32 0 32 -35q0 -37 -33 -37z" />
<glyph unicode="&#xae78;" d="M66 737h338q21 0 31.5 -16.5t8.5 -34.5q-17 -131 -69 -226.5t-122 -159.5q-27 -25 -50 -12.5t-2 37.5q57 65 98 155.5t48 183.5h-88q-18 -97 -67.5 -181.5t-107.5 -130.5q-31 -24 -49 -9t9 43q55 61 85 131.5t40 146.5h-103q-32 0 -32 37q0 36 32 36zM505 697 q0 29 -6.5 37.5t-27.5 14.5t-32.5 12.5t-11.5 19.5q0 25 35 25h87q42 0 42 -43v-173h80v151q0 28 -7 37t-29 14t-33.5 10.5t-11.5 19.5q0 27 37 27h88q43 0 43 -44v-422q0 -96 -68 -96h-19v232h-80v-129q0 -93 -67 -93h-19v400zM387 -31h272v201h-271v-174q0 -14 -1 -27z M702 243q43 0 43 -51v-148q0 -49 -16 -75q30 -2 30 -36q0 -37 -33 -37h-356q-17 -29 -47 -29h-21v252q0 38 -2.5 49t-18.5 18q-13 5 -21.5 11.5t-8.5 18.5q0 27 33 27h418z" />
<glyph unicode="&#xae79;" d="M66 741h338q21 0 31.5 -16.5t8.5 -33.5q-17 -131 -69 -222.5t-122 -151.5q-29 -26 -51.5 -13t-0.5 37q57 64 98 149t48 178h-88q-18 -96 -67.5 -175t-107.5 -125q-31 -23 -49 -8.5t9 43.5q52 55 84 123t41 142h-103q-32 0 -32 37q0 36 32 36zM505 697q0 29 -6.5 37.5 t-27.5 14.5t-32.5 12.5t-11.5 19.5q0 25 35 25h87q42 0 42 -43v-163h80v141q0 28 -7 37t-29 14t-33.5 10.5t-11.5 19.5q0 27 37 27h88q43 0 43 -44v-382q0 -96 -68 -96h-19v202h-80v-100q0 -92 -67 -92h-19v360zM393 157h266v47q0 26 -3.5 32t-11.5 9q-15 6 -25 11t-10 18 q0 26 34 26h58q44 0 44 -45v-210q0 -50 -17 -76q31 -1 31 -36q0 -37 -33 -37h-351q-17 -28 -47 -28h-21v302q0 27 -3 34t-11 10q-10 5 -22 9.5t-12 18.5q0 27 34 27h59q41 0 41 -45v-67zM659 84h-266v-87q0 -15 -1 -28h267v115z" />
<glyph unicode="&#xae7b;" d="M66 737h338q21 0 31.5 -16.5t8.5 -34.5q-17 -131 -69 -226.5t-122 -159.5q-27 -25 -50 -12.5t-2 37.5q57 65 98 155.5t48 183.5h-88q-18 -97 -67.5 -181.5t-107.5 -130.5q-31 -24 -49 -9t9 43q55 61 85 131.5t40 146.5h-103q-32 0 -32 37q0 36 32 36zM462 806h87 q42 0 42 -43v-173h80v151q0 28 -7 37t-29 14t-33.5 10.5t-11.5 19.5q0 27 37 27h89q42 0 42 -44v-463q0 -96 -67 -96h-20v273h-80v-114q0 -92 -66 -92h-20v384q0 29 -6.5 37.5t-27.5 14.5t-32.5 12.5t-11.5 19.5q0 25 35 25zM551 207q-9 -35 -32 -73l244 -159 q19 -12 21.5 -32t-6.5 -33q-12 -15 -30.5 -15.5t-39.5 15.5l-226 173q-18 -22 -41 -46q-90 -93 -190 -143q-37 -20 -53.5 -2t15.5 40q85 55 151.5 132t93.5 139q5 10 -7.5 16.5t-30.5 10.5q-25 5 -23 28t28 23h69q40 0 51.5 -22.5t5.5 -51.5z" />
<glyph unicode="&#xae7c;" d="M66 737h338q21 0 31.5 -16.5t8.5 -34.5q-17 -131 -69 -226.5t-122 -159.5q-27 -25 -50 -12.5t-2 37.5q57 65 98 155.5t48 183.5h-88q-18 -97 -67.5 -181.5t-107.5 -130.5q-31 -24 -49 -9t9 43q55 61 85 131.5t40 146.5h-103q-32 0 -32 37q0 36 32 36zM505 697 q0 29 -6.5 37.5t-27.5 14.5t-32.5 12.5t-11.5 19.5q0 25 35 25h87q42 0 42 -43v-173h80v151q0 28 -7 37t-29 14t-33.5 10.5t-11.5 19.5q0 27 37 27h88q43 0 43 -44v-422q0 -96 -68 -96h-19v232h-80v-129q0 -93 -67 -93h-19v400zM409 193q-7 -41 -25 -83l116 -100 q11 16 21 33q49 81 64 152q1 7 -3 12t-19 9q-13 5 -22 10t-9 16q0 27 32 27h66q33 0 42.5 -18t6.5 -47q-6 -50 -30 -100l141 -124q21 -17 24 -35t-9 -32q-11 -13 -30.5 -13t-39.5 21l-119 124q-9 -13 -19 -27q-70 -93 -138 -135q-32 -21 -49 -4t8 38q17 15 35 33l-101 106 l-18 -27q-65 -83 -148 -132q-32 -20 -49.5 -3t8.5 38q66 50 112 122t57 127q2 7 -2 13t-18 10q-16 5 -24 10t-8 17q0 25 33 25h67q31 0 40.5 -18t6.5 -45z" />
<glyph unicode="&#xae7d;" d="M66 737h338q21 0 31.5 -16.5t8.5 -34.5q-17 -131 -69 -226.5t-122 -159.5q-27 -25 -50 -12.5t-2 37.5q57 65 98 155.5t48 183.5h-88q-18 -97 -67.5 -181.5t-107.5 -130.5q-31 -24 -49 -9t9 43q55 61 85 131.5t40 146.5h-103q-32 0 -32 37q0 36 32 36zM505 697 q0 29 -6.5 37.5t-27.5 14.5t-32.5 12.5t-11.5 19.5q0 25 35 25h87q42 0 42 -43v-173h80v151q0 28 -7 37t-29 14t-33.5 10.5t-11.5 19.5q0 27 37 27h88q43 0 43 -44v-438q0 -96 -68 -96h-19v248h-80v-120q0 -92 -67 -92h-19v390zM314 71q0 84 60 141.5t147 57.5t147 -57.5 t60 -141.5t-60 -141.5t-147 -57.5t-147 57.5t-60 141.5zM402 71q0 -56 35.5 -90t83.5 -34t83.5 34t35.5 90t-35.5 90t-83.5 34t-83.5 -34t-35.5 -90z" />
<glyph unicode="&#xae84;" horiz-adv-x="841" d="M66 628q-32 0 -32 37q0 36 32 36h381q22 0 32.5 -16.5t8.5 -33.5q-19 -156 -73 -274t-143 -210q-27 -27 -48.5 -12.5t-2.5 40.5q72 95 114.5 209t51.5 224h-98q-22 -119 -77 -227t-132 -176q-30 -29 -50 -10.5t6 47.5q55 61 103 165.5t59 200.5h-132zM678 -14 q0 -93 -67 -93h-20v846q0 29 -8.5 38t-27.5 14q-20 5 -32.5 11t-12.5 20q0 27 35 27h91q42 0 42 -42v-189h113q35 0 35 -36q0 -37 -35 -37h-113v-183h113q35 0 35 -36q0 -37 -35 -37h-113v-303z" />
<glyph unicode="&#xae85;" horiz-adv-x="841" d="M66 675q-32 0 -32 37q0 36 32 36h381q22 0 32.5 -16.5t8.5 -31.5q-16 -125 -74.5 -226.5t-142.5 -172.5q-28 -25 -49.5 -10.5t-0.5 38.5q63 70 110 160.5t56 185.5h-98q-20 -94 -77 -180t-127 -136q-33 -24 -50 -7t11 44q51 49 95 124.5t57 154.5h-132zM678 370 q0 -94 -67 -94h-20v463q0 29 -8.5 37.5t-27.5 14.5q-20 6 -32.5 11.5t-12.5 19.5q0 27 35 27h91q42 0 42 -43v-117h113q35 0 35 -36q0 -37 -35 -37h-113v-141h113q35 0 35 -36q0 -37 -35 -37h-113v-32zM210 156q-28 0 -28 37q0 36 28 36h423q38 0 38 -44v-213q0 -99 -62 -99 h-24v283h-375z" />
<glyph unicode="&#xae8c;" horiz-adv-x="841" d="M66 685q-32 0 -32 37q0 36 32 36h381q22 0 32.5 -16.5t8.5 -33.5q-15 -111 -74 -202t-143 -155q-29 -23 -50.5 -8t0.5 36q67 66 112 146.5t54 159.5h-96q-21 -79 -76 -152.5t-130 -123.5q-35 -23 -48.5 -4.5t15.5 42.5q53 43 92 105.5t54 132.5h-132zM678 437 q0 -95 -67 -95h-20v397q0 29 -8.5 38t-27.5 14q-20 5 -32.5 11t-12.5 20q0 27 35 27h91q42 0 42 -43v-102h113q35 0 35 -36q0 -37 -35 -37h-113v-110h113q35 0 35 -36q0 -37 -35 -37h-113v-11zM669 -111h-356q-54 0 -54 66v78q0 22 -7.5 30t-20.5 14q-9 3 -15.5 9t-6.5 19 q0 25 27 25h349v96h-323q-32 0 -32 37q0 35 32 35h374q36 0 36 -45v-141q0 -53 -41 -53h-285v-73q0 -25 24 -25h300q31 0 31 -35q0 -37 -32 -37z" />
<glyph unicode="&#xaebc;" horiz-adv-x="785" d="M66 628q-32 0 -32 37q0 36 32 36h386q21 0 32 -16.5t9 -33.5q-11 -79 -29 -148h145v237q0 28 -8 37t-28 14t-32.5 11t-12.5 20q0 27 35 27h91q42 0 42 -42v-821q0 -94 -66 -94h-21v538h-152q-8 0 -15 4q-10 -30 -22 -57q-54 -118 -144 -210q-27 -27 -48.5 -12.5 t-2.5 40.5q72 95 114.5 209t51.5 224h-102q-22 -119 -77.5 -226t-132.5 -175q-30 -29 -49.5 -11.5t6.5 46.5q55 61 103 165.5t59 200.5h-132z" />
<glyph unicode="&#xaebd;" horiz-adv-x="785" d="M289 675q-20 -94 -77 -180t-127 -136q-33 -24 -50 -7t11 44q51 49 95 124.5t57 154.5h-132q-32 0 -32 37q0 36 32 36h386q21 0 32 -16.5t9 -31.5q-10 -72 -33 -135h149v175q0 28 -8 37t-28 14t-32.5 11t-12.5 20q0 27 35 27h90q43 0 43 -43v-438q0 -95 -66 -95h-21v219 h-147q-20 0 -28 13q-7 -16 -16 -32q-59 -101 -143 -172q-28 -25 -49.5 -10.5t-0.5 38.5q63 70 110 160.5t56 185.5h-102zM228 156q-27 0 -27 37q0 36 27 36h423q38 0 38 -44v-213q0 -99 -61 -99h-25v283h-375z" />
<glyph unicode="&#xaebe;" horiz-adv-x="785" d="M289 675q-20 -94 -77 -180t-127 -136q-33 -24 -50 -7t11 44q51 49 95 124.5t57 154.5h-132q-32 0 -32 37q0 36 32 36h386q21 0 32 -16.5t9 -31.5q-10 -72 -33 -135h149v175q0 28 -8 37t-28 14t-32.5 11t-12.5 20q0 27 35 27h90q43 0 43 -43v-438q0 -95 -66 -95h-21v219 h-147q-20 0 -28 13q-7 -16 -16 -32q-59 -101 -143 -172q-28 -25 -49.5 -10.5t-0.5 38.5q63 70 110 160.5t56 185.5h-102zM474 156q-28 0 -28 37q0 36 28 36h182q39 0 39 -44v-213q0 -99 -61 -99h-24v283h-136zM162 156q-28 0 -28 37q0 36 28 36h227q39 0 39 -44v-213 q0 -99 -61 -99h-24v283h-181z" />
<glyph unicode="&#xaec0;" horiz-adv-x="785" d="M66 675q-32 0 -32 37q0 36 32 36h386q21 0 32 -16.5t9 -33.5q-10 -70 -31 -133h147v175q0 28 -8 37t-28 14t-32.5 11t-12.5 20q0 27 35 27h90q43 0 43 -43v-589q0 -94 -66 -94h-21v369h-142q-21 0 -28 13l-20 -40q-59 -105 -144 -179q-28 -25 -49.5 -11t-0.5 39 q63 68 110 167t56 194h-102q-18 -102 -78 -191.5t-126 -140.5q-33 -23 -50 -6t11 43q51 49 96 130.5t56 164.5h-132zM705 -97h-341q-95 0 -95 89v110q0 28 -8.5 37t-28.5 14q-21 7 -28.5 12.5t-7.5 19.5q0 27 31 27h87q42 0 42 -47v-167q0 -21 19 -21h331q32 0 32 -37 t-33 -37z" />
<glyph unicode="&#xaec4;" horiz-adv-x="785" d="M66 685q-32 0 -32 37q0 36 32 36h386q21 0 32 -16.5t9 -33.5q-9 -58 -28 -111h144v143q0 28 -8 37t-28 14t-32.5 11t-12.5 20q0 27 35 27h90q43 0 43 -43v-368q0 -96 -66 -96h-21v183h-144q-20 0 -28 14q-8 -16 -18 -33q-60 -91 -144 -155q-29 -23 -50.5 -8t0.5 36 q67 66 112 146.5t54 159.5h-100q-21 -79 -76 -152.5t-130 -123.5q-35 -23 -48.5 -4.5t15.5 42.5q53 43 92 105.5t54 132.5h-132zM686 -111h-355q-55 0 -55 66v78q0 22 -7.5 30t-19.5 14q-9 3 -16 9t-7 19q0 25 27 25h349v96h-322q-32 0 -32 37q0 35 32 35h373q36 0 36 -45 v-141q0 -53 -41 -53h-284v-73q0 -25 23 -25h300q32 0 32 -35q0 -37 -33 -37z" />
<glyph unicode="&#xaecc;" horiz-adv-x="785" d="M66 675q-32 0 -32 37q0 36 32 36h386q21 0 32 -16.5t9 -33.5q-10 -69 -32 -130h148v172q0 28 -8 37t-28 14t-32.5 11t-12.5 20q0 27 35 27h90q43 0 43 -43v-424q0 -95 -66 -95h-21v208h-146q-21 0 -28 14q-8 -15 -17 -30q-59 -100 -143 -168q-29 -24 -50 -9t0 37 q67 72 112 160.5t54 175.5h-102q-21 -93 -78.5 -174.5t-125.5 -131.5q-33 -24 -50.5 -7t11.5 44q54 50 96 123.5t56 145.5h-132zM361 -31h242v201h-241v-174q0 -14 -1 -27zM646 243q43 0 43 -51v-148q0 -49 -16 -75q29 -2 29 -36q0 -37 -32 -37h-326q-16 -29 -47 -29h-21 v252q0 38 -2.5 49t-18.5 18q-12 5 -21 11.5t-9 18.5q0 27 33 27h388z" />
<glyph unicode="&#xaecd;" horiz-adv-x="785" d="M66 685q-32 0 -32 37q0 36 32 36h386q21 0 32 -16.5t9 -33.5q-9 -60 -29 -116h145v148q0 28 -8 37t-28 14t-32.5 11t-12.5 20q0 27 35 27h90q43 0 43 -43v-381q0 -95 -66 -95h-21v190h-138q-24 0 -31 18q-10 -20 -21 -40q-60 -96 -144 -163q-29 -23 -50 -8t0 38 q68 69 112.5 154.5t53.5 165.5h-102q-19 -81 -73.5 -159t-130.5 -132q-33 -23 -51 -5t10 39q55 45 97.5 115t56.5 142h-132zM362 159h241v49q0 26 -3.5 32t-11.5 9q-16 6 -25.5 11t-9.5 18q0 27 34 27h58q44 0 44 -46v-214q0 -50 -17 -76q30 -1 30 -36q0 -37 -32 -37h-326 q-16 -28 -47 -28h-21v306q0 27 -3 34t-11 11q-10 4 -22 8.5t-12 18.5q0 27 34 27h60q40 0 40 -45v-69zM603 86h-241v-89q0 -15 -1 -28h242v117z" />
<glyph unicode="&#xaecf;" horiz-adv-x="785" d="M66 675q-32 0 -32 37q0 36 32 36h386q21 0 32 -16.5t9 -33.5q-10 -72 -34 -135h150v177q0 28 -8 37t-28 14t-32.5 11t-12.5 20q0 27 35 27h91q42 0 42 -43v-474q0 -95 -66 -95h-21v253h-147q-22 0 -29 16q-7 -14 -15 -27q-59 -100 -143 -168q-29 -24 -50 -9t0 37 q67 72 112 160.5t54 175.5h-102q-21 -93 -78.5 -174.5t-125.5 -131.5q-33 -24 -50.5 -7t11.5 44q54 50 96 123.5t56 145.5h-132zM530 208q-9 -36 -31 -73l228 -159q17 -11 21 -31.5t-6 -33.5q-12 -15 -31 -15t-39 15l-208 170q-18 -22 -39 -45q-85 -91 -179 -141 q-36 -20 -52.5 -2.5t14.5 39.5q84 57 145 134.5t84 137.5q5 10 -7 16.5t-31 10.5q-24 5 -22 28t27 23h69q40 0 52.5 -22.5t4.5 -51.5z" />
<glyph unicode="&#xaed0;" horiz-adv-x="785" d="M66 675q-32 0 -32 37q0 36 32 36h386q21 0 32 -16.5t9 -33.5q-10 -69 -32 -130h148v172q0 28 -8 37t-28 14t-32.5 11t-12.5 20q0 27 35 27h90q43 0 43 -43v-424q0 -95 -66 -95h-21v208h-146q-21 0 -28 14q-8 -15 -17 -30q-59 -100 -143 -168q-29 -24 -50 -9t0 37 q67 72 112 160.5t54 175.5h-102q-21 -93 -78.5 -174.5t-125.5 -131.5q-33 -24 -50.5 -7t11.5 44q54 50 96 123.5t56 145.5h-132zM403 193q-6 -46 -29 -92l105 -91q11 16 22 33q49 81 63 152q1 7 -3 12t-18 9q-14 5 -22.5 10t-8.5 16q0 27 32 27h65q33 0 43 -18t6 -47 q-7 -51 -31 -103l137 -121q21 -17 24.5 -35t-9.5 -32q-11 -13 -30.5 -13t-38.5 21l-116 121q-8 -12 -17 -24q-70 -93 -139 -135q-31 -21 -48 -4t7 38q18 15 35 33l-91 96q-6 -9 -12 -17q-65 -83 -148 -132q-33 -20 -50 -3t9 38q66 50 112 122t57 127q2 7 -2 13t-18 10 q-17 5 -24.5 10t-7.5 17q0 25 33 25h67q31 0 40.5 -18t5.5 -45z" />
<glyph unicode="&#xaed1;" horiz-adv-x="785" d="M66 675q-32 0 -32 37q0 36 32 36h386q21 0 32 -16.5t9 -33.5q-10 -69 -32 -130h148v172q0 28 -8 37t-28 14t-32.5 11t-12.5 20q0 27 35 27h90q43 0 43 -43v-439q0 -95 -66 -95h-21v223h-146q-21 0 -28 14q-8 -15 -17 -30q-59 -100 -143 -168q-29 -24 -50 -9t0 37 q67 72 112 160.5t54 175.5h-102q-21 -93 -78.5 -174.5t-125.5 -131.5q-33 -24 -50.5 -7t11.5 44q54 50 96 123.5t56 145.5h-132zM279 71q0 84 59.5 141.5t146.5 57.5t147 -57.5t60 -141.5t-60 -141.5t-147 -57.5t-146.5 57.5t-59.5 141.5zM367 71q0 -56 35 -90t83 -34 q49 0 84 34t35 90t-35 90t-84 34q-48 0 -83 -34t-35 -90z" />
<glyph unicode="&#xaed8;" d="M66 701h333q21 0 31.5 -16.5t8.5 -33.5q-9 -75 -28 -146h101v193q0 28 -6.5 36.5t-27.5 14.5t-32.5 12.5t-11.5 19.5q0 25 35 25h86q43 0 43 -45v-713q0 -95 -67 -95h-19v480h-101q-13 0 -21 6q-10 -31 -22 -60q-56 -129 -119 -207q-25 -28 -48.5 -15t-4.5 39 q54 84 94 199.5t51 232.5h-82q-23 -129 -75.5 -231.5t-108.5 -171.5q-26 -30 -44.5 -15t3.5 47q42 65 83 168t52 203h-103q-32 0 -32 37q0 36 32 36zM627 849h88q43 0 43 -42v-821q0 -94 -67 -94h-20v848q0 29 -7 38t-29 14t-33.5 10.5t-11.5 19.5q0 27 37 27z" />
<glyph unicode="&#xaed9;" d="M66 737h338q21 0 31.5 -16.5t8.5 -34.5q-9 -70 -28 -132h96v144q0 28 -6.5 36.5t-27.5 14.5t-32.5 12.5t-11.5 19.5q0 25 35 25h87q42 0 42 -45v-383q0 -95 -67 -95h-19v199h-101q-13 0 -20 5q-8 -18 -16 -33q-52 -99 -122 -164q-27 -26 -50 -13t-2 38q57 67 98 161 t48 188h-88q-17 -103 -68 -189t-107 -134q-30 -24 -48 -9t8 44q51 59 84 134.5t41 153.5h-103q-32 0 -32 37q0 36 32 36zM671 740q0 29 -7 38t-29 14t-33.5 10.5t-11.5 19.5q0 27 37 27h87q44 0 44 -43v-438q0 -95 -68 -95h-19v467zM253 156q-28 0 -28 37q0 36 28 36h454 q37 0 37 -44v-213q0 -99 -61 -99h-25v283h-405z" />
<glyph unicode="&#xaedc;" d="M66 729h338q21 0 31.5 -16t8.5 -34q-9 -68 -26 -130h94v149q0 28 -6.5 36.5t-27.5 14.5t-32.5 12.5t-11.5 19.5q0 25 35 25h86q43 0 43 -45v-524q0 -94 -67 -94h-19v334h-121q-7 -19 -16 -35q-52 -105 -122 -169q-27 -27 -50 -13t-2 38q57 68 98 166.5t48 192.5h-88 q-17 -106 -68.5 -197t-106.5 -136q-30 -24 -48 -10t8 45q53 64 85 141t40 157h-103q-32 0 -32 37q0 35 32 35zM627 849h87q44 0 44 -43v-591q0 -94 -68 -94h-19v619q0 29 -7 38t-29 14t-33.5 10.5t-11.5 19.5q0 27 37 27zM743 -97h-371q-94 0 -94 89v110q0 28 -9 37t-28 14 q-22 7 -29.5 12.5t-7.5 19.5q0 27 32 27h87q42 0 42 -47v-167q0 -21 18 -21h361q33 0 33 -37t-34 -37z" />
<glyph unicode="&#xaee8;" d="M66 737h338q21 0 31.5 -16.5t8.5 -34.5q-8 -62 -24 -117h92v129q0 28 -6.5 36.5t-27.5 14.5t-32.5 12.5t-11.5 19.5q0 25 35 25h87q42 0 42 -45v-368q0 -96 -67 -96h-19v199h-101q-10 0 -17 3q-9 -20 -19 -39q-52 -96 -122 -160q-27 -25 -50 -12t-2 38q57 65 98 155 t48 183h-88q-18 -97 -67.5 -181.5t-107.5 -130.5q-31 -24 -49 -9t9 43q55 61 85 131.5t40 146.5h-103q-32 0 -32 37q0 36 32 36zM627 849h87q44 0 44 -43v-424q0 -95 -68 -95h-19v453q0 29 -7 38t-29 14t-33.5 10.5t-11.5 19.5q0 27 37 27zM387 -31h272v201h-271v-174 q0 -14 -1 -27zM702 243q43 0 43 -51v-148q0 -49 -16 -75q30 -2 30 -36q0 -37 -33 -37h-356q-17 -29 -47 -29h-21v252q0 38 -2.5 49t-18.5 18q-13 5 -21.5 11.5t-8.5 18.5q0 27 33 27h418z" />
<glyph unicode="&#xaeeb;" d="M66 737h338q21 0 31.5 -16.5t8.5 -34.5q-9 -71 -29 -132h97v144q0 28 -6.5 36.5t-27.5 14.5t-32.5 12.5t-11.5 19.5q0 25 35 25h86q43 0 43 -45v-353q0 -95 -67 -95h-19v169h-104q-12 0 -20 4q-6 -14 -13 -26q-52 -96 -122 -160q-27 -25 -50 -12t-2 38q57 65 98 155 t48 183h-88q-18 -97 -67.5 -181.5t-107.5 -130.5q-31 -24 -49 -9t9 43q55 61 85 131.5t40 146.5h-103q-32 0 -32 37q0 36 32 36zM627 849h87q44 0 44 -43v-465q0 -95 -68 -95h-19v494q0 29 -7 38t-29 14t-33.5 10.5t-11.5 19.5q0 27 37 27zM551 207q-9 -35 -32 -73l244 -159 q19 -12 21.5 -32t-6.5 -33q-12 -15 -30.5 -15.5t-39.5 15.5l-226 173q-18 -22 -41 -46q-90 -93 -190 -143q-37 -20 -53.5 -2t15.5 40q85 55 151.5 132t93.5 139q5 10 -7.5 16.5t-30.5 10.5q-25 5 -23 28t28 23h69q40 0 51.5 -22.5t5.5 -51.5z" />
<glyph unicode="&#xaeed;" d="M66 737h338q21 0 31.5 -16.5t8.5 -34.5q-8 -62 -24 -117h92v129q0 28 -6.5 36.5t-27.5 14.5t-32.5 12.5t-11.5 19.5q0 25 35 25h87q42 0 42 -45v-359q0 -95 -67 -95h-19v189h-101q-10 0 -17 3q-9 -20 -19 -39q-52 -96 -122 -160q-27 -25 -50 -12t-2 38q57 65 98 155 t48 183h-88q-18 -97 -67.5 -181.5t-107.5 -130.5q-31 -24 -49 -9t9 43q55 61 85 131.5t40 146.5h-103q-32 0 -32 37q0 36 32 36zM627 849h87q44 0 44 -43v-440q0 -95 -68 -95h-19v469q0 29 -7 38t-29 14t-33.5 10.5t-11.5 19.5q0 27 37 27zM314 71q0 84 60 141.5t147 57.5 t147 -57.5t60 -141.5t-60 -141.5t-147 -57.5t-147 57.5t-60 141.5zM402 71q0 -56 35.5 -90t83.5 -34t83.5 34t35.5 90t-35.5 90t-83.5 34t-83.5 -34t-35.5 -90z" />
<glyph unicode="&#xaef4;" horiz-adv-x="785" d="M66 628q-32 0 -32 37q0 36 32 36h386q21 0 32 -16.5t9 -33.5q-3 -19 -6 -37h122v125q0 29 -8 38t-28 14t-32.5 11t-12.5 20q0 27 35 27h90q43 0 43 -42v-821q0 -94 -66 -94h-21v419h-141q-33 0 -33 37q0 34 33 34h141v160h-135q-20 -90 -54 -165q-54 -118 -144 -210 q-27 -27 -48.5 -12.5t-2.5 40.5q72 95 114.5 209t51.5 224h-102q-22 -119 -77.5 -226t-132.5 -175q-30 -29 -49.5 -11.5t6.5 46.5q55 61 103 165.5t59 200.5h-132z" />
<glyph unicode="&#xaef8;" horiz-adv-x="785" d="M66 675q-32 0 -32 37q0 36 32 36h386q21 0 32 -16.5t9 -33.5q-3 -19 -6 -36h122v77q0 29 -8 38t-28 14t-32.5 11t-12.5 20q0 27 35 27h90q43 0 43 -43v-589q0 -94 -66 -94h-21v248h-138q-33 0 -33 37q0 35 33 35h138v147h-139q-19 -66 -51 -125q-59 -105 -144 -179 q-28 -25 -49.5 -11t-0.5 39q63 68 110 167t56 194h-102q-18 -102 -78 -191.5t-126 -140.5q-33 -23 -50 -6t11 43q51 49 96 130.5t56 164.5h-132zM705 -97h-341q-95 0 -95 89v110q0 28 -8.5 37t-28.5 14q-21 7 -28.5 12.5t-7.5 19.5q0 27 31 27h87q42 0 42 -47v-167 q0 -21 19 -21h331q32 0 32 -37t-33 -37z" />
<glyph unicode="&#xaefc;" horiz-adv-x="785" d="M66 685q-32 0 -32 37q0 36 32 36h386q21 0 32 -16.5t9 -33.5q-3 -15 -6 -31h122v62q0 29 -8 38t-28 14t-32.5 11t-12.5 20q0 27 35 27h90q43 0 43 -43v-368q0 -96 -66 -96h-21v85h-138q-33 0 -33 37q0 35 33 35h138v107h-141q-19 -53 -49 -100q-60 -91 -144 -155 q-29 -23 -50.5 -8t0.5 36q67 66 112 146.5t54 159.5h-100q-21 -79 -76 -152.5t-130 -123.5q-35 -23 -48.5 -4.5t15.5 42.5q53 43 92 105.5t54 132.5h-132zM686 -111h-355q-55 0 -55 66v78q0 22 -7.5 30t-19.5 14q-9 3 -16 9t-7 19q0 25 27 25h349v96h-322q-32 0 -32 37 q0 35 32 35h373q36 0 36 -45v-141q0 -53 -41 -53h-284v-73q0 -25 23 -25h300q32 0 32 -35q0 -37 -33 -37z" />
<glyph unicode="&#xaf07;" horiz-adv-x="785" d="M66 675q-32 0 -32 37q0 36 32 36h386q21 0 32 -16.5t9 -33.5q-3 -14 -5 -26h121v67q0 29 -8 38t-28 14t-32.5 11t-12.5 20q0 27 35 27h91q42 0 42 -43v-474q0 -95 -66 -95h-21v165h-138q-33 0 -33 37q0 34 33 34h138v127h-138q-19 -64 -53 -121q-59 -100 -143 -168 q-29 -24 -50 -9t0 37q67 72 112 160.5t54 175.5h-102q-21 -93 -78.5 -174.5t-125.5 -131.5q-33 -24 -50.5 -7t11.5 44q54 50 96 123.5t56 145.5h-132zM530 208q-9 -36 -31 -73l228 -159q17 -11 21 -31.5t-6 -33.5q-12 -15 -31 -15t-39 15l-208 170q-18 -22 -39 -45 q-85 -91 -179 -141q-36 -20 -52.5 -2.5t14.5 39.5q84 57 145 134.5t84 137.5q5 10 -7 16.5t-31 10.5q-24 5 -22 28t27 23h69q40 0 52.5 -22.5t4.5 -51.5z" />
<glyph unicode="&#xaf08;" horiz-adv-x="785" d="M66 675q-32 0 -32 37q0 36 32 36h386q21 0 32 -16.5t9 -33.5q-3 -14 -5 -26h121v67q0 29 -8 38t-28 14t-32.5 11t-12.5 20q0 27 35 27h90q43 0 43 -43v-424q0 -95 -66 -95h-21v115h-138q-33 0 -33 37q0 34 33 34h138v127h-138q-19 -64 -53 -121q-59 -100 -143 -168 q-29 -24 -50 -9t0 37q67 72 112 160.5t54 175.5h-102q-21 -93 -78.5 -174.5t-125.5 -131.5q-33 -24 -50.5 -7t11.5 44q54 50 96 123.5t56 145.5h-132zM403 193q-6 -46 -29 -92l105 -91q11 16 22 33q49 81 63 152q1 7 -3 12t-18 9q-14 5 -22.5 10t-8.5 16q0 27 32 27h65 q33 0 43 -18t6 -47q-7 -51 -31 -103l137 -121q21 -17 24.5 -35t-9.5 -32q-11 -13 -30.5 -13t-38.5 21l-116 121q-8 -12 -17 -24q-70 -93 -139 -135q-31 -21 -48 -4t7 38q18 15 35 33l-91 96q-6 -9 -12 -17q-65 -83 -148 -132q-33 -20 -50 -3t9 38q66 50 112 122t57 127 q2 7 -2 13t-18 10q-17 5 -24.5 10t-7.5 17q0 25 33 25h67q31 0 40.5 -18t5.5 -45z" />
<glyph unicode="&#xaf0d;" horiz-adv-x="785" d="M66 685q-32 0 -32 37q0 36 32 36h386q21 0 32 -16.5t9 -33.5q-3 -15 -6 -31h122v62q0 29 -8 38t-28 14t-32.5 11t-12.5 20q0 27 35 27h90q43 0 43 -43v-368q0 -96 -66 -96h-21v85h-138q-33 0 -33 37q0 35 33 35h138v107h-141q-19 -53 -49 -100q-60 -91 -144 -155 q-29 -23 -50.5 -8t0.5 36q67 66 112 146.5t54 159.5h-100q-21 -79 -76 -152.5t-130 -123.5q-35 -23 -48.5 -4.5t15.5 42.5q53 43 92 105.5t54 132.5h-132zM656 130q33 0 33 -35q0 -36 -33 -36h-292v-71q0 -27 24 -27h287q32 0 32 -35q0 -37 -33 -37h-337q-61 0 -61 67v223 q0 33 -3 44t-22 18q-11 5 -19.5 11.5t-8.5 19.5q0 26 27 26h416q32 0 32 -36t-31 -36h-303v-96h292z" />
<glyph unicode="&#xaf10;" d="M66 701h333q21 0 31.5 -16.5t8.5 -33.5q-3 -25 -7 -48h83v94q0 29 -6.5 37.5t-27.5 14.5t-32.5 12.5t-11.5 19.5q0 25 35 25h85q43 0 43 -45v-713q0 -95 -68 -95h-17v360h-94q-33 0 -33 36q0 35 33 35h94v147h-97q-20 -79 -50 -152q-56 -129 -119 -207q-25 -28 -48.5 -15 t-4.5 39q54 84 94 199.5t51 232.5h-82q-23 -129 -75.5 -231.5t-108.5 -171.5q-26 -30 -44.5 -15t3.5 47q42 65 83 168t52 203h-103q-32 0 -32 37q0 36 32 36zM627 849h88q43 0 43 -42v-821q0 -94 -67 -94h-20v848q0 29 -7 38t-29 14t-33.5 10.5t-11.5 19.5q0 27 37 27z" />
<glyph unicode="&#xaf2c;" d="M126 670q-33 0 -33 37q0 36 33 36h209q43 0 43 -53q-1 -99 -24 -243q5 1 13 1h75q42 0 42 -46v-281h288q35 0 35 -36t-35 -36h-720q-30 0 -30 36t30 36h346v220q0 26 -4.5 34.5t-22.5 15.5q-16 5 -25 10q-19 -112 -37 -148q-6 -15 -17.5 -20t-25.5 -2q-14 5 -15.5 15.5 t1.5 26.5q14 69 24.5 182.5t10.5 214.5h-161zM430 670q-32 0 -32 37q0 36 32 36h204q45 0 45 -50q0 -86 -14 -235.5t-36 -204.5q-6 -13 -17.5 -20t-25.5 -3q-15 5 -17 15.5t1 26.5q15 65 16.5 194t0.5 204h-157z" />
<glyph unicode="&#xaf2d;" d="M126 726q-33 0 -33 37q0 36 33 36h209q44 0 43 -53q-1 -78 -25 -159q-1 -5 -3 -10q7 2 17 2h75q42 0 42 -47v-138h288q35 0 35 -36q0 -37 -35 -37h-720q-30 0 -30 37q0 36 30 36h346v78q0 26 -4.5 34.5t-22.5 15.5q-20 6 -30 13q-2 1 -3 2q-15 -45 -29 -73 q-6 -15 -17.5 -20t-25.5 -2q-14 5 -16.5 16t2.5 27q14 36 24.5 98.5t10.5 142.5h-161zM430 726q-32 0 -32 37q0 36 32 36h204q45 0 45 -51q0 -45 -11 -137.5t-31 -146.5q-6 -13 -17.5 -20t-25.5 -3q-14 5 -15.5 15.5t0.5 26.5q11 70 10 119.5t-2 123.5h-157zM174 150 q-28 0 -28 37q0 36 28 36h436q38 0 38 -44v-207q0 -99 -61 -99h-25v277h-388z" />
<glyph unicode="&#xaf30;" d="M126 708q-33 0 -33 37q0 36 33 36h209q44 0 43 -54q-1 -85 -26 -174l-4 -12q7 2 19 2h75q42 0 42 -47v-153h288q35 0 35 -35q0 -37 -35 -37h-720q-30 0 -30 37q0 35 30 35h346v94q0 25 -4.5 34t-22.5 15q-20 6 -30 13q-2 1 -4 3q-16 -50 -30 -77q-6 -15 -17.5 -20 t-25.5 -2q-14 5 -16.5 15.5t2.5 26.5q14 43 25.5 109.5t11.5 153.5h-161zM430 708q-32 0 -32 37q0 36 32 36h204q45 0 45 -52q0 -45 -11 -147t-33 -157q-6 -13 -17.5 -20t-25.5 -3q-14 5 -16 15.5t1 26.5q11 83 11 136t-1 128h-157zM638 -97h-353q-95 0 -95 89v99 q0 28 -9.5 37t-26.5 14q-23 7 -31 12.5t-8 18.5q0 28 32 28h87q44 0 44 -47v-156q0 -21 18 -21h343q33 0 33 -37t-34 -37z" />
<glyph unicode="&#xaf32;" d="M126 734q-33 0 -33 36t33 36h209q44 0 43 -53q-1 -80 -24 -155q0 -2 -1 -3q6 1 14 1h75q42 0 42 -47v-130h288q35 0 35 -36t-35 -36h-720q-30 0 -30 36t30 36h346v71q0 25 -4.5 34t-22.5 15q-20 6 -30 13q-1 0 -2 1q-14 -42 -30 -67q-7 -13 -17.5 -20t-25.5 -2 q-14 5 -16.5 16.5t2.5 26.5q16 38 25.5 97t9.5 130h-161zM430 734q-32 0 -32 36t32 36h204q45 0 45 -51q0 -45 -11 -130t-31 -138q-6 -14 -17.5 -21t-25.5 -3q-14 5 -15.5 16t0.5 26q10 75 9.5 115.5t-1.5 113.5h-157zM474 233l-29 23q-10 11 -12 22t6 23q10 11 23 10t22 -6 q38 -18 65.5 -22.5t71.5 -4.5q34 0 34 -36q0 -16 -11 -26t-28 -10l-71 1q-40 0 -71 26zM386 -111h-136q-96 0 -96 89v171q0 29 -9 37.5t-28 13.5q-22 7 -29.5 13t-7.5 19q0 27 32 27h87q42 0 42 -47v-228q0 -21 18 -21h129q33 0 33 -37t-35 -37zM725 98h-45q28 -33 28 -79 q0 -61 -43.5 -102.5t-106.5 -41.5q-62 0 -105.5 41.5t-43.5 102.5q0 46 27 79h-53q-34 0 -34 33q0 35 34 35h342q34 0 34 -35q0 -33 -34 -33zM493 19q0 -34 21 -55.5t44 -21.5q24 0 45 21.5t21 55.5t-21 55.5t-45 21.5q-23 0 -44 -21.5t-21 -55.5z" />
<glyph unicode="&#xaf34;" d="M126 734q-33 0 -33 36t33 36h209q44 0 43 -53q-1 -72 -24 -140v-1q5 1 13 1h75q42 0 42 -47v-123h288q35 0 35 -36q0 -37 -35 -37h-720q-30 0 -30 37q0 36 30 36h346v63q0 26 -4.5 34.5t-22.5 14.5q-20 7 -30 14q-1 0 -2 1q-15 -39 -30 -62q-8 -14 -18 -20.5t-25 -1.5 q-14 5 -16.5 16t2.5 27q16 39 25.5 90.5t9.5 114.5h-161zM430 734q-32 0 -32 36t32 36h204q45 0 45 -51q0 -45 -11 -119t-31 -128q-6 -13 -17.5 -20t-25.5 -3q-14 5 -15.5 15.5t0.5 26.5q9 68 9 104.5t-1 102.5h-157zM194 221q-32 0 -32 34q0 37 32 37h424q36 0 36 -45v-137 q0 -53 -40 -53h-336v-71q0 -25 23 -25h352q32 0 32 -36t-33 -36h-398q-64 0 -64 76v65q0 23 -6 30.5t-20 12.5q-8 4 -17 9.5t-9 19.5q0 26 28 26h401v93h-373z" />
<glyph unicode="&#xaf3c;" d="M126 726q-33 0 -33 37q0 36 33 36h209q44 0 43 -53q-1 -71 -24 -154l-2 -8q6 1 15 1h75q42 0 42 -47v-139h288q35 0 35 -36q0 -37 -35 -37h-720q-30 0 -30 37q0 36 30 36h346v80q0 25 -4.5 34t-22.5 15q-20 6 -30 13q-1 0 -2 1q-14 -46 -30 -74q-7 -14 -17.5 -19 t-25.5 -2q-14 5 -16.5 15.5t2.5 26.5q16 44 25.5 103t9.5 134h-161zM430 726q-32 0 -32 37q0 36 32 36h204q45 0 45 -51q0 -45 -11 -135t-31 -144q-6 -13 -17.5 -20t-25.5 -3q-14 5 -15.5 15.5t0.5 26.5q11 75 10 120.5t-2 117.5h-157zM278 -31h287v192h-286v-165 q0 -14 -1 -27zM608 234q43 0 43 -50v-140q0 -49 -16 -75q30 -2 30 -36q0 -37 -33 -37h-372q-16 -29 -47 -29h-20v244q0 37 -3 47.5t-19 18.5q-12 5 -21 11.5t-9 18.5q0 27 33 27h434z" />
<glyph unicode="&#xaf3d;" d="M126 734q-33 0 -33 36t33 36h209q44 0 43 -53q-1 -80 -24 -155q0 -2 -1 -3q6 1 14 1h75q42 0 42 -47v-130h288q35 0 35 -36t-35 -36h-720q-30 0 -30 36t30 36h346v71q0 25 -4.5 34t-22.5 15q-20 6 -30 13q-1 0 -2 1q-14 -42 -30 -67q-7 -13 -17.5 -20t-25.5 -2 q-14 5 -16.5 16.5t2.5 26.5q16 38 25.5 97t9.5 130h-161zM430 734q-32 0 -32 36t32 36h204q45 0 45 -51q0 -45 -11 -130t-31 -138q-6 -14 -17.5 -21t-25.5 -3q-14 5 -15.5 16t0.5 26q10 75 9.5 115.5t-1.5 113.5h-157zM632 -104h-372q-16 -28 -47 -28h-20v315 q0 26 -3.5 33.5t-11.5 10.5q-10 4 -22 8.5t-12 18.5q0 27 34 27h60q41 0 41 -45v-79h286v43q0 26 -3.5 32t-11.5 9q-15 6 -25 10.5t-10 18.5q0 26 34 26h58q44 0 44 -45v-206q0 -50 -17 -76q31 -1 31 -36q0 -37 -33 -37zM278 -31h287v115h-286v-87q0 -15 -1 -28z" />
<glyph unicode="&#xaf3f;" d="M126 726q-33 0 -33 37q0 36 33 36h209q44 0 43 -53q-1 -71 -24 -154l-2 -8q6 1 15 1h75q42 0 42 -47v-139h288q35 0 35 -36q0 -37 -35 -37h-720q-30 0 -30 37q0 36 30 36h346v80q0 25 -4.5 34t-22.5 15q-20 6 -30 13q-1 0 -2 1q-14 -46 -30 -74q-7 -14 -17.5 -19 t-25.5 -2q-14 5 -16.5 15.5t2.5 26.5q16 44 25.5 103t9.5 134h-161zM430 726q-32 0 -32 37q0 36 32 36h204q45 0 45 -51q0 -45 -11 -135t-31 -144q-6 -13 -17.5 -20t-25.5 -3q-14 5 -15.5 15.5t0.5 26.5q11 75 10 120.5t-2 117.5h-157zM474 197q-10 -39 -38 -81l258 -144 q22 -12 26 -33t-9 -35t-30 -14t-40 15l-241 164q-12 -14 -26 -29q-83 -86 -191 -148q-39 -23 -53 -2t11 39q86 56 153.5 134t86.5 129q4 11 -9 17.5t-28 10.5q-26 5 -23.5 28t27.5 23h69q40 0 51.5 -22.5t5.5 -51.5z" />
<glyph unicode="&#xaf41;" d="M126 726q-33 0 -33 37q0 36 33 36h209q44 0 43 -53q-1 -71 -24 -154l-2 -8q6 1 15 1h75q42 0 42 -47v-137h288q35 0 35 -36q0 -37 -35 -37h-720q-30 0 -30 37q0 36 30 36h346v78q0 25 -4.5 34t-22.5 15q-20 6 -30 13q-1 0 -2 1q-14 -46 -30 -74q-7 -14 -17.5 -19 t-25.5 -2q-14 5 -16.5 15.5t2.5 26.5q16 44 25.5 103t9.5 134h-161zM430 726q-32 0 -32 37q0 36 32 36h204q45 0 45 -51q0 -45 -11 -135t-31 -144q-6 -13 -17.5 -20t-25.5 -3q-14 5 -15.5 15.5t0.5 26.5q11 75 10 120.5t-2 117.5h-157zM198 67q0 81 63.5 138t152.5 57 t152.5 -57t63.5 -138t-63.5 -138t-152.5 -57t-152.5 57t-63.5 138zM286 67q0 -49 37 -84.5t91 -35.5q53 0 90.5 35.5t37.5 84.5t-37.5 84.5t-90.5 35.5q-54 0 -91 -35.5t-37 -84.5z" />
<glyph unicode="&#xaf42;" d="M126 726q-33 0 -33 37q0 36 33 36h209q44 0 43 -53q-1 -71 -24 -154l-2 -8q6 1 15 1h75q42 0 42 -47v-139h288q35 0 35 -36q0 -37 -35 -37h-720q-30 0 -30 37q0 36 30 36h346v80q0 25 -4.5 34t-22.5 15q-20 6 -30 13q-1 0 -2 1q-14 -46 -30 -74q-7 -14 -17.5 -19 t-25.5 -2q-14 5 -16.5 15.5t2.5 26.5q16 44 25.5 103t9.5 134h-161zM430 726q-32 0 -32 37q0 36 32 36h204q45 0 45 -51q0 -45 -11 -135t-31 -144q-6 -13 -17.5 -20t-25.5 -3q-14 5 -15.5 15.5t0.5 26.5q11 75 10 120.5t-2 117.5h-157zM204 161q-31 0 -31 37q0 36 32 36h374 q32 0 47.5 -19.5t5.5 -49.5q-22 -55 -121 -123l195 -71q46 -18 27.5 -56t-68.5 -15l-221 100q-133 -76 -280 -113q-33 -8 -41 17.5t20 34.5q79 25 194.5 89.5t182.5 132.5h-316z" />
<glyph unicode="&#xaf43;" d="M126 734q-33 0 -33 36t33 36h209q44 0 43 -53q-1 -72 -24 -140v-1q5 1 13 1h75q42 0 42 -47v-123h288q35 0 35 -36q0 -37 -35 -37h-720q-30 0 -30 37q0 36 30 36h346v63q0 26 -4.5 34.5t-22.5 14.5q-20 7 -30 14q-1 0 -2 1q-15 -39 -30 -62q-8 -14 -18 -20.5t-25 -1.5 q-14 5 -16.5 16t2.5 27q16 39 25.5 90.5t9.5 114.5h-161zM430 734q-32 0 -32 36t32 36h204q45 0 45 -51q0 -45 -11 -119t-31 -128q-6 -13 -17.5 -20t-25.5 -3q-14 5 -15.5 15.5t0.5 26.5q9 68 9 104.5t-1 102.5h-157zM308 251l-28 24q-11 10 -13 21.5t6 23.5q10 10 23 9 t22 -6q38 -17 96 -22t102 -5q35 0 35 -35q0 -17 -11.5 -26.5t-27.5 -9.5l-108 1q-65 0 -96 25zM736 -94q-7 -13 -24 -16.5t-37 3.5l-234 83q-119 -56 -253 -88q-56 -13 -61.5 12.5t33.5 37.5q113 35 203 81.5t146 90.5h-304q-31 0 -31 36t32 36h380q36 0 48.5 -23t-2.5 -47 q-28 -46 -114 -96l191 -52q23 -8 28.5 -24.5t-1.5 -33.5z" />
<glyph unicode="&#xaf48;" horiz-adv-x="841" d="M62 643q-32 0 -32 37q0 36 33 36h144q43 0 43 -50q0 -92 -18 -198h71q42 0 42 -47v-228q50 0 87 2q43 1 88 9q37 7 43 -13t-14 -33q-25 -16 -83 -27t-144 -11h-278q-31 0 -31 37q0 36 31 36h214v167q0 30 -4.5 37.5t-23.5 13.5q-4 1 -8 3q-14 -72 -28 -108 q-7 -15 -17 -20.5t-24 -2.5q-15 5 -19 16t0 26q12 48 19 135.5t6 182.5h-97zM292 643q-32 0 -32 37q0 36 32 36h163q45 0 45 -50q0 -83 -11 -189t-31 -170q-5 -15 -15.5 -22t-24.5 -3q-15 5 -18 15.5t-1 26.5q10 76 10 155t-1 164h-116zM591 739q0 29 -8.5 38t-27.5 14 q-20 5 -32.5 11t-12.5 20q0 27 35 27h91q42 0 42 -42v-318h116q32 0 32 -38q0 -37 -32 -37h-116v-429q0 -92 -67 -92h-20v846z" />
<glyph unicode="&#xaf49;" horiz-adv-x="841" d="M68 710q-33 0 -33 37q0 36 34 36h143q43 0 43 -50q0 -79 -17 -161q-2 -9 -5 -17h76q42 0 42 -48v-158q46 0 80 2q43 1 88 9q37 7 43 -13t-14 -33q-25 -17 -83 -27.5t-144 -10.5h-277q-31 0 -31 37q0 36 31 36h220v98q0 30 -4.5 37.5t-22.5 13.5l-17 6q-11 -36 -23 -60 q-7 -15 -16 -21t-23 -2q-15 5 -19 16t0 26q13 45 19.5 109t5.5 138h-96zM297 710q-32 0 -32 37q0 36 32 36h163q45 0 45 -50q0 -83 -12 -164t-30 -125q-6 -14 -16 -21t-24 -3q-14 5 -17.5 15.5t-1.5 26.5q10 76 10 129.5t-1 118.5h-116zM591 739q0 29 -8.5 38t-27.5 14 q-20 5 -32.5 11t-12.5 20q0 27 35 27h91q42 0 42 -42v-241h116q32 0 32 -38q0 -37 -32 -37h-116v-170q0 -92 -67 -92h-20v510zM232 122q-27 0 -27 37q0 36 27 36h402q38 0 38 -44v-179q0 -99 -62 -99h-24v249h-354z" />
<glyph unicode="&#xaf50;" horiz-adv-x="841" d="M68 713q-33 0 -33 37q0 36 34 36h143q43 0 43 -50q0 -80 -17 -150l-4 -10h75q42 0 42 -48v-128q46 0 80 2q43 1 88 9q37 7 43 -13t-14 -33q-25 -16 -83 -27t-144 -11h-277q-31 0 -31 37q0 36 31 36h220v67q0 30 -4.5 37.5t-22.5 14.5q-10 3 -18 6q-11 -30 -22 -54 q-7 -14 -16 -20t-23 -2q-15 5 -19 16t0 25q13 44 19.5 102t5.5 121h-96zM297 713q-32 0 -32 37q0 36 32 36h163q45 0 45 -50q0 -83 -12 -152t-30 -113q-6 -13 -16 -20t-24 -3q-14 5 -17.5 15t-1.5 27q10 57 10 107.5t-1 115.5h-116zM591 739q0 29 -8.5 38t-27.5 14 q-20 5 -32.5 11t-12.5 20q0 27 35 27h91q42 0 42 -42v-211h116q32 0 32 -38q0 -36 -32 -36h-116v-129q0 -93 -67 -93h-20v439zM669 -111h-366q-54 0 -54 66v62q0 21 -8 29.5t-20 14.5q-9 3 -15.5 8.5t-6.5 18.5q0 26 26 26h360v79h-333q-32 0 -32 36t32 36h384q36 0 36 -45 v-123q0 -54 -41 -54h-295v-57q0 -25 23 -25h311q31 0 31 -35q0 -37 -32 -37z" />
<glyph unicode="&#xaf5c;" horiz-adv-x="841" d="M68 710q-33 0 -33 37q0 36 34 36h143q43 0 43 -50q0 -79 -17 -156l-1 -1h72q42 0 42 -48v-159q46 0 80 2q43 1 88 9q37 7 43 -12.5t-14 -33.5q-25 -16 -83 -27t-144 -11h-277q-31 0 -31 37q0 36 31 36h220v98q0 30 -4.5 37.5t-22.5 14.5q-8 2 -14 5q-12 -41 -26 -70 q-7 -14 -16 -20.5t-23 -1.5q-15 5 -19 15.5t0 25.5q13 46 19.5 104.5t5.5 132.5h-96zM297 710q-32 0 -32 37q0 36 32 36h163q45 0 45 -50q0 -83 -12 -159t-30 -120q-6 -13 -16 -20.5t-24 -3.5q-14 6 -17.5 16t-1.5 26q10 76 10 124.5t-1 113.5h-116zM591 739q0 29 -8.5 38 t-27.5 14q-20 5 -32.5 11t-12.5 20q0 27 35 27h91q42 0 42 -42v-231h116q32 0 32 -38q0 -37 -32 -37h-116v-160q0 -92 -67 -92h-20v490zM370 172q-3 -35 -21 -72l104 -86q3 4 6 9q48 70 68 144q1 7 -3 12.5t-18 9.5q-13 4 -22 9t-9 16q0 27 32 27h63q33 0 43.5 -18t6.5 -46 q-7 -38 -25 -78l141 -114q21 -16 24 -35t-11 -35q-14 -15 -34.5 -14.5t-34.5 14.5l-120 123q-8 -12 -17 -24q-66 -85 -132 -131q-14 -9 -26.5 -9t-20.5 9q-8 7 -7.5 16t12.5 18q17 15 35 35l-89 91q-7 -10 -15 -19q-62 -78 -135 -128q-15 -10 -28.5 -6.5t-19.5 12.5 q-3 9 -1 16.5t13 16.5q45 38 89.5 100t57.5 124q3 7 -1.5 13.5t-18.5 10.5q-16 5 -24 9.5t-8 16.5q0 26 33 26h67q30 0 39 -18.5t7 -44.5z" />
<glyph unicode="&#xaf5d;" horiz-adv-x="841" d="M68 710q-33 0 -33 37q0 36 34 36h143q43 0 43 -50q0 -79 -17 -156l-1 -1h72q42 0 42 -48v-159q46 0 80 2q43 1 88 9q37 7 43 -12.5t-14 -33.5q-25 -16 -83 -27t-144 -11h-277q-31 0 -31 37q0 36 31 36h220v98q0 30 -4.5 37.5t-22.5 14.5q-8 2 -14 5q-12 -41 -26 -70 q-7 -14 -16 -20.5t-23 -1.5q-15 5 -19 15.5t0 25.5q13 46 19.5 104.5t5.5 132.5h-96zM297 710q-32 0 -32 37q0 36 32 36h163q45 0 45 -50q0 -83 -12 -159t-30 -120q-6 -13 -16 -20.5t-24 -3.5q-14 6 -17.5 16t-1.5 26q10 76 10 124.5t-1 113.5h-116zM591 739q0 29 -8.5 38 t-27.5 14q-20 5 -32.5 11t-12.5 20q0 27 35 27h91q42 0 42 -42v-231h116q32 0 32 -38q0 -37 -32 -37h-116v-180q0 -92 -67 -92h-20v510zM266 56q0 75 57.5 129t143.5 54q88 0 146.5 -54t58.5 -129q0 -76 -58.5 -130t-146.5 -54q-86 0 -143.5 54t-57.5 130zM354 56 q0 -45 32.5 -77t80.5 -32q50 0 83.5 32t33.5 77t-33.5 76.5t-83.5 31.5q-48 0 -80.5 -31.5t-32.5 -76.5z" />
<glyph unicode="&#xaf64;" d="M53 637q-33 0 -33 37q0 36 34 36h130q44 0 44 -50q0 -94 -18 -192h57q42 0 42 -48v-226q21 0 38 1q43 1 88 9q37 7 43 -13t-14 -33q-25 -16 -83 -27t-144 -11h-192q-32 0 -32 37q0 36 31 36h179v167q0 30 -6 38q-5 7 -19 11q-14 -55 -27 -89q-6 -14 -15.5 -20.5 t-23.5 -2.5q-14 5 -17.5 15.5t-0.5 26.5q12 50 20.5 129t6.5 169h-88zM270 637q-31 0 -31 37q0 36 32 36h128q46 0 46 -50q0 -83 -10.5 -179t-31.5 -160q-5 -14 -14.5 -21.5t-23.5 -3.5q-15 5 -18 15.5t-1 26.5q9 56 11 126.5t1 172.5h-88zM671 741q0 28 -7 37t-29 14 t-33.5 10.5t-11.5 19.5q0 27 37 27h88q43 0 43 -42v-821q0 -94 -68 -94h-19v503h-81v-350q0 -92 -67 -92h-19v744q0 29 -7 37.5t-27 14.5q-21 6 -32.5 12.5t-11.5 19.5q0 25 35 25h87q42 0 42 -43v-297h81v275z" />
<glyph unicode="&#xaf65;" d="M53 684q-33 0 -33 37q0 36 34 36h130q44 0 44 -50q0 -80 -12 -140h51q42 0 42 -46v-178q25 1 44 2q43 2 88 10q37 7 43 -13t-14 -33q-25 -17 -83 -27.5t-144 -10.5h-198q-32 0 -32 37q0 35 31 35h179v117q0 28 -4 39q-4 8 -17 13q-15 -47 -32 -84q-6 -13 -15.5 -19.5 t-23.5 -2.5q-14 5 -17.5 16t0.5 26q12 44 18.5 106t5.5 130h-85zM270 684q-31 0 -31 37q0 36 32 36h128q46 0 46 -50q0 -83 -10.5 -155.5t-32.5 -124.5q-5 -12 -14.5 -18.5t-23.5 -2.5q-15 5 -18 15.5t0 25.5q9 48 9.5 97t-0.5 140h-85zM671 741q0 28 -7 37t-29 14 t-33.5 10.5t-11.5 19.5q0 27 37 27h88q43 0 43 -43v-472q0 -95 -68 -95h-19v244h-75v-142q0 -92 -67 -92h-19v448q0 29 -6.5 37.5t-27.5 14.5t-32.5 12.5t-11.5 19.5q0 25 35 25h87q42 0 42 -43v-209h75v187zM275 122q-27 0 -27 37q0 36 27 36h433q37 0 37 -44v-179 q0 -99 -61 -99h-25v249h-384z" />
<glyph unicode="&#xaf79;" d="M53 684q-33 0 -33 37q0 36 34 36h130q44 0 44 -50q0 -82 -13 -140h52q42 0 42 -46v-178q25 1 44 2q43 2 88 10q37 7 43 -13t-14 -33q-25 -17 -83 -27.5t-144 -10.5h-198q-32 0 -32 37q0 35 31 35h179v117q0 28 -4 39q-4 8 -19 13q-14 -40 -30 -73q-6 -14 -15.5 -20.5 t-23.5 -2.5q-14 5 -17.5 16t0.5 26q12 44 18.5 101t5.5 125h-85zM270 684q-31 0 -31 37q0 36 32 36h128q46 0 46 -50q0 -83 -10.5 -150.5t-32.5 -118.5q-5 -13 -14.5 -19.5t-23.5 -2.5q-15 5 -18 15.5t0 25.5q9 48 9.5 92t-0.5 135h-85zM671 741q0 28 -7 37t-29 14 t-33.5 10.5t-11.5 19.5q0 27 37 27h88q43 0 43 -43v-477q0 -95 -68 -95h-19v259h-75v-121q0 -92 -67 -92h-19v417q0 29 -6.5 37.5t-27.5 14.5t-32.5 12.5t-11.5 19.5q0 25 35 25h87q42 0 42 -43v-198h75v176zM319 56q0 75 57.5 129t143.5 54q88 0 146.5 -54t58.5 -129 q0 -76 -58.5 -130t-146.5 -54q-86 0 -143.5 54t-57.5 130zM408 56q0 -45 32 -77t80 -32q50 0 83.5 32t33.5 77t-33.5 76.5t-83.5 31.5q-48 0 -80 -31.5t-32 -76.5z" />
<glyph unicode="&#xaf80;" horiz-adv-x="785" d="M62 643q-32 0 -32 37q0 36 33 36h144q43 0 43 -50q0 -92 -19 -198h74q42 0 42 -47v-228q61 0 103 2q43 1 88 9q36 7 42.5 -13t-14.5 -33q-24 -16 -82.5 -27t-144.5 -11h-295q-31 0 -31 37q0 36 31 36h216v167q0 30 -4.5 37.5t-23.5 13.5l-10 4q-15 -72 -29 -109 q-7 -15 -16.5 -20.5t-23.5 -2.5q-15 5 -19 16t0 26q12 48 19 135.5t6 182.5h-97zM292 643q-32 0 -32 37q0 36 32 36h168q45 0 45 -50q0 -83 -11 -189t-31 -170q-5 -15 -15.5 -22t-24.5 -3q-14 5 -17.5 15.5t-1.5 26.5q10 76 10 155t-1 164h-121zM609 739q0 29 -8 38t-28 14 t-32.5 11t-12.5 20q0 27 35 27h90q43 0 43 -42v-821q0 -94 -66 -94h-21v847z" />
<glyph unicode="&#xaf84;" horiz-adv-x="785" d="M68 690q-33 0 -33 36t34 36h143q43 0 43 -50q0 -79 -17 -161q-4 -11 -6 -21h79q42 0 42 -48v-159q57 0 97 2q43 1 88 9q36 7 42.5 -13t-14.5 -33q-24 -16 -82.5 -27t-144.5 -11h-295q-31 0 -31 37q0 36 31 36h222v98q0 30 -4.5 37.5t-22.5 13.5q-11 4 -20 8 q-11 -33 -22 -57q-7 -14 -16 -20t-23 -2q-15 5 -19 15.5t0 26.5q13 45 19.5 109t5.5 138h-96zM297 690q-32 0 -32 36t32 36h168q45 0 45 -50q0 -83 -12 -164t-30 -125q-6 -13 -16 -20t-24 -3q-14 5 -17 15t-1 27q9 76 9 129t-1 119h-121zM696 189q0 -93 -66 -93h-21v643 q0 29 -8 38t-28 14t-32.5 11t-12.5 20q0 27 35 27h91q42 0 42 -43v-617zM693 -97h-346q-94 0 -94 89v72q0 29 -8.5 37.5t-28.5 13.5q-21 7 -29 13t-8 19q0 27 32 27h87q42 0 42 -47v-129q0 -21 18 -21h336q33 0 33 -37t-34 -37z" />
<glyph unicode="&#xaf88;" horiz-adv-x="785" d="M68 713q-33 0 -33 37q0 36 34 36h143q43 0 43 -50q0 -80 -17 -150l-4 -10h77q42 0 42 -48v-128q57 0 97 2q43 1 88 9q36 7 42.5 -13t-14.5 -33q-24 -16 -82.5 -27t-144.5 -11h-295q-31 0 -31 37q0 36 31 36h222v67q0 30 -4.5 37.5t-22.5 14.5q-11 3 -20 7 q-10 -31 -22 -55q-7 -14 -16 -20t-23 -2q-15 5 -19 16t0 25q13 44 19.5 102t5.5 121h-96zM297 713q-32 0 -32 37q0 36 32 36h168q45 0 45 -50q0 -83 -12 -152t-30 -113q-6 -13 -16 -20t-24 -3q-14 5 -17 15t-1 27q9 57 9 107.5t-1 115.5h-121zM696 395q0 -95 -66 -95h-21 v439q0 29 -8 38t-28 14t-32.5 11t-12.5 20q0 27 35 27h91q42 0 42 -43v-411zM686 -111h-365q-55 0 -55 66v62q0 21 -7.5 29.5t-19.5 14.5q-10 3 -16.5 8.5t-6.5 18.5q0 26 27 26h359v79h-333q-31 0 -31 36t31 36h384q36 0 36 -45v-123q0 -54 -41 -54h-295v-57q0 -25 24 -25 h310q32 0 32 -35q0 -37 -33 -37z" />
<glyph unicode="&#xaf90;" horiz-adv-x="785" d="M68 710q-33 0 -33 37q0 36 34 36h143q43 0 43 -50q0 -79 -17 -156l-1 -1h74q42 0 42 -48v-159q57 0 97 2q43 1 88 9q36 7 42.5 -12.5t-14.5 -33.5q-24 -16 -82.5 -27t-144.5 -11h-295q-31 0 -31 37q0 36 31 36h222v98q0 30 -4.5 37.5t-22.5 14.5q-9 2 -16 5 q-12 -41 -26 -70q-7 -14 -16 -20.5t-23 -1.5q-15 5 -19 15.5t0 25.5q13 46 19.5 104.5t5.5 132.5h-96zM297 710q-32 0 -32 37q0 36 32 36h168q45 0 45 -50q0 -83 -12 -159t-30 -120q-6 -13 -16 -20.5t-24 -3.5q-14 6 -17 16t-1 26q9 76 9 124.5t-1 113.5h-121zM696 343 q0 -94 -66 -94h-21v490q0 29 -8 38t-28 14t-32.5 11t-12.5 20q0 27 35 27h91q42 0 42 -43v-463zM352 -31h251v174h-250v-147q0 -14 -1 -27zM646 215q43 0 43 -50v-131q0 -40 -11 -65q31 -2 31 -36q0 -37 -34 -37h-340q-17 -29 -48 -29h-21v226q0 36 -4.5 47.5t-19.5 17.5 q-14 5 -21 12t-7 19q0 26 27 26h405z" />
<glyph unicode="&#xaf91;" horiz-adv-x="785" d="M68 713q-33 0 -33 37q0 36 34 36h143q43 0 43 -50q0 -79 -17 -154l-2 -6h75q42 0 42 -48v-149q57 0 97 2q43 1 88 10q36 7 42.5 -13t-14.5 -34q-24 -16 -82.5 -26.5t-144.5 -10.5h-295q-31 0 -31 36t31 36h222v88q0 30 -4.5 37.5t-22.5 14.5q-10 3 -18 6q-11 -37 -24 -64 q-7 -14 -16 -20t-23 -2q-15 5 -19 15.5t0 26.5q13 45 19.5 101.5t5.5 130.5h-96zM297 713q-32 0 -32 37q0 36 32 36h168q45 0 45 -50q0 -83 -12 -157t-30 -118q-6 -13 -16 -20t-24 -3q-14 5 -17 15t-1 27q9 75 9 121.5t-1 111.5h-121zM696 384q0 -94 -66 -94h-21v449 q0 29 -8 38t-28 14t-32.5 11t-12.5 20q0 27 35 27h91q42 0 42 -43v-422zM670 -104h-336q-17 -28 -47 -28h-21v275q0 26 -3 33.5t-11 10.5q-10 4 -22 8.5t-12 18.5q0 27 34 27h59q41 0 41 -45v-54h251v23q0 26 -3.5 32t-11.5 9q-16 6 -25.5 11t-9.5 18q0 27 34 27h58 q44 0 44 -46v-171q0 -50 -17 -76q30 -1 30 -36q0 -37 -32 -37zM351 -31h252v100h-251v-72q0 -15 -1 -28z" />
<glyph unicode="&#xaf95;" horiz-adv-x="785" d="M68 710q-33 0 -33 37q0 36 34 36h143q43 0 43 -50q0 -79 -17 -156l-1 -1h74q42 0 42 -48v-159q57 0 97 2q43 1 88 9q36 7 42.5 -12.5t-14.5 -33.5q-24 -16 -82.5 -27t-144.5 -11h-295q-31 0 -31 37q0 36 31 36h222v98q0 30 -4.5 37.5t-22.5 14.5q-9 2 -16 5 q-12 -41 -26 -70q-7 -14 -16 -20.5t-23 -1.5q-15 5 -19 15.5t0 25.5q13 46 19.5 104.5t5.5 132.5h-96zM297 710q-32 0 -32 37q0 36 32 36h168q45 0 45 -50q0 -83 -12 -159t-30 -120q-6 -13 -16 -20.5t-24 -3.5q-14 6 -17 16t-1 26q9 76 9 124.5t-1 113.5h-121zM696 323 q0 -94 -66 -94h-21v510q0 29 -8 38t-28 14t-32.5 11t-12.5 20q0 27 35 27h91q42 0 42 -43v-483zM284 56q0 75 57 129t143 54q88 0 146.5 -54t58.5 -129q0 -76 -58.5 -130t-146.5 -54q-86 0 -143 54t-57 130zM372 56q0 -45 32 -77t80 -32q51 0 84 32t33 77t-33 76.5t-84 31.5 q-48 0 -80 -31.5t-32 -76.5z" />
<glyph unicode="&#xaf9c;" d="M126 670q-33 0 -33 37q0 36 33 36h209q43 0 43 -53q-1 -101 -35 -221q-9 -31 -17 -59h13q37 0 37 -36v-253h95v198q0 29 -3.5 36t-18.5 13q-16 6 -25.5 12t-9.5 19q0 26 39 26h57q44 0 44 -46v-258h218q35 0 35 -36t-35 -36h-720q-30 0 -30 36t30 36h241v202 q-10 -22 -20 -39q-7 -13 -18.5 -20.5t-25.5 -1.5q-14 5 -16 16t3 27q30 69 50.5 175.5t20.5 189.5h-161zM430 670q-32 0 -32 37q0 36 32 36h209q45 0 45 -50q0 -86 -14 -220.5t-36 -188.5q-6 -13 -17.5 -20.5t-25.5 -2.5t-16.5 15.5t0.5 25.5q15 77 16.5 185t0.5 183h-162z " />
<glyph unicode="&#xafb8;" d="M126 716q-33 0 -33 37q0 36 33 36h209q44 0 43 -53q-1 -67 -15.5 -174t-34.5 -149q-6 -15 -18 -20.5t-25 -1.5q-15 5 -16.5 15.5t1.5 26.5q15 71 16 126.5t1 156.5h-161zM430 716q-32 0 -32 37q0 36 32 36h204q45 0 45 -51q0 -45 -11 -158t-33 -167q-6 -13 -17.5 -20.5 t-25.5 -2.5t-16 15.5t1 26.5q11 82 11 145.5t-1 138.5h-157zM458 272v-281q0 -99 -62 -99h-24v380h-320q-30 0 -30 37q0 35 30 35h721q34 0 34 -35q0 -37 -34 -37h-315z" />
<glyph unicode="&#xafb9;" d="M126 726q-33 0 -33 37q0 36 33 36h209q44 0 43 -53q-1 -77 -14 -173q-11 -73 -24 -115h240q10 72 9 132q-1 62 -2 136h-157q-32 0 -32 37q0 36 32 36h204q45 0 45 -51q0 -45 -10 -153q-10 -86 -24 -137h128q34 0 34 -36q0 -37 -34 -37h-315v-88q0 -49 -15 -74h167 q38 0 38 -44v-207q0 -99 -61 -99h-25v277h-388q-28 0 -28 37q0 36 28 36h198v162h-320q-30 0 -30 37q0 36 30 36h221q13 62 14 114v154h-161z" />
<glyph unicode="&#xafbc;" d="M126 708q-33 0 -33 37q0 36 33 36h209q44 0 43 -54q-1 -66 -16 -171q-13 -96 -31 -139h244q0 5 2 11q11 83 11 144t-1 136h-157q-32 0 -32 37q0 36 32 36h204q45 0 45 -52q0 -45 -10 -154q-11 -104 -31 -158h134q35 0 35 -36q0 -37 -35 -37h-299v-152q0 -100 -63 -100 h-23v252h-335q-30 0 -30 37q0 36 30 36h216l2 12q15 72 16 125t1 154h-161zM638 -97h-353q-95 0 -95 89v119q0 29 -9.5 37.5t-26.5 13.5q-23 7 -31 13t-8 19q0 28 32 28h87q44 0 44 -48v-176q0 -21 18 -21h343q33 0 33 -37t-34 -37z" />
<glyph unicode="&#xafc0;" d="M126 734q-33 0 -33 36t33 36h209q44 0 43 -53q-1 -77 -14 -153q-14 -72 -33 -114h247q0 7 1 15q10 69 9 120.5t-1 112.5h-157q-32 0 -32 36t32 36h204q45 0 45 -51q0 -45 -10 -132q-12 -85 -31 -137h135q34 0 34 -36q0 -37 -34 -37h-315v-55q0 -33 -6 -56h166 q36 0 36 -45v-142q0 -53 -40 -53h-336v-75q0 -26 23 -26h352q32 0 32 -36t-33 -36h-398q-64 0 -64 76v70q0 23 -6 30.5t-20 12.5q-8 4 -17 10t-9 19q0 27 28 27h401v97h-373q-32 0 -32 35q0 36 32 36h178v111h-320q-30 0 -30 37q0 36 30 36h218q0 7 2 16q13 56 13.5 112 t1.5 120h-161z" />
<glyph unicode="&#xafc7;" d="M126 734q-33 0 -33 36t33 36h209q44 0 43 -53q-1 -77 -14 -153q-14 -72 -33 -114h247q0 7 1 15q10 69 9 120.5t-1 112.5h-157q-32 0 -32 36t32 36h204q45 0 45 -51q0 -45 -10 -132q-12 -85 -31 -137h135q34 0 34 -36q0 -37 -34 -37h-315v-55q0 -103 -62 -103h-10v-143 q0 -50 -34 -50h-118v-80q0 -21 18 -21h130q32 0 32 -35q0 -37 -34 -37h-166q-64 0 -64 74v74q0 22 -3.5 30.5t-16.5 14.5q-9 4 -14 9t-5 19q0 23 20 23h170v98h-144q-32 0 -32 36q0 35 32 35h192q15 0 23 -6v117h-320q-30 0 -30 37q0 36 30 36h218q0 7 2 16q13 56 13.5 112 t1.5 120h-161zM718 97h-35q26 -32 26 -78q0 -60 -41 -102t-105 -42q-62 0 -102.5 42t-40.5 102q0 46 24 78h-21q-34 0 -34 33q0 35 34 35h295q34 0 34 -35q0 -33 -34 -33zM625 19q0 32 -18 54.5t-43 22.5q-24 0 -42 -22.5t-18 -54.5t18 -54.5t42 -22.5q25 0 43 22.5t18 54.5 zM490 237l-28 24q-10 10 -12.5 21t6.5 24q9 10 22.5 9t22.5 -6q38 -18 60.5 -22.5t66.5 -4.5q34 0 34 -36q0 -16 -11.5 -26t-27.5 -10l-67 1q-35 0 -66 26z" />
<glyph unicode="&#xafc8;" d="M278 -31h287v192h-286v-165q0 -14 -1 -27zM372 234v148h-320q-30 0 -30 37q0 36 30 36h218q1 6 2 13q14 63 14.5 117.5t0.5 140.5h-161q-33 0 -33 37q0 36 33 36h209q44 0 43 -53q-1 -77 -14 -166q-13 -83 -31 -125h245q0 6 1 12q11 75 10 131t-2 128h-157q-32 0 -32 37 q0 36 32 36h204q45 0 45 -51q0 -45 -10 -145q-11 -95 -30 -148h133q35 0 35 -36q0 -37 -35 -37h-313v-78q0 -45 -13 -70h162q43 0 43 -50v-140q0 -49 -16 -75q30 -2 30 -36q0 -37 -33 -37h-372q-16 -29 -47 -29h-20v244q0 37 -3 47.5t-19 18.5q-12 5 -21 11.5t-9 18.5 q0 27 33 27h198z" />
<glyph unicode="&#xafc9;" d="M126 734q-33 0 -33 36t33 36h209q44 0 43 -53q-1 -77 -14 -161q-14 -83 -34 -125h248q0 9 1 18q11 75 10 125.5t-2 123.5h-157q-32 0 -32 36t32 36h204q45 0 45 -51q0 -45 -10 -140q-12 -94 -32 -148h135q35 0 35 -35q0 -37 -35 -37h-313v-65q0 -102 -64 -102h-23v167 h-320q-30 0 -30 37q0 35 30 35h218q0 9 2 19q14 62 14 122t1 126h-161zM632 -104h-372q-16 -28 -47 -28h-20v315q0 26 -3.5 33.5t-11.5 10.5q-10 4 -22 8.5t-12 18.5q0 27 34 27h60q41 0 41 -45v-79h286v43q0 26 -3.5 32t-11.5 9q-15 6 -25 10.5t-10 18.5q0 26 34 26h58 q44 0 44 -45v-206q0 -50 -17 -76q31 -1 31 -36q0 -37 -33 -37zM278 -31h287v115h-286v-87q0 -15 -1 -28z" />
<glyph unicode="&#xafcb;" d="M126 726q-33 0 -33 37q0 36 33 36h209q44 0 43 -53q-1 -77 -14 -166q-13 -83 -31 -125h245q0 6 1 12q11 75 10 131t-2 128h-157q-32 0 -32 37q0 36 32 36h204q45 0 45 -51q0 -45 -10 -145q-11 -95 -30 -148h133q35 0 35 -36q0 -37 -35 -37h-313v-32q0 -56 -19 -81 q21 -5 29 -21q11 -22 5 -51q-10 -39 -38 -81l258 -144q22 -12 26 -33t-9 -35t-30 -14t-40 15l-241 164q-12 -14 -26 -29q-83 -86 -191 -148q-39 -23 -53 -2t11 39q86 56 153.5 134t86.5 129q4 11 -9 17.5t-28 10.5q-26 5 -23.5 28t27.5 23h24v111h-320q-30 0 -30 37 q0 36 30 36h218q1 6 2 13q14 63 14.5 117.5t0.5 140.5h-161z" />
<glyph unicode="&#xafcd;" d="M126 726q-33 0 -33 37q0 36 33 36h209q44 0 43 -53q-1 -77 -14 -166q-13 -83 -31 -125h245q0 6 1 12q11 75 10 131t-2 128h-157q-32 0 -32 37q0 36 32 36h204q45 0 45 -51q0 -45 -10 -145q-11 -95 -30 -148h133q35 0 35 -36q0 -37 -35 -37h-314v-58q0 -40 -9 -65 q66 -9 117 -54q64 -57 64 -138t-63.5 -138t-152.5 -57t-152.5 57t-63.5 138t63 138q48 42 111 53v124h-320q-30 0 -30 37q0 36 30 36h218q1 6 2 13q14 63 14.5 117.5t0.5 140.5h-161zM286 67q0 -49 37 -84.5t91 -35.5q53 0 90.5 35.5t37.5 84.5t-37.5 84.5t-90.5 35.5 q-54 0 -91 -35.5t-37 -84.5z" />
<glyph unicode="&#xafce;" d="M126 726q-33 0 -33 37q0 36 33 36h209q44 0 43 -53q-1 -77 -14 -166q-13 -83 -31 -125h245q0 6 1 12q11 75 10 131t-2 128h-157q-32 0 -32 37q0 36 32 36h204q45 0 45 -51q0 -45 -10 -145q-11 -95 -30 -148h133q35 0 35 -36q0 -37 -35 -37h-313v-78q0 -45 -13 -70h133 q32 0 47.5 -19.5t5.5 -49.5q-22 -55 -121 -123l195 -71q46 -18 27.5 -56t-68.5 -15l-221 100q-133 -76 -280 -113q-33 -8 -41 17.5t20 34.5q79 25 194.5 89.5t182.5 132.5h-316q-31 0 -31 37q0 36 32 36h167v148h-320q-30 0 -30 37q0 36 30 36h218q1 6 2 13 q14 63 14.5 117.5t0.5 140.5h-161z" />
<glyph unicode="&#xafd4;" horiz-adv-x="785" d="M62 702q-32 0 -32 37q0 36 33 36h144q43 0 43 -51q0 -94 -13 -184q-15 -90 -34 -144h190q0 8 1 17q9 76 9 131t-1 158h-110q-32 0 -32 37q0 36 33 36h157q45 0 45 -51q0 -83 -11 -173t-30 -153q41 1 84 9q36 7 42.5 -13t-14.5 -33q-24 -17 -82.5 -27.5t-144.5 -10.5h-13 v-315q0 -96 -61 -96h-26v411h-195q-31 0 -31 37q0 36 31 36h99q0 7 1 16q10 55 13 114.5t2 175.5h-97zM609 739q0 29 -8 38t-28 14t-32.5 11t-12.5 20q0 27 35 27h91q42 0 42 -42v-821q0 -94 -66 -94h-21v254h-163q-32 0 -32 36q0 35 32 35h163v522z" />
<glyph unicode="&#xafdc;" horiz-adv-x="785" d="M62 723q-32 0 -32 37q0 36 33 36h144q43 0 43 -51q0 -59 -13 -118q-14 -56 -32 -95h188q0 6 1 12q9 42 9 86t-1 93h-110q-32 0 -32 37q0 36 33 36h157q45 0 45 -50q0 -71 -11 -122q-9 -48 -27 -90q40 2 81 9q36 7 42.5 -13t-14.5 -33q-24 -16 -82.5 -27t-144.5 -11h-15 v-129q0 -72 -61 -72h-27v201h-192q-31 0 -31 37q0 36 31 36h99q0 5 1 11q10 44 13 83.5t2 96.5h-97zM609 740q0 28 -7.5 37t-28.5 14q-20 5 -32.5 11t-12.5 20q0 27 35 27h90q43 0 43 -43v-446q0 -95 -66 -95h-21v69h-163q-32 0 -32 37q0 36 32 36h163v333zM686 -111h-365 q-55 0 -55 67v49q0 21 -7.5 29t-19.5 15q-10 3 -16.5 8.5t-6.5 18.5q0 26 27 26h359v67h-333q-31 0 -31 36t31 36h384q36 0 36 -45v-111q0 -54 -41 -54h-295v-45q0 -25 24 -25h310q32 0 32 -35q0 -37 -33 -37z" />
<glyph unicode="&#xafe8;" horiz-adv-x="785" d="M62 716q-32 0 -32 37q0 36 33 36h144q43 0 43 -51q0 -59 -13 -132q-14 -66 -31 -106h187q0 4 1 9q9 44 9 101t-1 106h-110q-32 0 -32 37q0 36 33 36h157q45 0 45 -50q0 -71 -11 -136q-10 -58 -26 -101q39 2 80 9q36 8 42.5 -12t-14.5 -34q-24 -16 -82.5 -27t-144.5 -11 h-15v-143q0 -72 -61 -72h-27v215h-192q-31 0 -31 37q0 36 31 36h99q0 4 1 8q10 44 13 97.5t2 110.5h-97zM609 740q0 28 -7.5 37t-28.5 14q-20 5 -32.5 11t-12.5 20q0 27 35 27h90q43 0 43 -43v-499q0 -95 -66 -95h-21v79h-163q-32 0 -32 37q0 36 32 36h163v376zM384 113 q-6 -20 -18 -41l108 -71q2 4 4 6q42 53 67 115q3 6 -1.5 11.5t-20.5 9.5q-13 3 -21.5 8.5t-8.5 16.5q0 27 31 27h64q33 0 43.5 -23.5t3.5 -51.5q-6 -23 -21 -49l132 -83q24 -14 29 -34t-6 -37q-12 -16 -33.5 -16.5t-35.5 12.5l-121 103q-10 -14 -21 -26q-61 -70 -131 -107 q-12 -8 -25 -8.5t-21 8.5q-7 7 -6.5 16t11.5 18q17 13 34 27l-91 76q-11 -12 -23 -25q-59 -61 -125 -99q-14 -8 -27.5 -5.5t-19.5 11.5q-3 9 -1 18t13 16q42 29 83.5 77t64.5 101q3 6 -1.5 12.5t-19.5 10.5q-16 5 -23.5 9.5t-7.5 16.5q0 26 32 26h67q31 0 40.5 -25t2.5 -51z " />
<glyph unicode="&#xafe9;" horiz-adv-x="785" d="M62 716q-32 0 -32 37q0 36 33 36h144q43 0 43 -51q0 -59 -13 -132q-14 -66 -31 -106h187q0 4 1 9q9 44 9 101t-1 106h-110q-32 0 -32 37q0 36 33 36h157q45 0 45 -50q0 -71 -11 -136q-10 -58 -26 -101q39 2 80 9q36 8 42.5 -12t-14.5 -34q-24 -16 -82.5 -27t-144.5 -11 h-15v-169q0 -71 -61 -71h-27v240h-192q-31 0 -31 37q0 36 31 36h99q0 4 1 8q10 44 13 97.5t2 110.5h-97zM609 740q0 28 -7.5 37t-28.5 14q-20 5 -32.5 11t-12.5 20q0 27 35 27h90q43 0 43 -43v-515q0 -94 -66 -94h-21v94h-163q-32 0 -32 37q0 36 32 36h163v376zM273 38 q0 74 60 120t147 46q88 0 148.5 -46t60.5 -120q0 -72 -60.5 -119t-148.5 -47q-87 0 -147 47t-60 119zM361 38q0 -39 34 -65t85 -26q52 0 86.5 26t34.5 65q0 40 -34.5 65.5t-86.5 25.5q-51 0 -85 -25.5t-34 -65.5z" />
<glyph unicode="&#xaff0;" d="M58 678q-32 0 -32 37q0 36 33 36h125q44 0 44 -50q0 -94 -13 -174q-13 -78 -32 -126h62q52 0 90 1q0 6 1 13q9 62 9.5 122.5t-0.5 140.5h-75q-31 0 -31 37q0 36 32 36h118q46 0 46 -50q0 -68 -10 -158q-10 -84 -29 -137q22 2 43 6q37 7 43 -13t-14 -33q-25 -16 -83 -27 q-40 -8 -92 -10v-280q0 -96 -61 -96h-26v375h-161q-32 0 -32 37q0 36 31 36h79q-1 7 1 15q11 51 13.5 114.5t0.5 147.5h-80zM627 849h87q44 0 44 -42v-821q0 -94 -68 -94h-19v848q0 29 -7 38t-29 14t-33.5 10.5t-11.5 19.5q0 27 37 27zM465 806h86q43 0 43 -45v-713 q0 -95 -67 -95h-19v223h-126q-33 0 -33 35q0 37 33 37h126v450q0 28 -6.5 36.5t-27.5 14.5t-32.5 12.5t-11.5 19.5q0 25 35 25z" />
<glyph unicode="&#xaff1;" d="M63 695q-32 0 -32 37q0 35 34 35h124q44 0 44 -50q0 -70 -13.5 -129.5t-34.5 -102.5v-1h69q49 0 85 1q0 8 2 18q9 41 9.5 82.5t-0.5 109.5h-75q-31 0 -31 37q0 35 32 35h118q46 0 46 -50q0 -67 -10 -128q-11 -59 -31 -101q24 3 50 7q36 7 42.5 -13t-14.5 -33 q-24 -16 -83 -27q-42 -8 -99 -10v-160q0 -71 -59 -71h-28v230h-163q-32 0 -32 37q0 36 31 36h83q-1 8 2 20q9 36 12.5 85.5t1.5 105.5h-80zM627 849h87q44 0 44 -43v-530q0 -94 -68 -94h-19v558q0 29 -7 38t-29 14t-33.5 10.5t-11.5 19.5q0 27 37 27zM474 806h86 q43 0 43 -45v-474q0 -95 -66 -95h-20v89h-129q-33 0 -33 36q0 37 33 37h129v344q0 28 -6.5 36.5t-27.5 14.5t-32.5 12.5t-11.5 19.5q0 25 35 25zM246 85q-28 0 -28 37q0 36 28 36h462q37 0 37 -45v-141q0 -99 -61 -99h-25v212h-413z" />
<glyph unicode="&#xaff4;" d="M63 690q-32 0 -32 36t34 36h124q44 0 44 -50q0 -71 -13 -136q-14 -65 -35 -108h69q49 0 85 1q0 8 2 17q9 41 9.5 88.5t-0.5 115.5h-75q-31 0 -31 36t32 36h118q46 0 46 -50q0 -67 -10 -134q-10 -64 -30 -106q24 4 49 8q36 7 42.5 -13t-14.5 -33q-24 -17 -83 -27 q-42 -8 -99 -10v-143q0 -71 -59 -71h-28v213h-163q-32 0 -32 37q0 35 31 35h83q-1 9 2 19q9 36 12.5 91.5t1.5 111.5h-80zM627 851h87q44 0 44 -43v-636q0 -94 -68 -94h-19v664q0 29 -7 38t-29 14t-33.5 10.5t-11.5 19.5q0 27 37 27zM474 808h86q43 0 43 -45v-579 q0 -95 -66 -95h-20v169h-129q-33 0 -33 36q0 37 33 37h129v369q0 28 -6.5 36.5t-27.5 14.5t-32.5 12.5t-11.5 19.5q0 25 35 25zM739 -97h-387q-94 0 -94 90v50q0 29 -8.5 37.5t-28.5 14.5q-21 7 -29 12.5t-8 18.5q0 28 32 28h87q42 0 42 -47v-109q0 -21 19 -21h376 q33 0 33 -37t-34 -37z" />
<glyph unicode="&#xaff8;" d="M63 705q-32 0 -32 37q0 36 34 36h124q44 0 44 -51q0 -62 -13 -117q-13 -52 -31 -87h65q48 0 85 1l2 10q9 36 9.5 73.5t-0.5 97.5h-75q-31 0 -31 37q0 36 32 36h118q46 0 46 -51q0 -62 -10 -116q-10 -47 -27 -83q23 2 46 6q36 7 42.5 -13t-14.5 -33q-24 -17 -83 -27 q-42 -8 -99 -10v-141q0 -72 -59 -72h-28v212h-163q-32 0 -32 37q0 36 31 36h83q0 5 2 12q9 31 12.5 73t1.5 97h-80zM627 849h87q44 0 44 -43v-462q0 -95 -68 -95h-19v491q0 29 -7 38t-29 14t-33.5 10.5t-11.5 19.5q0 27 37 27zM474 806h86q43 0 43 -45v-405q0 -95 -66 -95 h-20v75h-129q-33 0 -33 36q0 37 33 37h129v289q0 28 -6.5 36.5t-27.5 14.5t-32.5 12.5t-11.5 19.5q0 25 35 25zM742 -111h-386q-54 0 -54 67v45q0 22 -7.5 30t-20.5 14q-9 4 -15.5 9.5t-6.5 18.5q0 26 27 26h379v63h-353q-32 0 -32 36t32 36h405q35 0 35 -45v-107 q0 -54 -40 -54h-316v-43q0 -24 24 -24h330q32 0 32 -35q0 -37 -33 -37z" />
<glyph unicode="&#xb000;" d="M63 695q-32 0 -32 37q0 35 34 35h124q44 0 44 -50q0 -70 -13 -130q-13 -55 -32 -96h66q49 0 85 1q1 5 2 11q9 41 9.5 82.5t-0.5 109.5h-75q-31 0 -31 37q0 35 32 35h118q46 0 46 -50q0 -67 -10 -128q-10 -54 -28 -94q23 3 47 7q36 7 42.5 -13t-14.5 -33q-24 -16 -83 -27 q-42 -8 -99 -10v-148q0 -72 -59 -72h-28v219h-163q-32 0 -32 37q0 36 31 36h83q0 6 2 13q9 36 12.5 85.5t1.5 105.5h-80zM627 849h87q44 0 44 -43v-501q0 -95 -68 -95h-19v530q0 29 -7 38t-29 14t-33.5 10.5t-11.5 19.5q0 27 37 27zM474 806h86q43 0 43 -45v-450 q0 -96 -66 -96h-20v79h-129q-33 0 -33 36q0 37 33 37h129v331q0 28 -6.5 36.5t-27.5 14.5t-32.5 12.5t-11.5 19.5q0 25 35 25zM378 -31h281v145h-280v-118q0 -14 -1 -27zM702 187q43 0 43 -50v-103q0 -40 -11 -65q31 -2 31 -36q0 -37 -34 -37h-371q-16 -29 -48 -29h-20v197 q0 37 -4.5 48t-20.5 17q-13 6 -20 12.5t-7 18.5q0 27 26 27h436z" />
<glyph unicode="&#xb001;" d="M63 705q-32 0 -32 37q0 36 34 36h124q44 0 44 -51q0 -70 -13 -127q-13 -52 -32 -93h66q49 0 85 1q1 5 2 12q9 41 9.5 79t-0.5 106h-75q-31 0 -31 37q0 36 32 36h118q46 0 46 -51q0 -67 -10 -124q-10 -52 -28 -92q23 3 47 8q36 7 42.5 -13t-14.5 -34q-24 -16 -83 -26 q-42 -8 -99 -10v-141q0 -71 -59 -71h-28v211h-163q-32 0 -32 36t31 36h83q0 6 2 14q9 35 12.5 82t1.5 102h-80zM627 849h87q44 0 44 -43v-476q0 -95 -68 -95h-19v505q0 29 -7 38t-29 14t-33.5 10.5t-11.5 19.5q0 27 37 27zM474 806h86q43 0 43 -45v-431q0 -95 -66 -95h-20 v71h-129q-33 0 -33 35q0 37 33 37h129v320q0 28 -6.5 36.5t-27.5 14.5t-32.5 12.5t-11.5 19.5q0 25 35 25zM726 -104h-361q-17 -28 -48 -28h-20v232q0 26 -3 33.5t-11 10.5q-11 4 -22.5 8.5t-11.5 18.5q0 27 34 27h59q41 0 41 -45v-32h276q0 25 -3 31q-4 6 -12 9 q-15 6 -25 11t-10 18q0 26 34 26h58q44 0 44 -46v-126q0 -49 -17 -75q31 -1 31 -36q0 -37 -33 -37zM382 -31h277v80h-276v-52q0 -15 -1 -28z" />
<glyph unicode="&#xb004;" d="M63 695q-32 0 -32 37q0 35 34 35h124q44 0 44 -50q0 -70 -13 -130q-13 -55 -32 -96h66q49 0 85 1q1 5 2 11q9 41 9.5 82.5t-0.5 109.5h-75q-31 0 -31 37q0 35 32 35h118q46 0 46 -50q0 -67 -10 -128q-10 -54 -28 -94q23 3 47 7q36 7 42.5 -13t-14.5 -33q-24 -16 -83 -27 q-42 -8 -99 -10v-148q0 -72 -59 -72h-28v219h-163q-32 0 -32 37q0 36 31 36h83q0 6 2 13q9 36 12.5 85.5t1.5 105.5h-80zM627 849h87q44 0 44 -43v-501q0 -95 -68 -95h-19v530q0 29 -7 38t-29 14t-33.5 10.5t-11.5 19.5q0 27 37 27zM474 806h86q43 0 43 -45v-450 q0 -96 -66 -96h-20v79h-129q-33 0 -33 36q0 37 33 37h129v331q0 28 -6.5 36.5t-27.5 14.5t-32.5 12.5t-11.5 19.5q0 25 35 25zM389 113q-6 -17 -15 -36l122 -74l3 4q42 53 66 115q3 6 -1.5 11.5t-19.5 9.5q-14 3 -22.5 8.5t-8.5 16.5q0 27 32 27h63q33 0 44 -23.5t3 -51.5 q-6 -22 -18 -47l135 -85q24 -14 29 -34t-6 -37q-13 -16 -34.5 -16.5t-34.5 12.5l-125 105q-10 -13 -22 -28q-62 -70 -132 -107q-12 -8 -24.5 -8.5t-21.5 8.5q-7 7 -6.5 16t12.5 18q17 14 34 29l-103 79q-12 -15 -27 -30q-59 -61 -125 -99q-14 -8 -27.5 -5.5t-19.5 11.5 q-3 9 -1 18t14 16q42 29 83 77t64 101q3 6 -1.5 12.5t-18.5 10.5q-17 5 -24.5 9.5t-7.5 16.5q0 26 33 26h66q31 0 40.5 -25t2.5 -51z" />
<glyph unicode="&#xb00c;" horiz-adv-x="785" d="M62 702q-32 0 -32 37q0 36 33 36h144q43 0 43 -51q0 -94 -13 -191q-15 -95 -33 -150h189q0 7 1 15q9 75 9 138t-1 166h-110q-32 0 -32 37q0 36 33 36h157q45 0 45 -51q0 -83 -11 -181q-11 -94 -30 -158q41 1 84 10q36 7 42.5 -13t-14.5 -33q-24 -17 -82.5 -27.5 t-144.5 -10.5h-13v-303q0 -96 -61 -96h-26v399h-195q-31 0 -31 37q0 35 31 35h99q0 7 1 14q10 55 13 122t2 183h-97zM609 -108v847q0 29 -8 38t-28 14t-32.5 11t-12.5 20q0 27 35 27h91q42 0 42 -42v-821q0 -94 -66 -94h-21z" />
<glyph unicode="&#xb010;" horiz-adv-x="785" d="M62 711q-32 0 -32 37q0 36 33 36h144q43 0 43 -50q0 -72 -13 -160q-14 -80 -31 -121h187q0 5 1 10q9 44 9 110.5t-1 137.5h-110q-32 0 -32 37q0 36 33 36h157q45 0 45 -50q0 -80 -11 -160q-10 -72 -27 -119q40 2 81 9q36 7 42.5 -12.5t-14.5 -33.5q-24 -16 -82.5 -27 t-144.5 -11h-15v-131q0 -71 -61 -71h-27v202h-192q-31 0 -31 37q0 36 31 36h99q0 4 1 9q10 44 13 108.5t2 140.5h-97zM609 78v661q0 29 -8 38t-28 14t-32.5 11t-12.5 20q0 27 35 27h90q43 0 43 -43v-634q0 -94 -66 -94h-21zM694 -97h-345q-94 0 -94 90v46q0 29 -8.5 37.5 t-28.5 14.5q-21 7 -29 12.5t-8 18.5q0 28 32 28h87q42 0 42 -47v-105q0 -21 18 -21h335q33 0 33 -37t-34 -37z" />
<glyph unicode="&#xb014;" horiz-adv-x="785" d="M62 723q-32 0 -32 37q0 36 33 36h144q43 0 43 -51q0 -59 -13 -126q-15 -67 -35 -108h191q-1 9 1 18q9 41 9 93t-1 101h-110q-32 0 -32 37q0 36 33 36h157q45 0 45 -50q0 -71 -11 -130q-11 -58 -30 -103q41 1 84 10q36 7 42.5 -13t-14.5 -33q-24 -17 -82.5 -27.5 t-144.5 -10.5h-15v-86q0 -73 -61 -73h-27v159h-192q-31 0 -31 37q0 35 31 35h99q-1 8 1 17q10 44 13 91t2 104h-97zM609 286v453q0 29 -8 38t-28 14t-32.5 11t-12.5 20q0 27 35 27h90q43 0 43 -43v-425q0 -95 -66 -95h-21zM686 -111h-365q-55 0 -55 66v58q0 21 -7.5 29.5 t-19.5 14.5q-10 3 -16.5 8.5t-6.5 18.5q0 26 27 26h359v76h-333q-31 0 -31 36q0 35 31 35h384q36 0 36 -45v-119q0 -54 -41 -54h-295v-53q0 -25 24 -25h310q32 0 32 -35q0 -37 -33 -37z" />
<glyph unicode="&#xb01c;" horiz-adv-x="785" d="M62 716q-32 0 -32 37q0 36 33 36h144q43 0 43 -51q0 -59 -14 -135t-34 -117v-1h191q-1 8 1 19q9 44 9 103.5t-1 108.5h-110q-32 0 -32 37q0 36 33 36h157q45 0 45 -50q0 -71 -11 -139t-31 -113q42 1 85 9q36 7 42.5 -13t-14.5 -33q-24 -16 -82.5 -27t-144.5 -11h-15v-113 q0 -71 -61 -71h-27v184h-192q-31 0 -31 37q0 36 31 36h99q-1 7 1 18q10 44 13 100t2 113h-97zM609 228v511q0 29 -8 38t-28 14t-32.5 11t-12.5 20q0 27 35 27h90q43 0 43 -43v-483q0 -95 -66 -95h-21zM352 -31h251v157h-250v-130q0 -14 -1 -27zM646 199q43 0 43 -50v-115 q0 -40 -11 -65q31 -2 31 -36q0 -37 -34 -37h-340q-17 -29 -48 -29h-21v209q0 37 -4.5 48.5t-19.5 17.5q-14 5 -21 11.5t-7 18.5q0 27 27 27h405z" />
<glyph unicode="&#xb01d;" horiz-adv-x="785" d="M62 723q-32 0 -32 37q0 36 33 36h144q43 0 43 -51q0 -59 -13 -131q-14 -71 -34 -112h190q-1 7 1 16q9 40 9 98t-1 107h-110q-32 0 -32 37q0 36 33 36h157q45 0 45 -50q0 -71 -11 -135q-10 -63 -29 -107q41 1 83 9q36 8 42.5 -12t-14.5 -34q-24 -16 -82.5 -27t-144.5 -11 h-15v-93q0 -72 -61 -72h-27v165h-192q-31 0 -31 37q0 36 31 36h99q0 6 1 15q10 44 13 96.5t2 109.5h-97zM609 274v465q0 29 -8 38t-28 14t-32.5 11t-12.5 20q0 27 35 27h90q43 0 43 -43v-437q0 -95 -66 -95h-21zM670 -104h-336q-17 -28 -47 -28h-21v259q0 28 -3 35t-11 10 q-10 5 -22 9.5t-12 18.5q0 27 34 27h59q41 0 41 -46v-47h251v14q0 26 -3.5 32.5t-11.5 9.5q-16 6 -25.5 10.5t-9.5 18.5q0 26 34 26h58q44 0 44 -46v-155q0 -49 -17 -75q30 -1 30 -36q0 -37 -32 -37zM351 -31h252v92h-251v-67q0 -13 -1 -25z" />
<glyph unicode="&#xb028;" d="M126 716q-33 0 -33 37q0 36 33 36h209q44 0 43 -53q-1 -67 -15.5 -174t-34.5 -149q-6 -15 -18 -20.5t-25 -1.5q-15 5 -16.5 15.5t1.5 26.5q15 71 16 126.5t1 156.5h-161zM430 716q-32 0 -32 37q0 36 32 36h204q45 0 45 -51q0 -45 -11 -158t-33 -167q-6 -13 -17.5 -20.5 t-25.5 -2.5t-16 15.5t1 26.5q11 82 11 145.5t-1 138.5h-157zM328 272v-281q0 -99 -63 -99h-21v380h-192q-30 0 -30 37q0 35 30 35h720q35 0 35 -35q0 -37 -35 -37h-178v-281q0 -99 -63 -99h-21v380h-182z" />
<glyph unicode="&#xb044;" d="M126 670q-33 0 -33 37q0 36 33 36h209q43 0 43 -53q-1 -101 -19.5 -253t-39.5 -194q-6 -15 -17.5 -20.5t-25.5 -1.5q-14 5 -15.5 15.5t1.5 26.5q14 69 19.5 187.5t5.5 219.5h-161zM430 670q-32 0 -32 37q0 36 32 36h204q45 0 45 -50q0 -86 -14 -241t-36 -209 q-6 -13 -17.5 -20.5t-25.5 -2.5q-15 5 -17 15.5t1 26.5q15 65 16.5 199t0.5 209h-157zM773 49h-721q-30 0 -30 36q0 37 30 37h721q34 0 34 -37q0 -36 -34 -36z" />
<glyph unicode="&#xb045;" d="M126 726q-33 0 -33 37q0 36 33 36h209q44 0 43 -53q-1 -77 -14 -181q-13 -96 -30 -139h244q0 6 1 11q11 75 10 145t-2 144h-157q-32 0 -32 37q0 36 32 36h204q45 0 45 -51q0 -45 -10 -161q-11 -107 -29 -161h133q34 0 34 -35q0 -38 -34 -38h-721q-30 0 -30 38q0 35 30 35 h218l2 12q14 64 14.5 125.5t0.5 162.5h-161zM174 150q-28 0 -28 37q0 36 28 36h436q38 0 38 -44v-207q0 -99 -61 -99h-25v277h-388z" />
<glyph unicode="&#xb048;" d="M126 718q-33 0 -33 37q0 36 33 36h209q44 0 43 -53q-1 -67 -16 -189q-13 -116 -32 -160h245q0 6 2 14q11 83 11 161.5t-1 153.5h-157q-32 0 -32 37q0 36 32 36h204q45 0 45 -51q0 -45 -10 -173q-12 -123 -32 -178h135q35 0 35 -36q0 -38 -35 -38h-720q-30 0 -30 38 q0 36 30 36h216q0 7 2 15q15 72 16 142.5t1 171.5h-161zM638 -97h-353q-95 0 -95 89v109q0 28 -9.5 37t-26.5 14q-23 7 -31 12.5t-8 19.5q0 27 32 27h87q44 0 44 -47v-166q0 -21 18 -21h343q33 0 33 -37t-34 -37z" />
<glyph unicode="&#xb04a;" d="M126 734q-33 0 -33 36t33 36h209q44 0 43 -53q-1 -77 -14 -176q-14 -97 -33 -139h247q0 7 1 16q11 75 10 141t-2 139h-157q-32 0 -32 36t32 36h204q45 0 45 -51q0 -45 -10 -156q-12 -108 -31 -161h134q35 0 35 -36q0 -38 -35 -38h-720q-30 0 -30 38q0 36 30 36h218 q0 8 2 17q14 63 14.5 128t0.5 151h-161zM474 233l-29 23q-10 11 -12 22t6 23q10 11 23 10t22 -6q38 -18 65.5 -22.5t71.5 -4.5q34 0 34 -36q0 -16 -11 -26t-28 -10l-71 1q-40 0 -71 26zM386 -111h-136q-96 0 -96 89v171q0 29 -9 37.5t-28 13.5q-22 7 -29.5 13t-7.5 19 q0 27 32 27h87q42 0 42 -47v-228q0 -21 18 -21h129q33 0 33 -37t-35 -37zM725 98h-45q28 -33 28 -79q0 -61 -43.5 -102.5t-106.5 -41.5q-62 0 -105.5 41.5t-43.5 102.5q0 46 27 79h-53q-34 0 -34 33q0 35 34 35h342q34 0 34 -35q0 -33 -34 -33zM493 19q0 -34 21 -55.5 t44 -21.5q24 0 45 21.5t21 55.5t-21 55.5t-45 21.5q-23 0 -44 -21.5t-21 -55.5z" />
<glyph unicode="&#xb04c;" d="M126 734q-33 0 -33 36t33 36h209q44 0 43 -53q-1 -77 -14 -165q-13 -84 -32 -126h246q0 6 1 14q10 68 9.5 129t-1.5 129h-157q-32 0 -32 36t32 36h204q45 0 45 -51q0 -45 -10 -144q-12 -96 -30 -149h134q34 0 34 -36q0 -37 -34 -37h-721q-30 0 -30 37q0 36 30 36h218 q0 6 2 15q13 56 14 121.5t1 135.5h-161zM194 231q-32 0 -32 35q0 36 32 36h424q36 0 36 -45v-142q0 -53 -40 -53h-336v-75q0 -26 23 -26h352q32 0 32 -36t-33 -36h-398q-64 0 -64 76v70q0 23 -6 30.5t-20 12.5q-8 4 -17 10t-9 19q0 27 28 27h401v97h-373z" />
<glyph unicode="&#xb04e;" d="M126 734q-33 0 -33 36t33 36h209q44 0 43 -53q-1 -77 -14 -165q-13 -84 -32 -126h246q0 6 1 14q10 68 9.5 129t-1.5 129h-157q-32 0 -32 36t32 36h204q45 0 45 -51q0 -45 -10 -144q-12 -96 -30 -149h134q34 0 34 -36q0 -37 -34 -37h-721q-30 0 -30 37q0 36 30 36h218 q0 6 2 15q13 56 14 121.5t1 135.5h-161zM526 -22h88v254h-87v-225q0 -16 -1 -29zM157 231q-32 0 -32 36q0 35 32 35h199q37 0 37 -44v-146q0 -50 -34 -50h-125v-80q0 -21 18 -21h137q32 0 32 -35q0 -37 -34 -37h-173q-64 0 -64 74v74q0 22 -3.5 30.5t-16.5 14.5q-9 4 -14 9 t-5 19q0 23 20 23h180v98h-154zM654 302q43 0 43 -49v-199q0 -49 -17 -76q31 -2 31 -35q0 -37 -34 -37h-167q-16 -28 -46 -28h-17v312q0 37 -1.5 43t-10.5 13t-16 12.5t-7 17.5q0 26 26 26h216z" />
<glyph unicode="&#xb053;" d="M126 734q-33 0 -33 36t33 36h209q44 0 43 -53q-1 -77 -14 -165q-13 -84 -32 -126h246q0 6 1 14q10 68 9.5 129t-1.5 129h-157q-32 0 -32 36t32 36h204q45 0 45 -51q0 -45 -10 -144q-12 -96 -30 -149h134q34 0 34 -36q0 -37 -34 -37h-721q-30 0 -30 37q0 36 30 36h218 q0 6 2 15q13 56 14 121.5t1 135.5h-161zM157 231q-32 0 -32 36q0 35 32 35h192q37 0 37 -44v-146q0 -50 -34 -50h-118v-80q0 -21 18 -21h130q32 0 32 -35q0 -37 -34 -37h-166q-64 0 -64 74v74q0 22 -3.5 30.5t-16.5 14.5q-9 4 -14 9t-5 19q0 23 20 23h170v98h-144zM480 237 l-28 24q-11 10 -13 21t6 24q10 10 23 9t22 -6q38 -18 65.5 -22.5t71.5 -4.5q35 0 35 -36q0 -16 -11.5 -26t-27.5 -10l-72 1q-40 0 -71 26zM718 97h-35q26 -32 26 -78q0 -60 -41 -102t-105 -42q-62 0 -102.5 42t-40.5 102q0 46 24 78h-21q-34 0 -34 33q0 35 34 35h295 q34 0 34 -35q0 -33 -34 -33zM625 19q0 32 -18 54.5t-43 22.5q-24 0 -42 -22.5t-18 -54.5t18 -54.5t42 -22.5q25 0 43 22.5t18 54.5z" />
<glyph unicode="&#xb054;" d="M126 726q-33 0 -33 37q0 36 33 36h209q44 0 43 -53q-1 -77 -14.5 -176.5t-33.5 -141.5v-1h248q0 9 1 20q11 75 10 141t-2 138h-157q-32 0 -32 37q0 36 32 36h204q45 0 45 -51q0 -45 -11 -155.5t-31 -164.5v-1h135q35 0 35 -35q0 -38 -35 -38h-720q-30 0 -30 38 q0 35 30 35h218q0 10 2 21q14 62 14.5 127t0.5 151h-161zM278 -31h287v202h-286v-175q0 -14 -1 -27zM608 244q43 0 43 -50v-150q0 -49 -16 -75q30 -2 30 -36q0 -37 -33 -37h-372q-16 -29 -47 -29h-20v254q0 37 -3 48t-19 18q-12 5 -21 11.5t-9 18.5q0 27 33 27h434z" />
<glyph unicode="&#xb055;" d="M126 734q-33 0 -33 36t33 36h209q44 0 43 -53q-1 -77 -14 -176q-14 -97 -33 -139h247q0 7 1 16q11 75 10 141t-2 139h-157q-32 0 -32 36t32 36h204q45 0 45 -51q0 -45 -10 -156q-12 -108 -31 -161h134q35 0 35 -36q0 -38 -35 -38h-720q-30 0 -30 38q0 36 30 36h218 q0 8 2 17q14 63 14.5 128t0.5 151h-161zM632 -104h-372q-16 -28 -47 -28h-20v315q0 26 -3.5 33.5t-11.5 10.5q-10 4 -22 8.5t-12 18.5q0 27 34 27h60q41 0 41 -45v-79h286v43q0 26 -3.5 32t-11.5 9q-15 6 -25 10.5t-10 18.5q0 26 34 26h58q44 0 44 -45v-206q0 -50 -17 -76 q31 -1 31 -36q0 -37 -33 -37zM278 -31h287v115h-286v-87q0 -15 -1 -28z" />
<glyph unicode="&#xb057;" d="M126 726q-33 0 -33 37q0 36 33 36h209q44 0 43 -53q-1 -77 -14.5 -176.5t-33.5 -141.5v-1h248q0 9 1 20q11 75 10 141t-2 138h-157q-32 0 -32 37q0 36 32 36h204q45 0 45 -51q0 -45 -11 -155.5t-31 -164.5v-1h135q35 0 35 -35q0 -38 -35 -38h-720q-30 0 -30 38 q0 35 30 35h218q0 10 2 21q14 62 14.5 127t0.5 151h-161zM474 197q-10 -39 -38 -81l258 -144q22 -12 26 -33t-9 -35t-30 -14t-40 15l-241 164q-12 -14 -26 -29q-83 -86 -191 -148q-39 -23 -53 -2t11 39q86 56 153.5 134t86.5 129q4 11 -9 17.5t-28 10.5q-26 5 -23.5 28 t27.5 23h69q40 0 51.5 -22.5t5.5 -51.5z" />
<glyph unicode="&#xb059;" d="M126 726q-33 0 -33 37q0 36 33 36h209q44 0 43 -53q-1 -77 -14.5 -176.5t-33.5 -141.5q-1 -3 -2 -5h250q-1 11 1 24q11 75 10 141t-2 138h-157q-32 0 -32 37q0 36 32 36h204q45 0 45 -51q0 -45 -11 -155.5t-31 -164.5q-1 -3 -3 -5h139q34 0 34 -36q0 -37 -34 -37h-721 q-30 0 -30 37q0 36 30 36h218q-1 11 2 25q14 62 14.5 127t0.5 151h-161zM198 67q0 81 63.5 138t152.5 57t152.5 -57t63.5 -138t-63.5 -138t-152.5 -57t-152.5 57t-63.5 138zM286 67q0 -49 37 -84.5t91 -35.5q53 0 90.5 35.5t37.5 84.5t-37.5 84.5t-90.5 35.5 q-54 0 -91 -35.5t-37 -84.5z" />
<glyph unicode="&#xb05d;" d="M126 734q-33 0 -33 36t33 36h209q44 0 43 -53q-1 -77 -14 -165q-13 -84 -32 -126h246q0 6 1 14q10 68 9.5 129t-1.5 129h-157q-32 0 -32 36t32 36h204q45 0 45 -51q0 -45 -10 -144q-12 -96 -30 -149h134q34 0 34 -36q0 -37 -34 -37h-721q-30 0 -30 37q0 36 30 36h218 q0 6 2 15q13 56 14 121.5t1 135.5h-161zM622 134q32 0 32 -37q0 -35 -32 -35h-344v-74q0 -27 24 -27h339q32 0 32 -35q0 -37 -33 -37h-390q-60 0 -60 67v229q0 34 -3 43.5t-22 16.5q-11 5 -19.5 12t-8.5 19q0 26 26 26h468q33 0 33 -36q0 -35 -32 -35h-354v-97h344z" />
<glyph unicode="&#xb07c;" horiz-adv-x="785" d="M66 628q-32 0 -32 37q0 36 32 36h386q21 0 32 -16.5t9 -33.5q-20 -156 -73.5 -274t-143.5 -210q-27 -27 -48.5 -12.5t-2.5 40.5q72 95 114.5 209t51.5 224h-102q-22 -119 -77.5 -226.5t-132.5 -175.5q-30 -29 -49.5 -11t6.5 47q55 61 103 165.5t59 200.5h-132zM609 739 q0 29 -8 38t-28 14t-32.5 11t-12.5 20q0 27 35 27h91q42 0 42 -42v-821q0 -94 -66 -94h-21v847z" />
<glyph unicode="&#xb07d;" horiz-adv-x="785" d="M289 675q-20 -94 -77 -180t-127 -136q-33 -24 -50 -7t11 44q51 49 95 124.5t57 154.5h-132q-32 0 -32 37q0 36 32 36h386q21 0 32 -16.5t9 -31.5q-17 -125 -75.5 -226.5t-142.5 -172.5q-28 -25 -49.5 -10.5t-0.5 38.5q63 70 110 160.5t56 185.5h-102zM609 273v466 q0 29 -8 38t-28 14t-32.5 11t-12.5 20q0 27 35 27h90q43 0 43 -43v-438q0 -95 -66 -95h-21zM228 156q-27 0 -27 37q0 36 27 36h423q38 0 38 -44v-213q0 -99 -61 -99h-25v283h-375z" />
<glyph unicode="&#xb080;" horiz-adv-x="785" d="M66 675q-32 0 -32 37q0 36 32 36h386q21 0 32 -16.5t9 -33.5q-17 -128 -75 -233t-143 -179q-28 -25 -49.5 -11t-0.5 39q63 68 110 167t56 194h-102q-18 -102 -78 -191.5t-126 -140.5q-33 -23 -50 -6t11 43q51 49 96 130.5t56 164.5h-132zM609 739q0 29 -8 38t-28 14 t-32.5 11t-12.5 20q0 27 35 27h91q42 0 42 -43v-589q0 -94 -66 -94h-21v616zM705 -97h-341q-95 0 -95 89v110q0 28 -8.5 37t-28.5 14q-21 7 -28.5 12.5t-7.5 19.5q0 27 31 27h87q42 0 42 -47v-167q0 -21 19 -21h331q32 0 32 -37t-33 -37z" />
<glyph unicode="&#xb084;" horiz-adv-x="785" d="M66 685q-32 0 -32 37q0 36 32 36h386q21 0 32 -16.5t9 -33.5q-16 -111 -75 -202t-143 -155q-29 -23 -50.5 -8t0.5 36q67 66 112 146.5t54 159.5h-100q-21 -79 -76 -152.5t-130 -123.5q-35 -23 -48.5 -4.5t15.5 42.5q53 43 92 105.5t54 132.5h-132zM609 342v397 q0 29 -8 38t-28 14t-32.5 11t-12.5 20q0 27 35 27h90q43 0 43 -43v-368q0 -96 -66 -96h-21zM686 -111h-355q-55 0 -55 66v78q0 22 -7.5 30t-19.5 14q-9 3 -16 9t-7 19q0 25 27 25h349v96h-322q-32 0 -32 37q0 35 32 35h373q36 0 36 -45v-141q0 -53 -41 -53h-284v-73 q0 -25 23 -25h300q32 0 32 -35q0 -37 -33 -37z" />
</font>
</defs>
</svg>
